<svg id="Group_4" data-name="Group 4" xmlns="http://www.w3.org/2000/svg" xmlns:xlink="http://www.w3.org/1999/xlink" width="500" height="372.56" viewBox="0 0 500 372.56">
  <defs>
    <clipPath id="clip-path">
      <rect id="Rectangle_2643" data-name="Rectangle 2643" width="500" height="372.56" fill="none"/>
    </clipPath>
    <clipPath id="clip-path-3">
      <rect id="Rectangle_2611" data-name="Rectangle 2611" width="179.2" height="5.7" transform="translate(267.19 28.71)" fill="none"/>
    </clipPath>
    <clipPath id="clip-path-4">
      <rect id="Rectangle_2612" data-name="Rectangle 2612" width="179.2" height="5.7" transform="translate(267.19 38.08)" fill="none"/>
    </clipPath>
    <clipPath id="clip-path-5">
      <rect id="Rectangle_2613" data-name="Rectangle 2613" width="179.2" height="5.7" transform="translate(267.19 47.45)" fill="none"/>
    </clipPath>
    <clipPath id="clip-path-6">
      <rect id="Rectangle_2614" data-name="Rectangle 2614" width="179.2" height="5.7" transform="translate(267.19 56.82)" fill="none"/>
    </clipPath>
    <clipPath id="clip-path-7">
      <rect id="Rectangle_2615" data-name="Rectangle 2615" width="179.2" height="5.7" transform="translate(267.19 66.19)" fill="none"/>
    </clipPath>
    <clipPath id="clip-path-8">
      <rect id="Rectangle_2616" data-name="Rectangle 2616" width="179.2" height="5.7" transform="translate(267.19 75.56)" fill="none"/>
    </clipPath>
    <clipPath id="clip-path-9">
      <rect id="Rectangle_2625" data-name="Rectangle 2625" width="129.581" height="89.89" transform="translate(276.586 237.36)" fill="none"/>
    </clipPath>
    <clipPath id="clip-path-10">
      <rect id="Rectangle_2626" data-name="Rectangle 2626" width="50.382" height="68.54" transform="translate(266.83 243)" fill="none"/>
    </clipPath>
    <clipPath id="clip-path-11">
      <rect id="Rectangle_2627" data-name="Rectangle 2627" width="36.418" height="35.11" transform="translate(331.406 241.12)" fill="none"/>
    </clipPath>
    <clipPath id="clip-path-12">
      <rect id="Rectangle_2628" data-name="Rectangle 2628" width="19.47" height="50.43" transform="translate(396.78 255.15)" fill="none"/>
    </clipPath>
    <clipPath id="clip-path-13">
      <rect id="Rectangle_2629" data-name="Rectangle 2629" width="36.408" height="35.11" transform="translate(342.216 283.35)" fill="none"/>
    </clipPath>
    <clipPath id="clip-path-14">
      <rect id="Rectangle_2630" data-name="Rectangle 2630" width="12.648" height="12.65" transform="translate(331.871 342.86)" fill="none"/>
    </clipPath>
    <clipPath id="clip-path-15">
      <rect id="Rectangle_2631" data-name="Rectangle 2631" width="129.001" height="81.74" transform="translate(281.685 140.14)" fill="none"/>
    </clipPath>
    <clipPath id="clip-path-16">
      <rect id="Rectangle_2632" data-name="Rectangle 2632" width="126.678" height="29.76" transform="translate(286.336 92.7)" fill="none"/>
    </clipPath>
    <clipPath id="clip-path-17">
      <rect id="Rectangle_2633" data-name="Rectangle 2633" width="71.053" height="68.54" transform="translate(240.099 229)" fill="none"/>
    </clipPath>
    <clipPath id="clip-path-18">
      <rect id="Rectangle_2634" data-name="Rectangle 2634" width="36.418" height="35.11" transform="translate(324.856 229)" fill="none"/>
    </clipPath>
    <clipPath id="clip-path-19">
      <rect id="Rectangle_2635" data-name="Rectangle 2635" width="52.26" height="50.44" transform="translate(390.23 243)" fill="none"/>
    </clipPath>
    <clipPath id="clip-path-20">
      <rect id="Rectangle_2636" data-name="Rectangle 2636" width="36.438" height="35.1" transform="translate(335.666 271.23)" fill="none"/>
    </clipPath>
    <clipPath id="clip-path-21">
      <rect id="Rectangle_2637" data-name="Rectangle 2637" width="87.458" height="53.89" transform="translate(274.874 86.83)" fill="none"/>
    </clipPath>
    <clipPath id="clip-path-22">
      <rect id="Rectangle_2638" data-name="Rectangle 2638" width="113.42" height="113.416" transform="translate(248.915 41.435)" fill="none"/>
    </clipPath>
    <clipPath id="clip-path-23">
      <rect id="Rectangle_2639" data-name="Rectangle 2639" width="14.55" height="13.58" transform="translate(88.82 329.28)" fill="none"/>
    </clipPath>
    <clipPath id="clip-path-24">
      <rect id="Rectangle_2640" data-name="Rectangle 2640" width="8.034" height="22.16" transform="translate(151.676 204.51)" fill="none"/>
    </clipPath>
    <clipPath id="clip-path-25">
      <rect id="Rectangle_2641" data-name="Rectangle 2641" width="11.67" height="12.47" transform="translate(173.26 331.44)" fill="none"/>
    </clipPath>
  </defs>
  <g id="Group_5282" data-name="Group 5282" clip-path="url(#clip-path)">
    <rect id="Rectangle_2595" data-name="Rectangle 2595" width="500" height="0.25" transform="translate(0 327.4)" fill="#ebebeb"/>
    <rect id="Rectangle_2596" data-name="Rectangle 2596" width="33.12" height="0.25" transform="translate(416.78 343.49)" fill="#ebebeb"/>
    <rect id="Rectangle_2597" data-name="Rectangle 2597" width="8.689" height="0.25" transform="translate(322.53 346.21)" fill="#ebebeb"/>
    <rect id="Rectangle_2598" data-name="Rectangle 2598" width="19.19" height="0.25" transform="translate(396.59 334.21)" fill="#ebebeb"/>
    <rect id="Rectangle_2599" data-name="Rectangle 2599" width="43.19" height="0.249" transform="translate(52.46 335.891)" fill="#ebebeb"/>
    <rect id="Rectangle_2600" data-name="Rectangle 2600" width="6.33" height="0.249" transform="translate(104.56 335.891)" fill="#ebebeb"/>
    <rect id="Rectangle_2601" data-name="Rectangle 2601" width="93.68" height="0.25" transform="translate(131.47 340.11)" fill="#ebebeb"/>
    <g id="Group_5281" data-name="Group 5281">
      <g id="Group_5280" data-name="Group 5280" clip-path="url(#clip-path)">
        <path id="Path_6893" data-name="Path 6893" d="M237,282.8H43.91a5.71,5.71,0,0,1-5.7-5.71V5.66A5.71,5.71,0,0,1,43.91,0H237a5.709,5.709,0,0,1,5.71,5.71V277.09A5.709,5.709,0,0,1,237,282.8M43.91.2a5.459,5.459,0,0,0-5.45,5.46V277.09a5.46,5.46,0,0,0,5.45,5.46H237a5.471,5.471,0,0,0,5.46-5.46V5.66A5.47,5.47,0,0,0,237,.2Z" fill="#ebebeb"/>
        <path id="Path_6894" data-name="Path 6894" d="M453.31,282.8H260.21a5.721,5.721,0,0,1-5.71-5.71V5.66A5.72,5.72,0,0,1,260.21,0h193.1A5.71,5.71,0,0,1,459,5.66V277.09a5.71,5.71,0,0,1-5.69,5.71M260.21.2a5.47,5.47,0,0,0-5.46,5.46V277.09a5.471,5.471,0,0,0,5.46,5.46h193.1a5.47,5.47,0,0,0,5.46-5.46V5.66A5.47,5.47,0,0,0,453.31.2Z" fill="#ebebeb"/>
        <rect id="Rectangle_2602" data-name="Rectangle 2602" width="32.89" height="120.41" transform="translate(106.33 206.99)" fill="#e6e6e6"/>
        <path id="Path_6895" data-name="Path 6895" d="M114.09,327.4h-7.76V305.33h15.9Z" fill="#f0f0f0"/>
        <rect id="Rectangle_2603" data-name="Rectangle 2603" width="32.89" height="120.41" transform="translate(311.66 206.99)" fill="#e6e6e6"/>
        <rect id="Rectangle_2604" data-name="Rectangle 2604" width="212.1" height="109.54" transform="translate(106.34 207)" fill="#f0f0f0"/>
        <path id="Path_6896" data-name="Path 6896" d="M209,301.53H113.1V214.18H209Zm.75-88.1h-97.4v88.85h97.43V213.43Z" fill="#fafafa"/>
        <path id="Path_6897" data-name="Path 6897" d="M311.67,301.53H215.74V214.18h95.93Zm.75-88.1H215v88.85h97.43V213.43Z" fill="#fafafa"/>
        <path id="Path_6898" data-name="Path 6898" d="M229.88,225.77c3.811,0,6.9,1.849,6.9,4.13s-3.089,4.13-6.9,4.13-6.9-1.849-6.9-4.13,3.089-4.13,6.9-4.13" fill="#fafafa"/>
        <path id="Path_6899" data-name="Path 6899" d="M194.89,225.77c3.811,0,6.9,1.849,6.9,4.13s-3.089,4.13-6.9,4.13-6.9-1.849-6.9-4.13,3.089-4.13,6.9-4.13" fill="#fafafa"/>
        <path id="Path_6900" data-name="Path 6900" d="M310.68,327.4h7.76V305.33h-15.9Z" fill="#f0f0f0"/>
        <path id="Path_6901" data-name="Path 6901" d="M214.16,193s.6,14,23.42,14S261,193,261,193Z" fill="#f5f5f5"/>
        <rect id="Rectangle_2605" data-name="Rectangle 2605" width="177.18" height="108.14" transform="translate(273.1 20.06)" fill="#e6e6e6"/>
        <rect id="Rectangle_2606" data-name="Rectangle 2606" width="180.99" height="108.14" transform="translate(268.67 20.06)" fill="#f0f0f0"/>
        <rect id="Rectangle_2607" data-name="Rectangle 2607" width="177.18" height="4.13" transform="translate(273.1 128.21)" fill="#e6e6e6"/>
        <rect id="Rectangle_2608" data-name="Rectangle 2608" width="180.99" height="4.13" transform="translate(261.26 128.21)" fill="#f0f0f0"/>
        <rect id="Rectangle_2609" data-name="Rectangle 2609" width="168.55" height="95.7" transform="translate(274.89 26.29)" fill="#fafafa"/>
        <path id="Path_6902" data-name="Path 6902" d="M391.53,121.99l-9.96-95.7H364.34l9.96,95.7Z" fill="#fff"/>
        <path id="Path_6903" data-name="Path 6903" d="M440.55,94.66a.47.47,0,0,0,.48-.46V30.33a.48.48,0,0,0-.95,0V94.18a.47.47,0,0,0,.46.48h.01" fill="#f0f0f0"/>
        <path id="Path_6904" data-name="Path 6904" d="M370.6,121.99l-9.97-95.7h-6.71l9.96,95.7Z" fill="#fff"/>
        <rect id="Rectangle_2610" data-name="Rectangle 2610" width="0.79" height="95.7" transform="translate(274.89 26.29)" fill="#e6e6e6"/>
        <g id="Group_5213" data-name="Group 5213" opacity="0.5" style="isolation: isolate">
          <g id="Group_5212" data-name="Group 5212">
            <g id="Group_5211" data-name="Group 5211" clip-path="url(#clip-path-3)">
              <path id="Path_6905" data-name="Path 6905" d="M267.19,34.41H445.82l.57-5.7H267.77Z" fill="#e0e0e0"/>
            </g>
          </g>
        </g>
        <g id="Group_5216" data-name="Group 5216" opacity="0.5" style="isolation: isolate">
          <g id="Group_5215" data-name="Group 5215">
            <g id="Group_5214" data-name="Group 5214" clip-path="url(#clip-path-4)">
              <path id="Path_6906" data-name="Path 6906" d="M267.19,43.78H445.82l.57-5.7H267.77Z" fill="#e0e0e0"/>
            </g>
          </g>
        </g>
        <g id="Group_5219" data-name="Group 5219" opacity="0.5" style="isolation: isolate">
          <g id="Group_5218" data-name="Group 5218">
            <g id="Group_5217" data-name="Group 5217" clip-path="url(#clip-path-5)">
              <path id="Path_6907" data-name="Path 6907" d="M267.19,53.15H445.82l.57-5.7H267.77Z" fill="#e0e0e0"/>
            </g>
          </g>
        </g>
        <g id="Group_5222" data-name="Group 5222" opacity="0.5" style="isolation: isolate">
          <g id="Group_5221" data-name="Group 5221">
            <g id="Group_5220" data-name="Group 5220" clip-path="url(#clip-path-6)">
              <path id="Path_6908" data-name="Path 6908" d="M267.19,62.52H445.82l.57-5.7H267.77Z" fill="#e0e0e0"/>
            </g>
          </g>
        </g>
        <g id="Group_5225" data-name="Group 5225" opacity="0.5" style="isolation: isolate">
          <g id="Group_5224" data-name="Group 5224">
            <g id="Group_5223" data-name="Group 5223" clip-path="url(#clip-path-7)">
              <path id="Path_6909" data-name="Path 6909" d="M267.19,71.89H445.82l.57-5.7H267.77Z" fill="#e0e0e0"/>
            </g>
          </g>
        </g>
        <g id="Group_5228" data-name="Group 5228" opacity="0.5" style="isolation: isolate">
          <g id="Group_5227" data-name="Group 5227">
            <g id="Group_5226" data-name="Group 5226" clip-path="url(#clip-path-8)">
              <path id="Path_6910" data-name="Path 6910" d="M267.19,81.26H445.82l.57-5.7H267.77Z" fill="#e0e0e0"/>
            </g>
          </g>
        </g>
        <rect id="Rectangle_2617" data-name="Rectangle 2617" width="107.94" height="71.46" transform="translate(122.69 22.9)" fill="#e0e0e0"/>
        <rect id="Rectangle_2618" data-name="Rectangle 2618" width="111.6" height="71.46" transform="translate(116.19 22.9)" fill="#f5f5f5"/>
        <rect id="Rectangle_2619" data-name="Rectangle 2619" width="92.9" height="46.42" transform="translate(125.54 35.42)" fill="#fff"/>
        <rect id="Rectangle_2620" data-name="Rectangle 2620" width="107.94" height="71.46" transform="translate(65.48 110.63)" fill="#e0e0e0"/>
        <rect id="Rectangle_2621" data-name="Rectangle 2621" width="111.6" height="71.46" transform="translate(58.96 110.63)" fill="#f5f5f5"/>
        <rect id="Rectangle_2622" data-name="Rectangle 2622" width="92.9" height="46.42" transform="translate(68.31 123.14)" fill="#fff"/>
        <path id="Path_6911" data-name="Path 6911" d="M250,349.92c107.082,0,193.89,5.068,193.89,11.32S357.082,372.56,250,372.56,56.11,367.492,56.11,361.24,142.918,349.92,250,349.92" fill="#d9f2f2"/>
        <rect id="Rectangle_2623" data-name="Rectangle 2623" width="8.28" height="1.02" transform="translate(426.249 122.019) rotate(-87.252)" fill="#407bff"/>
        <rect id="Rectangle_2624" data-name="Rectangle 2624" width="23.22" height="1.02" transform="translate(426.976 107.423) rotate(-87.25)" fill="#407bff"/>
        <path id="Path_6912" data-name="Path 6912" d="M289.41,71.33h124A12.11,12.11,0,0,1,425.6,83.361q0,.375-.018.749L413,348.46a13.59,13.59,0,0,1-13.38,12.78H275.64a12.11,12.11,0,0,1-12.188-12.031q0-.375.018-.749L276,84.11a13.57,13.57,0,0,1,13.41-12.78" fill="#407bff"/>
        <path id="Path_6913" data-name="Path 6913" d="M455.7,184.68l.29-6.07-3.71-1.08a37.3,37.3,0,0,0-.91-6l3.18-2.44-2.06-5.61-3.91.44a34.44,34.44,0,0,0-3.18-5.11l2.06-3.43-4.09-4.29-3.51,1.89a34.209,34.209,0,0,0-5-3.43l.63-3.88-5.5-2.32-2.58,3.06a35.344,35.344,0,0,0-6-1.21l-.89-3.75h-6.08l-1.25,3.76a37.486,37.486,0,0,0-6.11,1.2l-2.28-3.06-5.72,2.32.25,3.88A40.8,40.8,0,0,0,394.1,153l-3.33-1.9-4.5,4.29,1.74,3.43a38.431,38.431,0,0,0-3.67,5.11l-3.87-.44-2.59,5.61,2.95,2.44a36.98,36.98,0,0,0-1.49,6l-3.82,1.08-.29,6.07,3.72,1.08a35.151,35.151,0,0,0,.91,6l-3.18,2.43,2.06,5.61,3.91-.44a34.588,34.588,0,0,0,3.18,5.12l-2.07,3.42,4.09,4.3,3.52-1.9a34.544,34.544,0,0,0,4.95,3.43l-.62,3.88,5.5,2.33,2.58-3.07a35.44,35.44,0,0,0,6,1.2l.9,3.77h6.07l1.26-3.77a36.6,36.6,0,0,0,6.1-1.2l2.29,3.07,5.72-2.33-.26-3.88a38.4,38.4,0,0,0,5.28-3.43l3.34,1.9,4.5-4.3-1.74-3.42a40.356,40.356,0,0,0,3.67-5.12l3.87.44,2.59-5.61-3-2.43a38.072,38.072,0,0,0,1.48-6Zm-14.11-3a27.529,27.529,0,0,1-27.21,26A24.54,24.54,0,0,1,389.6,183.385q-.009-.854.042-1.705a27.539,27.539,0,0,1,27.22-26,24.54,24.54,0,0,1,24.77,24.308q.008.826-.04,1.652Z" fill="#407bff"/>
        <path id="Path_6914" data-name="Path 6914" d="M413.21,74.53H289.26a10.15,10.15,0,0,0-10,9.58L267.28,335.44a3.13,3.13,0,0,0,2.945,3.3c.071,0,.143.006.215.005H406.92a3.5,3.5,0,0,0,3.47-3.31L422.33,84.11a9,9,0,0,0-8.4-9.562q-.36-.024-.72-.018" fill="#fff"/>
        <g id="Group_5231" data-name="Group 5231" opacity="0.2" style="isolation: isolate">
          <g id="Group_5230" data-name="Group 5230">
            <g id="Group_5229" data-name="Group 5229" clip-path="url(#clip-path-9)">
              <path id="Path_6915" data-name="Path 6915" d="M390.92,327.25H287.6a11,11,0,0,1-11.014-10.986c0-.191,0-.383.014-.574l3.18-66.81a12.22,12.22,0,0,1,12.06-11.52H395.15a10.95,10.95,0,0,1,11.017,10.883c0,.226,0,.451-.017.677L403,315.73a12.23,12.23,0,0,1-12.08,11.52m-99.1-89a11.28,11.28,0,0,0-11.14,10.63l-3.18,66.81a10,10,0,0,0,9.381,10.583c.24.014.479.02.719.017H390.92a11.29,11.29,0,0,0,11.15-10.64l3.17-66.81a10,10,0,0,0-9.392-10.573q-.348-.021-.7-.017Z" fill="#407bff"/>
            </g>
          </g>
        </g>
        <g id="Group_5234" data-name="Group 5234" opacity="0.1" style="isolation: isolate">
          <g id="Group_5233" data-name="Group 5233">
            <g id="Group_5232" data-name="Group 5232" clip-path="url(#clip-path-10)">
              <path id="Path_6916" data-name="Path 6916" d="M309.44,243H270.09l-3.26,68.54h39.36a8.66,8.66,0,0,0,8.53-8.15l2.48-52.25a7.72,7.72,0,0,0-7.288-8.129c-.157-.008-.315-.012-.472-.011" fill="#407bff"/>
            </g>
          </g>
        </g>
        <g id="Group_5237" data-name="Group 5237" opacity="0.1" style="isolation: isolate">
          <g id="Group_5236" data-name="Group 5236">
            <g id="Group_5235" data-name="Group 5235" clip-path="url(#clip-path-11)">
              <path id="Path_6917" data-name="Path 6917" d="M362.17,276.23H335.41a4,4,0,0,1-4-4c0-.058,0-.116,0-.174l1.27-26.77a4.44,4.44,0,0,1,4.37-4.17h26.77a4,4,0,0,1,4,4c0,.058,0,.116,0,.174l-1.27,26.77a4.44,4.44,0,0,1-4.38,4.17" fill="#407bff"/>
            </g>
          </g>
        </g>
        <g id="Group_5240" data-name="Group 5240" opacity="0.1" style="isolation: isolate">
          <g id="Group_5239" data-name="Group 5239">
            <g id="Group_5238" data-name="Group 5238" clip-path="url(#clip-path-12)">
              <path id="Path_6918" data-name="Path 6918" d="M404.89,255.15a6.36,6.36,0,0,0-6.27,6l-1.83,38.43a5.671,5.671,0,0,0,5.33,5.991c.123.007.247.01.37.009h11.37l2.39-50.41Z" fill="#407bff"/>
            </g>
          </g>
        </g>
        <g id="Group_5243" data-name="Group 5243" opacity="0.1" style="isolation: isolate">
          <g id="Group_5242" data-name="Group 5242">
            <g id="Group_5241" data-name="Group 5241" clip-path="url(#clip-path-13)">
              <path id="Path_6919" data-name="Path 6919" d="M373,318.46H346.22a4,4,0,0,1-4-4c0-.058,0-.116,0-.174l1.27-26.77a4.44,4.44,0,0,1,4.37-4.17h26.76a4,4,0,0,1,4,4c0,.058,0,.116,0,.174l-1.27,26.77a4.44,4.44,0,0,1-4.35,4.17" fill="#407bff"/>
            </g>
          </g>
        </g>
        <g id="Group_5246" data-name="Group 5246" opacity="0.2" style="isolation: isolate">
          <g id="Group_5245" data-name="Group 5245">
            <g id="Group_5244" data-name="Group 5244" clip-path="url(#clip-path-14)">
              <path id="Path_6920" data-name="Path 6920" d="M344.51,349.18a6.7,6.7,0,0,1-6.63,6.33,6,6,0,0,1-6.009-5.991q0-.17.009-.339a6.7,6.7,0,0,1,6.63-6.32,6,6,0,0,1,6.009,5.991c0,.11,0,.22-.009.329" fill="#fff"/>
            </g>
          </g>
        </g>
        <g id="Group_5249" data-name="Group 5249" opacity="0.2" style="isolation: isolate">
          <g id="Group_5248" data-name="Group 5248">
            <g id="Group_5247" data-name="Group 5247" clip-path="url(#clip-path-15)">
              <path id="Path_6921" data-name="Path 6921" d="M403,221.88H285.52a3.8,3.8,0,0,1-3.835-3.765c0-.078,0-.157.005-.235l3.51-73.74a4.249,4.249,0,0,1,4.2-4H406.86a3.79,3.79,0,0,1,3.826,3.754c0,.082,0,.164-.006.246l-3.5,73.74a4.26,4.26,0,0,1-4.18,4" fill="#407bff"/>
            </g>
          </g>
        </g>
        <g id="Group_5252" data-name="Group 5252" opacity="0.6" style="isolation: isolate">
          <g id="Group_5251" data-name="Group 5251">
            <g id="Group_5250" data-name="Group 5250" clip-path="url(#clip-path-16)">
              <path id="Path_6922" data-name="Path 6922" d="M409.29,122.46H288.65a2.3,2.3,0,0,1-2.314-2.286c0-.048,0-.1,0-.144l1.18-24.9a2.58,2.58,0,0,1,2.54-2.43H410.7a2.3,2.3,0,0,1,2.314,2.286c0,.048,0,.1,0,.144L411.82,120a2.56,2.56,0,0,1-2.53,2.46" fill="#407bff"/>
            </g>
          </g>
        </g>
        <path id="Path_6923" data-name="Path 6923" d="M298.84,164.88h-6.37l-2.15,45.23h6.37Z" fill="#407bff"/>
        <path id="Path_6924" data-name="Path 6924" d="M310.87,181.52H304.5l-1.36,28.59h6.37Z" fill="#407bff"/>
        <path id="Path_6925" data-name="Path 6925" d="M323.24,191.12h-6.37l-.9,18.99h6.37Z" fill="#407bff"/>
        <path id="Path_6926" data-name="Path 6926" d="M335.62,200.62h-6.38l-.45,9.49h6.37Z" fill="#407bff"/>
        <path id="Path_6927" data-name="Path 6927" d="M349.62,175.76h-6.37l-1.63,34.35h6.37Z" fill="#407bff"/>
        <path id="Path_6928" data-name="Path 6928" d="M363.32,157.41h-6.38l-2.5,52.7h6.37Z" fill="#407bff"/>
        <path id="Path_6929" data-name="Path 6929" d="M376.41,151.86h-6.38l-2.76,58.25h6.37Z" fill="#407bff"/>
        <path id="Path_6930" data-name="Path 6930" d="M388.16,174.48h-6.38l-1.69,35.63h6.37Z" fill="#407bff"/>
        <path id="Path_6931" data-name="Path 6931" d="M400.43,186h-6.37l-1.14,24.11h6.37Z" fill="#407bff"/>
        <path id="Path_6932" data-name="Path 6932" d="M300.13,297.54H247.87a7.72,7.72,0,0,1-7.771-7.668c0-.158,0-.315.011-.472l2.49-52.25a8.66,8.66,0,0,1,8.53-8.15h52.25a7.72,7.72,0,0,1,7.772,7.668c0,.161,0,.321-.012.482l-2.48,52.25a8.66,8.66,0,0,1-8.53,8.14" fill="#407bff"/>
        <g id="Group_5255" data-name="Group 5255" opacity="0.8" style="isolation: isolate">
          <g id="Group_5254" data-name="Group 5254">
            <g id="Group_5253" data-name="Group 5253" clip-path="url(#clip-path-17)">
              <path id="Path_6933" data-name="Path 6933" d="M300.13,297.54H247.87a7.72,7.72,0,0,1-7.771-7.668c0-.158,0-.315.011-.472l2.49-52.25a8.66,8.66,0,0,1,8.53-8.15h52.25a7.72,7.72,0,0,1,7.772,7.668c0,.161,0,.321-.012.482l-2.48,52.25a8.66,8.66,0,0,1-8.53,8.14" fill="#fff"/>
            </g>
          </g>
        </g>
        <path id="Path_6934" data-name="Path 6934" d="M299.87,267.26l.38-8-3.72-2.46a19.634,19.634,0,0,0-1.47-3.88l1-3.8-5.37-5.64-3.83.83a20.257,20.257,0,0,0-3.81-1.65l-2.28-3.84h-8l-2.64,3.84a22.323,22.323,0,0,0-4,1.65l-3.75-.83-5.92,5.64.65,3.79a22.473,22.473,0,0,0-1.84,3.9l-3.94,2.45-.38,8,3.71,2.46a20.025,20.025,0,0,0,1.47,3.89l-1,3.79,5.38,5.65,3.83-.83a20.819,20.819,0,0,0,3.8,1.65l2.28,3.83h8l2.65-3.83a23.29,23.29,0,0,0,4-1.65l3.75.83,5.92-5.65-.65-3.79a22.708,22.708,0,0,0,1.84-3.89Zm-24.7,5.59a9,9,0,0,1-9.137-8.861c0-.236,0-.473.017-.709a10.15,10.15,0,0,1,10-9.58,9,9,0,0,1,9.138,8.86c0,.24,0,.48-.018.72A10.149,10.149,0,0,1,275.17,272.85Z" fill="#fff"/>
        <path id="Path_6935" data-name="Path 6935" d="M355.62,264.11H328.86a4,4,0,0,1-4-4c0-.061,0-.123,0-.184l1.27-26.76A4.44,4.44,0,0,1,330.5,229h26.77a4,4,0,0,1,4,4c0,.058,0,.116,0,.174L360,259.93a4.439,4.439,0,0,1-4.38,4.18" fill="#407bff"/>
        <g id="Group_5258" data-name="Group 5258" opacity="0.6" style="isolation: isolate">
          <g id="Group_5257" data-name="Group 5257">
            <g id="Group_5256" data-name="Group 5256" clip-path="url(#clip-path-18)">
              <path id="Path_6936" data-name="Path 6936" d="M355.62,264.11H328.86a4,4,0,0,1-4-4c0-.061,0-.123,0-.184l1.27-26.76A4.44,4.44,0,0,1,330.5,229h26.77a4,4,0,0,1,4,4c0,.058,0,.116,0,.174L360,259.93a4.439,4.439,0,0,1-4.38,4.18" fill="#fff"/>
            </g>
          </g>
        </g>
        <path id="Path_6937" data-name="Path 6937" d="M434.38,293.44H395.94a5.671,5.671,0,0,1-5.71-5.63c0-.124,0-.247.01-.37L392.07,249a6.36,6.36,0,0,1,6.27-6h38.43a5.67,5.67,0,0,1,5.719,5.62c0,.127,0,.254-.009.38l-1.83,38.43a6.36,6.36,0,0,1-6.27,6.01" fill="#407bff"/>
        <g id="Group_5261" data-name="Group 5261" opacity="0.4" style="isolation: isolate">
          <g id="Group_5260" data-name="Group 5260">
            <g id="Group_5259" data-name="Group 5259" clip-path="url(#clip-path-19)">
              <path id="Path_6938" data-name="Path 6938" d="M434.38,293.44H395.94a5.671,5.671,0,0,1-5.71-5.63c0-.124,0-.247.01-.37L392.07,249a6.36,6.36,0,0,1,6.27-6h38.43a5.67,5.67,0,0,1,5.719,5.62c0,.127,0,.254-.009.38l-1.83,38.43a6.36,6.36,0,0,1-6.27,6.01" fill="#fff"/>
            </g>
          </g>
        </g>
        <path id="Path_6939" data-name="Path 6939" d="M428.96,268.23l-19.47-11.55-1.1,23.11Z" fill="#fff"/>
        <path id="Path_6940" data-name="Path 6940" d="M366.44,306.33H339.67a4,4,0,0,1-4-4c0-.058,0-.116,0-.174L337,275.4a4.44,4.44,0,0,1,4.37-4.17H368.1a4,4,0,0,1,4,4c0,.058,0,.116,0,.174l-1.27,26.76a4.43,4.43,0,0,1-4.39,4.17" fill="#407bff"/>
        <g id="Group_5264" data-name="Group 5264" opacity="0.4" style="isolation: isolate">
          <g id="Group_5263" data-name="Group 5263">
            <g id="Group_5262" data-name="Group 5262" clip-path="url(#clip-path-20)">
              <path id="Path_6941" data-name="Path 6941" d="M366.44,306.33H339.67a4,4,0,0,1-4-4c0-.058,0-.116,0-.174L337,275.4a4.44,4.44,0,0,1,4.37-4.17H368.1a4,4,0,0,1,4,4c0,.058,0,.116,0,.174l-1.27,26.76a4.43,4.43,0,0,1-4.39,4.17" fill="#fff"/>
            </g>
          </g>
        </g>
        <path id="Path_6942" data-name="Path 6942" d="M350.62,299l-9.5-9.98,2.21-2.1,7.4,7.76,14.12-13.48,2.1,2.21Z" fill="#fff"/>
        <path id="Path_6943" data-name="Path 6943" d="M165.276,108.83c-.059,5.71-1.239,16-6.657,18.88a23.91,23.91,0,0,0,13.538,11.64c11.188-2.9,6.609-8.14,6.609-8.14-.224-4.89-.389-7.08,1.9-11.13Z" fill="#ffb573"/>
        <path id="Path_6944" data-name="Path 6944" d="M164.06,138.9c1.3,4.73,2.73,9.57,4.21,14.28q1.125,3.54,2.39,7a70.293,70.293,0,0,0,2.72,6.57,26.117,26.117,0,0,0,1.52,2.77c.13.18.26.39.37.52l.18.23c.05.08.19.24.28.35l1.25,1.48c1.62,2,3.24,4,4.8,6,3.14,4,6.18,8.11,9.07,12.34l-3.58,3.17c-3.84-3.37-7.55-6.86-11.18-10.41l-5.41-5.32-1.33-1.33c-.12-.12-.2-.19-.35-.36l-.44-.49a11.675,11.675,0,0,1-.8-1,31.631,31.631,0,0,1-2.4-3.75,97.644,97.644,0,0,1-6.21-14.69c-1.72-4.93-3.18-9.83-4.46-14.92Z" fill="#ffb573"/>
        <path id="Path_6945" data-name="Path 6945" d="M151.52,131.56c-4,5.84,1.1,20.25,1.1,20.25h17.93s.17-11.92-2.33-16.52c-3.22-5.94-14.12-7.53-16.7-3.73" fill="#263238"/>
        <path id="Path_6946" data-name="Path 6946" d="M196.28,191.65l-6.93-2-3.63,1.44c0,3.93,5.42,6.75,5.42,6.75l4.19,3.85a2.749,2.749,0,0,0,3.25.35l2.61-1.53a2.75,2.75,0,0,0,1-3.759,2.683,2.683,0,0,0-.157-.241l-1.13-1.58a8.705,8.705,0,0,0-4.62-3.28" fill="#ffb573"/>
        <path id="Path_6947" data-name="Path 6947" d="M261.64,151.37l-9.23-9.23a5.162,5.162,0,1,1,7.3-7.3l9.23,9.23a5.162,5.162,0,1,1-7.3,7.3" fill="#263238"/>
        <path id="Path_6948" data-name="Path 6948" d="M260.726,142.281l.771.771a4.2,4.2,0,0,1,0,5.939l-5.947,5.947a4.2,4.2,0,0,1-5.94,0l-.77-.771a4.2,4.2,0,0,1,0-5.939l5.946-5.947a4.2,4.2,0,0,1,5.94,0" fill="#263238"/>
        <path id="Path_6949" data-name="Path 6949" d="M169.15,243.25l-8.61-8.61a2.59,2.59,0,0,1-.037-3.663c.012-.012.024-.025.037-.037l87.65-84.57a2.6,2.6,0,0,1,3.63,0l5.53,5.53a2.59,2.59,0,0,1,0,3.63l-84.57,87.65a2.59,2.59,0,0,1-3.63.07" fill="#263238"/>
        <path id="Path_6950" data-name="Path 6950" d="M259.16,130.65a55.272,55.272,0,0,1-5.34-9.44l2.37-50a4.762,4.762,0,0,1,.07-1,24.63,24.63,0,0,1,22.57-22.08c.53,0,1.06-.07,1.59-.07h51.91a57.985,57.985,0,0,1,8.76,5.79,56.71,56.71,0,0,1,4.63,84.35c-.87.87-1.74,1.69-2.65,2.48a56.722,56.722,0,0,1-83.91-10.07Z" fill="#407bff"/>
        <path id="Path_6951" data-name="Path 6951" d="M265.53,138.24a56.825,56.825,0,0,1-6.37-7.59l2.82-59.4a18.381,18.381,0,0,1,18.17-17.36h60.94a56.71,56.71,0,0,1,4.63,84.35c-.87.87-1.74,1.69-2.65,2.48a56.69,56.69,0,0,1-77.54-2.48" fill="#fff"/>
        <g id="Group_5267" data-name="Group 5267" opacity="0.6" style="isolation: isolate">
          <g id="Group_5266" data-name="Group 5266">
            <g id="Group_5265" data-name="Group 5265" clip-path="url(#clip-path-21)">
              <path id="Path_6952" data-name="Path 6952" d="M345.72,138.24c-.87.87-1.74,1.69-2.65,2.48h-64a4.16,4.16,0,0,1-4.2-4.123q0-.134.006-.267L277,91.21a4.641,4.641,0,0,1,4.59-4.38h79.59a56.6,56.6,0,0,1-15.46,51.41" fill="#407bff"/>
            </g>
          </g>
        </g>
        <g id="Group_5270" data-name="Group 5270" opacity="0.5" style="isolation: isolate">
          <g id="Group_5269" data-name="Group 5269">
            <g id="Group_5268" data-name="Group 5268" clip-path="url(#clip-path-22)">
              <path id="Path_6953" data-name="Path 6953" d="M265.53,138.25a56.71,56.71,0,1,1,80.2-.01l-.01.01a56.721,56.721,0,0,1-80.19,0" fill="#fff"/>
            </g>
          </g>
        </g>
        <path id="Path_6954" data-name="Path 6954" d="M327.61,106.13c-8.22,8.22-17.58,7.56-23.76,1.37S297,92,305.22,83.74s19.9-9.87,26.08-3.69,4.53,17.86-3.69,26.08" fill="#263238"/>
        <path id="Path_6955" data-name="Path 6955" d="M325.33,86c-3.26-3.27-3.92-7.9-1.47-10.35s7.08-1.79,10.35,1.47,3.91,7.89,1.46,10.34-7.08,1.83-10.34-1.46" fill="#263238"/>
        <path id="Path_6956" data-name="Path 6956" d="M322.72,89.89a1.278,1.278,0,0,1-1-.52L311.37,74.93a1.251,1.251,0,0,1-.22-.88l1.05-8.9a1.27,1.27,0,1,1,2.533.195c0,.035-.007.07-.013.1l-1,8.41,10.06,14a1.27,1.27,0,0,1-.29,1.77,1.255,1.255,0,0,1-.77.26" fill="#263238"/>
        <path id="Path_6957" data-name="Path 6957" d="M337.16,100.24a1.271,1.271,0,0,1-.74-.23L322,89.66a1.27,1.27,0,0,1,1.293-2.186,1.234,1.234,0,0,1,.177.126l14,10.06,8.41-1a1.27,1.27,0,0,1,.3,2.52l-8.9,1Z" fill="#263238"/>
        <path id="Path_6958" data-name="Path 6958" d="M314.46,98.15a1.239,1.239,0,0,1-.73-.23l-14-10.07-8.41,1a1.264,1.264,0,0,1-.3-2.51l8.9-1.06a1.292,1.292,0,0,1,.89.23l14.43,10.35a1.26,1.26,0,0,1-.74,2.29Z" fill="#263238"/>
        <path id="Path_6959" data-name="Path 6959" d="M323.76,121.48h-.15a1.26,1.26,0,0,1-1.111-1.393v-.007l1-8.41-10.07-14a1.28,1.28,0,0,1,.3-1.77,1.261,1.261,0,0,1,1.759.288v0l10.35,14.43a1.24,1.24,0,0,1,.23.89l-1.06,8.9a1.26,1.26,0,0,1-1.25,1.07" fill="#263238"/>
        <path id="Path_6960" data-name="Path 6960" d="M337.9,113.33a1.27,1.27,0,0,1-.9-.37L298.39,74.35a1.266,1.266,0,0,1,1.782-1.8l.008.008,38.61,38.61a1.26,1.26,0,0,1,.008,1.782l-.008.008a1.23,1.23,0,0,1-.89.37" fill="#263238"/>
        <path id="Path_6961" data-name="Path 6961" d="M332.71,79.91a1.313,1.313,0,0,1-.51-.1,1.27,1.27,0,0,1-.66-1.66,9,9,0,0,0-3.13-10.59,1.27,1.27,0,0,1,1.53-2,11.51,11.51,0,0,1,3.93,13.61,1.271,1.271,0,0,1-1.16.74" fill="#263238"/>
        <path id="Path_6962" data-name="Path 6962" d="M344.8,83.44a1.26,1.26,0,0,1-1-.5,9,9,0,0,0-10.59-3.13,1.263,1.263,0,1,1-1-2.32,11.509,11.509,0,0,1,13.61,3.92,1.26,1.26,0,0,1-.244,1.765l-.006,0a1.194,1.194,0,0,1-.77.26" fill="#263238"/>
        <path id="Path_6963" data-name="Path 6963" d="M350.59,53.19a63.58,63.58,0,1,0,0,89.92,63.581,63.581,0,0,0,0-89.92Zm-82.87,82.87a53.62,53.62,0,1,1,75.83-.01l-.01.01a53.61,53.61,0,0,1-75.816,0l0,0" fill="#407bff"/>
        <path id="Path_6964" data-name="Path 6964" d="M198,143.74c.31,2.22.69,4.68,1.14,7s.95,4.68,1.54,7a67.085,67.085,0,0,0,2.09,6.66,33.371,33.371,0,0,0,2.78,5.93,18.343,18.343,0,0,0,1.71,2.36l.46.47c.16.17.23.21.34.33a7.486,7.486,0,0,0,.91.62,19.611,19.611,0,0,0,5.83,1.85A87.216,87.216,0,0,0,229,177l.7,4.73a55.631,55.631,0,0,1-15.7,1.78,25.263,25.263,0,0,1-8.68-1.75,14.441,14.441,0,0,1-2.33-1.27q-.576-.4-1.11-.85l-.91-.82A28.036,28.036,0,0,1,198,175.3a51.8,51.8,0,0,1-6.6-15.05c-.72-2.54-1.37-5.09-1.84-7.66s-.92-5.08-1.19-7.83Z" fill="#ffb573"/>
        <path id="Path_6965" data-name="Path 6965" d="M193.86,135.9c7.93,5.3,12.067,32.426,12.067,32.426l-10.373,7.922s-14.484-24.058-13.224-33.3c.73-5.39,6.67-10.32,11.53-7.05" fill="#263238"/>
        <path id="Path_6966" data-name="Path 6966" d="M226.86,177l10.22-.42L232,184.37s-5.32-.71-6.51-4.36Z" fill="#ffb573"/>
        <path id="Path_6967" data-name="Path 6967" d="M240.67,182.44l-1,1.41a3.06,3.06,0,0,1-3,1.27l-4.74-.75,5.13-7.82,2.59,1.48a3.069,3.069,0,0,1,1.161,4.183c-.043.078-.091.154-.141.227" fill="#ffb573"/>
        <path id="Path_6968" data-name="Path 6968" d="M160.26,101.1c1.263,9.32,1.558,13.29,7.424,17.84,8.828,6.85,22.07,3.5,24.124-5.95,1.853-8.5-.508-22.32-11.543-25.56-7.87-2.347-16.5,1.156-19.266,7.824a10.98,10.98,0,0,0-.739,5.846" fill="#ffb573"/>
        <path id="Path_6969" data-name="Path 6969" d="M83.86,352.12l9.27,1.81,10.25-22.85-9.27-1.8Z" fill="#ffb573"/>
        <path id="Path_6970" data-name="Path 6970" d="M95.51,349.88l-10-3.54a.58.58,0,0,0-.765.3.563.563,0,0,0-.035.1l-3,7.82a1.94,1.94,0,0,0,1.19,2.2c3.5,1.17,7.14,1.74,11.68,2.85,3.637.96,12.55,1.507,16.31,1.63,3.88,0,3.4-3.93,1.67-4.28-7.73-1.59-13.6-3-15.65-6a2.913,2.913,0,0,0-1.4-1.08" fill="#263238"/>
        <g id="Group_5273" data-name="Group 5273" opacity="0.2">
          <g id="Group_5272" data-name="Group 5272">
            <g id="Group_5271" data-name="Group 5271" clip-path="url(#clip-path-23)">
              <path id="Path_6971" data-name="Path 6971" d="M103.37,331.09l-5.28,11.77-9.27-1.8,5.28-11.78Z"/>
            </g>
          </g>
        </g>
        <path id="Path_6972" data-name="Path 6972" d="M142.52,183.69c.535,9.765-24.726,99.188-24.726,99.188L83.318,346.441,96.91,350.96s23.906-20.206,45.61-57.35c7.7-13.186,18.035-20.963,24.293-32.279,11.018-19.921,15.584-41.492,16.913-58.944C185.787,175.329,142.52,183.69,142.52,183.69Z" fill="#407bff"/>
        <g id="Group_5276" data-name="Group 5276" opacity="0.2" style="isolation: isolate">
          <g id="Group_5275" data-name="Group 5275">
            <g id="Group_5274" data-name="Group 5274" clip-path="url(#clip-path-24)">
              <path id="Path_6973" data-name="Path 6973" d="M151.74,204.51a115.2,115.2,0,0,0,1.4,22.16c2.41-6.53,4.64-12.76,6.57-18.19Z"/>
            </g>
          </g>
        </g>
        <path id="Path_6974" data-name="Path 6974" d="M171.07,352.89l9.35,1.41,4.52-21.46-9.35-1.41Z" fill="#ffb573"/>
        <path id="Path_6975" data-name="Path 6975" d="M182,350.49H171.37a.74.74,0,0,0-.75.65l-1.21,8.4a1.51,1.51,0,0,0,1.33,1.67,1.547,1.547,0,0,0,.18.01c3.7-.06,5.49-.28,10.16-.28,2.87,0,16.07.3,20.04.3s4.18-3.93,2.53-4.28c-7.41-1.59-15.11-4.26-17.56-6.36-.439-.372-3.515-.107-4.09-.11" fill="#263238"/>
        <g id="Group_5279" data-name="Group 5279" opacity="0.2">
          <g id="Group_5278" data-name="Group 5278">
            <g id="Group_5277" data-name="Group 5277" clip-path="url(#clip-path-25)">
              <path id="Path_6976" data-name="Path 6976" d="M184.93,332.85l-2.32,11.06-9.35-1.41,2.32-11.06Z"/>
            </g>
          </g>
        </g>
        <path id="Path_6977" data-name="Path 6977" d="M180.53,191.78s25.623,62.438,22.913,91.1c-2.82,29.86-16.843,68.082-16.843,68.082l-15.23-.47s-1.633-47.884-3.163-71.954c-13.15-30.3-32.777-56.686-15.307-92.456,5.21.92,27.63,5.7,27.63,5.7" fill="#407bff"/>
        <path id="Path_6978" data-name="Path 6978" d="M196.56,141.34c-.82,5.92-12.635,25.888.75,91.3L125.16,231.2c4.97-13.274,8.091-34.943,10.08-84.84-.073-5.406-.36-18.16,14.878-20.04.345,0,8.189.648,8.532.68,1.78.16,3.67.38,5.55.68a121.53,121.53,0,0,1,17.07,3.5c4.29,1.3,8.85,3,11.83,4.22a5.55,5.55,0,0,1,3.46,5.94" fill="#263238"/>
        <path id="Path_6979" data-name="Path 6979" d="M188.34,91.711s-19.662,4.5-15.015,16.279,0,11.01,0,11.01-12.841,2.492-13.184-8.37c-.2-6.316-.681-11.829-1.05-15.337a9,9,0,0,1,3.955-8.477c4.559-2.99,12.776-4.815,25.294,4.895" fill="#263238"/>
        <path id="Path_6980" data-name="Path 6980" d="M169.643,84.987s13.548-4.446,20.429-1.236,7.754,10.881-3.446,11.365-16.983-10.129-16.983-10.129" fill="#263238"/>
        <path id="Path_6981" data-name="Path 6981" d="M197.31,232.637s-75.536,10.887-72.1-1.617S197.31,232.637,197.31,232.637Z" fill="#263238"/>
        <path id="Path_7095" data-name="Path 7095" d="M369,166.24s1.26,8.44,9.39,9,9.87-4.49,9.87-4.49a15.543,15.543,0,0,1-2,.16s2.38-4.09,0-8-10.48-8.09-16.49-6a14.27,14.27,0,0,0-11.38,1.1c-5.63,3.27-4.63,10.4-4.63,10.4s-.25-4.33,2.38-5.54c0,0-3.25,8.91,1.62,11.29C357.75,174.13,358.23,165.36,369,166.24Z" transform="translate(-196.315 -77.151)" fill="#263238"/>
      </g>
    </g>
  </g>
</svg>
