<svg xmlns="http://www.w3.org/2000/svg" width="18.054" height="18.054" viewBox="0 0 18.054 18.054">
  <path id="arrow-circle-اسألنا" d="M9.027,0A9.027,9.027,0,1,1,0,9.027,9.025,9.025,0,0,1,9.027,0ZM7.975,5.227l2.748,2.635H4.077a.871.871,0,0,0-.874.874v.582a.871.871,0,0,0,.874.874h6.646L7.975,12.827a.875.875,0,0,0-.015,1.248l.4.4a.87.87,0,0,0,1.234,0l4.83-4.826a.87.87,0,0,0,0-1.234L9.595,3.578a.87.87,0,0,0-1.234,0l-.4.4a.879.879,0,0,0,.015,1.252Z" transform="translate(18.054 18.054) rotate(180)" fill="#fff"/>
</svg>
