<svg xmlns="http://www.w3.org/2000/svg" width="44.03" height="32.158" viewBox="0 0 44.03 32.158">
  <g id="B" transform="translate(-235.085 -237.558)">
    <g id="Name" transform="translate(235.085 255.805)">
      <path id="Path_18708" data-name="Path 18708" d="M308.467,478.831a.914.914,0,0,0,.7-.306,1.134,1.134,0,0,0,.012-1.491.885.885,0,0,0-.672-.3.969.969,0,0,0-.715.311,1.011,1.011,0,0,0-.3.726,1.04,1.04,0,0,0,.292.746A.922.922,0,0,0,308.467,478.831Z" transform="translate(-301.857 -476.388)" fill="#fff"/>
      <path id="Path_18709" data-name="Path 18709" d="M277.877,478.831a.914.914,0,0,0,.7-.306,1.132,1.132,0,0,0,.011-1.491.882.882,0,0,0-.671-.3.968.968,0,0,0-.715.311,1.011,1.011,0,0,0-.3.726,1.041,1.041,0,0,0,.292.746A.921.921,0,0,0,277.877,478.831Z" transform="translate(-273.645 -476.388)" fill="#fff"/>
      <path id="Path_18710" data-name="Path 18710" d="M273.207,521.029a5.759,5.759,0,0,0-3.052,1.2,4.9,4.9,0,0,0-1.633,2.735,11.423,11.423,0,0,0-.2,2.365l6.6.013,1.011-1.728h-5.909c-.007,0,.187-.682.208-.741a3.608,3.608,0,0,1,3.634-2.187,3.771,3.771,0,0,1,2.606,1.07c.616.657.849,1.394.928,3.2.042.828-.389,1.223-1.295,1.19H260.582a3.8,3.8,0,0,0-.047-1.452,3.472,3.472,0,0,0-2.7-2.651,4,4,0,0,0-3.74,1.409,3.892,3.892,0,0,0-.632,1.194,9.422,9.422,0,0,0-.266,1.5h-7.58v-6.376h-1.582v1.166c0-.056-.337-.243-.389-.278a7.238,7.238,0,0,0-1.227-.668,5.568,5.568,0,0,0-1.655-.418,5.305,5.305,0,0,0-1.492.083,4.4,4.4,0,0,0-1.655.633,7.164,7.164,0,0,0-1.214,1.023,4.788,4.788,0,0,0-1.249,2.438,4.9,4.9,0,0,0-.071.892,3.768,3.768,0,0,0,.088.933,3.578,3.578,0,0,0,2.517,2.294l8.7-.013h6.424c1.089,0,1.728.164,1.805-.689.188-1.129.191-2.48,1.231-3.2a2.209,2.209,0,0,1,1.95-.124,1.656,1.656,0,0,1,.912.788,2.759,2.759,0,0,1,.171,1.837.809.809,0,0,1-.358.526.929.929,0,0,1-.69.1l-2.368-1.367-.176,1.613L257.856,531a.764.764,0,0,0,.87-.022,4.894,4.894,0,0,0,.376-.323,5.692,5.692,0,0,0,.4-.407c.061-.068.121-.138.18-.208.022-.026.131-.2.156-.2h18.328c.412,0,.751-1.19.806-1.477a8.608,8.608,0,0,0-.3-4.245,4.579,4.579,0,0,0-3.311-2.9A6.37,6.37,0,0,0,273.207,521.029Zm-29.2,6.8c-.015.2-.1.311-.247.327h-5.717a1.386,1.386,0,0,1-1.308-1.029,3.2,3.2,0,0,1,1.407-3.491,4.327,4.327,0,0,1,4.034-.133C243.927,524.351,244.146,526.056,244.01,527.827Z" transform="translate(-235.085 -517.215)" fill="#fff"/>
      <path id="Path_18711" data-name="Path 18711" d="M732.539,474.321a.917.917,0,0,0,.7-.307,1.127,1.127,0,0,0,.013-1.49.884.884,0,0,0-.674-.3.976.976,0,0,0-.715.311,1.011,1.011,0,0,0-.3.726,1.05,1.05,0,0,0,.292.746A.925.925,0,0,0,732.539,474.321Z" transform="translate(-692.954 -472.228)" fill="#fff"/>
      <path id="Path_18712" data-name="Path 18712" d="M701.977,474.321a.918.918,0,0,0,.7-.307,1.13,1.13,0,0,0,.013-1.49.881.881,0,0,0-.672-.3.977.977,0,0,0-.718.311,1.011,1.011,0,0,0-.3.729,1.042,1.042,0,0,0,.294.746A.914.914,0,0,0,701.977,474.321Z" transform="translate(-664.77 -472.229)" fill="#fff"/>
    </g>
    <g id="Icon" transform="translate(248.162 237.558)">
      <path id="Path_18713" data-name="Path 18713" d="M417.492,240.9l-.744.744-2.357-2.357a.155.155,0,0,0-.215,0l-9.186,9.188-.73-.73a.156.156,0,0,1,0-.215l9.93-9.932a.156.156,0,0,1,.215,0l3.087,3.087A.155.155,0,0,1,417.492,240.9Z" transform="translate(-404.143 -237.558)" fill="#fff"/>
      <path id="Path_18714" data-name="Path 18714" d="M416.594,272.763l-.724.724-1.678-1.677a.156.156,0,0,0-.215.005s-.407.385-.444.421l-8.771,8.773-.736-.736a.155.155,0,0,1,0-.215l9.931-9.932a.156.156,0,0,1,.215,0l2.418,2.419A.156.156,0,0,1,416.594,272.763Z" transform="translate(-403.927 -267.554)" fill="#fff"/>
      <rect id="Rectangle_4634" data-name="Rectangle 4634" width="2.711" height="2.73" rx="0.48" transform="translate(15.88 10.833) rotate(45)" fill="#fff"/>
      <rect id="Rectangle_4635" data-name="Rectangle 4635" width="2.711" height="2.73" rx="0.48" transform="translate(13.031 8.022) rotate(45)" fill="#fff"/>
      <path id="Path_18715" data-name="Path 18715" d="M413.47,317.907l-2.286,2.287a.176.176,0,0,1-.032.019l-.125.127a.141.141,0,0,1-.2,0l-7.521-7.52a.156.156,0,0,1,0-.214l9.982-9.983a.155.155,0,0,1,.216,0l1.726,1.726a.156.156,0,0,1,0,.216l-8.172,8.172,3.873,3.871.622-.622Z" transform="translate(-403.262 -297.522)" fill="#fff"/>
      <path id="Path_18716" data-name="Path 18716" d="M483.945,383.639l-1.428,1.428a.348.348,0,0,1-.495,0l-6.242-6.245a.347.347,0,0,1,0-.493l1.433-1.421c.011-.01.015-.019.026-.03l2.823-2.823a.011.011,0,0,0,.01-.006l.233-.233a.141.141,0,0,1,.2,0l4.647,4.64a.141.141,0,0,1,0,.2l-1.716,1.716a.013.013,0,0,0-.01.006l-.989.993-1.92-1.921.9-.9-1.005-1.006-1.033,1.033,4.567,4.563a.346.346,0,0,1,0,.495Z" transform="translate(-470.047 -363.183)" fill="#fff"/>
    </g>
  </g>
</svg>
