<svg xmlns="http://www.w3.org/2000/svg" width="16.465" height="22" viewBox="0 0 16.465 22">
  <g id="consulting-4023642" transform="translate(-8.024)">
    <path id="Path_13652" data-name="Path 13652" d="M229.545,90.289a.24.24,0,0,0,.007-.266l-.744-1.191a3.074,3.074,0,0,0,.384-1.488,3.137,3.137,0,0,0-.5-1.68,4.226,4.226,0,0,0,.149-1.11c0-2.784-2.73-5.049-6.086-5.049s-6.083,2.266-6.083,5.05a4.3,4.3,0,0,0,.566,2.129l-1.1,1.754h0a.24.24,0,0,0,.256.36l2.276-.5h0a6.553,6.553,0,0,0,2.687,1.17,4.666,4.666,0,0,0,3.5,1.481,4.845,4.845,0,0,0,2.875-.907l1.56.344a.24.24,0,0,0,.247-.094ZM218.731,87.8h0a.244.244,0,0,0-.051.005l-1.826.4.869-1.391a.239.239,0,0,0,0-.252,3.842,3.842,0,0,1-.569-2.009c0-2.521,2.514-4.567,5.6-4.567s5.6,2.049,5.6,4.567a3.753,3.753,0,0,1-.158,1.077v0h0a3.974,3.974,0,0,1-.134.376c-.02.049-.042.1-.064.145A5.421,5.421,0,0,1,224.022,89l-.134.024-.139.022-.094.013-.13.016-.079.008-.173.015-.055,0-.2.01h-.042c-.072,0-.144,0-.217,0s-.146,0-.22,0h0A7.007,7.007,0,0,1,221.527,89a.171.171,0,0,0-.039,0,6.049,6.049,0,0,1-2.608-1.152.239.239,0,0,0-.149-.049Zm9,1.749a.24.24,0,0,0-.2.045,4.507,4.507,0,0,1-5.356-.014l.126.008.086,0c.043,0,.086,0,.13.005.081,0,.161,0,.24,0s.143,0,.214,0h.052c.069,0,.138-.006.206-.01l.038,0,.167-.013.071-.007.18-.02.095-.013.091-.014a5.883,5.883,0,0,0,4.608-3.241h0a2.58,2.58,0,0,1-.157,2.435.24.24,0,0,0,0,.252l.517.828Z" transform="translate(-207.354 -79.504)"/>
    <path id="Path_13653" data-name="Path 13653" d="M157.338,274.018a2.92,2.92,0,1,0-2.461-.037,3.743,3.743,0,0,0-2.561,3.547v2.3a.24.24,0,1,0,.48,0v-2.3a3.255,3.255,0,1,1,6.51,0v2.3a.24.24,0,0,0,.48,0v-2.3a3.744,3.744,0,0,0-2.449-3.51Zm-3.629-2.666a2.441,2.441,0,1,1,.715,1.724,2.439,2.439,0,0,1-.715-1.724Z" transform="translate(-144.293 -258.065)"/>
    <path id="Path_13654" data-name="Path 13654" d="M437.436,307.654a2.465,2.465,0,1,0-2.25-.035,3.147,3.147,0,0,0-2.062,2.951v1.907a.24.24,0,1,0,.48,0V310.57a2.661,2.661,0,1,1,5.322,0v1.907a.24.24,0,0,0,.48,0V310.57a3.146,3.146,0,0,0-1.97-2.916Zm-3.074-2.21a1.986,1.986,0,1,1,.582,1.4A1.981,1.981,0,0,1,434.362,305.445Z" transform="translate(-414.917 -290.717)"/>
  </g>
</svg>
