<svg xmlns="http://www.w3.org/2000/svg" width="147.484" height="144.357" viewBox="0 0 147.484 144.357">
  <g id="Developer_activity-bro" data-name="Developer activity-bro" transform="translate(-30.46 -42.392)">
    <g id="freepik--background-simple--inject-33" transform="translate(30.46 42.392)">
      <path id="Path_7652" data-name="Path 7652" d="M173.581,98.391C157.21,70.351,112.8,80.337,103.732,66.7c-4.645-6.973-9.842-15.078-17.379-19.287A41.249,41.249,0,0,0,63.576,42.5C37.641,44.4,26.648,67.6,31.629,93.081c6.651,33.989,36.78,68.711,72.573,68.952,18.723.141,36.613-6.577,50.619-16.026l.312-.212C169.141,136.26,186.083,119.8,173.581,98.391Z" transform="translate(-30.46 -42.392)" fill="#407bff"/>
      <path id="Path_7653" data-name="Path 7653" d="M173.581,98.391C157.21,70.351,112.8,80.337,103.732,66.7c-4.645-6.973-9.842-15.078-17.379-19.287A41.249,41.249,0,0,0,63.576,42.5C37.641,44.4,26.648,67.6,31.629,93.081c6.651,33.989,36.78,68.711,72.573,68.952,18.723.141,36.613-6.577,50.619-16.026l.312-.212C169.141,136.26,186.083,119.8,173.581,98.391Z" transform="translate(-30.46 -42.392)" fill="#fff" opacity="0.7"/>
    </g>
    <g id="freepik--Lines--inject-33" transform="translate(37.306 49.794)">
      <path id="Path_7654" data-name="Path 7654" d="M60.027,215.18H58.206a7.366,7.366,0,0,0-7.366,7.366v40.422a7.366,7.366,0,0,0,7.366,7.366H83.183a7.366,7.366,0,0,0,7.366-7.366h0" transform="translate(-50.84 -164.544)" fill="none" stroke="#263238" stroke-linecap="round" stroke-linejoin="round" stroke-width="1.103" stroke-dasharray="4.412"/>
      <path id="Path_7655" data-name="Path 7655" d="M163,76.925V68.941a4.511,4.511,0,0,1,4.5-4.511h32.481a4.511,4.511,0,0,1,4.511,4.511h0" transform="translate(-125.326 -64.43)" fill="none" stroke="#263238" stroke-linecap="round" stroke-linejoin="round" stroke-width="1.103" stroke-dasharray="4.412"/>
    </g>
    <g id="freepik--Shadow--inject-33" transform="translate(39.872 168.771)">
      <ellipse id="Ellipse_87" data-name="Ellipse 87" cx="64.331" cy="8.989" rx="64.331" ry="8.989" fill="#407bff"/>
      <ellipse id="Ellipse_88" data-name="Ellipse 88" cx="64.331" cy="8.989" rx="64.331" ry="8.989" fill="#c1e1fe"/>
    </g>
    <g id="freepik--Window--inject-33" transform="translate(43.56 65.544)">
      <path id="Path_7656" data-name="Path 7656" d="M190.745,118.777v60.481a7.457,7.457,0,0,1-7.454,7.457H76.914a7.457,7.457,0,0,1-7.454-7.457V118.777a3.984,3.984,0,0,1,.024-.524,7.45,7.45,0,0,1,7.43-6.933H183.291a7.45,7.45,0,0,1,7.43,6.946A5.006,5.006,0,0,1,190.745,118.777Z" transform="translate(-69.46 -111.32)" fill="#fff" stroke="#263238" stroke-linecap="round" stroke-linejoin="round" stroke-width="1.103"/>
      <path id="Path_7657" data-name="Path 7657" d="M80.26,140.28H194.669v55.869a6.987,6.987,0,0,1-6.987,6.987H87.25a6.987,6.987,0,0,1-6.987-6.987V140.28Z" transform="translate(-76.632 -130.552)" fill="#263238"/>
      <path id="Path_7658" data-name="Path 7658" d="M194.672,140.28v55.869a6.95,6.95,0,0,1-6.909,6.987H87.169a6.95,6.95,0,0,1-6.909-6.987V140.28Z" transform="translate(-76.632 -130.552)" fill="#f5f5f5"/>
      <path id="Path_7659" data-name="Path 7659" d="M190.768,118.293H69.53a7.45,7.45,0,0,1,7.43-6.933H183.338a7.45,7.45,0,0,1,7.43,6.933Z" transform="translate(-69.506 -111.347)" fill="#407bff" stroke="#263238" stroke-miterlimit="10" stroke-width="1.103"/>
      <path id="Path_7660" data-name="Path 7660" d="M108.66,119.03a1.32,1.32,0,1,1-1.32-1.32,1.32,1.32,0,0,1,1.32,1.32Z" transform="translate(-93.74 -115.564)" fill="#263238"/>
      <path id="Path_7661" data-name="Path 7661" d="M125.28,119.03a1.32,1.32,0,1,1-1.32-1.32A1.32,1.32,0,0,1,125.28,119.03Z" transform="translate(-104.777 -115.564)" fill="#263238"/>
      <circle id="Ellipse_89" data-name="Ellipse 89" cx="1.32" cy="1.32" r="1.32" transform="translate(23.445 2.146)" fill="#263238"/>
      <path id="Path_7662" data-name="Path 7662" d="M194.689,140.28v55.869a6.987,6.987,0,0,1-6.987,6.987H87.27a6.986,6.986,0,0,1-6.852-5.628v-.021a7.053,7.053,0,0,1-.128-1.344V140.28Z" transform="translate(-76.652 -130.552)" fill="none" stroke="#263238" stroke-miterlimit="10" stroke-width="1.103"/>
      <path id="Path_7663" data-name="Path 7663" d="M394.351,159.186a7.034,7.034,0,0,0-1.552-.642l-.628-2.8H389.5l-.621,2.8a6.8,6.8,0,0,0-1.559.642l-2.408-1.542-1.884,1.878,1.515,2.408a6.835,6.835,0,0,0-.642,1.559l-2.8.621v2.667l2.8.628a6.72,6.72,0,0,0,.642,1.565L383,171.4l1.888,1.884,2.422-1.542a6.85,6.85,0,0,0,1.555.645l.625,2.8h2.657l.625-2.8a6.981,6.981,0,0,0,1.552-.645l.124.081v-12.7Zm-3.507,9.741a3.446,3.446,0,1,1,3.446-3.443,3.446,3.446,0,0,1-3.446,3.443Z" transform="translate(-276.422 -140.82)" fill="#263238"/>
      <path id="Path_7666" data-name="Path 7666" d="M230.868,240.5a9.154,9.154,0,0,0,.272-2.113l3.208-1.679-.887-3.255-3.621.168a9.16,9.16,0,0,0-1.3-1.679l1.072-3.463-2.922-1.679-2.445,2.667a9.675,9.675,0,0,0-2.106-.269l-1.679-3.208-3.251.883.171,3.624a9.149,9.149,0,0,0-1.679,1.3l-3.466-1.072-1.679,2.919,2.687,2.442a8.733,8.733,0,0,0-.265,2.106l-3.215,1.679.887,3.251,3.628-.171a8.528,8.528,0,0,0,1.293,1.679l-1.078,3.446,2.926,1.679,2.432-2.647a8.774,8.774,0,0,0,2.113.265l1.679,3.211,3.251-.883-.144-3.1-.023-.531a8.87,8.87,0,0,0,1.7-1.3l3.463,1.075,1.431-2.5.242-.423Zm-7.682,1.975a4.367,4.367,0,1,1,3.057-5.341A4.367,4.367,0,0,1,223.186,242.476Z" transform="translate(-198.609 -213.646)" fill="#263238"/>
    </g>
    <g id="freepik--Graphics--inject-33" transform="translate(48.911 56.586)">
      <path id="Path_7668" data-name="Path 7668" d="M141.5,205.094v48.634a4.4,4.4,0,0,1-4.4,4.407H101.97a4.4,4.4,0,0,1-4.4-4.407V205.094a4.4,4.4,0,0,1,4.4-4.4H137.1a4.4,4.4,0,0,1,4.4,4.4Z" transform="translate(-93.479 -161.713)" fill="#fff" stroke="#263238" stroke-linecap="round" stroke-linejoin="round" stroke-width="1.103"/>
      <path id="Path_7669" data-name="Path 7669" d="M141.5,205.094v2.6H97.57v-2.6a4.4,4.4,0,0,1,4.4-4.4H137.1a4.4,4.4,0,0,1,4.4,4.4Z" transform="translate(-93.479 -161.713)" fill="#407bff" stroke="#263238" stroke-miterlimit="10" stroke-width="1.103"/>
      <rect id="Rectangle_2958" data-name="Rectangle 2958" width="10.809" height="1.814" transform="translate(8.223 49)" fill="#407bff"/>
      <rect id="Rectangle_2959" data-name="Rectangle 2959" width="10.809" height="1.814" transform="translate(8.223 65.254)" fill="#407bff"/>
      <rect id="Rectangle_2960" data-name="Rectangle 2960" width="10.809" height="1.814" transform="translate(8.223 79.993)" fill="#407bff"/>
      <rect id="Rectangle_2961" data-name="Rectangle 2961" width="30.697" height="1.33" transform="translate(8.223 53.491)" fill="#263238"/>
      <rect id="Rectangle_2962" data-name="Rectangle 2962" width="25.162" height="1.297" transform="translate(8.223 56.034)" fill="#263238"/>
      <rect id="Rectangle_2963" data-name="Rectangle 2963" width="28.457" height="1.297" transform="translate(8.223 58.536)" fill="#263238"/>
      <rect id="Rectangle_2964" data-name="Rectangle 2964" width="28.457" height="1.297" transform="translate(8.223 61.035)" fill="#263238"/>
      <rect id="Rectangle_2965" data-name="Rectangle 2965" width="30.697" height="1.33" transform="translate(8.223 68.23)" fill="#263238"/>
      <rect id="Rectangle_2966" data-name="Rectangle 2966" width="25.162" height="1.297" transform="translate(8.223 70.773)" fill="#263238"/>
      <rect id="Rectangle_2967" data-name="Rectangle 2967" width="28.457" height="1.297" transform="translate(8.223 73.275)" fill="#263238"/>
      <rect id="Rectangle_2968" data-name="Rectangle 2968" width="30.697" height="1.33" transform="translate(8.223 84.414)" fill="#263238"/>
      <rect id="Rectangle_2969" data-name="Rectangle 2969" width="25.162" height="1.297" transform="translate(8.223 86.96)" fill="#263238"/>
      <rect id="Rectangle_2970" data-name="Rectangle 2970" width="28.457" height="1.297" transform="translate(8.223 89.462)" fill="#263238"/>
      <path id="Path_7670" data-name="Path 7670" d="M265.489,89.9V109.56a5.25,5.25,0,0,1-5.253,5.25H214.963a5.25,5.25,0,0,1-5.253-5.25V89.9a5.257,5.257,0,0,1,5.253-5.253h45.272A5.253,5.253,0,0,1,265.489,89.9Z" transform="translate(-167.952 -84.65)" fill="#fff" stroke="#222221" stroke-miterlimit="10" stroke-width="1.103"/>
      <path id="Path_7671" data-name="Path 7671" d="M265.489,89.9v.45H209.71V89.9a5.257,5.257,0,0,1,5.253-5.253h45.272A5.253,5.253,0,0,1,265.489,89.9Z" transform="translate(-167.952 -84.65)" fill="#407bff" stroke="#263238" stroke-miterlimit="10" stroke-width="1.103"/>
      <path id="Path_7672" data-name="Path 7672" d="M231.388,93.22a.806.806,0,1,1,0-1.139A.806.806,0,0,1,231.388,93.22Z" transform="translate(-181.434 -89.428)" fill="#263238"/>
      <path id="Path_7673" data-name="Path 7673" d="M242.508,93.22a.806.806,0,1,1,0-1.139A.806.806,0,0,1,242.508,93.22Z" transform="translate(-188.818 -89.428)" fill="#263238"/>
      <path id="Path_7674" data-name="Path 7674" d="M253.628,93.22a.806.806,0,1,1,0-1.139A.806.806,0,0,1,253.628,93.22Z" transform="translate(-196.203 -89.428)" fill="#263238"/>
      <rect id="Rectangle_2971" data-name="Rectangle 2971" width="18.232" height="15.76" transform="translate(45.316 9.318)" fill="none" stroke="#263238" stroke-linecap="round" stroke-linejoin="round" stroke-width="1.103" stroke-dasharray="4.412"/>
      <rect id="Rectangle_2972" data-name="Rectangle 2972" width="20.983" height="1.108" transform="translate(66.363 9.318)" fill="#263238"/>
      <rect id="Rectangle_2973" data-name="Rectangle 2973" width="16.096" height="1.105" transform="translate(66.363 11.612)" fill="#263238"/>
      <rect id="Rectangle_2974" data-name="Rectangle 2974" width="23.966" height="1.119" transform="translate(66.363 13.896)" fill="#263238"/>
      <rect id="Rectangle_2975" data-name="Rectangle 2975" width="20.409" height="1.119" transform="translate(66.363 16.123)" fill="#263238"/>
      <rect id="Rectangle_2976" data-name="Rectangle 2976" width="14.648" height="10.409" rx="5.205" transform="translate(86.607 54.039)" fill="#fff" stroke="#263238" stroke-linecap="round" stroke-linejoin="round" stroke-width="1.103"/>
      <path id="Path_7675" data-name="Path 7675" d="M351.728,254.85l-2.818,1.767,2.617,2.318" transform="translate(-260.395 -197.681)" fill="none" stroke="#263238" stroke-linecap="round" stroke-linejoin="round" stroke-width="1.103"/>
      <path id="Path_7676" data-name="Path 7676" d="M371.81,259.461l2.533-2.156-2.922-1.915" transform="translate(-275.344 -198.039)" fill="none" stroke="#263238" stroke-linecap="round" stroke-linejoin="round" stroke-width="1.103"/>
      <line id="Line_62" data-name="Line 62" y1="6.523" x2="2.079" transform="translate(92.704 56.229)" fill="none" stroke="#263238" stroke-linecap="round" stroke-linejoin="round" stroke-width="1.103"/>
    </g>
    <g id="freepik--Character--inject-33" transform="translate(96.933 97.996)">
      <path id="Path_7677" data-name="Path 7677" d="M251.367,432.979s-9.741,2.791-11.1,3.275c-1.236.437-4.588,1.612-7.1,1.246a5.342,5.342,0,0,1-.719-.155c-2.549-.759-3.695-1.468-4.031-3.07s.934-2.785,2.156-3.54,7.853-1.545,7.853-1.545l1.6.47h0Z" transform="translate(-228.357 -354.871)" fill="#407bff"/>
      <path id="Path_7678" data-name="Path 7678" d="M233.161,437.5a5.342,5.342,0,0,1-.719-.155c-2.549-.759-3.695-1.468-4.031-3.07s.934-2.785,2.156-3.54,7.853-1.545,7.853-1.545l1.6.47c-1.451.672-6.852,1.038-8.031,1.716a2.726,2.726,0,0,0-1.051,3.695A6.776,6.776,0,0,0,233.161,437.5Z" transform="translate(-228.357 -354.871)" fill="#fff"/>
      <path id="Path_7679" data-name="Path 7679" d="M249.992,434.165s-7.316,1.894-10.218,3.107-8.434,1.743-10.413-.756-.228-4.656,1.743-5.136,5.959-1.236,8.135-.93" transform="translate(-228.446 -355.661)" fill="none" stroke="#263238" stroke-linecap="round" stroke-linejoin="round" stroke-width="0.5"/>
      <path id="Path_7680" data-name="Path 7680" d="M237.678,438.3s-3.722-2.042-2.486-4.9c.914-2.109,5.878-1.653,8.337-2.8" transform="translate(-232.73 -355.801)" fill="none" stroke="#263238" stroke-linecap="round" stroke-linejoin="round" stroke-width="0.5"/>
      <path id="Path_7681" data-name="Path 7681" d="M345.045,437.608a3.08,3.08,0,0,1-1.461,2.546,5.726,5.726,0,0,1-2.993.618c-3.416-.044-9.838-2.486-9.838-2.486l-6.013-3.325,3.127-4.948.857-1.344,2.21.5s1.831,1.038,3.671,1.864,6.311,1.008,7.887,2.274S345.216,435.949,345.045,437.608Z" transform="translate(-292.365 -354.526)" fill="#407bff"/>
      <path id="Path_7682" data-name="Path 7682" d="M351.228,437.608a3.08,3.08,0,0,1-1.461,2.546,4.5,4.5,0,0,0-.168-3c-.672-1.508-2.858-2.838-5.734-3.06a15.4,15.4,0,0,1-6.228-2.167c-.9-.467-2.8-1.488-3.587-1.911l.857-1.344,2.21.5s1.831,1.038,3.671,1.864,6.311,1.008,7.887,2.274S351.4,435.949,351.228,437.608Z" transform="translate(-298.548 -354.526)" fill="#fff"/>
      <path id="Path_7683" data-name="Path 7683" d="M327.475,439.819a37.909,37.909,0,0,0,14.074,4.807c1.1.131,2.368.151,3.1-.672a2.291,2.291,0,0,0,.5-1.716,4.408,4.408,0,0,0-2.855-3.382,24.868,24.868,0,0,0-4.508-1.1,17.931,17.931,0,0,1-4.333-1.585,13.618,13.618,0,0,0-3.339-1.512,3.069,3.069,0,0,0-3.268,1.1" transform="translate(-293.767 -358.449)" fill="none" stroke="#263238" stroke-linecap="round" stroke-linejoin="round" stroke-width="0.5"/>
      <path id="Path_7684" data-name="Path 7684" d="M350.323,441.376a4,4,0,0,0,2.2-2.842,4.233,4.233,0,0,0-1.777-3.812,9.883,9.883,0,0,0-4.068-1.616,25.529,25.529,0,0,1-4.3-1.048c-2.106-.826-4.185-2.452-6.382-1.871" transform="translate(-299.843 -355.452)" fill="none" stroke="#263238" stroke-linecap="round" stroke-linejoin="round" stroke-width="0.5"/>
      <path id="Path_7685" data-name="Path 7685" d="M276.912,279.009l-10.174-3.87-.128-.05s.037-.269.067-.672a4.7,4.7,0,0,0-.286-2.583c-.568-.672-2.173-.108-3.742-.826s-4.467.568-4.467.568-2.1-.386-3.023,1.125a8.164,8.164,0,0,0-.309,3.023l-.191.067c-1.213.453-7.81,2.936-9.2,3.933-1.542,1.092-3.248,12.3-3.8,15.592s-1.522,6.258-1.028,7.39,7.581,6.59,11.659,8,18.538,1.008,18.538,1.008.235-.064.655-.2c2.445-.786,11.121-4.031,15.727-11.649C287.217,299.879,282.757,285.257,276.912,279.009Zm-27.49,18.854c-.749.531-.336,2.586-.336,2.586l-1.273-1.122,3.2-7.863,1.364,6.046S250.172,297.336,249.422,297.863ZM275,302.858c-.353.181,1.008-3.6.363-4.454s-2.59-.776-2.59-.776l.165-1.031,1.152-5.912.383-.453s3.957,6.782,4.666,9.173C279.142,299.412,274.83,302.858,275,302.858Z" transform="translate(-236.419 -249.677)" fill="#407bff"/>
      <path id="Path_7686" data-name="Path 7686" d="M280.338,222.25l-5.253,5.576a2.43,2.43,0,0,0-.437,2.257c.285,1.616.957,3.023,1.464,3.117a7.177,7.177,0,0,0,1.216.107,21.506,21.506,0,0,0,1.925,3.4,42.87,42.87,0,0,1,.128,4.81,8.394,8.394,0,0,0,3.665,1.857c1.777.208,4.521-2.512,4.521-2.512l.672-3.332a18.526,18.526,0,0,0,1.72-3.1c.107-.652.846-.484,1.209-.806a6.175,6.175,0,0,0,1.344-3.114c.144-1.357.148-2.916-1.428-2.459-1.367-.366-.511-3.255-.511-3.255l-2.4-2.116Z" transform="translate(-259.055 -217.441)" fill="#fff"/>
      <path id="Path_7687" data-name="Path 7687" d="M294.752,275.186a5.933,5.933,0,0,1-.272.608c-.867,1.632-4.642,4.746-4.642,4.746l-1.142-3.51-.625,3.51a41.311,41.311,0,0,1-5.1-3.88s-.131-.312-.289-.8l.191-.067a8.15,8.15,0,0,1,.309-3.023c.92-1.512,3.023-1.125,3.023-1.125s2.9-1.286,4.467-.568,3.174.161,3.742.826.218,3.245.218,3.245Z" transform="translate(-264.433 -249.723)" fill="#fff" opacity="0.5"/>
      <path id="Path_7688" data-name="Path 7688" d="M325.281,286.182l-10.174-3.87-.128-.05s.037-.269.067-.672l-.212,1.32-1.5,2.042a41.641,41.641,0,0,1,4.7,2.069,4.125,4.125,0,0,1,2.15,4.111l-1.874,16.039-.769,9.106,2.321,2.408c2.445-.786,11.121-4.031,15.727-11.649C335.586,307.051,331.126,292.429,325.281,286.182Zm-1.908,23.849c-.353.181,1.008-3.6.363-4.454s-2.59-.776-2.59-.776l.165-1.031,1.152-5.912.383-.453s3.957,6.782,4.666,9.173C327.511,306.584,323.2,310.03,323.373,310.03Z" transform="translate(-284.788 -256.849)" opacity="0.2"/>
      <path id="Path_7689" data-name="Path 7689" d="M257.4,318.7l-1.582-5.287s-2.838-9.677-4.783-12.062l.511,6.805s-1.679,8.129-3.215,10.544-1.878,3.023,0,3.023,6.449,3.641,6.449,3.641l-.353-3.023Zm-3.987,2.046-1.273-1.122,3.2-7.863,1.364,6.046s-2.19-.165-2.939.363S253.416,320.745,253.416,320.745Z" transform="translate(-240.771 -269.972)" opacity="0.2"/>
      <path id="Path_7690" data-name="Path 7690" d="M288.49,265.28a18.881,18.881,0,0,1,0,4.155" transform="translate(-268.292 -246.017)" fill="none" stroke="#263238" stroke-linecap="round" stroke-linejoin="round" stroke-width="0.5"/>
      <path id="Path_7691" data-name="Path 7691" d="M314.11,271.124a12.27,12.27,0,0,1,.316-2.724" transform="translate(-285.306 -248.089)" fill="none" stroke="#263238" stroke-linecap="round" stroke-linejoin="round" stroke-width="0.5"/>
      <path id="Path_7692" data-name="Path 7692" d="M293.516,228.58s1.726,2.167,1.636,3.806-.218,3.581-.175,5.482-3.053,5.885-4.645,6.238-2.963.443-3.98-.574a37.994,37.994,0,0,1-3.359-4.246c-1.323-1.814-1.008-5.794-1.008-5.794" transform="translate(-263.95 -221.645)" fill="none" stroke="#263238" stroke-linecap="round" stroke-linejoin="round" stroke-width="0.5"/>
      <path id="Path_7694" data-name="Path 7694" d="M295.87,262.6a2.082,2.082,0,0,0,1.921,1.555" transform="translate(-273.193 -244.238)" fill="none" stroke="#263238" stroke-linecap="round" stroke-linejoin="round" stroke-width="1.103"/>
      <path id="Path_7695" data-name="Path 7695" d="M294.979,249.3c0,.373-.161.672-.359.672s-.359-.3-.359-.672.161-.672.359-.672S294.979,248.932,294.979,249.3Z" transform="translate(-272.124 -234.96)" fill="#263238"/>
      <path id="Path_7696" data-name="Path 7696" d="M310.289,249.782c0,.373-.161.672-.359.672s-.359-.3-.359-.672.161-.672.359-.672S310.289,249.409,310.289,249.782Z" transform="translate(-282.291 -235.279)" fill="#263238"/>
      <path id="Path_7700" data-name="Path 7700" d="M277.46,243.762s-1.364.48-1.727-.581-1.606-3.859-.517-4.793,1.962,1.233,1.962,1.233" transform="translate(-259.186 -228.003)" fill="none" stroke="#263238" stroke-linecap="round" stroke-linejoin="round" stroke-width="0.5"/>
      <path id="Path_7701" data-name="Path 7701" d="M320.72,245.037s1.266.255,1.629-.806,1.606-3.859.517-4.793-1.962,1.233-1.962,1.233" transform="translate(-289.696 -228.701)" fill="none" stroke="#263238" stroke-linecap="round" stroke-linejoin="round" stroke-width="0.5"/>
      <path id="Path_7702" data-name="Path 7702" d="M274.265,222.275a1.888,1.888,0,0,0,1.2-.705,2.936,2.936,0,0,0,.336-1.071,12.626,12.626,0,0,0,.188-2.163,2.958,2.958,0,0,1,.077-.843,2.217,2.217,0,0,1,.457-.749c.474-.558,1.048-1.028,1.5-1.606a2.687,2.687,0,0,0,.672-2.015,9.22,9.22,0,0,0,7.548,1.952c2.4-.47,4.7-2.576,4.424-5.223a2.14,2.14,0,0,0-1.679-1.841c-1.186-.3-2.25.336-3.325.742-1.958.739-3.876-.531-5.855-.742-1.679-.185-3.772.027-4.652,1.71a6.156,6.156,0,0,0-4.367,2.855c-1.344,2.5,1.2,5.955,1.2,5.955s1.008-1.236,2.328,1.263Z" transform="translate(-256.274 -207.933)" fill="#263238"/>
      <path id="Path_7703" data-name="Path 7703" d="M316.708,224.584s-.786,4.1,1.266,6.083a4.312,4.312,0,0,1,.9-1.535,4.746,4.746,0,0,0-.359-4.548C317,222.2,316.708,224.584,316.708,224.584Z" transform="translate(-286.933 -218.287)" fill="#263238"/>
      <path id="Path_7704" data-name="Path 7704" d="M296.741,212.8a3.86,3.86,0,0,1-2.351,2.442c-2.848,1.162-5.613-.124-8.468-.376a4.97,4.97,0,0,0-5.062,4.286" transform="translate(-263.225 -211.165)" fill="none" stroke="#fff" stroke-linecap="round" stroke-linejoin="round" stroke-width="0.5" opacity="0.2"/>
      <path id="Path_7705" data-name="Path 7705" d="M275.63,221.144a4.975,4.975,0,0,1,3.023-4.394" transform="translate(-259.751 -213.788)" fill="none" stroke="#fff" stroke-linecap="round" stroke-linejoin="round" stroke-width="0.5" opacity="0.2"/>
      <path id="Path_7706" data-name="Path 7706" d="M286.53,275.846a13,13,0,0,0,4.437,3.023,11.029,11.029,0,0,0,5.143-3.359" transform="translate(-266.99 -252.811)" fill="none" stroke="#263238" stroke-linecap="round" stroke-linejoin="round" stroke-width="1.103"/>
      <circle id="Ellipse_90" data-name="Ellipse 90" cx="3.016" cy="3.016" r="3.016" transform="matrix(0.909, -0.417, 0.417, 0.909, 17.768, 12.851)" fill="none" stroke="#263238" stroke-linecap="round" stroke-linejoin="round" stroke-width="0.5"/>
      <circle id="Ellipse_91" data-name="Ellipse 91" cx="3.016" cy="3.016" r="3.016" transform="translate(25.14 11.722) rotate(-7)" fill="none" stroke="#263238" stroke-linecap="round" stroke-linejoin="round" stroke-width="0.5"/>
      <path id="Path_7707" data-name="Path 7707" d="M285.005,273.16a2.351,2.351,0,0,0-1.454,1.125c-.534.941-.212,3.9-.212,3.9a24.9,24.9,0,0,0,5.106,3.88l.692-3.893,1.075,3.893s3.634-2.57,4.642-4.743a10.887,10.887,0,0,0,0-3.359,1.166,1.166,0,0,0-1.085-.8" transform="translate(-264.807 -251.251)" fill="none" stroke="#263238" stroke-linecap="round" stroke-linejoin="round" stroke-width="0.5"/>
      <path id="Path_7708" data-name="Path 7708" d="M270.663,330.6s-1.078-7.222-2.513-10.168" transform="translate(-254.784 -282.643)" fill="none" stroke="#263238" stroke-linecap="round" stroke-linejoin="round" stroke-width="0.5"/>
      <path id="Path_7709" data-name="Path 7709" d="M258.92,301.35a29.227,29.227,0,0,1,2.23,3.732" transform="translate(-248.654 -269.972)" fill="none" stroke="#263238" stroke-linecap="round" stroke-linejoin="round" stroke-width="0.5"/>
      <path id="Path_7710" data-name="Path 7710" d="M343.23,310.434a20.856,20.856,0,0,1,1.186-3.524" transform="translate(-304.645 -273.664)" fill="none" stroke="#263238" stroke-linecap="round" stroke-linejoin="round" stroke-width="0.5"/>
      <path id="Path_7711" data-name="Path 7711" d="M336.6,332.849s.776-4.951,1.7-9.029" transform="translate(-300.242 -284.894)" fill="none" stroke="#263238" stroke-linecap="round" stroke-linejoin="round" stroke-width="0.5"/>
      <path id="Path_7712" data-name="Path 7712" d="M340.52,325.936a5.71,5.71,0,0,1,3-2.056" transform="translate(-302.845 -284.934)" fill="none" stroke="#263238" stroke-linecap="round" stroke-linejoin="round" stroke-width="0.5"/>
      <path id="Path_7713" data-name="Path 7713" d="M318.25,283.59s6.258,2.5,10.3,3.923c0,0,4.971,4.672,10.3,20.866,0,0-4.884,8.216-14.175,10.849" transform="translate(-288.055 -258.177)" fill="none" stroke="#263238" stroke-linecap="round" stroke-linejoin="round" stroke-width="0.5"/>
      <path id="Path_7714" data-name="Path 7714" d="M342.18,357.757l4.491-3.738a4.94,4.94,0,0,1,4.844-.571" transform="translate(-303.947 -304.284)" fill="none" stroke="#263238" stroke-linecap="round" stroke-linejoin="round" stroke-width="0.5"/>
      <path id="Path_7715" data-name="Path 7715" d="M341.67,328.67s3.712,5.485,4.662,9.18" transform="translate(-303.609 -288.115)" fill="none" stroke="#263238" stroke-linecap="round" stroke-linejoin="round" stroke-width="0.5"/>
      <path id="Path_7716" data-name="Path 7716" d="M255.332,357.181l-1.313-1.246a6.2,6.2,0,0,0-4.158,1.139" transform="translate(-242.637 -306.2)" fill="none" stroke="#263238" stroke-linecap="round" stroke-linejoin="round" stroke-width="1.103"/>
      <path id="Path_7717" data-name="Path 7717" d="M262.24,339.935a49.876,49.876,0,0,1,3.241-8.125" transform="translate(-250.859 -290.2)" fill="none" stroke="#263238" stroke-linecap="round" stroke-linejoin="round" stroke-width="0.5"/>
      <path id="Path_7718" data-name="Path 7718" d="M255.137,285.55s-9.005,3.379-9.889,4.367-4.239,19.882-4.33,22.045c-.077,1.935,6.936,6.278,10.413,8.109" transform="translate(-236.699 -259.479)" fill="none" stroke="#263238" stroke-linecap="round" stroke-linejoin="round" stroke-width="0.5"/>
      <path id="Path_7719" data-name="Path 7719" d="M300.949,303.385a.591.591,0,1,1-.173-.421A.595.595,0,0,1,300.949,303.385Z" transform="translate(-275.776 -270.928)" fill="#263238"/>
      <path id="Path_7720" data-name="Path 7720" d="M292.86,396.881H272.37a.48.48,0,0,1-.48-.48h0a.48.48,0,0,1,.48-.48h20.49a.48.48,0,0,1,.48.48h0A.48.48,0,0,1,292.86,396.881Z" transform="translate(-257.267 -332.776)" fill="#263238"/>
      <path id="Path_7721" data-name="Path 7721" d="M289.17,365.224l2.744-12.9a1.37,1.37,0,0,0-1.344-1.656H266.621a1.37,1.37,0,0,0-1.344,1.639l2.462,12.468a1.37,1.37,0,0,0,1.313,1.105l18.74.43a1.377,1.377,0,0,0,1.377-1.088Z" transform="translate(-252.858 -302.725)" fill="#fff" stroke="#263238" stroke-linecap="round" stroke-linejoin="round" stroke-width="0.5"/>
      <path id="Path_7722" data-name="Path 7722" d="M302.883,369.045a1.911,1.911,0,1,1-.559-1.354A1.911,1.911,0,0,1,302.883,369.045Z" transform="translate(-275.311 -313.657)" fill="#263238"/>
      <line id="Line_63" data-name="Line 63" x2="2.845" transform="translate(31.33 49.177)" fill="none" stroke="#263238" stroke-linecap="round" stroke-linejoin="round" stroke-width="0.5"/>
      <line id="Line_64" data-name="Line 64" x2="10.799" transform="translate(17.743 49.177)" fill="none" stroke="#263238" stroke-linecap="round" stroke-linejoin="round" stroke-width="0.5"/>
      <path id="Path_7723" data-name="Path 7723" d="M267.722,400.539l-2.183,5.73s-5.569-1.4-12.7-2.865c-7.46-1.528-15.25-3.507-19.29-10.6a4.016,4.016,0,0,1-.588-2.852c.581-2.449,3.769-3.114,5.868-3.359a38.258,38.258,0,0,1,3.974-.222c.672,0,2.905-.366,3.446.034a15.834,15.834,0,0,0,2.59,1.535c1.192.507,18.6-.453,18.6-.453a6.244,6.244,0,0,0,.548-2.093c2.738-1.391,9.069-2.566,11.756-2.046,4.209.816,6.664,3.272,6.2,5.845S276.173,398.668,267.722,400.539Z" transform="translate(-231.364 -324.346)" fill="#263238"/>
      <path id="Path_7724" data-name="Path 7724" d="M290.418,414.935a36.283,36.283,0,0,1-9.623-4.326c-4.326-2.922-7.705-6.315-13.735-5.613" transform="translate(-254.06 -338.741)" fill="none" stroke="#fff" stroke-linecap="round" stroke-linejoin="round" stroke-width="0.5"/>
      <path id="Path_7725" data-name="Path 7725" d="M305,401.79c2.734-.786,4.739-2.556,6.933-4.252a46.9,46.9,0,0,1,7.42-4.877" transform="translate(-279.256 -330.611)" fill="none" stroke="#fff" stroke-linecap="round" stroke-linejoin="round" stroke-width="0.5"/>
      <line id="Line_65" data-name="Line 65" x2="0.803" transform="translate(24.78 14.819)" fill="none" stroke="#263238" stroke-linecap="round" stroke-linejoin="round" stroke-width="0.5"/>
    </g>
  </g>
</svg>
