<svg xmlns="http://www.w3.org/2000/svg" width="604.211" height="371.579" viewBox="0 0 604.211 371.579">
  <g id="FAQs-cuate" transform="translate(-46.9 -58)">
    <g id="freepik--Shadow--inject-2" transform="translate(270.208 405.624)">
      <ellipse id="Ellipse_278" data-name="Ellipse 278" cx="190.451" cy="11.978" rx="190.451" ry="11.978" fill="#d9f2f2"/>
    </g>
    <g id="freepik--Floor--inject-2" transform="translate(50.409 368.744)">
      <path id="Path_16660" data-name="Path 16660" d="M50.72,396.759l74.467-.23,74.467-.083,148.933-.147,148.933.147,74.467.083,74.467.23-74.467.22-74.467.083-148.933.156-148.933-.156-74.467-.083Z" transform="translate(-50.72 -396.3)" fill="none" stroke="#d9f2f2" stroke-width="1"/>
    </g>
    <g id="freepik--FAQs--inject-2" transform="translate(100.617 172.404)">
      <path id="Path_16661" data-name="Path 16661" d="M118,364.165V200.829a15.184,15.184,0,0,1,15.22-15.23h90.514a15.367,15.367,0,0,1,0,30.725H148.7v50.658h64.491a15.367,15.367,0,0,1,0,30.725H148.7v66.457a15.432,15.432,0,0,1-15.505,15.229A15.184,15.184,0,0,1,118,364.165Z" transform="translate(-106.408 -182.798)" fill="#407bff"/>
      <path id="Path_16662" data-name="Path 16662" d="M118,364.165V200.829a15.184,15.184,0,0,1,15.22-15.23h90.514a15.367,15.367,0,0,1,0,30.725H148.7v50.658h64.491a15.367,15.367,0,0,1,0,30.725H148.7v66.457a15.432,15.432,0,0,1-15.505,15.229A15.184,15.184,0,0,1,118,364.165Z" transform="translate(-106.408 -182.798)" opacity="0.1"/>
      <path id="Path_16663" data-name="Path 16663" d="M105.38,364.165V200.829A15.193,15.193,0,0,1,120.646,185.6h90.477a15.367,15.367,0,0,1,0,30.725H136.105v50.658h64.5a15.367,15.367,0,0,1,0,30.725h-64.5v66.457a15.422,15.422,0,0,1-15.459,15.2,15.193,15.193,0,0,1-15.266-15.2Z" transform="translate(-105.38 -182.798)" fill="#407bff"/>
      <path id="Path_16664" data-name="Path 16664" d="M348.789,333.712H281.533L267.966,369.7a15.533,15.533,0,0,1-14.394,9.691,16.211,16.211,0,0,1-5.263-.836,15.716,15.716,0,0,1-9.13-19.932L300.354,195.59a15.487,15.487,0,0,1,14.7-9.691,15.23,15.23,0,0,1,14.7,9.691l61.175,163.033a15.707,15.707,0,0,1-9.14,19.932,15.468,15.468,0,0,1-19.427-8.855Zm-11.344-30.441-22.422-59.522L292.6,303.271Z" transform="translate(-116.204 -182.821)" fill="#407bff"/>
      <path id="Path_16665" data-name="Path 16665" d="M348.789,333.712H281.533L267.966,369.7a15.533,15.533,0,0,1-14.394,9.691,16.211,16.211,0,0,1-5.263-.836,15.716,15.716,0,0,1-9.13-19.932L300.354,195.59a15.487,15.487,0,0,1,14.7-9.691,15.23,15.23,0,0,1,14.7,9.691l61.175,163.033a15.707,15.707,0,0,1-9.14,19.932,15.468,15.468,0,0,1-19.427-8.855Zm-11.344-30.441-22.422-59.522L292.6,303.271Z" transform="translate(-116.204 -182.821)" opacity="0.1"/>
      <path id="Path_16666" data-name="Path 16666" d="M336.2,333.712H268.942L255.366,369.7a15.533,15.533,0,0,1-14.394,9.691,16.211,16.211,0,0,1-5.263-.836,15.7,15.7,0,0,1-9.13-19.932L287.754,195.59a15.487,15.487,0,0,1,14.7-9.691,15.229,15.229,0,0,1,14.7,9.691l61.175,163.033a15.707,15.707,0,0,1-9.14,19.932,15.468,15.468,0,0,1-19.409-8.855Zm-11.344-30.441-22.422-59.522L280.01,303.271Z" transform="translate(-115.177 -182.821)" fill="#407bff"/>
      <path id="Path_16667" data-name="Path 16667" d="M620.248,406.519c-15.22,11.629-31,17.452-45.67,17.452h-.827c-19.381,0-35.713-7.743-50.658-16.607a34.675,34.675,0,0,0-16.883-4.152c-9.14,0-18.545,3.876-19.657,4.712-5.511,3.04-11.941,2.489-16.056-.836-.276-.276-.827-.276-1.663-.551-.276-.276-.276-.276-.551-.276-1.387-1.938-3.04-3.6-3.876-6.366-4.152-8.267-.276-17.452,7.477-21.319l.827-.551a121.248,121.248,0,0,1-30.725-21.035,108.333,108.333,0,0,1-27.676-72.244,106.193,106.193,0,0,1,27.676-71.472c17.719-19.1,42.079-30.725,69.2-30.725a91.257,91.257,0,0,1,68.643,30.725,102.786,102.786,0,0,1,28.236,71.417,104.833,104.833,0,0,1-28.236,72.244A106.773,106.773,0,0,1,549.116,378.8l-6.375,2.572c11.629,6.366,22.146,9.957,31.01,9.957,8.019,0,15.771-1.929,27.125-10.517a15.928,15.928,0,0,1,22.422,2.756C628.827,390.463,627.725,400.429,620.248,406.519Zm-154.178-72a60.238,60.238,0,0,0,45.119,19.932c17.719,0,33.49-7.477,45.67-19.932,11.941-12.731,19.106-30.174,19.106-49.822s-7.2-37.091-19.106-49.271c-12.18-12.74-27.951-20.208-45.67-20.208a59.485,59.485,0,0,0-45.119,20.208c-11.941,12.18-19.1,29.614-19.1,49.271S454.166,321.82,466.07,334.523Z" transform="translate(-130.543 -182.549)" fill="#407bff"/>
      <path id="Path_16668" data-name="Path 16668" d="M620.248,406.519c-15.22,11.629-31,17.452-45.67,17.452h-.827c-19.381,0-35.713-7.743-50.658-16.607a34.675,34.675,0,0,0-16.883-4.152c-9.14,0-18.545,3.876-19.657,4.712-5.511,3.04-11.941,2.489-16.056-.836-.276-.276-.827-.276-1.663-.551-.276-.276-.276-.276-.551-.276-1.387-1.938-3.04-3.6-3.876-6.366-4.152-8.267-.276-17.452,7.477-21.319l.827-.551a121.248,121.248,0,0,1-30.725-21.035,108.333,108.333,0,0,1-27.676-72.244,106.193,106.193,0,0,1,27.676-71.472c17.719-19.1,42.079-30.725,69.2-30.725a91.257,91.257,0,0,1,68.643,30.725,102.786,102.786,0,0,1,28.236,71.417,104.833,104.833,0,0,1-28.236,72.244A106.773,106.773,0,0,1,549.116,378.8l-6.375,2.572c11.629,6.366,22.146,9.957,31.01,9.957,8.019,0,15.771-1.929,27.125-10.517a15.928,15.928,0,0,1,22.422,2.756C628.827,390.463,627.725,400.429,620.248,406.519Zm-154.178-72a60.238,60.238,0,0,0,45.119,19.932c17.719,0,33.49-7.477,45.67-19.932,11.941-12.731,19.106-30.174,19.106-49.822s-7.2-37.091-19.106-49.271c-12.18-12.74-27.951-20.208-45.67-20.208a59.485,59.485,0,0,0-45.119,20.208c-11.941,12.18-19.1,29.614-19.1,49.271S454.166,321.82,466.07,334.523Z" transform="translate(-130.543 -182.549)" opacity="0.1"/>
      <path id="Path_16669" data-name="Path 16669" d="M607.668,406.519c-15.229,11.629-31,17.452-45.67,17.452h-.836c-19.372,0-35.7-7.743-50.649-16.607a34.685,34.685,0,0,0-16.892-4.152c-9.13,0-18.545,3.876-19.648,4.712-5.511,3.04-11.941,2.489-16.056-.836-.276-.276-.827-.276-1.663-.551-.276-.276-.276-.276-.551-.276-1.387-1.938-3.05-3.6-3.876-6.366-4.152-8.267-.276-17.452,7.477-21.319l.827-.551a121.12,121.12,0,0,1-30.725-21.035,108.334,108.334,0,0,1-27.676-72.244,106.193,106.193,0,0,1,27.676-71.472c17.719-19.1,42.069-30.725,69.2-30.725a91.258,91.258,0,0,1,68.643,30.725,102.785,102.785,0,0,1,28.236,71.417,104.833,104.833,0,0,1-28.236,72.244A106.689,106.689,0,0,1,536.527,378.8l-6.366,2.572c11.629,6.366,22.146,9.957,31,9.957,8.028,0,15.781-1.929,27.125-10.517a15.928,15.928,0,0,1,22.422,2.756C616.247,390.463,615.136,400.429,607.668,406.519Zm-154.178-72a60.22,60.22,0,0,0,45.119,19.932c17.71,0,33.49-7.477,45.67-19.932,11.941-12.731,19.1-30.174,19.1-49.822s-7.192-37.091-19.1-49.271c-12.18-12.74-27.961-20.208-45.67-20.208a59.476,59.476,0,0,0-45.119,20.208c-11.941,12.18-19.106,29.614-19.106,49.271S441.586,321.82,453.49,334.523Z" transform="translate(-129.519 -182.549)" fill="#407bff"/>
    </g>
    <g id="freepik--Plant--inject-2" transform="translate(46.9 270.902)">
      <path id="Path_16670" data-name="Path 16670" d="M99.508,317.715C89.624,331.1,79.3,346.621,76.82,363.4a.22.22,0,0,0,.432.083,99.675,99.675,0,0,1,4.372-13.429c6.494-1.791,12.86-3.261,16.286-9.709,3.472-6.623,3.031-15.266,2.37-22.486C100.234,317.476,99.71,317.458,99.508,317.715Z" transform="translate(-49.337 -292.042)" fill="#407bff"/>
      <path id="Path_16671" data-name="Path 16671" d="M82.158,350.3c4.437-9.957,10.1-19.96,17.379-28.153,0-.055.119,0,.073.083-4.74,5.833-8.34,12.189-11.858,18.646,3.27-3.316,6.852-6.292,9.957-9.819.055-.064.156,0,.092.1-3.077,3.674-6.43,7.707-10.444,10.444-1.075,1.975-2.159,3.968-3.261,5.961.276-.156.551-.285.827-.423,0,0,.092.046,0,.073-.312.156-.615.312-.919.45-.524.919-1.038,1.883-1.571,2.82C82.351,350.7,82.057,350.485,82.158,350.3Z" transform="translate(-49.77 -292.416)" fill="#263238"/>
      <path id="Path_16672" data-name="Path 16672" d="M85.745,348.551a58.988,58.988,0,0,0,7.578-5.052c.064-.046.156.046.092.1a40.755,40.755,0,0,1-7.569,5.153C85.727,348.817,85.626,348.634,85.745,348.551Z" transform="translate(-50.06 -294.156)" fill="#263238"/>
      <path id="Path_16673" data-name="Path 16673" d="M75.507,358.653c0,.2.367.193.367,0,0-5.511,0-11.078.083-16.635,1.415-2.857,4.455-4.437,6.568-6.724a29.45,29.45,0,0,0,3.941-5.511,39.323,39.323,0,0,0,4.593-15.248c.588-5.915-1.663-25.416-4.152-24.736-1.3.349-5.511,10.012-6.586,13.2a93.351,93.351,0,0,0-3.931,16.194C74.35,332.235,74.524,345.563,75.507,358.653Z" transform="translate(-49.173 -289.781)" fill="#407bff"/>
      <path id="Path_16674" data-name="Path 16674" d="M75.523,335.114h0c.3-6.99,1.837-14.054,3.353-20.833,1.589-7.348,3.445-14.192,7.2-20.7a.11.11,0,0,1,.184.11,77.36,77.36,0,0,0-5.713,15.891c.257-.395.56-.772.827-1.139.1-.147.34,0,.239.138a10.1,10.1,0,0,1-1.176,1.663h0c-1.3,5.227-2.223,10.563-3.022,15.891.064-.064.119-.138.175-.2a.055.055,0,0,1,.083.064c-.092.175-.2.349-.312.524-.4,2.71-.772,5.41-1.148,8.083,4.813-4.115,8.928-8.965,11.252-14.945h0c-2.324,6.209-5.906,11.721-11.418,15.487l-.3,2.159c0,.147-.257.11-.257,0,0-.634,0-1.277.055-1.911a.156.156,0,0,1-.018-.276Z" transform="translate(-49.226 -290.088)" fill="#263238"/>
      <path id="Path_16675" data-name="Path 16675" d="M78,326.269a110.963,110.963,0,0,0,9.81-16.892c0-.073.147,0,.119.046a54.865,54.865,0,0,1-9.746,16.993C78.09,326.481,77.925,326.38,78,326.269Z" transform="translate(-49.432 -291.375)" fill="#263238"/>
      <path id="Path_16676" data-name="Path 16676" d="M83.318,307.181c1.525-2.7,3.132-5.318,4.593-8.074,0-.073.138,0,.11.064a41.932,41.932,0,0,1-4.446,8.148.146.146,0,0,1-.257-.138Z" transform="translate(-49.865 -290.538)" fill="#263238"/>
      <path id="Path_16677" data-name="Path 16677" d="M82.679,309.18v.046S82.642,309.18,82.679,309.18Z" transform="translate(-49.813 -291.361)" fill="#263238"/>
      <path id="Path_16678" data-name="Path 16678" d="M70.132,343.41a56.279,56.279,0,0,1-1.286,10.885l.165,1.194a51.935,51.935,0,0,0,1.947-12.134.367.367,0,0,0,0-.377h0a80.391,80.391,0,0,0-1.2-16.433c-1.709-10.15-5.447-19.9-12.529-27.556a.514.514,0,0,0-.79.156c-2.857,7.275-1.837,15.946.579,23.193a42.538,42.538,0,0,0,5.612,11.023C65.08,336.787,68.157,339.681,70.132,343.41Z" transform="translate(-47.536 -290.521)" fill="#407bff"/>
      <path id="Path_16679" data-name="Path 16679" d="M58.332,302.714c6.715,10.894,11.381,23.809,11.941,36.678,0,.23-.367.294-.4.055-.156-1.148-.331-2.3-.524-3.435h0a44.861,44.861,0,0,1-7.615-8.79c0-.055,0-.129.092-.073a91.8,91.8,0,0,0,7.4,8.056c-.478-2.848-1.047-5.649-1.727-8.4l-.533-.625c-.11-.138.083-.34.2-.2l.165.184A96.346,96.346,0,0,0,63.816,315c-1.708-2.039-3.619-3.794-4.859-6.255,0-.055.046-.1.092,0,1,1.405,1.966,2.811,3.1,4.115.45.524.919,1.01,1.415,1.516a85.936,85.936,0,0,0-5.511-11.454.174.174,0,1,1,.276-.211Z" transform="translate(-47.806 -290.829)" fill="#263238"/>
      <path id="Path_16680" data-name="Path 16680" d="M59.826,317.347c2.168,2.921,4.593,5.7,6.659,8.726.055.083-.073.175-.147.11a44.237,44.237,0,0,1-6.659-8.754C59.614,317.338,59.761,317.264,59.826,317.347Z" transform="translate(-47.94 -292.024)" fill="#263238"/>
      <path id="Path_16681" data-name="Path 16681" d="M67.409,327.588l.092.092c.064.064,0,.156-.1.092l-.092-.092C67.244,327.616,67.345,327.524,67.409,327.588Z" transform="translate(-48.561 -292.859)" fill="#263238"/>
      <path id="Path_16682" data-name="Path 16682" d="M46.909,325.461a33.481,33.481,0,0,0,7.082,16.617,17.6,17.6,0,0,0,5.741,4.483c2.489,1.231,5.1,2.655,7.67,3.674a50.686,50.686,0,0,1,2.756,9.636l.248-.854c-1.653-14.182-10.839-26.316-22.587-34.106a.569.569,0,0,0-.909.551Z" transform="translate(-46.9 -292.633)" fill="#407bff"/>
      <path id="Path_16683" data-name="Path 16683" d="M51.327,330.074a.1.1,0,0,1,.119-.156A48.1,48.1,0,0,1,66.41,348.363c.083.193-.184.367-.294.165-.542-.919-1.1-1.883-1.663-2.8h0c-2.682-.505-5.217-2.4-7.211-4.189-.055-.046,0-.129.083-.073a16.433,16.433,0,0,0,3.389,2.379,35.031,35.031,0,0,0,3.408,1.35c-.992-1.58-2.03-3.086-3.114-4.593a31.33,31.33,0,0,1-8.056-4.528c-.073-.055,0-.184.073-.129a80.4,80.4,0,0,0,7.486,4,66.651,66.651,0,0,0-5.282-6.163c-.919-.478-1.837-.964-2.756-1.479-.073,0,0-.165.055-.138a9.773,9.773,0,0,1,2.085,1.029C53.587,332.16,52.494,331.1,51.327,330.074Z" transform="translate(-47.258 -293.049)" fill="#263238"/>
      <path id="Path_16684" data-name="Path 16684" d="M51.59,335.419a2.661,2.661,0,0,1,.45.321s0,.092-.055.074a2.94,2.94,0,0,1-.468-.266C51.434,335.492,51.508,335.364,51.59,335.419Z" transform="translate(-47.273 -293.497)" fill="#263238"/>
      <path id="Path_16685" data-name="Path 16685" d="M89.546,393.257H57.36l2.6-29.311.569-6.467H86.377l.57,6.467Z" transform="translate(-47.752 -295.295)" fill="#455a64"/>
      <path id="Path_16686" data-name="Path 16686" d="M87.177,363.947H60.19l.569-6.467H86.607Z" transform="translate(-47.983 -295.295)" fill="#263238"/>
      <rect id="Rectangle_4021" data-name="Rectangle 4021" width="28.925" height="6.393" transform="translate(11.243 57.665)" fill="#455a64"/>
    </g>
    <g id="freepik--character-3--inject-2" transform="translate(517.015 98.443)">
      <path id="Path_16687" data-name="Path 16687" d="M690.151,441.307c-1.956.615-57.731-.312-59.843-1.69-.8-.524-1.139-8.653-1.268-18.49v-6.54c0-14.467.129-27.777.129-27.777l37.321.974-1.167,27.3-.276,6.54s21.2,9.911,23.34,11.666S692.107,440.683,690.151,441.307Z" transform="translate(-564.432 -125.226)" fill="#ffc4c0"/>
      <path id="Path_16688" data-name="Path 16688" d="M690.147,443.771c-1.956.615-57.731-.312-59.843-1.69-.974-.634-1.268-12.511-1.313-25.03l36.283.5-.276,6.54s21.2,9.911,23.34,11.666S692.1,443.146,690.147,443.771Z" transform="translate(-564.428 -127.689)" fill="#fff"/>
      <path id="Path_16689" data-name="Path 16689" d="M690.151,444.35c-1.956.615-57.731-.312-59.843-1.69-.8-.524-1.139-8.653-1.268-18.49l35.961.5s21.2,9.911,23.34,11.666S692.107,443.726,690.151,444.35Z" transform="translate(-564.432 -128.269)" fill="#a6a6a6"/>
      <path id="Path_16690" data-name="Path 16690" d="M657.7,444.224c-13.549-.34-26.4-.919-27.391-1.534-.8-.524-1.139-8.653-1.268-18.49l7.348.1C642.065,429.619,652.3,439.163,657.7,444.224Z" transform="translate(-564.432 -128.271)" opacity="0.1"/>
      <path id="Path_16691" data-name="Path 16691" d="M689.739,443.618c-9.351-.386-47.076-1.056-56.344-.726-.073,0-.073.055,0,.064,9.25.579,46.984.919,56.344.818C689.978,443.774,689.978,443.627,689.739,443.618Z" transform="translate(-564.783 -129.787)" fill="#263238"/>
      <path id="Path_16692" data-name="Path 16692" d="M689.038,435.159a7.5,7.5,0,0,0-5.631,2.2,7.238,7.238,0,0,0-2.168,4.951c0,.055.1.064.11,0a8.68,8.68,0,0,1,7.688-7.036.064.064,0,0,0,0-.11Z" transform="translate(-568.684 -129.163)" fill="#263238"/>
      <path id="Path_16693" data-name="Path 16693" d="M671.188,425.789c-3.738-.119-8.1,1.13-10.481,4.152-.092.119.083.248.193.193a51.78,51.78,0,0,1,10.343-3.885.231.231,0,0,0-.055-.459Z" transform="translate(-567.01 -128.4)" fill="#263238"/>
      <path id="Path_16694" data-name="Path 16694" d="M674.318,427.069c-3.748-.119-8.1,1.13-10.481,4.152-.092.119.073.248.184.193a51.861,51.861,0,0,1,10.352-3.885.231.231,0,1,0-.055-.459Z" transform="translate(-567.265 -128.504)" fill="#263238"/>
      <path id="Path_16695" data-name="Path 16695" d="M677.438,428.349c-3.738-.119-8.1,1.13-10.481,4.152-.092.119.083.248.193.193a51.223,51.223,0,0,1,10.343-3.885.231.231,0,1,0-.055-.459Z" transform="translate(-567.519 -128.609)" fill="#263238"/>
      <path id="Path_16696" data-name="Path 16696" d="M680.568,429.619c-3.748-.11-8.1,1.139-10.481,4.161-.092.119.073.248.184.193a51.311,51.311,0,0,1,10.352-3.885.239.239,0,0,0-.055-.468Z" transform="translate(-567.774 -128.712)" fill="#263238"/>
      <path id="Path_16697" data-name="Path 16697" d="M635.867,433.28c-4.2-.064-4.29,6.43-.092,6.522S640.074,433.335,635.867,433.28Z" transform="translate(-564.728 -129.011)" fill="#263238"/>
      <path id="Path_16698" data-name="Path 16698" d="M675.909,414.939c-1.837-1.6-4.28-.11-5.511,1.506a19.656,19.656,0,0,0-3.527,9.516.1.1,0,0,0,.119.1.441.441,0,0,0,.661.312c2.7-1.791,5.805-3.38,7.863-5.952C676.717,418.907,677.672,416.446,675.909,414.939Zm-4.731,7.881c-1.3.919-2.645,1.764-3.913,2.756a56.932,56.932,0,0,1,2.2-5.511,20.764,20.764,0,0,1,1.405-2.5c.836-1.231,4.593-4.29,4.868-.22.165,2.186-3.013,4.372-4.565,5.465Z" transform="translate(-567.514 -127.461)" fill="#263238"/>
      <path id="Path_16699" data-name="Path 16699" d="M656.369,427.755c3.252.551,6.632-.322,9.838-.762a.459.459,0,0,0,.294-.68.092.092,0,0,0,0-.156,19.6,19.6,0,0,0-8.974-4.749c-1.966-.413-4.758.064-5.089,2.508S654.476,427.452,656.369,427.755Zm-2.223-2.14c-2.48-3.252,2.342-3.435,3.784-3.068a21.926,21.926,0,0,1,2.756.919c1.837.753,3.546,1.745,5.3,2.664-1.589.119-3.151.377-4.74.56C659.317,426.883,655.514,427.379,654.146,425.615Z" transform="translate(-566.336 -128.033)" fill="#263238"/>
      <path id="Path_16700" data-name="Path 16700" d="M664.778,397.467H623.921s7.688-87,7.348-88.667c-.4-2.14-2.82-11.794-6.026-24.415-1.01-3.95-2.094-8.184-3.224-12.575-3.05-11.877-6.43-24.856-9.332-36.145-4.391-16.92-7.817-30.055-7.817-30.055H639.5s4.042,12.8,9.121,29.393c8.267,27.051,19.363,64.3,20.456,73.337C670.868,323,664.778,397.467,664.778,397.467Z" transform="translate(-562.464 -110.466)" fill="#455a64"/>
      <path id="Path_16701" data-name="Path 16701" d="M664.865,406.865c-6.237-.129-4.446-.184-10.683-.239-3.059,0-23.129-.211-25.986.266-.055,0-.055.119,0,.129,2.857.468,22.964.294,25.986.266,6.237-.064,4.446-.11,10.683-.239a.092.092,0,0,0,0-.184Z" transform="translate(-564.36 -126.836)" fill="#263238"/>
      <path id="Path_16702" data-name="Path 16702" d="M639.6,303.736c-1.332-5.906-3.334-11.7-5.08-17.5q-5.318-17.664-10.692-35.318-2.673-8.827-5.392-17.654l-2.756-8.9c-.919-2.967-1.938-5.768-2.756-8.7-.331-1.194-.514-.533-.083.974.863,3.05,1.708,6.1,2.6,9.14q2.645,9.038,5.309,18.049,5.318,17.967,10.719,35.888,2.7,9,5.41,17.985a73.123,73.123,0,0,1,2.214,8.7,40.417,40.417,0,0,1,.358,9.3c-.395,6.255-1.111,12.492-1.69,18.729l-1.736,18.757c-1.157,12.437-1.773,16.442-2.893,28.879-.138,1.58-.276,3.16-.4,4.73,0,.533.753.5.808,0,1.35-12.3,1.837-16.2,3-28.521L640,321.537c.285-3.077.606-6.154.615-9.25a37.759,37.759,0,0,0-1.01-8.552Z" transform="translate(-563.093 -111.235)" fill="#263238"/>
      <path id="Path_16703" data-name="Path 16703" d="M635.588,205.61c-2.407,18.6-6.99,53.469-10.324,78.775-7.817-30.661-20.373-78.775-20.373-78.775Z" transform="translate(-562.465 -110.466)" fill="#263238"/>
      <path id="Path_16704" data-name="Path 16704" d="M645.016,441.638c-1.938.671-57.712,1.387-59.862.073-.808-.5-1.387-8.616-1.837-18.444-.092-2.122-.175-4.308-.239-6.54-.478-14.458-.689-27.758-.689-27.758l37.33-.129-.358,27.318-.083,6.549s21.476,9.277,23.671,10.967S646.964,440.958,645.016,441.638Z" transform="translate(-560.633 -125.391)" fill="#ffc4c0"/>
      <path id="Path_16705" data-name="Path 16705" d="M645.08,444.06c-1.938.671-57.712,1.387-59.862.073-.992-.606-1.635-12.465-2.048-24.984l36.283-.569-.083,6.549s21.476,9.277,23.671,10.967S647.027,443.381,645.08,444.06Z" transform="translate(-560.696 -127.814)" fill="#fff"/>
      <path id="Path_16706" data-name="Path 16706" d="M645.1,444.641c-1.938.671-57.712,1.387-59.862.073-.808-.5-1.387-8.616-1.837-18.444l35.961-.56s21.476,9.277,23.671,10.967S647.046,443.962,645.1,444.641Z" transform="translate(-560.715 -128.394)" fill="#a6a6a6"/>
      <path id="Path_16707" data-name="Path 16707" d="M644.669,443.9c-9.351-.11-47.085.331-56.334.919-.083,0-.083.055,0,.055,9.268.312,46.993-.441,56.334-.845C644.871,444.036,644.871,443.9,644.669,443.9Z" transform="translate(-561.112 -129.875)" fill="#263238"/>
      <path id="Path_16708" data-name="Path 16708" d="M643.746,435.52a7.514,7.514,0,0,0-5.566,2.352,7.348,7.348,0,0,0-2.03,5.024c0,.055.11.055.119,0a8.68,8.68,0,0,1,7.477-7.257C643.82,435.63,643.82,435.52,643.746,435.52Z" transform="translate(-565.011 -129.193)" fill="#263238"/>
      <path id="Path_16709" data-name="Path 16709" d="M625.62,426.67c-3.748,0-8.065,1.369-10.352,4.464-.092.119.083.239.193.184a51.332,51.332,0,0,1,10.223-4.189.232.232,0,0,0-.064-.459Z" transform="translate(-563.308 -128.472)" fill="#263238"/>
      <path id="Path_16710" data-name="Path 16710" d="M628.78,427.85c-3.748,0-8.065,1.378-10.352,4.464-.092.119.083.248.193.193a51.779,51.779,0,0,1,10.233-4.2.239.239,0,0,0-.073-.459Z" transform="translate(-563.566 -128.569)" fill="#263238"/>
      <path id="Path_16711" data-name="Path 16711" d="M631.94,429c-3.748,0-8.065,1.369-10.352,4.464-.092.119.083.239.193.184a51.74,51.74,0,0,1,10.233-4.189.239.239,0,0,0-.073-.459Z" transform="translate(-563.823 -128.662)" fill="#263238"/>
      <path id="Path_16712" data-name="Path 16712" d="M635.08,430.23c-3.739,0-8.065,1.369-10.352,4.455-.083.129.083.248.193.193a51.191,51.191,0,0,1,10.233-4.189.239.239,0,0,0-.073-.459Z" transform="translate(-564.079 -128.763)" fill="#263238"/>
      <path id="Path_16713" data-name="Path 16713" d="M590.525,435.21c-4.2.073-4.1,6.6.11,6.531S594.732,435.146,590.525,435.21Z" transform="translate(-561.043 -129.168)" fill="#263238"/>
      <path id="Path_16714" data-name="Path 16714" d="M630.028,415.684c-1.911-1.543-4.28,0-5.429,1.663a19.758,19.758,0,0,0-3.279,9.6.1.1,0,0,0,.119.1.45.45,0,0,0,.68.294c2.636-1.837,5.7-3.555,7.679-6.182C630.965,419.6,631.837,417.144,630.028,415.684Zm-4.492,8.01c-1.277.919-2.59,1.837-3.83,2.848a57.885,57.885,0,0,1,2.039-5.576,20.213,20.213,0,0,1,1.332-2.535c.8-1.249,4.437-4.427,4.859-.358C630.212,420.313,627.061,422.554,625.536,423.693Z" transform="translate(-563.804 -127.526)" fill="#263238"/>
      <path id="Path_16715" data-name="Path 16715" d="M610.859,429.086c3.261.459,6.614-.514,9.81-1.047a.459.459,0,0,0,.276-.689.1.1,0,0,0,0-.156,19.7,19.7,0,0,0-9.121-4.492c-1.975-.349-4.749.211-5.015,2.664C606.57,427.68,608.958,428.819,610.859,429.086Zm-2.287-2.1c-2.572-3.178,2.241-3.5,3.674-3.178a20.649,20.649,0,0,1,2.756.854,57.135,57.135,0,0,1,5.374,2.508c-1.58.165-3.141.468-4.721.7C613.78,428.13,610,428.736,608.572,426.982Z" transform="translate(-562.62 -128.142)" fill="#263238"/>
      <path id="Path_16716" data-name="Path 16716" d="M636.366,205.61s-.8,16.534-4.593,29.687c-.3,1.084-.634,2.159-.983,3.178a61.544,61.544,0,0,0-9.985,5.153s-.395,13.328-.8,28.2c-.441,16.616,2.131,35.153,2.232,39.084.34,14.7-1.442,86.408-1.442,86.408l-40.857.165s6.99-81.135,6.935-86.527c-.074-8.662,2.976-68.891,2.462-70.278-6.577-17.2,2.113-35.052,2.113-35.052Z" transform="translate(-560.433 -110.466)" fill="#455a64"/>
      <path id="Path_16717" data-name="Path 16717" d="M619.633,406.372c-6.237-.1-4.446-.165-10.692-.193-3.05,0-23.12-.11-25.977.377a.064.064,0,1,0,0,.129c2.857.459,22.964.193,25.986.156,6.237-.092,4.446-.129,10.683-.285a.092.092,0,1,0,0-.184Z" transform="translate(-560.674 -126.803)" fill="#263238"/>
      <path id="Path_16718" data-name="Path 16718" d="M636.11,240.318a76.034,76.034,0,0,0-11.684,6.136.138.138,0,0,0,.119.239c3.95-1.92,7.973-3.757,11.8-5.888a.271.271,0,1,0-.239-.487Z" transform="translate(-564.053 -113.291)" fill="#263238"/>
      <path id="Path_16719" data-name="Path 16719" d="M630.438,232.626c.129-1.837.266-3.738.432-5.6.377-4.262.818-8.533,1.562-12.74.064-.331.524-.2.5.11-.285,3.307-.661,6.6-.974,9.911s-.707,6.6-.762,9.884c0,.992.046,2.673,1.268,2.949,1.635.367,2.407-1.782,2.8-2.958a55.777,55.777,0,0,0,2.048-9c.542-3.472.827-6.981,1.157-10.481,0-.119.22-.1.22,0,0,6.935-.083,14.182-2.664,20.732a3.888,3.888,0,0,1-2.875,2.756h-.064a.468.468,0,0,1,0,.119,3.246,3.246,0,0,1-.12.579c-.037.193-.055.331-.092.487-.073.34-.119.68-.211,1.01a.25.25,0,0,1-.5-.055.22.22,0,0,1-.147-.2,5.383,5.383,0,0,1,.45-1.966,2.453,2.453,0,0,1-1.791-1.506,8.671,8.671,0,0,1-.239-4.023Z" transform="translate(-564.535 -111.157)" fill="#263238"/>
      <path id="Path_16720" data-name="Path 16720" d="M594.3,241.123a74.952,74.952,0,0,0-1.782-8.515c-1.506-6.347-.5-14.981,1.139-21.182,0-.165-.23-.22-.276-.064-1.635,5.282-2.82,12.915-2.186,18.463.3,2.636,2.425,10.646,2.361,13.512-.138,5.64.312,53.735-.064,73.374-.248,12.86-2.921,56.1-3.325,68.983,0,.119.193.11.193,0,1.5-22.964,3.445-46.442,3.757-68.946C594.414,294.867,594.671,244.255,594.3,241.123Z" transform="translate(-561.266 -110.927)" fill="#263238"/>
      <path id="Path_16721" data-name="Path 16721" d="M614.935,212.988c-.184,1.966-.257,3.95-.551,5.915a7.973,7.973,0,0,1-2.2,4.795,11.867,11.867,0,0,1-4.593,2.618c-2.25.671-9.075.68-11.4.349-.588-.083-.533.367.579.606a68.559,68.559,0,0,0,7.532.551,16.426,16.426,0,0,0,3.674-.257,10.27,10.27,0,0,0,5.328-2.756,8.6,8.6,0,0,0,2.2-5.364,32.154,32.154,0,0,0-.248-6.43C615.219,212.8,614.944,212.8,614.935,212.988Z" transform="translate(-561.726 -111.056)" fill="#263238"/>
      <path id="Path_16722" data-name="Path 16722" d="M614.667,150.474a.083.083,0,1,0,.165,0c.441-5.034,5.612-8.1,5.741-13.245a12.07,12.07,0,0,0-1.837-6.43,34.45,34.45,0,0,0-2.673-3.546l-.377-.588a24.236,24.236,0,0,1-2.1-3.83,14.44,14.44,0,0,1-.919-4.868c-.138-3.178-.055-6.43-2.113-9.038-1.727-2.2-3.555-4.905-7.348-6.219-5.9-2.021-12.777.643-17.094,5.585a11.025,11.025,0,0,0-1.837,2.912,6.549,6.549,0,0,0-4.905,4.593c-1.157,3.573,1.02,8.506.689,10.3-.294,1.589-1.341,2.893-2.076,4.29a27.93,27.93,0,0,0-2.012,3.674,9.737,9.737,0,0,0-.478,5.631,10.792,10.792,0,0,0,1.993,4.749,8.873,8.873,0,0,0,4.023,2.7l1.13.386h0c1.286.808,2.7,1.442,3.913,2.361a6.88,6.88,0,0,1,2.581,4.124c.349,1.516.4,3.086.643,4.593a11.178,11.178,0,0,0,1.433,4.06,13.052,13.052,0,0,0,6.494,5.309,19.8,19.8,0,0,0,9.81.919c2.949-.395,5.768-1.5,7.56-3.977a9.36,9.36,0,0,0,1.534-7.514,25,25,0,0,0-1.883-4.391,7.467,7.467,0,0,1-.671-4.593c.974-5.162,6.228-8.892,5.236-14.541a12.749,12.749,0,0,0-1.58-4.06,12.75,12.75,0,0,1,2.544,6.5c.184,2.636-.919,4.887-2.324,7.036S614.786,147.792,614.667,150.474Zm-32.976-3.518a8.588,8.588,0,0,1-4.951-4.271,11.51,11.51,0,0,1-.983-7.348,13.245,13.245,0,0,1,1.424-3.316.378.378,0,0,0,0-.083,12.3,12.3,0,0,0-.551,2.3,14.008,14.008,0,0,0,1,7.431,12.86,12.86,0,0,0,4.115,5.291Z" transform="translate(-560.053 -102.03)" fill="#263238"/>
      <path id="Path_16723" data-name="Path 16723" d="M653.757,111.075l-5.043,25.977c-.23.762.184,1.359.919,1.314l13.218-.726a2.149,2.149,0,0,0,1.764-1.47l5.043-25.967c.23-.772-.184-1.359-.919-1.323l-13.218.735A2.122,2.122,0,0,0,653.757,111.075Z" transform="translate(-566.03 -102.587)" fill="#37474f"/>
      <path id="Path_16724" data-name="Path 16724" d="M655.467,110.965l-5.043,25.976c-.23.762.175,1.359.919,1.314l13.218-.726a2.168,2.168,0,0,0,1.764-1.47l5.043-25.967c.23-.772-.184-1.359-.919-1.323l-13.227.735a2.122,2.122,0,0,0-1.754,1.46Z" transform="translate(-566.169 -102.578)" fill="#455a64"/>
      <path id="Path_16725" data-name="Path 16725" d="M659.74,112.123a1.13,1.13,0,1,1-.357-.788,1.13,1.13,0,0,1,.357.788Z" transform="translate(-566.749 -102.763)" fill="#263238"/>
      <path id="Path_16726" data-name="Path 16726" d="M609.9,154.943c8.267,15.615,25.986,35.511,32.939,35.281,3.307-.11,9.25.413,13.42-3.592,9.084-8.735,16.268-24.966,17.452-34.115.432-3.261-15.615-9.535-17.811-6.788-5.144,6.43-10.9,18.784-11.868,18.757-3.573-.11-18.022-11.023-28.117-18.757C603.677,136.37,606.616,148.733,609.9,154.943Z" transform="translate(-562.639 -105.313)" fill="#ffc4c0"/>
      <path id="Path_16727" data-name="Path 16727" d="M678.336,133.556c-1.966-6.485-3.472-7.844-2.223-14.2.818-4.161-1.5-6.43-4.262-3.031-4.528,5.631-3.748,14.522-2.59,17.526Z" transform="translate(-567.636 -103.059)" fill="#ffc4c0"/>
      <path id="Path_16728" data-name="Path 16728" d="M676.846,153.218s2.508-9.277,1.093-16.387c-.974-4.923-4.3-15.386-18.426-20.337-3.344-1.176-8.956-.468-4.179,3.435,3.4,2.756,6.43,3.509,8.065,5.511,0,0-7.027,1.736-8.074,5.144a64.674,64.674,0,0,0-2.094,9.084,13.9,13.9,0,0,0,1.663.542s-.919,3.215,1.681,7.606Z" transform="translate(-566.403 -103.166)" fill="#ffc4c0"/>
      <path id="Path_16729" data-name="Path 16729" d="M675.7,133c-2.085-1.607-6.549-4.933-11.151-6.384-5.116-1.617-15.395-3.344-16.534.441-.845,2.756,3.022,3.775,3.022,3.775s-4.4.184-4.593,2.857c-.193,2.443,2.847,3.04,2.847,3.04s-2.655.569-2.388,2.949c.321,2.866,5.824,1.2,8.653,3.83C656.14,144.1,675.7,133,675.7,133Z" transform="translate(-565.85 -103.883)" fill="#ffc4c0"/>
      <path id="Path_16730" data-name="Path 16730" d="M664.151,132.833a21.4,21.4,0,0,0-12.639-1.534c-.1,0-.138.119,0,.119a52.255,52.255,0,0,1,12.667,1.47S664.179,132.833,664.151,132.833Z" transform="translate(-566.255 -104.385)" fill="#263238"/>
      <path id="Path_16731" data-name="Path 16731" d="M662.215,138.413a24,24,0,0,0-12.713-.781c-.1,0-.138.129,0,.119a57.088,57.088,0,0,1,12.731.707Z" transform="translate(-566.092 -104.886)" fill="#263238"/>
      <path id="Path_16732" data-name="Path 16732" d="M674.1,159.157s-11.721,26.041-19.069,29.311S643.17,191.3,640.332,191a7.5,7.5,0,0,1-3.013-1.286c-7.789-5.034-22.174-23.469-28.144-33.931-4.482-7.863-4.354-15.174,1.984-13.108a20.8,20.8,0,0,1,5.925,3.417c11.941,9.084,25.637,17.627,26.252,17.26S650.1,152.25,650.1,152.25Z" transform="translate(-562.561 -105.312)" fill="#407bff"/>
      <path id="Path_16733" data-name="Path 16733" d="M674.942,165.217c-.873-.432-9.094-3.206-10.885-3.766s-9.13-2.949-11.023-3.371a.064.064,0,1,0,0,.129c1.791.772,9.185,3.187,11.023,3.8s10.012,3.178,10.94,3.334C675.043,165.355,675.043,165.245,674.942,165.217Z" transform="translate(-566.381 -106.595)" fill="#263238"/>
      <path id="Path_16734" data-name="Path 16734" d="M638.237,161.195a118.633,118.633,0,0,1-15.395,13.879c-1.993-2.471-3.931-5.015-5.723-7.514a104.882,104.882,0,0,0,13.236-11.5C633.3,158.044,636,159.808,638.237,161.195Z" transform="translate(-563.461 -106.43)" fill="#ebebeb"/>
      <path id="Path_16735" data-name="Path 16735" d="M659.85,184.124a15.074,15.074,0,0,1-4.822,4.336c-7.348,3.288-11.858,2.838-14.7,2.544a7.348,7.348,0,0,1-3.013-1.286c-7.789-5.034-22.174-23.478-28.144-33.931-4.069-7.128-4.345-13.778.367-13.448C622.218,152.783,646.293,172.816,659.85,184.124Z" transform="translate(-562.561 -105.312)" opacity="0.1"/>
      <path id="Path_16736" data-name="Path 16736" d="M629.414,176.989,639.822,203.2s-37.826.8-49.464.68c0,0-7.348-42.51,4.345-56.794,5.833-7.137,10.922-6.733,15.873-2.278,1.249,1.13,17.783,13.714,19.694,20.741a18.012,18.012,0,0,1-.854,11.445Z" transform="translate(-561.096 -105.25)" fill="#407bff"/>
      <path id="Path_16737" data-name="Path 16737" d="M622.843,178.72a48.157,48.157,0,0,0-7.036,1.212c-1.148.312-2.269.661-3.389,1.047-.56.184-1.121.358-1.69.524a7.614,7.614,0,0,1-1.837.358v.083a11.078,11.078,0,0,0,1.745,0,11.693,11.693,0,0,0,1.672-.331c1.157-.294,2.315-.643,3.472-.919,2.342-.625,4.685-1.249,7.073-1.7C622.99,178.894,622.962,178.7,622.843,178.72Z" transform="translate(-562.791 -108.276)" fill="#263238"/>
      <path id="Path_16738" data-name="Path 16738" d="M629.447,180.979a50.4,50.4,0,0,0-5.888-.23,26.182,26.182,0,0,0-2.939.2c-.469.046-.919.1-1.4.165s-1.02.211-1.534.276v.083c.487-.046.983,0,1.47,0l1.47-.046c.983,0,1.966-.055,2.939-.1,1.966-.083,3.922-.147,5.888-.156a.1.1,0,0,0-.009-.193Z" transform="translate(-563.508 -108.441)" fill="#263238"/>
      <path id="Path_16739" data-name="Path 16739" d="M591.7,145.746c-16.883,11.519-34.9,34.9-32.838,41.647,2.351,7.5,26.638-8.827,26.224-9.948-.349-.919,4.032-9.9,10.306-22.725C601.78,141.676,595.883,142.9,591.7,145.746Z" transform="translate(-558.703 -105.439)" fill="#407bff"/>
      <path id="Path_16740" data-name="Path 16740" d="M589.956,168.963c-1.92,4.023-3.3,7.045-3.895,8.735a132.188,132.188,0,0,1-19.161-5.1c1.837-2.526,3.968-5.153,6.274-7.771a105.953,105.953,0,0,0,16.782,4.133Z" transform="translate(-559.371 -107.145)" fill="#ebebeb"/>
      <path id="Path_16741" data-name="Path 16741" d="M558.871,190.307c2.278,5.162,10.738,7.716,31.433,16.157,2.866,1.167,16.534-16.828,13.549-18.233-3.766-1.764-18.784-7.817-19.942-8.12C574.174,177.557,557.319,186.816,558.871,190.307Z" transform="translate(-558.709 -108.354)" fill="#ffc4c0"/>
      <path id="Path_16742" data-name="Path 16742" d="M601.767,187s8.855,3.169,12.988,6.274a33.251,33.251,0,0,1,9.737,12.557c2.379,5.291,4.455,19.73.4,21.062-3.674,1.194-5.052-13.677-5.052-13.677s3.9,14.926-.781,15.56-5.3-16.718-5.3-16.718,3.674,15.432-1.268,15.312c-3.674-.083-5.171-15.762-5.171-15.762s3.068,13.273-.772,13.356c-4.244.083-6.485-14.311-6.485-14.311-9.792-1.442-13.861-6.136-16.359-9.819C583.1,199.942,601.767,187,601.767,187Z" transform="translate(-560.739 -108.951)" fill="#ffc4c0"/>
      <path id="Path_16743" data-name="Path 16743" d="M621.936,209.828c.514,1.736,1.056,3.49,1.424,5.272s.67,3.564.919,5.364a31.575,31.575,0,0,1,.11,7.091,66.643,66.643,0,0,0-1.47-12.373c-.367-1.773-.643-3.573-1.01-5.346C621.853,209.791,621.917,209.791,621.936,209.828Z" transform="translate(-563.85 -110.808)" fill="#263238"/>
      <path id="Path_16744" data-name="Path 16744" d="M614.915,211.139c.579,2.25,1.222,4.455,1.7,6.733s.716,4.446,1.029,6.733c0,.175-.083.129-.11-.046-.4-2.269-.919-4.345-1.387-6.614s-.772-4.593-1.286-6.8C614.851,211.12,614.906,211.111,614.915,211.139Z" transform="translate(-563.277 -110.915)" fill="#263238"/>
      <path id="Path_16745" data-name="Path 16745" d="M608.692,211.187a51.9,51.9,0,0,1,1.837,10.49c0,.175-.11.1-.138-.083-.533-3.49-.919-6.246-1.782-10.37C608.563,211.159,608.673,211.113,608.692,211.187Z" transform="translate(-562.767 -110.918)" fill="#263238"/>
      <path id="Path_16746" data-name="Path 16746" d="M603.94,186.33s-20.015,19.785-20.263,19.73-23.708-10.04-24.8-15.753,16.405-12.345,25.021-10.233S603.94,186.33,603.94,186.33Z" transform="translate(-558.713 -108.354)" fill="#407bff"/>
      <path id="Path_16747" data-name="Path 16747" d="M597.944,185.309c-.8.634-7.082,7.192-8.414,8.644s-6.843,7.348-8.092,8.956c-.055.073,0,.165.1.1,1.525-1.35,7.1-7.275,8.487-8.726s7.459-8.074,8.028-8.892C598.1,185.327,598,185.272,597.944,185.309Z" transform="translate(-560.553 -108.812)" fill="#263238"/>
      <path id="Path_16748" data-name="Path 16748" d="M575.239,180.491c1.837-.551,7.054-1.663,11.583-.083.055,0,0,.083,0,.073a35.4,35.4,0,0,0-11.546.074S575.193,180.5,575.239,180.491Z" transform="translate(-560.049 -108.347)" fill="#263238"/>
      <path id="Path_16749" data-name="Path 16749" d="M605,185.877l1.185-1.268v.11L601.5,183.1c-1.571-.533-3.132-1.047-4.712-1.543-3.132-1.029-6.292-1.984-9.489-2.8l-.367-.1.138-.349c1.3-3.307,2.645-6.568,4.143-9.783a103.918,103.918,0,0,1,4.969-9.406c-1.58,3.169-3.05,6.375-4.437,9.617s-2.756,6.5-3.977,9.81l-.239-.45c3.206.845,6.365,1.837,9.5,2.921,1.562.551,3.114,1.13,4.657,1.718s3.077,1.222,4.593,1.837l.092.046-.083.11Z" transform="translate(-561.002 -106.68)" fill="#263238"/>
      <path id="Path_16750" data-name="Path 16750" d="M593.05,166.533a18.509,18.509,0,0,1,1.451-2.2,14.2,14.2,0,0,1,1.782-1.938,13.607,13.607,0,0,1-1.415,2.223c-.276.34-.551.68-.854,1A6.969,6.969,0,0,1,593.05,166.533Z" transform="translate(-561.501 -106.947)" fill="#263238"/>
      <path id="Path_16751" data-name="Path 16751" d="M599.654,145.823c.4.845,5.961,5.75,10.031,4.666,1.323-.349-.294-7.67-.294-7.67v-.56l.055-7.936-10.1-3.784-1.451-.468s.129,2.168.312,4.868v.827a6.209,6.209,0,0,0,.083,1.231c.083.413,0,.615.083.919a5.558,5.558,0,0,1,.092.974A51.443,51.443,0,0,0,599.654,145.823Z" transform="translate(-561.895 -104.313)" fill="#ffc4c0"/>
      <path id="Path_16752" data-name="Path 16752" d="M609.4,142.359a16.387,16.387,0,0,1-11.022-5.236.608.608,0,0,0,0-.129c0-.413-.055-.827-.083-1.231v-.827c-.184-2.7-.321-4.877-.321-4.877l1.451.478,10.1,3.784-.055,7.927Z" transform="translate(-561.902 -104.313)" fill="#263238"/>
      <path id="Path_16753" data-name="Path 16753" d="M617.708,120.941c1.065,13.888-7.137,16.093-10.1,16.323-2.756.2-12.005.551-14.495-13.154s3.674-18.591,9.828-19.391S616.652,107.044,617.708,120.941Z" transform="translate(-561.46 -102.239)" fill="#ffc4c0"/>
      <path id="Path_16754" data-name="Path 16754" d="M616.486,118.659a5.51,5.51,0,0,1-.919-.138,1.516,1.516,0,0,1-.919-.331.5.5,0,0,1-.046-.606,1.231,1.231,0,0,1,1.2-.367,1.837,1.837,0,0,1,1.185.56.533.533,0,0,1-.505.882Z" transform="translate(-563.25 -103.264)" fill="#263238"/>
      <path id="Path_16755" data-name="Path 16755" d="M606.526,120.38a6.8,6.8,0,0,0,.919-.239,1.525,1.525,0,0,0,.919-.423.5.5,0,0,0,0-.606,1.258,1.258,0,0,0-1.24-.248,1.837,1.837,0,0,0-1.112.689.533.533,0,0,0,.514.827Z" transform="translate(-562.549 -103.395)" fill="#263238"/>
      <path id="Path_16756" data-name="Path 16756" d="M609.012,123.22s-.073.055-.073.092c.092.919,0,2.058-.808,2.425v.055C609.186,125.581,609.251,124.111,609.012,123.22Z" transform="translate(-562.729 -103.756)" fill="#263238"/>
      <path id="Path_16757" data-name="Path 16757" d="M607.99,122.19c-1.543,0-1.47,3.068,0,3.086S609.285,122.208,607.99,122.19Z" transform="translate(-562.626 -103.672)" fill="#263238"/>
      <path id="Path_16758" data-name="Path 16758" d="M607.269,122.387c-.257.184-.514.5-.845.533s-.661-.266-.919-.57h-.055c0,.588.248,1.185.919,1.258s.983-.459,1.111-1.066C607.48,122.469,607.379,122.313,607.269,122.387Z" transform="translate(-562.511 -103.685)" fill="#263238"/>
      <path id="Path_16759" data-name="Path 16759" d="M615.1,122.48a.081.081,0,0,1,.083.083c0,.919.184,2.048,1.065,2.333h0C615.172,124.841,615.006,123.389,615.1,122.48Z" transform="translate(-563.295 -103.695)" fill="#263238"/>
      <path id="Path_16760" data-name="Path 16760" d="M615.925,121.349c1.525-.184,1.782,2.893.367,3.068S614.63,121.505,615.925,121.349Z" transform="translate(-563.295 -103.603)" fill="#263238"/>
      <path id="Path_16761" data-name="Path 16761" d="M616.687,121.495c.257.138.524.413.818.413s.56-.358.744-.7h.055c.064.588-.083,1.212-.634,1.378s-.919-.331-1.121-.919C616.512,121.6,616.586,121.43,616.687,121.495Z" transform="translate(-563.414 -103.592)" fill="#263238"/>
      <path id="Path_16762" data-name="Path 16762" d="M608.989,131.338c.22.23.45.542.79.579a2.7,2.7,0,0,0,1.038-.22v.046a1.286,1.286,0,0,1-1.222.5,1,1,0,0,1-.735-.863C608.888,131.32,608.989,131.3,608.989,131.338Z" transform="translate(-562.789 -104.415)" fill="#263238"/>
      <path id="Path_16763" data-name="Path 16763" d="M613.4,126.4a21.046,21.046,0,0,1,.266,2.1,3.674,3.674,0,0,1-3.582-.964c-.055-.055,0-.138.1-.1a4.8,4.8,0,0,0,2.967.735c0-.184-.514-2.425-.4-2.434a5.935,5.935,0,0,1,1.552.285c-.441-2.985-1.35-5.879-1.736-8.864a.092.092,0,0,1,.175,0,49.388,49.388,0,0,1,2.278,9.47C615.085,126.965,613.68,126.515,613.4,126.4Z" transform="translate(-562.887 -103.257)" fill="#263238"/>
      <path id="Path_16764" data-name="Path 16764" d="M593.7,125.462c2.664.257,3.16-5.833,3.16-5.833s11.234-2.26,11.941-11.491a15.551,15.551,0,0,0,8.111,8.267s-.7-10.1-8.754-11.785c0,0-10.031-3.307-15.367,4.74S591.95,125.3,593.7,125.462Z" transform="translate(-561.273 -102.186)" fill="#263238"/>
      <path id="Path_16765" data-name="Path 16765" d="M609.611,107.77a9.967,9.967,0,0,1-.377,4.216,10.307,10.307,0,0,1-2.021,3.775,8.509,8.509,0,0,1-.735.79l-.377.386-.423.331c-.294.22-.57.45-.863.652s-.615.358-.919.533a4.645,4.645,0,0,1-.468.257l-.487.211-.983.413c-.68.211-1.359.386-2.039.551.634-.3,1.3-.533,1.92-.845l.919-.478.459-.239.432-.294.854-.57c.276-.211.533-.441.79-.652l.4-.331.358-.367a8.786,8.786,0,0,0,.689-.753,11.939,11.939,0,0,0,2.048-3.527,12.251,12.251,0,0,0,.57-1.984,12.959,12.959,0,0,0,.257-2.076Z" transform="translate(-562.06 -102.497)" fill="#263238"/>
      <path id="Path_16766" data-name="Path 16766" d="M595.11,126.511s-2.994-4.381-4.979-3.316.239,7.348,2.544,8.267a2.361,2.361,0,0,0,3.169-1.231Z" transform="translate(-561.201 -103.74)" fill="#ffc4c0"/>
      <path id="Path_16767" data-name="Path 16767" d="M590.938,125.17s-.046,0,0,.055a6,6,0,0,1,3.04,3.757,1.314,1.314,0,0,0-1.947-.377.055.055,0,0,0,0,.092,1.433,1.433,0,0,1,1.589.524,7.224,7.224,0,0,1,.753,1.3c.074.147.331.073.285-.092h0C594.741,128.311,593.161,125.4,590.938,125.17Z" transform="translate(-561.327 -103.914)" fill="#263238"/>
    </g>
    <g id="freepik--character-2--inject-2" transform="translate(286.368 201.89)">
      <path id="Path_16768" data-name="Path 16768" d="M433.136,443.629c1.929-.8,44.632-38.009,45.367-40.416.276-.919-4.776-7.468-11.114-15.193-1.359-1.663-2.756-3.38-4.244-5.116-9.424-11.252-19.694-22.964-19.694-22.964l-28.631,24.8L435.3,407.052l4.483,4.841s-9.975,21.586-10.49,24.341S431.216,444.428,433.136,443.629Z" transform="translate(-316.336 -226.484)" fill="#eb9481"/>
      <path id="Path_16769" data-name="Path 16769" d="M434.413,445.665c1.929-.8,44.632-38.009,45.367-40.416.34-1.139-7.2-10.545-15.358-20.309l-27.841,24.13,4.483,4.859s-9.975,21.586-10.49,24.341S432.494,446.464,434.413,445.665Z" transform="translate(-317.614 -228.52)" fill="#fff"/>
      <path id="Path_16770" data-name="Path 16770" d="M434.413,446.119c1.929-.8,44.632-38.009,45.367-40.416.276-.919-4.776-7.468-11.114-15.193L441.11,414.392s-10.021,21.577-10.536,24.332S432.494,446.918,434.413,446.119Z" transform="translate(-317.614 -228.974)" fill="#37474f"/>
      <path id="Path_16771" data-name="Path 16771" d="M433.8,445.29c7.009-6.43,35.823-31.616,43.273-37.422.064-.055.1,0,.046.046-6.806,6.5-35.869,31.469-43.218,37.5C433.748,445.528,433.656,445.418,433.8,445.29Z" transform="translate(-317.876 -230.386)" fill="#263238"/>
      <path id="Path_16772" data-name="Path 16772" d="M432.118,438.532a7.615,7.615,0,0,1,5.805-1.984,7.4,7.4,0,0,1,4.923,2.425c0,.046,0,.119-.083.083a8.8,8.8,0,0,0-10.573-.432.059.059,0,0,1-.073-.092Z" transform="translate(-317.743 -232.722)" fill="#263238"/>
      <path id="Path_16773" data-name="Path 16773" d="M439.657,419.57c2.829-2.535,7.036-4.418,10.857-3.674.147,0,.1.239,0,.276a52.282,52.282,0,0,0-10.572,3.748.239.239,0,0,1-.285-.349Z" transform="translate(-318.356 -231.028)" fill="#263238"/>
      <path id="Path_16774" data-name="Path 16774" d="M438.061,422.662c2.829-2.535,7.036-4.418,10.857-3.628.147,0,.1.239,0,.266a52.881,52.881,0,0,0-10.572,3.757.243.243,0,0,1-.285-.395Z" transform="translate(-318.221 -231.282)" fill="#263238"/>
      <path id="Path_16775" data-name="Path 16775" d="M436.477,425.66c2.829-2.535,7.036-4.418,10.857-3.674.147,0,.1.248,0,.276a52.844,52.844,0,0,0-10.572,3.748.239.239,0,0,1-.285-.349Z" transform="translate(-318.097 -231.524)" fill="#263238"/>
      <path id="Path_16776" data-name="Path 16776" d="M434.881,428.662c2.829-2.535,7.036-4.418,10.857-3.628.147,0,.1.239,0,.276a52.282,52.282,0,0,0-10.572,3.748.243.243,0,0,1-.285-.395Z" transform="translate(-317.962 -231.771)" fill="#263238"/>
      <path id="Path_16777" data-name="Path 16777" d="M472.39,402.119c3.224-2.756,7.569,2.214,4.336,5.015S469.184,404.92,472.39,402.119Z" transform="translate(-320.933 -229.854)" fill="#fff"/>
      <path id="Path_16778" data-name="Path 16778" d="M432.92,418.3c3.279.643,6.733-.147,10-.514a.459.459,0,0,0,.312-.68.11.11,0,0,0,0-.165,19.951,19.951,0,0,0-8.983-5.052c-1.984-.468-4.841-.055-5.236,2.407S431,417.92,432.92,418.3Zm-2.2-2.26c-2.425-3.362,2.471-3.417,3.913-3.013a20.857,20.857,0,0,1,2.756,1.02,58.878,58.878,0,0,1,5.309,2.838c-1.617.083-3.215.3-4.822.441C435.933,417.488,432.057,417.892,430.715,416.037Z" transform="translate(-317.489 -230.701)" fill="#263238"/>
      <path id="Path_16779" data-name="Path 16779" d="M453.022,405.694c-1.837-1.672-4.336-.22-5.594,1.387a19.961,19.961,0,0,0-3.858,9.562.092.092,0,0,0,.11.11c.073.276.386.524.671.34,2.756-1.754,5.971-3.288,8.138-5.842C453.747,409.754,454.776,407.283,453.022,405.694Zm-5,7.872c-1.35.919-2.756,1.727-4.042,2.673a58.8,58.8,0,0,1,2.379-5.511,21.325,21.325,0,0,1,1.488-2.5c.919-1.222,4.74-4.234,4.942-.092.119,2.26-3.16,4.363-4.767,5.429Z" transform="translate(-318.678 -230.15)" fill="#263238"/>
      <path id="Path_16780" data-name="Path 16780" d="M380.1,336.51c2.682,15.312,42.52,58.144,47.121,63.058l1.056,1.121,30.358-25.453-.377-.459-29.182-35.015,82.43-3.987-32.324-23.028s-2.471,1.571-7.789,1.02c-18.307-1.883-59.586-6.044-69.24-5.236C389.682,309.569,377.64,322.438,380.1,336.51Z" transform="translate(-313.482 -222.288)" fill="#234192"/>
      <path id="Path_16781" data-name="Path 16781" d="M421.99,328.325a35.7,35.7,0,0,1,3,3.536c1.038,1.24,2.085,2.462,3.114,3.674h0l-.569-1.1c-.671-1.249-1.222-2.544-2-3.729-.046-.073.064-.147.11-.073.808,1.176,1.718,2.287,2.416,3.536.331.588.643,1.185.919,1.791.165.331.331.661.468,1a2.58,2.58,0,0,1,.2.487c.468.569.919,1.148,1.369,1.745.983,1.3,1.837,2.691,2.866,4,.055.064-.055.138-.11.073-1.01-1.222-2.122-2.342-3.151-3.555s-2.03-2.489-3.013-3.766-1.892-2.508-2.848-3.757a37.656,37.656,0,0,1-2.884-3.858.055.055,0,1,1,.11,0Z" transform="translate(-316.911 -223.904)" fill="#37474f"/>
      <path id="Path_16782" data-name="Path 16782" d="M427.658,399.131c1.727-1.6,3.582-3.077,5.4-4.593s3.674-2.976,5.511-4.455c3.674-2.958,7.348-5.934,11.087-8.836,2.048-1.589,4.115-3.169,6.246-4.648a.1.1,0,0,1,.119.156c-3.49,3.178-7.22,6.09-10.9,9.029s-7.394,5.9-11.133,8.79c-2.048,1.589-4.078,3.224-6.219,4.675C427.676,399.333,427.584,399.2,427.658,399.131Z" transform="translate(-317.38 -227.84)" fill="#37474f"/>
      <path id="Path_16783" data-name="Path 16783" d="M490.372,262.636c-4.519,8.7-20.64,33.068-33.417,37.8-7.045,2.6-43.107,9.13-48.481,5.383-6.292-4.391-4.593-24.1-.129-24.856,13.585-2.315,39.231.064,45.367-2.149,2.756-1,16.635-12.731,31.782-22.642C491.208,252.422,493.266,257.024,490.372,262.636Z" transform="translate(-315.484 -217.921)" fill="#eb9481"/>
      <path id="Path_16784" data-name="Path 16784" d="M422.83,279s.184,29.779,1.589,29.348,32.039-4.4,39.736-8.8S483.987,277.44,491,265.775s.331-14.155-7.091-8.267-28.245,19.841-29.586,19.969S422.83,279,422.83,279Z" transform="translate(-316.989 -217.89)" fill="#455a64"/>
      <path id="Path_16785" data-name="Path 16785" d="M429.009,307.408c.156-4.023.248-8.037.175-12.061-.046-2.012-.11-4.014-.211-6.016s-.4-4-.478-6.007c0-.11-.184-.092-.175,0,.175,1.993.083,4.023.156,6.026s.119,4.014.165,6.026c.092,4,.193,8.019.193,12.033C428.834,307.536,429,307.518,429.009,307.408Z" transform="translate(-317.436 -220.237)" fill="#263238"/>
      <path id="Path_16786" data-name="Path 16786" d="M470.16,298.063c7.67-6.035,18.316-21.668,24.7-32.287,5.006-8.267,3.04-11.941-1.194-11.243Z" transform="translate(-320.844 -217.891)" fill="#37474f"/>
      <rect id="Rectangle_4022" data-name="Rectangle 4022" width="53.074" height="2.379" transform="translate(107.155 88.861)" fill="#c7c7c7"/>
      <path id="Path_16787" data-name="Path 16787" d="M465.97,311.39l1.819,2.379H424.25V311.39Z" transform="translate(-317.104 -222.529)" fill="#a6a6a6"/>
      <path id="Path_16788" data-name="Path 16788" d="M462.231,310.864H410.508L406.2,275.73h51.723Z" transform="translate(-315.634 -219.625)" fill="#c7c7c7"/>
      <path id="Path_16789" data-name="Path 16789" d="M439.571,294.571a3.086,3.086,0,0,1-3.1,3.151,3.224,3.224,0,0,1-3.206-3.151,3.086,3.086,0,0,1,3.1-3.141,3.224,3.224,0,0,1,3.206,3.141Z" transform="translate(-317.839 -220.903)" fill="#fff"/>
      <path id="Path_16790" data-name="Path 16790" d="M405.81,279.43c-1.947,3.013-6.76,6.531-7.422,9.112a3.04,3.04,0,0,0,1.258,3.417s-2.756.964-3,3.408c-.11,1.258,1.837,2.535,1.837,2.535a3.674,3.674,0,0,0-2.26,3.05c-.046,1.736,1.837,2.756,1.837,2.756s-1.727,1.837-1.2,3.61c1.065,3.619,15.872,5.576,18.876.423,1.405-2.4-2.241-2.682-2.241-2.682s5.337-.863,5.814-3.9-4.271-3.123-4.271-3.123,5.162-.873,5.346-4.078-4.593-2.6-4.593-2.6,3.592-1.837,3.169-4.28c-.7-4.106-9.185.257-12.3-.919Z" transform="translate(-314.821 -219.926)" fill="#eb9481"/>
      <path id="Path_16791" data-name="Path 16791" d="M398.526,306.09c-.055,0-.073.055,0,.073a25.894,25.894,0,0,0,15.376,1.1c.156,0,.156-.322,0-.3a53.276,53.276,0,0,1-15.376-.873Z" transform="translate(-315.005 -222.098)" fill="#263238"/>
      <path id="Path_16792" data-name="Path 16792" d="M398.557,299.56a.055.055,0,0,0,0,.1,24.222,24.222,0,0,0,16.846.165c.193-.073.285-.322.064-.257C411.674,300.726,403.269,300.6,398.557,299.56Z" transform="translate(-315.009 -221.566)" fill="#263238"/>
      <path id="Path_16793" data-name="Path 16793" d="M416.468,292.1c-5.355,1.837-10.765,1.837-16.313.983-.073,0-.083.092,0,.119,2.6,1.148,6.191,1.314,9,1.2a14.972,14.972,0,0,0,7.385-2.122C416.615,292.228,416.542,292.063,416.468,292.1Z" transform="translate(-315.137 -220.958)" fill="#263238"/>
      <path id="Path_16794" data-name="Path 16794" d="M476.555,319.455s59.292,9,59.586,8.625-8.432-63.9-28.778-74.072c-3.224-1.617-10.912-2.388-14.081,1.047C484.253,264.847,475.756,318.619,476.555,319.455Z" transform="translate(-321.36 -217.744)" fill="#455a64"/>
      <path id="Path_16795" data-name="Path 16795" d="M477.06,319.086l58.364,8.193c-.266-1.745-.625-3.83-1.056-6.173l-56.445-7.927C477.584,315.421,477.29,317.415,477.06,319.086Z" transform="translate(-321.406 -222.675)" fill="#37474f"/>
      <path id="Path_16796" data-name="Path 16796" d="M478.61,309.5l55.26,7.771c-.2-1.038-.413-2.113-.652-3.215l-54.075-7.6C478.968,307.5,478.775,308.518,478.61,309.5Z" transform="translate(-321.532 -222.128)" fill="#37474f"/>
      <path id="Path_16797" data-name="Path 16797" d="M496.663,265.616c3.288.138,7.771-5.7,9.185-10.012.092-.294-.854-3.031-1.837-6.43-.6-2.058-1.212-4.354-1.626-6.494l-12.8,5.833a34.981,34.981,0,0,1,2.875,7.973,5.065,5.065,0,0,1,.073.919.841.841,0,0,0,0,.147C492.548,259.269,493.485,265.478,496.663,265.616Z" transform="translate(-322.426 -216.933)" fill="#eb9481"/>
      <path id="Path_16798" data-name="Path 16798" d="M489.53,248.55a34.509,34.509,0,0,1,2.875,7.973,4.356,4.356,0,0,1,.083.919.844.844,0,0,0,0,.147,6.687,6.687,0,0,0,1.4-.193c7.771-1.672,8.12-11.767,8.074-14.485Z" transform="translate(-322.421 -216.951)" fill="#263238"/>
      <path id="Path_16799" data-name="Path 16799" d="M500.2,223.292c2.37,4.483,2.526,18.711-.266,22.431-4.042,5.4-12,7.348-16.91,2.214-4.767-5.006-4.639-23.561-1.4-27.079C486.373,215.677,496.688,216.678,500.2,223.292Z" transform="translate(-321.588 -214.886)" fill="#eb9481"/>
      <path id="Path_16800" data-name="Path 16800" d="M488.893,236s.073.046.064.083c0,.919.083,2.048.919,2.37v.055C488.838,238.388,488.7,236.919,488.893,236Z" transform="translate(-322.364 -216.389)" fill="#263238"/>
      <path id="Path_16801" data-name="Path 16801" d="M489.749,235c1.534-.1,1.626,2.967.2,3.059S488.463,235.055,489.749,235Z" transform="translate(-322.365 -216.307)" fill="#263238"/>
      <path id="Path_16802" data-name="Path 16802" d="M482.722,236.2s-.073.046-.073.092c.064.919,0,2.048-.919,2.388v.055C482.823,238.551,482.9,237.091,482.722,236.2Z" transform="translate(-321.786 -216.405)" fill="#263238"/>
      <path id="Path_16803" data-name="Path 16803" d="M481.745,235.15c-1.534-.073-1.562,3-.138,3.068S483.031,235.205,481.745,235.15Z" transform="translate(-321.691 -216.319)" fill="#263238"/>
      <path id="Path_16804" data-name="Path 16804" d="M490.893,233.21a10.8,10.8,0,0,1-1.2-.386,2.058,2.058,0,0,1-1.148-.625.652.652,0,0,1,.083-.79,1.589,1.589,0,0,1,1.617-.211,2.379,2.379,0,0,1,1.4.983.7.7,0,0,1-.744,1.029Z" transform="translate(-322.333 -215.987)" fill="#263238"/>
      <path id="Path_16805" data-name="Path 16805" d="M480.436,233.313c.423-.083.8-.23,1.212-.349a1.993,1.993,0,0,0,1.167-.6.652.652,0,0,0-.055-.79,1.617,1.617,0,0,0-1.617-.257,2.379,2.379,0,0,0-1.424.919.7.7,0,0,0,.716,1.075Z" transform="translate(-321.613 -215.998)" fill="#263238"/>
      <path id="Path_16806" data-name="Path 16806" d="M490.106,245.158c-.174.266-.331.615-.661.726a2.517,2.517,0,0,1-1.047,0s-.055,0,0,.055a1.286,1.286,0,0,0,1.3.239,1,1,0,0,0,.542-.992C490.207,245.121,490.125,245.121,490.106,245.158Z" transform="translate(-322.327 -217.132)" fill="#263238"/>
      <path id="Path_16807" data-name="Path 16807" d="M488.38,241.32a3.279,3.279,0,0,1-2.122,1.506,4.143,4.143,0,0,1-1.167.083,3.444,3.444,0,0,1-.432,0,.248.248,0,0,1-.2-.2h0v-2.039c-.266.147-1.617.8-1.607.413a49.441,49.441,0,0,1,.974-9.847c0-.1.184-.083.175,0,0,3.059-.478,6.1-.505,9.185a5.76,5.76,0,0,1,1.516-.505c.064,0-.064,2.5-.055,2.517a4.51,4.51,0,0,0,3.325-1.139C488.352,241.182,488.435,241.246,488.38,241.32Z" transform="translate(-321.877 -215.995)" fill="#263238"/>
      <path id="Path_16808" data-name="Path 16808" d="M485.61,243.644a4.042,4.042,0,0,0,1.708,1.121,1.837,1.837,0,0,0,1.111,0c.781-.276.744-1.01.542-1.626a4.18,4.18,0,0,0-.432-.919,5.19,5.19,0,0,1-2.93,1.424Z" transform="translate(-322.102 -216.895)" fill="#263238"/>
      <path id="Path_16809" data-name="Path 16809" d="M487.47,244.856a1.837,1.837,0,0,0,1.111,0c.781-.276.744-1.01.542-1.626a1.892,1.892,0,0,0-1.653,1.626Z" transform="translate(-322.254 -216.977)" fill="#ff9cbd"/>
      <path id="Path_16810" data-name="Path 16810" d="M479.77,226.063c.478-1.277,1.047-2.554,1.782-2.838s1.314,1.525,3.031,1.562c2.306.046,3.325-2.122,6.54-2.489,4.593-.533,6.825,3.233,7.238,9.8.377,5.86,3.941,6.246,3.941,6.246s1.562-13.053-2.287-17.149-12.3-5.622-17.728-1.277C480.312,221.507,479.77,226.063,479.77,226.063Z" transform="translate(-321.626 -214.866)" fill="#263238"/>
      <path id="Path_16811" data-name="Path 16811" d="M500.781,237.257s2.351-5,4.593-4.244.992,7.642-1.231,8.937a2.452,2.452,0,0,1-3.463-.744Z" transform="translate(-323.33 -216.139)" fill="#eb9481"/>
      <path id="Path_16812" data-name="Path 16812" d="M505.059,235.16s.055.046,0,.064a6.182,6.182,0,0,0-2.489,4.363,1.35,1.35,0,0,1,1.929-.707.055.055,0,0,1,0,.1,1.516,1.516,0,0,0-1.552.8,7.345,7.345,0,0,0-.551,1.46c-.055.156-.331.129-.3-.055h0C501.679,239.027,502.809,235.766,505.059,235.16Z" transform="translate(-323.438 -216.32)" fill="#263238"/>
      <path id="Path_16813" data-name="Path 16813" d="M486.56,217.35a20.768,20.768,0,0,1,5.585-2.315c2.2-.505,9.287-.689,11.124.551s2.958,7.817,3.1,8.781.312,6.871-1.672,8.506-3.2-8.267-6.889-11.261S486.56,217.35,486.56,217.35Z" transform="translate(-322.18 -214.649)" fill="#a6a6a6"/>
      <path id="Path_16814" data-name="Path 16814" d="M486.56,217.44s7.56,1.3,11.252,4.262,4.914,12.86,6.9,11.261a4.683,4.683,0,0,0,1.451-3.288c-.744-2.866-2.388-7.257-5.135-10.1-2.572-2.7-6.632-3.775-10.857-3.821a23.624,23.624,0,0,0-3.61,1.69Z" transform="translate(-322.18 -214.739)" opacity="0.1"/>
      <path id="Path_16815" data-name="Path 16815" d="M504.219,239.016c-.459-2.636-3.885-9.461-7.137-13.245s-11.812-5.3-12.97-5.116c-2.8.45-3.288,1.837-3.757,1.663s2.021-3.674,2.756-4.262a9.085,9.085,0,0,1,3.8-1.378c1.231-.1,8.882-.129,11.941,2.82s7.909,11.592,7.431,13.98c-.11.579-.818,1.01-.964,1.837-.211,1.066-.3,2.287-.542,3.04C504.614,238.943,504.265,239.237,504.219,239.016Z" transform="translate(-321.669 -214.812)" fill="#a6a6a6"/>
      <path id="Path_16816" data-name="Path 16816" d="M497.658,224.361a14.158,14.158,0,0,0,1.7-1.534,10.418,10.418,0,0,0,1.4-1.837h.083a7.532,7.532,0,0,1-1.24,2.03,6.2,6.2,0,0,1-1.837,1.442C497.658,224.526,497.593,224.407,497.658,224.361Z" transform="translate(-323.081 -215.166)" fill="#263238"/>
      <path id="Path_16817" data-name="Path 16817" d="M506.08,237.686a5.053,5.053,0,0,1,.23-.579,3.378,3.378,0,0,0,.184-.68,5.775,5.775,0,0,1,.165-1.314,4.592,4.592,0,0,1,.533-.919,1.837,1.837,0,0,0,.413-1.139.041.041,0,1,1,.083,0,4.455,4.455,0,0,1-.68,2.149,8.9,8.9,0,0,0-.22,1.415,2.03,2.03,0,0,1-.588,1.176S506.052,237.759,506.08,237.686Z" transform="translate(-323.769 -216.145)" fill="#263238"/>
      <path id="Path_16818" data-name="Path 16818" d="M504.76,234.692c.22-.331.459-.625.652-.974a9.017,9.017,0,0,0,.468-1.056c.129-.349.239-.716.358-1.075s.349-.827.478-1.249c0-.055.1,0,.083,0-.129.45-.193.919-.3,1.359a9.812,9.812,0,0,1-.395,1.139,5.968,5.968,0,0,1-.533,1.02,3.087,3.087,0,0,1-.772.845S504.741,234.719,504.76,234.692Z" transform="translate(-323.662 -215.925)" fill="#263238"/>
      <path id="Path_16819" data-name="Path 16819" d="M503.42,232.029a7.642,7.642,0,0,0,1.277-1.773c.321-.643.606-1.3.919-1.957h.083a9.451,9.451,0,0,1-.707,2.1,4.972,4.972,0,0,1-.588.919,5.07,5.07,0,0,1-.919.762.046.046,0,0,1-.064-.055Z" transform="translate(-323.553 -215.761)" fill="#263238"/>
      <path id="Path_16820" data-name="Path 16820" d="M502,229.447a2.693,2.693,0,0,0,.625-.781c.2-.321.395-.652.579-.983s.349-.634.524-.919a2.582,2.582,0,0,0,.377-1.029.046.046,0,1,1,.092,0,2.692,2.692,0,0,1-.2,1.075,6.882,6.882,0,0,1-.5,1.093,8.071,8.071,0,0,1-.643,1,1.718,1.718,0,0,1-.8.671.07.07,0,1,1-.055-.129Z" transform="translate(-323.433 -215.549)" fill="#263238"/>
      <path id="Path_16821" data-name="Path 16821" d="M500.763,226.2c.22-.266.441-.533.643-.808a7.85,7.85,0,0,0,.56-.919c.184-.34.386-.615.551-.919h.083a6.831,6.831,0,0,1-.386,1.02,8.379,8.379,0,0,1-.551.919,8.162,8.162,0,0,1-.652.836,2.756,2.756,0,0,1-.8.7c-.046,0-.11,0-.083-.083a4.914,4.914,0,0,1,.634-.744Z" transform="translate(-323.284 -215.374)" fill="#263238"/>
      <path id="Path_16822" data-name="Path 16822" d="M495.279,222.926c.22-.349.45-.7.707-1.029a11.941,11.941,0,0,1,.854-.919,11.025,11.025,0,0,1,1.92-1.6s.092,0,.055.064c-1.139,1.2-2.333,2.361-3.472,3.573C495.307,223.027,495.242,222.981,495.279,222.926Z" transform="translate(-322.889 -215.035)" fill="#263238"/>
      <path id="Path_16823" data-name="Path 16823" d="M493.223,220.786a5.36,5.36,0,0,1,.818-.919,11.941,11.941,0,0,1,2.14-1.5c.055,0,.1,0,.055.064-.643.533-1.286,1.047-1.9,1.617a9.681,9.681,0,0,0-.863.873c-.276.312-.468.671-.726.992h-.055a3.186,3.186,0,0,1,.533-1.13Z" transform="translate(-322.679 -214.952)" fill="#263238"/>
      <path id="Path_16824" data-name="Path 16824" d="M490.693,219.859a6.43,6.43,0,0,1,2.572-2.269c.046,0,.083,0,0,.073a13.839,13.839,0,0,0-1.69,1.516c-.257.276-.505.56-.753.854a11.374,11.374,0,0,1-.726.919h-.046a6.855,6.855,0,0,1,.643-1.093Z" transform="translate(-322.464 -214.889)" fill="#263238"/>
      <path id="Path_16825" data-name="Path 16825" d="M488.785,218.68c.257-.257.524-.5.79-.735a3.407,3.407,0,0,1,.873-.615c.046,0,.073,0,0,.083-.5.487-.983.983-1.47,1.479a9.765,9.765,0,0,0-1.093,1.589h-.055A3.408,3.408,0,0,1,488.785,218.68Z" transform="translate(-322.283 -214.868)" fill="#263238"/>
      <path id="Path_16826" data-name="Path 16826" d="M486.562,218.446a5.7,5.7,0,0,1,1.663-1.286s.083.055,0,.073a6.8,6.8,0,0,0-1.479,1.378,9.086,9.086,0,0,0-1.111,1.708h-.064a4.647,4.647,0,0,1,.992-1.874Z" transform="translate(-322.099 -214.854)" fill="#263238"/>
      <path id="Path_16827" data-name="Path 16827" d="M483.932,219.926a3.671,3.671,0,0,1,.193-.432,4.408,4.408,0,0,1,.514-.781,9.367,9.367,0,0,1,1.387-1.314s.1,0,.055.074a7.352,7.352,0,0,0-1.286,1.332,5.162,5.162,0,0,0-.5.762c-.073.129-.138.266-.2.4a1.94,1.94,0,0,1-.184.395h-.073a1.34,1.34,0,0,1,.092-.441Z" transform="translate(-321.958 -214.873)" fill="#263238"/>
      <path id="Path_16828" data-name="Path 16828" d="M482.189,220.313a5.234,5.234,0,0,1,.432-.643,4.306,4.306,0,0,1,.5-.588c.184-.193.367-.377.542-.569s.11,0,.064.055a6.435,6.435,0,0,0-.505.615l-.441.606-.432.606c-.147.211-.276.441-.441.634h-.064a3.67,3.67,0,0,1,.349-.717Z" transform="translate(-321.795 -214.957)" fill="#263238"/>
      <path id="Path_16829" data-name="Path 16829" d="M492.221,260.966c0,2.691.184,8.91,4.363,8.267a8.947,8.947,0,0,0,4.372-2.526,23.711,23.711,0,0,0,3.334-3.84,35.323,35.323,0,0,0,3.022-4.85c0-.073.147,0,.11.064-.919,1.7-1.617,3.454-2.673,5.07a20.6,20.6,0,0,1-3.592,4.234,8.818,8.818,0,0,1-4.666,2.5,3.4,3.4,0,0,1-3.564-2.333A15.091,15.091,0,0,1,492.221,260.966Z" transform="translate(-322.633 -218.179)" fill="#263238"/>
      <path id="Path_16830" data-name="Path 16830" d="M514.209,268.174c4.023,22.817.138,39.9-3.738,42.014-10.435,5.7-35.483-5.851-42.556-8.147-2.857-.919,10.168-22.78,13.08-21.43,6.871,3.169,16.534,8.561,16.883,8.524.772-.083,1.681-5.906,5.667-22.872C506.768,252.513,512.564,258.842,514.209,268.174Z" transform="translate(-320.628 -218.205)" fill="#eb9481"/>
      <path id="Path_16831" data-name="Path 16831" d="M443.156,270.565c-.716,2.866,6.494,4.032,6.494,4.032a5.447,5.447,0,0,0-2.857,2.361c-1.047,1.984,1.6,4.5,1.6,4.5a6.733,6.733,0,0,0-2.618,2.967c-.808,2,1.506,4.923,1.506,4.923a5.833,5.833,0,0,0-.661,4.06c.919,3.674,6.522,5.125,9.838,6.715,3.546,1.7,9.424,2.324,12.088,3.518L480.1,282.515s-11.16-11.84-17.526-13.622C459.037,267.827,444.249,266.183,443.156,270.565Z" transform="translate(-318.64 -218.969)" fill="#eb9481"/>
      <path id="Path_16832" data-name="Path 16832" d="M450.312,275.14a49.133,49.133,0,0,1,11.941,1.405c.083,0,.055.156,0,.138-3.867-.845-8.056-.671-11.941-1.359a.092.092,0,0,1,0-.184Z" transform="translate(-319.22 -219.577)" fill="#263238"/>
      <path id="Path_16833" data-name="Path 16833" d="M449.037,282.39a10.454,10.454,0,0,1,2.7.5c.919.248,1.837.505,2.8.781q2.756.818,5.511,1.782c.083,0,.055.156,0,.138-1.837-.551-3.729-1.065-5.612-1.525-.919-.23-1.883-.459-2.829-.671a13,13,0,0,1-2.645-.744.138.138,0,0,1,.073-.257Z" transform="translate(-319.112 -220.167)" fill="#263238"/>
      <path id="Path_16834" data-name="Path 16834" d="M447.728,291.29a7.441,7.441,0,0,1,2.407.579l2.535.79c1.69.514,3.389,1.029,5.1,1.488a.064.064,0,0,1,0,.129c-1.736-.45-3.49-.919-5.227-1.35l-2.554-.707a6.714,6.714,0,0,1-2.26-.845.046.046,0,0,1,0-.083Z" transform="translate(-319.014 -220.892)" fill="#263238"/>
      <path id="Path_16835" data-name="Path 16835" d="M498.032,290.225c-2.866-1.332-5.686-2.756-8.524-4.115l-4.225-2.1L483.161,283a20.749,20.749,0,0,0-2.085-.919h-.11l-.046-.055c-1.837-1.837-3.674-3.6-5.576-5.383-.919-.919-1.911-1.745-2.884-2.59a26.373,26.373,0,0,0-3.05-2.379,22.329,22.329,0,0,1,3.3,2.048c1.029.79,2.021,1.617,3.013,2.462,1.975,1.681,3.849,3.481,5.713,5.282l-.165-.083a17.93,17.93,0,0,1,2.232.983l2.113,1.066,4.207,2.186C492.548,287.111,495.313,288.617,498.032,290.225Z" transform="translate(-320.783 -219.294)" fill="#263238"/>
      <path id="Path_16836" data-name="Path 16836" d="M483.206,280.059,470.64,305.778s33.986,13.879,40.5,6.347,6.283-32.737,3.233-46.534-9.764-7.1-11.271.514-4.29,22.165-4.969,21.99S483.206,280.059,483.206,280.059Z" transform="translate(-320.883 -218.148)" fill="#455a64"/>
      <path id="Path_16837" data-name="Path 16837" d="M487.369,287.134c-1.837,3.307-3.628,6.623-5.272,10.031-.827,1.7-1.617,3.417-2.388,5.135s-1.359,3.536-2.149,5.236a.083.083,0,1,0,.147.064c.7-1.745,1.644-3.408,2.443-5.116s1.6-3.417,2.416-5.125c1.626-3.4,3.252-6.806,4.96-10.168A.083.083,0,1,0,487.369,287.134Z" transform="translate(-321.445 -220.548)" fill="#263238"/>
      <path id="Path_16838" data-name="Path 16838" d="M483.76,283.086c.147-.367.276-.735.432-1.093v-.083h.092c1.837.845,3.674,1.773,5.511,2.682s3.619,1.892,5.41,2.875,3.573,1.984,5.328,3.04,3.509,2.1,5.217,3.242c-1.837-.818-3.674-1.718-5.511-2.636s-3.674-1.837-5.438-2.838-3.582-1.984-5.346-3-3.527-2.085-5.245-3.2l.129-.046A7.77,7.77,0,0,1,483.76,283.086Z" transform="translate(-321.951 -220.128)" fill="#263238"/>
      <path id="Path_16839" data-name="Path 16839" d="M504.364,273.31a54.315,54.315,0,0,1-1.157,8.193c-.294,1.35-.615,2.691-1.02,4.023a12.977,12.977,0,0,1-1.617,3.821,9.808,9.808,0,0,0,.533-1.975l.4-2.021c.248-1.35.533-2.691.808-4.032C502.894,278.628,503.509,275.955,504.364,273.31Z" transform="translate(-323.321 -219.428)" fill="#263238"/>
      <path id="Path_16840" data-name="Path 16840" d="M503.033,274.52c.083.79.11,1.562.175,2.324,0,.386.064.772.083,1.148s.092.772.138,1.167a4.767,4.767,0,0,1-.68-2.278,6.053,6.053,0,0,1,.285-2.361Z" transform="translate(-323.497 -219.526)" fill="#263238"/>
      <path id="Path_16841" data-name="Path 16841" d="M519.38,278.51a94.757,94.757,0,0,1,.6,9.681,88,88,0,0,1-.367,9.709,47.887,47.887,0,0,1-1.745,9.535,21.645,21.645,0,0,1-1.947,4.492,7.78,7.78,0,0,1-3.527,3.288,8.01,8.01,0,0,0,3.141-3.509,21.124,21.124,0,0,0,1.653-4.464,47.7,47.7,0,0,0,.919-4.694c.257-1.58.45-3.178.6-4.776.312-3.2.459-6.43.57-9.626.055-1.607.083-3.215.092-4.832S519.38,280.127,519.38,278.51Z" transform="translate(-324.283 -219.851)" fill="#263238"/>
      <path id="Path_16842" data-name="Path 16842" d="M520.765,280.73a4.427,4.427,0,0,1,.083,1.7,3.831,3.831,0,0,1-.588,1.607,12.33,12.33,0,0,1,.129-1.672A8.266,8.266,0,0,1,520.765,280.73Z" transform="translate(-324.925 -220.032)" fill="#263238"/>
      <path id="Path_16843" data-name="Path 16843" d="M307.683,400.359c.808,1.929,38.156,44.513,40.609,45.238.919.276,7.44-4.8,15.147-11.16,1.663-1.369,3.371-2.756,5.1-4.262,11.234-9.461,22.964-19.767,22.964-19.767L366.6,381.85l-22.238,20.557-4.887,4.51s-21.586-9.911-24.36-10.416S306.884,398.43,307.683,400.359Z" transform="translate(-307.603 -228.269)" fill="#eb9481"/>
      <path id="Path_16844" data-name="Path 16844" d="M307.683,401.652c.808,1.929,38.156,44.513,40.609,45.238,1.13.331,10.517-7.229,20.208-15.422L344.287,403.7l-4.887,4.51s-21.586-9.911-24.36-10.416S306.884,399.723,307.683,401.652Z" transform="translate(-307.603 -229.562)" fill="#fff"/>
      <path id="Path_16845" data-name="Path 16845" d="M307.683,401.649c.808,1.929,38.156,44.513,40.609,45.238.919.276,7.44-4.8,15.147-11.16l-24-27.556s-21.586-9.911-24.36-10.416S306.884,399.72,307.683,401.649Z" transform="translate(-307.603 -229.559)" fill="#37474f"/>
      <path id="Path_16846" data-name="Path 16846" d="M310.116,401c6.43,6.99,31.736,35.768,37.569,43.172.046.055,0,.092,0,0-6.531-6.788-31.6-35.768-37.66-43.1C309.877,401,310,400.876,310.116,401Z" transform="translate(-307.795 -229.824)" fill="#263238"/>
      <path id="Path_16847" data-name="Path 16847" d="M319.956,399.308a7.578,7.578,0,0,1,2,5.8,7.348,7.348,0,0,1-2.407,4.942c-.046,0-.119-.046-.073-.092a8.827,8.827,0,0,0,.395-10.572C319.846,399.327,319.956,399.253,319.956,399.308Z" transform="translate(-308.569 -229.689)" fill="#263238"/>
      <path id="Path_16848" data-name="Path 16848" d="M338.812,406.781c2.544,2.82,4.437,7.018,3.674,10.848,0,.147-.248.1-.276,0a52.88,52.88,0,0,0-3.784-10.563.24.24,0,0,1,.386-.285Z" transform="translate(-310.11 -230.291)" fill="#263238"/>
      <path id="Path_16849" data-name="Path 16849" d="M335.774,405.2c2.544,2.82,4.437,7.018,3.674,10.848,0,.147-.239.1-.266,0a52.879,52.879,0,0,0-3.784-10.563.239.239,0,0,1,.377-.285Z" transform="translate(-309.865 -230.165)" fill="#263238"/>
      <path id="Path_16850" data-name="Path 16850" d="M332.723,403.623c2.554,2.82,4.446,7.018,3.674,10.839,0,.156-.239.11-.266,0a52.356,52.356,0,0,0-3.794-10.563.239.239,0,0,1,.386-.276Z" transform="translate(-309.615 -230.036)" fill="#263238"/>
      <path id="Path_16851" data-name="Path 16851" d="M329.683,402.043c2.544,2.82,4.446,7.018,3.674,10.839,0,.156-.239.11-.276,0a52.356,52.356,0,0,0-3.784-10.563.239.239,0,0,1,.386-.276Z" transform="translate(-309.368 -229.907)" fill="#263238"/>
      <path id="Path_16852" data-name="Path 16852" d="M356.153,439.46c2.8,3.215-2.186,7.578-5,4.354S353.342,436.245,356.153,439.46Z" transform="translate(-311.083 -232.869)" fill="#fff"/>
      <path id="Path_16853" data-name="Path 16853" d="M339.839,400.049c-.643,3.279.165,6.733.542,9.994a.468.468,0,0,0,.689.312.092.092,0,0,0,.156,0,19.923,19.923,0,0,0,5.034-9c.459-1.984,0-4.832-2.434-5.227C341.492,395.769,340.206,398.129,339.839,400.049Zm2.25-2.214c3.353-2.443,3.426,2.462,3.031,3.9a21.671,21.671,0,0,1-1.01,2.756,57.739,57.739,0,0,1-2.829,5.318c-.083-1.617-.3-3.206-.45-4.822-.175-1.938-.6-5.805,1.258-7.146Z" transform="translate(-310.209 -229.428)" fill="#263238"/>
      <path id="Path_16854" data-name="Path 16854" d="M351.982,420.164c1.672-1.837.211-4.345-1.405-5.594a19.951,19.951,0,0,0-9.571-3.83.1.1,0,0,0-.11.119.459.459,0,0,0-.34.671c1.764,2.756,3.307,5.961,5.87,8.111C347.959,420.853,350.439,421.873,351.982,420.164Zm-7.89-4.979c-.919-1.341-1.727-2.756-2.682-4.032q2.813,1.042,5.511,2.361A22.238,22.238,0,0,1,349.428,415c1.222.873,4.253,4.721.1,4.942-2.214.074-4.326-3.2-5.4-4.8Z" transform="translate(-310.283 -230.622)" fill="#263238"/>
      <path id="Path_16855" data-name="Path 16855" d="M348.72,391.718l26.013,32.149,80.575-61.138,7.771-5.9s2.333,1.424,5.824,3.169c4.85,2.416,11.941,5.438,18.123,6.081,10.37,1.093,25.9.266,34.1-11.721,6.9-10.1,4.051-22.752,4.051-22.752l-11.528-4.381s-27.722-21.172-45.1-21.127c-7.348,0-17.875,6.062-27.556,12.318S348.72,391.718,348.72,391.718Z" transform="translate(-310.952 -222.098)" fill="#234192"/>
      <path id="Path_16856" data-name="Path 16856" d="M473.22,359.694s2.333,1.424,5.824,3.169c5.723-7.477,17.939-21.127,18.307-21.623Z" transform="translate(-321.093 -224.961)" fill="#37474f"/>
      <path id="Path_16857" data-name="Path 16857" d="M517.246,321.42c1.644,1.047,3.243,2.159,4.868,3.233s3.252,2.048,4.786,3.206,3.031,2.453,4.5,3.738c.707.615,1.415,1.24,2.1,1.883a19.884,19.884,0,0,1,2.021,2.012c.055.074,0,.156-.119.119a22.726,22.726,0,0,1-2.214-1.653c-.781-.6-1.543-1.212-2.324-1.837-1.488-1.167-3-2.287-4.492-3.454s-2.857-2.443-4.326-3.619-3.215-2.416-4.841-3.6C517.181,321.456,517.209,321.4,517.246,321.42Z" transform="translate(-324.675 -223.346)" fill="#37474f"/>
      <path id="Path_16858" data-name="Path 16858" d="M354.984,397.738c1.672,1.653,3.233,3.445,4.795,5.208s3.141,3.527,4.694,5.309c3.1,3.564,6.237,7.1,9.3,10.71,1.681,1.975,3.334,3.968,4.914,6.035.064.092-.083.211-.156.129-3.325-3.353-6.384-6.953-9.489-10.517s-6.2-7.137-9.259-10.747c-1.663-1.975-3.389-3.941-4.933-6.016C354.736,397.765,354.874,397.664,354.984,397.738Z" transform="translate(-311.448 -229.561)" fill="#37474f"/>
      <path id="Path_16859" data-name="Path 16859" d="M423.736,396.261c3.986-3.435,13.108-10.187,17.259-13.42s8.267-6.43,12.465-9.58c1.2-.919,2.425-1.782,3.674-2.664s2.48-1.708,3.674-2.618c.073-.055.138.064.073.11-1.084.854-2.113,1.837-3.178,2.691s-2.03,1.69-3.059,2.526c-2.012,1.626-4.042,3.215-6.072,4.822q-6.163,4.868-12.446,9.6c-2.379,1.782-9.718,7.073-12.152,8.781C423.782,396.61,423.6,396.38,423.736,396.261Z" transform="translate(-317.058 -227.137)" fill="#37474f"/>
      <path id="Path_16860" data-name="Path 16860" d="M393.786,358.425c3.674-3.334,12.125-9.783,16-12.86s7.817-6.283,11.757-9.4l11.721-9.25c3.784-2.994,7.55-6.026,11.574-8.708,2.2-1.46,4.464-2.829,6.8-4.069A44.608,44.608,0,0,1,458.7,310.9a.066.066,0,1,1,.055.119c-1.993,1.222-4.088,2.269-6.1,3.454s-3.941,2.4-5.86,3.674c-4,2.655-7.743,5.64-11.509,8.607-7.826,6.145-15.615,12.318-23.515,18.371-4.409,3.4-13.2,10.4-17.792,13.549C393.832,358.756,393.657,358.535,393.786,358.425Z" transform="translate(-314.619 -222.489)" fill="#37474f"/>
    </g>
    <g id="freepik--character-1--inject-2" transform="translate(48.591 58)">
      <path id="Path_16861" data-name="Path 16861" d="M49.135,210.821c.625-1.892,34.207-46.267,36.5-47.121.257-.11,15.275,10.572,15.275,10.572.615.827,29.155-5.208,29.155-5.208l.285,34.427L78.4,202.38S71.346,206.5,64.925,209.9h0a79.455,79.455,0,0,1-8.441,4.106C53.857,214.633,48.492,212.7,49.135,210.821Z" transform="translate(-48.768 -66.61)" fill="#f7a9a0"/>
      <path id="Path_16862" data-name="Path 16862" d="M56.454,213.974a76.73,76.73,0,0,0,8.441-4.069h0c6.43-3.362,13.438-7.5,13.438-7.5l11.574.248,18.1-29.219c-3.968.7-6.935,1.121-7.137.863,0,0-15-10.692-15.266-10.572-2.3.854-35.878,45.229-36.5,47.121S53.845,214.645,56.454,213.974Z" transform="translate(-48.766 -66.612)" fill="#fff"/>
      <path id="Path_16863" data-name="Path 16863" d="M48.8,210.875c.661-1.947,34.4-46.295,36.742-47.177.919-.331,8.267,4.2,15.34,10.563L79.1,202.829S59,213.475,56.327,214.154,48.134,212.813,48.8,210.875Z" transform="translate(-48.741 -66.608)" fill="#a6a6a6"/>
      <path id="Path_16864" data-name="Path 16864" d="M51.245,211.841c5.833-7.293,28.7-37.265,33.913-44.926,0-.055,0-.092-.046,0-5.952,7.1-28.558,37.256-33.986,44.862C51.006,211.915,51.116,212,51.245,211.841Z" transform="translate(-48.931 -66.867)" fill="#263238"/>
      <path id="Path_16865" data-name="Path 16865" d="M60.972,215.918a7.5,7.5,0,0,0,1.571-5.833,7.247,7.247,0,0,0-2.7-4.675c-.046,0-.11.046-.073.092a8.653,8.653,0,0,1,1.13,10.343C60.844,215.909,60.9,215.973,60.972,215.918Z" transform="translate(-49.638 -70.007)" fill="#263238"/>
      <path id="Path_16866" data-name="Path 16866" d="M79.014,207.246c2.306-2.949,3.876-7.192,2.847-10.894,0-.147-.239-.083-.266,0a51.493,51.493,0,0,1-2.985,10.692.239.239,0,0,0,.4.2Z" transform="translate(-51.173 -69.262)" fill="#263238"/>
      <path id="Path_16867" data-name="Path 16867" d="M76.131,209.026c2.306-2.949,3.876-7.192,2.847-10.894,0-.147-.239-.083-.257,0a51.512,51.512,0,0,1-2.994,10.628.242.242,0,0,0,.4.266Z" transform="translate(-50.935 -69.407)" fill="#263238"/>
      <path id="Path_16868" data-name="Path 16868" d="M73.251,210.766c2.306-2.949,3.885-7.192,2.857-10.894-.046-.147-.248-.083-.266,0A51.678,51.678,0,0,1,72.846,210.5a.242.242,0,0,0,.4.266Z" transform="translate(-50.701 -69.549)" fill="#263238"/>
      <path id="Path_16869" data-name="Path 16869" d="M70.385,212.526c2.3-2.949,3.876-7.2,2.847-10.894,0-.147-.239-.092-.266,0A51.843,51.843,0,0,1,70,212.3a.239.239,0,0,0,.386.23Z" transform="translate(-50.472 -69.692)" fill="#263238"/>
      <path id="Path_16870" data-name="Path 16870" d="M93.778,174.368c2.526-3.344-2.673-7.284-5.208-3.931S91.243,177.721,93.778,174.368Z" transform="translate(-51.93 -67.055)" fill="#263238"/>
      <path id="Path_16871" data-name="Path 16871" d="M84.592,217.064c2.388-.551,2.618-3.38,2.021-5.291a19.583,19.583,0,0,0-5.511-8.5.11.11,0,0,0-.156,0,.459.459,0,0,0-.643.358c-.147,3.233-.707,6.669.147,9.847C80.917,215.374,82.35,217.6,84.592,217.064Zm-3.546-8.46c0-1.589.138-3.169.119-4.758A58.87,58.87,0,0,1,84.3,208.87a20.9,20.9,0,0,1,1.212,2.618c.5,1.387.762,6.2-2.7,4.042-1.892-1.2-1.782-5.024-1.736-6.926Z" transform="translate(-51.286 -69.83)" fill="#263238"/>
      <path id="Path_16872" data-name="Path 16872" d="M85.645,194.168c-2.37,2.287-3.674,5.511-5.208,8.368a.459.459,0,0,0,.377.634.1.1,0,0,0,.119.11,19.684,19.684,0,0,0,9.185-4.418c1.488-1.341,2.756-3.876.992-5.585S87.032,192.836,85.645,194.168Zm3.059-.505c4.088-.073,1.378,3.913.239,4.859a21.954,21.954,0,0,1-2.361,1.626,58.178,58.178,0,0,1-5.272,2.7c.836-1.359,1.562-2.756,2.351-4.152C84.625,197.052,86.463,193.7,88.7,193.663Z" transform="translate(-51.32 -68.952)" fill="#263238"/>
      <path id="Path_16873" data-name="Path 16873" d="M135.416,157.279h23.331s24.406-11.73,44.09-7.009c22.532,5.419,25.416,33.729,8.57,43.741C190.005,206.725,95,204.272,95,204.272l20.53-34.8s31.616-6.678,60.3-5.677L135.416,169.3Z" transform="translate(-52.509 -65.425)" fill="#37474f"/>
      <path id="Path_16874" data-name="Path 16874" d="M115.893,172.831a1.086,1.086,0,0,0,0-.184.763.763,0,0,0,0-.138,1.1,1.1,0,0,1,.092-.34,5.96,5.96,0,0,1,.239-.68c.092-.23.184-.441.285-.661a4.593,4.593,0,0,1,.386-.615H117c3.472-.643,27.079-4.023,30.588-4.418s7.082-.735,10.637-1.038a203.367,203.367,0,0,1,21.292-.762c.671,0,1.332,0,2,.064.138-.046.285-.073.432-.11.34-.083.68-.165,1.029-.23.634-.129,1.286-.22,1.929-.321,1.341-.2,2.691-.349,4.032-.6.073,0,.11.11,0,.129-1.341.294-2.664.689-4.014.983l-1.167.239c2.609.138,5.208.34,7.808.579a.064.064,0,0,1,0,.129c-3.536-.211-7.1-.239-10.646-.175s-7.027.138-10.545.34c-7.1.4-14.21,1.038-21.283,1.782-3.968.413-28.034,3.931-32.021,4.1h-.055a1.727,1.727,0,0,1-.11.276c-.11.211-.22.432-.34.643s-.22.4-.349.6l-.2.294-.092.138a.918.918,0,0,0-.11.156C115.985,172.968,115.838,172.913,115.893,172.831Z" transform="translate(-54.204 -66.537)" fill="#263238"/>
      <path id="Path_16875" data-name="Path 16875" d="M103.089,204.029c1.277-2.039,2.361-4.207,3.518-6.3s2.342-4.207,3.509-6.31c2.333-4.189,10.719-18.288,11.555-19.289.046-.064.156,0,.129.073-.395,1.093-5.631,10.426-6.834,12.511-2.407,4.161-4.942,8.267-7.431,12.354-.716,1.176-1.451,2.333-2.177,3.5s-1.488,2.315-2.159,3.509A.06.06,0,1,1,103.089,204.029Z" transform="translate(-53.167 -67.294)" fill="#263238"/>
      <path id="Path_16876" data-name="Path 16876" d="M123.569,175.18c2.1-.5,4.244-.827,6.366-1.231l6.366-1.194q6.375-1.185,12.768-2.26c8.5-1.433,17.03-2.618,25.609-3.445,4.841-.459,9.7-.762,14.55-1.121a.078.078,0,0,1,0,.156c-8.644.395-17.278,1.562-25.83,2.756s-16.929,2.554-25.37,3.977l-7.146,1.222c-2.416.423-4.841.919-7.275,1.249a.073.073,0,0,1-.037-.11Z" transform="translate(-54.835 -66.792)" fill="#263238"/>
      <path id="Path_16877" data-name="Path 16877" d="M87.214,330.848c2.094-.119,56.215-21.751,57.712-23.827.579-.781-21.127-51.641-21.127-51.641L89.372,269.057,104,303.043s-16.534,17.076-17.967,19.537S85.128,330.967,87.214,330.848Z" transform="translate(-51.712 -74.078)" fill="#f7a9a0"/>
      <path id="Path_16878" data-name="Path 16878" d="M87.216,334.342c2.085-.119,56.215-21.751,57.712-23.827.184-.239-1.791-5.328-4.593-12.235-9.277,5.364-43.107,24.24-46.469,23.653-2.333-.413-1.3-2.811-.175-4.593-3.674,3.941-7.064,7.679-7.661,8.726C84.644,328.519,85.14,334.462,87.216,334.342Z" transform="translate(-51.714 -77.572)" fill="#263238"/>
      <path id="Path_16879" data-name="Path 16879" d="M133.257,269.4,93.41,287.727S60.728,211.57,59.534,184.767c-1.02-22.817,9.268-42.106,60.624-27.354l12.575.156v8.68c-5.511.726-20.208,3.04-20.208,3.04-10.71,4.042-14.164,5.713-13.989,6.062C125.173,229.307,133.257,269.4,133.257,269.4Z" transform="translate(-49.614 -65.677)" fill="#37474f"/>
      <path id="Path_16880" data-name="Path 16880" d="M95.087,166.821c1.543,2.058,2.976,4.207,4.345,6.43a92.572,92.572,0,0,1,26.114-6.88q3.794-.468,7.606-.671c.1,0,.092.147,0,.156a114.366,114.366,0,0,0-26.574,5.061c-2.388.735-4.731,1.589-7.082,2.425,1.653,2.636,3.2,5.328,4.685,8.046a156.6,156.6,0,0,1,7.5,15.615c1.231,2.958,2.434,5.943,3.49,8.965,0,.083-.11.147-.147.055q-7.027-15.615-15.331-30.652c-1.571-2.82-3.2-5.6-4.731-8.441C94.9,166.839,95,166.738,95.087,166.821Z" transform="translate(-52.504 -66.773)" fill="#263238"/>
      <path id="Path_16881" data-name="Path 16881" d="M95.506,288.37c2.232-.873,4.4-1.956,6.586-2.939l6.586-2.958c4.381-1.966,19.528-8.267,20.787-8.533a.074.074,0,0,1,.055.138c-.919.643-10.747,4.988-12.952,5.934-4.427,1.892-8.892,3.674-13.356,5.447-1.268.514-2.554,1-3.83,1.506s-2.581.964-3.83,1.525C95.479,288.526,95.424,288.4,95.506,288.37Z" transform="translate(-52.546 -75.589)" fill="#263238"/>
      <path id="Path_16882" data-name="Path 16882" d="M95.284,171.224c3.031,5.741,5.6,11.757,8.267,17.691s5.162,11.858,7.633,17.838q7.348,17.847,13.778,36.1c2.407,6.871,3.454,11.61,5.64,18.555,0,.1-.119.138-.156,0-4.06-12.29-7.247-22.275-11.84-34.372s-9.452-24.029-14.6-35.823q-2.177-4.988-4.409-9.939c-1.5-3.307-3.05-6.6-4.446-9.939C95.009,171.2,95.22,171.087,95.284,171.224Z" transform="translate(-52.517 -67.218)" fill="#263238"/>
      <path id="Path_16883" data-name="Path 16883" d="M175.367,107.847a.413.413,0,0,1-.367.395h-1.663c-1.157-3.986-2.489-7.192-2.177-5.961a19.914,19.914,0,0,1,.542,5.925l-3.288-.119c-.7-6.917-1.92-12.1-1.947-10.536-.129,6.32-.671,8.267-1.3,10.416-7.927-.3-18.307-.827-25.811-1.369-.542-3.83-.919-7.964-1.1-7.7a19.581,19.581,0,0,0-1.975,7.477c-2.388-.193-4.29-.386-5.447-.56,0,0-.285-3.215-.276-4.262a21.705,21.705,0,0,1,1.525-7.844,38.809,38.809,0,0,1,4.1-7.054.082.082,0,0,1,0-.055h0a20.073,20.073,0,0,0,3.334-8.4c.744-4.593,3.674-8.4,8.175-9.259,8.919-7.064,16.892-3.086,18.876,3.077.193.606.367,1.286.533,2.039h0c.615,2.756,1.075,6.3,1.543,9.057h0a26.106,26.106,0,0,0,.707,3.2C171.114,91.267,175.633,94.408,175.367,107.847Z" transform="translate(-55.405 -58.585)" fill="#263238"/>
      <path id="Path_16884" data-name="Path 16884" d="M145.688,70.329a8.836,8.836,0,0,0-5.667,6.641,22.964,22.964,0,0,1-1.644,5.667,20.474,20.474,0,0,1-3.738,4.841,15.064,15.064,0,0,0-4.464,8.01,25.637,25.637,0,0,0,.073,10.609h0a27.2,27.2,0,0,1,.569-11.023c.919-3.674,3.224-5.759,5.594-8.377a15.413,15.413,0,0,0,3.775-7.238,18.456,18.456,0,0,1,1.3-4.923,9.966,9.966,0,0,1,4.354-3.8.215.215,0,0,0-.147-.4Z" transform="translate(-55.331 -59.003)" fill="#263238"/>
      <path id="Path_16885" data-name="Path 16885" d="M177.038,92.618c-1.791-2.811-3.674-5.227-4.593-8.6-.818-3.068-1.167-6.274-2-9.332,0-.055-.092,0-.083,0,1.24,5.429,1.111,10.784,4.143,15.514a34.579,34.579,0,0,1,4.271,7.964,25.8,25.8,0,0,1,1.1,9.709.083.083,0,0,0,.165,0,21.411,21.411,0,0,0-3-15.257Z" transform="translate(-58.647 -59.358)" fill="#263238"/>
      <path id="Path_16886" data-name="Path 16886" d="M149.482,67.559c-.2,1.1-5.824,3.141-9.268-.165s-1.185-8.763,3.931-7.578C147.388,60.569,149.9,65.216,149.482,67.559Z" transform="translate(-56.057 -58.135)" fill="#263238"/>
      <path id="Path_16887" data-name="Path 16887" d="M138.93,62a6.577,6.577,0,0,1,3.279-2.866,3.959,3.959,0,0,1,3.941.478,7.991,7.991,0,0,1,2.544,3.454,12.922,12.922,0,0,1,.661,2.122,6.127,6.127,0,0,1,.156,2.241,5.373,5.373,0,0,0,.248-2.3,10.27,10.27,0,0,0-.45-2.3,7.817,7.817,0,0,0-2.664-3.9,4.593,4.593,0,0,0-2.306-.919,4.694,4.694,0,0,0-2.388.487A5.814,5.814,0,0,0,138.93,62Z" transform="translate(-56.087 -58)" fill="#263238"/>
      <path id="Path_16888" data-name="Path 16888" d="M141.687,107.044c2.609,13.833,10.517,31.727,17.71,32.011,6.558.248,21.76-6.044,28.1-9.516s-6.154-19.455-9.948-17.452c-5.052,2.636-13.861,8.6-15.211,8.083-1.69-.643-3.242-3.463-12.345-16.442C146.271,98.4,140.576,101.156,141.687,107.044Z" transform="translate(-56.3 -61.493)" fill="#f7a9a0"/>
      <path id="Path_16889" data-name="Path 16889" d="M188.037,107.173c2.985-.7,6.347-1.745,9.544-1.341s5.383,4.914,5.245,6.118-2.149,8.616-5.346,8.267-.643-5.925-.689-6.6-.073-1.534-.689-1.534-11.7,3.849-11.7,3.849Z" transform="translate(-59.791 -61.889)" fill="#f7a9a0"/>
      <path id="Path_16890" data-name="Path 16890" d="M188.452,107.627c.175,0,9.1-2.434,12.29-2.021s5.383,4.914,5.254,6.118-2.159,8.616-5.346,8.267-.643-5.925-.689-6.6-.073-1.534-.689-1.543-11.7,3.858-11.7,3.858Z" transform="translate(-60.049 -61.874)" fill="#f7a9a0"/>
      <path id="Path_16891" data-name="Path 16891" d="M200.092,120.01a3.784,3.784,0,0,1-.322-1.947,6.43,6.43,0,0,1,.34-2.03,12.861,12.861,0,0,0,.579-1.709,3.674,3.674,0,0,0-.266-1.745c-.2-.468-.68-.367-1.1-.266a14.036,14.036,0,0,0-1.837.6c-.643.23-1.286.487-1.929.735a15.852,15.852,0,0,0-1.966.817c-.046,0,0,.1,0,.092.579-.138,1.139-.367,1.7-.56s1.277-.432,1.92-.634,1.185-.423,1.791-.6a1.9,1.9,0,0,1,.863-.165c.239.083.294.7.331.919a3.013,3.013,0,0,1-.3,1.718,9.462,9.462,0,0,0-.514,1.718,4.694,4.694,0,0,0,0,1.681,6.43,6.43,0,0,0,.606,1.451C200.018,120.129,200.137,120.074,200.092,120.01Z" transform="translate(-60.537 -62.417)" fill="#263238"/>
      <path id="Path_16892" data-name="Path 16892" d="M176.5,114.322s9.727-7.11,11.748-8.515c4.051-2.811,20.309-7.477,22.5-7.477s2.5,4.593-8.57,8.019c-5.842,1.837-7.174,4.914-7.266,6.687s1.249,5.263,4.234,5.511,5.383-3.885,8.166-4.069.432,4.593-1.837,7.348a18.371,18.371,0,0,1-8.68,5.373c-2.673.689-11.023,3.252-11.023,3.252Z" transform="translate(-59.147 -61.285)" fill="#f7a9a0"/>
      <path id="Path_16893" data-name="Path 16893" d="M204.7,117.554c-1.212.753-2.609,1.736-4.088,1.635a3.664,3.664,0,0,1-2.985-2.526,5.7,5.7,0,0,1-.331-4.2,6.907,6.907,0,0,1,2.4-3.114,16.69,16.69,0,0,1,4.326-2.241c.064,0,0-.129-.055-.11-1.433.468-5.879,1.745-7.137,5.41a5.8,5.8,0,0,0,.377,4.28,4.1,4.1,0,0,0,2.756,2.756c1.736.34,3.408-.919,4.786-1.837C204.847,117.563,204.764,117.517,204.7,117.554Z" transform="translate(-60.783 -61.991)" fill="#263238"/>
      <path id="Path_16894" data-name="Path 16894" d="M140.715,109.724a61.083,61.083,0,0,0,4.207,16.111c.45,1.029.735,1.562.735,1.562l13.392-9.424,1.837-1.3s-.211-.377-.919-1.415c-1.038-1.46-3.141-4.244-7.155-9.094a26.445,26.445,0,0,0-6.163-5.814C141.781,97.434,139.613,101.365,140.715,109.724Z" transform="translate(-56.209 -61.372)" fill="#407bff"/>
      <path id="Path_16895" data-name="Path 16895" d="M143.75,128.211l2.756,4.859,14.926-10.747,3.353-2.407-3.674-3.986-.919.671-1.883,1.332-13.144,9.25Z" transform="translate(-56.479 -62.719)" fill="#407bff"/>
      <path id="Path_16896" data-name="Path 16896" d="M140.715,109.724a61.083,61.083,0,0,0,4.207,16.111l-1.442,1.029,2.756,4.859,14.926-10.747-2.149-3c-.321-.468-.652-.919-.983-1.387-4.418-6.228-8.809-12.446-11.436-16.24C141.781,97.434,139.613,101.365,140.715,109.724Z" transform="translate(-56.209 -61.372)" fill="#263238"/>
      <path id="Path_16897" data-name="Path 16897" d="M160.366,154.138l-.818-16.929s6.733-8.267,4.28-14.228c-1.24-2.994-10.1-18.288-14.945-22.128-4.593-3.61-11.592-.138-13.778,2.847-8.441,11.592-14.844,21.981-20.906,48.123,0,0,17.149,5.75,32.691,5.75C151.741,157.61,160.366,154.138,160.366,154.138Z" transform="translate(-54.073 -61.365)" fill="#f7a9a0"/>
      <path id="Path_16898" data-name="Path 16898" d="M162.3,149.925l-2.756-12.685s6.733-8.267,4.28-14.228c-1.24-2.994-10.1-18.288-14.945-22.128-4.593-3.61-11.941-.606-14.192,2.342-8.708,11.574-15.615,23.5-20.787,45.56Z" transform="translate(-54.048 -61.359)" fill="#407bff"/>
      <path id="Path_16899" data-name="Path 16899" d="M147.413,139.688a40.268,40.268,0,0,1,6.044.23c.992.119,1.975.294,2.958.487.487.092.983.175,1.479.248a6.311,6.311,0,0,0,1.552.1s.055.064,0,.073a11.233,11.233,0,0,1-1.47.156,10.716,10.716,0,0,1-1.433-.092c-1.01-.119-2.012-.285-3.022-.413-2.039-.257-4.069-.514-6.118-.625C147.312,139.853,147.322,139.688,147.413,139.688Z" transform="translate(-56.772 -64.652)" fill="#263238"/>
      <path id="Path_16900" data-name="Path 16900" d="M142.295,142.2a42.647,42.647,0,0,1,4.914-.863c.827-.092,1.653-.138,2.489-.165h1.194c.4,0,.919.055,1.3.046,0,0,.055.073,0,.073-.413,0-.818.11-1.231.147l-1.24.119c-.827.092-1.644.184-2.471.257-1.663.147-3.307.321-4.951.524C142.221,142.346,142.212,142.217,142.295,142.2Z" transform="translate(-56.356 -64.775)" fill="#263238"/>
      <path id="Path_16901" data-name="Path 16901" d="M142.89,101.091c-.064.919,4.464,8.138,8.368,9.185,1.277.321,1.176-7.073,1.176-7.073l.266-.478,3.775-6.614-6.7-7.909-.992-1.084s-.919,1.837-2.021,4.225c-.055.11-.11.22-.156.34a3.675,3.675,0,0,0-.193.377c-.165.349-.34.707-.505,1.066s-.248.533-.377.827l-.377.863a48.211,48.211,0,0,0-2.269,6.274Z" transform="translate(-56.409 -60.372)" fill="#f7a9a0"/>
      <path id="Path_16902" data-name="Path 16902" d="M147.11,91.3a15.248,15.248,0,0,0,5.934,11.381l3.775-6.614-6.7-7.909-.992-1.084S148.221,88.944,147.11,91.3Z" transform="translate(-56.753 -60.368)" fill="#263238"/>
      <path id="Path_16903" data-name="Path 16903" d="M170.43,84c-.395,13.356-8.441,14.623-11.316,14.541-2.618-.083-11.509-.689-12.492-14.008S151.958,67.165,157.983,67,170.843,70.674,170.43,84Z" transform="translate(-56.705 -58.733)" fill="#f7a9a0"/>
      <path id="Path_16904" data-name="Path 16904" d="M169.72,82.633a7.025,7.025,0,0,1-.919-.276,1.442,1.442,0,0,1-.808-.432.459.459,0,0,1,.055-.579,1.185,1.185,0,0,1,1.185-.165,1.764,1.764,0,0,1,1.02.716.505.505,0,0,1-.533.735Z" transform="translate(-58.448 -59.881)" fill="#263238"/>
      <path id="Path_16905" data-name="Path 16905" d="M160.5,81.688a7.829,7.829,0,0,0,.919-.11,1.4,1.4,0,0,0,.919-.285.459.459,0,0,0,.055-.579,1.176,1.176,0,0,0-1.13-.377,1.718,1.718,0,0,0-1.139.505.514.514,0,0,0,.377.845Z" transform="translate(-57.803 -59.818)" fill="#263238"/>
      <path id="Path_16906" data-name="Path 16906" d="M162.158,85.66a.075.075,0,0,0-.073.083c0,.919-.239,1.938-1.075,2.186v.046C162.02,87.91,162.268,86.533,162.158,85.66Z" transform="translate(-57.885 -60.253)" fill="#263238"/>
      <path id="Path_16907" data-name="Path 16907" d="M161.336,84.569c-1.451-.22-1.773,2.7-.432,2.9S162.558,84.753,161.336,84.569Z" transform="translate(-57.808 -60.163)" fill="#263238"/>
      <path id="Path_16908" data-name="Path 16908" d="M160.656,84.646c-.276.138-.56.395-.863.395s-.6-.34-.8-.661h-.055c-.064.56.083,1.157.671,1.3s.992-.312,1.194-.863C160.831,84.747,160.767,84.591,160.656,84.646Z" transform="translate(-57.716 -60.149)" fill="#263238"/>
      <path id="Path_16909" data-name="Path 16909" d="M167.606,86.2s.064.055.064.092c-.138.919-.147,1.947.634,2.351h0C167.312,88.432,167.33,87.036,167.606,86.2Z" transform="translate(-58.409 -60.297)" fill="#263238"/>
      <path id="Path_16910" data-name="Path 16910" d="M168.528,85.28c1.47.064,1.231,2.994-.129,2.93S167.3,85.225,168.528,85.28Z" transform="translate(-58.413 -60.222)" fill="#263238"/>
      <path id="Path_16911" data-name="Path 16911" d="M169.254,85.538c.22.175.423.478.7.514s.579-.248.808-.533h.046c0,.56-.257,1.13-.808,1.194s-.818-.45-.919-1.02C169.071,85.621,169.163,85.474,169.254,85.538Z" transform="translate(-58.543 -60.242)" fill="#263238"/>
      <path id="Path_16912" data-name="Path 16912" d="M161.4,93.608c.184.248.349.57.671.652a2.462,2.462,0,0,0,1-.073s.055,0,0,.046a1.222,1.222,0,0,1-1.222.312.974.974,0,0,1-.579-.919A.084.084,0,0,1,161.4,93.608Z" transform="translate(-57.907 -60.899)" fill="#263238"/>
      <path id="Path_16913" data-name="Path 16913" d="M165.6,89.676s.046,1.369,0,2.012c0,.055-.165.073-.386.064h0a3.031,3.031,0,0,1-2.829-1.424c0-.064.046-.119.1-.073a4.648,4.648,0,0,0,2.691,1.065c.064-.175-.165-2.342-.064-2.342a6.062,6.062,0,0,1,1.415.468c0-2.857-.505-5.686-.5-8.533a.087.087,0,0,1,.175,0,46.269,46.269,0,0,1,.919,9.185C167.111,90.42,165.844,89.813,165.6,89.676Z" transform="translate(-57.998 -59.86)" fill="#263238"/>
      <path id="Path_16914" data-name="Path 16914" d="M164.748,92.2a3.242,3.242,0,0,1-1.369.919,1.433,1.433,0,0,1-.919,0c-.634-.211-.615-.808-.468-1.3a3.583,3.583,0,0,1,.331-.762,4.3,4.3,0,0,0,2.425,1.148Z" transform="translate(-57.958 -60.692)" fill="#263238"/>
      <path id="Path_16915" data-name="Path 16915" d="M163.409,93.2a1.433,1.433,0,0,1-.919,0c-.634-.211-.615-.808-.468-1.3A1.525,1.525,0,0,1,163.409,93.2Z" transform="translate(-57.961 -60.762)" fill="#ff9cbd"/>
      <path id="Path_16916" data-name="Path 16916" d="M162.864,69.942a6.154,6.154,0,0,1-.56,3.546c-1.837,2.912-5.429,1.7-6.825,2.756s-1.157,3.417-2.361,4.437c-1.663,1.415-3.619.579-3.977,1.617s-1.442,4.336-2.847,4.593-5.144-22.9,12.483-20.208c0,0,2.48-.625,6.1,1.589,4.179,2.554,5.089,9.5,5.089,9.5s-.175,0-.726-.615c-.772-.845-1.02-1.58-1.6-2.14-.919-.919-1.47-.643-2.407-1.5a11.766,11.766,0,0,1-2.37-3.573Z" transform="translate(-56.579 -58.69)" fill="#263238"/>
      <path id="Path_16917" data-name="Path 16917" d="M163.041,69.15a12.217,12.217,0,0,1,.22,2.756,4.979,4.979,0,0,1-.671,2.59,3.674,3.674,0,0,1-2.2,1.359c-.873.211-1.837.2-2.756.459a2.847,2.847,0,0,0-1.286.762,3.61,3.61,0,0,0-.671,1.3,4.9,4.9,0,0,1-1.249,2.342,3.05,3.05,0,0,1-2.489.735,6.65,6.65,0,0,0-2.756-.156,6.5,6.5,0,0,1,2.756.367,3.334,3.334,0,0,0,2.756-.689,4.9,4.9,0,0,0,1.415-2.462,3.307,3.307,0,0,1,.606-1.157,2.4,2.4,0,0,1,1.093-.625c.854-.248,1.837-.257,2.756-.5a4.8,4.8,0,0,0,1.332-.551,2.958,2.958,0,0,0,1.066-1.01,5.254,5.254,0,0,0,.6-2.756,12.227,12.227,0,0,0-.514-2.774Z" transform="translate(-56.922 -58.909)" fill="#263238"/>
      <path id="Path_16918" data-name="Path 16918" d="M164.54,70.07a10.16,10.16,0,0,0,.588,2.535,4.593,4.593,0,0,0,1.562,2.14,6.9,6.9,0,0,0,1.176.615,2.076,2.076,0,0,1,.919.744,6.824,6.824,0,0,0,.661,1.13,2.9,2.9,0,0,0,1.047.781,3.279,3.279,0,0,1-.873-.919,6.7,6.7,0,0,1-.533-1.157,2.214,2.214,0,0,0-.992-.919,7,7,0,0,1-1.111-.6,4.776,4.776,0,0,1-1.488-1.929,19.292,19.292,0,0,1-.955-2.425Z" transform="translate(-58.173 -58.983)" fill="#263238"/>
      <path id="Path_16919" data-name="Path 16919" d="M148.524,85.946s-2.416-4.473-4.418-3.674-.524,7.073,1.589,8.157a2.269,2.269,0,0,0,3.151-.863Z" transform="translate(-56.431 -59.97)" fill="#f7a9a0"/>
      <path id="Path_16920" data-name="Path 16920" d="M144.68,84.23v.064A5.713,5.713,0,0,1,147.2,88.18a1.24,1.24,0,0,0-1.837-.551c-.046,0,0,.092,0,.083a1.415,1.415,0,0,1,1.47.661,6.715,6.715,0,0,1,.579,1.314c.055.147.312.1.285-.064h0C147.987,87.619,146.811,84.68,144.68,84.23Z" transform="translate(-56.555 -60.137)" fill="#263238"/>
      <path id="Path_16921" data-name="Path 16921" d="M136.22,111.837c3.729,13.631,22.716,39.608,30.533,41.335,9.057,1.966,33.068-8.735,38.579-13.7,2.214-1.984-11.023-16.258-13.879-14.88-11.941,5.787-21.843,7.854-23.542,6.926-2.618-1.424-13.888-13.65-21.264-21.907C137.387,99.206,134.558,105.719,136.22,111.837Z" transform="translate(-55.829 -61.758)" fill="#f7a9a0"/>
      <path id="Path_16922" data-name="Path 16922" d="M209.479,139.767c1.231-.588,9.443-7.863,11.748-11.124a39.048,39.048,0,0,0,5.759-11.2c2.021-6.356,2.811-10.949,1.984-12.86-.919-2.25-1.2-2.609-6.32,8.12-2.893,6.072-6.118,7.036-8.983,7.266a46.653,46.653,0,0,0-19.877,6.191S204.712,142.036,209.479,139.767Z" transform="translate(-60.555 -61.691)" fill="#f7a9a0"/>
      <path id="Path_16923" data-name="Path 16923" d="M233.676,101.051l-17.324,17.737a1.929,1.929,0,0,1-1.984.459l-10.481-4.776c-.588-.266-.643-.919-.138-1.424L221.082,95.31a1.9,1.9,0,0,1,1.984-.459l10.471,4.767C234.126,99.884,234.19,100.49,233.676,101.051Z" transform="translate(-61.339 -60.993)" fill="#263238"/>
      <path id="Path_16924" data-name="Path 16924" d="M232.586,100.551l-17.324,17.737a1.9,1.9,0,0,1-1.984.459L202.8,113.98c-.579-.266-.643-.919-.129-1.433l17.324-17.728a1.911,1.911,0,0,1,1.984-.468l10.481,4.776C233.036,99.394,233.1,100.027,232.586,100.551Z" transform="translate(-61.25 -60.953)" fill="#37474f"/>
      <path id="Path_16925" data-name="Path 16925" d="M231.17,101.213l-15.891,16.258a1.754,1.754,0,0,1-1.837.468l-9.369-4.271c-.533-.239-.56-.827-.073-1.332l15.882-16.258c.992-1.01,1.635-1.038,2.159-.8l1.837.854c.11,0,.092.193,0,.331l-.064.055c-.3.321-.11.413.138.524l4.336,1.975a.542.542,0,0,0,.753-.119l.055-.055a.45.45,0,0,1,.432-.156l1.837.863C231.951,99.789,232.07,100.285,231.17,101.213Z" transform="translate(-61.359 -61.027)" fill="#fff"/>
      <path id="Path_16926" data-name="Path 16926" d="M229.083,98.092,227.9,97.55a.055.055,0,0,1,0-.092h0a.138.138,0,0,1,.138,0l1.185.542a.055.055,0,0,1,0,.092h0a.129.129,0,0,1-.138,0Z" transform="translate(-63.332 -61.213)" fill="#fff"/>
      <path id="Path_16927" data-name="Path 16927" d="M220.914,110.42l-7.964-3.628,6.806-6.972,7.964,3.628Z" transform="translate(-62.116 -61.407)" fill="#407bff"/>
      <path id="Path_16928" data-name="Path 16928" d="M216.378,110.736l-4.648-2.113.395-.413,4.648,2.122Z" transform="translate(-62.017 -62.09)" fill="#a6a6a6"/>
      <path id="Path_16929" data-name="Path 16929" d="M216.512,111.88l-5.5-2.508.2-.2,5.5,2.5Z" transform="translate(-61.958 -62.168)" fill="#a6a6a6"/>
      <path id="Path_16930" data-name="Path 16930" d="M216.112,112.29l-5.5-2.508.2-.2,5.5,2.5Z" transform="translate(-61.925 -62.202)" fill="#a6a6a6"/>
      <path id="Path_16931" data-name="Path 16931" d="M215.722,112.7l-5.5-2.508.193-.211,5.5,2.508Z" transform="translate(-61.894 -62.234)" fill="#a6a6a6"/>
      <path id="Path_16932" data-name="Path 16932" d="M223.612,97.945l-.992-.45.165-.165.992.45Z" transform="translate(-62.904 -61.204)" fill="#a6a6a6"/>
      <path id="Path_16933" data-name="Path 16933" d="M223.282,98.285l-.992-.45.165-.175.992.45Z" transform="translate(-62.877 -61.231)" fill="#a6a6a6"/>
      <path id="Path_16934" data-name="Path 16934" d="M222.952,98.615l-.992-.45.165-.165.992.45Z" transform="translate(-62.85 -61.258)" fill="#a6a6a6"/>
      <path id="Path_16935" data-name="Path 16935" d="M220.373,112.376a1.562,1.562,0,0,1-.459.092.542.542,0,0,1-.064-.321c0-.23.257-.45.45-.358s0,.276,0,.276.211-.175.367-.1S220.676,112.284,220.373,112.376Z" transform="translate(-62.678 -62.38)" fill="#407bff"/>
      <path id="Path_16936" data-name="Path 16936" d="M213.87,117.068l-6.43-2.93,1.58-1.607,6.421,2.921Z" transform="translate(-61.667 -62.442)" fill="#407bff"/>
      <path id="Path_16937" data-name="Path 16937" d="M215.283,120.176c-2.949.34,6.053-6.6,5.87-9.966s-3.353-1.993-5.741.156c-8.313,7.459-15.1,7.8-19.032,14.531S215.283,120.176,215.283,120.176Z" transform="translate(-60.729 -62.088)" fill="#f7a9a0"/>
      <path id="Path_16938" data-name="Path 16938" d="M165.393,128.2c.818.671,1.607,1.378,2.4,2.076a16.534,16.534,0,0,0,2.306,1.837,4.841,4.841,0,0,0,3.215.34c.974-.147,1.929-.349,2.884-.588a86.654,86.654,0,0,0,11.427-3.775,58.7,58.7,0,0,0,6.154-2.627l-.22.248a14.282,14.282,0,0,1,1.837-2.581,16.81,16.81,0,0,1,2.7-2.5,30.381,30.381,0,0,1,3.27-2.094c.6-.331,1.194-.661,1.837-.964l.919-.468a3.96,3.96,0,0,0,1.066-.579c-.073.1-.2,0-.11-.1h.1v.064c-.1.165-.3.23-.459.331l-.845.56c-.514.349-1.038.689-1.562,1.029-1.185.762-2.37,1.525-3.5,2.37a26.5,26.5,0,0,0-2.756,2.324c-.441.423-.836.919-1.258,1.323a10.424,10.424,0,0,0-1.047,1.415s-3.674,1.837-5.511,2.664-3.84,1.6-5.805,2.278-3.95,1.268-5.961,1.782a24.062,24.062,0,0,1-3.1.606,5.061,5.061,0,0,1-2.838-.193,10.757,10.757,0,0,1-2.37-2.058c-.919-.919-1.9-1.782-2.82-2.756C165.283,128.233,165.347,128.159,165.393,128.2Z" transform="translate(-58.236 -62.759)" fill="#263238"/>
      <path id="Path_16939" data-name="Path 16939" d="M163.122,126.626l-14.256,11.941S138.082,123.7,135.63,112.544s3.3-12.345,12.86-1.837C157.813,121.105,163.122,126.626,163.122,126.626Z" transform="translate(-55.772 -61.703)" fill="#407bff"/>
      <path id="Path_16940" data-name="Path 16940" d="M154.694,116.88c1.672,1.635,3.27,3.371,4.85,5.1.772.845,1.534,1.681,2.278,2.544l1.194,1.359a12.719,12.719,0,0,0,1.35,1.46c.092.073,0,.193-.1.11a21.879,21.879,0,0,0-2.443-2.526c-.854-.863-1.69-1.727-2.508-2.618-1.607-1.736-3.215-3.518-4.685-5.373Z" transform="translate(-57.366 -62.796)" fill="#263238"/>
      <path id="Path_16941" data-name="Path 16941" d="M138.9,124.429A12.482,12.482,0,0,0,140.284,126c.2.193.386.386.579.588-.836-1.562-1.626-3.151-2.342-4.758h.055c1.837,3.077,3.527,6.255,5.383,9.342s3.564,6.43,5.576,9.433a.076.076,0,1,1-.129.083c-1.938-3.077-4.06-6.026-5.851-9.185-.707-1.268-1.424-2.544-2.122-3.83a6.071,6.071,0,0,1-.643-.643,9.663,9.663,0,0,1-.7-.8c-.423-.579-.863-1.13-1.314-1.672C138.713,124.448,138.832,124.347,138.9,124.429Z" transform="translate(-56.053 -63.199)" fill="#263238"/>
      <path id="Path_16942" data-name="Path 16942" d="M167.952,130.074l-3.968-3.674L147.67,140.178l3.151,4.593Z" transform="translate(-56.799 -63.572)" fill="#407bff"/>
      <path id="Path_16943" data-name="Path 16943" d="M149.838,138.443c2.021-1.837,4.2-3.573,6.31-5.328s4.354-3.38,6.43-5.217c.073-.064.175.055.092.119-2.085,1.837-4.023,3.757-6.145,5.511a79.189,79.189,0,0,1-6.568,5.034.084.084,0,0,1-.119-.119Z" transform="translate(-56.973 -63.692)" fill="#263238"/>
      <path id="Path_16944" data-name="Path 16944" d="M153.627,143.457c-1.02.707-2,1.47-2.967,2.25h.331c-1.02-1.562-2.076-3.086-3.224-4.593v.175c.386-.367.762-.744,1.139-1.139-.45.3-.919.615-1.314.919l-.092.064.064.11a55.255,55.255,0,0,0,3.077,4.666l.147.2.184-.156A30.534,30.534,0,0,0,153.627,143.457Z" transform="translate(-56.785 -64.692)" fill="#263238"/>
    </g>
    <g id="freepik--speech-bubble--inject-2" transform="translate(240.943 82.727)">
      <path id="Path_16945" data-name="Path 16945" d="M258.15,146.61H454.618V84.92H258.15v61.69Z" transform="translate(-258.15 -84.92)" fill="#234192"/>
      <path id="Path_16946" data-name="Path 16946" d="M469.938,174.821V152.05H446.23Z" transform="translate(-273.47 -90.388)" fill="#234192"/>
      <rect id="Rectangle_4023" data-name="Rectangle 4023" width="136.248" height="1.176" transform="translate(12.4 10.664)" fill="#fff"/>
      <rect id="Rectangle_4024" data-name="Rectangle 4024" width="107.975" height="1.176" transform="translate(12.4 16.993)" fill="#fff"/>
      <rect id="Rectangle_4025" data-name="Rectangle 4025" width="125.051" height="1.176" transform="translate(12.4 29.66)" fill="#fff"/>
      <rect id="Rectangle_4026" data-name="Rectangle 4026" width="136.248" height="1.176" transform="translate(12.4 35.989)" fill="#fff"/>
      <rect id="Rectangle_4027" data-name="Rectangle 4027" width="136.248" height="1.176" transform="translate(12.4 42.317)" fill="#fff"/>
      <rect id="Rectangle_4028" data-name="Rectangle 4028" width="98.514" height="1.176" transform="translate(12.4 48.646)" fill="#fff"/>
      <path id="Path_16947" data-name="Path 16947" d="M437.4,122.99a12.381,12.381,0,0,1,.873-4.786,7.9,7.9,0,0,1,3.592-3.674c.542-.331,1.212-.7,2.012-1.121a16.223,16.223,0,0,0,2.342-1.5,8.689,8.689,0,0,0,1.938-2.039,4.74,4.74,0,0,0,.79-2.7,4.382,4.382,0,0,0-.441-2.012,4.52,4.52,0,0,0-1.139-1.47,4.776,4.776,0,0,0-1.663-.919,6.328,6.328,0,0,0-1.938-.3,5.512,5.512,0,0,0-2.177.413,7.284,7.284,0,0,0-1.764,1.029,8.267,8.267,0,0,0-1.414,1.424,13.129,13.129,0,0,0-1.066,1.5l-4.74-3.27a10.471,10.471,0,0,1,1.883-2.994,11.363,11.363,0,0,1,2.664-2.2,12.363,12.363,0,0,1,3.243-1.405,13.779,13.779,0,0,1,3.592-.468,14.431,14.431,0,0,1,4.088.6A10.462,10.462,0,0,1,451.7,99a9.948,9.948,0,0,1,2.618,3.344,11.022,11.022,0,0,1,1,4.877,10.407,10.407,0,0,1-.4,3.077,8.487,8.487,0,0,1-1.176,2.425,10.04,10.04,0,0,1-1.791,1.956,19.222,19.222,0,0,1-2.342,1.69c-.726.441-1.451.854-2.177,1.249a13.494,13.494,0,0,0-1.993,1.341,6.431,6.431,0,0,0-1.47,1.69,4.446,4.446,0,0,0-.57,2.306Zm.11,12.694v-7.5h6.044V135.7Z" transform="translate(-272.36 -85.862)" fill="#fff"/>
    </g>
  </g>
</svg>
