<svg xmlns="http://www.w3.org/2000/svg" width="86" height="86" viewBox="0 0 86 86">
  <g id="Group_7072" data-name="Group 7072" transform="translate(-450 -3651)">
    <circle id="Ellipse_158" data-name="Ellipse 158" cx="43" cy="43" r="43" transform="translate(450 3651)" fill="#fff"/>
    <g id="interface_arcticutre" data-name="interface arcticutre" transform="translate(468 3669)">
      <path id="Path_10287" data-name="Path 10287" d="M46.214,50.045H4.832A3.794,3.794,0,0,1,1,46.214V4.832A3.794,3.794,0,0,1,4.832,1H46.214a3.794,3.794,0,0,1,3.832,3.832V46.214A3.794,3.794,0,0,1,46.214,50.045ZM4.832,2.533a2.258,2.258,0,0,0-2.3,2.3V46.214a2.258,2.258,0,0,0,2.3,2.3H46.214a2.258,2.258,0,0,0,2.3-2.3V4.832a2.258,2.258,0,0,0-2.3-2.3Z" transform="translate(-1 -1)" fill="#29abe2"/>
      <path id="Path_10288" data-name="Path 10288" d="M49.279,12.287H1.766a.766.766,0,1,1,0-1.533H49.279a.766.766,0,0,1,0,1.533ZM7.284,9.451A2.376,2.376,0,1,1,9.66,7.076,2.388,2.388,0,0,1,7.284,9.451Zm0-3.219a.843.843,0,1,0,.843.843A.85.85,0,0,0,7.284,6.233Zm6.59,3.219A2.376,2.376,0,1,1,16.25,7.076,2.388,2.388,0,0,1,13.874,9.451Zm0-3.219a.843.843,0,1,0,.843.843A.85.85,0,0,0,13.874,6.233Zm31.956,20H5.291a.724.724,0,0,1-.766-.766V15.505a.724.724,0,0,1,.766-.766H45.83a.724.724,0,0,1,.766.766v9.962A.724.724,0,0,1,45.83,26.234ZM6.058,24.7H45.064v-8.43H6.058Z" transform="translate(-1 -1.865)" fill="#29abe2"/>
      <path id="Path_10289" data-name="Path 10289" d="M46.84,29.306h-.153L6.224,19.344a.753.753,0,0,1,.383-1.456L47.07,27.85a.727.727,0,0,1,.536.92A.761.761,0,0,1,46.84,29.306Z" transform="translate(-2.086 -4.937)" fill="#29abe2"/>
      <path id="Path_10290" data-name="Path 10290" d="M6.362,29.29a.807.807,0,0,1-.766-.613.788.788,0,0,1,.536-.92L46.594,17.8a.753.753,0,0,1,.383,1.456L6.515,29.214C6.515,29.29,6.438,29.29,6.362,29.29ZM17.55,41.628H6.362a.724.724,0,0,1-.766-.766v-8.2a.724.724,0,0,1,.766-.766H17.55a.724.724,0,0,1,.766.766v8.2A.724.724,0,0,1,17.55,41.628ZM7.128,40.1h9.656V33.429H7.128Z" transform="translate(-2.07 -4.921)" fill="#29abe2"/>
      <path id="Path_10291" data-name="Path 10291" d="M17.484,45.938a1.089,1.089,0,0,1-.46-.153l-11.112-8.2a.824.824,0,0,1-.153-1.073.824.824,0,0,1,1.073-.153l11.112,8.2a.824.824,0,0,1,.153,1.073.7.7,0,0,1-.613.307Z" transform="translate(-2.081 -9.231)" fill="#29abe2"/>
      <path id="Path_10292" data-name="Path 10292" d="M6.372,45.932a.7.7,0,0,1-.613-.307.811.811,0,0,1,.153-1.073l11.112-8.2a.766.766,0,0,1,.92,1.226l-11.112,8.2A1.089,1.089,0,0,1,6.372,45.932Zm25.825,0H21.009a.724.724,0,0,1-.766-.766v-8.2a.724.724,0,0,1,.766-.766H32.2a.724.724,0,0,1,.766.766v8.2a.724.724,0,0,1-.766.766ZM21.776,44.4h9.656V37.733H21.776Z" transform="translate(-2.081 -9.225)" fill="#29abe2"/>
      <path id="Path_10293" data-name="Path 10293" d="M36.661,45.938a1.089,1.089,0,0,1-.46-.153l-11.188-8.2a.766.766,0,0,1,.92-1.226l11.188,8.2a.824.824,0,0,1,.153,1.073.7.7,0,0,1-.613.307Z" transform="translate(-6.544 -9.231)" fill="#29abe2"/>
      <path id="Path_10294" data-name="Path 10294" d="M25.472,45.932a.7.7,0,0,1-.613-.307.824.824,0,0,1,.153-1.073l11.188-8.2a.766.766,0,1,1,.92,1.226l-11.188,8.2a1.089,1.089,0,0,1-.46.153Zm25.9,0H40.186a.724.724,0,0,1-.766-.766v-8.2a.724.724,0,0,1,.766-.766H51.374a.724.724,0,0,1,.766.766v8.2A.724.724,0,0,1,51.374,45.932ZM40.952,44.4h9.656V37.733H40.952Z" transform="translate(-6.544 -9.225)" fill="#29abe2"/>
      <path id="Path_10295" data-name="Path 10295" d="M55.784,45.938a1.089,1.089,0,0,1-.46-.153l-11.112-8.2a.766.766,0,0,1,.92-1.226l11.112,8.2a.824.824,0,0,1,.153,1.073A.7.7,0,0,1,55.784,45.938Z" transform="translate(-11.03 -9.231)" fill="#29abe2"/>
      <path id="Path_10296" data-name="Path 10296" d="M35.717,45.938a.7.7,0,0,1-.613-.307.824.824,0,0,1,.153-1.073l11.112-8.2a.766.766,0,0,1,.92,1.226l-11.112,8.2A1.089,1.089,0,0,1,35.717,45.938ZM17.478,50.306H6.366a.766.766,0,1,1,0-1.533H17.478a.766.766,0,1,1,0,1.533Zm14.714,0H21a.766.766,0,1,1,0-1.533H32.192a.766.766,0,1,1,0,1.533Zm14.637,0H35.717a.766.766,0,1,1,0-1.533H46.829a.766.766,0,1,1,0,1.533Zm-2.376,4.368H38.092a.766.766,0,1,1,0-1.533h6.361a.766.766,0,1,1,0,1.533Zm-14.714,0H23.456a.766.766,0,1,1,0-1.533h6.284a.766.766,0,1,1,0,1.533Zm-14.637,0H8.742a.766.766,0,1,1,0-1.533H15.1a.766.766,0,1,1,0,1.533Z" transform="translate(-2.075 -9.231)" fill="#29abe2"/>
    </g>
  </g>
</svg>
