<svg xmlns="http://www.w3.org/2000/svg" width="59.898" height="47.481" viewBox="0 0 59.898 47.481">
  <g id="Group_7051" data-name="Group 7051" transform="translate(1.86 -0.468)">
    <g id="Group_5445" data-name="Group 5445" transform="translate(-1.86 0.468)">
      <g id="Consulting">
        <path id="Path_9382" data-name="Path 9382" d="M21.707,53.678a.942.942,0,0,1,.942.942v5.919a.942.942,0,0,1-1.884,0V54.62A.942.942,0,0,1,21.707,53.678ZM5.422,54.62v5.919a.942.942,0,0,0,1.884,0V54.62a.942.942,0,1,0-1.884,0ZM1.374,61.481a.942.942,0,0,1-.942-.942V54.154a9.282,9.282,0,0,1,8.124-9.176,7.5,7.5,0,1,1,10.96,0,9.281,9.281,0,0,1,8.122,9.176v6.384a.942.942,0,0,1-1.884,0V54.154a7.389,7.389,0,0,0-7.312-7.364H16.905a7.5,7.5,0,0,1-5.735,0H9.624a7.388,7.388,0,0,0-7.307,7.364v6.386A.942.942,0,0,1,1.374,61.481ZM8.417,39.865a5.621,5.621,0,1,0,5.619-5.611A5.621,5.621,0,0,0,8.417,39.865Zm30.64,26.684a.942.942,0,0,0-.942.942v5.919a.942.942,0,1,0,1.884,0V67.491A.942.942,0,0,0,39.057,66.549Zm15.34,0a.942.942,0,0,0-.942.942v5.919a.942.942,0,1,0,1.884,0V67.491A.942.942,0,0,0,54.4,66.549Zm5.935.474v6.386a.942.942,0,0,1-1.884,0V67.024a7.39,7.39,0,0,0-7.316-7.364H49.594a7.5,7.5,0,0,1-5.735,0H42.313a7.389,7.389,0,0,0-7.307,7.364v6.386a.942.942,0,0,1-1.884,0V67.024a9.28,9.28,0,0,1,8.124-9.176,7.5,7.5,0,1,1,10.959,0A9.282,9.282,0,0,1,60.331,67.024Zm-13.6-8.677a5.611,5.611,0,1,0-5.623-5.611A5.621,5.621,0,0,0,46.729,58.347ZM30.215,39.76H27.93a2.148,2.148,0,0,1-2.146-2.145v-8.6a2.148,2.148,0,0,1,2.146-2.145H52.788a2.148,2.148,0,0,1,2.146,2.145v8.6a2.148,2.148,0,0,1-2.146,2.145H38.609l-6.864,5.508a.942.942,0,0,1-1.532-.735V39.76Zm.942-1.884a.942.942,0,0,1,.942.942V42.57l5.59-4.487a.943.943,0,0,1,.59-.207h14.51a.266.266,0,0,0,.263-.261v-8.6a.266.266,0,0,0-.263-.261H27.93a.263.263,0,0,0-.263.261v8.6a.269.269,0,0,0,.263.261ZM37.9,34.258h11.47a.942.942,0,1,0,0-1.884H37.9a.942.942,0,1,0,0,1.884Zm-4.009,0a.942.942,0,0,0,0-1.884H31.35a.942.942,0,1,0,0,1.884Z" transform="translate(-0.433 -26.872)" fill="#29abe2"/>
      </g>
      <path id="Path_9391" data-name="Path 9391" d="M23.039,66.643A2.139,2.139,0,0,1,21.492,68.7v.286a.589.589,0,0,1-1.177,0V68.7a2.131,2.131,0,0,1-1.2-.884.589.589,0,1,1,.985-.645.958.958,0,1,0,.8-1.482,2.136,2.136,0,0,1-.589-4.188v-.286a.589.589,0,0,1,1.177,0V61.5a2.131,2.131,0,0,1,1.2.884.589.589,0,1,1-.985.645.958.958,0,1,0-.8,1.482A2.138,2.138,0,0,1,23.039,66.643ZM20.9,58.158A6.939,6.939,0,1,0,27.842,65.1,6.946,6.946,0,0,0,20.9,58.158Zm0,12.7A5.761,5.761,0,1,1,26.665,65.1,5.768,5.768,0,0,1,20.9,70.858Z" transform="translate(2.685 -24.554)" fill="#29abe2"/>
    </g>
  </g>
</svg>
