<svg id="Group_7118" data-name="Group 7118" xmlns="http://www.w3.org/2000/svg" width="100" height="50.493" viewBox="0 0 100 50.493">
  <g id="Group_270" data-name="Group 270" transform="translate(39.031 33.654)">
    <g id="Group_269" data-name="Group 269">
      <path id="Path_336" data-name="Path 336" d="M910.179,596.026a1.444,1.444,0,0,1-.04.178V596A.346.346,0,0,1,910.179,596.026Z" transform="translate(-910.139 -595.997)" fill="#707070"/>
    </g>
  </g>
  <g id="Group_271" data-name="Group 271" transform="translate(0 6.573)">
    <path id="Path_337" data-name="Path 337" d="M759.786,629.223a2.148,2.148,0,0,0-1.6.7,2.48,2.48,0,0,0,0,3.362,2.241,2.241,0,0,0,3.223,0,2.479,2.479,0,0,0,0-3.362A2.159,2.159,0,0,0,759.786,629.223Z" transform="translate(-752.07 -594.519)" fill="#707070"/>
    <path id="Path_338" data-name="Path 338" d="M786.213,629.223a2.13,2.13,0,0,0-1.607.7,2.443,2.443,0,0,0,0,3.362,2.108,2.108,0,0,0,1.607.684,2.143,2.143,0,0,0,1.62-.684,2.479,2.479,0,0,0,0-3.362A2.165,2.165,0,0,0,786.213,629.223Z" transform="translate(-772.669 -594.519)" fill="#707070"/>
    <path id="Path_339" data-name="Path 339" d="M1054.812,614.806a2.145,2.145,0,0,0-1.607.684,2.346,2.346,0,0,0-.67,1.691,2.31,2.31,0,0,0,.67,1.676,2.216,2.216,0,0,0,3.223,0,2.3,2.3,0,0,0,.657-1.676,2.332,2.332,0,0,0-.657-1.691A2.149,2.149,0,0,0,1054.812,614.806Z" transform="translate(-982.181 -583.41)" fill="#707070"/>
    <path id="Path_340" data-name="Path 340" d="M747.785,511.286a15,15,0,0,0,12.282-6.674,16.026,16.026,0,0,0,2.517-6.421,4.7,4.7,0,0,0-1.143-3.52c-1.491-1.729-3.873-2.06-5.953-2.43-1.074-.2-2.364-.135-3.087-1.152a5.659,5.659,0,0,1-.77-3.372,6.877,6.877,0,0,1,1.059-3.462,6.725,6.725,0,0,1,2.457-2.295,6.186,6.186,0,0,1,2.932-.741,6.254,6.254,0,0,1,3.265.932,6.627,6.627,0,0,1,1.389,1.134,6.982,6.982,0,0,1,.914,1.245,1.482,1.482,0,0,0,.619.632,1.185,1.185,0,0,0,.431.113l2.341-.941-.335-.8a9.389,9.389,0,0,0-15.347-2.752,10.006,10.006,0,0,0-.879,1.028,10.357,10.357,0,0,0-1.9,7.723c.313,2.02,1.192,4.459,3.069,5.4,1.549.775,3.4.681,5,1.163a4.856,4.856,0,0,1,1.46.686,2.326,2.326,0,0,1,.994,2.43,12.087,12.087,0,0,1-10.376,8.729,11.4,11.4,0,0,1-2.381-.051,12.013,12.013,0,0,1-8.07-4.887,12.617,12.617,0,0,1-2.3-8.86,14.427,14.427,0,0,1,1.436-4.583c-.082.107-1.076-.453-1.181-.5-.462-.229-1.023-.673-1.551-.464a1.266,1.266,0,0,0-.7.732,16.05,16.05,0,0,0-1.154,4.428,16.667,16.667,0,0,0-.1,2.395,15.951,15.951,0,0,0,3.209,9.155,15.493,15.493,0,0,0,1.676,1.887,14.652,14.652,0,0,0,8.356,3.982A13.935,13.935,0,0,0,747.785,511.286Z" transform="translate(-732.721 -477.917)" fill="#707070"/>
    <path id="Path_341" data-name="Path 341" d="M1050.758,521.8c-.009,0-.009,0-.018,0a14.591,14.591,0,0,0-.621-1.345,9.733,9.733,0,0,0-8.354-5.045,9.47,9.47,0,0,0-7.6,3.891,10.345,10.345,0,0,0,.284,12.649h-3.507a8.647,8.647,0,0,1-3.764-.728c-.182-.087-1.056-.5-1.056-.748v-9.122h-2.273a1.168,1.168,0,0,0-.91.391,1.285,1.285,0,0,0-.364.95v5.8a3.8,3.8,0,0,1-.781,2.486,3.243,3.243,0,0,1-2.677.972h-6.227l.59,3.546h6.778a7.131,7.131,0,0,0,3.294-.684,4.387,4.387,0,0,0,1.886-1.633,3.932,3.932,0,0,0,1.234,1.09,7.881,7.881,0,0,0,3.764,1.2l10.707-.015c.044,0,.075,0,.16.007a10,10,0,0,0,1.629-.06,11.143,11.143,0,0,0,2.943-.852l.781-.32-.928-2.177a.811.811,0,0,0-.684-.495,2.642,2.642,0,0,0-.772.12l-.852.271a6.256,6.256,0,0,1-1.656.22,6.173,6.173,0,0,1-1.638-.22,6.543,6.543,0,0,1-4.27-3.826,6.89,6.89,0,0,1-.541-2.681,6.605,6.605,0,0,1,6.449-6.727,6.419,6.419,0,0,1,4.91,2.355,7.456,7.456,0,0,1,.856,1.494,2.418,2.418,0,0,0,.932,1.238c.537.258.959-.064,1.456-.251.449-.166.888-.342,1.336-.508C1051.255,523.042,1050.776,521.881,1050.758,521.8Z" transform="translate(-951.255 -506.81)" fill="#707070"/>
    <path id="Path_342" data-name="Path 342" d="M853.71,551.724a9.712,9.712,0,0,1-5.22-1.065c-.133-.082-.475-.211-.475-.41v-9.177h-2.277a1.2,1.2,0,0,0-.888.4,1.411,1.411,0,0,0-.386.979v9.441a11,11,0,0,1-11.226,10.844,11.675,11.675,0,0,0-1.438-.078h-.009a1.369,1.369,0,0,0-.75.38c-.284.286-.262.883-.324,1.263-.071.5-.146.994-.222,1.491l.825.1c.688.046,1.376.135,2.073.135a14.3,14.3,0,0,0,4.936-.879c.036-.013.067-.022.1-.033l.258-.1a15.579,15.579,0,0,0,9.171-10.513c.031-.113.239-.768.155-.839a.286.286,0,0,0,.036.031,6.457,6.457,0,0,0,2.37,1.192,9.962,9.962,0,0,0,1.86.355v.024h8.749l.577-3.547h-4.3C856.107,551.724,854.909,551.722,853.71,551.724Z" transform="translate(-808.987 -526.587)" fill="#707070"/>
  </g>
  <g id="Group_272" data-name="Group 272" transform="translate(47.564 0)">
    <path id="Path_343" data-name="Path 343" d="M999.621,454a2.175,2.175,0,0,0,1.611-.684,2.378,2.378,0,0,0,.666-1.689,2.352,2.352,0,0,0-.666-1.689,2.246,2.246,0,0,0-3.227,0,2.325,2.325,0,0,0-.657,1.689,2.35,2.35,0,0,0,.657,1.689A2.191,2.191,0,0,0,999.621,454Z" transform="translate(-986.698 -449.259)" fill="#707070"/>
    <path id="Path_344" data-name="Path 344" d="M969.236,454a2.194,2.194,0,0,0,1.62-.684,2.4,2.4,0,0,0,.652-1.689,2.377,2.377,0,0,0-.652-1.689,2.194,2.194,0,0,0-1.62-.684,2.171,2.171,0,0,0-1.607.684,2.335,2.335,0,0,0-.67,1.689,2.36,2.36,0,0,0,.67,1.689A2.171,2.171,0,0,0,969.236,454Z" transform="translate(-962.995 -449.259)" fill="#707070"/>
    <path id="Path_345" data-name="Path 345" d="M958.533,479.229a9.818,9.818,0,0,0-9.6,10,10.1,10.1,0,0,0,4.337,8.356l2.366-2.463a6.775,6.775,0,0,1-1.593-10.576,6.169,6.169,0,0,1,4.487-1.94,6.5,6.5,0,0,1,6.352,6.623,6.719,6.719,0,0,1-1.86,4.683,6.465,6.465,0,0,1-1.625,1.229c.786.821,1.572,1.647,2.37,2.461a9.705,9.705,0,0,0,1.545-1.3,10.152,10.152,0,0,0,2.814-7.071A9.818,9.818,0,0,0,958.533,479.229Z" transform="translate(-948.936 -472.355)" fill="#707070"/>
  </g>
  <path id="Path_346" data-name="Path 346" d="M979,555.255l1.23-1.28-2.139-2.23-2.139,2.23,1.234,1.287-3.161,19.231,4.066,4.239,4.084-4.257Z" transform="translate(-920.942 -528.239)" fill="#707070"/>
</svg>
