<svg xmlns="http://www.w3.org/2000/svg" xmlns:xlink="http://www.w3.org/1999/xlink" width="90" height="90" viewBox="0 0 90 90">
  <defs>
    <clipPath id="clip-path">
      <rect id="Rectangle_3726" data-name="Rectangle 3726" width="49.554" height="49.663" fill="none"/>
    </clipPath>
  </defs>
  <g id="Group_7059" data-name="Group 7059" transform="translate(-638 -2374)">
    <g id="Ellipse_187" data-name="Ellipse 187" transform="translate(638 2374)" fill="#fff" stroke="#29abe2" stroke-width="1" stroke-dasharray="3">
      <circle cx="45" cy="45" r="45" stroke="none"/>
      <circle cx="45" cy="45" r="44.5" fill="none"/>
    </g>
    <g id="Group_5644" data-name="Group 5644" transform="translate(658 2394.169)">
      <g id="Group_5643" data-name="Group 5643" transform="translate(0 0)" clip-path="url(#clip-path)">
        <path id="Path_11045" data-name="Path 11045" d="M49.554,22.224a11.069,11.069,0,0,0-9.6-11.12V2.793A2.8,2.8,0,0,0,37.161,0H2.793A2.8,2.8,0,0,0,0,2.793v31.7a2.967,2.967,0,0,0,2.895,2.894l32.358.04-.97,7.891a3.918,3.918,0,0,0,3.466,4.323q.19.02.382.023h.047a3.914,3.914,0,0,0,3.919-3.91c0-.117-.005-.234-.016-.35l-.815-8.272a1.31,1.31,0,0,0-.659-1.025l.031-3.158a11.11,11.11,0,0,0,8.917-10.724ZM37.487,35.889l.031-2.77c.271.023.543.039.822.047h.14c.225,0,.442-.031.659-.039l-.031,2.786Zm10.561-13.68a9.6,9.6,0,0,1-8.435,9.39,8.4,8.4,0,0,1-1.257.069,9.737,9.737,0,0,1-1.266-.1,9.575,9.575,0,0,1,1.382-19.05H38.6A9.578,9.578,0,0,1,48.048,22.209ZM2.793,1.505H37.16a1.289,1.289,0,0,1,1.289,1.288V7.224H1.505V2.793A1.285,1.285,0,0,1,2.786,1.505ZM1.505,34.484V8.082H38.441v2.929a11.075,11.075,0,0,0-2.429,21.875l-.031,3.034L2.895,35.882a1.471,1.471,0,0,1-1.389-1.4ZM39.947,47.389a2.414,2.414,0,0,1-4.167-1.9l1-8.1,3.011.039.8,8.116a2.454,2.454,0,0,1-.644,1.848Z" transform="translate(0 0)" fill="#407bff"/>
        <path id="Path_11046" data-name="Path 11046" d="M49.805,24.362A7.717,7.717,0,0,0,55.1,37.607h.1a7.718,7.718,0,1,0-5.393-13.245Zm9.731,9.987a6.282,6.282,0,1,1,.018-.018l-.018.018" transform="translate(-16.725 -7.811)" fill="#407bff"/>
        <path id="Path_11047" data-name="Path 11047" d="M12.98,17.721h-6.7a.748.748,0,0,0-.753.744v6.721a.748.748,0,0,0,.744.753h6.72a.749.749,0,0,0,.753-.744V18.474A.759.759,0,0,0,12.98,17.721Zm-.1,7.352h-6.5v-6.5h6.5Z" transform="translate(-1.946 -6.243)" fill="#407bff"/>
        <path id="Path_11048" data-name="Path 11048" d="M32.621,67.237l-7.162-3.453c-.016-.008-.023-.008-.039-.015a.7.7,0,0,0-.28-.054H.753A.748.748,0,0,0,0,64.458v6.906a.747.747,0,0,0,.749.745H25.126c.008,0,.016-.008.031-.008a.731.731,0,0,0,.272-.062.027.027,0,0,0,.023-.008l7.163-3.445a.75.75,0,0,0,.007-1.35Zm-8.249.57H6.774v-2.6h17.6ZM1.5,65.211H5.268V70.6H1.5ZM6.773,70.6v-1.94h17.6V70.6Zm19.1-.442V65.653l4.68,2.258Z" transform="translate(0 -22.447)" fill="#407bff"/>
        <path id="Path_11049" data-name="Path 11049" d="M12.98,34.721h-6.7a.748.748,0,0,0-.753.744v6.721a.748.748,0,0,0,.744.753h6.72a.749.749,0,0,0,.753-.744V35.474A.759.759,0,0,0,12.98,34.721Zm-.1,7.352h-6.5v-6.5h6.5Z" transform="translate(-1.946 -12.233)" fill="#407bff"/>
        <line id="Line_247" data-name="Line 247" x2="10.946" transform="translate(12.936 12.835)" fill="none" stroke="#407bff" stroke-linecap="round" stroke-linejoin="round" stroke-width="1"/>
        <line id="Line_248" data-name="Line 248" x2="10.946" transform="translate(12.936 15.588)" fill="none" stroke="#407bff" stroke-linecap="round" stroke-linejoin="round" stroke-width="1"/>
        <line id="Line_249" data-name="Line 249" x2="5.181" transform="translate(12.936 18.341)" fill="none" stroke="#407bff" stroke-linecap="round" stroke-linejoin="round" stroke-width="1"/>
        <line id="Line_250" data-name="Line 250" x2="10.946" transform="translate(12.936 23.198)" fill="none" stroke="#407bff" stroke-linecap="round" stroke-linejoin="round" stroke-width="1"/>
        <line id="Line_251" data-name="Line 251" x2="10.946" transform="translate(12.936 25.951)" fill="none" stroke="#407bff" stroke-linecap="round" stroke-linejoin="round" stroke-width="1"/>
        <line id="Line_252" data-name="Line 252" x2="5.181" transform="translate(12.936 28.704)" fill="none" stroke="#407bff" stroke-linecap="round" stroke-linejoin="round" stroke-width="1"/>
        <line id="Line_253" data-name="Line 253" x2="10.946" transform="translate(5.935 4.228)" fill="none" stroke="#407bff" stroke-linecap="round" stroke-linejoin="round" stroke-width="1"/>
        <line id="Line_254" data-name="Line 254" x2="1.354" transform="translate(29.128 4.228)" fill="none" stroke="#407bff" stroke-linecap="round" stroke-linejoin="round" stroke-width="1"/>
        <line id="Line_255" data-name="Line 255" x2="1.354" transform="translate(31.718 4.228)" fill="none" stroke="#407bff" stroke-linecap="round" stroke-linejoin="round" stroke-width="1"/>
        <line id="Line_256" data-name="Line 256" x2="1.354" transform="translate(34.309 4.228)" fill="none" stroke="#407bff" stroke-linecap="round" stroke-linejoin="round" stroke-width="1"/>
      </g>
    </g>
  </g>
</svg>
