<svg xmlns="http://www.w3.org/2000/svg" xmlns:xlink="http://www.w3.org/1999/xlink" width="86" height="86" viewBox="0 0 86 86">
  <defs>
    <clipPath id="clip-path">
      <path id="Path_10284" data-name="Path 10284" d="M0-682.665H55.682v55.682H0Z" transform="translate(0 682.665)" fill="#29abe2"/>
    </clipPath>
  </defs>
  <g id="Group_7070" data-name="Group 7070" transform="translate(-462 -4027)">
    <circle id="Ellipse_155" data-name="Ellipse 155" cx="43" cy="43" r="43" transform="translate(462 4027)" fill="#fff"/>
    <g id="graphic_interface" data-name="graphic interface" transform="translate(477 4042)">
      <g id="Group_5509" data-name="Group 5509" transform="translate(0 0)" clip-path="url(#clip-path)">
        <path id="Path_10261" data-name="Path 10261" d="M9.668-59.277H1.062A1.814,1.814,0,0,1-.75-61.089V-65.4a1.847,1.847,0,0,1,1.845-1.845H9.635A1.847,1.847,0,0,1,11.48-65.4v4.312A1.814,1.814,0,0,1,9.668-59.277Zm-8.573-6.5a.38.38,0,0,0-.379.379v4.312a.347.347,0,0,0,.347.347H9.668a.347.347,0,0,0,.347-.347V-65.4a.38.38,0,0,0-.379-.379Z" transform="translate(19.948 90.349)" fill="#29abe2"/>
        <path id="Path_10262" data-name="Path 10262" d="M-139.7-219.241h-8.2a.733.733,0,0,1-.557-.257l-4.2-4.923a.733.733,0,0,1-.08-.838l8.3-14.611a.733.733,0,0,1,.637-.371.733.733,0,0,1,.637.371l8.3,14.611a.733.733,0,0,1-.08.838l-4.2,4.923A.733.733,0,0,1-139.7-219.241Zm-7.866-1.465h7.528l3.649-4.275-7.413-13.043-7.413,13.043Z" transform="translate(169.117 243.809)" fill="#29abe2"/>
        <path id="Path_10263" data-name="Path 10263" d="M-.017,11.8a.733.733,0,0,1-.733-.733V-.017A.733.733,0,0,1-.017-.75a.733.733,0,0,1,.733.733V11.067A.733.733,0,0,1-.017,11.8Z" transform="translate(25.33 4.629)" fill="#29abe2"/>
        <path id="Path_10264" data-name="Path 10264" d="M-43.191-23.27A2.572,2.572,0,0,1-40.623-20.7a2.572,2.572,0,0,1-2.568,2.569A2.572,2.572,0,0,1-45.759-20.7,2.572,2.572,0,0,1-43.191-23.27Zm0,3.674a1.1,1.1,0,0,0,1.1-1.1,1.1,1.1,0,0,0-1.1-1.1,1.1,1.1,0,0,0-1.1,1.1A1.1,1.1,0,0,0-43.191-19.6Z" transform="translate(68.504 38.233)" fill="#29abe2"/>
        <path id="Path_10265" data-name="Path 10265" d="M13.72.715H-.017A.733.733,0,0,1-.75-.017.733.733,0,0,1-.017-.75H13.72a.733.733,0,0,1,.733.733A.733.733,0,0,1,13.72.715Z" transform="translate(27.149 2.649)" fill="#29abe2"/>
        <path id="Path_10266" data-name="Path 10266" d="M13.72.715H-.017A.733.733,0,0,1-.75-.017.733.733,0,0,1-.017-.75H13.72a.733.733,0,0,1,.733.733A.733.733,0,0,1,13.72.715Z" transform="translate(9.775 2.649)" fill="#29abe2"/>
        <path id="Path_10267" data-name="Path 10267" d="M292.762-667.234h-3.423a.733.733,0,0,1-.733-.733v-3.422a.733.733,0,0,1,.733-.733h3.423a.733.733,0,0,1,.733.733v3.422A.733.733,0,0,1,292.762-667.234Zm-2.691-1.465h1.958v-1.957h-1.958Z" transform="translate(-265.738 672.31)" fill="#29abe2"/>
        <path id="Path_10268" data-name="Path 10268" d="M-42.756-23.019a2.552,2.552,0,0,1,2.55,2.549,2.552,2.552,0,0,1-2.55,2.549,2.552,2.552,0,0,1-2.55-2.549A2.552,2.552,0,0,1-42.756-23.019Zm0,3.633a1.085,1.085,0,0,0,1.084-1.084,1.085,1.085,0,0,0-1.084-1.084,1.085,1.085,0,0,0-1.085,1.084A1.085,1.085,0,0,0-42.756-19.386Z" transform="translate(50.696 23.102)" fill="#29abe2"/>
        <path id="Path_10269" data-name="Path 10269" d="M-42.755-23.019a2.552,2.552,0,0,1,2.55,2.549,2.552,2.552,0,0,1-2.55,2.549A2.552,2.552,0,0,1-45.3-20.47,2.552,2.552,0,0,1-42.755-23.019Zm0,3.633A1.085,1.085,0,0,0-41.67-20.47a1.085,1.085,0,0,0-1.084-1.084,1.085,1.085,0,0,0-1.084,1.084A1.085,1.085,0,0,0-42.755-19.386Z" transform="translate(85.441 23.102)" fill="#29abe2"/>
        <path id="Path_10270" data-name="Path 10270" d="M-285.985-330.9h-22.827a3.3,3.3,0,0,1-3.3-3.3v-24.322a3.3,3.3,0,0,1,3.3-3.3h19.8a.733.733,0,0,1,.733.733.733.733,0,0,1-.733.733h-19.8a1.836,1.836,0,0,0-1.837,1.831V-334.2a1.836,1.836,0,0,0,1.837,1.831h22.827a.733.733,0,0,1,.733.733A.733.733,0,0,1-285.985-330.9Z" transform="translate(312.183 368.692)" fill="#29abe2"/>
        <path id="Path_10271" data-name="Path 10271" d="M22.457,24.23a.733.733,0,0,1-.733-.733V2.547A1.836,1.836,0,0,0,19.888.715H-.017A.733.733,0,0,1-.75-.017.733.733,0,0,1-.017-.75h19.9a3.3,3.3,0,0,1,3.3,3.3V23.5A.733.733,0,0,1,22.457,24.23Z" transform="translate(27.368 7.627)" fill="#29abe2"/>
        <path id="Path_10272" data-name="Path 10272" d="M49.006.715H-.017A.733.733,0,0,1-.75-.017.733.733,0,0,1-.017-.75H49.006a.733.733,0,0,1,.733.733A.733.733,0,0,1,49.006.715Z" transform="translate(0.819 30.344)" fill="#29abe2"/>
        <path id="Path_10273" data-name="Path 10273" d="M-118.01-33.052h-10.479a.733.733,0,0,1-.733-.733,3.736,3.736,0,0,1,3.732-3.732h7.48a.733.733,0,0,1,.733.733.733.733,0,0,1-.733.733h-7.48a2.27,2.27,0,0,0-2.145,1.534h9.625a.733.733,0,0,1,.733.733A.733.733,0,0,1-118.01-33.052Z" transform="translate(144.208 80.601)" fill="#29abe2"/>
        <path id="Path_10274" data-name="Path 10274" d="M-.016-75.364a.738.738,0,0,1-.077,0,.733.733,0,0,1-.653-.8l.7-6.757a.733.733,0,0,1,.729-.657H5.7a.733.733,0,0,1,.733.733.733.733,0,0,1-.733.733H1.347l-.636,6.1A.733.733,0,0,1-.016-75.364Z" transform="translate(20.515 119.913)" fill="#29abe2"/>
        <path id="Path_10275" data-name="Path 10275" d="M-231.117,21.856h-26.348a1.888,1.888,0,0,1-1.885-1.886V1.136A1.888,1.888,0,0,1-257.465-.75h19.94a.733.733,0,0,1,.733.733.733.733,0,0,1-.733.733h-19.94a.421.421,0,0,0-.42.42V19.97a.421.421,0,0,0,.42.42h26.348a.421.421,0,0,0,.42-.42V1.136a.421.421,0,0,0-.42-.42h-2.4a.733.733,0,0,1-.733-.733.733.733,0,0,1,.733-.733h2.4a1.888,1.888,0,0,1,1.886,1.886V19.97A1.888,1.888,0,0,1-231.117,21.856Z" transform="translate(284.816 33.743)" fill="#29abe2"/>
        <path id="Path_10276" data-name="Path 10276" d="M-.017,21.856a.733.733,0,0,1-.733-.733V-.017A.733.733,0,0,1-.017-.75a.733.733,0,0,1,.733.733V21.123A.733.733,0,0,1-.017,21.856Z" transform="translate(32.234 33.743)" fill="#29abe2"/>
        <path id="Path_10277" data-name="Path 10277" d="M-.017,2.838A.733.733,0,0,1-.75,2.106V-.017A.733.733,0,0,1-.017-.75a.733.733,0,0,1,.733.733V2.106A.733.733,0,0,1-.017,2.838Z" transform="translate(29.158 49.188)" fill="#29abe2"/>
        <path id="Path_10278" data-name="Path 10278" d="M-8.872-18.369a.816.816,0,0,0,0-1.631.816.816,0,0,0,0,1.631" transform="translate(38.012 65.131)" fill="#29abe2"/>
        <path id="Path_10279" data-name="Path 10279" d="M-8.872-18.369a.816.816,0,0,0,0-1.631.816.816,0,0,0,0,1.631" transform="translate(38.012 61.829)" fill="#29abe2"/>
        <path id="Path_10280" data-name="Path 10280" d="M-.017-23.19a.733.733,0,0,1-.733-.733v-2.123a.733.733,0,0,1,.733-.733.733.733,0,0,1,.733.733v2.123A.733.733,0,0,1-.017-23.19Z" transform="translate(29.158 63.343)" fill="#29abe2"/>
        <path id="Path_10281" data-name="Path 10281" d="M-146.373-27.3a1.261,1.261,0,0,1,.9.373l1.245,1.249a1.26,1.26,0,0,1,.37.9,1.26,1.26,0,0,1-.374.9l-10.85,10.854a.733.733,0,0,1-.519.215.733.733,0,0,1-.518-.215l-2-2.009a.733.733,0,0,1,0-1.035l10.851-10.856A1.262,1.262,0,0,1-146.373-27.3Zm.968,2.518-.968-.971-10.194,10.2.968.971Z" transform="translate(199.007 55.167)" fill="#29abe2"/>
        <path id="Path_10282" data-name="Path 10282" d="M-28.489-8.257a.733.733,0,0,1-.519-.215l-.261-.262a.733.733,0,0,1-.214-.528,6.235,6.235,0,0,1,1.53-3.558.733.733,0,0,1,.526-.243.733.733,0,0,1,.538.215l2,2.009a.733.733,0,0,1,.213.538.733.733,0,0,1-.244.525,6.231,6.231,0,0,1-3.564,1.518Zm1.164-2.953a4.626,4.626,0,0,0-.625,1.423,4.622,4.622,0,0,0,1.425-.62Z" transform="translate(68.813 51.945)" fill="#29abe2"/>
        <path id="Path_10283" data-name="Path 10283" d="M-.017-12.6a.73.73,0,0,1-.518-.215.733.733,0,0,1,0-1.036L.648-15.037a.733.733,0,0,1,1.036,0,.733.733,0,0,1,0,1.036L.5-12.818A.73.73,0,0,1-.017-12.6Z" transform="translate(53.657 42.72)" fill="#29abe2"/>
      </g>
    </g>
  </g>
</svg>
