<svg xmlns="http://www.w3.org/2000/svg" width="86" height="86" viewBox="0 0 86 86">
  <g id="Group_7068" data-name="Group 7068" transform="translate(-391 -3909)">
    <circle id="Ellipse_156" data-name="Ellipse 156" cx="43" cy="43" r="43" transform="translate(391 3909)" fill="#fff"/>
    <g id="DS_referance" data-name="DS referance" transform="translate(407 3929)">
      <path id="Path_10254" data-name="Path 10254" d="M50.463,6H5.339A4.344,4.344,0,0,0,1,10.339V38.108a4.344,4.344,0,0,0,4.339,4.339H22.695v3.471h-2.6a2.6,2.6,0,0,0,0,5.207h15.62a2.6,2.6,0,0,0,0-5.207h-2.6V42.447H43.8L47.4,46.038a3.318,3.318,0,0,0,5.15-4.128,4.322,4.322,0,0,0,2.256-3.8V10.339A4.344,4.344,0,0,0,50.463,6ZM5.339,7.736H50.463a2.6,2.6,0,0,1,2.444,1.736H2.9A2.6,2.6,0,0,1,5.339,7.736Zm31.24,40.786a.868.868,0,0,1-.868.868H20.091a.868.868,0,0,1,0-1.736h15.62A.868.868,0,0,1,36.579,48.521Zm-5.207-2.6H24.43V42.447h6.942ZM5.339,40.711a2.6,2.6,0,0,1-2.6-2.6V37.24H28.846A10.327,10.327,0,0,0,40.18,38.821l1.889,1.89ZM35.711,20.752a8.678,8.678,0,1,1-8.678,8.678,8.678,8.678,0,0,1,8.678-8.678ZM49.744,45.275a1.583,1.583,0,0,1-1.122-.464l-6.895-6.9A10.483,10.483,0,0,0,44,35.7l6.863,6.864a1.587,1.587,0,0,1-1.123,2.708Zm1.575-4.71L44.957,34.2a10.355,10.355,0,0,0-2.38-12.583h.945V19.884H39.86a10.352,10.352,0,0,0-8.3,0H21.827V21.62h7.019a10.5,10.5,0,0,0-1.576,1.736H21.827v1.736h4.43A10.322,10.322,0,0,0,27.27,35.5H2.736v-24.3H53.067V35.5H48.728V37.24h4.339v.868a2.593,2.593,0,0,1-1.748,2.457Z" transform="translate(-1 -6)" fill="#29abe2"/>
      <path id="Path_10255" data-name="Path 10255" d="M12.255,14.146l-7.81,5.207L5.408,20.8l1.254-.837v6.189a.868.868,0,0,0,.868.868H11a.868.868,0,0,0,.868-.868V22.678H13.6v3.471a.868.868,0,0,0,.868.868h3.471a.868.868,0,0,0,.868-.868V19.96l1.254.837.963-1.444-7.81-5.207A.868.868,0,0,0,12.255,14.146Zm4.821,11.135H15.34V21.81a.868.868,0,0,0-.868-.868H11a.868.868,0,0,0-.868.868v3.471H8.4V18.8l4.339-2.894L17.076,18.8Zm34.711-6.942V14.868A.868.868,0,0,0,50.919,14H23.15a.868.868,0,0,0-.868.868v3.471a.868.868,0,0,0,.868.868H50.919A.868.868,0,0,0,51.787,18.339Zm-27.769-2.6H46.58v1.736H24.018Zm26.033,1.736H48.316V15.736h1.736Zm-4.339,3.471v0Zm.868,3.471v0ZM36.167,37.43a6.942,6.942,0,1,0-6.942-6.942,6.942,6.942,0,0,0,6.942,6.942Zm0-12.149a5.207,5.207,0,1,1-5.207,5.207,5.207,5.207,0,0,1,5.207-5.207Z" transform="translate(-1.455 -7.058)" fill="#29abe2"/>
    </g>
  </g>
</svg>
