<svg xmlns="http://www.w3.org/2000/svg" xmlns:xlink="http://www.w3.org/1999/xlink" width="90" height="90" viewBox="0 0 90 90">
  <defs>
    <clipPath id="clip-path">
      <rect id="Rectangle_3725" data-name="Rectangle 3725" width="51.149" height="52.37" fill="none"/>
    </clipPath>
  </defs>
  <g id="Group_7058" data-name="Group 7058" transform="translate(-255 -1934)">
    <g id="Ellipse_185" data-name="Ellipse 185" transform="translate(255 1934)" fill="#fff" stroke="#29abe2" stroke-width="1" stroke-dasharray="3">
      <circle cx="45" cy="45" r="45" stroke="none"/>
      <circle cx="45" cy="45" r="44.5" fill="none"/>
    </g>
    <g id="UX" transform="translate(274 1955.564)">
      <g id="Group_5642" data-name="Group 5642" transform="translate(0 0)" clip-path="url(#clip-path)">
        <path id="Path_11038" data-name="Path 11038" d="M27.865,5.652a.873.873,0,0,0,0-1.746h-9.82a.873.873,0,0,0,0,1.746Z" transform="translate(2.014 0.458)" fill="#407bff"/>
        <path id="Path_11039" data-name="Path 11039" d="M16.737,32.728,12.884,31.2a.252.252,0,0,1-.112-.335l3.258-8.207a2.718,2.718,0,0,0-1.461-3.531l-.083-.034a2.706,2.706,0,0,0-3.442,1.452L7.365,28.852l-.007-2.525a5.564,5.564,0,0,0-.864-2.412,5.456,5.456,0,0,0-1.735-1.7,1.829,1.829,0,0,0-2.724,1.322L.647,30.808a.878.878,0,0,0-.016.153L.554,37.7l.24,3.665L.02,44.954a.873.873,0,0,0,.531,1L10.977,50.09a.874.874,0,0,0,1.069-.361l1.928-3.194,3.42-4.207c.821-.978,1.117-4.772,1.425-5.984a3.423,3.423,0,0,0-2.092-3.621Zm-.4,7.7a2.355,2.355,0,0,1-.335.863l-3.416,4.2a.887.887,0,0,0-.07.1L10.94,48.2,1.89,44.6c0-.066.741-3.268.663-3.223l-.247-3.719.078-6.592,1.384-7.262a.1.1,0,0,1,.082-.095,3.828,3.828,0,0,1,1.769,2.694l.015,5.442a1.109,1.109,0,0,0,2.123.447l4.886-11.032a.96.96,0,0,1,1.2-.546l.082.034a.965.965,0,0,1,.486,1.265l-3.258,8.207a2,2,0,0,0,1.085,2.6l3.852,1.53a1.666,1.666,0,0,1,1.006,1.74Z" transform="translate(0 2.219)" fill="#407bff"/>
        <path id="Path_11040" data-name="Path 11040" d="M38.65,10.474c-.289,0-.581.015-.873.037V4.693A4.587,4.587,0,0,0,33.317,0H14.305a4.587,4.587,0,0,0-4.46,4.693V18.784a.873.873,0,1,0,1.746,0V4.693a2.844,2.844,0,0,1,2.715-2.951H33.318a2.844,2.844,0,0,1,2.714,2.951v6.095c-11.579,2.827-11.57,19.242,0,22.064v3.808H20.284a.873.873,0,0,0,0,1.746H36.031A2.979,2.979,0,0,1,33.62,41.86a3.029,3.029,0,0,1-.3.038H19.594a.873.873,0,0,0,0,1.746H33.317a4.587,4.587,0,0,0,4.46-4.693V33.136A11.346,11.346,0,1,0,39.52,10.511q-.434-.034-.87-.034Zm0,20.949a9.6,9.6,0,0,1-9.6-9.6c.485-12.745,18.7-12.724,19.2,0a9.609,9.609,0,0,1-9.6,9.6Z" transform="translate(1.154 0)" fill="#407bff"/>
        <path id="Path_11041" data-name="Path 11041" d="M33.675,17.28a.873.873,0,0,0-.873-.873H30.808a.873.873,0,1,0,0,1.746H32.8a.873.873,0,0,0,.873-.873Z" transform="translate(3.51 1.924)" fill="#407bff"/>
        <path id="Path_11042" data-name="Path 11042" d="M40.835,16.407h-2a.873.873,0,1,0,0,1.746h2a.873.873,0,0,0,0-1.746" transform="translate(4.452 1.924)" fill="#407bff"/>
        <path id="Path_11043" data-name="Path 11043" d="M40.544,20.313H31.815a.873.873,0,0,0-.873.873,4.486,4.486,0,0,0,3.2,4.888c3.077,1.244,7.393-.867,7.279-4.017v-.873a.873.873,0,0,0-.873-.871M36.18,24.677c-1.572.074-3.554-1.109-3.491-2.619h6.983c0,1.445-1.566,2.619-3.491,2.619" transform="translate(3.624 2.383)" fill="#407bff"/>
        <path id="Path_11044" data-name="Path 11044" d="M14.624,16.176a.873.873,0,0,0,0,1.746h8.729a.873.873,0,0,0,.873-.873V11.812a.873.873,0,0,0-.873-.873H14.624a.873.873,0,1,0,0,1.746h7.856v3.491Z" transform="translate(1.613 1.283)" fill="#407bff"/>
      </g>
    </g>
  </g>
</svg>
