<svg xmlns="http://www.w3.org/2000/svg" width="86" height="86" viewBox="0 0 86 86">
  <g id="Group_7064" data-name="Group 7064" transform="translate(-640 -3573)">
    <g id="Group_5520" data-name="Group 5520">
      <circle id="Ellipse_159" data-name="Ellipse 159" cx="43" cy="43" r="43" transform="translate(640 3573)" fill="#fff"/>
      <g id="edit" transform="translate(654 3587)">
        <path id="Path_10221" data-name="Path 10221" d="M61.866,64H11.223A3.226,3.226,0,0,0,8,67.223v34.99a3.226,3.226,0,0,0,3.223,3.223H28.878l-1.314,4.6h-3.91a.921.921,0,0,0-.921.921v2.762a.921.921,0,0,0,.921.921H49.436a.921.921,0,0,0,.921-.921V110.96a.921.921,0,0,0-.921-.921h-3.91l-1.314-4.6H61.866a3.226,3.226,0,0,0,3.223-3.223V67.223A3.226,3.226,0,0,0,61.866,64ZM48.515,111.881v.921H24.574v-.921ZM29.479,110.04l1.314-4.6H42.3l1.314,4.6Zm33.769-7.827a1.382,1.382,0,0,1-1.381,1.381H11.223a1.382,1.382,0,0,1-1.381-1.381v-2.3H63.248Zm0-4.144H9.842V67.223a1.382,1.382,0,0,1,1.381-1.381H61.866a1.382,1.382,0,0,1,1.381,1.381Z" transform="translate(-8 -57.554)" fill="#29abe2"/>
        <path id="Path_10222" data-name="Path 10222" d="M40.921,117.525H44.6a.921.921,0,0,0,.921-.921v-3.683A.921.921,0,0,0,44.6,112H40.921a.921.921,0,0,0-.921.921V116.6A.921.921,0,0,0,40.921,117.525Zm.921-3.683h1.842v1.842H41.842Zm-.921,10.129H44.6a.921.921,0,0,0,.921-.921v-3.683a.921.921,0,0,0-.921-.921H40.921a.921.921,0,0,0-.921.921v3.683A.921.921,0,0,0,40.921,123.97Zm.921-3.683h1.842v1.842H41.842Zm-.921,10.129H44.6a.921.921,0,0,0,.921-.921v-3.683a.921.921,0,0,0-.921-.921H40.921a.921.921,0,0,0-.921.921V129.5A.921.921,0,0,0,40.921,130.416Zm.921-3.683h1.842v1.842H41.842Zm-.921,10.129H44.6a.921.921,0,0,0,.921-.921v-3.683a.921.921,0,0,0-.921-.921H40.921a.921.921,0,0,0-.921.921v3.683A.921.921,0,0,0,40.921,136.861Zm.921-3.683h1.842v1.842H41.842Zm43.277-15.653H88.8a.921.921,0,0,0,.921-.921v-3.683A.921.921,0,0,0,88.8,112H85.119a.921.921,0,0,0-.921.921V116.6A.921.921,0,0,0,85.119,117.525Zm.921-3.683h1.842v1.842H86.04Zm-.921,10.129H88.8a.921.921,0,0,0,.921-.921v-3.683a.921.921,0,0,0-.921-.921H85.119a.921.921,0,0,0-.921.921v3.683A.921.921,0,0,0,85.119,123.97Zm.921-3.683h1.842v1.842H86.04Zm-.921,10.129H88.8a.921.921,0,0,0,.921-.921v-3.683a.921.921,0,0,0-.921-.921H85.119a.921.921,0,0,0-.921.921V129.5A.921.921,0,0,0,85.119,130.416Zm.921-3.683h1.842v1.842H86.04Zm-.921,10.129H88.8a.921.921,0,0,0,.921-.921v-3.683a.921.921,0,0,0-.921-.921H85.119a.921.921,0,0,0-.921.921v3.683A.921.921,0,0,0,85.119,136.861Zm.921-3.683h1.842v1.842H86.04Zm-31.3-2.994-1.751,3.5a.921.921,0,0,0,.824,1.333H63.02a.921.921,0,0,0,.824-1.333l-2.511-5.021a7.361,7.361,0,1,0-6.593,1.518Zm6.791,2.994H55.3l1.383-2.765a7.322,7.322,0,0,0,3.1-.733Zm-3.873-4.711.758-1.517.542,1.083A5.486,5.486,0,0,1,57.657,128.467Zm-1.083-10.942a5.522,5.522,0,0,1,3.9,9.431l-1.238-2.476a.921.921,0,0,0-1.647,0l-2,4.005a5.524,5.524,0,0,1,.985-10.96Z" transform="translate(-36.317 -100.03)" fill="#29abe2"/>
        <path id="Path_10223" data-name="Path 10223" d="M142.522,38.41l10.6,3.113a.919.919,0,0,0,1.143-.624l3.113-10.6a.921.921,0,0,0-.624-1.143l-10.6-3.113a.921.921,0,0,0-1.143.624l-3.113,10.6a.921.921,0,0,0,.624,1.143Zm4-10.342,8.835,2.594L152.759,39.5,143.924,36.9ZM128.509,11.586l3.683,1.842a.92.92,0,0,0,.412.1h22.1A2.762,2.762,0,1,0,154.7,8H132.6a.92.92,0,0,0-.412.1l-3.683,1.842a.921.921,0,0,0,0,1.647Zm27.115-.824a.922.922,0,0,1-.921.921H135.367V9.842H154.7A.922.922,0,0,1,155.624,10.762Zm-22.8-.921h.7v1.842h-.7l-1.842-.921Z" transform="translate(-114.189 -8)" fill="#29abe2"/>
      </g>
    </g>
  </g>
</svg>
