<svg xmlns="http://www.w3.org/2000/svg" xmlns:xlink="http://www.w3.org/1999/xlink" width="86" height="86" viewBox="0 0 86 86">
  <defs>
    <clipPath id="clip-path">
      <path id="Path_10246" data-name="Path 10246" d="M0-682.665H64.581v64.581H0Z" transform="translate(0 682.665)" fill="#29abe2"/>
    </clipPath>
  </defs>
  <g id="Group_7065" data-name="Group 7065" transform="translate(-880 -3763)">
    <circle id="Ellipse_151" data-name="Ellipse 151" cx="43" cy="43" r="43" transform="translate(880 3763)" fill="#fff"/>
    <g id="sketch_wirefram" data-name="sketch wirefram" transform="translate(891 3774)">
      <g id="Group_5508" data-name="Group 5508" transform="translate(0 0)" clip-path="url(#clip-path)">
        <path id="Path_10224" data-name="Path 10224" d="M-65.217-57.167h-3.723a4.079,4.079,0,0,1-4.074-4.074,4.079,4.079,0,0,1,4.074-4.074h3.723a4.079,4.079,0,0,1,4.074,4.074A4.079,4.079,0,0,1-65.217-57.167Zm-3.723-5.99a1.918,1.918,0,0,0-1.916,1.916,1.918,1.918,0,0,0,1.916,1.916h3.723A1.918,1.918,0,0,0-63.3-61.241a1.918,1.918,0,0,0-1.916-1.916Z" transform="translate(73.197 72.163)" fill="#29abe2"/>
        <path id="Path_10225" data-name="Path 10225" d="M-65.217-57.167h-3.723a4.079,4.079,0,0,1-4.074-4.074,4.079,4.079,0,0,1,4.074-4.074h3.723a4.079,4.079,0,0,1,4.074,4.074A4.079,4.079,0,0,1-65.217-57.167Zm-3.723-5.99a1.918,1.918,0,0,0-1.916,1.916,1.918,1.918,0,0,0,1.916,1.916h3.723A1.918,1.918,0,0,0-63.3-61.241a1.918,1.918,0,0,0-1.916-1.916Z" transform="translate(73.197 82.847)" fill="#29abe2"/>
        <path id="Path_10226" data-name="Path 10226" d="M-65.217-57.167h-3.723a4.079,4.079,0,0,1-4.074-4.074,4.079,4.079,0,0,1,4.074-4.074h3.723a4.079,4.079,0,0,1,4.074,4.074A4.079,4.079,0,0,1-65.217-57.167Zm-3.723-5.99a1.918,1.918,0,0,0-1.916,1.916,1.918,1.918,0,0,0,1.916,1.916h3.723A1.918,1.918,0,0,0-63.3-61.241a1.918,1.918,0,0,0-1.916-1.916Z" transform="translate(73.197 93.531)" fill="#29abe2"/>
        <path id="Path_10227" data-name="Path 10227" d="M-65.217-57.167h-3.723a4.079,4.079,0,0,1-4.074-4.074,4.079,4.079,0,0,1,4.074-4.074h3.723a4.079,4.079,0,0,1,4.074,4.074A4.079,4.079,0,0,1-65.217-57.167Zm-3.723-5.99a1.918,1.918,0,0,0-1.916,1.916,1.918,1.918,0,0,0,1.916,1.916h3.723A1.918,1.918,0,0,0-63.3-61.241a1.918,1.918,0,0,0-1.916-1.916Z" transform="translate(73.197 104.215)" fill="#29abe2"/>
        <path id="Path_10228" data-name="Path 10228" d="M-65.217-57.167h-3.723a4.079,4.079,0,0,1-4.074-4.074,4.079,4.079,0,0,1,4.074-4.074h3.723a4.079,4.079,0,0,1,4.074,4.074A4.079,4.079,0,0,1-65.217-57.167Zm-3.723-5.99a1.918,1.918,0,0,0-1.916,1.916,1.918,1.918,0,0,0,1.916,1.916h3.723A1.918,1.918,0,0,0-63.3-61.241a1.918,1.918,0,0,0-1.916-1.916Z" transform="translate(73.197 114.9)" fill="#29abe2"/>
        <path id="Path_10229" data-name="Path 10229" d="M-47.923-446.829a5.951,5.951,0,0,1-4.236-1.754,5.951,5.951,0,0,1-1.754-4.236v-34.689a6.6,6.6,0,0,1,1.1-3.651l1.956-2.955a3.512,3.512,0,0,1,2.935-1.577,3.512,3.512,0,0,1,2.935,1.577l1.956,2.955a6.6,6.6,0,0,1,1.1,3.651v34.689a5.951,5.951,0,0,1-1.754,4.236A5.951,5.951,0,0,1-47.923-446.829Zm0-46.7a1.341,1.341,0,0,0-1.136.61l-1.956,2.955a4.444,4.444,0,0,0-.74,2.46v34.689a3.836,3.836,0,0,0,3.832,3.832,3.836,3.836,0,0,0,3.832-3.832v-34.689a4.444,4.444,0,0,0-.74-2.46l-1.956-2.955A1.341,1.341,0,0,0-47.923-493.533Z" transform="translate(106.332 503.62)" fill="#29abe2"/>
        <path id="Path_10230" data-name="Path 10230" d="M-47.923-68.613a5.951,5.951,0,0,1-4.236-1.754A5.951,5.951,0,0,1-53.913-74.6v-2.275a1.079,1.079,0,0,1,1.079-1.079h9.822a1.079,1.079,0,0,1,1.079,1.079V-74.6a5.951,5.951,0,0,1-1.754,4.236A5.951,5.951,0,0,1-47.923-68.613ZM-51.755-75.8v1.2a3.836,3.836,0,0,0,3.832,3.832A3.836,3.836,0,0,0-44.091-74.6v-1.2Z" transform="translate(106.332 125.405)" fill="#29abe2"/>
        <path id="Path_10231" data-name="Path 10231" d="M-26.309-13.56a3.511,3.511,0,0,1,2.935,1.577l1.956,2.955a6.617,6.617,0,0,1,1.087,3.318,1.079,1.079,0,0,1-.3.8,1.079,1.079,0,0,1-.782.335h-9.8a1.079,1.079,0,0,1-.782-.336,1.079,1.079,0,0,1-.3-.8A6.618,6.618,0,0,1-31.2-9.028l1.956-2.955A3.511,3.511,0,0,1-26.309-13.56Zm3.618,6.824a4.454,4.454,0,0,0-.527-1.1l-1.955-2.954a1.341,1.341,0,0,0-1.136-.61,1.341,1.341,0,0,0-1.135.61L-29.4-7.837a4.423,4.423,0,0,0-.526,1.1Z" transform="translate(84.718 21.489)" fill="#29abe2"/>
        <path id="Path_10232" data-name="Path 10232" d="M-.921,15.815A1.079,1.079,0,0,1-2,14.736V-.921A1.079,1.079,0,0,1-.921-2,1.079,1.079,0,0,1,.158-.921V14.736A1.079,1.079,0,0,1-.921,15.815Z" transform="translate(59.33 27.883)" fill="#29abe2"/>
        <path id="Path_10233" data-name="Path 10233" transform="translate(58.409 21.917)" fill="#29abe2"/>
        <path id="Path_10234" data-name="Path 10234" d="M-185.77-85.566h-17.311a3.085,3.085,0,0,1-3.082-3.082V-93.6a3.085,3.085,0,0,1,3.082-3.082h17.311a3.085,3.085,0,0,1,3.082,3.082v4.952A3.085,3.085,0,0,1-185.77-85.566Zm-17.311-8.957a.925.925,0,0,0-.924.924v4.952a.925.925,0,0,0,.924.924h17.311a.925.925,0,0,0,.924-.924V-93.6a.925.925,0,0,0-.924-.924Z" transform="translate(224.231 104.61)" fill="#29abe2"/>
        <path id="Path_10235" data-name="Path 10235" d="M-.921-62.335A1.079,1.079,0,0,1-2-63.414v-3.712a3.9,3.9,0,0,1,3.9-3.9H18.089a3.9,3.9,0,0,1,3.9,3.9v2.365a1.079,1.079,0,0,1-1.079,1.079,1.079,1.079,0,0,1-1.079-1.079v-2.365a1.741,1.741,0,0,0-1.739-1.739H1.9A1.741,1.741,0,0,0,.158-67.126v3.712A1.079,1.079,0,0,1-.921-62.335Z" transform="translate(19.812 94.948)" fill="#29abe2"/>
        <path id="Path_10236" data-name="Path 10236" d="M-.921,7.2A1.079,1.079,0,0,1-2,6.118V-.921A1.079,1.079,0,0,1-.921-2,1.079,1.079,0,0,1,.158-.921V6.118A1.079,1.079,0,0,1-.921,7.2Z" transform="translate(30.726 18.886)" fill="#29abe2"/>
        <path id="Path_10237" data-name="Path 10237" d="M-105.243-69.172h-8.9a3.085,3.085,0,0,1-3.082-3.082v-3.239a3.085,3.085,0,0,1,3.082-3.082h8.9a3.085,3.085,0,0,1,3.082,3.082v3.239A3.085,3.085,0,0,1-105.243-69.172Zm-8.9-7.244a.925.925,0,0,0-.924.924v3.239a.925.925,0,0,0,.924.924h8.9a.925.925,0,0,0,.924-.924v-3.239a.925.925,0,0,0-.924-.924Z" transform="translate(133.045 109.029)" fill="#29abe2"/>
        <path id="Path_10238" data-name="Path 10238" d="M-91.92-49.759a5.6,5.6,0,0,1,5.6,5.6,5.6,5.6,0,0,1-5.6,5.6,5.6,5.6,0,0,1-5.6-5.6A5.6,5.6,0,0,1-91.92-49.759Zm0,9.036a3.443,3.443,0,0,0,3.439-3.439A3.443,3.443,0,0,0-91.92-47.6a3.443,3.443,0,0,0-3.439,3.439A3.443,3.443,0,0,0-91.92-40.722Z" transform="translate(132.639 79.245)" fill="#29abe2"/>
        <path id="Path_10239" data-name="Path 10239" d="M-.921,8.681A1.079,1.079,0,0,1-2,7.6V-.921A1.079,1.079,0,0,1-.921-2,1.079,1.079,0,0,1,.158-.921V7.6A1.079,1.079,0,0,1-.921,8.681Z" transform="translate(19.75 39.699)" fill="#29abe2"/>
        <path id="Path_10240" data-name="Path 10240" d="M-.921,8.681A1.079,1.079,0,0,1-2,7.6V-.921A1.079,1.079,0,0,1-.921-2,1.079,1.079,0,0,1,.158-.921V7.6A1.079,1.079,0,0,1-.921,8.681Z" transform="translate(28.925 39.699)" fill="#29abe2"/>
        <path id="Path_10241" data-name="Path 10241" d="M-56.523-31.181a3.844,3.844,0,0,1,3.84,3.84,3.844,3.844,0,0,1-3.84,3.84,3.844,3.844,0,0,1-3.84-3.84A3.844,3.844,0,0,1-56.523-31.181Zm0,5.521a1.683,1.683,0,0,0,1.681-1.681,1.683,1.683,0,0,0-1.681-1.681A1.683,1.683,0,0,0-58.2-27.342,1.683,1.683,0,0,0-56.523-25.66Z" transform="translate(75.352 78.006)" fill="#29abe2"/>
        <path id="Path_10242" data-name="Path 10242" d="M-56.523-31.181a3.844,3.844,0,0,1,3.84,3.84,3.844,3.844,0,0,1-3.84,3.84,3.844,3.844,0,0,1-3.84-3.84A3.844,3.844,0,0,1-56.523-31.181Zm0,5.521a1.683,1.683,0,0,0,1.681-1.681,1.683,1.683,0,0,0-1.681-1.681A1.683,1.683,0,0,0-58.2-27.342,1.683,1.683,0,0,0-56.523-25.66Z" transform="translate(84.527 78.006)" fill="#29abe2"/>
        <path id="Path_10243" data-name="Path 10243" d="M-56.523-31.181a3.844,3.844,0,0,1,3.84,3.84,3.844,3.844,0,0,1-3.84,3.84,3.844,3.844,0,0,1-3.84-3.84A3.844,3.844,0,0,1-56.523-31.181Zm0,5.521a1.683,1.683,0,0,0,1.682-1.681,1.683,1.683,0,0,0-1.682-1.681A1.683,1.683,0,0,0-58.2-27.342,1.683,1.683,0,0,0-56.523-25.66Z" transform="translate(97.242 78.006)" fill="#29abe2"/>
        <path id="Path_10244" data-name="Path 10244" d="M-.921,8.461A1.079,1.079,0,0,1-2,7.381v-8.3A1.079,1.079,0,0,1-.921-2,1.079,1.079,0,0,1,.158-.921v8.3A1.079,1.079,0,0,1-.921,8.461Z" transform="translate(41.64 40.523)" fill="#29abe2"/>
        <path id="Path_10245" data-name="Path 10245" d="M-413.669-2h35.4a5.113,5.113,0,0,1,5.107,5.107V55.595A5.113,5.113,0,0,1-378.27,60.7h-35.4a5.113,5.113,0,0,1-5.107-5.107v-1.88a1.079,1.079,0,0,1,1.079-1.079h2.023a1.918,1.918,0,0,0,1.916-1.916,1.918,1.918,0,0,0-1.916-1.916H-417.7a1.079,1.079,0,0,1-1.079-1.079V43.03a1.079,1.079,0,0,1,1.079-1.079h2.023a1.918,1.918,0,0,0,1.916-1.916,1.918,1.918,0,0,0-1.916-1.916H-417.7a1.079,1.079,0,0,1-1.079-1.079V32.346a1.079,1.079,0,0,1,1.079-1.079h2.023a1.918,1.918,0,0,0,1.916-1.916,1.918,1.918,0,0,0-1.916-1.916H-417.7a1.079,1.079,0,0,1-1.079-1.079V21.662a1.079,1.079,0,0,1,1.079-1.079h2.023a1.918,1.918,0,0,0,1.916-1.916,1.918,1.918,0,0,0-1.916-1.916H-417.7a1.079,1.079,0,0,1-1.079-1.079V10.977A1.079,1.079,0,0,1-417.7,9.9h2.023a1.918,1.918,0,0,0,1.916-1.916,1.918,1.918,0,0,0-1.916-1.916H-417.7a1.079,1.079,0,0,1-1.079-1.079V3.107A5.113,5.113,0,0,1-413.669-2Zm35.4,60.544a2.953,2.953,0,0,0,2.949-2.949V3.107A2.953,2.953,0,0,0-378.27.158h-35.4a2.953,2.953,0,0,0-2.949,2.949v.8h.944A4.079,4.079,0,0,1-411.6,7.983a4.079,4.079,0,0,1-4.074,4.074h-.944v2.536h.944a4.079,4.079,0,0,1,4.074,4.074,4.079,4.079,0,0,1-4.074,4.074h-.944v2.536h.944a4.079,4.079,0,0,1,4.074,4.074,4.079,4.079,0,0,1-4.074,4.074h-.944v2.536h.944a4.079,4.079,0,0,1,4.074,4.074,4.079,4.079,0,0,1-4.074,4.074h-.944v2.536h.944A4.079,4.079,0,0,1-411.6,50.72a4.079,4.079,0,0,1-4.074,4.074h-.944v.8a2.953,2.953,0,0,0,2.949,2.949Z" transform="translate(423.653 2.939)" fill="#29abe2"/>
      </g>
    </g>
  </g>
</svg>
