<svg xmlns="http://www.w3.org/2000/svg" width="86" height="86" viewBox="0 0 86 86">
  <g id="Group_7066" data-name="Group 7066" transform="translate(-876 -3935)">
    <circle id="Ellipse_152" data-name="Ellipse 152" cx="43" cy="43" r="43" transform="translate(876 3935)" fill="#fff"/>
    <g id="design_review" data-name="design review" transform="translate(892 3947)">
      <path id="Path_10247" data-name="Path 10247" d="M55.839,21.3h-1.38V9.5a5.5,5.5,0,0,0-5.5-5.5H19.911a5.5,5.5,0,0,0-5.5,5.5V21.3h-1.38a5.5,5.5,0,0,0-5.5,5.5V38.077a5.5,5.5,0,0,0,5.5,5.5h1.38v16.5a5.5,5.5,0,0,0,5.5,5.5h29.05a5.5,5.5,0,0,0,5.5-5.5v-16.5h1.38a5.5,5.5,0,0,0,5.5-5.5V26.8a5.5,5.5,0,0,0-5.5-5.5ZM44.574,6.2l-1.45,6.822a2.865,2.865,0,0,1-2.788,2.26h-11.8a2.865,2.865,0,0,1-2.788-2.26L24.3,6.2ZM16.612,9.5a3.3,3.3,0,0,1,3.3-3.3h2.136L23.6,13.478a5.076,5.076,0,0,0,4.94,4h11.8a5.076,5.076,0,0,0,4.94-4L46.824,6.2h2.136a3.3,3.3,0,0,1,3.3,3.3V21.3H16.612Zm35.648,50.58a3.3,3.3,0,0,1-3.3,3.3H19.911a3.3,3.3,0,0,1-3.3-3.3v-16.5h9.354A2.992,2.992,0,0,1,28.5,45l4.351,7.132a1.1,1.1,0,0,0,1.878,0L39.071,45a2.994,2.994,0,0,1,2.54-1.426H52.259Zm6.878-22a3.3,3.3,0,0,1-3.3,3.3H41.61a5.206,5.206,0,0,0-4.417,2.481l-3.4,5.588L30.38,43.852a5.205,5.205,0,0,0-4.415-2.476H13.033a3.3,3.3,0,0,1-3.3-3.3V26.8a3.3,3.3,0,0,1,3.3-3.3H55.839a3.3,3.3,0,0,1,3.3,3.3Z" transform="translate(-7.535 -4)" fill="#29abe2"/>
      <path id="Path_10248" data-name="Path 10248" d="M23.145,27.579h-2.8l-.863-2.66a1.7,1.7,0,0,0-3.234,0l-.864,2.661h-2.8a1.7,1.7,0,0,0-1,3.074L13.852,32.3l-.864,2.661a1.71,1.71,0,0,0,2.617,1.9l2.262-1.644c.663.389,2.466,2.086,3.261,1.97a1.712,1.712,0,0,0,1.616-2.227L21.881,32.3l2.265-1.644a1.71,1.71,0,0,0-1-3.075ZM20.3,30.733a1.693,1.693,0,0,0-.619,1.9l.5,1.544-1.313-.954c-1.19-.913-2.375.286-3.312.954l.5-1.546a1.7,1.7,0,0,0-.62-1.9l-1.313-.956h1.624A1.7,1.7,0,0,0,17.365,28.6l.5-1.544.5,1.545a1.7,1.7,0,0,0,1.617,1.173H21.61Zm19.082-3.154h-2.8l-.864-2.661a1.7,1.7,0,0,0-3.233,0L31.62,27.58h-2.8a1.7,1.7,0,0,0-1,3.074L30.087,32.3l-.865,2.661a1.71,1.71,0,0,0,2.617,1.9L34.1,35.216c.663.389,2.466,2.086,3.261,1.97a1.712,1.712,0,0,0,1.616-2.227L38.115,32.3l2.263-1.644a1.71,1.71,0,0,0-1-3.075Zm-2.849,3.154a1.693,1.693,0,0,0-.618,1.9l.5,1.544L35.1,33.222c-1.191-.91-2.373.286-3.31.957l.5-1.545a1.693,1.693,0,0,0-.617-1.9l-1.313-.956h1.623A1.7,1.7,0,0,0,33.6,28.6l.5-1.543.5,1.544a1.7,1.7,0,0,0,1.616,1.173H37.84Zm19.082-3.154h-2.8l-.864-2.66a1.7,1.7,0,0,0-3.233,0l-.864,2.661h-2.8a1.7,1.7,0,0,0-1,3.074L46.319,32.3l-.864,2.659a1.71,1.71,0,0,0,2.617,1.9l2.262-1.644L52.6,36.861a1.71,1.71,0,0,0,2.617-1.9L54.348,32.3l2.264-1.644a1.71,1.71,0,0,0-1-3.075Zm-2.848,3.154a1.693,1.693,0,0,0-.619,1.9l.5,1.545c-.942-.673-2.117-1.866-3.312-.954l-1.313.953.5-1.543a1.693,1.693,0,0,0-.617-1.9l-1.314-.956h1.624a1.7,1.7,0,0,0,1.616-1.173l.5-1.544.5,1.544a1.7,1.7,0,0,0,1.616,1.173h1.624Z" transform="translate(-7.201 -2.034)" fill="#29abe2"/>
    </g>
  </g>
</svg>
