<svg xmlns="http://www.w3.org/2000/svg" xmlns:xlink="http://www.w3.org/1999/xlink" width="90" height="90" viewBox="0 0 90 90">
  <defs>
    <clipPath id="clip-path">
      <rect id="Rectangle_3735" data-name="Rectangle 3735" width="48.836" height="70.713" fill="none"/>
    </clipPath>
  </defs>
  <g id="Group_7055" data-name="Group 7055" transform="translate(-638 -1934)">
    <g id="Ellipse_184" data-name="Ellipse 184" transform="translate(638 1934)" fill="#fff" stroke="#29abe2" stroke-width="1" stroke-dasharray="3">
      <circle cx="45" cy="45" r="45" stroke="none"/>
      <circle cx="45" cy="45" r="44.5" fill="none"/>
    </g>
    <g id="Group_5655" data-name="Group 5655" transform="translate(657.858 1943.644)">
      <rect id="Rectangle_3728" data-name="Rectangle 3728" width="4.29" height="0.37" transform="matrix(0.982, -0.189, 0.189, 0.982, 30.274, 7.325)" fill="#3f7bff"/>
      <rect id="Rectangle_3729" data-name="Rectangle 3729" width="4.29" height="0.37" transform="matrix(0.982, -0.189, 0.189, 0.982, 30.075, 6.285)" fill="#3f7bff"/>
      <rect id="Rectangle_3730" data-name="Rectangle 3730" width="4.296" height="0.37" transform="translate(29.949 5.247) rotate(-10.894)" fill="#3f7bff"/>
      <path id="Path_11056" data-name="Path 11056" d="M92.31,211.666l.182-1.311.647,1.151.33-.064.23-1.77-.3.056-.182,1.354-.653-1.183-.285.057-.188,1.336-.655-1.186-.318.063.86,1.56Z" transform="translate(-69.986 -161.04)" fill="#3f7bff"/>
      <g id="Group_5654" data-name="Group 5654">
        <g id="Group_5653" data-name="Group 5653" clip-path="url(#clip-path)">
          <path id="Path_11057" data-name="Path 11057" d="M103.462,211.856a.725.725,0,0,0,1.007-.191l-.195-.154a.469.469,0,0,1-.318.206.393.393,0,0,1-.469-.226l.994-.191c0-.029-.008-.066-.012-.093s-.006-.04-.011-.06a.632.632,0,0,0-.757-.473l-.042.008a.643.643,0,0,0-.488.767.724.724,0,0,0,.29.406m.287-.949a.351.351,0,0,1,.416.25l-.72.138a.361.361,0,0,1,.3-.387" transform="translate(-79.23 -161.798)" fill="#3f7bff"/>
          <path id="Path_11058" data-name="Path 11058" d="M109.745,209.458l-.337-1.764-.3.058.337,1.764Z" transform="translate(-83.803 -159.521)" fill="#3f7bff"/>
          <path id="Path_11059" data-name="Path 11059" d="M112.522,209.637c0,.016.006.031.01.047a.656.656,0,0,0,.8.468.585.585,0,0,0,.483-.4l-.253-.088a.361.361,0,0,1-.28.237.4.4,0,0,1-.154-.792.367.367,0,0,1,.35.117l.2-.178a.584.584,0,0,0-.6-.192l-.053.009a.656.656,0,0,0-.512.774Z" transform="translate(-86.41 -160.398)" fill="#3f7bff"/>
          <path id="Path_11060" data-name="Path 11060" d="M118.373,208.432a.65.65,0,0,0,.789.471l.024-.005a.687.687,0,1,0-.823-.516c0,.017.006.033.01.05m.579-.537a.385.385,0,0,1,.465.284h0a.351.351,0,0,1,.008.038.375.375,0,0,1-.309.43.385.385,0,0,1-.162-.752" transform="translate(-90.896 -159.403)" fill="#3f7bff"/>
          <path id="Path_11061" data-name="Path 11061" d="M125.607,207.178l-.121-.644a.315.315,0,0,1-.016-.056.331.331,0,0,1,.264-.387c.18-.033.306.054.349.281l.131.688.3-.057-.124-.644a.316.316,0,0,1-.016-.058.33.33,0,0,1,.265-.384c.18-.033.306.054.349.281l.131.688.3-.057-.138-.728h0a.5.5,0,0,0-.611-.456.611.611,0,0,0-.434.3.48.48,0,0,0-.467-.131.531.531,0,0,0-.38.254l-.033-.16-.282.054.244,1.268Z" transform="translate(-96.059 -157.937)" fill="#3f7bff"/>
          <path id="Path_11062" data-name="Path 11062" d="M136.093,205.578a.724.724,0,0,0,1.007-.191l-.195-.154a.456.456,0,0,1-.318.2.39.39,0,0,1-.469-.223l1-.191a.861.861,0,0,0-.015-.095.594.594,0,0,0-.011-.061.629.629,0,0,0-.754-.473l-.046.009a.643.643,0,0,0-.487.768.724.724,0,0,0,.29.406m.228-.916a.372.372,0,0,1,.478.218l-.72.137a.372.372,0,0,1,.242-.356" transform="translate(-104.292 -156.975)" fill="#3f7bff"/>
          <rect id="Rectangle_3731" data-name="Rectangle 3731" width="30.823" height="0.551" transform="matrix(0.982, -0.189, 0.189, 0.982, 13.469, 59.536)" fill="#3f7bff"/>
          <rect id="Rectangle_3732" data-name="Rectangle 3732" width="30.783" height="0.55" transform="matrix(0.982, -0.189, 0.189, 0.982, 13.672, 60.931)" fill="#3f7bff"/>
          <rect id="Rectangle_3733" data-name="Rectangle 3733" width="30.783" height="0.55" transform="matrix(0.982, -0.189, 0.189, 0.982, 13.958, 62.4)" fill="#3f7bff"/>
          <rect id="Rectangle_3734" data-name="Rectangle 3734" width="30.823" height="0.551" transform="translate(14.321 63.956) rotate(-10.903)" fill="#3f7bff"/>
          <path id="Path_11063" data-name="Path 11063" d="M66.147,194.935l.543,2.829a1.693,1.693,0,0,0,1.979,1.348L87.989,195.4a1.692,1.692,0,0,0,1.342-1.978l-.54-2.805a.145.145,0,0,0,0-.033,1.69,1.69,0,0,0-1.98-1.339l-19.321,3.712a1.693,1.693,0,0,0-1.342,1.978m20.707-5.463a1.466,1.466,0,0,1,.279-.027,1.46,1.46,0,0,1,1.425,1.162.119.119,0,0,0,0,.031l.544,2.827a1.461,1.461,0,0,1-1.163,1.707l-19.314,3.711a1.463,1.463,0,0,1-1.708-1.163l-.544-2.829a1.462,1.462,0,0,1,1.167-1.708Z" transform="translate(-50.782 -145.327)" fill="#3f7bff"/>
          <path id="Path_11064" data-name="Path 11064" d="M98.8,178.114a.473.473,0,0,0-.174-.93l-.01,0a.473.473,0,0,0,.184.928" transform="translate(-75.45 -136.082)" fill="#3f7bff"/>
          <path id="Path_11065" data-name="Path 11065" d="M108.359,176.271a.47.47,0,0,0-.173-.924h0a.47.47,0,0,0,.176.923" transform="translate(-82.797 -134.671)" fill="#3f7bff"/>
          <path id="Path_11066" data-name="Path 11066" d="M117.888,174.428a.473.473,0,0,0-.174-.93l-.01,0a.473.473,0,0,0,.184.928" transform="translate(-90.111 -133.251)" fill="#3f7bff"/>
          <path id="Path_11067" data-name="Path 11067" d="M18.836,36.206,33.448,33.4a1,1,0,0,0,.8-1.175l-.056-.292a1,1,0,0,0-1.175-.8L18.4,33.942a1,1,0,0,0-.8,1.175l.056.292a1,1,0,0,0,1.175.8" transform="translate(-13.507 -23.898)" fill="#3f7bff"/>
          <path id="Path_11068" data-name="Path 11068" d="M120.576,67.668a3.293,3.293,0,0,0,1.838.562,3.343,3.343,0,0,0,.65-.064,3.317,3.317,0,1,0-2.488-.5m-.332-4.213a2.6,2.6,0,0,1,1.669-1.112,2.65,2.65,0,0,1,.514-.051,2.621,2.621,0,1,1-2.182,1.163" transform="translate(-91.479 -47.31)" fill="#3f7bff"/>
          <path id="Path_11069" data-name="Path 11069" d="M56.29,70.885l0-.006a.346.346,0,0,0,.054-.261L51.4,44.886a.348.348,0,0,0-.407-.276l-30.181,5.8a.348.348,0,0,0-.276.408L23.763,67.6c0,.01,0,.019,0,.029l1.715,8.928a.348.348,0,0,0,.341.282.358.358,0,0,0,.066-.006l30.181-5.8a.348.348,0,0,0,.222-.146m-.7-.477L26.1,76.078l-1.632-8.489c1.1-2.788,2.315-4.566,3.5-5.145,1.074-.527,2.381.716,3.9,2.154,2.09,1.984,4.691,4.451,8.046,3.459,2.632-.78,4.237-3.161,5.788-5.465,1.82-2.7,3.7-5.493,7.272-5.811Zm-4.81-25.049,2.063,10.734c-3.854.369-5.819,3.285-7.722,6.109-1.551,2.3-3.016,4.477-5.409,5.186-2.968.88-5.306-1.339-7.369-3.3-1.7-1.617-3.175-3.014-4.681-2.274-1.21.59-2.363,2.114-3.435,4.535L21.286,51.029Z" transform="translate(-15.769 -34.259)" fill="#3f7bff"/>
          <path id="Path_11070" data-name="Path 11070" d="M48.788,61.394,37.395,2.138h0a2.573,2.573,0,0,0-.382-.936A2.624,2.624,0,0,0,34.3.048L2.138,6.229A2.644,2.644,0,0,0,.048,9.318L11.439,68.562s.005.029.006.033a2.621,2.621,0,0,0,3.081,2.068L46.7,64.482a2.639,2.639,0,0,0,2.088-3.088M46.564,63.8,14.393,69.98a1.936,1.936,0,0,1-2.269-1.539L.731,9.186A1.946,1.946,0,0,1,2.269,6.912L34.435.732A1.959,1.959,0,0,1,34.806.7a1.933,1.933,0,0,1,1.625.887,1.884,1.884,0,0,1,.28.687L48.1,61.525A1.944,1.944,0,0,1,46.564,63.8" transform="translate(0 0)" fill="#3f7bff"/>
        </g>
      </g>
    </g>
  </g>
</svg>
