<svg xmlns="http://www.w3.org/2000/svg" xmlns:xlink="http://www.w3.org/1999/xlink" width="461.348" height="302.675" viewBox="0 0 461.348 302.675">
  <defs>
    <clipPath id="clip-path">
      <rect id="Rectangle_2526" data-name="Rectangle 2526" width="33.614" height="33.137" fill="none"/>
    </clipPath>
  </defs>
  <g id="Group_3" data-name="Group 3" transform="translate(-719.586 -3015.318)">
    <path id="Path_6506" data-name="Path 6506" d="M383.3,1120.076c0,14.376-85.8,26.031-191.65,26.031S0,1134.452,0,1120.076s85.8-26.031,191.65-26.031S383.3,1105.7,383.3,1120.076" transform="translate(780.305 2171.886)" fill="#d9f2f2"/>
    <path id="Path_6507" data-name="Path 6507" d="M1541.908,954.617l4.263,1.062-.267-66.353-3.28,1.7Z" transform="translate(-469.118 2329.71)" fill="#331832"/>
    <path id="Path_6508" data-name="Path 6508" d="M1481.851,1177.18s22.573.405,30.1.463c.831.006,1.428-1.137,1.428-1.968a2.337,2.337,0,0,0-2.045-1.814c-7.37.038-29.48.308-29.48.308a1.5,1.5,0,0,0,0,3.01" transform="translate(-421.657 2110.353)" fill="#331832"/>
    <path id="Path_6509" data-name="Path 6509" d="M1596.968,1191.049a3.307,3.307,0,0,0-3.4-2.7c-1.674,0-3.4,1.1-3.4,2.778a3.863,3.863,0,0,0,3.781,3.55,3.1,3.1,0,0,0,3.01-3.627" transform="translate(-506.329 2099.186)" fill="#331832"/>
    <path id="Path_6510" data-name="Path 6510" d="M1485.663,1191.049a3.306,3.306,0,0,0-3.4-2.7c-1.674,0-3.4,1.1-3.4,2.778a3.862,3.862,0,0,0,3.781,3.55,3.1,3.1,0,0,0,3.01-3.627" transform="translate(-420.521 2099.186)" fill="#331832"/>
    <path id="Path_6511" data-name="Path 6511" d="M1528.166,913.44s.81,5.383-7.524,7.119-11.923-7.119-11.923-7.119Z" transform="translate(-443.531 2311.12)" fill="#331832"/>
    <path id="Path_6512" data-name="Path 6512" d="M1377.435,641.222c1.916-12.113,4.438-46.673,17-54.115,9.649-5.717,32.534-8.481,38.548,5.559s-14.13,57.286-14.13,57.286-4.017,9.457-8.1,9.887-59.157,2.894-63.535-.688c-7.837-6.413,6.7-15.413,30.216-17.929" transform="translate(-317.378 2566.298)" fill="#0071bc"/>
    <path id="Path_6513" data-name="Path 6513" d="M1598.31,919.315s8.516-32.476,1.426-44.428-30.854-13.715-39.593-5-9.829,19.352,3.792,23.847,31.753-11.767,35.15-10.1-3.373,34.4-3.373,34.4Z" transform="translate(-478.149 2348.904)" fill="#82b378"/>
    <path id="Path_6514" data-name="Path 6514" d="M1566.769,910.865l-.213-.279a84.941,84.941,0,0,1,15.025-8.863,45.419,45.419,0,0,1,13.547-3.992c5.108-.548,9.465.339,12.948,2.633l-.192.294c-3.413-2.249-7.693-3.117-12.719-2.578a45.072,45.072,0,0,0-13.442,3.964,84.554,84.554,0,0,0-14.955,8.822" transform="translate(-488.119 2323.353)" fill="#c2c68e"/>
    <path id="Path_6515" data-name="Path 6515" d="M1703.258,1122.1h-18.026c-2.757,0-5.057-1.689-5.293-3.889l-2.6-24.167h33.1l-2.355,24.475c-.194,2.021-2.3,3.58-4.829,3.58" transform="translate(-573.525 2171.886)" fill="#0071bc"/>
    <path id="Path_6516" data-name="Path 6516" d="M1708.7,1059.436v4.805c0,2.973-7.871,5.383-17.583,5.383s-17.583-2.41-17.583-5.383v-4.805c0-1.509,4.534-2.8,10.962-3.337,2.044-.172,4.279-.267,6.621-.267,9.711,0,17.583,1.612,17.583,3.6" transform="translate(-570.593 2201.346)" fill="#51c8ed"/>
    <path id="Path_6517" data-name="Path 6517" d="M1708.7,1059.441a1.146,1.146,0,0,1-.479.84,11.839,11.839,0,0,1-4.836,1.74c-.914.183-1.927.348-3.017.486-.282.036-.57.071-.865.1-.17.022-.344.039-.518.056-.905.095-1.858.173-2.845.231-.069.006-.138.011-.208.013q-.771.045-1.568.076c-.361.015-.727.026-1.1.037l-.43.008q-.848.016-1.72.017c-.249,0-.5,0-.744,0-.148,0-.3,0-.445,0-.585-.009-1.163-.021-1.731-.043-.948-.03-1.873-.08-2.763-.143l-.5-.037h0l-.4-.033-.447-.039c-.976-.086-1.907-.192-2.782-.313-4.69-.646-7.774-1.745-7.774-2.991,0-.764,1.161-1.473,3.142-2.056a30.98,30.98,0,0,1,4.1-.857c.086-.015.174-.028.262-.039h0c.157-.024.316-.045.477-.067.933-.125,1.927-.234,2.972-.32l.165-.013c1.035-.084,2.118-.149,3.239-.19q1.016-.042,2.075-.054c.376-.007.759-.009,1.142-.009q.9,0,1.78.02c.146,0,.29,0,.434.008,1.034.026,2.041.071,3.01.134.262.015.525.035.783.054q1.242.09,2.391.22c1.1.121,2.125.268,3.064.434.159.028.316.056.469.086.105.02.211.039.314.061a18.191,18.191,0,0,1,3.75,1.088c1.019.456,1.587.963,1.587,1.5" transform="translate(-570.596 2201.342)" fill="#273587"/>
    <path id="Path_6518" data-name="Path 6518" d="M1763.154,937.948s6.578-32.927,18.18-40.529,33.716,1.312,37.748,13,.35,21.721-13.851,19.741-23.362-24.593-27.145-24.593-12.039,32.384-12.039,32.384Z" transform="translate(-639.683 2325.646)" fill="#a8d29f"/>
    <path id="Path_6519" data-name="Path 6519" d="M1884.7,940.558a85.017,85.017,0,0,0-9.571-14.533,45.275,45.275,0,0,0-10.333-9.494c-4.277-2.7-8.5-3.814-12.55-3.3l-.043-.349c4.132-.522,8.433.606,12.781,3.355a45.616,45.616,0,0,1,10.417,9.57,85.428,85.428,0,0,1,9.611,14.6Z" transform="translate(-708.33 2311.647)" fill="#ccd39c"/>
    <path id="Path_6520" data-name="Path 6520" d="M1567.227,983.143s.175-33.583-9.661-43.38-33.286-5.548-39.583,5.08-4.708,21.2,9.6,22.142,27.824-19.353,31.529-18.586,5.283,34.158,5.283,34.158Z" transform="translate(-447.967 2295.073)" fill="#a8d29f"/>
    <path id="Path_6521" data-name="Path 6521" d="M1538.786,975.387l-.191-.148a85.042,85.042,0,0,1,12.337-12.343c11.992-9.613,20.36-9.636,25.271-7.946l-.08.228c-4.852-1.655-13.135-1.635-25.039,7.909a85.046,85.046,0,0,0-12.3,12.3" transform="translate(-466.564 2279.771)" fill="#ccd39c"/>
    <path id="Path_6522" data-name="Path 6522" d="M1738.646,1012.227a14.609,14.609,0,0,0-13.007-6.955c-9.016.328-17.724,27.556-14.376,35.2,5.127,11.7,22.57,13.075,29.718,0,3.577-6.543,2.093-22.2-2.335-28.243" transform="translate(-599.114 2240.332)" fill="#a8d29f"/>
    <path id="Path_6523" data-name="Path 6523" d="M1775.892,1054.707l-.342-.072c.039-.187,3.9-18.92,1.847-33.027l.346-.051c2.062,14.169-1.812,32.961-1.851,33.15" transform="translate(-649.239 2227.769)" fill="#c2c68e"/>
    <g id="Group_5195" data-name="Group 5195" transform="translate(996.09 3025.862)" opacity="0.5">
      <g id="Group_5194" data-name="Group 5194">
        <g id="Group_5193" data-name="Group 5193" clip-path="url(#clip-path)">
          <path id="Path_6524" data-name="Path 6524" d="M1240.667,61.976c-.4-8.641-8.162-15.948-16.813-15.948-12.256,0-16.276,9.389-16.759,18.026-.5,8.971,7.406,15.111,16.056,15.111s18.012-6.454,17.515-17.189" transform="translate(-1207.072 -46.028)" fill="#68a1bf"/>
          <path id="Path_6525" data-name="Path 6525" d="M1246.057,71c0-6.881-6.869-14.212-13.747-14.433-10.175-.326-14.3,10-14.3,16.879s7.1,10.984,13.984,10.984,14.064-6.548,14.064-13.43" transform="translate(-1215.502 -54.148)" fill="#bfd7d3"/>
          <path id="Path_6526" data-name="Path 6526" d="M1273.441,113.314a1.975,1.975,0,0,0-2.035-1.566,2.289,2.289,0,0,0-1.957,2.082,1.944,1.944,0,0,0,1.957,1.715,1.88,1.88,0,0,0,2.035-2.231" transform="translate(-1255.16 -96.694)" fill="#68a1bf"/>
          <path id="Path_6527" data-name="Path 6527" d="M1273.4,79.792h-.342a.339.339,0,0,1-.339-.339c0-.187-.427-.823-.24-.823l.19-.4.408-9.3-.423.26a.339.339,0,1,1-.558-.385l1.044-1.514a.339.339,0,0,1,.618.193l.565,11.939c0,.187-.736.364-.923.364" transform="translate(-1257.153 -62.311)" fill="#68a1bf"/>
          <path id="Path_6528" data-name="Path 6528" d="M1277.747,69.244a.34.34,0,0,1-.263-.125L1276.2,68.2a1.277,1.277,0,0,1,.184-.971.339.339,0,0,1,.477.049l1.153,1.416a.339.339,0,0,1-.263.553" transform="translate(-1260.329 -62.312)" fill="#68a1bf"/>
          <path id="Path_6529" data-name="Path 6529" d="M1246.626,119.927a.339.339,0,0,1-.244-.1l-1.007-1.044a.339.339,0,0,1,.244-.575h0l8.005-.42c.187,0,.294.591.294.778v.342a.339.339,0,0,1-.339.339c-.187,0-.61.169-.61-.019l.271-.323-6.82-.016.451.467a.339.339,0,0,1-.244.575" transform="translate(-1236.527 -101.348)" fill="#68a1bf"/>
          <path id="Path_6530" data-name="Path 6530" d="M1245.619,116.416a.339.339,0,0,1-.263-.554l.942-1.154a.339.339,0,0,1,.526.429l-.37.864a3.338,3.338,0,0,1-.835.415" transform="translate(-1236.527 -98.881)" fill="#68a1bf"/>
        </g>
      </g>
    </g>
    <path id="Path_6531" data-name="Path 6531" d="M1076.069,593.056s-13.567-3.521-18.236-.338-8.742,10.06-5.429,8.7a37.243,37.243,0,0,0,7.066-4.263s-5.4,7.723-3.083,8.864,6.309-6.165,6.309-6.165-6.962,8.3-4.42,8.67,7.755-5.548,7.755-5.548-8.172,6.787-5.209,7.144,6.59-4.784,9.121-4.249c3.225.682,7.308.719,8.7-.318Z" transform="translate(-90.814 2559.401)" fill="#ef9d6a"/>
    <path id="Path_6532" data-name="Path 6532" d="M1158.9,488.833l-1.435-12.506c19.088-1.57,27.891-9.87,36.446-20.325a41.139,41.139,0,0,0,5.995-10.269c1.311-3.094,6.743-3.7,10.071-3.241.061.008-1.527-2.522-1.466-2.512,9.04,1.365,10.923,4.139,10.923,4.139a48.842,48.842,0,0,1-9.558,22.805,50.775,50.775,0,0,1-18.941,15.246c-9.266,4.4-19.333,6.756-32.035,6.665" transform="translate(-172.739 2676.126)" fill="#ef9d6a"/>
    <path id="Path_6533" data-name="Path 6533" d="M1159.922,1143.772s.153,5.172-3.263,6.82-13.47,3.515-9.505,6.63c2.275,1.787,12.441,0,15.329-.16s5.671.953,7.712-1.1c2.246-2.256-.694-12.714-.694-12.714a11.555,11.555,0,0,1-4.667,1.5,9.214,9.214,0,0,1-4.912-.976" transform="translate(-164.087 2133.954)" fill="#313131"/>
    <path id="Path_6534" data-name="Path 6534" d="M1074.728,1139.763s.147,4.987-3.146,6.576-12.988,3.389-9.165,6.392c2.194,1.723,12,0,14.781-.155s5.467.919,7.435-1.058c2.165-2.175-.669-12.259-.669-12.259a11.142,11.142,0,0,1-4.5,1.445,8.883,8.883,0,0,1-4.736-.941" transform="translate(-98.786 2137.029)" fill="#313131"/>
    <path id="Path_6535" data-name="Path 6535" d="M1083.59,784.906c2.234-31.649,2.474-56.408,13.614-69.977,12.193-14.851,47.531-23.295,60.358-23.768,20.916-.772,28.693,3.819,28.693,3.819,16.143,29.111-8.411,32.578-26.6,33.1q-.9.026-1.81.063c-11.013.45-30.573,2.635-37.846,12.2-5.759,7.578-9.675,18.279-10.98,46.011-.251,5.321-5.244,9.378-11.28,9.142,0,0-14.948.79-14.145-10.593" transform="translate(-115.762 2482.55)" fill="#455a64"/>
    <path id="Path_6536" data-name="Path 6536" d="M1176.653,807.179c-.83-31.782-2.188-48.022,8.393-61.944,6.8-8.944,17.121-15.619,30.685-19.839,9.68-3.011,21.092-4.778,33.918-5.252,20.916-.772,30.29-2.867,30.29-2.867,5.051,41.927-40.858,34.069-61.226,40.055-9.837,2.891-14.71,23.59-16.015,51.322-.25,5.321-5.244,9.378-11.28,9.142,0,0-14.461,1-14.765-10.617" transform="translate(-187.104 2462.348)" fill="#455a64"/>
    <path id="Path_6537" data-name="Path 6537" d="M1387.118,404.273c-7.069-5.778-18.067-9.772-36.774-5.515s-18.139,23.486-19.479,69.37c0,0,23.1-2.46,64.33,19.178,5.028,2.639,9.546,2.9,9.885-10.183.462-17.819-2.039-59.835-17.962-72.849" transform="translate(-306.418 2709.276)" fill="#407bff"/>
    <path id="Path_6538" data-name="Path 6538" d="M1176.9,837.356a.219.219,0,0,1-.214-.174c-2.6-12.268-3.285-46.53,3.419-65.7,5.51-15.759,29.764-21.605,30.008-21.662a.219.219,0,0,1,.1.427c-.242.057-24.264,5.847-29.694,21.377-6.68,19.1-6,53.243-3.4,65.468a.219.219,0,0,1-.168.259.253.253,0,0,1-.046.006" transform="translate(-186.123 2437.265)" fill="#020202"/>
    <path id="Path_6539" data-name="Path 6539" d="M1148.591,1186.472a.17.17,0,0,1-.083-.02.187.187,0,0,1-.085-.251c.645-1.308,3.721-2.239,3.85-2.279a.179.179,0,0,1,.234.125.187.187,0,0,1-.125.234c-.031.009-3.049.926-3.623,2.086a.19.19,0,0,1-.168.105" transform="translate(-165.752 2102.606)" fill="#020202"/>
    <path id="Path_6540" data-name="Path 6540" d="M1454.154,311.438l-2.179-7.033-.634-2.047-3.729-12.039-.491,11.976-.293,7.188-.093,2.275c-.063,1.544-1,1.869-2.151,3.211-.464.544-3.435,3.841-.063,5.33,4.2,1.856,12.051-.954,15.036-4.635-.023-.005-4.7-1.953-5.4-4.226" transform="translate(-392.813 2791.504)" fill="#ffb27d"/>
    <path id="Path_6541" data-name="Path 6541" d="M1420.327,270.584a15.814,15.814,0,0,0,0,6.568c.76,3.654,4.476-5.327,4.476-5.327Z" transform="translate(-375.126 2806.717)" fill="#1a1833"/>
    <path id="Path_6542" data-name="Path 6542" d="M1419.085,265.236c.927-7.064,6.428-12.168,12.287-11.4s9.856,7.12,8.928,14.184-6.429,12.167-12.287,11.4-9.856-7.119-8.928-14.184" transform="translate(-374.326 2819.688)" fill="#ffb27d"/>
    <path id="Path_6543" data-name="Path 6543" d="M1425.634,239.771l-5.179-.537a3.769,3.769,0,0,1-2.8-1.694c-1.061-1.661-2.338-2.514-7.169-2.332-6.117.23-10.156-3.417-10.817-6.618-.674-3.267,2.456-5.481,5.529-3.924s1.754-2.262,4.708-2.668c5.521-.758,6.556,3.5,11.076,3.36,5.927-.181,16.544,4.323,11.509,14.756Z" transform="translate(-359.393 2844.244)" fill="#1a1833"/>
    <path id="Path_6548" data-name="Path 6548" d="M1498.873,296.33s-3.576,7.718-8.648,8.284c0,0,4.1-5.882-4.543-9.466,0,0,7.936-1.249,13.19,1.182" transform="translate(-425.772 2788.028)" fill="#1a1833"/>
    <path id="Path_6549" data-name="Path 6549" d="M1500.689,306.822a2.093,2.093,0,1,1,.847-3,2.214,2.214,0,0,1-.847,3" transform="translate(-434.738 2781.794)" fill="#ffb27d"/>
    <path id="Path_6550" data-name="Path 6550" d="M1436.17,296.227s.692,6.476-.626,7.7-10.022,1.751-14.085.181a8.46,8.46,0,0,0,6.967,8.521,12.29,12.29,0,0,0,4.156-.014c2.844-.5,5.608-1.673,6.781-4.311.357-.8-.681-5.741-.681-5.741s-.39-2.9,1.3-4.406a8.254,8.254,0,0,0-3.807-1.931" transform="translate(-376.259 2786.948)" fill="#1a1833"/>
    <path id="Path_6551" data-name="Path 6551" d="M1430.824,340.835a21.952,21.952,0,0,0,6.979.55,3.367,3.367,0,0,1-4.222,2.7c-2.145-.391-2.757-3.252-2.757-3.252" transform="translate(-383.479 2752.559)" fill="#fff"/>
    <path id="Path_6552" data-name="Path 6552" d="M1426.691,226.923c-.028,0-.058,0-.088,0l.009-.291h.078a1.324,1.324,0,0,0,1.462-1.134l.29.028a1.626,1.626,0,0,1-1.751,1.4" transform="translate(-380.225 2841.477)" fill="#331832"/>
    <path id="Path_6553" data-name="Path 6553" d="M1416.193,246.116c-.272-.08-6.672-1.977-6.949-5.428a2.328,2.328,0,0,1,.536-2.046c.7-.607,1.915-.322,2.981-.071.16.037.315.074.464.105l-.031.142c-.149-.031-.306-.068-.467-.105-1.034-.239-2.205-.519-2.853.04a2.2,2.2,0,0,0-.484,1.923c.269,3.351,6.778,5.279,6.844,5.3Z" transform="translate(-366.828 2831.621)" fill="#fff"/>
    <path id="Path_6554" data-name="Path 6554" d="M1469.942,232.639a10.205,10.205,0,0,1-7.624-2.935l.111-.091a10.087,10.087,0,0,0,7.513,2.878,14.558,14.558,0,0,0,1.932-.131l.02.142a14.431,14.431,0,0,1-1.952.137" transform="translate(-407.759 2838.303)" fill="#fff"/>
    <path id="Path_6555" data-name="Path 6555" d="M1354.247,401.3s-17.312,2.38-23.382,13.677c0,0,1.789,5.642,10.32,5.751s13.062-19.428,13.062-19.428" transform="translate(-306.418 2705.944)" fill="#407bff"/>
    <path id="Path_6556" data-name="Path 6556" d="M611.219,791.783l-.424-.061c-.331-.047-.571-.92-.536-1.95l4.357-130.144,6.3-5.046L612.23,789.15c-.068,1.539-.515,2.7-1.01,2.634" transform="translate(249.121 2510.681)" fill="#331832"/>
    <path id="Path_6557" data-name="Path 6557" d="M1266.865,791.783l.424-.061c.33-.047.571-.92.536-1.95l-4.357-130.144-6.3-5.046,8.69,134.567c.068,1.539.515,2.7,1.01,2.634" transform="translate(-249.6 2510.681)" fill="#331832"/>
    <path id="Path_6558" data-name="Path 6558" d="M659.987,675.567c0,8.1-58.8,14.666-131.334,14.666s-131.334-6.566-131.334-14.666,58.8-14.666,131.334-14.666,131.334,6.566,131.334,14.666" transform="translate(413.281 2505.81)" fill="#68a1bf"/>
    <rect id="Rectangle_2527" data-name="Rectangle 2527" width="262.668" height="6.764" transform="translate(810.599 3174.614)" fill="#68a1bf"/>
    <path id="Path_6559" data-name="Path 6559" d="M659.987,646.041c0,8.1-58.8,14.666-131.334,14.666s-131.334-6.566-131.334-14.666,58.8-14.667,131.334-14.667,131.334,6.567,131.334,14.667" transform="translate(413.281 2528.574)" fill="#b8d5dc"/>
    <path id="Path_6560" data-name="Path 6560" d="M1222.183,621.018s-14.12-4.113-18.761-.889-8.13,10.849-4.829,9.462a37.241,37.241,0,0,0,7.028-4.325s-5.336,7.771-3,8.891,6.254-6.221,6.254-6.221-6.889,8.364-4.343,8.708,7.706-5.616,7.706-5.616-8.112,6.859-5.146,7.19,6.751-5.449,9.083-4.329,14.136.165,18.482-1.06Z" transform="translate(-203.443 2538.194)" fill="#ffb27d"/>
    <path id="Path_6561" data-name="Path 6561" d="M1233.284,639.4l-.305-.171a5.007,5.007,0,0,1,3.786-2.111l.045.348a4.758,4.758,0,0,0-3.526,1.934" transform="translate(-230.954 2524.144)" fill="#f69b6e"/>
    <path id="Path_6562" data-name="Path 6562" d="M1247.564,650.987l-.231-.262c.1-.088,2.4-2.1,4.562-2.1.1,0,.2.006.292.014l-.031.347c-.085-.005-.172-.011-.259-.011-2.034,0-4.308,1.992-4.332,2.011" transform="translate(-242.021 2515.274)" fill="#f69b6e"/>
    <path id="Path_6563" data-name="Path 6563" d="M1262.143,663.721l-.313-.16a5.076,5.076,0,0,1,4.241-2.362l.028.348a4.813,4.813,0,0,0-3.956,2.174" transform="translate(-253.196 2505.581)" fill="#f69b6e"/>
    <path id="Path_6564" data-name="Path 6564" d="M1307.494,535.121l-1.546-12.493c19.073-1.739,27.8-10.116,36.265-20.647,4.451-5.539,5.512-9.376,5.52-9.459,0,0,2.365-1.807,7.495-1.079,9.052,1.285,10.408,6.16,10.408,6.16-.04.475.13,5.055-8.149,16.187-4.848,6.519-10.386,10.674-18.017,14.383-9.227,4.484-19.273,6.926-31.975,6.948" transform="translate(-287.208 2636.583)" fill="#ffb27d"/>
    <path id="Path_6565" data-name="Path 6565" d="M1463.547,597.378a2.337,2.337,0,0,1-1.531-.524c-1.259-1.054-1.054-3.382.456-5.183a5.33,5.33,0,0,1,2.563-1.744,2.418,2.418,0,0,1,3.275,2.744,5.326,5.326,0,0,1-1.268,2.826,5.022,5.022,0,0,1-3.224,1.869c-.093.008-.182.011-.271.011m2.419-7.106a2.925,2.925,0,0,0-.8.12,4.849,4.849,0,0,0-2.323,1.587c-1.341,1.6-1.571,3.621-.516,4.5a1.83,1.83,0,0,0,1.449.4,4.516,4.516,0,0,0,2.9-1.7,4.849,4.849,0,0,0,1.158-2.567,2.148,2.148,0,0,0-.642-1.937,1.856,1.856,0,0,0-1.221-.413" transform="translate(-406.89 2560.632)" fill="#e9845c"/>
    <path id="Path_6566" data-name="Path 6566" d="M1033.2,588.152H982.245a2.476,2.476,0,0,1-2.351-1.684L969.3,554.844a2.463,2.463,0,0,1,2.351-3.236h49a5.182,5.182,0,0,1,4.92,3.524l9.973,29.784a2.462,2.462,0,0,1-2.35,3.236" transform="translate(-27.581 2590.067)" fill="#cbcecf"/>
    <path id="Path_6567" data-name="Path 6567" d="M1019.24,588.152H968.284a2.476,2.476,0,0,1-2.351-1.684l-10.589-31.624a2.463,2.463,0,0,1,2.351-3.236h49a5.182,5.182,0,0,1,4.92,3.524l9.973,29.784a2.462,2.462,0,0,1-2.35,3.236" transform="translate(-16.818 2590.067)" fill="#cbcecf"/>
    <path id="Path_6569" data-name="Path 6569" d="M1094.566,691.631l-85.578.168,1.442,4.388,85.593-.088a1.506,1.506,0,0,0,1.506-1.506,2.963,2.963,0,0,0-2.963-2.963" transform="translate(-60.714 2482.119)" fill="#b5bfc1"/>
    <path id="Path_6570" data-name="Path 6570" d="M1192.838,566.961c-.024-.094-2.523-9.465-4.141-12.374a6.884,6.884,0,0,0-3.56-3.431l.105-.382c.085.023,2.133.615,3.8,3.618,1.641,2.955,4.076,12.078,4.178,12.465Z" transform="translate(-194.072 2590.71)" fill="#331832"/>
    <path id="Path_6571" data-name="Path 6571" d="M1230.26,649.069c-1.909,0-2.387-.852-2.407-.889l-3.985-11.892.376-.125,3.972,11.861c.006,0,.43.647,2.044.647Z" transform="translate(-223.931 2524.882)" fill="#331832"/>
    <path id="Path_6572" data-name="Path 6572" d="M966.44,81.3l.516,2.463a1.743,1.743,0,0,0,2.062,1.349l2.995-.626a1.742,1.742,0,0,0,1.349-2.062L973,80.681a1.74,1.74,0,0,1,.87-1.885q.193-.105.382-.218a1.731,1.731,0,0,1,1.957.146l1.263,1.007a1.742,1.742,0,0,0,2.449-.278l1.906-2.394a1.742,1.742,0,0,0-.277-2.447L980.283,73.6a1.73,1.73,0,0,1-.58-1.872q.067-.209.125-.419a1.74,1.74,0,0,1,1.643-1.272l1.779-.035a1.743,1.743,0,0,0,1.708-1.777l-.06-3.06a1.742,1.742,0,0,0-1.776-1.708l-2.517.049a1.749,1.749,0,0,1-1.6-.979,12.275,12.275,0,0,0-.871-1.485,1.751,1.751,0,0,1,.065-2.084l1.234-1.549a1.743,1.743,0,0,0-.278-2.449l-2.393-1.9a1.743,1.743,0,0,0-2.448.278l-1.66,2.084a1.743,1.743,0,0,1-1.768.616q-.238-.058-.478-.106a1.734,1.734,0,0,1-1.35-1.349l-.58-2.78a1.742,1.742,0,0,0-2.062-1.35l-3,.626a1.742,1.742,0,0,0-1.349,2.062l.5,2.388a1.743,1.743,0,0,1-.826,1.859l-.021.013a1.738,1.738,0,0,1-1.966-.14l-1.792-1.428a1.743,1.743,0,0,0-2.449.278l-1.907,2.4a1.743,1.743,0,0,0,.279,2.449l1.792,1.425a1.737,1.737,0,0,1,.577,1.885l-.008.026a1.744,1.744,0,0,1-1.628,1.221l-2.438.047a1.742,1.742,0,0,0-1.708,1.777l.062,3.061a1.742,1.742,0,0,0,1.777,1.707l2.84-.057a1.734,1.734,0,0,1,1.618,1.014q.1.222.21.441a1.741,1.741,0,0,1-.205,1.861l-1.661,2.084a1.742,1.742,0,0,0,.277,2.449l2.394,1.907a1.742,1.742,0,0,0,2.448-.277l1.235-1.551a1.752,1.752,0,0,1,2.015-.53,12.189,12.189,0,0,0,1.641.514,1.749,1.749,0,0,1,1.314,1.34m-2.885-7.916c-2.78-2.214-3.1-7.711-.886-10.491s6.825-2.663,9.6-.449,2.358,6.923.144,9.7a6.251,6.251,0,0,1-8.86,1.236" transform="translate(-13.163 2976.451)" fill="#6bdddd"/>
    <path id="Path_6573" data-name="Path 6573" d="M950.012,309.952l-.115,0-5.254-.183a3.294,3.294,0,0,1-3.161-3.4l.141-4.606a2.759,2.759,0,0,0-1.483-2.546c-.252-.128-.505-.264-.752-.4a2.681,2.681,0,0,0-2.968.235l-3.848,3a3.254,3.254,0,0,1-4.582-.589l-3.233-4.189a3.3,3.3,0,0,1,.57-4.609l3.3-2.577a2.747,2.747,0,0,0,.894-3.07l-.015-.044a2.743,2.743,0,0,0-2.484-1.841L923.1,285a3.294,3.294,0,0,1-3.163-3.394l.159-5.292a3.259,3.259,0,0,1,3.364-3.172l3.932.138a2.7,2.7,0,0,0,2.588-1.663l.016-.039a2.764,2.764,0,0,0-.706-3.126l-3.142-2.8a3.306,3.306,0,0,1-.287-4.637l3.478-3.957a3.247,3.247,0,0,1,4.609-.272l3.656,3.264a2.688,2.688,0,0,0,2.947.441c.259-.122.52-.24.776-.349a2.733,2.733,0,0,0,1.633-2.437l.14-4.605a3.262,3.262,0,0,1,1.034-2.3,3.223,3.223,0,0,1,2.329-.875l5.25.181a3.294,3.294,0,0,1,3.162,3.4l-.1,3.424a2.761,2.761,0,0,0,1.871,2.7,21.374,21.374,0,0,1,2.759,1.181,2.727,2.727,0,0,0,2.915-.26l3.412-2.661a3.254,3.254,0,0,1,4.581.591l3.229,4.189a3.3,3.3,0,0,1-.571,4.607l-2.411,1.881a2.727,2.727,0,0,0-.865,3.148q.137.358.262.721a2.727,2.727,0,0,0,2.475,1.82l2.775.1a3.3,3.3,0,0,1,3.159,3.394l-.16,5.289a3.26,3.26,0,0,1-1.034,2.3,3.223,3.223,0,0,1-2.33.875l-2.773-.1a2.7,2.7,0,0,0-2.581,1.645q-.147.356-.307.705a2.743,2.743,0,0,0,.675,3.2l2.293,2.045a3.306,3.306,0,0,1,.288,4.637l-3.476,3.954a3.248,3.248,0,0,1-4.607.274l-3.242-2.89a2.735,2.735,0,0,0-2.9-.461,21.12,21.12,0,0,1-2.821.989,2.728,2.728,0,0,0-2.027,2.558l-.1,3.426a3.259,3.259,0,0,1-1.035,2.3,3.218,3.218,0,0,1-2.214.877m-11.928-12.019a3.207,3.207,0,0,1,1.571.411c.24.134.486.266.733.391a3.305,3.305,0,0,1,1.779,3.047l-.141,4.606a2.749,2.749,0,0,0,2.637,2.836l5.254.183a2.676,2.676,0,0,0,1.939-.728,2.721,2.721,0,0,0,.863-1.916l.1-3.426a3.268,3.268,0,0,1,2.427-3.066,20.552,20.552,0,0,0,2.748-.963,3.281,3.281,0,0,1,3.474.555l3.242,2.89a2.7,2.7,0,0,0,3.838-.227l3.476-3.954a2.761,2.761,0,0,0-.242-3.873l-2.293-2.045a3.284,3.284,0,0,1-.807-3.83q.155-.341.3-.688a3.251,3.251,0,0,1,3.1-1.98l2.773.1a2.683,2.683,0,0,0,1.939-.729,2.717,2.717,0,0,0,.862-1.916l.16-5.289a2.75,2.75,0,0,0-2.635-2.835l-2.775-.1a3.274,3.274,0,0,1-2.97-2.187q-.122-.354-.255-.7a3.268,3.268,0,0,1,1.038-3.771l2.411-1.881a2.755,2.755,0,0,0,.475-3.847l-3.229-4.189a2.71,2.71,0,0,0-1.818-1.044,2.677,2.677,0,0,0-2,.549l-3.412,2.661a3.273,3.273,0,0,1-3.5.315,20.865,20.865,0,0,0-2.689-1.151,3.3,3.3,0,0,1-2.237-3.227l.1-3.424a2.75,2.75,0,0,0-2.638-2.836l-5.251-.181a2.674,2.674,0,0,0-1.938.728,2.72,2.72,0,0,0-.862,1.916l-.14,4.605a3.277,3.277,0,0,1-1.963,2.92c-.25.106-.5.221-.756.34a3.231,3.231,0,0,1-3.542-.526l-3.656-3.264a2.7,2.7,0,0,0-3.839.226l-3.479,3.957a2.761,2.761,0,0,0,.241,3.872l3.142,2.8a3.307,3.307,0,0,1,.846,3.741l-.267-.066.251.1a3.255,3.255,0,0,1-3.109,2l-3.932-.137a2.684,2.684,0,0,0-1.94.728,2.72,2.72,0,0,0-.862,1.917l-.159,5.292a2.749,2.749,0,0,0,2.638,2.835l3.929.134a3.29,3.29,0,0,1,2.98,2.207l.015.044a3.291,3.291,0,0,1-1.074,3.676l-3.3,2.577a2.755,2.755,0,0,0-.474,3.848l3.233,4.189a2.711,2.711,0,0,0,1.819,1.043,2.68,2.68,0,0,0,2-.551l3.848-3a3.242,3.242,0,0,1,2-.691" transform="translate(10.382 2822.643)" fill="#366f90"/>
    <path id="Path_6574" data-name="Path 6574" d="M1006.653,351.754c-.127,0-.253,0-.38-.007-2.948-.1-6.067-1.815-8.557-4.7a14.2,14.2,0,0,1-3.712-9.24,10.247,10.247,0,0,1,3.417-7.121,13.671,13.671,0,0,1,9.61-3.658,9.9,9.9,0,0,1,7.656,4.554,15.165,15.165,0,0,1,2.782,9.057,11.863,11.863,0,0,1-3.621,8.282,10.448,10.448,0,0,1-7.195,2.832m-.048-24.19a13.16,13.16,0,0,0-8.812,3.518,9.708,9.708,0,0,0-3.246,6.741c-.188,6.177,5.959,13.18,11.745,13.381a9.918,9.918,0,0,0,7.185-2.679,11.316,11.316,0,0,0,3.449-7.9c.182-5.995-4.019-12.85-9.914-13.051-.135,0-.271-.007-.407-.007" transform="translate(-46.718 2763.208)" fill="#366f90"/>
    <path id="Path_6575" data-name="Path 6575" d="M568.613,49.845l6.786-1.751a4.853,4.853,0,0,0,3.486-5.909l-2.126-8.251a4.853,4.853,0,0,0-5.911-3.488l-4.8,1.238a4.847,4.847,0,0,1-5.356-2.178q-.318-.523-.654-1.037a4.819,4.819,0,0,1,.155-5.462l2.637-3.644a4.852,4.852,0,0,0-1.088-6.777l-6.905-4.993a4.852,4.852,0,0,0-6.773,1.085l-2.642,3.647a4.819,4.819,0,0,1-5.133,1.854q-.59-.158-1.183-.295a4.848,4.848,0,0,1-3.75-4.406l-.326-4.944A4.853,4.853,0,0,0,529.869.01l-8.505.561a4.853,4.853,0,0,0-4.523,5.16l.459,7a4.871,4.871,0,0,1-2.518,4.575,34.144,34.144,0,0,0-4.018,2.613,4.877,4.877,0,0,1-5.806.088l-4.469-3.234a4.852,4.852,0,0,0-6.777,1.088l-4.991,6.9a4.852,4.852,0,0,0,1.088,6.775l6.012,4.349a4.853,4.853,0,0,1,1.943,4.84q-.13.67-.233,1.343A4.829,4.829,0,0,1,493.95,46l-7.659,1.972a4.852,4.852,0,0,0-3.49,5.91l2.127,8.257a4.852,4.852,0,0,0,5.91,3.488l6.58-1.7a4.856,4.856,0,0,1,5.279,2.057l.037.057a4.84,4.84,0,0,1-.137,5.487L498.856,76.7a4.853,4.853,0,0,0,1.088,6.778l6.91,5a4.852,4.852,0,0,0,6.776-1.09l3.734-5.167a4.839,4.839,0,0,1,5.169-1.849l.073.02a4.856,4.856,0,0,1,3.607,4.372l.445,6.776a4.852,4.852,0,0,0,5.164,4.523l8.508-.566a4.853,4.853,0,0,0,4.52-5.163l-.524-7.894a4.83,4.83,0,0,1,2.613-4.63q.606-.308,1.2-.641a4.849,4.849,0,0,1,5.2.331l6.011,4.352a4.852,4.852,0,0,0,6.777-1.086l5-6.906a4.852,4.852,0,0,0-1.087-6.776l-4.472-3.236a4.878,4.878,0,0,1-1.734-5.538,33.973,33.973,0,0,0,1.219-4.63,4.873,4.873,0,0,1,3.559-3.829m-21.65,9.046c-5.8,8.019-21.053,9.618-29.072,3.817s-8.288-18.644-2.485-26.655S534.363,28.6,542.382,34.4s10.382,16.47,4.581,24.489" transform="translate(347.499 3015.319)" fill="#29abe2"/>
    <path id="Path_6576" data-name="Path 6576" d="M539.335,117.114a5,5,0,0,1-4.98-4.671l-.446-6.776a4.708,4.708,0,0,0-3.5-4.241l-.073-.019a4.717,4.717,0,0,0-5.013,1.793l-3.734,5.167a5,5,0,0,1-6.98,1.123l-6.91-5a5,5,0,0,1-1.12-6.981l3.741-5.168a4.719,4.719,0,0,0,.134-5.322l-.037-.057a4.708,4.708,0,0,0-5.12-2l-6.58,1.7a5,5,0,0,1-6.088-3.593L490.5,74.817A5,5,0,0,1,494.1,68.73l7.659-1.972a4.674,4.674,0,0,0,3.472-3.811c.069-.448.147-.9.234-1.349a4.715,4.715,0,0,0-1.885-4.694l-6.012-4.349a5,5,0,0,1-1.121-6.978l4.991-6.9a5,5,0,0,1,6.98-1.121l4.469,3.234a4.714,4.714,0,0,0,5.633-.086,34.339,34.339,0,0,1,4.035-2.624A4.751,4.751,0,0,0,525,33.638l-.459-7a5,5,0,0,1,4.658-5.315l8.505-.561a5,5,0,0,1,5.317,4.659l.326,4.944a4.674,4.674,0,0,0,3.637,4.274c.4.091.8.191,1.188.3a4.694,4.694,0,0,0,4.977-1.8l2.642-3.647a5,5,0,0,1,6.977-1.118l6.905,4.993a5,5,0,0,1,1.12,6.981l-2.638,3.644a4.692,4.692,0,0,0-.151,5.3c.224.342.445.692.657,1.041a4.674,4.674,0,0,0,5.195,2.112l4.8-1.238a5,5,0,0,1,6.089,3.593l2.126,8.251a5,5,0,0,1-3.591,6.087l-6.786,1.752-.036-.141.036.141a4.75,4.75,0,0,0-3.453,3.715,34.2,34.2,0,0,1-1.224,4.65,4.714,4.714,0,0,0,1.681,5.373l4.472,3.236a5,5,0,0,1,1.12,6.979l-5,6.906a5,5,0,0,1-6.98,1.119L561.1,98.513a4.711,4.711,0,0,0-5.046-.322c-.394.221-.8.437-1.205.643a4.674,4.674,0,0,0-2.534,4.491l.524,7.894a5,5,0,0,1-4.655,5.318l-8.508.566c-.113.008-.227.011-.339.011m-10.188-16.155a4.887,4.887,0,0,1,1.266.166l.073.019a5,5,0,0,1,3.714,4.5l.446,6.776a4.707,4.707,0,0,0,5.009,4.388l8.508-.566a4.712,4.712,0,0,0,4.384-5.008l-.524-7.894a4.965,4.965,0,0,1,2.693-4.77c.4-.2.8-.419,1.195-.638a5,5,0,0,1,5.36.341l6.012,4.352a4.706,4.706,0,0,0,6.573-1.053l5-6.906A4.712,4.712,0,0,0,577.8,88.1l-4.472-3.236a5,5,0,0,1-1.786-5.7,33.962,33.962,0,0,0,1.213-4.61,5.044,5.044,0,0,1,3.666-3.943l6.786-1.751a4.712,4.712,0,0,0,3.381-5.732l-2.125-8.25a4.707,4.707,0,0,0-5.733-3.383l-4.8,1.238a4.965,4.965,0,0,1-5.517-2.244c-.21-.346-.429-.693-.652-1.032a4.986,4.986,0,0,1,.159-5.628l2.638-3.644A4.706,4.706,0,0,0,569.5,33.6l-6.905-4.993a4.713,4.713,0,0,0-6.569,1.053l-2.642,3.647a4.986,4.986,0,0,1-5.29,1.909c-.388-.1-.785-.2-1.178-.293a4.963,4.963,0,0,1-3.863-4.539l-.326-4.944a4.707,4.707,0,0,0-5.006-4.387l-8.505.561a4.713,4.713,0,0,0-4.387,5l.46,7a5.043,5.043,0,0,1-2.593,4.712,34.057,34.057,0,0,0-4,2.6,5,5,0,0,1-5.98.09l-4.469-3.234a4.707,4.707,0,0,0-6.573,1.055l-4.992,6.9a4.712,4.712,0,0,0,1.055,6.571l6.012,4.349a5.007,5.007,0,0,1,2,4.986c-.086.443-.164.893-.232,1.337a4.966,4.966,0,0,1-3.688,4.049l-7.659,1.972a4.706,4.706,0,0,0-3.384,5.732L492.913,83a4.707,4.707,0,0,0,5.732,3.383l6.58-1.7a5,5,0,0,1,5.438,2.119l.037.056a5.012,5.012,0,0,1-.141,5.653l-3.741,5.168a4.706,4.706,0,0,0,1.055,6.574l6.91,5a4.707,4.707,0,0,0,6.573-1.057l3.734-5.167a5.025,5.025,0,0,1,4.059-2.07" transform="translate(341.566 2999.318)" fill="#366f90"/>
    <rect id="Rectangle_2528" data-name="Rectangle 2528" width="461.348" height="302.675" transform="translate(719.586 3015.318)" fill="none"/>
    <rect id="Rectangle_2529" data-name="Rectangle 2529" width="461.347" height="302.675" transform="translate(719.586 3015.318)" fill="none"/>
    <g id="Logo-01" transform="translate(965.287 3155.441)" style="mix-blend-mode: multiply;isolation: isolate">
      <g id="Icon" transform="translate(0 0)">
        <path id="Path_5753" data-name="Path 5753" d="M550.722,365.323l-.293.294-.929-.929a.061.061,0,0,0-.085,0l-3.62,3.621-.289-.288a.06.06,0,0,1,0-.085l3.915-3.914a.06.06,0,0,1,.085,0l1.216,1.217a.059.059,0,0,1,0,.085Z" transform="translate(-545.459 -364.004)" fill="#f2f2f2"/>
        <path id="Path_5754" data-name="Path 5754" d="M550.266,394.317l-.286.286-.661-.661a.06.06,0,0,0-.085,0l-.175.166-3.459,3.459-.29-.29a.06.06,0,0,1,0-.085l3.916-3.916a.061.061,0,0,1,.085,0l.955.955A.061.061,0,0,1,550.266,394.317Z" transform="translate(-545.27 -392.264)" fill="#f2f2f2"/>
        <rect id="Rectangle_2223" data-name="Rectangle 2223" width="1.069" height="1.076" rx="0.48" transform="translate(6.262 4.271) rotate(45)" fill="#f2f2f2"/>
        <rect id="Rectangle_2224" data-name="Rectangle 2224" width="1.069" height="1.076" rx="0.48" transform="translate(5.139 3.164) rotate(45)" fill="#f2f2f2"/>
        <path id="Path_5755" data-name="Path 5755" d="M548.646,428.527l-.9.9-.012.008-.05.049a.055.055,0,0,1-.079,0l-2.966-2.966a.06.06,0,0,1,0-.084l3.937-3.934a.06.06,0,0,1,.085,0l.682.682a.06.06,0,0,1,0,.085l-3.222,3.222,1.528,1.528.244-.244Z" transform="translate(-544.62 -420.49)" fill="#f2f2f2"/>
        <path id="Path_5756" data-name="Path 5756" d="M613.064,490.355l-.562.561a.136.136,0,0,1-.195,0l-2.46-2.461a.136.136,0,0,1,0-.194l.565-.56.01-.012,1.113-1.113s0,0,0,0l.093-.093a.056.056,0,0,1,.079,0l1.83,1.83a.055.055,0,0,1,0,.079l-.677.677a.005.005,0,0,0,0,0l-.388.392-.757-.757.354-.354-.4-.4-.407.409,1.8,1.8a.136.136,0,0,1,0,.193Z" transform="translate(-607.584 -482.289)" fill="#f2f2f2"/>
      </g>
    </g>
  </g>
</svg>
