<svg xmlns="http://www.w3.org/2000/svg" width="60" height="60" viewBox="0 0 60 60">
  <g id="Group_7050" data-name="Group 7050" transform="translate(11.173 4.087)">
    <g id="Group_5444" data-name="Group 5444" transform="translate(-11.173 -4.087)">
      <g id="Monthely">
        <path id="Path_9383" data-name="Path 9383" d="M56.091,4.636H51a4.547,4.547,0,0,0-8.909,0H19.909A4.573,4.573,0,0,0,15.455,1,4.5,4.5,0,0,0,11,4.636H5.909A4.889,4.889,0,0,0,1,9.545V47.455a4.889,4.889,0,0,0,4.909,4.909H35.636a12.156,12.156,0,0,0,23.545-1.091A5.117,5.117,0,0,0,61,47.455V9.545A4.889,4.889,0,0,0,56.091,4.636ZM46.545,2.818a2.679,2.679,0,0,1,2.727,2.727,2.727,2.727,0,1,1-5.455,0A2.735,2.735,0,0,1,46.545,2.818Zm-31.091,0a2.679,2.679,0,0,1,2.727,2.727,2.727,2.727,0,0,1-5.455,0A2.679,2.679,0,0,1,15.455,2.818ZM5.909,6.455H11a4.547,4.547,0,0,0,8.909,0H42.182a4.547,4.547,0,0,0,8.909,0h5a3.065,3.065,0,0,1,3.091,3.091v4.909H2.818V9.545A3.065,3.065,0,0,1,5.909,6.455Zm0,44.182a3.143,3.143,0,0,1-3.091-3.182V16.364H59.182V46.273a12.191,12.191,0,0,0-24.091,2.636,12.32,12.32,0,0,0,.182,1.818H5.909Zm41.364,8.545A10.364,10.364,0,1,1,57.636,48.818,10.359,10.359,0,0,1,47.273,59.182Z" transform="translate(-1 -1)" fill="#29abe2"/>
        <path id="Path_9384" data-name="Path 9384" d="M23.1,21.3H18.179a.854.854,0,0,0-.912.9V27.04a.854.854,0,0,0,.912.9H23.1a.854.854,0,0,0,.912-.9V22.2A.906.906,0,0,0,23.1,21.3Zm-.912,4.843h-3.1V23.094h3.1ZM33.77,21.3H28.847a.854.854,0,0,0-.912.9V27.04a.854.854,0,0,0,.912.9H33.77a.854.854,0,0,0,.912-.9V22.2A.906.906,0,0,0,33.77,21.3Zm-.912,4.843h-3.1V23.094h3.1Zm6.656,1.794h4.923a.854.854,0,0,0,.912-.9V22.2a.854.854,0,0,0-.912-.9H39.514a.854.854,0,0,0-.912.9V27.04A.907.907,0,0,0,39.514,27.937Zm.912-4.843h3.1v3.049h-3.1Zm9.756,4.843h4.923a.854.854,0,0,0,.912-.9V22.2a.854.854,0,0,0-.912-.9H50.182a.854.854,0,0,0-.912.9V27.04A.907.907,0,0,0,50.182,27.937Zm.912-4.843h3.1v3.049h-3.1ZM12.435,30.807H7.512a.854.854,0,0,0-.912.9v4.843a.854.854,0,0,0,.912.9h4.923a.854.854,0,0,0,.912-.9V31.7A.906.906,0,0,0,12.435,30.807Zm-.912,4.933h-3.1V32.69h3.1ZM23.1,30.807H18.179a.854.854,0,0,0-.912.9v4.843a.854.854,0,0,0,.912.9H23.1a.854.854,0,0,0,.912-.9V31.7A.906.906,0,0,0,23.1,30.807Zm-.912,4.933h-3.1V32.69h3.1Zm17.323,1.794h4.923a.854.854,0,0,0,.912-.9V31.793a.854.854,0,0,0-.912-.9H39.514a.854.854,0,0,0-.912.9v4.843A.973.973,0,0,0,39.514,37.533Zm.912-4.933h3.1v3.049h-3.1ZM12.435,40.4H7.512a.854.854,0,0,0-.912.9v4.843a.854.854,0,0,0,.912.9h4.923a.854.854,0,0,0,.912-.9V41.3A.854.854,0,0,0,12.435,40.4Zm-.912,4.843h-3.1V42.2h3.1ZM23.1,40.4H18.179a.854.854,0,0,0-.912.9v4.843a.854.854,0,0,0,.912.9H23.1a.854.854,0,0,0,.912-.9V41.3A.854.854,0,0,0,23.1,40.4Zm-.912,4.843h-3.1V42.2h3.1ZM33.77,30.807H28.847a.854.854,0,0,0-.912.9v4.843a.854.854,0,0,0,.912.9H33.77a.854.854,0,0,0,.912-.9V31.7A.906.906,0,0,0,33.77,30.807Zm-.912,4.933h-3.1V32.69h3.1Z" transform="translate(-1.578 -2.654)" fill="#29abe2"/>
      </g>
      <path id="Path_9389" data-name="Path 9389" d="M23.276,66.865a2.2,2.2,0,0,1-1.587,2.106v.293a.6.6,0,1,1-1.208,0v-.293a2.187,2.187,0,0,1-1.229-.907.6.6,0,1,1,1.01-.662.983.983,0,1,0,.823-1.521,2.191,2.191,0,0,1-.6-4.3v-.293a.6.6,0,0,1,1.208,0v.293a2.187,2.187,0,0,1,1.229.907.6.6,0,1,1-1.01.662.983.983,0,1,0-.823,1.521A2.194,2.194,0,0,1,23.276,66.865Zm-2.191-8.707a7.12,7.12,0,1,0,7.12,7.12A7.128,7.128,0,0,0,21.085,58.158Zm0,13.031A5.912,5.912,0,1,1,27,65.278,5.918,5.918,0,0,1,21.085,71.189Z" transform="translate(25.376 -16.85)" fill="#29abe2"/>
    </g>
  </g>
</svg>
