<svg xmlns="http://www.w3.org/2000/svg" width="437.993" height="430.501" viewBox="0 0 437.993 430.501">
  <g id="Group_134" data-name="Group 134" transform="translate(-527.224 -331.687)">
    <path id="_404" data-name="404" d="M57.79,112.631l-9.858.97V137.18l-8.827,1.056V114.469L.823,118.235v-6.9l36.3-62.471,10.807-.429v56.937l9.858-.9Zm-18.685-6.459V67.5q0-4.117.22-9.243l-.22.011q-.769,2.284-3.029,7.026L11.185,108.712Zm50.051,27.507q-5.385.651-9.622-1.609t-7.306-7.422q-1.551-2.609-2.716-5.887t-1.943-7.222q-.778-3.944-1.167-8.548t-.389-9.86q0-5.773.405-10.873t1.216-9.521q.81-4.421,2.024-8.155t2.829-6.776q1.6-3.007,3.54-5.294t4.229-3.851q2.286-1.564,4.913-2.4t5.59-.953q1.386-.053,2.683.063t2.506.4q1.209.286,2.329.742t2.154,1.081q1.033.626,1.979,1.421t1.8,1.761q.859.966,1.631,2.1t1.458,2.444q.686,1.307,1.285,2.786t1.113,3.13q.514,1.651.941,3.474t.77,3.82q.342,2,.6,4.166t.427,4.514q.171,2.344.256,4.864t.085,5.215q0,5.313-.382,10.029t-1.146,8.842q-.764,4.126-1.913,7.669t-2.682,6.507q-3.1,5.994-7.471,9.325T89.156,133.679ZM90.307,53.6q-1.938.089-3.637.758t-3.159,1.917q-1.46,1.248-2.678,3.074t-2.194,4.229q-.976,2.4-1.709,5.379t-1.222,6.525q-.489,3.548-.733,7.664t-.245,8.8q0,4.373.24,8.181t.719,7.047q.479,3.239,1.2,5.907t1.676,4.762q.957,2.094,2.152,3.612t2.626,2.459q1.431.941,3.1,1.3t3.568.148q1.84-.208,3.447-.931t2.982-1.96q1.375-1.238,2.519-2.991t2.058-4.025q.914-2.271,1.6-5.062t1.141-6.1q.456-3.313.684-7.15t.228-8.2q0-4.52-.223-8.456t-.67-7.292q-.447-3.356-1.118-6.135t-1.566-4.982q-.9-2.2-2.016-3.834T96.6,55.547Q95.258,54.488,93.684,54T90.307,53.6Zm73.442,48.611-8.044.791V124.29l-7.191.86V103.706l-31.059,3.055v-6.207L146.9,44.505l8.8-.349V95.567l8.044-.732Zm-15.235-5.987V61.326q0-3.715.179-8.338l-.179.009q-.626,2.058-2.465,6.325L125.842,98.283Z" transform="translate(770.495 331.687)" fill="#e60505" opacity="0.09"/>
    <g id="_404_Error_Page_" data-name="404 Error Page " transform="translate(531 334.686)">
      <g id="freepik--Shadow--inject-21" transform="translate(0 402.707)">
        <ellipse id="freepik--path--inject-21" cx="212.349" cy="12.398" rx="212.349" ry="12.398" fill="#f5f5f5"/>
      </g>
      <g id="freepik--character-1--inject-21" transform="translate(13.774 108.515)">
        <path id="Path_11253" data-name="Path 11253" d="M138.145,146.792c-8.827,8.882,6.177,22.671-3.735,29,8.094,4.063,36.459,9.222,43.808-6.757-5.356-4.162-1.632-14.391-6.571-24.215C164.254,130.254,129.317,136.705,138.145,146.792Z" transform="translate(-62.429 -136.302)" fill="#263238"/>
        <path id="Path_11254" data-name="Path 11254" d="M139.214,145.673c-2.749-.46-12.047,4.162-5.126,16.57,5.575,10.032.931,10.744.931,10.744s5.476.153,2.19-7.305C133.727,157.72,132.095,149.462,139.214,145.673Z" transform="translate(-62.699 -135.412)" fill="#263238"/>
        <path id="Path_11255" data-name="Path 11255" d="M201.3,220.624a2.694,2.694,0,0,0-3.614-1.1l-.646.34c-.208.11-.6.372-.92.559s-.69.394-1.04.57a17.017,17.017,0,0,1-2.136.9,13.448,13.448,0,0,1-4.217.8,11.576,11.576,0,0,1-3.888-.624,13.973,13.973,0,0,1-2.289-1.1c-.942-2.081-1.84-4.184-2.607-6.352-.931-2.53-1.752-5.115-2.475-7.732s-1.358-5.268-1.884-7.929c-.274-1.325-.515-2.661-.734-3.987l-.3-1.982c-.1-.635-.186-1.358-.241-1.862v-.219a5.5,5.5,0,0,0-10.952,1.1c.077.931.142,1.643.241,2.42s.208,1.522.318,2.278c.241,1.511.515,3,.821,4.49a84.191,84.191,0,0,0,2.3,8.762c.427,1.446.953,2.869,1.446,4.3s1.1,2.837,1.72,4.227a79.249,79.249,0,0,0,4.063,8.2l.131.241a4.261,4.261,0,0,0,1.7,1.687,22.188,22.188,0,0,0,6.626,2.344,18.432,18.432,0,0,0,7.185-.153A18.947,18.947,0,0,0,198.77,226a9.026,9.026,0,0,0,1.1-1.161c.307-.405.679-.789,1.1-1.358A2.694,2.694,0,0,0,201.3,220.624Z" transform="translate(-59.675 -131.574)" fill="#ff8b7b"/>
        <path id="Path_11256" data-name="Path 11256" d="M205.613,208.25H205.3a6.823,6.823,0,0,0-5.476,2.563l-5.29,6.637v4.534c4.249,1.687,9.638-2.858,9.638-2.858l2.727-.69a3.822,3.822,0,0,0,2.858-4.249l-.394-2.661A3.811,3.811,0,0,0,205.613,208.25Z" transform="translate(-56.705 -129.452)" fill="#ff8b7b"/>
        <path id="Path_11257" data-name="Path 11257" d="M174.444,185.06c3.538,3.636,3.757,14.49,3.757,14.49l-14.15,11.39s-5.816-16.1-2.6-21.784C164.182,184.337,169.931,180.428,174.444,185.06Z" transform="translate(-59.947 -131.857)" fill="#407bff"/>
        <g id="Group_5725" data-name="Group 5725" transform="translate(100.536 51.13)" opacity="0.2">
          <path id="Path_11258" data-name="Path 11258" d="M174.444,185.06c3.538,3.636,3.757,14.49,3.757,14.49l-14.15,11.39s-5.816-16.1-2.6-21.784C164.182,184.337,169.931,180.428,174.444,185.06Z" transform="translate(-160.483 -182.987)" fill="#fff"/>
        </g>
        <path id="Path_11259" data-name="Path 11259" d="M151.85,409.518l7.82.854,1.073-21.247-7.82-.865Z" transform="translate(-60.769 -112.314)" fill="#ff8b7b"/>
        <path id="Path_11260" data-name="Path 11260" d="M161.076,403.79h-9.189a.712.712,0,0,0-.734.668l-.613,8.685a1.741,1.741,0,0,0,1.7,1.741h21.806c4.008,0,4.019-4.063,2.289-4.436-7.787-1.643-10.821-3.921-13.57-6.089A2.738,2.738,0,0,0,161.076,403.79Z" transform="translate(-60.893 -110.835)" fill="#263238"/>
        <path id="Path_11261" data-name="Path 11261" d="M160.7,389.135l-.559,10.952H152.28l.6-11.817Z" transform="translate(-60.728 -112.313)" opacity="0.2"/>
        <path id="Path_11262" data-name="Path 11262" d="M166.194,234.575s6.768,56.655,6.768,81.845c-5.334,35.047-9.857,96.553-9.857,96.553l-10.821-.285s-4.917-66.983-.361-95.907c-5.837-25.913-13.044-85.711-13.044-85.711Z" transform="translate(-62.004 -127.279)" fill="#263238"/>
        <path id="Path_11263" data-name="Path 11263" d="M145.1,248.67a32.327,32.327,0,0,0-3.746,1.949c1.49,11.182,3.45,25.255,5.531,38.245C150.429,278.175,148.513,254.672,145.1,248.67Z" transform="translate(-61.768 -125.603)" opacity="0.2"/>
        <path id="Path_11264" data-name="Path 11264" d="M74.53,391.237l6.451,4.5L92.108,377.6l-6.451-4.5Z" transform="translate(-68.13 -113.757)" fill="#ff8b7b"/>
        <path id="Path_11265" data-name="Path 11265" d="M83.169,392.267,77.693,384.9a.7.7,0,0,0-.964-.186l-7.338,4.709a1.73,1.73,0,0,0-.383,2.4c2.289,3.121,2.333,3.143,5.213,7.02,1.785,2.377,5.345,7.163,7.8,10.459s5.662.8,4.917-.821c-3.286-7.217-3.286-10.952-3.22-14.5a2.782,2.782,0,0,0-.548-1.709Z" transform="translate(-68.686 -112.663)" fill="#263238"/>
        <path id="Path_11266" data-name="Path 11266" d="M91.669,377.6l-5.728,9.353-6.911-3.767,6.2-10.087Z" transform="translate(-67.702 -113.757)" opacity="0.2"/>
        <path id="Path_11267" data-name="Path 11267" d="M112.177,407.431c-5.6,0-17.249,0-17.447-8.236-.153-6.462,7.842-9.145,14.741-9.474a5.827,5.827,0,0,1,6.1,5.542v.438c7.82-.372,12.88-2.081,14.731-4.994,4.173-6.571-3.822-23.536-11.543-39.931-9.09-19.287-19.385-41.136-19.582-62.065a5.826,5.826,0,0,1,5.772-5.881h0a5.837,5.837,0,0,1,5.827,5.772c.175,18.378,9.857,39,18.465,57.2,9.857,21.006,18.454,39.154,10.843,51.146C135.669,404,126.524,407.431,112.177,407.431Z" transform="translate(-66.207 -122.351)" fill="#407bff"/>
        <path id="Path_11268" data-name="Path 11268" d="M163.227,233.574s-18.684,64.749-27.807,88.23c-17.677,30.731-47.006,77.76-47.006,77.76l-9.364-5.476s21.9-54.322,36.635-79.621c3.954-26.285,18.9-84.616,18.9-84.616Z" transform="translate(-67.7 -127.395)" fill="#263238"/>
        <path id="Path_11269" data-name="Path 11269" d="M83.581,396.7a3.122,3.122,0,0,0,1.621,1.325,1.1,1.1,0,0,0,1.1-.361.767.767,0,0,0,.241-.668c-.131-1.314-3.527-3.023-4.206-3.351a.175.175,0,0,0-.219.077.252.252,0,0,0,0,.274,16.189,16.189,0,0,0,1.468,2.705Zm2.333,0a.909.909,0,0,1,.186.416.263.263,0,0,1-.088.23.756.756,0,0,1-.723.241c-.723-.142-1.676-1.314-2.6-3.165a11.543,11.543,0,0,1,3.22,2.234Z" transform="translate(-67.412 -111.803)" fill="#407bff"/>
        <path id="Path_11270" data-name="Path 11270" d="M82.064,394.142l.066.055c1.1.6,3.943,1.1,4.567.186a.953.953,0,0,0-.055-1.1c-1.1-1.938-4.381.339-4.523.438a.263.263,0,0,0-.1.219A.362.362,0,0,0,82.064,394.142Zm4.162-.635a1.1,1.1,0,0,1,.088.12c.12.208.142.361.077.449-.361.526-2.464.34-3.691-.142C83.52,393.441,85.437,392.444,86.226,393.507Z" transform="translate(-67.417 -111.909)" fill="#407bff"/>
        <path id="Path_11271" data-name="Path 11271" d="M165.287,405.646a3.165,3.165,0,0,0,2.037-.515,1.1,1.1,0,0,0,.34-1.1.821.821,0,0,0-.394-.6c-1.1-.668-4.523,1.029-5.191,1.38a.186.186,0,0,0-.088.219.3.3,0,0,0,.208.186A15.253,15.253,0,0,0,165.287,405.646Zm1.358-1.895a.832.832,0,0,1,.449.1c.055,0,.11.077.131.208a.745.745,0,0,1-.241.723c-.537.493-2.048.559-4.085.2a11.413,11.413,0,0,1,3.691-1.227Z" transform="translate(-59.804 -110.884)" fill="#407bff"/>
        <path id="Path_11272" data-name="Path 11272" d="M162.2,405.46h.077c1.1-.5,3.231-2.508,2.88-3.548a.953.953,0,0,0-.876-.58c-2.19-.252-2.344,3.713-2.355,3.877a.246.246,0,0,0,.274.252Zm1.971-3.724h.153c.23,0,.372.1.405.208.208.6-1.194,2.19-2.322,2.88.1-.953.449-3.088,1.785-3.088Z" transform="translate(-59.809 -111.07)" fill="#407bff"/>
        <path id="Path_11273" data-name="Path 11273" d="M129.76,234.84l37.3,4.775c8.411-28.322,11.182-42,11.927-48.583a7.152,7.152,0,0,0-4.95-7.666c-2.19-.7-5.016-1.533-7.82-2.19-.953-.252-1.928-.482-2.88-.7a119.465,119.465,0,0,0-16.932-2.19c-.843-.077-1.676-.121-2.519-.164-1.654-.088-3.286-.11-4.775-.11a8.05,8.05,0,0,0-8.028,8.762c.3,3.286.526,6.341.7,9.145.416,6.571.548,11.828.449,16.428A141.674,141.674,0,0,1,129.76,234.84Z" transform="translate(-62.872 -132.331)" fill="#407bff"/>
        <g id="Group_5726" data-name="Group 5726" transform="translate(66.888 45.679)" opacity="0.3">
          <path id="Path_11274" data-name="Path 11274" d="M129.76,234.84l37.3,4.775c8.411-28.322,11.182-42,11.927-48.583a7.152,7.152,0,0,0-4.95-7.666c-2.19-.7-5.016-1.533-7.82-2.19-.953-.252-1.928-.482-2.88-.7a119.465,119.465,0,0,0-16.932-2.19c-.843-.077-1.676-.121-2.519-.164-1.654-.088-3.286-.11-4.775-.11a8.05,8.05,0,0,0-8.028,8.762c.3,3.286.526,6.341.7,9.145.416,6.571.548,11.828.449,16.428A141.674,141.674,0,0,1,129.76,234.84Z" transform="translate(-129.76 -178.01)" fill="#fff"/>
        </g>
        <path id="Path_11275" data-name="Path 11275" d="M132.039,210.858c4.928-6.374,6.714-13.668,5.115-17.688l-5.564,1.249C132.039,200.968,132.16,206.247,132.039,210.858Z" transform="translate(-62.698 -130.887)" fill="#407bff" opacity="0.3"/>
        <path id="Path_11276" data-name="Path 11276" d="M165.118,181.11c-.964-.252-1.928-.482-2.88-.7a121.185,121.185,0,0,0-16.943-2.19c-.843-.066-1.676-.11-2.508-.153L141.33,178l1.1,1.917c.153.263,3.877,6.352,13.142,12.9l1.982,1.38,1.906-1.457a14.391,14.391,0,0,0,6-11.533Z" transform="translate(-61.77 -132.332)" fill="#fff"/>
        <path id="Path_11277" data-name="Path 11277" d="M149.068,168.164c-.35,4.611-1.435,9.309-4.118,11.281,0,0,3.417,5.684,12.266,11.894,5.542-4.238,4.677-9.725,4.677-9.725-5.892-2.19-5.476-6.276-2.99-12.792l-4.6-2.475a3.012,3.012,0,0,0-5.235,1.818Z" transform="translate(-61.426 -133.535)" fill="#ff8b7b"/>
        <path id="Path_11278" data-name="Path 11278" d="M153.94,166.346a3.012,3.012,0,0,0-5.18,1.4,18.618,18.618,0,0,0,8.05,8.225,19.944,19.944,0,0,1,1.719-7.152Z" transform="translate(-61.063 -133.535)" opacity="0.2"/>
        <path id="Path_11279" data-name="Path 11279" d="M142.208,156.1c2.289,8.9,3.067,12.715,8.51,16.428,8.181,5.629,18.618.876,19.024-8.521.383-8.466-3.417-21.608-12.923-23.492a12.54,12.54,0,0,0-14.61,15.585Z" transform="translate(-61.729 -135.925)" fill="#ff8b7b"/>
        <path id="Path_11280" data-name="Path 11280" d="M165.127,142.469a48.08,48.08,0,0,1-18.618,10.262s6.8,14.468-5.925,10.821c-3.691-12.321,0-18.717,3.286-21.729C153.989,138.537,161.108,137.442,165.127,142.469Z" transform="translate(-61.988 -136.042)" fill="#263238"/>
        <path id="Path_11281" data-name="Path 11281" d="M141.81,163.113a6.724,6.724,0,0,0,3.768,3.483c2.19.789,3.494-1.1,3.023-3.286-.427-1.96-2.092-4.742-4.381-4.6a3.012,3.012,0,0,0-2.409,4.4Z" transform="translate(-61.758 -134.169)" fill="#ff8b7b"/>
        <path id="Path_11282" data-name="Path 11282" d="M129.7,227.859l-2.114,3.121c-.164.241.11.548.537.6l39.121,5.016c.34,0,.635-.088.69-.3l.767-3.286c0-.23-.219-.46-.58-.515l-37.785-4.841a.657.657,0,0,0-.635.2Z" transform="translate(-63.084 -127.605)" fill="#407bff"/>
        <path id="Path_11283" data-name="Path 11283" d="M133.755,232.714l-1.008-.131c-.2,0-.339-.153-.307-.274l1.029-4.282a.362.362,0,0,1,.416-.175l1.019.131c.2,0,.34.142.307.274l-1.029,4.271C134.149,232.659,133.963,232.736,133.755,232.714Z" transform="translate(-62.617 -127.587)" fill="#263238"/>
        <path id="Path_11284" data-name="Path 11284" d="M161.265,236.233l-1.008-.12c-.2,0-.34-.153-.307-.285l1.03-4.271c0-.12.219-.208.416-.186l1.019.131c.2,0,.34.153.307.274l-1.03,4.282C161.659,236.178,161.473,236.266,161.265,236.233Z" transform="translate(-59.998 -127.251)" fill="#263238"/>
        <path id="Path_11285" data-name="Path 11285" d="M147.516,234.473l-1.008-.131c-.208,0-.35-.142-.318-.274l1.03-4.271c0-.131.219-.208.427-.186l1.008.131c.2,0,.34.153.318.274l-1.04,4.282C147.91,234.418,147.713,234.495,147.516,234.473Z" transform="translate(-61.308 -127.418)" fill="#263238"/>
        <path id="Path_11286" data-name="Path 11286" d="M156.1,154.5c.131.734.635,1.259,1.1,1.161s.756-.756.613-1.49-.646-1.259-1.1-1.161S155.993,153.767,156.1,154.5Z" transform="translate(-60.366 -134.712)" fill="#263238"/>
        <path id="Path_11287" data-name="Path 11287" d="M163.663,153.051c.142.734.646,1.249,1.1,1.161s.756-.767.613-1.5-.646-1.249-1.1-1.161S163.531,152.317,163.663,153.051Z" transform="translate(-59.647 -134.851)" fill="#263238"/>
        <path id="Path_11288" data-name="Path 11288" d="M164,151.7l1.665-.854S165.1,152.405,164,151.7Z" transform="translate(-59.612 -134.916)" fill="#263238"/>
        <path id="Path_11289" data-name="Path 11289" d="M161.66,154.42a20.3,20.3,0,0,0,3.516,4.173,3.187,3.187,0,0,1-2.519,1Z" transform="translate(-59.835 -134.577)" fill="#ff5652"/>
        <path id="Path_11290" data-name="Path 11290" d="M156.945,161.9a.219.219,0,0,0,.263.34,5.881,5.881,0,0,1,5.345,0,.219.219,0,0,0,.3-.077.23.23,0,0,0-.066-.307,6.33,6.33,0,0,0-5.772,0S157.01,161.882,156.945,161.9Z" transform="translate(-60.289 -133.934)" fill="#263238"/>
        <path id="Path_11291" data-name="Path 11291" d="M153.549,152.572a.394.394,0,0,0,.153-.175,3.472,3.472,0,0,1,2.475-1.96.438.438,0,0,0,.383-.493.427.427,0,0,0-.482-.383,4.381,4.381,0,0,0-3.165,2.453.438.438,0,0,0,.635.559Z" transform="translate(-60.672 -135.04)" fill="#263238"/>
        <path id="Path_11292" data-name="Path 11292" d="M166.283,147.37l.055-.055a.438.438,0,0,0-.11-.613,4.381,4.381,0,0,0-3.965-.591.449.449,0,0,0-.241.57.438.438,0,0,0,.57.241,3.461,3.461,0,0,1,3.132.5A.427.427,0,0,0,166.283,147.37Z" transform="translate(-59.803 -135.39)" fill="#263238"/>
        <path id="Path_11293" data-name="Path 11293" d="M156.47,153.153l1.665-.843S157.489,153.854,156.47,153.153Z" transform="translate(-60.329 -134.777)" fill="#263238"/>
        <path id="Path_11294" data-name="Path 11294" d="M104.617,299.407a5.827,5.827,0,0,1-5.826-5.772c-.153-15.552,5.027-28.683,14.982-37.971,12.255-11.434,31.367-16.746,53.84-14.971,15.76,1.249,25.869-2.585,37.566-7.042,1.928-.723,3.866-1.468,5.859-2.19a5.828,5.828,0,0,1,3.987,10.952c-1.939.7-3.822,1.424-5.7,2.136-11.927,4.534-24.248,9.211-42.636,7.765-19.166-1.522-35.134,2.694-44.969,11.872-7.666,7.1-11.4,16.965-11.281,29.341a5.827,5.827,0,0,1-5.772,5.881Z" transform="translate(-65.821 -127.275)" fill="#407bff"/>
        <path id="Path_11295" data-name="Path 11295" d="M0,0H24.96a7.853,7.853,0,0,1,7.853,7.853V35.988a7.853,7.853,0,0,1-7.853,7.853H0V0Z" transform="translate(173.545 123.365) rotate(159.88)" fill="#407bff"/>
        <path id="Path_11296" data-name="Path 11296" d="M0,0H24.96a7.853,7.853,0,0,1,7.853,7.853V35.988a7.853,7.853,0,0,1-7.853,7.853H0V0Z" transform="translate(173.545 123.365) rotate(159.88)" fill="#fff" opacity="0.7"/>
        <path id="Path_11297" data-name="Path 11297" d="M203.843,215.172,214.3,211.35l15.07,41.158-10.459,3.833a6.319,6.319,0,0,1-1.555-2.409L204.215,218.02A6.243,6.243,0,0,1,203.843,215.172Z" transform="translate(-55.822 -129.157)" fill="#407bff" opacity="0.2"/>
        <rect id="Rectangle_3855" data-name="Rectangle 3855" width="1.095" height="7.294" transform="translate(180.939 92.82) rotate(-20.12)" fill="#407bff"/>
        <path id="Path_11298" data-name="Path 11298" d="M234.376,218.64l-3.691-10.1a8.937,8.937,0,0,0-8.378-5.837,8.762,8.762,0,0,0-3.045.537l-6.659,2.442-.383-1.029,6.67-2.442a9.856,9.856,0,0,1,3.417-.6,10.054,10.054,0,0,1,9.408,6.571l3.691,10.1Z" transform="translate(-55.021 -130.084)" fill="#407bff"/>
        <rect id="Rectangle_3856" data-name="Rectangle 3856" width="22.715" height="51.354" rx="5.62" transform="matrix(-0.94, 0.34, -0.34, -0.94, 189.293, 120.683)" fill="#407bff"/>
        <path id="Path_11299" data-name="Path 11299" d="M222.754,218.058a3.286,3.286,0,1,1-4.206-1.96,3.286,3.286,0,0,1,4.206,1.96Z" transform="translate(-54.625 -128.723)" fill="#263238"/>
        <path id="Path_11300" data-name="Path 11300" d="M230.224,238.448a3.286,3.286,0,1,1-1.7-1.854,3.286,3.286,0,0,1,1.7,1.854Z" transform="translate(-53.914 -126.782)" fill="#263238"/>
        <path id="Path_11301" data-name="Path 11301" d="M144.258,240.949l-.088-.1c-1.709-1.709-3.516-3.57-5.147-5.476s-3.231-3.811-4.687-5.783a54.118,54.118,0,0,1-3.888-6.035,31.458,31.458,0,0,1-2.114-4.677c.657-2.19,1.358-4.381,2.19-6.484.953-2.53,2.026-5.016,3.2-7.469s2.42-4.863,3.768-7.217c.657-1.183,1.347-2.355,2.059-3.5l1.1-1.687c.34-.548.745-1.1,1.029-1.566l.12-.175a5.476,5.476,0,0,0-8.937-6.319c-.548.745-.964,1.336-1.4,1.982s-.832,1.292-1.249,1.939c-.8,1.292-1.577,2.6-2.322,3.921a86.52,86.52,0,0,0-4.019,8.148c-.613,1.38-1.1,2.793-1.719,4.206a35.81,35.81,0,0,0-1.479,4.315,80.856,80.856,0,0,0-2.289,8.86v.252a4.381,4.381,0,0,0,.164,2.4,35.9,35.9,0,0,0,4.195,7.929,52.81,52.81,0,0,0,5.41,6.571,67.583,67.583,0,0,0,6.122,5.531,65.139,65.139,0,0,0,6.757,4.72,2.716,2.716,0,0,0,3.286-4.271Z" transform="translate(-63.964 -131.923)" fill="#ff8b7b"/>
        <path id="Path_11302" data-name="Path 11302" d="M155.124,241.315l-.142-.285a6.79,6.79,0,0,0-4.786-3.724l-8.313-1.687-4.063,2.026c.438,4.556,6.944,7.283,6.944,7.283l1.851,2.114a3.833,3.833,0,0,0,5.082.6l2.19-1.566a3.811,3.811,0,0,0,1.238-4.764Z" transform="translate(-62.104 -126.846)" fill="#ff8b7b"/>
        <path id="Path_11303" data-name="Path 11303" d="M136.017,178.71c-4.611,2.114-9.517,9.43-9.517,9.43l9.857,18.454s11.2-12.912,10.262-19.374C145.852,181.733,141.888,176.016,136.017,178.71Z" transform="translate(-63.182 -132.33)" fill="#407bff"/>
        <g id="Group_5727" data-name="Group 5727" transform="translate(63.318 45.692)" opacity="0.3">
          <path id="Path_11304" data-name="Path 11304" d="M136.017,178.71c-4.611,2.114-9.517,9.43-9.517,9.43l9.857,18.454s11.2-12.912,10.262-19.374C145.852,181.733,141.888,176.016,136.017,178.71Z" transform="translate(-126.5 -178.022)" fill="#fff"/>
        </g>
      </g>
      <g id="freepik--character-2--inject-21" transform="translate(237.843 85.444)">
        <path id="Path_11305" data-name="Path 11305" d="M431.906,423c-9.649,0-19.133-1.982-23.733-7.984C386.4,386.537,386.6,329.258,386.784,273.829c.11-29.844,2.464-58.046-.854-79.95-1.949-12.912-8.762-21.773-15.639-26.351-10.207-6.746-24.226-3.121-30.217-1.577a5.826,5.826,0,1,1-2.914-11.282c7.48-1.937,25.026-6.461,39.548,3.133,9.8,6.473,18.279,18.027,20.743,34.335,3.45,22.78,1.1,51.4.986,81.691-.186,53.479-.372,108.776,18.991,134.064,1.566,2.037,7.666,3.866,17.8,3.34.9,0,1.774-.1,2.639-.175a5.717,5.717,0,0,1-.591-2.552,5.827,5.827,0,0,1,5.827-5.827c12.737,0,19.44,1.1,20.732,6.922.372,1.676.57,5.881-5.586,8.762C453.646,420.521,442.672,423,431.906,423Z" transform="translate(-267.612 -111.747)" fill="#407bff"/>
        <path id="Path_11306" data-name="Path 11306" d="M307.9,406.217l-11.883-4.677,6.265-20.6,11.894,4.666Z" transform="translate(-271.113 -89.941)" fill="#ffc3bd"/>
        <path id="Path_11307" data-name="Path 11307" d="M297.141,398.614l13.405,5.257a.822.822,0,0,1,.5.876l-1.314,8.345a1.369,1.369,0,0,1-1.862,1.04c-3.362-1.391-8.63-3.691-12.891-5.367-2.618-1.029-7.6-2.672-11.226-4.1s-2.683-5.191-1.1-4.928c7.217,1.161,9.977-.077,12.858-1.15A2.19,2.19,0,0,1,297.141,398.614Z" transform="translate(-272.518 -88.274)" fill="#263238"/>
        <path id="Path_11308" data-name="Path 11308" d="M313.915,385.617l-11.894-4.677-3.231,10.623,11.894,4.677Z" transform="translate(-270.849 -89.941)" opacity="0.2"/>
        <path id="Path_11309" data-name="Path 11309" d="M328.925,239.61s-10.755,53.161-14.862,79.381c-4.622,29.384-16.833,83.06-16.833,83.06l15.8,6.21s22.572-54.957,25.715-81.571c9.474-21.63,28.311-85.284,28.311-85.284Z" transform="translate(-270.998 -103.396)" fill="#407bff"/>
        <path id="Path_11310" data-name="Path 11310" d="M296.53,388.573l17.348,6.823,2.968-5.257-19.4-8.039Z" transform="translate(-271.064 -89.83)" fill="#263238"/>
        <path id="Path_11311" data-name="Path 11311" d="M292.793,399.052a2.836,2.836,0,0,1-1.489-1.1,1.358,1.358,0,0,1,0-1.248.679.679,0,0,1,.569-.438c1.15-.12,3.286,2.683,3.494,3.012a.221.221,0,0,1-.219.339A11.148,11.148,0,0,1,292.793,399.052Zm-.58-2.289a.547.547,0,0,0-.285-.055c-.066,0-.142,0-.219.186a.876.876,0,0,0,0,.854c.318.581,1.413,1.1,3,1.358A8.607,8.607,0,0,0,292.212,396.763Z" transform="translate(-271.576 -88.481)" fill="#407bff"/>
        <path id="Path_11312" data-name="Path 11312" d="M294.9,399.727a.175.175,0,0,1-.088-.066c-.7-.832-1.687-3.406-1.1-4.293a.723.723,0,0,1,.865-.274,1.2,1.2,0,0,1,.767.6c.679,1.216-.088,3.779-.12,3.888a.23.23,0,0,1-.175.153.153.153,0,0,1-.153-.011Zm-.372-4.184h-.088c-.285-.066-.35,0-.383.1-.329.526.208,2.388.832,3.406a5.279,5.279,0,0,0,0-3.11A.767.767,0,0,0,294.526,395.543Z" transform="translate(-271.349 -88.598)" fill="#407bff"/>
        <path id="Path_11313" data-name="Path 11313" d="M348.061,269c-5.958,7.382-8.313,26.2-8.291,41.881,4.019-11.073,8.63-25.135,12.682-37.905Z" transform="translate(-266.948 -100.598)" opacity="0.2"/>
        <path id="Path_11314" data-name="Path 11314" d="M373.428,407.7h-12.77l-1.7-21.466h12.77Z" transform="translate(-265.121 -89.437)" fill="#ffc3bd"/>
        <path id="Path_11315" data-name="Path 11315" d="M361.056,404.85h14.4a.8.8,0,0,1,.789.635l1.829,8.236a1.369,1.369,0,0,1-1.358,1.654c-3.636-.066-9.364-.285-13.942-.285-2.826,0-8.061.3-11.949.3s-4.381-3.844-2.815-4.195c7.152-1.566,9.276-3.713,11.554-5.772A2.256,2.256,0,0,1,361.056,404.85Z" transform="translate(-266.242 -87.664)" fill="#263238"/>
        <path id="Path_11316" data-name="Path 11316" d="M371.731,386.23H358.95l.887,11.073h12.781Z" transform="translate(-265.121 -89.437)" opacity="0.2"/>
        <path id="Path_11317" data-name="Path 11317" d="M340.29,240.22s7.075,59.24,8.565,80.563c2.07,29.68,10.076,88.274,10.076,88.274h16.976s1.818-59.842-1.248-86.466c4.227-23.229,2.891-80.585,2.891-80.585Z" transform="translate(-266.898 -103.338)" fill="#407bff"/>
        <path id="Path_11318" data-name="Path 11318" d="M356.821,395.263h18.64l.843-5.969-21-.394Z" transform="translate(-265.468 -89.183)" fill="#263238"/>
        <path id="Path_11319" data-name="Path 11319" d="M357.2,406.384a2.825,2.825,0,0,1-1.785-.471,1.369,1.369,0,0,1-.46-1.161.7.7,0,0,1,.383-.624c1.03-.526,4.019,1.314,4.381,1.522a.219.219,0,0,1,.11.219.252.252,0,0,1-.175.186A10.947,10.947,0,0,1,357.2,406.384Zm-1.38-1.917a.58.58,0,0,0-.285.055c-.055,0-.12.088-.131.252a.876.876,0,0,0,.3.8c.5.427,1.72.482,3.286.164a8.85,8.85,0,0,0-3.132-1.271Z" transform="translate(-265.503 -87.742)" fill="#407bff"/>
        <path id="Path_11320" data-name="Path 11320" d="M359.438,406.243h-.11c-.953-.526-2.815-2.552-2.618-3.592a.712.712,0,0,1,.7-.57,1.172,1.172,0,0,1,.931.274c1.1.887,1.3,3.559,1.314,3.669a.241.241,0,0,1-.1.208A.252.252,0,0,1,359.438,406.243Zm-1.873-3.757h-.1c-.285,0-.307.175-.318.23-.121.6,1.1,2.19,2.015,2.869a5.323,5.323,0,0,0-1.1-2.913.822.822,0,0,0-.5-.186Z" transform="translate(-265.336 -87.929)" fill="#407bff"/>
        <path id="Path_11321" data-name="Path 11321" d="M350.228,166.975h0L340,166.844c-3.439,0-6.856-.11-10.24-.164-1.029,0-2.037-.066-3.056-.11.066,0,.109-.12.164-.175.723-.767,1.446-1.555,2.19-2.311q.558-.591,1.1-1.15c.339-.372.778-.789,1.008-1.1l.931-1.183a5.662,5.662,0,0,0-5.936-8.959l-2.026.548c-.624.186-1.249.394-1.873.6-1.227.427-2.431.9-3.625,1.413a53.764,53.764,0,0,0-6.955,3.7,49.976,49.976,0,0,0-6.516,4.961,43.17,43.17,0,0,0-5.816,6.473,9.935,9.935,0,0,0-1.1,1.884,9.594,9.594,0,0,0,4.95,12.628l1,.438a42.008,42.008,0,0,0,6.965,2.3c2.081.537,4.052.887,5.991,1.216s3.833.591,5.717.821,3.746.405,5.607.559c3.713.329,7.393.493,11.062.6s7.261.11,11.073-.066a11.412,11.412,0,0,0-.372-22.813Z" transform="translate(-270.977 -111.784)" fill="#ffc3bd"/>
        <path id="Path_11322" data-name="Path 11322" d="M353.7,185.737c-8.838,10.076-30.107,6.308-30.107,6.308l1.172-25.1a110.615,110.615,0,0,1,22.189-2.574C359.436,164.348,360.772,177.655,353.7,185.737Z" transform="translate(-268.488 -110.559)" fill="#263238"/>
        <path id="Path_11323" data-name="Path 11323" d="M330.06,178.014c-.526,4.052-1.1,9.506-1.435,16.844-4.611,23.328-6.33,39.854-2.256,51.913,3.22,3.976,45.177,3.209,52.723,2.442,4.381-10.843,4.841-41.968,5.356-68.133a15.081,15.081,0,0,0-12.54-15.136,101.3,101.3,0,0,0-28.607-.964,15.07,15.07,0,0,0-13.241,13.033Z" transform="translate(-268.442 -110.557)" fill="#263238"/>
        <path id="Path_11324" data-name="Path 11324" d="M366.71,191.37c.142,7.973,5.925,20.71,12.431,27.172.394-6.736.646-14.041.843-21.411Z" transform="translate(-264.383 -107.989)" opacity="0.2"/>
        <path id="Path_11325" data-name="Path 11325" d="M404.073,209.074l-.372-.876a83.221,83.221,0,0,0-5.356-10.591c-1.949-3.286-4.052-6.385-6.232-9.375s-4.49-5.848-6.856-8.63c-1.2-1.38-2.4-2.76-3.658-4.1l-1.895-1.993-2.015-2.037a11.412,11.412,0,0,0-16.516,15.738l.329.361,6.429,7.152c2.19,2.431,4.282,4.907,6.363,7.371,1.008,1.238,2.048,2.475,2.99,3.735s1.938,2.475,2.88,3.724c1.358,1.895,2.672,3.778,3.844,5.629a28.127,28.127,0,0,1-.679,2.771,79.6,79.6,0,0,1-2.771,7.82c-1.1,2.705-2.256,5.476-3.461,8.2s-2.5,5.575-3.647,8.313l-.11.241a5.761,5.761,0,0,0,9.2,6.473,90.9,90.9,0,0,0,6.867-7.1,87.6,87.6,0,0,0,6.166-7.776c.975-1.369,1.906-2.793,2.826-4.271a49.5,49.5,0,0,0,2.618-4.655,43.543,43.543,0,0,0,2.3-5.388,24.525,24.525,0,0,0,1.4-7.349A8.2,8.2,0,0,0,404.073,209.074Z" transform="translate(-265.187 -110.196)" fill="#ffc3bd"/>
        <path id="Path_11326" data-name="Path 11326" d="M369.529,165.955c14.774,2.53,24.4,22.528,24.4,22.528l-17.808,19.155s-10.262-10.448-16.428-20.13C353.046,176.973,358.949,164.159,369.529,165.955Z" transform="translate(-265.318 -110.424)" fill="#263238"/>
        <path id="Path_11327" data-name="Path 11327" d="M344.074,139.236c-2.475-4.151-3.286-9.857,1.249-15.672a4.6,4.6,0,0,1-4.512-2.19,27.15,27.15,0,0,1,17.622-6.133c13.252,0,14.238,5.115,13.789,8.608,9.068.58,15.683,24.16-7.305,28.333C351.762,138.327,344.074,139.236,344.074,139.236Z" transform="translate(-266.849 -115.237)" fill="#263238"/>
        <path id="Path_11328" data-name="Path 11328" d="M368.808,124.214s3.691-3.768-.9-8.324a6.177,6.177,0,0,1,4.315,4.293C372.871,122.834,371.086,124.958,368.808,124.214Z" transform="translate(-264.268 -115.175)" fill="#263238"/>
        <path id="Path_11329" data-name="Path 11329" d="M365.926,146.34c-.35,7.261-1.008,15.519.208,21.313-1.884,2.968-6.7,6.385-15.333,7.152-3.067-1.741-7.119-6-5.706-8.192,3.669-2.355,5.224-9.484,4.173-14.818Z" transform="translate(-266.468 -112.276)" fill="#ffc3bd"/>
        <path id="Path_11330" data-name="Path 11330" d="M361.334,147.59l-12.474,4.085a19.572,19.572,0,0,1,.055,6.878c3.724-.12,8.882-2.924,10.821-5.553A6.921,6.921,0,0,0,361.334,147.59Z" transform="translate(-266.082 -112.157)" opacity="0.2"/>
        <path id="Path_11331" data-name="Path 11331" d="M369.81,137.218c-2.311,8.9-3.209,14.238-8.663,17.972-8.2,5.618-18.52-.679-18.925-10.087-.35-8.477,3.483-21.619,13.011-23.492a12.551,12.551,0,0,1,14.577,15.607Z" transform="translate(-266.716 -114.653)" fill="#ffc3bd"/>
        <path id="Path_11332" data-name="Path 11332" d="M366.139,124.2c-3.91,2.782-8.762,14.566,1.1,19.3C376.084,135.722,373.795,124.2,366.139,124.2Z" transform="translate(-264.885 -114.384)" fill="#263238"/>
        <path id="Path_11333" data-name="Path 11333" d="M369.9,126.177c1.676-7.754-17.9-11.762-24.095-2.705C343.7,128.926,368.713,133.745,369.9,126.177Z" transform="translate(-266.385 -114.947)" fill="#263238"/>
        <path id="Path_11334" data-name="Path 11334" d="M355.04,144.612h0a18.925,18.925,0,0,0-6.44-1.632.23.23,0,0,0-.23.241.318.318,0,0,0,.3.263,18.345,18.345,0,0,1,6.177,1.555.263.263,0,0,0,.34-.12.23.23,0,0,0-.142-.307Z" transform="translate(-266.129 -112.596)" fill="#263238"/>
        <path id="Path_11335" data-name="Path 11335" d="M370.158,145.316a8.761,8.761,0,0,1-6.089,2.749c-3.067.066-3.844-2.858-2.366-5.356,1.336-2.19,4.534-4.994,7.316-3.877S372.086,143.224,370.158,145.316Z" transform="translate(-264.928 -113.015)" fill="#ffc3bd"/>
        <path id="Path_11336" data-name="Path 11336" d="M354.631,135.827c-.142.734-.646,1.259-1.1,1.161s-.745-.767-.6-1.5.646-1.249,1.1-1.1S354.773,135.06,354.631,135.827Z" transform="translate(-265.698 -113.416)" fill="#263238"/>
        <path id="Path_11337" data-name="Path 11337" d="M347.062,134.361c-.142.734-.646,1.249-1.1,1.161s-.756-.767-.613-1.5.646-1.26,1.1-1.161S347.16,133.628,347.062,134.361Z" transform="translate(-266.419 -113.56)" fill="#263238"/>
        <path id="Path_11338" data-name="Path 11338" d="M349.661,135a26.863,26.863,0,0,1-4.731,5.6c1.1,1.457,3.516,1.172,3.516,1.172Z" transform="translate(-266.456 -113.355)" fill="#ed847e"/>
        <path id="Path_11339" data-name="Path 11339" d="M353.42,131.811a.471.471,0,0,1,.438.131,3.494,3.494,0,0,0,2.913,1.26.449.449,0,0,1,.5.372.427.427,0,0,1-.372.493,4.381,4.381,0,0,1-3.7-1.544.427.427,0,0,1,0-.613.558.558,0,0,1,.219-.1Z" transform="translate(-265.681 -113.66)" fill="#263238"/>
        <path id="Path_11340" data-name="Path 11340" d="M344.6,129.743a.394.394,0,0,1-.23-.142.438.438,0,0,1,.077-.624,4.381,4.381,0,0,1,3.91-.843.449.449,0,0,1,.285.559.471.471,0,0,1-.559.274h0a3.494,3.494,0,0,0-3.1.7.383.383,0,0,1-.383.077Z" transform="translate(-266.519 -114.023)" fill="#263238"/>
        <path id="Path_11341" data-name="Path 11341" d="M377.668,235.566l-9.408-.066,4.863,10.8s8.028-1.719,7.59-6.078Z" transform="translate(-264.235 -103.787)" fill="#ffc3bd"/>
        <path id="Path_11342" data-name="Path 11342" d="M363.925,242.915l1.544,3.045a3.658,3.658,0,0,0,4.611,1.73l3.494-1.391-4.863-10.8-3.735,2.848A3.647,3.647,0,0,0,363.925,242.915Z" transform="translate(-264.686 -103.787)" fill="#ffc3bd"/>
        <path id="Path_11343" data-name="Path 11343" d="M311.962,235.343a5.837,5.837,0,0,1-4.173-9.857c4.184-4.315,7.962-7.666,11.292-10.591,8.039-7.086,10.81-9.857,10.547-15.169a53.357,53.357,0,0,0-2.081-9.66c-2.4-8.816-5.115-18.794-.46-26.8,2.5-4.3,6.736-7.25,12.606-8.762a5.826,5.826,0,1,1,2.914,11.282c-4.129,1.094-5.126,2.77-5.476,3.339-2.19,3.778-.077,11.6,1.632,17.874a60.83,60.83,0,0,1,2.475,12.157c.548,11.226-6.078,17.074-14.479,24.478-3.165,2.8-6.768,5.98-10.645,9.966A5.793,5.793,0,0,1,311.962,235.343Z" transform="translate(-270.145 -111.516)" fill="#407bff"/>
        <path id="Path_11344" data-name="Path 11344" d="M323.289,152.1l9.112-2.333-2.125,11.653s-8.2.252-8.816-4.074Z" transform="translate(-268.691 -111.949)" fill="#ffc3bd"/>
        <path id="Path_11345" data-name="Path 11345" d="M338.031,155.947l-.7,3.045a3.822,3.822,0,0,1-4.249,2.924l-3.57-.493,2.125-11.653,4.184,1.807A3.822,3.822,0,0,1,338.031,155.947Z" transform="translate(-267.924 -111.949)" fill="#ffc3bd"/>
        <rect id="Rectangle_3857" data-name="Rectangle 3857" width="6.024" height="51.354" rx="2.59" transform="translate(36.306 102.41) rotate(44.99)" fill="#263238"/>
        <rect id="Rectangle_3858" data-name="Rectangle 3858" width="6.024" height="51.354" rx="2.59" transform="translate(53.138 119.223) rotate(45)" fill="#263238"/>
        <path id="Path_11346" data-name="Path 11346" d="M0,0H32.188a7.853,7.853,0,0,1,7.853,7.853V35.988a7.853,7.853,0,0,1-7.853,7.853H0Z" transform="translate(12.196 116.69) rotate(-45)" fill="#407bff"/>
        <path id="Path_11347" data-name="Path 11347" d="M0,0H32.188a7.853,7.853,0,0,1,7.853,7.853V35.988a7.853,7.853,0,0,1-7.853,7.853H0Z" transform="translate(12.196 116.69) rotate(-45)" fill="#fff" opacity="0.7"/>
        <path id="Path_11348" data-name="Path 11348" d="M292.265,214.56l-7.885,7.875,31.005,31.005,7.875-7.885a6.286,6.286,0,0,0-1.522-2.431L294.7,216.137A6.286,6.286,0,0,0,292.265,214.56Z" transform="translate(-272.221 -105.781)" fill="#407bff" opacity="0.2"/>
        <rect id="Rectangle_3859" data-name="Rectangle 3859" width="13.11" height="51.354" rx="5.62" transform="translate(5.914 117.6) rotate(-45)" fill="#407bff"/>
      </g>
      <g id="freepik--page-not-found--inject-21" transform="translate(-3.776 4)">
        <rect id="Rectangle_3860" data-name="Rectangle 3860" width="262.718" height="62.996" rx="8.42" transform="translate(0.767 0.81)" fill="#fff"/>
        <path id="Path_11349" data-name="Path 11349" d="M383.623,101.837H139.392A10.043,10.043,0,0,1,129.36,91.805V47.252A10.043,10.043,0,0,1,139.392,37.22H383.623a10.043,10.043,0,0,1,10.032,10.032V91.805a10.043,10.043,0,0,1-10.032,10.032Zm-244.231-63a8.422,8.422,0,0,0-8.411,8.411V91.805a8.422,8.422,0,0,0,8.411,8.411H383.623a8.422,8.422,0,0,0,8.411-8.411V47.252a8.422,8.422,0,0,0-8.411-8.411Z" transform="translate(-129.36 -37.22)" fill="#263238"/>
        <ellipse id="Ellipse_220" data-name="Ellipse 220" cx="20.305" cy="20.305" rx="20.305" ry="20.305" transform="translate(111.82 55.56)" fill="#263238"/>
        <ellipse id="Ellipse_221" data-name="Ellipse 221" cx="17.282" cy="17.282" rx="17.282" ry="17.282" transform="translate(114.843 58.583)" fill="#fff"/>
        <path id="Path_11362" data-name="Path 11362" d="M262.7,104.839h-8.1l6.8-20.119L239.33,112.286h8.1l-6.8,20.119Z" transform="translate(-118.89 -32.698)" fill="#407bff"/>
        <rect id="Rectangle_3861" data-name="Rectangle 3861" width="3.417" height="38.431" transform="translate(146.92 88.237) rotate(135)" fill="#263238"/>
        <text id="صفحة_غير_متوفرة" data-name="صفحة غير متوفرة" transform="translate(29.624 39.56)" fill="#e60505" font-size="26" font-family="DroidArabicKufi, Droid Arabic Kufi"><tspan x="0" y="0">صفحة غير متوفرة</tspan></text>
      </g>
    </g>
  </g>
</svg>
