<svg xmlns="http://www.w3.org/2000/svg" width="60" height="60" viewBox="0 0 60 60">
  <g id="Group_7052" data-name="Group 7052" transform="translate(-7.55 -5.63)">
    <g id="businessman" transform="translate(7.55 5.63)">
      <path id="Path_9385" data-name="Path 9385" d="M40.9,30.578a9.789,9.789,0,1,0-9.789-9.789A9.8,9.8,0,0,0,40.9,30.578Zm0-18.358a8.569,8.569,0,1,1-8.569,8.569A8.578,8.578,0,0,1,40.9,12.22ZM23.093,62.527a2.218,2.218,0,0,1-1.6,2.128v.3a.61.61,0,0,1-1.22,0v-.3a2.21,2.21,0,0,1-1.242-.916.61.61,0,1,1,1.021-.669.993.993,0,1,0,.832-1.536,2.214,2.214,0,0,1-.61-4.342v-.3a.61.61,0,0,1,1.22,0v.3a2.21,2.21,0,0,1,1.242.916.61.61,0,1,1-1.021.669.993.993,0,1,0-.832,1.537A2.216,2.216,0,0,1,23.093,62.527Zm-2.214-8.8a7.193,7.193,0,1,0,7.193,7.193A7.2,7.2,0,0,0,20.88,53.73Zm0,13.166a5.973,5.973,0,1,1,5.973-5.973A5.98,5.98,0,0,1,20.88,66.9ZM68.622,55.24H64.378v-1.2a2.708,2.708,0,0,0-2.705-2.705h-.929A20.62,20.62,0,0,0,57.3,43.473a20.907,20.907,0,0,0-6.56-5.914l-3.065-4.04a.61.61,0,0,0-.869-.106L40.9,38.174l-5.907-4.761a.61.61,0,0,0-.869.106l-3.065,4.04A20.586,20.586,0,0,0,21.119,51.05c-.08,0-.159-.006-.24-.006a9.88,9.88,0,1,0,9.871,10.228,33.955,33.955,0,0,0,10.116,1.61,34.165,34.165,0,0,0,9.559-1.426v7.166A2.184,2.184,0,0,0,52.607,70.8H68.1a2.184,2.184,0,0,0,2.181-2.181V61.308a2.574,2.574,0,0,0,.524-1.58V57.421a2.184,2.184,0,0,0-2.181-2.181Zm.961,2.181v2.307a1.34,1.34,0,0,1-.784,1.248,13.585,13.585,0,0,1-4.746,1.287,2.059,2.059,0,0,0-1.911-1.3h-3.58a2.059,2.059,0,0,0-1.911,1.3,13.586,13.586,0,0,1-4.746-1.287,1.34,1.34,0,0,1-.784-1.248V57.421a.962.962,0,0,1,.961-.961H68.622a.962.962,0,0,1,.961.961Zm-6.6,5.6a.838.838,0,0,1-.837.837h-3.58a.837.837,0,0,1,0-1.674h3.58A.838.838,0,0,1,62.979,63.022Zm.179-8.978v1.2H57.547v-1.2a1.486,1.486,0,0,1,1.485-1.485h2.642A1.486,1.486,0,0,1,63.158,54.043ZM47.085,34.757l2.481,3.27-4.088,3.659L41.89,38.944Zm-3.775,6.809-.9,2.78H39.4l-.9-2.78,2.409-1.84Zm-3.855,4h2.9l1.78,9.3L40.9,58.071l-3.237-3.209ZM34.718,34.757l5.2,4.187-3.589,2.742-4.088-3.659ZM20.88,69.583a8.659,8.659,0,1,1,8.659-8.659A8.669,8.669,0,0,1,20.88,69.583Zm9.833-9.6a9.9,9.9,0,0,0-8.366-8.826A19.362,19.362,0,0,1,31.3,38.83l4.584,4.1a.61.61,0,0,0,.777.03l.8-.611.859,2.644L36.4,54.95a.61.61,0,0,0,.17.549l3.9,3.865a.611.611,0,0,0,.859,0l3.9-3.865a.611.611,0,0,0,.17-.548l-1.911-9.982.851-2.618.8.611a.61.61,0,0,0,.777-.03l4.584-4.1a19.323,19.323,0,0,1,9,12.509h-.465a2.708,2.708,0,0,0-2.705,2.705v1.2H52.083A2.184,2.184,0,0,0,49.9,57.421v2.307a2.727,2.727,0,0,0,.064.589A31.6,31.6,0,0,1,30.713,59.98Zm37.385,9.6H52.607a.962.962,0,0,1-.961-.961V62.2a14.823,14.823,0,0,0,4.913,1.279,2.06,2.06,0,0,0,2,1.6h3.58a2.06,2.06,0,0,0,2-1.6A14.826,14.826,0,0,0,69.059,62.2v6.42A.962.962,0,0,1,68.1,69.583Z" transform="translate(-10.902 -10.902)" fill="#29abe2"/>
      <path id="Path_9385_-_Outline" data-name="Path 9385 - Outline" d="M40.95,10.95a9.887,9.887,0,1,1-9.887,9.887A9.9,9.9,0,0,1,40.95,10.95Zm0,19.579a9.692,9.692,0,1,0-9.692-9.692A9.7,9.7,0,0,0,40.95,30.529Zm0-18.358a8.667,8.667,0,1,1-8.667,8.667A8.676,8.676,0,0,1,40.95,12.171Zm0,17.138a8.471,8.471,0,1,0-8.471-8.471A8.481,8.481,0,0,0,40.95,29.308Zm-6.29,3.919a.71.71,0,0,1,.444.157L40.95,38.1,46.8,33.385a.708.708,0,0,1,1.008.123l3.053,4.024a21.02,21.02,0,0,1,6.574,5.932,20.765,20.765,0,0,1,3.441,7.825h.85a2.806,2.806,0,0,1,2.8,2.8v1.1h4.146A2.282,2.282,0,0,1,70.95,57.47v2.307a2.671,2.671,0,0,1-.524,1.613v7.281a2.282,2.282,0,0,1-2.279,2.279H52.655a2.282,2.282,0,0,1-2.279-2.279V61.634a32.723,32.723,0,0,1-19.485-.183,9.976,9.976,0,1,1-9.964-10.456c.054,0,.107,0,.16,0h0a20.755,20.755,0,0,1,9.953-13.466L34.1,33.508a.708.708,0,0,1,.564-.28Zm6.29,5.119-5.968-4.811a.512.512,0,0,0-.73.089l-3.078,4.056-.017.01a20.557,20.557,0,0,0-9.894,13.427l-.017.079-.164,0c-.051,0-.1,0-.154,0A9.782,9.782,0,1,0,30.7,61.317l0-.127.122.038a33.834,33.834,0,0,0,10.088,1.606,34.011,34.011,0,0,0,9.532-1.422l.125-.036v7.3a2.086,2.086,0,0,0,2.084,2.084H68.147a2.086,2.086,0,0,0,2.084-2.084V61.324l.02-.026a2.476,2.476,0,0,0,.5-1.521V57.47a2.086,2.086,0,0,0-2.084-2.084H64.33V54.092a2.61,2.61,0,0,0-2.608-2.608H60.713l-.016-.078a20.565,20.565,0,0,0-3.425-7.828,20.821,20.821,0,0,0-6.529-5.887l-.017-.01-3.078-4.056a.512.512,0,0,0-.73-.089Zm-6.2-3.681,5.371,4.329-3.752,2.866-4.215-3.773ZM39.8,38.991l-5.02-4.046-2.366,3.119,3.961,3.545Zm7.348-4.324,2.6,3.422-4.215,3.773-3.752-2.866Zm2.332,3.4-2.366-3.119L42.1,38.991l3.426,2.617Zm1.055.694.062.037a19.489,19.489,0,0,1,5.839,5.362,19.247,19.247,0,0,1,3.2,7.21l.026.118H59.08a2.611,2.611,0,0,0-2.608,2.608v1.294H52.132a2.086,2.086,0,0,0-2.084,2.084v2.307a2.637,2.637,0,0,0,.062.568l.02.09-.088.025A32.92,32.92,0,0,1,40.917,61.8a33.113,33.113,0,0,1-10.185-1.68l-.061-.02-.006-.064A9.757,9.757,0,0,0,22.381,51.3l-.1-.016.023-.1a19.267,19.267,0,0,1,3.22-7.1,19.5,19.5,0,0,1,5.78-5.285l.062-.037L36,42.908a.523.523,0,0,0,.653.025l.91-.7.909,2.8-1.924,9.98a.511.511,0,0,0,.142.461l3.9,3.865a.513.513,0,0,0,.722,0l3.9-3.865a.512.512,0,0,0,.143-.461L43.436,45.011l.9-2.773.91.695a.523.523,0,0,0,.653-.025Zm8.886,12.532A19.355,19.355,0,0,0,50.561,39l-4.53,4.055a.708.708,0,0,1-.9.035l-.691-.528-.8,2.464,1.906,9.958a.707.707,0,0,1-.2.636l-3.9,3.865a.708.708,0,0,1-1,0l-3.9-3.865a.706.706,0,0,1-.2-.637l1.915-9.931-.809-2.489-.691.528a.708.708,0,0,1-.9-.035L31.34,39a19.39,19.39,0,0,0-8.825,12.123,10,10,0,0,1,8.338,8.833A31.474,31.474,0,0,0,49.9,60.3a2.833,2.833,0,0,1-.048-.519V57.47a2.282,2.282,0,0,1,2.279-2.279h4.146v-1.1a2.806,2.806,0,0,1,2.8-2.8ZM40.95,39.651l2.523,1.928-.947,2.913H39.373l-.947-2.913Zm2.295,2L40.95,39.9l-2.3,1.753.86,2.647h2.87Zm-3.821,3.868h3.065l1.8,9.426L40.95,58.258l-3.343-3.314Zm2.9.2H39.585l-1.767,9.166,3.132,3.1,3.132-3.105Zm-21.4,6.5a8.757,8.757,0,1,1-8.757,8.757A8.767,8.767,0,0,1,20.928,52.215Zm0,17.319a8.562,8.562,0,1,0-8.562-8.562A8.572,8.572,0,0,0,20.928,69.534ZM59.08,52.51h2.642A1.584,1.584,0,0,1,63.3,54.092v1.294H57.5V54.092A1.584,1.584,0,0,1,59.08,52.51Zm4.029,2.681v-1.1A1.389,1.389,0,0,0,61.722,52.7H59.08a1.389,1.389,0,0,0-1.387,1.387v1.1Zm-42.182-1.51a7.291,7.291,0,1,1-7.291,7.291A7.3,7.3,0,0,1,20.928,53.681Zm0,14.387a7.1,7.1,0,1,0-7.1-7.1A7.1,7.1,0,0,0,20.928,68.068Zm0-13.166a6.07,6.07,0,1,1-6.071,6.07A6.077,6.077,0,0,1,20.928,54.9Zm0,11.946a5.875,5.875,0,1,0-5.875-5.875A5.882,5.882,0,0,0,20.928,66.848Zm0-10.611a.709.709,0,0,1,.708.708v.224a2.308,2.308,0,0,1,1.226.935.708.708,0,1,1-1.184.776.9.9,0,1,0-.75,1.386,2.312,2.312,0,0,1,.708,4.512V65a.708.708,0,0,1-1.416,0v-.224a2.308,2.308,0,0,1-1.226-.935.708.708,0,1,1,1.184-.776.9.9,0,1,0,.75-1.385,2.312,2.312,0,0,1-.708-4.512v-.224A.709.709,0,0,1,20.927,56.236ZM22.27,59a.513.513,0,0,0,.428-.794,2.112,2.112,0,0,0-1.187-.876l-.071-.02v-.37a.513.513,0,0,0-1.025,0v.37l-.071.02a2.116,2.116,0,0,0,.583,4.151,1.091,1.091,0,1,1-.913,1.687.513.513,0,0,0-.857.562,2.112,2.112,0,0,0,1.187.876l.071.02V65a.513.513,0,0,0,1.025,0v-.37l.071-.02a2.116,2.116,0,0,0-.583-4.151,1.091,1.091,0,1,1,.913-1.688A.512.512,0,0,0,22.27,59Zm29.862-2.592H68.671a1.06,1.06,0,0,1,1.058,1.058v2.307a1.435,1.435,0,0,1-.839,1.336,13.756,13.756,0,0,1-4.779,1.3l-.073.007-.027-.068a1.951,1.951,0,0,0-1.82-1.237h-3.58a1.951,1.951,0,0,0-1.82,1.237l-.027.068-.073-.007a13.756,13.756,0,0,1-4.779-1.3,1.435,1.435,0,0,1-.839-1.336V57.47A1.06,1.06,0,0,1,52.132,56.412Zm12.032,5.8a13.52,13.52,0,0,0,4.642-1.271,1.246,1.246,0,0,0,.729-1.16V57.47a.864.864,0,0,0-.863-.863H52.132a.864.864,0,0,0-.863.863v2.307A1.246,1.246,0,0,0,52,60.937a13.521,13.521,0,0,0,4.642,1.271,2.144,2.144,0,0,1,1.973-1.292h3.58A2.144,2.144,0,0,1,64.164,62.207ZM51.6,62.1l.138.063a14.754,14.754,0,0,0,4.882,1.27l.07.007.016.068a1.974,1.974,0,0,0,1.909,1.523h3.58A1.974,1.974,0,0,0,64.1,63.508l.016-.068.07-.007a14.757,14.757,0,0,0,4.882-1.27l.138-.063v6.572a1.06,1.06,0,0,1-1.058,1.058H52.655A1.06,1.06,0,0,1,51.6,68.671Zm16.55,7.436a.864.864,0,0,0,.863-.863V62.4a14.943,14.943,0,0,1-4.737,1.218,2.143,2.143,0,0,1-2.082,1.606h-3.58a2.143,2.143,0,0,1-2.082-1.606A14.939,14.939,0,0,1,51.792,62.4v6.269a.864.864,0,0,0,.863.863Zm-9.536-7.4h3.58a.934.934,0,0,1,0,1.869h-3.58a.934.934,0,0,1,0-1.869Zm3.58,1.674a.739.739,0,1,0,0-1.478h-3.58a.739.739,0,0,0,0,1.478Z" transform="translate(-10.95 -10.95)" fill="#29abe2"/>
    </g>
  </g>
</svg>
