<svg id="Group_7117" data-name="Group 7117" xmlns="http://www.w3.org/2000/svg" width="100" height="77.217" viewBox="0 0 100 77.217">
  <g id="Group_29" data-name="Group 29" transform="translate(30.569 0)">
    <path id="Path_89" data-name="Path 89" d="M1367.927,365.6c-.08.149-.17.3-.261.448-.181.288-.362.564-.554.841-.4.6-.831,1.182-1.283,1.736q-.982,1.222-1.89,2.173c-.607.634-1.049,1.1-1.321,1.406-.107.117-.2.218-.272.287l-.011.011v.005c-.074.069-.139.139-.2.2s-.112.112-.176.186a.359.359,0,0,1-.043.048c-.085.085-.186.2-.309.346a15.944,15.944,0,0,1-1.369,1.049,7.561,7.561,0,0,1-1.15.623,1.274,1.274,0,0,1-.985.091c.112-.458.33-1.193.66-2.2s.7-2.125,1.1-3.355.8-2.471,1.2-3.744q.512-1.614.852-2.924c.043-.16.08-.314.117-.463.021-.085.043-.171.059-.256.33-1.534.144-2.546-.549-3.03a3.693,3.693,0,0,0-2.828-.474,11.418,11.418,0,0,0-3.227,1.113c-.112.053-.229.112-.346.176-.223.123-.442.24-.645.368a9.005,9.005,0,0,0-2.109,1.63,7.364,7.364,0,0,0-1.752,2.62,3.006,3.006,0,0,0-.074,1.933,2.242,2.242,0,0,0,1.049,1.219,3.688,3.688,0,0,0,1.6.464,5.8,5.8,0,0,0,.7.021c.261-.011.522-.027.767-.059.064-.005.133-.016.2-.026a5.44,5.44,0,0,0,.613-.112,5.882,5.882,0,0,0,1.055-.368,3.969,3.969,0,0,0,.894-.559,2.673,2.673,0,0,0,.628-.746,2.006,2.006,0,0,0,.261-.921,1.189,1.189,0,0,0-.192-.644,1.122,1.122,0,0,0-.506-.415.1.1,0,0,1-.042-.005c-.005-.011-.016-.011-.027-.016a1.026,1.026,0,0,0-.7-.021.684.684,0,0,0-.469.463,1.059,1.059,0,0,0-.037.565.773.773,0,0,0,.208.373.845.845,0,0,0,.335.208,1.006,1.006,0,0,0,.357.069,2.433,2.433,0,0,1-.714,1.1,2.484,2.484,0,0,1-1.331.575,1.647,1.647,0,0,0-.288.074.812.812,0,0,1-.346.027,3,3,0,0,1-1.4-.4,3.227,3.227,0,0,1-1.075-.98,2.9,2.9,0,0,1-.5-1.364,2.665,2.665,0,0,1,.352-1.56,5.085,5.085,0,0,1,1.044-1.47,8.944,8.944,0,0,1,1.523-1.2c.138-.085.271-.165.415-.245a10.113,10.113,0,0,1,1.049-.516c.107-.048.219-.1.33-.139a12.025,12.025,0,0,1,1.843-.559,2.388,2.388,0,0,1,.511-.048,4.27,4.27,0,0,1,.767.053,3.519,3.519,0,0,1,.74.213.671.671,0,0,1,.426.4,4.525,4.525,0,0,1-.016,1.9c-.043.234-.091.49-.155.756-.08.357-.181.74-.3,1.156q-.8,2.708-1.741,5.544t-1.529,5.044q-.583,2.213.133,2.343a3.051,3.051,0,0,0,1.651-.192,8.34,8.34,0,0,0,1.731-.964,16,16,0,0,0,1.768-1.481c.043-.042.091-.085.133-.133.138-.128.277-.261.41-.4.41-.4.809-.81,1.214-1.236.479-.511,1-1.081,1.55-1.7a25.291,25.291,0,0,0,1.619-2.045c.224-.309.437-.628.644-.964.266-.426.527-.879.772-1.347Z" transform="translate(-1347.374 -339.037)" fill="#707070"/>
    <path id="Path_90" data-name="Path 90" d="M1351.544,290.076a11.219,11.219,0,0,0-1.906-2.833c-.085-.1-.171-.192-.261-.288-.176-.186-.352-.367-.522-.533a9,9,0,0,0-2.12-1.608,7.268,7.268,0,0,0-2.982-1.017,3.055,3.055,0,0,0-1.891.431,2.237,2.237,0,0,0-.9,1.326,3.584,3.584,0,0,0-.037,1.662,5.593,5.593,0,0,0,.16.687c.08.256.16.5.256.73.021.059.048.117.074.186.1.224.186.41.271.565a5.521,5.521,0,0,0,.628.921,3.912,3.912,0,0,0,.772.719,2.653,2.653,0,0,0,.878.415,2.079,2.079,0,0,0,.959.016,1.152,1.152,0,0,0,.847-.953.035.035,0,0,1-.006-.037.043.043,0,0,0,0-.037.988.988,0,0,0-.16-.682.664.664,0,0,0-.57-.33,1.054,1.054,0,0,0-.549.106.8.8,0,0,0-.309.3.875.875,0,0,0-.117.378.993.993,0,0,0,.032.362,2.443,2.443,0,0,1-1.257-.4,2.486,2.486,0,0,1-.895-1.14,2.145,2.145,0,0,0-.144-.256.729.729,0,0,1-.117-.325,2.985,2.985,0,0,1,.026-1.454,3.26,3.26,0,0,1,.666-1.294,2.882,2.882,0,0,1,1.193-.831,2.642,2.642,0,0,1,1.6-.069,5.047,5.047,0,0,1,1.688.629,8.673,8.673,0,0,1,1.55,1.161c.117.112.234.224.346.336a10.338,10.338,0,0,1,.772.889c.075.091.144.181.213.277a11.423,11.423,0,0,1,1.023,1.635,2.572,2.572,0,0,1,.181.479,4.216,4.216,0,0,1,.144.756,3.377,3.377,0,0,1-.01.772.7.7,0,0,1-.282.517,4.56,4.56,0,0,1-1.843.469c-.24.027-.5.037-.772.048-.368.016-.767.016-1.193.005q-2.828-.064-5.8-.24t-5.267-.17c-1.528,0-2.269.245-2.231.73a3.049,3.049,0,0,0,.618,1.545,8.145,8.145,0,0,0,1.374,1.422,15.713,15.713,0,0,0,1.891,1.326q1.054.639,2.162,1.241c.341.181.7.367,1.076.559.144.074.292.149.442.229l.527.266a23.649,23.649,0,0,0,2.4,1.033,20.132,20.132,0,0,0,2.572.767,1.337,1.337,0,0,0,.155.037c.431.1.874.176,1.326.234.042-.16.08-.314.117-.463.021-.085.043-.171.059-.256a9.79,9.79,0,0,1-1.5-.309l-.218-.064a27.336,27.336,0,0,1-2.967-1.1c-.5-.224-.969-.442-1.417-.66-.17-.085-.335-.171-.5-.256-.229-.117-.453-.234-.666-.351-.772-.421-1.337-.724-1.7-.916-.144-.069-.261-.133-.351-.186s-.176-.1-.256-.144-.181-.1-.288-.154-.245-.128-.415-.208a17.147,17.147,0,0,1-1.368-1.049,7.211,7.211,0,0,1-.9-.953,1.271,1.271,0,0,1-.341-.927c.474-.011,1.241.011,2.3.069l3.525.192q1.926.112,3.931.192c1.129.048,2.141.075,3.041.069.165,0,.324,0,.479-.005.1,0,.186-.005.271-.011,1.561-.085,2.482-.527,2.775-1.321A3.68,3.68,0,0,0,1351.544,290.076Z" transform="translate(-1333.674 -277.951)" fill="#707070"/>
    <path id="Path_91" data-name="Path 91" d="M1429.33,259.147a2.989,2.989,0,0,0-.906-1.715,2.206,2.206,0,0,0-1.512-.527,3.511,3.511,0,0,0-1.614.4,4.835,4.835,0,0,0-.623.33c-.224.139-.437.282-.634.431-.053.037-.107.08-.165.123a5.18,5.18,0,0,0-.474.41,5.477,5.477,0,0,0-.73.841,4.154,4.154,0,0,0-.5.932,2.646,2.646,0,0,0-.17.959,2.017,2.017,0,0,0,.234.932,1.172,1.172,0,0,0,.485.458,1.209,1.209,0,0,0,.65.112c.016-.011.027-.021.038-.016a.1.1,0,0,0,.037-.005,1,1,0,0,0,.612-.33.688.688,0,0,0,.176-.639,1.052,1.052,0,0,0-.25-.506.767.767,0,0,0-.362-.218.988.988,0,0,0-.394-.016,1.063,1.063,0,0,0-.346.128,2.464,2.464,0,0,1,.069-1.321,2.551,2.551,0,0,1,.863-1.161,1.875,1.875,0,0,0,.213-.2.788.788,0,0,1,.287-.2,3.082,3.082,0,0,1,1.406-.346,3.223,3.223,0,0,1,1.422.309,2.885,2.885,0,0,1,1.113.932,2.652,2.652,0,0,1,.48,1.534,4.944,4.944,0,0,1-.171,1.789,8.563,8.563,0,0,1-.719,1.8c-.075.138-.155.282-.235.421a11.5,11.5,0,0,1-.655.969c-.064.1-.139.192-.213.282a11.589,11.589,0,0,1-1.315,1.406,2.262,2.262,0,0,1-.421.3,3.792,3.792,0,0,1-.692.33,3.269,3.269,0,0,1-.746.192.7.7,0,0,1-.575-.138,4.587,4.587,0,0,1-.932-1.656c-.085-.224-.165-.463-.245-.73-.112-.352-.213-.735-.314-1.156q-.663-2.748-1.268-5.667c-.4-1.949-.8-3.664-1.2-5.134s-.825-2.13-1.284-1.965a3.035,3.035,0,0,0-1.331.991,7.949,7.949,0,0,0-1.017,1.7,15.123,15.123,0,0,0-.793,2.168c-.229.788-.442,1.592-.639,2.407-.085.373-.171.767-.261,1.177-.032.16-.07.325-.107.49-.037.192-.074.384-.117.581a23.365,23.365,0,0,0-.383,2.583,21.026,21.026,0,0,0-.075,2.679c0,.053,0,.112.005.165a12.883,12.883,0,0,0,.117,1.342c.165,0,.325,0,.479-.005.1,0,.186-.005.271-.011a9.479,9.479,0,0,1-.1-1.539c0-.074,0-.149.006-.224a26.623,26.623,0,0,1,.3-3.148q.128-.807.271-1.534c.037-.192.074-.378.117-.559.053-.25.106-.5.165-.735.208-.852.357-1.475.442-1.88.032-.154.064-.282.091-.384s.053-.2.074-.293.048-.2.074-.314.059-.271.091-.453a15.546,15.546,0,0,1,.666-1.592,7.359,7.359,0,0,1,.682-1.119,1.279,1.279,0,0,1,.81-.57c.133.453.309,1.2.527,2.242s.458,2.189.724,3.451.544,2.546.836,3.845q.367,1.654.724,2.956.064.24.128.463l.08.256c.485,1.491,1.15,2.269,1.992,2.343a3.678,3.678,0,0,0,2.684-1,11.671,11.671,0,0,0,2.242-2.578c.069-.106.138-.213.208-.325.138-.218.261-.437.378-.644a9.184,9.184,0,0,0,1.007-2.466A7.241,7.241,0,0,0,1429.33,259.147Z" transform="translate(-1398.535 -251.793)" fill="#707070"/>
    <path id="Path_92" data-name="Path 92" d="M1470.389,324.2a3.034,3.034,0,0,0-1.3-1.033,8.018,8.018,0,0,0-1.906-.543,16.053,16.053,0,0,0-2.3-.2c-.821-.016-1.651-.016-2.492.011-.384.011-.783.027-1.2.048-.16.005-.33.016-.5.027l-.592.032a23.216,23.216,0,0,0-2.594.3,19.026,19.026,0,0,0-2.609.623c-.053.011-.1.027-.154.043-.421.133-.842.282-1.262.458q.064.24.127.463l.08.256a9.454,9.454,0,0,1,1.454-.49c.069-.016.144-.037.219-.053a26.662,26.662,0,0,1,3.121-.527c.543-.059,1.06-.1,1.555-.139.2-.011.383-.021.57-.027q.384-.024.751-.032c.873-.016,1.518-.037,1.928-.059.16-.005.293-.011.4-.011s.2-.005.3-.005.2-.005.325-.011.271-.011.458-.027c.708.064,1.278.138,1.715.224a6.95,6.95,0,0,1,1.251.378,1.278,1.278,0,0,1,.761.629c-.4.25-1.081.612-2.029,1.092s-2,1.012-3.148,1.592-2.317,1.182-3.5,1.8q-1.5.783-2.668,1.47c-.138.08-.277.16-.41.24q-.12.072-.224.144c-1.316.858-1.9,1.7-1.752,2.53a3.685,3.685,0,0,0,1.662,2.333,11.306,11.306,0,0,0,3.073,1.5c.123.048.245.085.367.122.25.075.49.138.719.2a9.073,9.073,0,0,0,2.642.33,7.159,7.159,0,0,0,3.089-.607,3.013,3.013,0,0,0,1.422-1.321,2.23,2.23,0,0,0,.117-1.6,3.6,3.6,0,0,0-.8-1.454,5.259,5.259,0,0,0-.485-.517c-.192-.181-.389-.346-.581-.5a1.891,1.891,0,0,0-.165-.122,4.554,4.554,0,0,0-.511-.357,5.647,5.647,0,0,0-1.006-.485,4.1,4.1,0,0,0-1.028-.24,2.65,2.65,0,0,0-.969.08,2.1,2.1,0,0,0-.842.469,1.165,1.165,0,0,0-.255,1.246c.016.011.027.021.027.032a.046.046,0,0,0,.016.032.973.973,0,0,0,.479.511.654.654,0,0,0,.655,0,1.02,1.02,0,0,0,.426-.367.766.766,0,0,0,.117-.41.882.882,0,0,0-.085-.389,1.039,1.039,0,0,0-.213-.3,2.446,2.446,0,0,1,1.294-.277,2.483,2.483,0,0,1,1.342.538,1.919,1.919,0,0,0,.256.149.856.856,0,0,1,.266.224,3.041,3.041,0,0,1,.7,1.273,3.133,3.133,0,0,1,.069,1.454,2.789,2.789,0,0,1-.612,1.316,2.622,2.622,0,0,1-1.353.857,4.848,4.848,0,0,1-1.774.3,8.542,8.542,0,0,1-1.922-.234c-.154-.037-.314-.074-.469-.117a10.545,10.545,0,0,1-1.113-.378c-.107-.043-.219-.085-.325-.133a11.872,11.872,0,0,1-1.7-.906,2.909,2.909,0,0,1-.4-.33,4.54,4.54,0,0,1-.5-.581,3.231,3.231,0,0,1-.373-.671.677.677,0,0,1-.016-.591,4.512,4.512,0,0,1,1.358-1.326c.192-.144.41-.282.644-.431.309-.192.655-.394,1.033-.6q2.477-1.35,5.145-2.69t4.649-2.487Q1470.8,324.8,1470.389,324.2Z" transform="translate(-1431.6 -309.52)" fill="#707070"/>
    <path id="Path_93" data-name="Path 93" d="M1427.889,379.564a15.817,15.817,0,0,0-.4-2.274c-.2-.8-.415-1.6-.655-2.407-.112-.367-.229-.751-.357-1.151-.053-.154-.106-.314-.154-.479-.064-.181-.123-.368-.187-.559a23.236,23.236,0,0,0-.964-2.428,20.929,20.929,0,0,0-1.273-2.359c-.026-.048-.058-.091-.085-.138a13.214,13.214,0,0,0-.772-1.1c-.138.08-.277.16-.41.24q-.119.072-.223.144a9.544,9.544,0,0,1,.846,1.284c.032.064.069.128.107.2a25.752,25.752,0,0,1,1.315,2.876c.2.506.373,1,.532,1.465.064.181.123.362.181.538.075.245.149.485.218.719.245.842.431,1.459.559,1.848.048.155.091.282.117.384s.053.2.08.288.053.2.09.309.085.261.149.442a15.521,15.521,0,0,1,.224,1.71,7.206,7.206,0,0,1-.037,1.31,1.27,1.27,0,0,1-.416.895q-.512-.487-1.576-1.678c-.708-.788-1.491-1.667-2.354-2.626s-1.742-1.933-2.647-2.913q-.615-.679-1.182-1.262l-.559-.575c-.24-.245-.474-.479-.7-.7q-1.878-1.782-3.094-1.214a3.677,3.677,0,0,0-1.821,2.21,11.8,11.8,0,0,0-.671,3.739,10.317,10.317,0,0,0,.319,3.259c.011.043.027.085.038.122.09.3.181.586.282.852a5.989,5.989,0,0,0,1.1,1.976,3.043,3.043,0,0,0,1.646,1.033,2.243,2.243,0,0,0,1.571-.3,3.623,3.623,0,0,0,1.2-1.156,5.137,5.137,0,0,0,.367-.6,7.327,7.327,0,0,0,.335-.692c.027-.059.053-.122.08-.186a4,4,0,0,0,.208-.591,5.968,5.968,0,0,0,.213-1.1,4.318,4.318,0,0,0-.037-1.055,2.772,2.772,0,0,0-.331-.916,2.064,2.064,0,0,0-.671-.687,1.16,1.16,0,0,0-.65-.154,1.187,1.187,0,0,0-.618.229.054.054,0,0,1-.026.032.089.089,0,0,0-.027.021.989.989,0,0,0-.367.6.65.65,0,0,0,.17.634,1,1,0,0,0,.463.314.778.778,0,0,0,.426.011.859.859,0,0,0,.351-.186,1.013,1.013,0,0,0,.235-.277,2.448,2.448,0,0,1,.6,1.172,2.511,2.511,0,0,1-.17,1.438,1.881,1.881,0,0,0-.08.288.8.8,0,0,1-.149.314,3.038,3.038,0,0,1-1.044,1,3.149,3.149,0,0,1-1.39.447,2.905,2.905,0,0,1-1.427-.25,2.673,2.673,0,0,1-1.182-1.086,4.552,4.552,0,0,1-.394-.682,4.982,4.982,0,0,1-.352-.959v-.005a8.625,8.625,0,0,1-.277-1.907,11.047,11.047,0,0,1,.117-2.008,11.474,11.474,0,0,1,.437-1.875,2.636,2.636,0,0,1,.213-.469,4.166,4.166,0,0,1,.431-.634,3.278,3.278,0,0,1,.554-.538.671.671,0,0,1,.564-.165,7.073,7.073,0,0,1,2.738,1.981l.325.341.277.293c1.208,1.268,2.428,2.6,3.653,3.979,1.326,1.491,2.525,2.769,3.606,3.85s1.779,1.427,2.1,1.055a3.01,3.01,0,0,0,.655-1.523A8.116,8.116,0,0,0,1427.889,379.564Z" transform="translate(-1397.504 -345.699)" fill="#707070"/>
  </g>
  <path id="Path_154" data-name="Path 154" d="M.781-2.549V-6.58h.738v4.031Zm3.8-2.157q.434.618.705,1.1h.018Q5.27-4.4,5.27-4.754V-6.58h.738v4.031H5.234L3.921-4.4Q3.574-4.887,3.2-5.522H3.185q.036.741.036,1.148v1.826H2.484V-6.58h.774ZM8.621-2.549H7.882V-5.962h-1.3V-6.58H9.919v.618h-1.3Zm2.609-.618h1.982v.618H10.492V-6.58H13.1v.618H11.23V-4.92h1.609V-4.3H11.23Zm5.748-2.2a1.114,1.114,0,0,1-.233.716,1.38,1.38,0,0,1-.722.435v.012l1.2,1.657h-.886l-1.1-1.561h-.506v1.561H14V-6.58h1.226a4.332,4.332,0,0,1,.566.035,2.088,2.088,0,0,1,.449.1,1.169,1.169,0,0,1,.548.4A1.115,1.115,0,0,1,16.978-5.369Zm-1.88.642a3.45,3.45,0,0,0,.429-.023,1.341,1.341,0,0,0,.3-.068.576.576,0,0,0,.309-.23.651.651,0,0,0,.086-.336.594.594,0,0,0-.068-.288.463.463,0,0,0-.23-.2.97.97,0,0,0-.265-.071,2.887,2.887,0,0,0-.395-.023h-.527v1.235ZM17.87-2.549V-6.58h.738v4.031Zm4.688-2.016a2.068,2.068,0,0,0-.09-.643,1.316,1.316,0,0,0-.25-.459,1,1,0,0,0-.38-.274,1.256,1.256,0,0,0-.482-.09,1.256,1.256,0,0,0-.482.09,1,1,0,0,0-.38.274,1.316,1.316,0,0,0-.25.459,2.068,2.068,0,0,0-.09.643,2.068,2.068,0,0,0,.09.643,1.3,1.3,0,0,0,.25.458,1.024,1.024,0,0,0,.38.274,1.238,1.238,0,0,0,.482.092,1.238,1.238,0,0,0,.482-.092,1.024,1.024,0,0,0,.38-.274,1.3,1.3,0,0,0,.25-.458A2.068,2.068,0,0,0,22.558-4.564Zm.762,0a2.6,2.6,0,0,1-.131.845,1.868,1.868,0,0,1-.383.661,1.72,1.72,0,0,1-.618.431,2.135,2.135,0,0,1-.833.154,2.135,2.135,0,0,1-.833-.154,1.72,1.72,0,0,1-.618-.431,1.868,1.868,0,0,1-.383-.661,2.6,2.6,0,0,1-.131-.845,2.6,2.6,0,0,1,.131-.845,1.868,1.868,0,0,1,.383-.661,1.72,1.72,0,0,1,.618-.431,2.135,2.135,0,0,1,.833-.154,2.135,2.135,0,0,1,.833.154,1.72,1.72,0,0,1,.618.431,1.868,1.868,0,0,1,.383.661A2.6,2.6,0,0,1,23.32-4.564Zm3.766-.8a1.114,1.114,0,0,1-.233.716,1.38,1.38,0,0,1-.722.435v.012l1.2,1.657h-.886l-1.1-1.561h-.506v1.561H24.1V-6.58H25.33a4.332,4.332,0,0,1,.566.035,2.088,2.088,0,0,1,.449.1,1.169,1.169,0,0,1,.548.4A1.115,1.115,0,0,1,27.086-5.369Zm-1.88.642a3.451,3.451,0,0,0,.429-.023,1.341,1.341,0,0,0,.3-.068.576.576,0,0,0,.309-.23.651.651,0,0,0,.086-.336.594.594,0,0,0-.068-.288.463.463,0,0,0-.23-.2.97.97,0,0,0-.265-.071,2.887,2.887,0,0,0-.395-.023h-.527v1.235ZM29.25-2.549V-6.58h1.067q.142,0,.288.009t.285.027q.139.018.268.044a1.95,1.95,0,0,1,.238.062,2.057,2.057,0,0,1,.569.277,1.7,1.7,0,0,1,.414.413,1.792,1.792,0,0,1,.253.532,2.263,2.263,0,0,1,.086.637,2.472,2.472,0,0,1-.072.61,1.805,1.805,0,0,1-.22.52,1.654,1.654,0,0,1-.372.414,1.917,1.917,0,0,1-.532.294,2.829,2.829,0,0,1-.581.145,5.029,5.029,0,0,1-.732.048Zm1.042-.618A2.352,2.352,0,0,0,31.3-3.344a1.092,1.092,0,0,0,.488-.464,1.616,1.616,0,0,0,.166-.777,1.7,1.7,0,0,0-.054-.446,1.22,1.22,0,0,0-.157-.354,1.084,1.084,0,0,0-.249-.267,1.363,1.363,0,0,0-.33-.184,1.748,1.748,0,0,0-.383-.1,3.366,3.366,0,0,0-.473-.03h-.325v2.8Zm3.947,0h1.982v.618H33.5V-6.58h2.612v.618H34.239V-4.92h1.609V-4.3H34.239Zm4.748-.539a.388.388,0,0,0-.075-.249.554.554,0,0,0-.2-.155,1.5,1.5,0,0,0-.291-.1q-.161-.038-.339-.074a4.432,4.432,0,0,1-.449-.122,1.264,1.264,0,0,1-.377-.2.9.9,0,0,1-.259-.318,1.073,1.073,0,0,1-.1-.482,1.292,1.292,0,0,1,.111-.556,1.1,1.1,0,0,1,.3-.392,1.288,1.288,0,0,1,.449-.232,2.028,2.028,0,0,1,.58-.077,3.387,3.387,0,0,1,.648.063,2.836,2.836,0,0,1,.56.163V-5.8a3.416,3.416,0,0,0-.6-.179,2.851,2.851,0,0,0-.541-.056,1,1,0,0,0-.562.133.447.447,0,0,0-.2.4.455.455,0,0,0,.065.253.514.514,0,0,0,.176.164,1.058,1.058,0,0,0,.256.1q.145.039.307.072.256.054.49.125a1.45,1.45,0,0,1,.414.2.9.9,0,0,1,.286.33,1.126,1.126,0,0,1,.105.52,1.233,1.233,0,0,1-.121.563,1.056,1.056,0,0,1-.342.393,1.556,1.556,0,0,1-.538.23,2.991,2.991,0,0,1-.693.075,3.228,3.228,0,0,1-.646-.065,1.847,1.847,0,0,1-.529-.182v-.624a2.984,2.984,0,0,0,.581.188,2.87,2.87,0,0,0,.584.059,2.05,2.05,0,0,0,.343-.029,1.031,1.031,0,0,0,.3-.1.576.576,0,0,0,.215-.188A.508.508,0,0,0,38.987-3.706Zm1.579,1.157V-6.58H41.3v4.031Zm4.209-1.54h-.9v-.618h1.642v2.034q-.09.033-.23.069t-.313.065q-.173.029-.357.047t-.365.018A2.791,2.791,0,0,1,43.3-2.62a1.833,1.833,0,0,1-.675-.411,1.686,1.686,0,0,1-.4-.631,2.337,2.337,0,0,1-.134-.809,2.47,2.47,0,0,1,.071-.6,2.091,2.091,0,0,1,.208-.527,2.029,2.029,0,0,1,.333-.438,1.979,1.979,0,0,1,.447-.334,2.253,2.253,0,0,1,.551-.212,2.684,2.684,0,0,1,.643-.074,3.675,3.675,0,0,1,.578.044,2.51,2.51,0,0,1,.449.107v.627a3.3,3.3,0,0,0-.475-.114,2.992,2.992,0,0,0-.484-.039,1.886,1.886,0,0,0-.615.1,1.394,1.394,0,0,0-.5.289,1.353,1.353,0,0,0-.33.472,1.627,1.627,0,0,0-.121.648,1.431,1.431,0,0,0,.374,1.071,1.454,1.454,0,0,0,1.051.357q.127,0,.262-.014a2.357,2.357,0,0,0,.238-.035Zm3.742-.618q.434.618.705,1.1h.018Q49.2-4.4,49.2-4.754V-6.58h.738v4.031h-.774L47.854-4.4q-.346-.482-.717-1.118h-.018q.036.741.036,1.148v1.826h-.738V-6.58h.774Z" transform="translate(25.221 79.69)" fill="#707070"/>
  <g id="Group_30" data-name="Group 30" transform="translate(0 30.461)">
    <path id="Path_94" data-name="Path 94" d="M1188.335,497.686a2.926,2.926,0,0,0,.321-.391q.205-.3.356-.5.2-.271.367-.481c.112-.14.228-.286.35-.438s.271-.35.446-.595q.683-.928,2.188-2.871t3.1-4.4a48.658,48.658,0,0,0,2.906-5.155,16.3,16.3,0,0,0,1.61-5.111q.14-1.225.157-2.17a6.762,6.762,0,0,0-.175-1.733,5.194,5.194,0,0,0-.622-1.488,8.166,8.166,0,0,0-1.2-1.47,1.936,1.936,0,0,0-.411-.289c-.146-.076-.3-.155-.464-.236a2.233,2.233,0,0,1-.193.665,1.7,1.7,0,0,1-.455.6,1.509,1.509,0,0,1-.718.333,1.763,1.763,0,0,1-.98-.149,1.368,1.368,0,0,1-.858-.945,1.623,1.623,0,0,1,.158-1.3c.023-.07.029-.1.017-.087a1.917,1.917,0,0,1,.849-.919,2.563,2.563,0,0,1,1.234-.306,4.724,4.724,0,0,1,2.766.753,5.441,5.441,0,0,1,1.794,2.03,8.055,8.055,0,0,1,.832,2.879,11.651,11.651,0,0,1-.123,3.3,29.037,29.037,0,0,1-1.567,5.487,39.626,39.626,0,0,1-2.284,4.8,45.136,45.136,0,0,1-2.617,4.122q-1.356,1.89-2.546,3.466-1.436,1.873-2.923,3.632a29.9,29.9,0,0,1-3,3.1,15.073,15.073,0,0,1-3.037,2.127,5.66,5.66,0,0,1-3.028.683q-1.365-.105-.7-4.332t1.864-9.68q1.2-5.452,2.153-10.642t.149-7.185a1.29,1.29,0,0,0-.875-.674,6.1,6.1,0,0,0-1.418-.245,7.73,7.73,0,0,0-1.435.044,4.419,4.419,0,0,0-.945.192,21.736,21.736,0,0,0-3.317,1.4,20.364,20.364,0,0,0-3.16,2.022,16.413,16.413,0,0,0-2.6,2.521,9.271,9.271,0,0,0-1.654,2.932,4.99,4.99,0,0,0-.35,2.976,5.414,5.414,0,0,0,1.19,2.442,6.018,6.018,0,0,0,2.2,1.61,5.681,5.681,0,0,0,2.669.481,1.54,1.54,0,0,0,.639-.122,3.809,3.809,0,0,1,.517-.193,4.684,4.684,0,0,0,2.363-1.321,4.576,4.576,0,0,0,1.12-2.2,1.992,1.992,0,0,1-.682-.053,1.686,1.686,0,0,1-.665-.324,1.476,1.476,0,0,1-.455-.656,1.945,1.945,0,0,1-.035-1.05,1.245,1.245,0,0,1,.779-.954,1.843,1.843,0,0,1,1.3-.1.109.109,0,0,1,.061.018.091.091,0,0,0,.079,0,2.141,2.141,0,0,1,1.505,1.838,3.824,3.824,0,0,1-.306,1.768,5.033,5.033,0,0,1-1.024,1.505,7.623,7.623,0,0,1-1.558,1.216,10.344,10.344,0,0,1-1.89.884,8.885,8.885,0,0,1-1.12.333c-.128.035-.251.064-.367.087q-.683.158-1.418.254a10.237,10.237,0,0,1-1.313.1,6.721,6.721,0,0,1-3.063-.551,4.171,4.171,0,0,1-2.179-2.057,5.624,5.624,0,0,1-.246-3.615,13.616,13.616,0,0,1,2.757-5.207,19.078,19.078,0,0,1,4.726-4.254,21.937,21.937,0,0,1,6.4-3.089,6.888,6.888,0,0,1,5.347.333q2.188,1.217,1.558,6.013-.4,2.818-1.146,6.485t-1.505,7.2q-.761,3.536-1.392,6.45t-.805,4.227a2.367,2.367,0,0,0,1.812-.359,13.19,13.19,0,0,0,2.021-1.383Q1187.068,498.974,1188.335,497.686Z" transform="translate(-1166.223 -459.2)" fill="#707070"/>
    <path id="Path_95" data-name="Path 95" d="M1365.563,521.7q-.289.744-1.055,2.864t-1.365,4.414a21.918,21.918,0,0,0-.715,4.1q-.114,1.809.88,1.913a.748.748,0,0,0,.671-.207,5.134,5.134,0,0,0,.517-.579,6.534,6.534,0,0,1,.455-.538.418.418,0,0,1,.508-.1,1.975,1.975,0,0,1-.9,2.006,2.559,2.559,0,0,1-2.316.579q-1.189-.31-1.808-2.367t.579-6.9q.558-2.233.889-3.536a14.732,14.732,0,0,1,.608-1.964,1.6,1.6,0,0,1,.6-.827,1.792,1.792,0,0,1,.88-.145,2.125,2.125,0,0,1,1.084.331A1.217,1.217,0,0,1,1365.563,521.7Zm1.1-6.058a2.2,2.2,0,0,1,.4,1.106,1.46,1.46,0,0,1-.505,1.168,2.152,2.152,0,0,1-1.137.693,1.274,1.274,0,0,1-.889-.165,1.6,1.6,0,0,1-.579-.661,1.359,1.359,0,0,1-.145-.817,1.47,1.47,0,0,1,.381-.827,2.436,2.436,0,0,1,.8-.61,2.111,2.111,0,0,1,.919-.217A.958.958,0,0,1,1366.659,515.641Z" transform="translate(-1324.807 -497.665)" fill="#707070"/>
    <path id="Path_96" data-name="Path 96" d="M1426.377,539.12q1.841-.5,1.273,1.561a22.349,22.349,0,0,1-2.171,4.88,59.8,59.8,0,0,1-3.547,5.51,21.173,21.173,0,0,1-2.874,3.453q-2.13,1.53-2.759-.517a14.92,14.92,0,0,1-.425-5.252,35.743,35.743,0,0,1,.983-6.327q.775-3.122,1.5-3.7.145-.248.662-.259a3.726,3.726,0,0,1,1.075.145,3.59,3.59,0,0,1,1,.445q.444.289.444.6,0,.083-.919,3.081t-1.583,5.852a12.405,12.405,0,0,0-.476,4.073q.186,1.22,2.378-2.254a16.911,16.911,0,0,0,1.5-2.729q.734-1.633,1.415-3.3t1.314-3.1A9.989,9.989,0,0,1,1426.377,539.12Z" transform="translate(-1370.256 -516.595)" fill="#707070"/>
    <path id="Path_97" data-name="Path 97" d="M1497.893,521.7q-.289.744-1.054,2.864t-1.365,4.414a21.829,21.829,0,0,0-.714,4.1q-.113,1.809.879,1.913a.751.751,0,0,0,.672-.207,5.154,5.154,0,0,0,.516-.579,6.582,6.582,0,0,1,.455-.538.417.417,0,0,1,.507-.1,1.975,1.975,0,0,1-.9,2.006,2.559,2.559,0,0,1-2.316.579q-1.189-.31-1.809-2.367t.579-6.9q.558-2.233.889-3.536a14.73,14.73,0,0,1,.61-1.964,1.6,1.6,0,0,1,.6-.827,1.787,1.787,0,0,1,.879-.145,2.13,2.13,0,0,1,1.085.331A1.214,1.214,0,0,1,1497.893,521.7Zm1.1-6.058a2.206,2.206,0,0,1,.4,1.106,1.462,1.462,0,0,1-.507,1.168,2.151,2.151,0,0,1-1.137.693,1.274,1.274,0,0,1-.889-.165,1.593,1.593,0,0,1-.579-.661,1.357,1.357,0,0,1-.145-.817,1.467,1.467,0,0,1,.383-.827,2.435,2.435,0,0,1,.8-.61,2.116,2.116,0,0,1,.92-.217A.957.957,0,0,1,1498.989,515.641Z" transform="translate(-1432.98 -497.665)" fill="#707070"/>
    <path id="Path_98" data-name="Path 98" d="M1563.454,435.947q-.124.5-.827,3.753t-1.509,6.958q-.807,3.7-2.089,9.677a1.28,1.28,0,0,1-.889.786,1.553,1.553,0,0,1-1.075-.134,1.77,1.77,0,0,1-.777-.848,1.731,1.731,0,0,1,.011-1.375,14.527,14.527,0,0,1-3.609,2.409,7.321,7.321,0,0,1-3.66.858,2.515,2.515,0,0,1-2.254-1.675q-.651-1.551.549-5.252a12.387,12.387,0,0,1,2.469-4.2,19.553,19.553,0,0,1,3.672-3.391,8,8,0,0,1,3.37-1.5q1.489-.2,1.592,1.478a4.7,4.7,0,0,1-.632,2.223,7.577,7.577,0,0,1-1.179,1.716c-.365.365-.574.4-.63.114a7.142,7.142,0,0,1,.972-2.564q.806-1.427.186-1.323a4.74,4.74,0,0,0-1.8,1.034,22.756,22.756,0,0,0-2.523,2.378,11.5,11.5,0,0,0-1.964,2.729,16.7,16.7,0,0,0-1.293,3.391,5.536,5.536,0,0,0-.165,2.574,1.223,1.223,0,0,0,1.169,1.034,4.815,4.815,0,0,0,2.709-1.209,11.768,11.768,0,0,0,2.325-1.82,8.523,8.523,0,0,0,1.335-1.82q.538-2.047,1.158-4.6t1.178-4.931q.683-3.226,1.365-6.162t1.365-5.376q.683-2.44,1.385-4.3a13.524,13.524,0,0,1,1.489-2.977,15.493,15.493,0,0,1,2.387-2.667,9.786,9.786,0,0,1,2.824-1.778,6.744,6.744,0,0,1,3.048-.486,6.057,6.057,0,0,1,3.093,1.21,1.934,1.934,0,0,1,.641.827,3.385,3.385,0,0,1,.228.91,5.784,5.784,0,0,1-.021,1.075,2.055,2.055,0,0,1-.88,1.23,1.553,1.553,0,0,1-1.415.2,2.322,2.322,0,0,1-1.066-.662,1.714,1.714,0,0,1-.4-.848,2.006,2.006,0,0,1,.062-.858,2.1,2.1,0,0,1,.352-.713,4.852,4.852,0,0,0-3.288-.01,5.67,5.67,0,0,0-2.874,2.285,14.828,14.828,0,0,0-1.417,3.132q-.734,2.1-1.332,4.208T1563.454,435.947Z" transform="translate(-1477.117 -418.653)" fill="#707070"/>
  </g>
</svg>
