<svg xmlns="http://www.w3.org/2000/svg" xmlns:xlink="http://www.w3.org/1999/xlink" width="90" height="90" viewBox="0 0 90 90">
  <defs>
    <clipPath id="clip-path">
      <rect id="Rectangle_3736" data-name="Rectangle 3736" width="53.219" height="46.905" fill="none"/>
    </clipPath>
  </defs>
  <g id="Group_7057" data-name="Group 7057" transform="translate(-1021 -1934)">
    <g id="Ellipse_183" data-name="Ellipse 183" transform="translate(1021 1934)" fill="#fff" stroke="#29abe2" stroke-width="1" stroke-dasharray="3">
      <circle cx="45" cy="45" r="45" stroke="none"/>
      <circle cx="45" cy="45" r="44.5" fill="none"/>
    </g>
    <g id="Group_5657" data-name="Group 5657" transform="translate(1039 1956)">
      <g id="Group_5656" data-name="Group 5656" clip-path="url(#clip-path)">
        <path id="Path_11071" data-name="Path 11071" d="M3.359,29.32H33.231a1.142,1.142,0,0,0,1.142-1.142V1.142A1.142,1.142,0,0,0,33.231,0H3.359a1.137,1.137,0,0,0-.79.319.567.567,0,0,0-.324.576,1.145,1.145,0,0,0-.028.248V28.178A1.142,1.142,0,0,0,3.359,29.32m29.872-1.91L19.1,14.705,33.231,1.912Zm-.854.768H4.21l14.035-12.7ZM18.242,13.938,4.006,1.142H32.38Zm-.851.77L3.359,27.407V2.1Z" transform="translate(-1.9)" fill="#3f7bff"/>
        <path id="Path_11072" data-name="Path 11072" d="M13.765,232.53H1.142A1.142,1.142,0,0,0,0,233.672V245.1a1.142,1.142,0,0,0,1.142,1.142H13.765a1.142,1.142,0,0,0,1.142-1.142V233.672a1.142,1.142,0,0,0-1.142-1.142m-6.335,6.105-5.522-4.963H12.914Zm6.335-4.193v9.887L8.284,239.4Zm-7.186,4.963-5.437,4.921v-9.808Zm.854.767,5.478,4.924H1.993Z" transform="translate(0 -199.334)" fill="#3f7bff"/>
        <path id="Path_11073" data-name="Path 11073" d="M158.483,232.53H125.305a1.142,1.142,0,0,0-1.01.609.556.556,0,0,0-.132.6V245.1a1.142,1.142,0,0,0,1.142,1.142h33.177a1.142,1.142,0,0,0,1.142-1.142V233.672a1.142,1.142,0,0,0-1.142-1.142m-33.177,1.824,14.772,5.052-14.772,5.087Zm33.177,10.139L143.6,239.4l14.887-5.126ZM141.836,238.8l-15-5.128h29.889Zm0,1.207,14.881,5.089H127.059Z" transform="translate(-106.406 -199.334)" fill="#3f7bff"/>
        <path id="Path_11074" data-name="Path 11074" d="M249.7,5.142H265.64a.571.571,0,0,0,0-1.142H249.7a.571.571,0,0,0,0,1.142" transform="translate(-213.564 -3.429)" fill="#3f7bff"/>
        <path id="Path_11075" data-name="Path 11075" d="M249.7,33.22H265.64a.571.571,0,0,0,0-1.142H249.7a.571.571,0,0,0,0,1.142" transform="translate(-213.564 -27.498)" fill="#3f7bff"/>
        <path id="Path_11076" data-name="Path 11076" d="M249.7,61.3h7.545a.571.571,0,0,0,0-1.142H249.7a.571.571,0,0,0,0,1.142" transform="translate(-213.564 -51.567)" fill="#3f7bff"/>
        <path id="Path_11077" data-name="Path 11077" d="M249.7,132.959H265.64a.571.571,0,0,0,0-1.142H249.7a.571.571,0,0,0,0,1.142" transform="translate(-213.564 -112.999)" fill="#3f7bff"/>
        <path id="Path_11078" data-name="Path 11078" d="M249.7,104.881H265.64a.571.571,0,0,0,0-1.142H249.7a.571.571,0,0,0,0,1.142" transform="translate(-213.564 -88.929)" fill="#3f7bff"/>
        <path id="Path_11079" data-name="Path 11079" d="M249.7,161.037H265.64a.571.571,0,0,0,0-1.142H249.7a.571.571,0,0,0,0,1.142" transform="translate(-213.564 -137.068)" fill="#3f7bff"/>
        <path id="Path_11080" data-name="Path 11080" d="M249.7,189.114h7.545a.571.571,0,0,0,0-1.142H249.7a.571.571,0,0,0,0,1.142" transform="translate(-213.564 -161.137)" fill="#3f7bff"/>
      </g>
    </g>
  </g>
</svg>
