<svg xmlns="http://www.w3.org/2000/svg" xmlns:xlink="http://www.w3.org/1999/xlink" width="905.572" height="266.63" viewBox="0 0 905.572 266.63">
  <defs>
    <clipPath id="clip-path">
      <rect id="Rectangle_4643" data-name="Rectangle 4643" width="905.572" height="266.63" fill="#fff"/>
    </clipPath>
  </defs>
  <g id="Group_7054" data-name="Group 7054" clip-path="url(#clip-path)">
    <path id="Path_18725" data-name="Path 18725" d="M2198.829,3.524a1.758,1.758,0,0,0,1.741-1.743,2,2,0,0,0-.132-.686,1.589,1.589,0,0,0-.37-.554,1.8,1.8,0,0,0-2.481,0,1.756,1.756,0,0,0-.5,1.24,1.737,1.737,0,0,0,.5,1.215,1.711,1.711,0,0,0,1.241.528" transform="translate(-1294.998 -0.027)" fill="#fff"/>
    <path id="Path_18726" data-name="Path 18726" d="M2000.192,266.722h0a1.745,1.745,0,1,1,.237-3.483,1.743,1.743,0,0,1,1.612,1.874,1.722,1.722,0,0,1-1.848,1.609m-9.214-1h0a.76.76,0,0,1-.237-.025,1.734,1.734,0,1,1,1.98-1.451,1.761,1.761,0,0,1-1.743,1.477m-9.239-1.662h0a1.9,1.9,0,0,1-.369-.054,1.686,1.686,0,1,1,.369.054m-9.081-2.323h0a1.749,1.749,0,0,1-.5-.08,1.726,1.726,0,0,1-1.162-2.165,1.75,1.75,0,0,1,2.164-1.186,1.756,1.756,0,0,1-.5,3.431m-8.895-2.983h0a1.857,1.857,0,0,1-.635-.132h.026a1.734,1.734,0,1,1,2.244-1.005,1.792,1.792,0,0,1-1.635,1.137m-8.659-3.617h0a1.857,1.857,0,0,1-.739-.16,1.737,1.737,0,0,1-.846-2.323,1.706,1.706,0,0,1,2.3-.843,1.737,1.737,0,0,1-.713,3.326m-8.4-4.225h0a1.588,1.588,0,0,1-.817-.209,1.777,1.777,0,0,1-.713-2.377,1.748,1.748,0,0,1,3.061,1.688,1.707,1.707,0,0,1-1.531.9m-8.051-4.8h0a1.844,1.844,0,0,1-.95-.265,1.768,1.768,0,0,1-.5-2.429,1.747,1.747,0,0,1,2.93,1.9,1.733,1.733,0,0,1-1.479.792m-7.682-5.359h0a1.931,1.931,0,0,1-1.056-.343,1.76,1.76,0,0,1-.343-2.454,1.745,1.745,0,1,1,1.4,2.8m-7.312-5.914h0a1.683,1.683,0,0,1-1.134-.422,1.726,1.726,0,0,1-.186-2.454,1.741,1.741,0,1,1,2.64,2.271,1.734,1.734,0,0,1-1.32.606m-6.863-6.388h0a1.648,1.648,0,0,1-1.214-.528,1.735,1.735,0,1,1,2.454,0,1.752,1.752,0,0,1-1.24.528m-6.389-6.888h0a1.773,1.773,0,0,1-1.32-.608,1.741,1.741,0,0,1,2.64-2.271,1.729,1.729,0,0,1-1.32,2.879m-5.886-7.313h0a1.742,1.742,0,1,1,1.4-2.8,1.739,1.739,0,0,1-1.4,2.8m-5.333-7.708h0a1.764,1.764,0,1,1,.924-.291,1.726,1.726,0,0,1-.924.291m-4.8-8.1h0a1.715,1.715,0,0,1-1.531-.9,1.743,1.743,0,0,1,.687-2.374,1.773,1.773,0,0,1,2.375.712,1.727,1.727,0,0,1-.687,2.348,1.652,1.652,0,0,1-.844.211m-4.2-8.394h0a1.8,1.8,0,0,1-1.611-1,1.755,1.755,0,0,1,3.2-1.451,1.746,1.746,0,0,1-1.584,2.454m-3.591-8.685h0a1.744,1.744,0,0,1-.607-3.38,1.746,1.746,0,0,1,1.216,3.274,1.634,1.634,0,0,1-.608.106m-2.955-8.9h0a1.755,1.755,0,0,1-.5-3.431,1.75,1.75,0,0,1,2.164,1.188,1.708,1.708,0,0,1-1.188,2.163,1.451,1.451,0,0,1-.474.08m-2.324-9.107h0a1.7,1.7,0,1,1,.37-.026,1.659,1.659,0,0,1-.37.026m-1.635-9.239h0a1.73,1.73,0,0,1-1.716-1.5,1.745,1.745,0,1,1,3.457-.477,1.727,1.727,0,0,1-1.477,1.954,1.012,1.012,0,0,1-.264.026m-.977-9.345h0a1.715,1.715,0,0,1-1.742-1.609,1.747,1.747,0,1,1,3.485-.237,1.738,1.738,0,0,1-1.611,1.846Zm-.317-9.371h0a1.739,1.739,0,0,1-1.741-1.743,1.721,1.721,0,0,1,1.741-1.74,1.739,1.739,0,0,1,1.742,1.74,1.758,1.758,0,0,1-1.742,1.743m.343-9.371h-.132a1.761,1.761,0,0,1-1.609-1.874,1.705,1.705,0,0,1,1.847-1.611,1.743,1.743,0,0,1,1.637,1.848,1.773,1.773,0,0,1-1.743,1.637m1-9.345h-.264A1.768,1.768,0,0,1,1878,114.7a1.714,1.714,0,0,1,1.98-1.477,1.737,1.737,0,0,1-.237,3.457m1.663-9.239h0a2.039,2.039,0,0,1-.4-.026,1.826,1.826,0,1,1,.4.026m2.323-9.082h0a1.568,1.568,0,0,1-.5-.077,1.715,1.715,0,1,1,.5.077m2.957-8.922h0a1.62,1.62,0,0,1-.607-.106,1.745,1.745,0,1,1,2.244-1.029,1.727,1.727,0,0,1-1.637,1.134m3.59-8.657h0a1.415,1.415,0,0,1-.713-.16,1.74,1.74,0,0,1-.871-2.3,1.772,1.772,0,0,1,2.324-.871,1.745,1.745,0,0,1-.74,3.328m4.224-8.368h0a1.908,1.908,0,0,1-.844-.211,1.746,1.746,0,0,1-.687-2.377,1.706,1.706,0,0,1,2.35-.686,1.761,1.761,0,0,1,.712,2.374,1.8,1.8,0,0,1-1.531.9m4.778-8.079h0a1.863,1.863,0,0,1-.95-.263,1.771,1.771,0,0,1-.5-2.428,1.738,1.738,0,0,1,2.4-.5,1.731,1.731,0,0,1-.95,3.194m5.358-7.682h0a1.754,1.754,0,0,1-1.028-.368,1.734,1.734,0,1,1,2.085-2.771,1.7,1.7,0,0,1,.343,2.428,1.75,1.75,0,0,1-1.4.712m5.914-7.311h0a1.728,1.728,0,0,1-1.32-2.877,1.74,1.74,0,1,1,2.64,2.268,1.77,1.77,0,0,1-1.32.608m6.388-6.865h0a1.75,1.75,0,1,1,1.241-2.982,1.725,1.725,0,0,1,0,2.457,1.765,1.765,0,0,1-1.241.526m6.889-6.414h0a1.712,1.712,0,0,1-1.32-.58,1.781,1.781,0,0,1,.159-2.482,1.755,1.755,0,0,1,2.481.186,1.774,1.774,0,0,1-.184,2.454,1.734,1.734,0,0,1-1.136.422m7.312-5.885h0a1.735,1.735,0,0,1-1.056-3.143,1.731,1.731,0,0,1,2.429.343,1.757,1.757,0,0,1-.343,2.454,1.713,1.713,0,0,1-1.03.345m7.708-5.359h0a1.8,1.8,0,0,1-1.477-.792,1.751,1.751,0,0,1,.527-2.428,1.738,1.738,0,1,1,1.874,2.928,1.529,1.529,0,0,1-.924.292m8.052-4.805h0a1.743,1.743,0,0,1-1.531-.9,1.772,1.772,0,0,1,.713-2.377,1.709,1.709,0,0,1,2.35.689,1.744,1.744,0,0,1-.687,2.374,1.6,1.6,0,0,1-.844.211m8.421-4.2h0a1.755,1.755,0,1,1,.713-.157,1.743,1.743,0,0,1-.713.157m8.658-3.617h0a1.728,1.728,0,0,1-1.636-1.134,1.745,1.745,0,1,1,3.272-1.214,1.727,1.727,0,0,1-1.03,2.243,1.53,1.53,0,0,1-.607.106m8.923-2.957h0a1.719,1.719,0,0,1-1.664-1.265,1.69,1.69,0,0,1,1.161-2.14,1.738,1.738,0,1,1,1,3.328,1.851,1.851,0,0,1-.5.077M1982,6.916h0a1.749,1.749,0,0,1-1.715-1.371,1.742,1.742,0,0,1,3.405-.74,1.752,1.752,0,0,1-1.32,2.085,1.906,1.906,0,0,1-.37.026m9.239-1.637h0a1.751,1.751,0,0,1-.265-3.483,1.747,1.747,0,1,1,.5,3.457.748.748,0,0,1-.238.026m9.45-1h0a1.78,1.78,0,0,1-1.874-1.611,1.766,1.766,0,0,1,1.609-1.874A1.732,1.732,0,0,1,2002.3,2.4a1.729,1.729,0,0,1-1.61,1.874" transform="translate(-1106.129 -0.463)" fill="#fff"/>
    <path id="Path_18727" data-name="Path 18727" d="M2198.829,644.367a1.834,1.834,0,0,0,.66-.134,2.9,2.9,0,0,0,.58-.395,1.588,1.588,0,0,0,.37-.554,1.792,1.792,0,0,0,0-1.348,1.613,1.613,0,0,0-.37-.554,1.8,1.8,0,0,0-1.9-.395,1.882,1.882,0,0,0-.582.395,1.62,1.62,0,0,0-.37.554,1.48,1.48,0,0,0-.132.66,1.516,1.516,0,0,0,.132.688,1.6,1.6,0,0,0,.37.554,1.721,1.721,0,0,0,1.241.528" transform="translate(-1294.998 -377.736)" fill="#fff"/>
    <path id="Path_18728" data-name="Path 18728" d="M2030.928,272.985a1.745,1.745,0,1,0,0-3.49,115.2,115.2,0,1,1,0-230.4,1.745,1.745,0,1,0,0-3.49,118.692,118.692,0,1,0,0,237.383" transform="translate(-1127.102 -20.984)" fill="#fff"/>
    <path id="Path_18729" data-name="Path 18729" d="M1791.576,323.922h50.257a1.745,1.745,0,0,0,0-3.49h-50.257a1.745,1.745,0,0,0,0,3.49" transform="translate(-1054.956 -188.868)" fill="#fff"/>
    <path id="Path_18730" data-name="Path 18730" d="M1800.214,318.468l2.381-2.557-12.609-11.718,12.609-11.721-2.381-2.557-15.354,14.278Z" transform="translate(-1052.026 -170.88)" fill="#fff"/>
    <path id="Path_18731" data-name="Path 18731" d="M1573.255,3.5a1.712,1.712,0,0,0,1.241-.528,1.742,1.742,0,0,0,.5-1.215,1.761,1.761,0,0,0-.5-1.24,1.458,1.458,0,0,0-.581-.369,1.707,1.707,0,0,0-1.9.369,1.573,1.573,0,0,0-.37.554,1.975,1.975,0,0,0-.133.686,1.761,1.761,0,0,0,1.743,1.743" transform="translate(-926.275 0)" fill="#fff"/>
    <path id="Path_18732" data-name="Path 18732" d="M1374.62,266.722h0a1.746,1.746,0,1,1,1.874-1.609,1.747,1.747,0,0,1-1.874,1.609m-9.188-1h0a.837.837,0,0,1-.263-.025,1.734,1.734,0,1,1,1.979-1.48,1.755,1.755,0,0,1-1.717,1.505m-9.239-1.662h0a1.456,1.456,0,0,1-.368-.054,1.659,1.659,0,1,1,.368.054m-9.106-2.349h0a1.429,1.429,0,0,1-.475-.054,1.817,1.817,0,1,1,.475.054m-8.9-2.957h0a1.593,1.593,0,0,1-.607-.132,1.734,1.734,0,1,1,2.244-1.005,1.767,1.767,0,0,1-1.637,1.137m-8.658-3.617h0a1.863,1.863,0,0,1-.74-.16,1.758,1.758,0,0,1-.844-2.323,1.742,1.742,0,0,1,3.167,1.451,1.717,1.717,0,0,1-1.583,1.031m-8.368-4.225h0a1.623,1.623,0,0,1-.846-.209,1.749,1.749,0,0,1,1.69-3.063,1.743,1.743,0,0,1-.844,3.272m-8.078-4.8h0a1.693,1.693,0,0,1-.924-.265,1.753,1.753,0,0,1-.528-2.429,1.747,1.747,0,1,1,1.453,2.694m-7.682-5.359h0a1.93,1.93,0,0,1-1.056-.343,1.753,1.753,0,0,1,2.112-2.8,1.734,1.734,0,0,1,.343,2.431,1.714,1.714,0,0,1-1.4.712m-7.312-5.914h0a1.753,1.753,0,1,1,1.32-.606,1.737,1.737,0,0,1-1.32.606m-6.837-6.414h0a1.733,1.733,0,1,1,1.214-2.957h.026a1.744,1.744,0,0,1-.026,2.454,1.712,1.712,0,0,1-1.214.5m-6.388-6.862h0a1.826,1.826,0,0,1-1.347-.608,1.751,1.751,0,0,1,2.667-2.271,1.744,1.744,0,0,1-1.32,2.879m-5.888-7.313h0a1.679,1.679,0,0,1-1.4-.712,1.729,1.729,0,0,1,.343-2.428,1.761,1.761,0,0,1,2.456.343,1.791,1.791,0,0,1-.37,2.454,1.723,1.723,0,0,1-1.03.343m-5.358-7.708h0a1.759,1.759,0,0,1-1.478-.817,1.7,1.7,0,1,1,1.478.817m-4.8-8.1h0a1.744,1.744,0,0,1-1.531-.9,1.774,1.774,0,0,1,.713-2.374,1.737,1.737,0,0,1,2.35.712,1.707,1.707,0,0,1-.687,2.348,1.592,1.592,0,0,1-.844.211m-4.2-8.394h0a1.746,1.746,0,1,1,.713-.157,1.646,1.646,0,0,1-.713.157m-3.59-8.685h0a1.731,1.731,0,0,1-1.637-1.134,1.746,1.746,0,1,1,2.244,1.029,1.539,1.539,0,0,1-.607.106m-2.957-8.9h0a1.777,1.777,0,1,1,.5-.08,1.609,1.609,0,0,1-.5.08m-2.3-9.107h0a1.751,1.751,0,0,1-1.717-1.372,1.756,1.756,0,1,1,2.085,1.346,1.9,1.9,0,0,1-.368.026m-1.664-9.239h0a1.75,1.75,0,1,1,1.743-1.98,1.729,1.729,0,0,1-1.479,1.954.828.828,0,0,1-.264.026m-.976-9.345h0a1.743,1.743,0,1,1,1.741-1.846,1.72,1.72,0,0,1-1.609,1.846Zm-.317-9.371h0a1.758,1.758,0,0,1-1.743-1.743,1.739,1.739,0,0,1,1.743-1.74,1.721,1.721,0,0,1,1.741,1.74,1.739,1.739,0,0,1-1.741,1.743m.343-9.371h-.131a1.762,1.762,0,0,1-1.611-1.874,1.747,1.747,0,0,1,3.485.237,1.775,1.775,0,0,1-1.742,1.637m1-9.345h0a1.013,1.013,0,0,1-.264-.026,1.694,1.694,0,1,1,.264.026m1.664-9.239h0a1.655,1.655,0,0,1-.37-.026,1.755,1.755,0,1,1,.738-3.431,1.77,1.77,0,0,1,1.347,2.085h-.027a1.72,1.72,0,0,1-1.689,1.372m2.323-9.082h0a1.688,1.688,0,0,1-.5-.077,1.747,1.747,0,0,1,.976-3.354,1.712,1.712,0,0,1,1.188,2.165,1.741,1.741,0,0,1-1.662,1.266m2.957-8.922h0a1.719,1.719,0,0,1-.609-.106,1.771,1.771,0,0,1-1.028-2.243,1.75,1.75,0,0,1,2.244-1.029,1.743,1.743,0,0,1-.607,3.377m3.59-8.657h0a1.407,1.407,0,0,1-.713-.16,1.74,1.74,0,0,1-.871-2.3,1.755,1.755,0,1,1,3.194,1.454,1.749,1.749,0,0,1-1.61,1m4.224-8.368h0a1.913,1.913,0,0,1-.846-.211,1.749,1.749,0,1,1,2.375-.688,1.8,1.8,0,0,1-1.53.9m4.8-8.079h0a1.741,1.741,0,1,1,1.451-.792,1.684,1.684,0,0,1-1.451.792m5.358-7.682h0a1.775,1.775,0,0,1-1.056-.368,1.73,1.73,0,0,1-.343-2.429,1.745,1.745,0,1,1,2.8,2.085,1.788,1.788,0,0,1-1.4.712m5.887-7.311h0a1.68,1.68,0,0,1-1.134-.423,1.758,1.758,0,0,1-.186-2.482v.029a1.74,1.74,0,1,1,1.32,2.877m6.415-6.865h0a1.76,1.76,0,0,1-1.24-.526,1.736,1.736,0,1,1,2.454,0,1.747,1.747,0,0,1-1.214.526m6.864-6.414h0a1.711,1.711,0,0,1-1.32-.58A1.78,1.78,0,0,1,1297.09,33a1.756,1.756,0,0,1,2.481.186,1.726,1.726,0,0,1-.184,2.454,1.686,1.686,0,0,1-1.136.422m7.312-5.885h0a1.749,1.749,0,1,1,1.4-2.8,1.739,1.739,0,0,1-.368,2.454,1.606,1.606,0,0,1-1.03.345m7.708-5.359h0a1.8,1.8,0,0,1-1.478-.792,1.752,1.752,0,0,1,.528-2.428,1.745,1.745,0,0,1,1.9,2.928,1.6,1.6,0,0,1-.95.292m8.078-4.805h0a1.713,1.713,0,0,1-1.531-.9,1.749,1.749,0,1,1,3.063-1.688,1.776,1.776,0,0,1-.713,2.374,1.566,1.566,0,0,1-.819.211m8.4-4.2h0a1.833,1.833,0,0,1-1.611-1.029,1.755,1.755,0,1,1,2.323.871,1.738,1.738,0,0,1-.712.157m8.683-3.617h0a1.7,1.7,0,0,1-1.636-1.134,1.733,1.733,0,1,1,2.243,1.029,1.705,1.705,0,0,1-.607.106m8.9-2.957h0a1.737,1.737,0,0,1-.474-3.405A1.716,1.716,0,0,1,1349.014,7a1.752,1.752,0,0,1-1.189,2.165,1.573,1.573,0,0,1-.5.077m9.108-2.323h0a1.77,1.77,0,0,1-1.716-1.371,1.755,1.755,0,0,1,3.431-.74,1.7,1.7,0,0,1-1.715,2.111m9.239-1.637h0a1.749,1.749,0,0,1-.239-3.483,1.745,1.745,0,0,1,.476,3.457.745.745,0,0,1-.237.026m9.45-1h0a1.747,1.747,0,0,1-.238-3.485,1.723,1.723,0,0,1,1.848,1.611,1.713,1.713,0,0,1-1.61,1.874" transform="translate(-737.406 -0.463)" fill="#fff"/>
    <path id="Path_18733" data-name="Path 18733" d="M1573.255,644.37a1.721,1.721,0,0,0,1.241-.528,1.568,1.568,0,0,0,.369-.554,1.522,1.522,0,0,0,.133-.688,1.486,1.486,0,0,0-.133-.66,1.591,1.591,0,0,0-.369-.554,1.728,1.728,0,0,0-1.9-.395,2.244,2.244,0,0,0-.58.395,1.6,1.6,0,0,0-.37.554,1.774,1.774,0,0,0,0,1.348,1.353,1.353,0,0,0,.4.554,1.664,1.664,0,0,0,1.214.528" transform="translate(-926.275 -377.739)" fill="#fff"/>
    <path id="Path_18734" data-name="Path 18734" d="M1405.377,272.985a1.745,1.745,0,0,0,0-3.49,115.2,115.2,0,1,1,0-230.4,1.745,1.745,0,0,0,0-3.49,118.692,118.692,0,1,0,0,237.383" transform="translate(-758.392 -20.984)" fill="#fff"/>
    <path id="Path_18735" data-name="Path 18735" d="M1166.024,323.922h50.257a1.745,1.745,0,0,0,0-3.49h-50.257a1.745,1.745,0,0,0,0,3.49" transform="translate(-686.245 -188.868)" fill="#fff"/>
    <path id="Path_18736" data-name="Path 18736" d="M1174.661,318.468l2.381-2.557-12.609-11.718,12.609-11.721-2.381-2.557-15.354,14.278Z" transform="translate(-683.314 -170.88)" fill="#fff"/>
    <path id="Path_18737" data-name="Path 18737" d="M947.685,3.524A1.666,1.666,0,0,0,948.925,3a1.628,1.628,0,0,0,.5-1.215,1.755,1.755,0,0,0-.5-1.24,1.768,1.768,0,0,0-2.454,0,1.653,1.653,0,0,0-.4.554,2,2,0,0,0-.132.686A1.655,1.655,0,0,0,946.47,3a1.652,1.652,0,0,0,1.215.528" transform="translate(-557.554 -0.027)" fill="#fff"/>
    <path id="Path_18738" data-name="Path 18738" d="M749.047,266.722h0a1.746,1.746,0,1,1,1.874-1.609,1.73,1.73,0,0,1-1.874,1.609m-9.186-1h0a.939.939,0,0,1-.264-.025,1.7,1.7,0,1,1,.264.025m-9.239-1.662h0a1.676,1.676,0,0,1-.37-.054,1.686,1.686,0,1,1,.37.054m-9.081-2.349h0a1.507,1.507,0,0,1-.5-.054,1.763,1.763,0,0,1-1.189-2.165,1.746,1.746,0,1,1,1.69,2.22m-8.922-2.957h0a1.838,1.838,0,0,1-.607-.132,1.739,1.739,0,1,1,1.24-3.248h-.026a1.709,1.709,0,0,1,1.03,2.243,1.767,1.767,0,0,1-1.637,1.137m-8.659-3.617h0a1.742,1.742,0,0,1-.713-.16,1.768,1.768,0,0,1-.87-2.323,1.742,1.742,0,0,1,2.323-.843,1.747,1.747,0,0,1-.74,3.326m-8.368-4.225h0a1.622,1.622,0,0,1-.845-.209,1.773,1.773,0,1,1,.845.209m-8.051-4.8h0a1.724,1.724,0,0,1-.951-.265,1.778,1.778,0,0,1-.527-2.429,1.747,1.747,0,0,1,2.93,1.9,1.689,1.689,0,0,1-1.451.792m-7.707-5.359h0a1.78,1.78,0,0,1-1.03-.343,1.743,1.743,0,0,1-.37-2.454,1.764,1.764,0,0,1,2.456-.345,1.733,1.733,0,0,1,.343,2.431,1.716,1.716,0,0,1-1.4.712m-7.287-5.914h0a1.728,1.728,0,0,1-1.32-2.877,1.741,1.741,0,1,1,2.64,2.271,1.775,1.775,0,0,1-1.32.606m-6.864-6.388h0a1.753,1.753,0,0,1-1.24-.528,1.719,1.719,0,0,1,0-2.454,1.753,1.753,0,0,1,2.481,0,1.721,1.721,0,0,1,0,2.454,1.755,1.755,0,0,1-1.241.528m-6.388-6.888h0a1.743,1.743,0,1,1,1.136-.423,1.7,1.7,0,0,1-1.136.423m-5.887-7.313h0a1.751,1.751,0,0,1-1.056-3.14,1.745,1.745,0,1,1,2.086,2.8,1.669,1.669,0,0,1-1.03.343m-5.358-7.708h0a1.763,1.763,0,1,1,.95-.291,1.813,1.813,0,0,1-.95.291m-4.805-8.1h0a1.672,1.672,0,0,1-1.5-.9,1.742,1.742,0,0,1,.686-2.374,1.775,1.775,0,0,1,2.377.712,1.738,1.738,0,0,1-.713,2.348,1.593,1.593,0,0,1-.845.211m-4.2-8.394h0a1.734,1.734,0,0,1-1.584-1,1.761,1.761,0,0,1,.872-2.323,1.743,1.743,0,0,1,1.451,3.168,1.854,1.854,0,0,1-.739.157m-3.59-8.685h0a1.755,1.755,0,0,1-1.637-1.134,1.773,1.773,0,0,1,1.03-2.245,1.751,1.751,0,0,1,1.24,3.274,1.762,1.762,0,0,1-.633.106m-2.931-8.9h0a1.779,1.779,0,1,1,.475-.08,1.459,1.459,0,0,1-.475.08m-2.323-9.107h0a1.722,1.722,0,0,1-1.69-1.372,1.8,1.8,0,1,1,1.69,1.372m-1.637-9.239h0a1.749,1.749,0,0,1-.237-3.483,1.745,1.745,0,0,1,.475,3.457.749.749,0,0,1-.238.026m-1-9.345h0a1.709,1.709,0,0,1-1.715-1.609,1.745,1.745,0,0,1,1.61-1.874,1.781,1.781,0,0,1,1.874,1.637,1.741,1.741,0,0,1-1.635,1.846Zm-.29-9.371h0a1.763,1.763,0,0,1-1.768-1.743,1.756,1.756,0,1,1,1.768,1.743m.317-9.371h-.106a1.783,1.783,0,0,1-1.637-1.874,1.745,1.745,0,0,1,1.874-1.611,1.745,1.745,0,0,1-.131,3.485m1-9.345h-.237a1.747,1.747,0,0,1-1.479-1.979,1.7,1.7,0,0,1,1.98-1.477,1.74,1.74,0,0,1,1.479,1.98,1.762,1.762,0,0,1-1.743,1.477m1.663-9.239h0a1.911,1.911,0,0,1-.37-.026,1.755,1.755,0,0,1,.74-3.431,1.769,1.769,0,0,1,1.346,2.085,1.749,1.749,0,0,1-1.716,1.372m2.323-9.082h0a1.838,1.838,0,0,1-.5-.077,1.716,1.716,0,0,1-1.161-2.165,1.746,1.746,0,1,1,3.352.977,1.772,1.772,0,0,1-1.69,1.266m2.984-8.922h0a1.76,1.76,0,0,1-.634-.106,1.749,1.749,0,1,1,2.244-1.029,1.693,1.693,0,0,1-1.61,1.134m3.59-8.657h0a1.452,1.452,0,0,1-.74-.16,1.707,1.707,0,0,1-.845-2.3,1.743,1.743,0,1,1,1.584,2.457m4.2-8.368h0a2,2,0,0,1-.845-.211,1.77,1.77,0,0,1-.687-2.377,1.749,1.749,0,0,1,3.063,1.689,1.766,1.766,0,0,1-1.531.9m4.805-8.079h0a1.806,1.806,0,0,1-.951-.263,1.747,1.747,0,1,1,1.9-2.931,1.734,1.734,0,0,1,.5,2.4h.025a1.727,1.727,0,0,1-1.477.792m5.358-7.682h0a1.646,1.646,0,0,1-1.03-.368,1.712,1.712,0,0,1-.368-2.429,1.759,1.759,0,0,1,2.454-.343,1.726,1.726,0,0,1,.343,2.428,1.785,1.785,0,0,1-1.4.712m5.887-7.311h0a1.755,1.755,0,1,1,1.32-.608,1.732,1.732,0,0,1-1.32.608m6.415-6.865h0a1.762,1.762,0,0,1-1.241-.526,1.724,1.724,0,0,1,0-2.457,1.754,1.754,0,0,1,2.481,0,1.754,1.754,0,0,1-1.24,2.982m6.864-6.414h0A1.732,1.732,0,0,1,671.544,33a1.741,1.741,0,1,1,2.27,2.64,1.637,1.637,0,0,1-1.134.422m7.311-5.885h0a1.742,1.742,0,1,1,1.057-.345,1.732,1.732,0,0,1-1.057.345m7.71-5.359h0a1.765,1.765,0,1,1,.95-.292,1.607,1.607,0,0,1-.95.292m8.078-4.805h0a1.746,1.746,0,1,1,1.53-2.585,1.765,1.765,0,0,1-.686,2.374,1.656,1.656,0,0,1-.844.211m8.394-4.2h0a1.765,1.765,0,0,1-1.584-1.029,1.743,1.743,0,1,1,3.168-1.454,1.771,1.771,0,0,1-.844,2.325,1.872,1.872,0,0,1-.74.157m8.685-3.617h0a1.744,1.744,0,0,1-.607-3.38,1.776,1.776,0,0,1,2.244,1.031,1.75,1.75,0,0,1-1.03,2.243,1.62,1.62,0,0,1-.607.106m8.922-2.957h0a1.771,1.771,0,0,1-1.689-1.265A1.746,1.746,0,0,1,723.443,7a1.753,1.753,0,0,1-1.189,2.165,1.535,1.535,0,0,1-.475.077m9.081-2.323h0a1.736,1.736,0,0,1-.369-3.431,1.742,1.742,0,1,1,.739,3.405,1.654,1.654,0,0,1-.37.026M740.1,5.279h0a1.734,1.734,0,0,1-1.715-1.5,1.747,1.747,0,1,1,1.98,1.477,1.012,1.012,0,0,1-.264.026m9.45-1h0A1.747,1.747,0,1,1,751.186,2.4a1.739,1.739,0,0,1-1.637,1.874" transform="translate(-368.684 -0.463)" fill="#fff"/>
    <path id="Path_18739" data-name="Path 18739" d="M947.685,644.37a1.675,1.675,0,0,0,1.24-.528,2.1,2.1,0,0,0,.4-.554,1.779,1.779,0,0,0,0-1.348,2.062,2.062,0,0,0-.95-.948,1.949,1.949,0,0,0-1.345,0,2.131,2.131,0,0,0-.555.395,2.186,2.186,0,0,0-.4.554,1.79,1.79,0,0,0,0,1.348,1.89,1.89,0,0,0,1.611,1.083" transform="translate(-557.554 -377.739)" fill="#fff"/>
    <path id="Path_18740" data-name="Path 18740" d="M779.822,272.985a1.745,1.745,0,0,0,0-3.49,115.2,115.2,0,1,1,0-230.4,1.745,1.745,0,0,0,0-3.49,118.692,118.692,0,1,0,0,237.383" transform="translate(-389.68 -20.984)" fill="#fff"/>
    <path id="Path_18741" data-name="Path 18741" d="M540.469,323.922h50.258a1.745,1.745,0,1,0,0-3.49H540.469a1.745,1.745,0,1,0,0,3.49" transform="translate(-317.533 -188.868)" fill="#fff"/>
    <path id="Path_18742" data-name="Path 18742" d="M549.108,318.468l2.381-2.557L538.88,304.193l12.609-11.721-2.381-2.557-15.354,14.278Z" transform="translate(-314.603 -170.88)" fill="#fff"/>
    <path id="Path_18743" data-name="Path 18743" d="M322.178,3.5a1.653,1.653,0,0,0,1.214-.528,1.658,1.658,0,0,0,.528-1.215,1.756,1.756,0,0,0-.5-1.24,1.788,1.788,0,0,0-1.927-.369,1.574,1.574,0,0,0-.555.369,1.76,1.76,0,0,0-.5,1.24,1.634,1.634,0,0,0,.5,1.215,1.713,1.713,0,0,0,1.242.528" transform="translate(-188.87 -0.008)" fill="#fff"/>
    <path id="Path_18744" data-name="Path 18744" d="M123.541,266.722h0a1.745,1.745,0,1,1,.239-3.483,1.743,1.743,0,0,1,1.61,1.874,1.721,1.721,0,0,1-1.848,1.609m-9.212-1h0a.759.759,0,0,1-.238-.025,1.732,1.732,0,0,1,.475-3.431,1.726,1.726,0,0,1,1.5,1.952,1.759,1.759,0,0,1-1.741,1.505m-9.239-1.662h0a1.914,1.914,0,0,1-.37-.054,1.686,1.686,0,1,1,.37.054m-9.08-2.349h0a1.591,1.591,0,0,1-.5-.054,1.745,1.745,0,1,1,.977-3.351,1.736,1.736,0,0,1-.475,3.405m-8.923-2.957h0a1.845,1.845,0,0,1-.607-.132,1.681,1.681,0,1,1,.607.132m-8.632-3.617h0a1.856,1.856,0,0,1-.739-.16,1.769,1.769,0,0,1-.871-2.323,1.754,1.754,0,0,1,3.194,1.451,1.719,1.719,0,0,1-1.584,1.031m-8.394-4.225h0a1.623,1.623,0,0,1-.846-.209,1.77,1.77,0,0,1-.686-2.377,1.749,1.749,0,0,1,3.063,1.688,1.709,1.709,0,0,1-1.531.9m-8.052-4.8h0a1.782,1.782,0,0,1-.95-.265,1.8,1.8,0,0,1-.528-2.429,1.758,1.758,0,1,1,1.479,2.694M54.3,240.747h0a1.918,1.918,0,0,1-1.03-.343,1.763,1.763,0,0,1-.343-2.454,1.735,1.735,0,1,1,2.773,2.086,1.685,1.685,0,0,1-1.4.712m-7.285-5.914h0a1.686,1.686,0,0,1-1.136-.422,1.726,1.726,0,0,1-.184-2.454,1.741,1.741,0,1,1,2.64,2.271,1.778,1.778,0,0,1-1.32.606m-6.864-6.414h0a1.73,1.73,0,0,1-1.241-2.957,1.754,1.754,0,0,1,2.481,0,1.73,1.73,0,0,1-1.24,2.957m-6.388-6.862h0a1.769,1.769,0,0,1-1.32-.608,1.741,1.741,0,0,1,2.64-2.271,1.729,1.729,0,0,1-1.32,2.879m-5.887-7.313h0a1.743,1.743,0,1,1,1.4-2.8,1.739,1.739,0,0,1-1.4,2.8m-5.359-7.708h0a1.762,1.762,0,1,1,.951-.291,1.747,1.747,0,0,1-.951.291m-4.778-8.1h0a1.711,1.711,0,0,1-1.53-.9,1.742,1.742,0,0,1,.686-2.374,1.774,1.774,0,0,1,2.376.712,1.737,1.737,0,0,1-.713,2.348,1.564,1.564,0,0,1-.818.211m-4.223-8.394h0a1.734,1.734,0,0,1-1.584-1,1.754,1.754,0,1,1,3.194-1.451,1.74,1.74,0,0,1-.871,2.3,1.763,1.763,0,0,1-.739.157m-3.564-8.685h0a1.744,1.744,0,0,1-.607-3.38A1.752,1.752,0,0,1,11.589,179a1.773,1.773,0,0,1-1.03,2.243,1.726,1.726,0,0,1-.607.106M7,172.456H7a1.773,1.773,0,0,1-1.69-1.265,1.746,1.746,0,1,1,3.352-.977,1.727,1.727,0,0,1-1.187,2.163,1.459,1.459,0,0,1-.475.08m-2.323-9.107h0a1.72,1.72,0,0,1-1.69-1.372,1.742,1.742,0,1,1,2.059,1.346,1.657,1.657,0,0,1-.37.026m-1.637-9.239h0a1.732,1.732,0,0,1-1.715-1.5,1.766,1.766,0,0,1,1.478-1.98,1.766,1.766,0,0,1,1.98,1.5,1.73,1.73,0,0,1-1.506,1.954.741.741,0,0,1-.237.026m-.977-9.345h0a1.714,1.714,0,0,1-1.741-1.609,1.744,1.744,0,0,1,1.61-1.874A1.765,1.765,0,0,1,3.8,142.918a1.742,1.742,0,0,1-1.637,1.846Zm-.316-9.371h0A1.74,1.74,0,0,1,0,133.651a1.722,1.722,0,0,1,1.743-1.74,1.738,1.738,0,0,1,1.741,1.74,1.757,1.757,0,0,1-1.741,1.743m.343-9.371H1.953a1.744,1.744,0,0,1-1.61-1.874,1.707,1.707,0,0,1,1.848-1.611,1.743,1.743,0,0,1,1.636,1.848,1.773,1.773,0,0,1-1.741,1.637m.977-9.345h0a.75.75,0,0,1-.238-.026,1.734,1.734,0,1,1,.5-3.431A1.726,1.726,0,0,1,4.8,115.173a1.76,1.76,0,0,1-1.742,1.505m1.689-9.239h0a2.033,2.033,0,0,1-.4-.026,1.826,1.826,0,1,1,.4.026m2.323-9.082h0a1.567,1.567,0,0,1-.5-.077,1.717,1.717,0,1,1,.5.077m2.957-8.922h0a1.536,1.536,0,0,1-.607-.106,1.728,1.728,0,0,1-1.03-2.243A1.746,1.746,0,0,1,11.668,88.3a1.727,1.727,0,0,1-1.637,1.134m3.591-8.657h0a1.348,1.348,0,0,1-.713-.16,1.718,1.718,0,0,1-.872-2.3,1.763,1.763,0,0,1,2.323-.871,1.745,1.745,0,0,1-.739,3.328m4.222-8.368h0A1.913,1.913,0,0,1,17,72.2a1.748,1.748,0,0,1-.687-2.377,1.707,1.707,0,0,1,2.35-.686,1.76,1.76,0,0,1,.713,2.374,1.8,1.8,0,0,1-1.531.9m4.778-8.079h0a1.865,1.865,0,0,1-.95-.263,1.77,1.77,0,0,1-.5-2.428,1.746,1.746,0,0,1,2.93,1.9,1.728,1.728,0,0,1-1.478.792m5.359-7.682h0a1.76,1.76,0,0,1-1.03-.368,1.708,1.708,0,0,1-.343-2.429,1.734,1.734,0,1,1,2.771,2.085,1.787,1.787,0,0,1-1.4.712m5.912-7.311h0a1.745,1.745,0,0,1-1.161-.423,1.781,1.781,0,0,1-.159-2.482v.029a1.74,1.74,0,1,1,2.64,2.268,1.769,1.769,0,0,1-1.32.608m6.388-6.865h0a1.759,1.759,0,0,1-1.24-.526,1.722,1.722,0,0,1,0-2.457,1.754,1.754,0,0,1,2.481,0,1.724,1.724,0,0,1,0,2.457,1.761,1.761,0,0,1-1.241.526m6.891-6.414h0A1.733,1.733,0,0,1,46.01,33a1.725,1.725,0,0,1,2.456.186,1.728,1.728,0,0,1-1.293,2.877m7.285-5.885h0a1.763,1.763,0,0,1-1.4-.688,1.787,1.787,0,0,1,.369-2.454,1.733,1.733,0,0,1,2.43.343,1.759,1.759,0,0,1-.344,2.454,1.726,1.726,0,0,1-1.056.345m7.735-5.359h0a1.8,1.8,0,0,1-1.478-.792,1.752,1.752,0,0,1,.527-2.428,1.739,1.739,0,1,1,1.875,2.928,1.535,1.535,0,0,1-.924.292m8.051-4.805h0a1.737,1.737,0,0,1-.818-3.274,1.708,1.708,0,0,1,2.35.689,1.742,1.742,0,0,1-.687,2.374,1.592,1.592,0,0,1-.844.211m8.4-4.2h0a1.754,1.754,0,1,1,1.61-2.482,1.755,1.755,0,0,1-1.61,2.482M87.323,12.2h0a1.731,1.731,0,0,1-1.637-1.134,1.752,1.752,0,0,1,1.03-2.245,1.774,1.774,0,0,1,2.243,1.031,1.725,1.725,0,0,1-1.029,2.243,1.536,1.536,0,0,1-.607.106m8.922-2.957h0a1.718,1.718,0,0,1-1.663-1.265,1.688,1.688,0,0,1,1.162-2.14A1.715,1.715,0,0,1,97.908,7a1.732,1.732,0,0,1-1.187,2.165,1.536,1.536,0,0,1-.475.077m9.108-2.323h0a1.751,1.751,0,0,1-1.717-1.371,1.725,1.725,0,0,1,1.347-2.06h-.027a1.745,1.745,0,1,1,.766,3.405,1.9,1.9,0,0,1-.369.026m9.212-1.637h0a1.8,1.8,0,1,1,.264-.026.836.836,0,0,1-.264.026m9.476-1h0a1.765,1.765,0,0,1-1.874-1.611A1.767,1.767,0,0,1,123.779.791,1.733,1.733,0,0,1,125.653,2.4a1.73,1.73,0,0,1-1.611,1.874" transform="translate(0 -0.463)" fill="#fff"/>
    <path id="Path_18745" data-name="Path 18745" d="M322.178,644.359a1.764,1.764,0,0,0,1.24-.528,1.577,1.577,0,0,0,.37-.554,1.779,1.779,0,0,0,0-1.348,2.1,2.1,0,0,0-.37-.554,2.823,2.823,0,0,0-.58-.395,1.753,1.753,0,0,0-1.9.395,1.6,1.6,0,0,0-.368.554,1.487,1.487,0,0,0-.133.66,1.523,1.523,0,0,0,.133.688,1.572,1.572,0,0,0,.368.554,2.17,2.17,0,0,0,.555.395,1.977,1.977,0,0,0,.687.134" transform="translate(-188.87 -377.729)" fill="#fff"/>
    <path id="Path_18746" data-name="Path 18746" d="M154.271,272.985a1.745,1.745,0,1,0,0-3.49,115.2,115.2,0,1,1,0-230.4,1.745,1.745,0,1,0,0-3.49,118.692,118.692,0,1,0,0,237.383" transform="translate(-20.97 -20.984)" fill="#fff"/>
  </g>
</svg>
