<svg xmlns="http://www.w3.org/2000/svg" width="86" height="86" viewBox="0 0 86 86">
  <g id="Group_7063" data-name="Group 7063" transform="translate(-799 -3636)">
    <circle id="Ellipse_150" data-name="Ellipse 150" cx="43" cy="43" r="43" transform="translate(799 3636)" fill="#fff"/>
    <g id="Prototype" transform="translate(813 3655)">
      <path id="Path_10219" data-name="Path 10219" d="M60.173,15.277H38.21a2.868,2.868,0,0,0-2.864,2.864V49.747h-3.1V18.141a2.868,2.868,0,0,0-2.864-2.865H7.421a2.868,2.868,0,0,0-2.864,2.865v42.2a2.868,2.868,0,0,0,2.864,2.865H29.384a2.868,2.868,0,0,0,2.864-2.865V51.468h3.1v8.877a2.868,2.868,0,0,0,2.864,2.865H60.173a2.868,2.868,0,0,0,2.864-2.865v-42.2a2.868,2.868,0,0,0-2.864-2.864ZM23.221,17l-.63,2.192a.745.745,0,0,1-.713.536H14.925a.745.745,0,0,1-.713-.536L13.582,17Zm6.161,44.489H7.421a1.144,1.144,0,0,1-1.143-1.142V58.76H30.526v1.585a1.144,1.144,0,0,1-1.143,1.142Zm1.143-4.45H6.279v-38.9A1.144,1.144,0,0,1,7.421,17h4.37l.767,2.668a2.473,2.473,0,0,0,2.367,1.782H21.88a2.473,2.473,0,0,0,2.367-1.782L25.014,17h4.37a1.144,1.144,0,0,1,1.143,1.143V49.747h-8.6a3.635,3.635,0,1,0,0,1.722h8.6ZM20.319,50.606A1.914,1.914,0,1,1,18.4,48.694a1.914,1.914,0,0,1,1.918,1.913ZM54.014,17l-.631,2.192a.744.744,0,0,1-.712.536H45.714A.745.745,0,0,1,45,19.19L44.373,17ZM47.2,53.99a.86.86,0,0,0,1.217,0l2.774-2.774a.86.86,0,0,0,0-1.217l-2.774-2.774A.861.861,0,0,0,47.2,48.442L48.5,49.747H37.068V18.141A1.144,1.144,0,0,1,38.21,17h4.37l.767,2.668a2.473,2.473,0,0,0,2.367,1.782h6.954a2.474,2.474,0,0,0,2.367-1.782L55.8,17h4.37a1.144,1.144,0,0,1,1.143,1.143v38.9H37.068V51.468H48.5L47.2,52.773A.861.861,0,0,0,47.2,53.99Zm12.977,7.5H38.21a1.144,1.144,0,0,1-1.143-1.143V58.759H61.315v1.586a1.144,1.144,0,0,1-1.143,1.142Z" transform="translate(-4.557 -15.276)" fill="#29abe2"/>
      <path id="Path_10220" data-name="Path 10220" d="M14.6,41.5H31.535a.86.86,0,0,0,.861-.86V34.368a.86.86,0,0,0-.861-.861H14.6a.86.86,0,0,0-.861.861v6.268A.86.86,0,0,0,14.6,41.5Zm.861-6.268H30.675v4.546H15.46ZM63.186,51.64V34.368a.861.861,0,0,0-.861-.861H45.388a.86.86,0,0,0-.861.861V51.64a.86.86,0,0,0,.861.861H62.325A.861.861,0,0,0,63.186,51.64Zm-1.722-.861H46.249V35.229H61.464ZM32.4,51.64a.86.86,0,0,0-.861-.861H14.6a.861.861,0,0,0,0,1.722H31.535a.86.86,0,0,0,.861-.861ZM14.6,47H31.535a.861.861,0,1,0,0-1.722H14.6A.861.861,0,0,0,14.6,47Z" transform="translate(-9.222 -24.539)" fill="#29abe2"/>
    </g>
  </g>
</svg>
