<svg xmlns="http://www.w3.org/2000/svg" width="86" height="86" viewBox="0 0 86 86">
  <g id="Group_7069" data-name="Group 7069" transform="translate(-640 -4079)">
    <circle id="Ellipse_154" data-name="Ellipse 154" cx="43" cy="43" r="43" transform="translate(640 4079)" fill="#fff"/>
    <g id="animation" transform="translate(656 4095)">
      <path id="Path_10256" data-name="Path 10256" d="M14.539,84.671H26.391V83.09H19.069l2.463-5.584h8.345v-1.58H3.951a2.373,2.373,0,0,1-2.37-2.37V41.951a2.373,2.373,0,0,1,2.37-2.37H17.606V38H3.951A3.955,3.955,0,0,0,0,41.951V73.556a3.955,3.955,0,0,0,3.951,3.951H19.805L17.342,83.09H12.958v4.741h7.988v-1.58H14.539Z" transform="translate(0 -33.997)" fill="#29abe2"/>
      <path id="Path_10257" data-name="Path 10257" d="M59.258,103.183a2.37,2.37,0,1,0-2.37,2.37A2.373,2.373,0,0,0,59.258,103.183Zm-3.161,0a.79.79,0,1,1,.79.79A.791.791,0,0,1,56.1,103.183ZM33.5,97.547h1.58v1.58H33.5ZM75.009,83.008a5,5,0,1,0-5-5A5.01,5.01,0,0,0,75.009,83.008Zm0-8.428A3.424,3.424,0,1,1,71.585,78,3.428,3.428,0,0,1,75.009,74.58Z" transform="translate(-29.971 -65.309)" fill="#29abe2"/>
      <path id="Path_10258" data-name="Path 10258" d="M106.694,38H93.039v1.58h13.655a2.373,2.373,0,0,1,2.37,2.37V66.234H63.5v1.58h45.565v5.742a2.373,2.373,0,0,1-2.37,2.37H88.268v1.58h.844l3.161,7.164h3.834v1.58H79.337v1.58h18.35V83.09H93.3l-2.463-5.584h15.855a3.955,3.955,0,0,0,3.951-3.951V41.951A3.955,3.955,0,0,0,106.694,38Z" transform="translate(-56.81 -33.997)" fill="#29abe2"/>
      <path id="Path_10259" data-name="Path 10259" d="M186.165,16.329A8.165,8.165,0,1,0,178,8.165,8.174,8.174,0,0,0,186.165,16.329Zm0-14.749a6.584,6.584,0,1,1-6.584,6.584A6.592,6.592,0,0,1,186.165,1.58Z" transform="translate(-159.247)" fill="#29abe2"/>
      <path id="Path_10260" data-name="Path 10260" d="M67.951,30.564v9.89l7.492-4.945Zm1.58,2.936,3.043,2.008-3.043,2.008ZM88.548,62.742h5.268v1.58H88.548Zm-3.161,0h1.58v1.58h-1.58Zm-14.222,13.7h1.58v1.58h-1.58ZM52.605,51.588l-1.08-1.154q-.6.559-1.156,1.155l1.152,1.081Q52.046,52.111,52.605,51.588Zm1.15-1a12.3,12.3,0,0,1,7.516-3.12H61.4c3.464,0,6.629,1.667,9.408,4.954a22.17,22.17,0,0,1,3.214,5.095l.2.487h1.243l.154-.59c.021-.079,2.121-7.911,8.037-12.424L82.7,43.73c-4.641,3.54-7.046,8.8-8.041,11.525a24.174,24.174,0,0,0-2.616-3.82C68.984,47.8,65.3,45.885,61.4,45.885h-.143a13.823,13.823,0,0,0-8.491,3.471ZM50.509,53.82,49.29,52.814c-.641.776-1,1.3-1.01,1.322l1.31.883S49.921,54.531,50.509,53.82Z" transform="translate(-43.194 -27.344)" fill="#29abe2"/>
    </g>
  </g>
</svg>
