<svg xmlns="http://www.w3.org/2000/svg" width="86" height="86" viewBox="0 0 86 86">
  <g id="Group_7071" data-name="Group 7071" transform="translate(-380 -3780)">
    <circle id="Ellipse_157" data-name="Ellipse 157" cx="43" cy="43" r="43" transform="translate(380 3780)" fill="#fff"/>
    <g id="analyses" transform="translate(398 3793)">
      <path id="Path_10285" data-name="Path 10285" d="M100.729,11.133v52.92H96.188m-1.816,0H55.316V17.491m0-1.816V11.133M53.5,7.5h49.045v3.633H53.5ZM79.839,64.053V65.87a1.816,1.816,0,0,1-3.633,0V64.053M61.22,18.4H94.825V22.94H61.22Zm34.968-3.633H98m-5.449,0h1.816" transform="translate(-53.5 -7.5)" fill="none" stroke="#29abe2" stroke-miterlimit="22.926" stroke-width="2.5" fill-rule="evenodd"/>
      <ellipse id="Ellipse_149" data-name="Ellipse 149" cx="8.174" cy="8.174" rx="8.174" ry="8.174" transform="translate(24.977 19.981)" fill="none" stroke="#29abe2" stroke-miterlimit="22.926" stroke-width="2.5"/>
      <path id="Path_10286" data-name="Path 10286" d="M130.308,192.268l5.78,5.78h8.174m-8.174,8.174v-8.174M133.363,221.9H109.749m2.725,0v-6.358h3.633V221.9m10.9,0V210.1h3.633V221.9m-10.9,0v-9.082h3.633V221.9m-9.991-27.49h10.9m-14.532,7.266h1.816m-1.816-3.633h1.816m-1.816-3.633h1.816m1.816,7.266h10.9m-10.9-3.633h10.9m16.349,14.32h4.541M137,219.634h1.816M137,216h1.816M137,212.368h1.816m1.816,7.266h4.541M140.629,216h4.541" transform="translate(-102.937 -169.893)" fill="none" stroke="#29abe2" stroke-miterlimit="22.926" stroke-width="2.5" fill-rule="evenodd"/>
    </g>
  </g>
</svg>
