<svg id="Group_7119" data-name="Group 7119" xmlns="http://www.w3.org/2000/svg" width="100" height="50.522" viewBox="0 0 100 50.522">
  <g id="Group_6118" data-name="Group 6118" transform="translate(67.425 0)">
    <path id="Path_14028" data-name="Path 14028" d="M4501.552,304.669h-2.961v-7.561h-5.923v7.561h-2.961v-7.561h-5.923v7.561H4474.9v10.082a2.767,2.767,0,0,0,2.96,2.521h26.652a2.769,2.769,0,0,0,2.962-2.521v-2.52h-26.652V309.71h26.652v-12.6h-5.923Z" transform="translate(-4474.9 -266.863)" fill="#707070"/>
    <path id="Path_14029" data-name="Path 14029" d="M4480.823,265.473h-2.962a2.767,2.767,0,0,0-2.96,2.52v17.643h5.923Z" transform="translate(-4474.9 -250.35)" fill="#707070"/>
    <path id="Path_14030" data-name="Path 14030" d="M4517.175,270.514v-2.521a2.768,2.768,0,0,0-2.961-2.52h-11.846v7.561h-8.883v5.041h23.69v-5.041h-8.884v-2.52Z" transform="translate(-4484.6 -250.35)" fill="#707070"/>
    <path id="Path_14031" data-name="Path 14031" d="M4499.407,238.879h2.96v7.561h5.923V236.358a2.768,2.768,0,0,0-2.961-2.52h-8.884a2.767,2.767,0,0,0-2.96,2.52V254h5.923Z" transform="translate(-4484.6 -233.838)" fill="#707070"/>
  </g>
  <g id="Group_6119" data-name="Group 6119" transform="translate(0 15.081)">
    <path id="Path_14032" data-name="Path 14032" d="M4337.894,322.9a2.456,2.456,0,0,1-.495,1.6,1.669,1.669,0,0,1-1.368.607,3.921,3.921,0,0,1-.665-.053,4.548,4.548,0,0,1-.78-.231l-.5,1.109a4.909,4.909,0,0,0,1.987.469,3.359,3.359,0,0,0,2.576-.955,3.7,3.7,0,0,0,.895-2.63v-8.43h-1.646Z" transform="translate(-4333.973 -290.965)" fill="#707070"/>
    <path id="Path_14033" data-name="Path 14033" d="M4398.037,316.157h-4.9V304.862h-1.73v11.295h-4.733a7.033,7.033,0,0,1-2.159-.348,7.206,7.206,0,0,0,2.567-2.476,6.1,6.1,0,0,0,.931-3.236,8.606,8.606,0,0,0-2.176-.882,9.55,9.55,0,0,0-2.472-.332,7.926,7.926,0,0,0-2.723.485,8.456,8.456,0,0,0-2.4,1.335,6.608,6.608,0,0,0,.718,1.914,9.646,9.646,0,0,0,1.331,1.877,7.224,7.224,0,0,0,1.535,1.331,6.92,6.92,0,0,1-2.318.332h-4.611v-2.7a4.1,4.1,0,0,0-1.126-3.187,4.814,4.814,0,0,0-3.332-1.02,5.381,5.381,0,0,0-3.1.938,7.031,7.031,0,0,0-2.292,2.791v-8.115h-1.654v11.295h-3.783v-6.739h-2.547a6.085,6.085,0,0,0-3.888,1.153,3.754,3.754,0,0,0-1.455,3.1,3.489,3.489,0,0,0,1.136,2.808,4.792,4.792,0,0,0,3.208.971h1.911v.477a1.954,1.954,0,0,1-.752,1.606,3.218,3.218,0,0,1-2.071.6,5.36,5.36,0,0,1-1.474-.19,9.413,9.413,0,0,1-1.292-.473l-.78,1.109a7.077,7.077,0,0,0,3.507.849,5.171,5.171,0,0,0,3.322-.946,3.2,3.2,0,0,0,1.174-2.638v-.4h19.915a8.228,8.228,0,0,0,3.621-.826,9.148,9.148,0,0,0,1.845.619,8.228,8.228,0,0,0,1.758.206h13.022V304.862h-1.73Zm-40.085,0h-1.835a2.889,2.889,0,0,1-2-.6,2.451,2.451,0,0,1-.66-1.9,2.634,2.634,0,0,1,.965-2.176,4.186,4.186,0,0,1,2.695-.777h.836Zm15.286,0h-8.195V314.8q2.044-4.239,5.039-4.24a3.4,3.4,0,0,1,2.371.72,2.912,2.912,0,0,1,.785,2.249Zm9.923-1.076a7.867,7.867,0,0,1-1.949-1.772,5.964,5.964,0,0,1-1.1-2.168,6.529,6.529,0,0,1,3.308-.963,6.74,6.74,0,0,1,2.805.614,4.616,4.616,0,0,1-.828,2.387A6.886,6.886,0,0,1,4383.161,315.081Z" transform="translate(-4343.118 -285.991)" fill="#707070"/>
    <path id="Path_14034" data-name="Path 14034" d="M4337.324,282.691a1.93,1.93,0,0,1-.889-.736,2.013,2.013,0,0,1-.338-1.133,1.854,1.854,0,0,1,.589-1.481,2.564,2.564,0,0,1,1.721-.509,4.617,4.617,0,0,1,1.891.428l.428-1.238a5.184,5.184,0,0,0-2.357-.486,5.482,5.482,0,0,0-2.115.381,3.143,3.143,0,0,0-1.416,1.092,2.906,2.906,0,0,0-.5,1.715,2.661,2.661,0,0,0,.352,1.343,2.409,2.409,0,0,0,.894.922l-1.1.17a4.757,4.757,0,0,1-.628.1v1.206q.962-.178,3.756-.485t3.745-.308v-1.343q-.656,0-3.6.324Z" transform="translate(-4333.854 -271.728)" fill="#707070"/>
    <rect id="Rectangle_4017" data-name="Rectangle 4017" width="1.73" height="12.589" transform="translate(10.229)" fill="#707070"/>
    <path id="Path_14035" data-name="Path 14035" d="M4402.829,274.914v6.74h-1.189a3.285,3.285,0,0,1-1.468-.287,2.885,2.885,0,0,1-1.06-1l.019-.186V276.2h-1.654v3.536a1.89,1.89,0,0,1-.523,1.387,1.963,1.963,0,0,1-1.464.53h-2.1V276.2h-1.654v5.453h-24.962v-6.74h-1.645v8.511a2.463,2.463,0,0,1-.494,1.6,1.67,1.67,0,0,1-1.37.607,4,4,0,0,1-.665-.053,4.592,4.592,0,0,1-.779-.231l-.5,1.109a4.907,4.907,0,0,0,1.987.469,3.361,3.361,0,0,0,2.577-.955,3.7,3.7,0,0,0,.893-2.629v-.4h28.888a4.091,4.091,0,0,0,1.7-.323,3.177,3.177,0,0,0,1.141-.833,4.79,4.79,0,0,0,1.526.91,5.057,5.057,0,0,0,1.61.246h2.843v-8.034Z" transform="translate(-4348.189 -270.359)" fill="#707070"/>
  </g>
</svg>
