<svg xmlns="http://www.w3.org/2000/svg" xmlns:xlink="http://www.w3.org/1999/xlink" width="90" height="90" viewBox="0 0 90 90">
  <defs>
    <clipPath id="clip-path">
      <rect id="Rectangle_3709" data-name="Rectangle 3709" width="63.38" height="50.123" fill="#6e9dfe"/>
    </clipPath>
  </defs>
  <g id="Group_7056" data-name="Group 7056" transform="translate(-1021 -2374)">
    <g id="Ellipse_188" data-name="Ellipse 188" transform="translate(1021 2374)" fill="#fff" stroke="#29abe2" stroke-width="1" stroke-dasharray="3">
      <circle cx="45" cy="45" r="45" stroke="none"/>
      <circle cx="45" cy="45" r="44.5" fill="none"/>
    </g>
    <g id="Group_5626" data-name="Group 5626" transform="translate(1033.298 2393.938)">
      <g id="Group_5625" data-name="Group 5625" transform="translate(0 0)" clip-path="url(#clip-path)">
        <path id="Path_11007" data-name="Path 11007" d="M41.533,10.216c-.022-.033-.044-.055-.066-.087A9.2,9.2,0,0,0,33.913,6.27a10.259,10.259,0,0,0-7.937,3.859.29.29,0,0,1-.055.066c0,.011,0,.011-.011.022a10.106,10.106,0,0,0-2.175,5.75,9.32,9.32,0,0,0,1.618,5.761v.022l.022.022a9.166,9.166,0,0,0,7.576,3.9,10.244,10.244,0,0,0,7.926-3.848c.022-.022.044-.055.066-.077l.022-.022a10.118,10.118,0,0,0,2.186-5.75,9.4,9.4,0,0,0-1.618-5.739Zm-1.367.153a10.281,10.281,0,0,1-2.011.8,9.017,9.017,0,0,0-1.41-3.236,8.027,8.027,0,0,1,3.422,2.438M29.507,15.4a16.638,16.638,0,0,1,.47-2.831,16.794,16.794,0,0,0,3.619.361,17.828,17.828,0,0,0,3.651-.361,17.616,17.616,0,0,1,.2,2.831Zm7.871,1.159a17.8,17.8,0,0,1-.47,2.831,16.794,16.794,0,0,0-3.619-.361,17.828,17.828,0,0,0-3.651.361,15.354,15.354,0,0,1-.2-2.831Zm-3.52-9.128h.011c1.388,0,2.547,1.618,3.148,4.012a16.586,16.586,0,0,1-3.367.328,15.471,15.471,0,0,1-3.334-.328c.831-2.394,2.165-4.012,3.542-4.012m-2.93.514A10.329,10.329,0,0,0,29.2,11.168a10.163,10.163,0,0,1-1.924-.787,9,9,0,0,1,3.651-2.438M26.523,11.3a10.534,10.534,0,0,0,2.339.995,17.528,17.528,0,0,0-.514,3.1H24.938a8.876,8.876,0,0,1,1.585-4.1m-.47,9.358a8.209,8.209,0,0,1-1.17-4.1h3.4a17.372,17.372,0,0,0,.208,3.1,12.41,12.41,0,0,0-2.438.995m.667.929a11.012,11.012,0,0,1,2.011-.8,9.19,9.19,0,0,0,1.4,3.236,7.929,7.929,0,0,1-3.411-2.438m6.3,2.941c-1.388,0-2.558-1.618-3.148-4.012a17.32,17.32,0,0,1,3.367-.328,16.344,16.344,0,0,1,3.334.328c-.831,2.405-2.165,4.012-3.553,4.012m2.952-.514a10.3,10.3,0,0,0,1.716-3.225,9.367,9.367,0,0,1,1.935.8,9.24,9.24,0,0,1-3.651,2.427m4.395-3.356a10.757,10.757,0,0,0-2.339-.995,17.529,17.529,0,0,0,.514-3.1h3.411a9,9,0,0,1-1.585,4.1M42,15.4H38.592a17.372,17.372,0,0,0-.208-3.1,11.888,11.888,0,0,0,2.438-.995A8.111,8.111,0,0,1,42,15.4" transform="translate(2.211 0.584)" fill="#6e9dfe"/>
        <path id="Path_11008" data-name="Path 11008" d="M12.334,22.735a8.07,8.07,0,0,0-4.908,4.9.185.185,0,0,1-.022.055v.022a7.932,7.932,0,0,0-.164,4.832A7.309,7.309,0,0,0,9.907,36.4v.022l.033.011a7.19,7.19,0,0,0,6.636.951,8.063,8.063,0,0,0,4.9-4.887.155.155,0,0,0,.022-.066l.011-.022a7.932,7.932,0,0,0,.142-4.832,7.282,7.282,0,0,0-2.656-3.848l-.011-.022a.229.229,0,0,0-.066-.044,7.182,7.182,0,0,0-6.581-.929M11.6,24.517v-.011a1.826,1.826,0,0,1,.973-.9c1.039-.361,2.318.547,3.367,2.175a13.032,13.032,0,0,1-2.416,1.1,12.8,12.8,0,0,1-2.558.6,6.19,6.19,0,0,1,.634-2.974m-.23,6.122A13.965,13.965,0,0,1,11,28.409a14.33,14.33,0,0,0,2.788-.645A14.188,14.188,0,0,0,16.4,26.551a12.986,12.986,0,0,1,.864,2.055Zm6.144-1.159a13.965,13.965,0,0,1,.372,2.23,13.335,13.335,0,0,0-2.777.656,13.863,13.863,0,0,0-2.624,1.2,14.094,14.094,0,0,1-.864-2.055ZM10.53,24.736a8.114,8.114,0,0,0-.459,2.842,7.526,7.526,0,0,1-1.64-.109,7.345,7.345,0,0,1,2.1-2.733M8.114,28.354a8.1,8.1,0,0,0,1.99.142,14.206,14.206,0,0,0,.415,2.438l-2.525.875a6.978,6.978,0,0,1,.12-3.455m.131,4.318,2.525-.864a13.071,13.071,0,0,0,.94,2.252,9.655,9.655,0,0,0-1.552,1.356,6.292,6.292,0,0,1-1.913-2.744m2.646,3.269a8.927,8.927,0,0,1,1.29-1.1A7.2,7.2,0,0,0,14.05,36.87a6.329,6.329,0,0,1-3.159-.929m5.422.568c-1.028.361-2.307-.547-3.356-2.165a14.106,14.106,0,0,1,2.405-1.115,12.906,12.906,0,0,1,2.569-.6c-.011,1.99-.579,3.531-1.618,3.881m2.055-1.126a8.044,8.044,0,0,0,.448-2.831,7.436,7.436,0,0,1,1.64.1,7.205,7.205,0,0,1-2.088,2.733m2.405-3.619a8.1,8.1,0,0,0-1.99-.142,15.331,15.331,0,0,0-.4-2.438l2.514-.864a6.939,6.939,0,0,1-.12,3.444m-.12-4.318-2.525.875a13.751,13.751,0,0,0-.951-2.263A9.146,9.146,0,0,0,18.729,24.7a6.379,6.379,0,0,1,1.924,2.744m-3.936-2.154a6.917,6.917,0,0,0-1.869-2.033,6.318,6.318,0,0,1,3.159.918,8.362,8.362,0,0,1-1.29,1.115" transform="translate(0.647 2.08)" fill="#6e9dfe"/>
        <path id="Path_11009" data-name="Path 11009" d="M61.913,15.873h-.448l-3.039-.044L58.9,2.558A2.465,2.465,0,0,0,56.534,0H15.156a2.638,2.638,0,0,0-2.613,2.514l-.481,13.807L1.305,19.929A1.922,1.922,0,0,0,.081,22.3l8.013,26.51A1.842,1.842,0,0,0,8.98,49.9a1.665,1.665,0,0,0,.864.219,2,2,0,0,0,.6-.087l16.737-5.608a1.932,1.932,0,0,0,1.224-2.372L25.181,31.4h22.29L46.9,42.963a1.538,1.538,0,0,0,1.476,1.6h.044l11.686.164.383.011a1.647,1.647,0,0,0,1.651-1.563l1.235-25.7a1.523,1.523,0,0,0-1.465-1.6M10.2,18.108l.014,0,8.2-2.755a.7.7,0,0,1,.219-.033.678.678,0,0,1,.35.1.725.725,0,0,1,.361.437l8.013,26.51a.848.848,0,0,1-.525,1.039L10.073,49.008a.784.784,0,0,1-.568-.055.739.739,0,0,1-.361-.448L1.13,22a.822.822,0,0,1,.525-1.028l8.188-2.744.01,0ZM24.853,30.3,20.382,15.534a1.748,1.748,0,0,0-.885-1.082,1.8,1.8,0,0,0-1.454-.131L13.177,15.95l.459-13.392a1.55,1.55,0,0,1,1.52-1.465H56.49A1.368,1.368,0,0,1,57.8,2.514l-.47,13.293L49.8,15.7a.1.1,0,0,0-.055.011,1.632,1.632,0,0,0-1.585,1.552L47.515,30.3ZM48.838,43.247h-.022a.6.6,0,0,1-.568-.634L48.794,31.4l.044-1.093.623-12.67a.657.657,0,0,1,.656-.612l7.718.109,3.629.055h.022a.61.61,0,0,1,.579.634L60.841,42.8a.655.655,0,0,1-.645.612Z" transform="translate(0 0)" fill="#6e9dfe"/>
        <path id="Path_11010" data-name="Path 11010" d="M55.539,24.992V24.97c-.011-.011-.022-.033-.033-.044a4.84,4.84,0,0,0-1.651-1.476,3.533,3.533,0,0,0-.536-.273,5.139,5.139,0,0,0-2.11-.437,5.817,5.817,0,0,0-4.526,2.2l-.033.044v.011a5.8,5.8,0,0,0-1.235,3.192.241.241,0,0,0-.011.087c-.011.153-.011.306-.011.459.011.186.022.372.044.547a5.59,5.59,0,0,0,.885,2.274v.011l.011.022a5.247,5.247,0,0,0,4.318,2.208,5.863,5.863,0,0,0,4.515-2.2c.011-.011.022-.033.033-.044h.011a5.811,5.811,0,0,0,1.246-3.28,5.29,5.29,0,0,0-.918-3.28m-.4.59a4.642,4.642,0,0,1,.667,2.339H53.855a9.8,9.8,0,0,0-.1-1.694v-.077a6.539,6.539,0,0,0,1.377-.568M53.178,28.6a9.1,9.1,0,0,1-.273,1.618A9.837,9.837,0,0,0,50.86,30l-.022.011a10.22,10.22,0,0,0-2.077.208c-.044-.306-.077-.623-.1-.94-.011-.175-.011-.361-.011-.547V28.6h4.526Zm-4.493-.678a10.184,10.184,0,0,1,.262-1.618,10.045,10.045,0,0,0,2.066.219v-.011a10.364,10.364,0,0,0,1.64-.131c.142-.022.3-.044.437-.077.033.208.055.4.077.612a7.8,7.8,0,0,1,.033,1.006H48.685Zm5.149-3.706a5.154,5.154,0,0,1,.918.842,4.461,4.461,0,0,1-.973.4.962.962,0,0,1-.164.055,4.839,4.839,0,0,0-.35-1.039v-.011a4.7,4.7,0,0,0-.448-.787,3.671,3.671,0,0,1,.47.219,3.937,3.937,0,0,1,.547.317m-2.667-.831v-.011c.634,0,1.181.59,1.541,1.53a4.831,4.831,0,0,1,.251.765,2.553,2.553,0,0,1-.284.044,9.023,9.023,0,0,1-1.629.142,10.019,10.019,0,0,1-1.9-.186c.459-1.356,1.224-2.285,2.022-2.285m-1.673.3H49.5a5.66,5.66,0,0,0-.995,1.837,5.7,5.7,0,0,1-1.1-.448,5.2,5.2,0,0,1,2.088-1.388m-2.514,1.9a5.766,5.766,0,0,0,1.334.568,9.664,9.664,0,0,0-.3,1.771H46.083a5.08,5.08,0,0,1,.9-2.339m-.262,5.357a4.537,4.537,0,0,1-.6-1.662,3.088,3.088,0,0,1-.055-.547.532.532,0,0,1-.011-.131h1.935v.131a4.57,4.57,0,0,0,.022.547,9.027,9.027,0,0,0,.1,1.093,6.992,6.992,0,0,0-1.388.568m.383.514A5.822,5.822,0,0,1,48.247,31a5.194,5.194,0,0,0,.8,1.837A4.5,4.5,0,0,1,47.1,31.453m3.586,1.684v.011c-.8,0-1.454-.929-1.793-2.3a10.133,10.133,0,0,1,1.913-.186,10.019,10.019,0,0,1,1.9.186c-.47,1.356-1.235,2.285-2.022,2.285m1.673-.3A5.875,5.875,0,0,0,53.353,31a5.7,5.7,0,0,1,1.1.448,5.31,5.31,0,0,1-2.1,1.388m2.514-1.913a5.766,5.766,0,0,0-1.334-.568,9.664,9.664,0,0,0,.3-1.771h1.946a5.049,5.049,0,0,1-.907,2.339" transform="translate(4.231 2.119)" fill="#6e9dfe"/>
      </g>
    </g>
  </g>
</svg>
