<svg xmlns="http://www.w3.org/2000/svg" width="86" height="86" viewBox="0 0 86 86">
  <g id="Group_7067" data-name="Group 7067" transform="translate(-780 -4056)">
    <circle id="Ellipse_153" data-name="Ellipse 153" cx="43" cy="43" r="43" transform="translate(780 4056)" fill="#fff"/>
    <g id="UI" transform="translate(794 4068)">
      <circle id="Ellipse_147" data-name="Ellipse 147" cx="0.912" cy="0.912" r="0.912" transform="translate(13.888 19.217)" fill="#29abe2"/>
      <path id="Path_10249" data-name="Path 10249" d="M145.25,160.171h-4.909a.91.91,0,1,1,0-1.821h4.909a.91.91,0,0,1,0,1.821Zm0,3.428h-9.168a.91.91,0,1,1,0-1.821h9.168a.91.91,0,0,1,0,1.821Z" transform="translate(-121.292 -139.132)" fill="#29abe2"/>
      <path id="Path_10250" data-name="Path 10250" d="M110.317,53.991H95.808a3.18,3.18,0,0,1-3.177-3.177V36.305a3.18,3.18,0,0,1,3.177-3.177.91.91,0,0,1,0,1.821,1.358,1.358,0,0,0-1.356,1.356V50.814a1.358,1.358,0,0,0,1.356,1.356h14.509a1.358,1.358,0,0,0,1.356-1.356V36.305a1.358,1.358,0,0,0-1.356-1.356H100.294a.91.91,0,1,1,0-1.821h10.023a3.18,3.18,0,0,1,3.177,3.177V50.814A3.181,3.181,0,0,1,110.317,53.991Zm-5.44-27.871h-3.629a.91.91,0,1,1,0-1.821h3.629a.91.91,0,0,1,0,1.821Z" transform="translate(-83.914 -21.351)" fill="#29abe2"/>
      <ellipse id="Ellipse_148" data-name="Ellipse 148" cx="0.896" cy="0.896" rx="0.896" ry="0.896" transform="translate(31.652 3.859)" fill="#29abe2"/>
      <path id="Path_10251" data-name="Path 10251" d="M290.037,309.179a.91.91,0,0,1-.788-.453,4.37,4.37,0,0,1-.591-2.2v-.12a.91.91,0,0,1,1.821,0v.12a2.546,2.546,0,0,0,.344,1.281.91.91,0,0,1-.786,1.368Z" transform="translate(-256.15 -268.422)" fill="#29abe2"/>
      <path id="Path_10252" data-name="Path 10252" d="M77.064,48.99l-6.5-6.5h1.156a2.852,2.852,0,1,0,0-5.7h-.892V36.26a.91.91,0,1,0-1.821,0v.522H63.678a2.88,2.88,0,0,0-2.055.877,2.745,2.745,0,0,0-.8,1.983v1.017H58.2a.91.91,0,0,0-.905,1,.932.932,0,0,0,0,.095V57.18a3.143,3.143,0,0,1-3.14,3.14H25.77a3.143,3.143,0,0,1-3.14-3.14V4.96a3.143,3.143,0,0,1,3.14-3.14h3.544l.411,2.145a4.276,4.276,0,0,0,4.194,3.467H46a4.276,4.276,0,0,0,4.194-3.467l.41-2.145h3.544a3.143,3.143,0,0,1,3.14,3.14V23.571a.91.91,0,0,0,1.821,0V4.96A4.966,4.966,0,0,0,54.146,0H25.77a4.966,4.966,0,0,0-4.96,4.96V57.18a4.966,4.966,0,0,0,4.96,4.96H54.146a4.966,4.966,0,0,0,4.96-4.96V42.48h1.716v5.2a2.852,2.852,0,1,0,5.7,0V46.52l6.5,6.5.01.01a2.954,2.954,0,0,0,2.034.817,2.812,2.812,0,0,0,1.979-.816l.011-.011a2.852,2.852,0,0,0,0-4.033ZM48.749,1.821l-.345,1.8A2.453,2.453,0,0,1,46,5.612H33.919a2.453,2.453,0,0,1-2.406-1.989l-.345-1.8ZM75.782,51.73a1.077,1.077,0,0,1-1.47,0L66.26,43.678a.91.91,0,0,0-1.554.644v3.353a1.032,1.032,0,1,1-2.063,0v-8.06a.93.93,0,0,1,.278-.68,1.1,1.1,0,0,1,.751-.334h8.044a1.032,1.032,0,1,1,0,2.063H68.362a.91.91,0,0,0-.644,1.554l8.057,8.057a1.031,1.031,0,0,1,.005,1.453Z" transform="translate(-20.81 0)" fill="#29abe2"/>
      <path id="Path_10253" data-name="Path 10253" d="M126.974,215.45a.91.91,0,0,1-.91-.91V212.6a.91.91,0,1,1,1.821,0v1.942A.91.91,0,0,1,126.974,215.45Zm15.685-1.728a.91.91,0,0,1-.91-.91V210.87a.91.91,0,1,1,1.821,0v1.942A.91.91,0,0,1,142.659,213.722Zm-15.231-4.382a.91.91,0,0,1-.789-1.362,4.378,4.378,0,0,1,1.733-1.687.91.91,0,1,1,.861,1.6,2.56,2.56,0,0,0-1.013.986A.909.909,0,0,1,127.427,209.34Zm13.588-1.23a.9.9,0,0,1-.478-.136,2.545,2.545,0,0,0-1.34-.38h-.026a.91.91,0,0,1,0-1.821h.026a4.363,4.363,0,0,1,2.3.652.91.91,0,0,1-.48,1.684Zm-6.092-.516h-1.942a.91.91,0,0,1,0-1.821h1.942a.91.91,0,1,1,0,1.821Zm-14.03,29.211a.91.91,0,0,1-.91-.91V221.33a.91.91,0,0,1,1.821,0V235.9A.91.91,0,0,1,120.893,236.806Zm-11.4,0h-.01a5.813,5.813,0,0,1-3.173-.911,5.163,5.163,0,0,1-2.705-4.542V221.33a.91.91,0,0,1,1.821,0v10.022a3.351,3.351,0,0,0,1.865,3.008,4.02,4.02,0,0,0,2.2.625,4.434,4.434,0,0,0,2-.453,3.466,3.466,0,0,0,2.244-3.19V221.33a.91.91,0,0,1,1.821,0v10.012a5.261,5.261,0,0,1-3.246,4.816A6.179,6.179,0,0,1,109.492,236.806Z" transform="translate(-93.555 -180.8)" fill="#29abe2"/>
    </g>
  </g>
</svg>
