<svg xmlns="http://www.w3.org/2000/svg" xmlns:xlink="http://www.w3.org/1999/xlink" width="90" height="90" viewBox="0 0 90 90">
  <defs>
    <clipPath id="clip-path">
      <rect id="Rectangle_3727" data-name="Rectangle 3727" width="62.272" height="61.366" fill="#407bff"/>
    </clipPath>
  </defs>
  <g id="Group_7060" data-name="Group 7060" transform="translate(-255 -2374)">
    <g id="Ellipse_186" data-name="Ellipse 186" transform="translate(255 2374)" fill="#fff" stroke="#29abe2" stroke-width="1" stroke-dasharray="3">
      <circle cx="45" cy="45" r="45" stroke="none"/>
      <circle cx="45" cy="45" r="44.5" fill="none"/>
    </g>
    <g id="Group_5651" data-name="Group 5651" transform="translate(269 2388)">
      <g id="Group_5650" data-name="Group 5650" clip-path="url(#clip-path)">
        <path id="Path_11050" data-name="Path 11050" d="M122.337,137V123.061l5.7-3.6.738-.472a1.775,1.775,0,0,0,.767-.934,1.408,1.408,0,0,0-.142-1.222l-.561-.826a1.279,1.279,0,0,0-1.039-.624,2.073,2.073,0,0,0-1.2.266l-4.264,2.743v-1.081a3.675,3.675,0,0,0-3.664-3.664H91.466a3.675,3.675,0,0,0-3.664,3.664V137a3.675,3.675,0,0,0,3.664,3.664H100.9a8.773,8.773,0,0,1-3.572,4.947.87.87,0,0,0-.366,1.008.909.909,0,0,0,.916.641h14.382a1.1,1.1,0,0,0,.916-.641.871.871,0,0,0-.367-1.008,9.583,9.583,0,0,1-3.573-4.947h9.436A3.675,3.675,0,0,0,122.337,137m4.986-20.479a.568.568,0,0,1,.443-.1.332.332,0,0,1,.2.121l.562.825a.427.427,0,0,1,.039.248.639.639,0,0,1-.3.377l-.3.2-.944-1.477Zm-1.211.851.944,1.476-4.719,2.98-1.924,1.214-2.2,1.39-1.782.142.891-1.6,3.093-1.97,1.924-1.226Zm-36.478-.067a1.837,1.837,0,0,1,1.832-1.832h27.115a1.838,1.838,0,0,1,1.832,1.832v2.319l-2.18,1.4-1.179.745-.6.4a.405.405,0,0,0-.205.274c-.017.049-.035.1-.056.147l-1.146,2.707,3.159.252a.379.379,0,0,0,.389-.112l1.037-.672.778-.491V133.7H89.634Zm20.153,28.122H100.26a11.912,11.912,0,0,0,2.565-4.854h4.488a11.5,11.5,0,0,0,2.474,4.854m-18.322-6.687a1.838,1.838,0,0,1-1.832-1.832v-1.466h30.779v1.466a1.707,1.707,0,0,1-1.74,1.832Z" transform="translate(-75.49 -97.708)" fill="#407bff"/>
        <path id="Path_11051" data-name="Path 11051" d="M118.661,188.766h-6.6a.866.866,0,0,0-.916.916v6.6a.918.918,0,0,0,.916.916h6.6a.865.865,0,0,0,.916-.916v-6.6a.866.866,0,0,0-.916-.916m-.916,6.6h-4.763V190.6h4.763Z" transform="translate(-95.563 -162.297)" fill="#407bff"/>
        <path id="Path_11052" data-name="Path 11052" d="M192.583,137.381a.88.88,0,0,0-.824-.55h-6.687a.865.865,0,0,0-.916.916v6.687a.98.98,0,0,0,.55.825.551.551,0,0,0,.366.092.831.831,0,0,0,.641-.275l6.687-6.687a.836.836,0,0,0,.183-1.008m-6.6,4.763v-3.481h3.481Z" transform="translate(-158.332 -117.644)" fill="#407bff"/>
        <path id="Path_11053" data-name="Path 11053" d="M216.505,178.322a4.58,4.58,0,1,0,0,9.16,4.58,4.58,0,1,0,0-9.16m-.092,7.328a2.748,2.748,0,0,1,0-5.5,2.748,2.748,0,0,1,0,5.5" transform="translate(-182.208 -153.317)" fill="#407bff"/>
        <path id="Path_11054" data-name="Path 11054" d="M75.719,228.686l-3.175-3.475-3.475,3.175-.127,2.823,2.345-2.143A26.98,26.98,0,0,1,17.6,225.212a.982.982,0,0,0-1.963,0,28.944,28.944,0,0,0,57.641,3.768l2.31,2.53Z" transform="translate(-13.448 -192.788)" fill="#407bff"/>
        <path id="Path_11055" data-name="Path 11055" d="M6.649,25.768l.127-2.823L4.432,25.088a26.98,26.98,0,0,1,53.683,3.854.982.982,0,0,0,1.963,0A28.944,28.944,0,0,0,2.437,25.175l-2.31-2.53L0,25.468l3.175,3.475Z" fill="#407bff"/>
      </g>
    </g>
  </g>
</svg>
