<svg xmlns="http://www.w3.org/2000/svg" width="59.587" height="49.976" viewBox="0 0 59.587 49.976">
  <g id="Group_7053" data-name="Group 7053" transform="translate(-10.316 -12.406)">
    <g id="project" transform="translate(10.316 12.406)">
      <path id="Path_9387" data-name="Path 9387" d="M5,10H20.377v1.922H5Zm49.976,0H56.9v1.922H54.976Zm-3.844,0h1.922v1.922H51.132Zm-3.844,0h1.922v1.922H47.287Z" transform="translate(-1.156 -6.156)" fill="#29abe2"/>
      <g id="Group_5450" data-name="Group 5450" transform="translate(0 0)">
        <path id="Path_9386" data-name="Path 9386" d="M57.7,6H3.883A2.883,2.883,0,0,0,1,8.883V53.093a2.883,2.883,0,0,0,2.883,2.883H57.7a2.883,2.883,0,0,0,2.883-2.883V8.883A2.883,2.883,0,0,0,57.7,6Zm.961,47.093a.961.961,0,0,1-.961.961H3.883a.961.961,0,0,1-.961-.961V15.611H58.664Zm0-39.4H2.922V8.883a.961.961,0,0,1,.961-.961H57.7a.961.961,0,0,1,.961.961Z" transform="translate(-1 -6)" fill="#29abe2"/>
        <path id="Path_9390" data-name="Path 9390" d="M23.942,67.488a2.352,2.352,0,0,1-1.7,2.257v.314a.647.647,0,0,1-1.295,0v-.314a2.344,2.344,0,0,1-1.318-.972.647.647,0,1,1,1.083-.71,1.054,1.054,0,1,0,.882-1.63,2.348,2.348,0,0,1-.647-4.605v-.314a.647.647,0,0,1,1.295,0v.314a2.344,2.344,0,0,1,1.318.972.647.647,0,1,1-1.083.71,1.054,1.054,0,1,0-.882,1.63A2.351,2.351,0,0,1,23.942,67.488Zm-2.348-9.33a7.629,7.629,0,1,0,7.63,7.629A7.638,7.638,0,0,0,21.594,58.158Zm0,13.964a6.335,6.335,0,1,1,6.335-6.335A6.342,6.342,0,0,1,21.594,72.122Z" transform="translate(23.484 -29.174)" fill="#29abe2"/>
        <path id="Path_9392" data-name="Path 9392" d="M26.331,58.158A12.365,12.365,0,1,0,38.7,70.523,12.38,12.38,0,0,0,26.331,58.158Zm0,22.633A10.267,10.267,0,1,1,36.6,70.523,10.279,10.279,0,0,1,26.331,80.791Z" transform="translate(-6.242 -44.482)" fill="#29abe2"/>
        <path id="Line_139" data-name="Line 139" d="M-.029,9.442A.721.721,0,0,1-.75,8.722V-.029A.721.721,0,0,1-.029-.75a.721.721,0,0,1,.721.721V8.722A.721.721,0,0,1-.029,9.442Z" transform="translate(20.118 18.685)" fill="#29abe2"/>
        <path id="Line_140" data-name="Line 140" d="M7.357.692H-.029A.721.721,0,0,1-.75-.029.721.721,0,0,1-.029-.75H7.357a.721.721,0,0,1,.721.721A.721.721,0,0,1,7.357.692Z" transform="translate(20.118 27.435)" fill="#29abe2"/>
      </g>
    </g>
  </g>
</svg>
