<svg xmlns="http://www.w3.org/2000/svg" width="100" height="58.27" viewBox="0 0 100 58.27">
  <g id="Group_7116" data-name="Group 7116" transform="translate(0 -17.337)">
    <g id="Group_6073" data-name="Group 6073" transform="translate(33.887 17.337)">
      <path id="Path_13932" data-name="Path 13932" d="M643.868,168.4v-1.011c0-5.23-.011-10.46.014-15.691,0-.636-.164-.854-.863-.84-2.128.041-4.258.019-6.387.009-.408,0-.7.042-.874.482-1.3,3.3-4,4.748-7.545,4.956-1.363.08-2.736.013-4.152.013V144.006h.74c6.009,0,12.018-.017,18.026.007a17.023,17.023,0,0,1,7.336,1.539,10.021,10.021,0,0,1,6,8.406,16.7,16.7,0,0,1-.431,6.347c-1.181,4.258-4.166,6.694-8.615,7.614C646.08,168.133,645.021,168.232,643.868,168.4Z" transform="translate(-624.053 -144)" fill="#707070"/>
      <path id="Path_13933" data-name="Path 13933" d="M624.036,213.073h9.805v17.678h-9.805Z" transform="translate(-624.036 -194.197)" fill="#707070"/>
    </g>
    <g id="Group_6078" data-name="Group 6078" transform="translate(0 59.814)">
      <g id="Group_6076" data-name="Group 6076" transform="translate(0 0)">
        <g id="Group_6074" data-name="Group 6074">
          <path id="Path_13934" data-name="Path 13934" d="M567.268,299.453a1.9,1.9,0,0,1-.694,1.1,1.96,1.96,0,0,1-1.24.413l-3.911-.014-.679,3.025h-3.395l2.155-9.664h7.321a1.319,1.319,0,0,1,1.07.413,1.2,1.2,0,0,1,.185,1.1Zm-4.635-3.935-.945,4.23h2.126l.945-4.23Z" transform="translate(-557.349 -294.313)" fill="#707070"/>
          <path id="Path_13935" data-name="Path 13935" d="M591.167,300.234h-3.056l-1.505,6.667h-3.144l1.461-6.527a1.469,1.469,0,0,1,.554-.868,1.586,1.586,0,0,1,1-.336h4.93Z" transform="translate(-573.071 -297.237)" fill="#707070"/>
          <path id="Path_13936" data-name="Path 13936" d="M602.978,300.374a1.466,1.466,0,0,1,.554-.868,1.585,1.585,0,0,1,1-.336h5.432a1.01,1.01,0,0,1,.833.336.976.976,0,0,1,.155.868l-.974,4.4h-4.827l-.251,1.064h4.826l-.236,1.064h-6.377a1.319,1.319,0,0,1-1.07-.413,1.2,1.2,0,0,1-.184-1.1Zm3.188-.14-.782,3.446h1.7l.782-3.446Z" transform="translate(-584.115 -297.237)" fill="#707070"/>
          <path id="Path_13937" data-name="Path 13937" d="M637.707,306.9h-3.144l1.505-6.667h-1.7l-1.506,6.667h-3.129l1.506-6.667h-1.7l-1.505,6.667H624.9l1.742-7.731H638.18a1.011,1.011,0,0,1,.833.336.975.975,0,0,1,.155.868Z" transform="translate(-598.017 -297.237)" fill="#707070"/>
          <path id="Path_13938" data-name="Path 13938" d="M662.906,303.977h-3.144l1.727-7.731h3.144Zm1.919-8.6h-3.144l.236-1.064h3.144Z" transform="translate(-619.009 -294.313)" fill="#707070"/>
          <path id="Path_13939" data-name="Path 13939" d="M676.1,299.17l-1.505,6.667h1.7l1.505-6.667h3.129l-1.387,6.219a1.9,1.9,0,0,1-.694,1.1,1.963,1.963,0,0,1-1.24.413h-4.8a1.319,1.319,0,0,1-1.07-.413,1.2,1.2,0,0,1-.184-1.1l1.4-6.219Z" transform="translate(-626.077 -297.237)" fill="#707070"/>
          <path id="Path_13940" data-name="Path 13940" d="M707.4,306.9H704.26l1.506-6.667h-1.7l-1.505,6.667h-3.129l1.505-6.667h-1.7l-1.505,6.667h-3.144l1.742-7.731h11.543a1.012,1.012,0,0,1,.834.336.976.976,0,0,1,.155.868Z" transform="translate(-639.979 -297.237)" fill="#707070"/>
        </g>
        <g id="Group_6075" data-name="Group 6075" transform="translate(72.326 1.933)">
          <path id="Path_13941" data-name="Path 13941" d="M740.278,300.374a1.465,1.465,0,0,1,.553-.868,1.586,1.586,0,0,1,1-.336h5.432a1.011,1.011,0,0,1,.833.336.976.976,0,0,1,.155.868l-1.107,5.014a1.9,1.9,0,0,1-.693,1.1,1.962,1.962,0,0,1-1.24.413h-4.8a1.319,1.319,0,0,1-1.07-.413,1.2,1.2,0,0,1-.184-1.1Zm3.188-.14-1.269,5.6h1.7l1.269-5.6Z" transform="translate(-739.105 -299.17)" fill="#707070"/>
          <path id="Path_13942" data-name="Path 13942" d="M770.2,306.9h-3.129l1.506-6.667h-1.7l-1.506,6.667h-3.144l1.742-7.731h6.7a1.012,1.012,0,0,1,.834.336.976.976,0,0,1,.155.868Z" transform="translate(-753.029 -299.17)" fill="#707070"/>
          <path id="Path_13943" data-name="Path 13943" d="M786.755,300.374a1.47,1.47,0,0,1,.554-.868,1.587,1.587,0,0,1,1-.336h5.432a1.011,1.011,0,0,1,.834.336.977.977,0,0,1,.155.868l-.974,4.4h-4.826l-.251,1.064H793.5l-.236,1.064h-6.376a1.317,1.317,0,0,1-1.07-.413,1.2,1.2,0,0,1-.185-1.1Zm3.188-.14-.782,3.446h1.7l.782-3.446Z" transform="translate(-767.087 -299.17)" fill="#707070"/>
        </g>
      </g>
      <g id="Group_6077" data-name="Group 6077" transform="translate(16.268 11.835)">
        <path id="Path_13944" data-name="Path 13944" d="M598.23,328.039l.713-3.85h.852c.685,0,.985.433.858,1.168a1.22,1.22,0,0,1-1.29,1.168h-.433l-.28,1.514Zm1.067-3.5-.3,1.638h.433c.484,0,.7-.311.8-.819s-.014-.819-.5-.819Z" transform="translate(-598.23 -324.135)" fill="#707070"/>
        <path id="Path_13945" data-name="Path 13945" d="M603.969,328.039h-.427l1.7-3.85h.469l.277,3.85h-.41l-.079-1.179h-1.019Zm.668-1.533h.84l-.107-1.67Z" transform="translate(-601.428 -324.135)" fill="#707070"/>
        <path id="Path_13946" data-name="Path 13946" d="M612.642,327.33l.41.07a1.036,1.036,0,0,1-1.013.612c-1.007,0-1.027-.9-.823-1.979s.47-1.979,1.48-1.979a.746.746,0,0,1,.838.615l-.4.064a.411.411,0,0,0-.467-.33c-.662,0-.857.735-1.024,1.629s-.24,1.63.419,1.63A.66.66,0,0,0,612.642,327.33Z" transform="translate(-605.987 -324.054)" fill="#707070"/>
        <path id="Path_13947" data-name="Path 13947" d="M619.254,324.189h.507l-1.378,1.624.693,2.226h-.45l-.575-1.839-.308.363-.272,1.477h-.419l.713-3.85h.419l-.3,1.611Z" transform="translate(-609.563 -324.135)" fill="#707070"/>
        <path id="Path_13948" data-name="Path 13948" d="M623.218,328.039h-.427l1.7-3.85h.47l.277,3.85h-.411l-.079-1.179h-1.019Zm.668-1.533h.84l-.107-1.67Z" transform="translate(-613.018 -324.135)" fill="#707070"/>
        <path id="Path_13949" data-name="Path 13949" d="M630.466,326.033c.2-1.079.47-1.979,1.48-1.979a.746.746,0,0,1,.837.615l-.4.064a.411.411,0,0,0-.467-.33c-.662,0-.858.735-1.025,1.629s-.24,1.63.419,1.63a.9.9,0,0,0,.54-.15l.246-1.321h-.575l.062-.349h.965l-.342,1.855a1.388,1.388,0,0,1-.922.314C630.282,328.012,630.262,327.115,630.466,326.033Z" transform="translate(-617.577 -324.054)" fill="#707070"/>
        <path id="Path_13950" data-name="Path 13950" d="M637.442,324.189h.419l-.713,3.85h-.419Z" transform="translate(-621.409 -324.135)" fill="#707070"/>
        <path id="Path_13951" data-name="Path 13951" d="M640.215,324.189h.614l.442,3.193.591-3.193h.419l-.713,3.85h-.614l-.441-3.193-.591,3.193H639.5Z" transform="translate(-623.079 -324.135)" fill="#707070"/>
        <path id="Path_13952" data-name="Path 13952" d="M646.942,326.033c.2-1.079.469-1.979,1.48-1.979a.746.746,0,0,1,.838.615l-.4.064a.411.411,0,0,0-.467-.33c-.662,0-.858.735-1.024,1.629s-.241,1.63.419,1.63a.9.9,0,0,0,.54-.15l.246-1.321H648l.062-.349h.965l-.343,1.855a1.388,1.388,0,0,1-.922.314C646.758,328.012,646.738,327.115,646.942,326.033Z" transform="translate(-627.497 -324.054)" fill="#707070"/>
        <path id="Path_13953" data-name="Path 13953" d="M656.548,328.039h-.427l1.7-3.85h.47l.277,3.85h-.41l-.079-1.179h-1.019Zm.668-1.533h.84l-.107-1.67Z" transform="translate(-633.085 -324.135)" fill="#707070"/>
        <path id="Path_13954" data-name="Path 13954" d="M664.2,324.189h.614l.441,3.193.591-3.193h.419l-.713,3.85h-.614l-.441-3.193-.591,3.193h-.419Z" transform="translate(-637.519 -324.135)" fill="#707070"/>
        <path id="Path_13955" data-name="Path 13955" d="M671.112,324.189h.719c1,0,1.2.817,1.013,1.925-.2,1.192-.708,1.925-1.726,1.925H670.4Zm.354.349-.586,3.152h.3c.75,0,1.067-.7,1.234-1.576s.1-1.576-.648-1.576Z" transform="translate(-641.681 -324.135)" fill="#707070"/>
        <path id="Path_13956" data-name="Path 13956" d="M682.587,325.9l-.065.349H681.3l-.331,1.793h-.419l.713-3.85h1.78l-.065.349h-1.361l-.252,1.359Z" transform="translate(-647.791 -324.135)" fill="#707070"/>
        <path id="Path_13957" data-name="Path 13957" d="M688.528,324.054c1,0,1.027.9.823,1.979s-.47,1.979-1.48,1.979-1.027-.9-.823-1.979S687.517,324.054,688.528,324.054Zm-.025.349c-.662,0-.858.735-1.025,1.629s-.24,1.63.419,1.63.857-.736,1.024-1.63S689.161,324.4,688.5,324.4Z" transform="translate(-651.643 -324.054)" fill="#707070"/>
        <path id="Path_13958" data-name="Path 13958" d="M695.681,324.054c1,0,1.027.9.824,1.979s-.47,1.979-1.48,1.979-1.027-.9-.824-1.979S694.671,324.054,695.681,324.054Zm-.025.349c-.662,0-.857.735-1.024,1.629s-.24,1.63.419,1.63.857-.736,1.024-1.63S696.315,324.4,695.656,324.4Z" transform="translate(-655.95 -324.054)" fill="#707070"/>
        <path id="Path_13959" data-name="Path 13959" d="M701.54,324.189h.719c1,0,1.2.817,1.013,1.925-.2,1.192-.708,1.925-1.726,1.925h-.719Zm.354.349-.586,3.152h.3c.75,0,1.067-.7,1.234-1.576s.1-1.576-.648-1.576Z" transform="translate(-660.001 -324.135)" fill="#707070"/>
        <path id="Path_13960" data-name="Path 13960" d="M711.688,324.189h.419l-.713,3.85h-.419Z" transform="translate(-666.11 -324.135)" fill="#707070"/>
        <path id="Path_13961" data-name="Path 13961" d="M714.461,324.189h.614l.441,3.193.591-3.193h.419l-.713,3.85H715.2l-.442-3.193-.591,3.193h-.419Z" transform="translate(-667.78 -324.135)" fill="#707070"/>
        <path id="Path_13962" data-name="Path 13962" d="M721.373,324.189h.719c1,0,1.2.817,1.013,1.925-.2,1.192-.708,1.925-1.726,1.925h-.719Zm.354.349-.586,3.152h.3c.75,0,1.067-.7,1.234-1.576s.1-1.576-.648-1.576Z" transform="translate(-671.942 -324.135)" fill="#707070"/>
        <path id="Path_13963" data-name="Path 13963" d="M728.056,326.393l.407-2.2h.419l-.407,2.2c-.167.891-.147,1.351.376,1.351s.713-.459.88-1.351l.407-2.2h.419l-.408,2.2c-.2,1.1-.489,1.7-1.324,1.7S727.853,327.492,728.056,326.393Z" transform="translate(-676.344 -324.135)" fill="#707070"/>
        <path id="Path_13964" data-name="Path 13964" d="M736.282,324.637a.531.531,0,0,0-.481-.234c-.34,0-.543.22-.62.636a.7.7,0,0,0,.433.741c.458.271.8.585.69,1.181a1.121,1.121,0,0,1-1.135,1.05.936.936,0,0,1-.914-.462l.323-.191a.662.662,0,0,0,.617.3c.373,0,.6-.277.685-.7a.736.736,0,0,0-.467-.8,1.1,1.1,0,0,1,.413-2.108.779.779,0,0,1,.778.392Z" transform="translate(-680.128 -324.054)" fill="#707070"/>
        <path id="Path_13965" data-name="Path 13965" d="M743.611,324.189l-.065.349h-.88l-.648,3.5H741.6l.648-3.5h-.88l.065-.349Z" transform="translate(-684.409 -324.135)" fill="#707070"/>
        <path id="Path_13966" data-name="Path 13966" d="M746.579,328.039l.713-3.85h.835a.843.843,0,0,1,.889,1.1,1.2,1.2,0,0,1-.9,1.029l.323,1.718h-.43L747.7,326.4h-.4l-.3,1.643Zm1.067-3.5-.28,1.509h.416a.812.812,0,0,0,.809-.755c.076-.416-.045-.754-.529-.754Z" transform="translate(-687.547 -324.135)" fill="#707070"/>
        <path id="Path_13967" data-name="Path 13967" d="M753.756,324.189h.419l-.713,3.85h-.419Z" transform="translate(-691.439 -324.135)" fill="#707070"/>
        <path id="Path_13968" data-name="Path 13968" d="M757.856,325.9l-.065.349h-1.225l-.269,1.444h1.39l-.062.349h-1.808l.713-3.85h1.78l-.065.349h-1.361l-.252,1.359Z" transform="translate(-693.108 -324.135)" fill="#707070"/>
        <path id="Path_13969" data-name="Path 13969" d="M763.894,324.637a.531.531,0,0,0-.481-.234c-.339,0-.543.22-.62.636a.7.7,0,0,0,.433.741c.459.271.8.585.691,1.181a1.121,1.121,0,0,1-1.135,1.05.936.936,0,0,1-.914-.462l.322-.191a.663.663,0,0,0,.617.3c.373,0,.6-.277.684-.7a.735.735,0,0,0-.467-.8,1.1,1.1,0,0,1,.413-2.108.779.779,0,0,1,.778.392Z" transform="translate(-696.752 -324.054)" fill="#707070"/>
      </g>
    </g>
  </g>
</svg>
