<svg id="layer2" xmlns="http://www.w3.org/2000/svg" width="32.282" height="32.282" viewBox="0 0 32.282 32.282">
  <path id="path9933" d="M10.615,6.085l-.195,1.307a4.738,4.738,0,0,0-1.465.6L7.9,7.211,6.683,8.426l.786,1.061a4.735,4.735,0,0,0-.608,1.462l-1.3.194v1.719l1.306.194a4.735,4.735,0,0,0,.6,1.465l-.783,1.058L7.9,16.8,8.96,16.01a4.737,4.737,0,0,0,1.461.606l.194,1.306h1.718l.195-1.308a4.738,4.738,0,0,0,1.465-.6l1.059.784,1.215-1.216-.786-1.061a4.735,4.735,0,0,0,.607-1.462l1.305-.194V11.144l-1.307-.195a4.735,4.735,0,0,0-.6-1.465l.783-1.058L15.051,7.211,13.99,8a4.738,4.738,0,0,0-1.462-.607l-.195-1.305Z" transform="translate(4.667 5.213)" fill="#65c7ee"/>
  <path id="ellipse9940" d="M11.713,10.089A2.152,2.152,0,1,1,9.56,7.937,2.152,2.152,0,0,1,11.713,10.089Z" transform="translate(6.88 7.426)" fill="#fff"/>
  <path id="rect9925" d="M11.924,11.906h8.609a1.074,1.074,0,0,1,1.076,1.076v2.152a1.074,1.074,0,0,1-1.076,1.076H11.924a1.074,1.074,0,0,1-1.076-1.076V12.982A1.074,1.074,0,0,1,11.924,11.906Z" transform="translate(10.136 11.229)" fill="#65c7ee"/>
  <path id="rect9927" d="M11.924,14.023h8.609A1.074,1.074,0,0,1,21.609,15.1v2.152a1.074,1.074,0,0,1-1.076,1.076H11.924a1.074,1.074,0,0,1-1.076-1.076V15.1A1.074,1.074,0,0,1,11.924,14.023Z" transform="translate(10.136 13.417)" fill="#65c7ee"/>
  <path id="rect9917" d="M1.87,11.906h8.609a1.074,1.074,0,0,1,1.076,1.076v2.152a1.074,1.074,0,0,1-1.076,1.076H1.87A1.074,1.074,0,0,1,.794,15.135V12.982A1.074,1.074,0,0,1,1.87,11.906Z" transform="translate(-0.256 11.229)" fill="#65c7ee"/>
  <path id="rect9919" d="M1.87,14.023h8.609A1.074,1.074,0,0,1,11.555,15.1v2.152a1.074,1.074,0,0,1-1.076,1.076H1.87A1.074,1.074,0,0,1,.794,17.251V15.1A1.074,1.074,0,0,1,1.87,14.023Z" transform="translate(-0.256 13.417)" fill="#65c7ee"/>
  <path id="path863" d="M1.87,14.023A1.074,1.074,0,0,0,.794,15.1v2.152A1.074,1.074,0,0,0,1.87,18.327H2.946A1.074,1.074,0,0,1,1.87,17.251V15.1a1.074,1.074,0,0,1,1.076-1.076Z" transform="translate(-0.256 13.417)" fill="#65c7ee"/>
  <path id="rect9904" d="M6.9.794h8.609A1.074,1.074,0,0,1,16.582,1.87V4.022A1.074,1.074,0,0,1,15.506,5.1H6.9A1.074,1.074,0,0,1,5.821,4.022V1.87A1.074,1.074,0,0,1,6.9.794Z" transform="translate(4.94 -0.256)" fill="#65c7ee"/>
  <path id="rect9906" d="M6.9,2.91h8.609a1.074,1.074,0,0,1,1.076,1.076V6.139a1.074,1.074,0,0,1-1.076,1.076H6.9A1.074,1.074,0,0,1,5.821,6.139V3.986A1.074,1.074,0,0,1,6.9,2.91Z" transform="translate(4.94 1.932)" fill="#65c7ee"/>
  <path id="path867" d="M6.9,2.91A1.074,1.074,0,0,0,5.821,3.986V6.139A1.074,1.074,0,0,0,6.9,7.215H7.973A1.074,1.074,0,0,1,6.9,6.139V3.987A1.074,1.074,0,0,1,7.973,2.91Z" transform="translate(4.94 1.932)" fill="#65c7ee"/>
  <path id="path858" d="M11.924,14.023A1.074,1.074,0,0,0,10.848,15.1v2.152a1.074,1.074,0,0,0,1.076,1.076H13a1.074,1.074,0,0,1-1.076-1.076V15.1A1.074,1.074,0,0,1,13,14.023Z" transform="translate(10.135 13.417)" fill="#65c7ee"/>
  <path id="path861" d="M11.924,11.906a1.074,1.074,0,0,0-1.076,1.076v2.152a1.074,1.074,0,0,0,1.076,1.076H13a1.074,1.074,0,0,1-1.076-1.076V12.982A1.074,1.074,0,0,1,13,11.906Z" transform="translate(10.136 11.229)" fill="#65c7ee"/>
  <path id="path865" d="M1.87,11.906A1.074,1.074,0,0,0,.794,12.982v2.152A1.074,1.074,0,0,0,1.87,16.211H2.946A1.074,1.074,0,0,1,1.87,15.135V12.982a1.074,1.074,0,0,1,1.076-1.076Z" transform="translate(-0.256 11.229)" fill="#65c7ee"/>
  <path id="path869" d="M6.9.794A1.074,1.074,0,0,0,5.821,1.87V4.022A1.074,1.074,0,0,0,6.9,5.1H7.973A1.074,1.074,0,0,1,6.9,4.022V1.87A1.074,1.074,0,0,1,7.973.794Z" transform="translate(4.94 -0.256)" fill="#65c7ee"/>
  <path id="Icon_23" d="M12.365.529a1.62,1.62,0,0,0-1.612,1.613V4.294a1.605,1.605,0,0,0,.422,1.077,1.6,1.6,0,0,0-.422,1.076V8.6a1.62,1.62,0,0,0,1.612,1.613h8.611A1.621,1.621,0,0,0,22.589,8.6V6.448a1.6,1.6,0,0,0-.424-1.076,1.606,1.606,0,0,0,.424-1.077V2.142A1.621,1.621,0,0,0,20.976.529H12.365Zm0,1.077h2.693V4.835H12.365a.525.525,0,0,1-.536-.54V2.142a.522.522,0,0,1,.536-.536Zm3.765,0h4.846a.522.522,0,0,1,.536.536V4.294a.525.525,0,0,1-.536.54H16.13Zm1.617,1.076a.538.538,0,1,0,0,1.076h2.176a.538.538,0,1,0,0-1.076ZM8.83,4.978a14.544,14.544,0,0,0-5.977,16.73.539.539,0,1,0,1.025-.334A13.458,13.458,0,0,1,9.414,5.883a.539.539,0,1,0-.584-.906Zm14.934.163a.538.538,0,0,0,.163.743,13.452,13.452,0,0,1,5.537,15.49.539.539,0,1,0,1.025.334,14.535,14.535,0,0,0-5.981-16.73.538.538,0,0,0-.743.163Zm-11.4.771h2.693V9.136H12.365a.522.522,0,0,1-.536-.536V6.448A.522.522,0,0,1,12.365,5.912Zm3.765,0h4.846a.522.522,0,0,1,.536.536V8.6a.522.522,0,0,1-.536.536H16.13ZM13.442,6.986a.538.538,0,1,0,.538.538.538.538,0,0,0-.538-.538Zm-4.508,2.7L6.7,10.141a.537.537,0,1,0,.214,1.052l.965-.2-.174.264a10.767,10.767,0,0,0-.79,10.481.539.539,0,0,0,.977-.453,9.688,9.688,0,0,1,.71-9.434l.171-.26.194.959a.539.539,0,0,0,1.056-.214l-.45-2.22a.548.548,0,0,0-.22-.349.538.538,0,0,0-.3-.1.8.8,0,0,0-.122.01Zm14.914.23a.538.538,0,0,0-.032.763,9.684,9.684,0,0,1,2.311,8.607l-.068.309-.531-.829a.538.538,0,0,0-.906.58l1.21,1.888a.519.519,0,0,0,.329.261.548.548,0,0,0,.435-.064L28.519,20.2a.537.537,0,1,0-.58-.9l-.831.532.068-.31A10.764,10.764,0,0,0,24.611,9.95a.545.545,0,0,0-.763-.036Zm-8.035,1.375a.538.538,0,0,0-.533.46l-.148.958a5.871,5.871,0,0,0-.946.389l-.772-.576a.538.538,0,0,0-.7.051L11.5,13.787a.538.538,0,0,0-.051.7l.574.777a5.043,5.043,0,0,0-.393.944l-.955.143a.538.538,0,0,0-.46.532V18.6a.538.538,0,0,0,.46.532l.956.144a5.882,5.882,0,0,0,.387.948L11.443,21a.538.538,0,0,0,.052.7l1.215,1.215a.538.538,0,0,0,.7.052l.778-.574a5.831,5.831,0,0,0,.944.391l.142.957a.538.538,0,0,0,.532.456h1.72a.538.538,0,0,0,.532-.456l.146-.96a5.223,5.223,0,0,0,.945-.389l.776.575a.538.538,0,0,0,.7-.052L21.842,21.7a.538.538,0,0,0,.051-.7l-.574-.784a4.955,4.955,0,0,0,.392-.941l.956-.143a.538.538,0,0,0,.461-.532v-1.72a.538.538,0,0,0-.461-.532l-.961-.143a5.326,5.326,0,0,0-.386-.944l.572-.777a.538.538,0,0,0-.051-.7l-1.215-1.215a.538.538,0,0,0-.7-.051l-.78.578a4.792,4.792,0,0,0-.943-.391l-.144-.958a.538.538,0,0,0-.532-.46Zm.464,1.076h.786l.127.846a.538.538,0,0,0,.413.446,4.2,4.2,0,0,1,1.3.54.538.538,0,0,0,.607-.024l.687-.509.56.556-.509.687a.538.538,0,0,0-.024.6,4.2,4.2,0,0,1,.536,1.3.538.538,0,0,0,.446.413l.85.127v.79l-.847.127a.538.538,0,0,0-.449.413,4.183,4.183,0,0,1-.536,1.295.538.538,0,0,0,.024.607l.509.687-.56.56-.683-.509A.538.538,0,0,0,18.9,21.3a4.211,4.211,0,0,1-1.3.537.538.538,0,0,0-.413.445l-.127.85h-.79l-.123-.85a.538.538,0,0,0-.413-.445,4.2,4.2,0,0,1-1.295-.537.538.538,0,0,0-.607.024l-.691.509-.556-.56.5-.683a.538.538,0,0,0,.024-.607,4.194,4.194,0,0,1-.533-1.3.538.538,0,0,0-.445-.413l-.85-.127v-.79l.846-.127a.538.538,0,0,0,.445-.41,4.216,4.216,0,0,1,.54-1.3.538.538,0,0,0-.023-.6l-.509-.691.56-.556.683.5a.538.538,0,0,0,.607.024,4.178,4.178,0,0,1,1.295-.533.538.538,0,0,0,.417-.445Zm.393,2.689a2.691,2.691,0,1,0,2.689,2.693A2.7,2.7,0,0,0,16.67,15.054Zm0,1.076a1.615,1.615,0,1,1-1.616,1.617A1.608,1.608,0,0,1,16.67,16.13Zm-14.528,7A1.62,1.62,0,0,0,.529,24.741v2.153a1.6,1.6,0,0,0,.424,1.075,1.606,1.606,0,0,0-.424,1.077V31.2a1.62,1.62,0,0,0,1.613,1.612h8.611A1.619,1.619,0,0,0,12.365,31.2V29.046a1.605,1.605,0,0,0-.422-1.077,1.6,1.6,0,0,0,.422-1.075V24.741a1.619,1.619,0,0,0-1.612-1.612Zm20.447,0a1.62,1.62,0,0,0-1.613,1.612v2.153a1.6,1.6,0,0,0,.424,1.075,1.606,1.606,0,0,0-.424,1.077V31.2a1.62,1.62,0,0,0,1.613,1.612H31.2A1.619,1.619,0,0,0,32.812,31.2V29.046a1.605,1.605,0,0,0-.422-1.077,1.6,1.6,0,0,0,.422-1.075V24.741A1.619,1.619,0,0,0,31.2,23.129ZM2.142,24.2H4.835V27.43H2.142a.522.522,0,0,1-.536-.536V24.741A.525.525,0,0,1,2.142,24.2Zm3.769,0h4.841a.525.525,0,0,1,.536.54v2.153a.522.522,0,0,1-.536.536H5.912Zm16.677,0h2.688V27.43H22.589a.522.522,0,0,1-.536-.536V24.741A.525.525,0,0,1,22.589,24.2Zm3.765,0H31.2a.525.525,0,0,1,.536.54v2.153a.522.522,0,0,1-.536.536H26.354Zm1.616,1.076a.539.539,0,1,0,0,1.077h2.176a.539.539,0,1,0,0-1.077Zm-24.751,0a.538.538,0,1,0,.538.538A.538.538,0,0,0,3.219,25.279Zm1.615,3.227v3.229H2.142a.522.522,0,0,1-.536-.536V29.046a.526.526,0,0,1,.536-.54Zm1.077,0h4.841a.525.525,0,0,1,.536.54V31.2a.522.522,0,0,1-.536.536H5.912Zm19.365,0v3.229H22.589a.522.522,0,0,1-.536-.536V29.046a.526.526,0,0,1,.536-.54Zm1.077,0H31.2a.525.525,0,0,1,.536.54V31.2a.522.522,0,0,1-.536.536H26.354ZM7.524,29.582a.539.539,0,0,0,0,1.077H9.7a.539.539,0,1,0,0-1.077Zm15.6.539a.538.538,0,1,0,.538-.538A.538.538,0,0,0,23.127,30.121Zm-9.677.713a.538.538,0,0,0,.425.632,14.839,14.839,0,0,0,5.593,0,.538.538,0,0,0-.206-1.056,13.76,13.76,0,0,1-5.18,0,.662.662,0,0,0-.087-.012.537.537,0,0,0-.544.437Z" transform="translate(-0.529 -0.529)" fill="#234192"/>
</svg>
