<svg id="Logo-04" xmlns="http://www.w3.org/2000/svg" width="100" height="50.281" viewBox="0 0 100 50.281">
  <path id="Path_14053" data-name="Path 14053" d="M132.869,12.192,81.843,1.77a1.944,1.944,0,0,0-2.377,1.393L77.831,11.3h0L77.5,12.939h43.9a5.057,5.057,0,0,1,5.13,4.933V45.655a1.888,1.888,0,0,0,1.882-1.438l3.747-18.327h0L134.5,14.4A1.95,1.95,0,0,0,132.869,12.192Z" transform="translate(-34.519 -1.706)" fill="#707070"/>
  <path id="Path_14054" data-name="Path 14054" d="M59.3,48.6l1.169.09a13.4,13.4,0,0,1,1.888.331,7.753,7.753,0,0,1,2.91,1.4A6.253,6.253,0,0,1,67.145,52.9a9.158,9.158,0,0,1,.663,3.674,12.883,12.883,0,0,1-.528,3.815,7.377,7.377,0,0,1-1.686,2.927A7.523,7.523,0,0,1,62.661,65.2a11.8,11.8,0,0,1-3.242.624H59.29v1.545A1.944,1.944,0,0,0,61.324,69.2H113.4a1.95,1.95,0,0,0,2.04-1.837V45.25H59.3Zm43.441.219,4.3,8.237,4.186-8.371,2.1-.034-5.377,10.5.1,6.5-3.461.051-.1-6.495L98.8,48.885ZM92.551,48.34,98.8,65.707H95.085L93.113,60l-6.366.084L84.68,65.7H82.494l6.742-16.788Zm-21.271.511c0-.135,4.787-.2,5.27-.191a10.321,10.321,0,0,1,2.495.309,4.607,4.607,0,0,1,3.186,2.523,5.95,5.95,0,0,1-.034,4.214,4.607,4.607,0,0,1-1.242,1.8,5.961,5.961,0,0,1-2.163,1.214,9.978,9.978,0,0,1-3.259.449l-.236-1.3a10.586,10.586,0,0,0,1.759-.483c2.247-.871,2.461-4.225,1.292-6.006-.764-1.163-2.4-1.079-3.624-.9V65.707H71.28Z" transform="translate(-26.54 -20.785)" fill="#707070"/>
  <path id="Path_14055" data-name="Path 14055" d="M111.9,55.64l-2.68,7.31h5.225Z" transform="translate(-48.418 -25.338)" fill="#707070"/>
  <path id="Path_14056" data-name="Path 14056" d="M115.455,29.035a1.944,1.944,0,0,0-2.034-1.837H61.344a1.944,1.944,0,0,0-2.034,1.837v2.641h56.145Z" transform="translate(-26.549 -12.875)" fill="#707070"/>
  <path id="Path_14057" data-name="Path 14057" d="M3.247,68.168a6.624,6.624,0,0,1-.427,2.624A4.394,4.394,0,0,1,1,72.764l.6,1.045a7.866,7.866,0,0,0,3.837-2.4A6.742,6.742,0,0,0,6.72,67.174V51.51H3.247Z" transform="translate(-1 -23.528)" fill="#707070"/>
  <path id="Path_14058" data-name="Path 14058" d="M21.472,51.329,14.73,68.116h2.18L18.978,62.5l6.371-.084,1.983,5.708H31.04L24.815,50.75ZM19.6,60.807l2.68-7.3,2.551,7.3Z" transform="translate(-7.016 -23.195)" fill="#707070"/>
  <path id="Path_14059" data-name="Path 14059" d="M54.1,66.745c-.449.034-.938.051-1.478.051a9.158,9.158,0,0,1-1.753-.146V53.07s.815-.09.843-.09a10.675,10.675,0,0,1,2.393.051V66.745c.371-.034.73-.067,1.1-.129a3.978,3.978,0,0,0,3.135-2.641,13.692,13.692,0,0,0,.562-4.495,9.214,9.214,0,0,0-.472-3.242,5.146,5.146,0,0,0-4.18-3.191h-.118v-1.8h-.7c-.489,0-2.641.062-3.18.09s-2.45.185-2.809.225V68.2c.354.034,2.174.18,2.68.2s3.7.073,4.017.056V66.774Z" transform="translate(-21.348 -23.414)" fill="#707070"/>
</svg>
