<svg xmlns="http://www.w3.org/2000/svg" xmlns:xlink="http://www.w3.org/1999/xlink" width="754" height="490" viewBox="0 0 754 490">
  <defs>
    <clipPath id="clip-path">
      <rect id="Rectangle_99" data-name="Rectangle 99" width="754" height="490" transform="translate(306 3443)" fill="#efefef"/>
    </clipPath>
  </defs>
  <g id="Mask_Group_30" data-name="Mask Group 30" transform="translate(-306 -3443)" clip-path="url(#clip-path)">
    <g id="To_the_stars-rafiki" data-name="To the stars-rafiki" transform="translate(354.194 3370.662)">
      <g id="freepik--background-complete--inject-3">
        <rect id="Rectangle_91" data-name="Rectangle 91" width="657.612" height="0.329" transform="translate(0 502.942)" fill="#ebebeb"/>
        <rect id="Rectangle_92" data-name="Rectangle 92" width="43.56" height="0.329" transform="translate(548.159 524.104)" fill="#ebebeb"/>
        <rect id="Rectangle_93" data-name="Rectangle 93" width="11.429" height="0.329" transform="translate(424.199 527.681)" fill="#ebebeb"/>
        <rect id="Rectangle_94" data-name="Rectangle 94" width="25.239" height="0.329" transform="translate(521.605 511.898)" fill="#ebebeb"/>
        <rect id="Rectangle_95" data-name="Rectangle 95" width="56.805" height="0.329" transform="translate(68.997 514.108)" fill="#ebebeb"/>
        <rect id="Rectangle_96" data-name="Rectangle 96" width="8.325" height="0.329" transform="translate(137.52 514.108)" fill="#ebebeb"/>
        <rect id="Rectangle_97" data-name="Rectangle 97" width="123.21" height="0.329" transform="translate(172.913 519.658)" fill="#ebebeb"/>
        <path id="Path_9692" data-name="Path 9692" d="M311.708,444.283H57.752a7.51,7.51,0,0,1-7.5-7.51V79.782a7.51,7.51,0,0,1,7.5-7.444H311.708a7.51,7.51,0,0,1,7.51,7.51V436.773A7.51,7.51,0,0,1,311.708,444.283ZM57.752,72.6a7.181,7.181,0,0,0-7.168,7.181V436.773a7.181,7.181,0,0,0,7.168,7.181H311.708a7.194,7.194,0,0,0,7.181-7.181V79.782a7.194,7.194,0,0,0-7.181-7.181Z" fill="#ebebeb"/>
        <path id="Path_9693" data-name="Path 9693" d="M596.2,444.283H342.235a7.523,7.523,0,0,1-7.51-7.51V79.782a7.523,7.523,0,0,1,7.51-7.444H596.2a7.51,7.51,0,0,1,7.484,7.444V436.773A7.51,7.51,0,0,1,596.2,444.283ZM342.235,72.6a7.194,7.194,0,0,0-7.181,7.181V436.773a7.194,7.194,0,0,0,7.181,7.181H596.2a7.194,7.194,0,0,0,7.181-7.181V79.782A7.194,7.194,0,0,0,596.2,72.6Z" fill="#ebebeb"/>
        <path id="Path_9694" data-name="Path 9694" d="M283.26,99.089l1.1,2.249a.881.881,0,0,0,.684.487l2.486.368a.894.894,0,0,1,.487,1.526l-1.789,1.762a.881.881,0,0,0-.263.789l.421,2.473a.894.894,0,0,1-1.315.947l-2.223-1.171a.921.921,0,0,0-.829,0l-2.236,1.171a.894.894,0,0,1-1.315-.947l.434-2.473a.921.921,0,0,0-.263-.789l-1.8-1.762a.894.894,0,0,1,.5-1.526l2.486-.368a.908.908,0,0,0,.684-.487l1.1-2.249a.907.907,0,0,1,1.644,0Z" fill="#f5f5f5"/>
        <path id="Path_9695" data-name="Path 9695" d="M119.5,284.338l1.118,2.262a.894.894,0,0,0,.671.487l2.486.368a.894.894,0,0,1,.5,1.526l-1.8,1.749a.908.908,0,0,0-.25.8l.421,2.473a.894.894,0,0,1-1.315.947l-2.223-1.171a.947.947,0,0,0-.842,0l-2.223,1.171a.894.894,0,0,1-1.315-.947l.421-2.473a.907.907,0,0,0-.25-.8l-1.789-1.749a.894.894,0,0,1,.5-1.526l2.486-.368a.894.894,0,0,0,.671-.487l1.118-2.262a.894.894,0,0,1,1.618,0Z" fill="#f0f0f0"/>
        <path id="Path_9696" data-name="Path 9696" d="M98.852,160.05l1.1,2.249a.908.908,0,0,0,.671.5l2.486.355a.908.908,0,0,1,.5,1.539l-1.8,1.749a.934.934,0,0,0-.263.789l.434,2.486a.894.894,0,0,1-1.315.947l-2.223-1.171a.868.868,0,0,0-.842,0l-2.223,1.171a.894.894,0,0,1-1.315-.947l.421-2.486a.855.855,0,0,0-.263-.789l-1.789-1.749a.894.894,0,0,1,.487-1.539l2.486-.355a.934.934,0,0,0,.684-.5l1.1-2.249a.907.907,0,0,1,1.657,0Z" fill="#f0f0f0"/>
        <path id="Path_9697" data-name="Path 9697" d="M198.507,216.578l.658,1.315a.552.552,0,0,0,.408.289l1.486.21a.539.539,0,0,1,.289.921l-1.065,1.052a.526.526,0,0,0-.158.473l.25,1.473a.526.526,0,0,1-.776.566l-1.315-.7a.552.552,0,0,0-.5,0l-1.315.7a.526.526,0,0,1-.776-.566l.25-1.473a.526.526,0,0,0-.158-.473l-1.078-1.052a.539.539,0,0,1,.3-.921l1.486-.21a.552.552,0,0,0,.408-.289l.658-1.315a.552.552,0,0,1,.947,0Z" fill="#f0f0f0"/>
        <path id="Path_9698" data-name="Path 9698" d="M158.2,388.912l.658,1.315a.566.566,0,0,0,.408.3l1.486.21a.539.539,0,0,1,.3.921l-1.078,1.039a.552.552,0,0,0-.158.487l.263,1.473a.539.539,0,0,1-.789.566l-1.315-.7a.553.553,0,0,0-.5,0l-1.315.7a.539.539,0,0,1-.776-.566l.25-1.473a.552.552,0,0,0-.145-.487l-1.078-1.039a.539.539,0,0,1,.289-.921l1.486-.21a.539.539,0,0,0,.408-.3l.671-1.315a.539.539,0,0,1,.934,0Z" fill="#f5f5f5"/>
        <path id="Path_9699" data-name="Path 9699" d="M571.333,101.141l.658,1.315a.513.513,0,0,0,.408.289l1.486.224a.539.539,0,0,1,.3.921l-1.079,1.039a.539.539,0,0,0-.158.473l.263,1.486a.539.539,0,0,1-.789.566l-1.315-.7a.552.552,0,0,0-.5,0l-1.315.7a.539.539,0,0,1-.776-.566l.25-1.486a.539.539,0,0,0-.145-.474l-1.1-1.026a.539.539,0,0,1,.289-.921l1.486-.224a.5.5,0,0,0,.408-.289l.671-1.315a.526.526,0,0,1,.96-.013Z" fill="#f5f5f5"/>
        <path id="Path_9700" data-name="Path 9700" d="M559.9,349.363l1.144,2.328a.894.894,0,0,0,.7.5l2.63.381a.921.921,0,0,1,.513,1.578l-1.973,1.815a.96.96,0,0,0-.263.829l.447,2.63a.934.934,0,0,1-1.315.973l-2.3-1.21a.92.92,0,0,0-.868,0l-2.275,1.184a.921.921,0,0,1-1.315-.973l.434-2.63a.921.921,0,0,0-.263-.829l-1.868-1.815a.934.934,0,0,1,.526-1.578l2.565-.381a.894.894,0,0,0,.7-.5l1.157-2.328a.934.934,0,0,1,1.631.026Z" fill="#f0f0f0"/>
        <path id="Path_9701" data-name="Path 9701" d="M419.017,131.378a1.749,1.749,0,1,1-1.749-1.749A1.749,1.749,0,0,1,419.017,131.378Z" fill="#f0f0f0"/>
        <path id="Path_9702" data-name="Path 9702" d="M469.219,470.416a1.736,1.736,0,1,1-.508-1.241,1.749,1.749,0,0,1,.508,1.241Z" fill="#f5f5f5"/>
        <path id="Path_9703" data-name="Path 9703" d="M174.6,109.571a7.484,7.484,0,1,1-7.484-7.484,7.484,7.484,0,0,1,7.484,7.484Z" fill="#f0f0f0"/>
        <path id="Path_9704" data-name="Path 9704" d="M245.408,159.024a77.6,77.6,0,0,0,13.678,1.171,15.98,15.98,0,0,1-27.028-4.577,79.033,79.033,0,0,0,13.35,3.406Z" fill="#f5f5f5"/>
        <path id="Path_9705" data-name="Path 9705" d="M247.736,145.214a73.85,73.85,0,0,0-15.783-1.1,15.993,15.993,0,0,1,30.934,5.261,73.574,73.574,0,0,0-15.151-4.156Z" fill="#f5f5f5"/>
        <ellipse id="Ellipse_23" data-name="Ellipse 23" cx="5.524" cy="25.16" rx="5.524" ry="25.16" transform="translate(221.233 151.029) rotate(-80.41)" fill="#f5f5f5"/>
        <path id="Path_9706" data-name="Path 9706" d="M570.334,266.728a104.31,104.31,0,0,1-139.966,46.69c-2.131-1.052-4.2-2.17-6.168-3.354a128.892,128.892,0,0,0,61.289-194.022,104.389,104.389,0,0,1,84.845,150.685Z" fill="#f5f5f5"/>
        <path id="Path_9707" data-name="Path 9707" d="M522.618,143.82a23.674,23.674,0,0,1,9.575,17.769,59.988,59.988,0,0,0-13.047-13.152,61.081,61.081,0,0,0-16.361-8.654,23.674,23.674,0,0,1,19.834,4.038Z" fill="#f0f0f0"/>
        <path id="Path_9708" data-name="Path 9708" d="M496.274,301.962a23.674,23.674,0,0,1-19.991,2.867,59.7,59.7,0,0,0,16.782-7.734,60.988,60.988,0,0,0,13.77-12.376,23.674,23.674,0,0,1-10.561,17.243Z" fill="#f0f0f0"/>
        <path id="Path_9709" data-name="Path 9709" d="M532.219,202.663a23.582,23.582,0,0,1,0,20.189,59.277,59.277,0,0,0-5.261-17.716,60.988,60.988,0,0,0-10.285-15.375,23.674,23.674,0,0,1,15.546,12.9Z" fill="#f0f0f0"/>
        <path id="Path_9710" data-name="Path 9710" d="M549.172,274.277a23.674,23.674,0,0,1-18.163,8.838,59.342,59.342,0,0,0,13.613-12.495,61.12,61.12,0,0,0,9.338-15.98A23.674,23.674,0,0,1,549.172,274.277Z" fill="#f0f0f0"/>
      </g>
      <g id="freepik--Shadow--inject-3">
        <ellipse id="freepik--path--inject-3" cx="255.009" cy="14.888" rx="255.009" ry="14.888" transform="translate(73.797 532.561)" fill="#234192"/>
      </g>
      <g id="freepik--Rocket--inject-3">
        <path id="Path_9711" data-name="Path 9711" d="M334.527,174.7l-.921-.723c4.143-5.261,8.5-10.206,12.942-14.836l.829.815C342.958,164.548,338.631,169.519,334.527,174.7Z" fill="#407bff"/>
        <rect id="Rectangle_98" data-name="Rectangle 98" width="6.826" height="1.157" transform="translate(325.373 184.368) rotate(-51.58)" fill="#407bff"/>
        <path id="Path_9712" data-name="Path 9712" d="M420.872,235.715c28.58-45.941,32.473-91.211,11.666-105.862S370.42,134.113,336.79,176.5l-96.1,121.224,98.537,69.391Z" fill="#407bff"/>
        <path id="Path_9713" data-name="Path 9713" d="M409.627,227.8,325.978,357.833l-10.232-19.557,83.083-118.633c23.49-33.551,36.655-64.209,36.708-81.281a1.394,1.394,0,0,1,2.709-.473C444.164,154.92,433.906,190.063,409.627,227.8Z" fill="#fff" opacity="0.1"/>
        <ellipse id="Ellipse_24" data-name="Ellipse 24" cx="41.837" cy="60.264" rx="41.837" ry="60.264" transform="translate(216.529 331.906) rotate(-54.85)" fill="#407bff"/>
        <ellipse id="Ellipse_25" data-name="Ellipse 25" cx="41.837" cy="60.264" rx="41.837" ry="60.264" transform="translate(216.529 331.906) rotate(-54.85)" fill="#fff" opacity="0.5"/>
        <path id="Path_9714" data-name="Path 9714" d="M328.938,276.776c-21.622-15.23-46.151-19.584-61.816-12.468l-24.4,30.75c14.467-16.151,45.388-15.046,71.246,3.157s37.339,46.993,26.975,66.024l20.478-32.881C363.186,314.089,350.8,292.164,328.938,276.776Z" opacity="0.1"/>
        <path id="Path_9715" data-name="Path 9715" d="M363.567,177.634c-6,9.5-10.522,27.265,7.3,39.8s33.025,2.315,39.93-6.576Z" opacity="0.2"/>
        <path id="Path_9716" data-name="Path 9716" d="M415.006,199.914c-2.039,16.966-21.649,29.343-42.232,14.849s-15.546-37.129-.263-44.718c9.417-4.708,21.412-2.63,29.619,3.078S416.269,189.392,415.006,199.914Z" fill="#fff"/>
        <path id="Path_9717" data-name="Path 9717" d="M375.575,210.752c-8.01-5.629-12.113-12.994-11.534-20.7a19.334,19.334,0,0,1,10.653-15.783c7.155-3.577,17.282-2.459,24.634,2.709s11.837,14.349,10.851,22.293a19.307,19.307,0,0,1-11.219,15.322C391.937,217.775,383.585,216.394,375.575,210.752Z" fill="#407bff"/>
        <path id="Path_9718" data-name="Path 9718" d="M375.575,210.752c-8.01-5.629-12.113-12.994-11.534-20.7a19.334,19.334,0,0,1,10.653-15.783c7.155-3.577,17.282-2.459,24.634,2.709s11.837,14.349,10.851,22.293a19.307,19.307,0,0,1-11.219,15.322C391.937,217.775,383.585,216.394,375.575,210.752Z" opacity="0.3"/>
        <path id="Path_9719" data-name="Path 9719" d="M375.575,210.752c-8.01-5.629-12.258-12.784-11.942-20.123a16.953,16.953,0,0,1,9.89-14.678c6.879-3.183,16.809-1.789,24.161,3.393s12.008,14.06,11.324,21.609a16.927,16.927,0,0,1-10.522,14.257C391.74,217.985,383.585,216.394,375.575,210.752Z" fill="#407bff"/>
        <path id="Path_9720" data-name="Path 9720" d="M375.575,210.752c-8.01-5.629-12.258-12.784-11.942-20.123a16.953,16.953,0,0,1,9.89-14.678c6.879-3.183,16.809-1.789,24.161,3.393s12.008,14.06,11.324,21.609a16.927,16.927,0,0,1-10.522,14.257C391.74,217.985,383.585,216.394,375.575,210.752Z" fill="#fff" opacity="0.2"/>
        <path id="Path_9721" data-name="Path 9721" d="M403.261,184.539l-37.024,16.335a18.861,18.861,0,0,1-2.63-10.246,16.377,16.377,0,0,1,.986-4.958l23.9-10.522a27.791,27.791,0,0,1,14.744,9.417Z" fill="#fff" opacity="0.3"/>
        <path id="Path_9722" data-name="Path 9722" d="M408.574,195.074,374.6,210.041a32.8,32.8,0,0,1-5.55-5.156l36.958-16.309a24.989,24.989,0,0,1,2.565,6.5Z" fill="#fff" opacity="0.3"/>
        <path id="Path_9723" data-name="Path 9723" d="M445.611,165.784c-1.131-9.075-8.1-19.571-19.123-27.33s-23.24-10.785-32.17-8.8c15.191-6.195,28.8-6.431,38.22.2S446.321,149.4,445.611,165.784Z" opacity="0.1"/>
        <ellipse id="Ellipse_26" data-name="Ellipse 26" cx="13.034" cy="18.347" rx="13.034" ry="18.347" transform="translate(276.449 319.624) rotate(-54.85)" fill="#407bff" opacity="0.5"/>
        <path id="Path_9724" data-name="Path 9724" d="M274.882,324.571c-4.143,5.879-14.218,5.932-22.5.092s-11.653-15.336-7.51-21.215,14.231-5.932,22.517-.092S278.972,318.692,274.882,324.571Z" fill="#407bff" opacity="0.5"/>
        <path id="Path_9725" data-name="Path 9725" d="M332.37,365.093c-4.143,5.892-14.218,5.932-22.5.092s-11.64-15.336-7.5-21.215,14.218-5.932,22.5-.092S336.513,359.214,332.37,365.093Z" fill="#407bff" opacity="0.5"/>
        <path id="Path_9726" data-name="Path 9726" d="M293.3,359.556c-4.143,5.879-14.218,5.919-22.5.092s-11.64-15.336-7.5-21.228,14.218-5.918,22.5-.092S297.385,353.664,293.3,359.556Z" fill="#407bff" opacity="0.5"/>
        <path id="Path_9727" data-name="Path 9727" d="M313.97,330.121a9.338,9.338,0,0,1-1.526,1.683c2.3-5.866-1.171-14.007-8.575-19.215s-16.23-5.734-20.978-1.6A9.982,9.982,0,0,1,283.957,309c4.143-5.879,14.231-5.932,22.517-.092S318.1,324.229,313.97,330.121Z" fill="#407bff" opacity="0.5"/>
        <path id="Path_9728" data-name="Path 9728" d="M274.882,324.571a9.678,9.678,0,0,1-1.512,1.684c2.3-5.879-1.157-14.007-8.575-19.229s-16.23-5.734-20.978-1.591a9.627,9.627,0,0,1,1.065-1.986c4.143-5.892,14.218-5.932,22.5-.092S278.972,318.679,274.882,324.571Z" fill="#407bff" opacity="0.5"/>
        <path id="Path_9729" data-name="Path 9729" d="M332.37,365.106a9.6,9.6,0,0,1-1.513,1.67c2.3-5.879-1.171-14.007-8.575-19.215s-16.23-5.748-20.978-1.591a9.4,9.4,0,0,1,1.065-2c4.143-5.892,14.218-5.932,22.5-.092S336.526,359.214,332.37,365.106Z" fill="#407bff" opacity="0.5"/>
        <path id="Path_9730" data-name="Path 9730" d="M293.3,359.556a8.694,8.694,0,0,1-1.512,1.67c2.3-5.866-1.171-14.007-8.575-19.215s-16.23-5.734-20.978-1.591a9.126,9.126,0,0,1,1.065-2c4.143-5.892,14.218-5.919,22.5-.092S297.385,353.664,293.3,359.556Z" fill="#407bff" opacity="0.5"/>
        <path id="Path_9731" data-name="Path 9731" d="M305.895,221.26s-17.756,23.043-33.223,42.876a20.36,20.36,0,0,1-18.689,7.51c-13.507-1.67-35.511,7.891-35.511,7.891S260.1,211.159,305.895,221.26Z" fill="#407bff"/>
        <path id="Path_9732" data-name="Path 9732" d="M305.895,221.26s-17.756,23.043-33.223,42.876a20.36,20.36,0,0,1-18.689,7.51c-13.507-1.67-35.511,7.891-35.511,7.891S260.1,211.159,305.895,221.26Z" opacity="0.3"/>
        <path id="Path_9733" data-name="Path 9733" d="M389.162,279.906s-15.638,24.476-29.172,45.717a20.346,20.346,0,0,0-.763,20.123c6.129,12.166,4.524,36.156,4.524,36.156S414.112,319.6,389.162,279.906Z" fill="#407bff"/>
        <path id="Path_9734" data-name="Path 9734" d="M389.162,279.906s-15.638,24.476-29.172,45.717a20.346,20.346,0,0,0-.763,20.123c6.129,12.166,4.524,36.156,4.524,36.156S414.112,319.6,389.162,279.906Z" opacity="0.3"/>
        <path id="Path_9735" data-name="Path 9735" d="M446.532,455.87c16.427-40.193-54.6-51.583-82.7-41.5s-56.765,17.585-57.87-9.312,20.544-43.573,10.219-49.781c-5.721-3.446-7.352,2.63-10.18,11.5-8.654,27.159-57.673,33.63-35.116,72.942s10.522,30.776-27.422,46.546-18.413,61.184,18.295,61.184H482.819C584.144,547.449,488.211,353.506,446.532,455.87Z" fill="#407bff"/>
        <path id="Path_9736" data-name="Path 9736" d="M446.532,455.87c16.427-40.193-54.6-51.583-82.7-41.5s-56.765,17.585-57.87-9.312,20.544-43.573,10.219-49.781c-5.721-3.446-7.352,2.63-10.18,11.5-8.654,27.159-57.673,33.63-35.116,72.942s10.522,30.776-27.422,46.546-18.413,61.184,18.295,61.184H482.819C584.144,547.449,488.211,353.506,446.532,455.87Z" fill="#fff" opacity="0.6"/>
        <path id="Path_9737" data-name="Path 9737" d="M259.823,315.772c-2.946-10.232-18.887,2.63-34.59,18.216s-23.45,51.162-38.641,69.707S127.906,439,144.911,466.9c25.081,41.127-32.565,80.584,35.708,80.584H320.652c25.607,0,53.372-31.315,13.494-52.609s-99.615,28.356-115.74-19.005c-8-23.5,21.044-12.718,7.589-51.2s-12.56-48.966-5.708-66.116C236.964,316.759,264.36,331.318,259.823,315.772Z" fill="#407bff"/>
        <path id="Path_9738" data-name="Path 9738" d="M259.823,315.772c-2.946-10.232-18.887,2.63-34.59,18.216s-23.45,51.162-38.641,69.707S127.906,439,144.911,466.9c25.081,41.127-32.565,80.584,35.708,80.584H320.652c25.607,0,53.372-31.315,13.494-52.609s-99.615,28.356-115.74-19.005c-8-23.5,21.044-12.718,7.589-51.2s-12.56-48.966-5.708-66.116C236.964,316.759,264.36,331.318,259.823,315.772Z" fill="#fff" opacity="0.6"/>
        <path id="Path_9739" data-name="Path 9739" d="M288.85,320.494c3.472-6.339,15.388-2.538,15.125,5.761s-31.118,19.176-25.384,47.835,60.816,30.711,73.745,59.422S315.18,466.247,330.121,484.2s61.053-23.279,93.907-12.679,65.682,75.928,5.419,75.928h-185.7c-40.377,0-69.865-83.372-31.066-117.673s7.5-23.161,21.977-45.139S275.526,344.8,288.85,320.494Z" fill="#407bff"/>
        <path id="Path_9740" data-name="Path 9740" d="M288.85,320.494c3.472-6.339,15.388-2.538,15.125,5.761s-31.118,19.176-25.384,47.835,60.816,30.711,73.745,59.422S315.18,466.247,330.121,484.2s61.053-23.279,93.907-12.679,65.682,75.928,5.419,75.928h-185.7c-40.377,0-69.865-83.372-31.066-117.673s7.5-23.161,21.977-45.139S275.526,344.8,288.85,320.494Z" fill="#fff" opacity="0.8"/>
      </g>
    </g>
  </g>
</svg>
