<svg xmlns="http://www.w3.org/2000/svg" xmlns:xlink="http://www.w3.org/1999/xlink" width="754" height="490" viewBox="0 0 754 490">
  <defs>
    <clipPath id="clip-path">
      <rect id="Rectangle_108" data-name="Rectangle 108" width="754" height="490" transform="translate(306 2468)" fill="#efefef"/>
    </clipPath>
  </defs>
  <g id="Mask_Group_31" data-name="Mask Group 31" transform="translate(-306 -2468)" clip-path="url(#clip-path)">
    <g id="Good_team-bro" data-name="Good team-bro" transform="translate(395.95 2426.839)">
      <g id="freepik--Chart--inject-79">
        <g id="freepik--chart--inject-79-2" data-name="freepik--chart--inject-79">
          <rect id="Rectangle_100" data-name="Rectangle 100" width="54.589" height="74.515" transform="translate(159.227 456.075)" fill="#407bff"/>
          <rect id="Rectangle_101" data-name="Rectangle 101" width="54.589" height="74.515" transform="translate(159.227 456.075)" opacity="0.4"/>
          <rect id="Rectangle_102" data-name="Rectangle 102" width="54.589" height="178.01" transform="translate(254.148 352.579)" fill="#407bff"/>
          <rect id="Rectangle_103" data-name="Rectangle 103" width="54.589" height="178.01" transform="translate(254.148 352.579)" opacity="0.3"/>
          <rect id="Rectangle_104" data-name="Rectangle 104" width="54.589" height="219.326" transform="translate(351.413 311.264)" fill="#407bff"/>
          <rect id="Rectangle_105" data-name="Rectangle 105" width="54.589" height="219.326" transform="translate(351.413 311.264)" opacity="0.2"/>
          <rect id="Rectangle_106" data-name="Rectangle 106" width="54.589" height="291.566" transform="translate(448.678 239.024)" fill="#407bff"/>
          <rect id="Rectangle_107" data-name="Rectangle 107" width="54.589" height="291.566" transform="translate(448.678 239.024)" opacity="0.1"/>
        </g>
      </g>
      <g id="freepik--Graphics--inject-79">
        <g id="freepik--graphics--inject-79-2" data-name="freepik--graphics--inject-79">
          <path id="Path_9741" data-name="Path 9741" d="M520.415,142.765h-5.968a.412.412,0,0,1-.423-.4h0a.434.434,0,0,1,.412-.434h5.956a.434.434,0,0,1,.434.434h0a.423.423,0,0,1-.411.4Zm-12.8,0h-6.859a.412.412,0,0,1-.423-.4h0a.434.434,0,0,1,.411-.434H507.6a.434.434,0,0,1,.434.434h0a.423.423,0,0,1-.423.423h0Zm-13.719,0h-6.859a.412.412,0,0,1-.423-.4h0a.434.434,0,0,1,.411-.434h6.859a.434.434,0,0,1,.434.434h0a.423.423,0,0,1-.423.423h0Zm-13.719,0h-6.859a.412.412,0,0,1-.423-.4h0a.434.434,0,0,1,.411-.434h6.859a.434.434,0,0,1,.434.434h0a.423.423,0,0,1-.423.423h0Zm-13.719,0H459.6a.412.412,0,0,1-.423-.4h0a.434.434,0,0,1,.412-.434h6.859a.434.434,0,0,1,.434.434h0a.423.423,0,0,1-.423.423h0Zm-13.719,0h-6.859a.412.412,0,0,1-.423-.4h0a.434.434,0,0,1,.412-.434h6.859a.434.434,0,0,1,.434.434h0a.423.423,0,0,1-.423.423h0Zm-13.719,0h-6.859a.412.412,0,0,1-.423-.4h0a.434.434,0,0,1,.412-.434h6.859a.434.434,0,0,1,.434.434h0a.423.423,0,0,1-.423.423h0Zm-13.719,0H418.44a.412.412,0,0,1-.423-.4h0a.434.434,0,0,1,.412-.434h6.859a.434.434,0,0,1,.434.434h0a.423.423,0,0,1-.423.423h0Zm-13.719,0h-6.859a.412.412,0,0,1-.423-.4h0a.434.434,0,0,1,.412-.434h6.859a.434.434,0,0,1,.434.434h0a.423.423,0,0,1-.423.423h0Zm-13.719,0H391a.412.412,0,0,1-.423-.4h0a.434.434,0,0,1,.412-.434h6.859a.434.434,0,0,1,.434.434h0a.423.423,0,0,1-.423.423h0Zm-13.719,0h-6.859a.412.412,0,0,1-.423-.4h0a.434.434,0,0,1,.412-.434h6.859a.434.434,0,0,1,.434.434h0a.423.423,0,0,1-.423.423h0Zm-13.719,0h-6.859a.412.412,0,0,1-.423-.4h0a.434.434,0,0,1,.412-.434h6.859a.434.434,0,0,1,.434.434h0a.423.423,0,0,1-.423.423h0Zm-13.719,0h-6.859a.412.412,0,0,1-.423-.4h0a.434.434,0,0,1,.412-.434h6.859a.434.434,0,0,1,.434.434h0a.423.423,0,0,1-.423.423h0Zm-13.719,0h-6.859a.412.412,0,0,1-.423-.4h0a.434.434,0,0,1,.412-.434h6.859a.434.434,0,0,1,.434.434h0a.423.423,0,0,1-.423.423h0Zm-13.719,0H322.41a.412.412,0,0,1-.423-.4h0a.434.434,0,0,1,.412-.434h6.859a.434.434,0,0,1,.434.434h0a.423.423,0,0,1-.423.423h0Zm-13.719,0h-6.859a.412.412,0,0,1-.423-.4h0a.434.434,0,0,1,.412-.434h6.859a.434.434,0,0,1,.434.434h0a.423.423,0,0,1-.423.423h0Zm-13.719,0h-6.859a.412.412,0,0,1-.423-.4h0a.434.434,0,0,1,.412-.434h6.859a.434.434,0,0,1,.434.434h0a.423.423,0,0,1-.423.423h0Zm-13.719,0h-6.859a.412.412,0,0,1-.423-.4h0a.434.434,0,0,1,.412-.434H288.1a.434.434,0,0,1,.434.434h0a.423.423,0,0,1-.423.423h0Zm-13.719,0h-6.859a.412.412,0,0,1-.423-.4h0a.434.434,0,0,1,.412-.434h6.859a.434.434,0,0,1,.434.434h0a.423.423,0,0,1-.423.423h0Zm-13.719,0h-6.859a.412.412,0,0,1-.423-.4h0a.434.434,0,0,1,.412-.434h6.859a.434.434,0,0,1,.434.434h0a.423.423,0,0,1-.423.423h0Zm-13.719,0H240.1a.412.412,0,0,1-.423-.4h0a.434.434,0,0,1,.412-.434h6.859a.434.434,0,0,1,.434.434h0a.423.423,0,0,1-.423.423h0Zm-13.719,0H226.38a.412.412,0,0,1-.423-.4h0a.434.434,0,0,1,.412-.434h6.859a.434.434,0,0,1,.434.434h0a.423.423,0,0,1-.423.423h0Zm-13.719,0h-6.859a.412.412,0,0,1-.423-.4h0a.434.434,0,0,1,.412-.434h6.859a.434.434,0,0,1,.434.434h0a.423.423,0,0,1-.423.423h0Zm-13.719,0h-6.859a.412.412,0,0,1-.423-.4h0a.434.434,0,0,1,.412-.434h6.859a.434.434,0,0,1,.434.434h0a.423.423,0,0,1-.423.423h0Zm-13.719,0h-6.859a.412.412,0,0,1-.423-.4h0a.434.434,0,0,1,.412-.434h6.859a.434.434,0,0,1,.434.434h0a.423.423,0,0,1-.423.423h0Zm-13.719,0h-6.859a.412.412,0,0,1-.423-.4h0a.434.434,0,0,1,.412-.434h6.859a.434.434,0,0,1,.434.434h0a.423.423,0,0,1-.423.423h0Zm-13.719,0h-6.859a.412.412,0,0,1-.423-.4h0a.434.434,0,0,1,.412-.434h6.859a.434.434,0,0,1,.434.434h0a.423.423,0,0,1-.423.423h0Zm-13.719,0h-6.859a.412.412,0,0,1-.423-.4h0a.434.434,0,0,1,.412-.434h6.859a.434.434,0,0,1,.434.434h0a.423.423,0,0,1-.423.423h0Zm-13.719,0H130.35a.412.412,0,0,1-.423-.4h0a.434.434,0,0,1,.412-.434H137.2a.434.434,0,0,1,.434.434.423.423,0,0,1-.423.423h0Zm-13.719,0h-6.859a.412.412,0,0,1-.423-.4h0a.434.434,0,0,1,.412-.434h6.859a.434.434,0,0,1,.434.434.423.423,0,0,1-.423.423h0Zm-13.719,0h-6.882a.412.412,0,0,1-.423-.4h0a.434.434,0,0,1,.412-.434h6.859a.429.429,0,0,1,.011.857h0Zm-13.719,0H89.171a.412.412,0,0,1-.423-.4h0a.434.434,0,0,1,.412-.434h6.859a.429.429,0,0,1,.011.857h0Zm-13.719,0H75.452a.412.412,0,0,1-.423-.4h0a.434.434,0,0,1,.412-.434H82.3a.429.429,0,1,1,.011.857h0Zm-13.719,0H61.734a.412.412,0,0,1-.423-.4h0a.434.434,0,0,1,.412-.434h6.859a.429.429,0,1,1,.011.857h0Zm-13.719,0H48.015a.412.412,0,0,1-.423-.4h0A.434.434,0,0,1,48,141.93h6.859a.429.429,0,1,1,.011.857h0Zm-13.719,0H34.3a.412.412,0,0,1-.423-.4h0a.434.434,0,0,1,.412-.434h6.859a.429.429,0,1,1,.011.857h0Z" fill="#fff"/>
          <path id="Path_9742" data-name="Path 9742" d="M520.415,239.447h-6.859a.434.434,0,0,1,0-.857h6.859a.434.434,0,1,1,.137.857.274.274,0,0,1-.137,0Zm-13.719,0h-6.859a.434.434,0,0,1,0-.857H506.7a.434.434,0,1,1,.137.857.274.274,0,0,1-.137,0Zm-13.719,0h-6.859a.434.434,0,0,1,0-.857h6.859a.434.434,0,1,1,.137.857.274.274,0,0,1-.137,0Zm-13.719,0H472.4a.434.434,0,0,1,0-.857h6.859a.434.434,0,1,1,.137.857.274.274,0,0,1-.137,0Zm-13.719,0h-6.859a.434.434,0,0,1,0-.857h6.859a.434.434,0,1,1,.137.857.274.274,0,0,1-.137,0Zm-13.719,0h-6.859a.434.434,0,0,1,0-.857h6.859a.434.434,0,1,1,.137.857.274.274,0,0,1-.137,0Zm-13.719,0h-6.859a.434.434,0,0,1,0-.857H438.1a.434.434,0,1,1,.137.857.274.274,0,0,1-.137,0Zm-13.719,0h-6.859a.434.434,0,0,1,0-.857h6.859a.434.434,0,1,1,.137.857.274.274,0,0,1-.137,0Zm-13.719,0h-6.859a.434.434,0,0,1,0-.857h6.859a.434.434,0,1,1,.137.857.274.274,0,0,1-.137,0Zm-13.719,0h-6.859a.434.434,0,0,1,0-.857h6.859a.434.434,0,1,1,.137.857.274.274,0,0,1-.137,0Zm-13.719,0H376.37a.434.434,0,0,1,0-.857h6.859a.434.434,0,1,1,.137.857.274.274,0,0,1-.137,0Zm-13.719,0h-6.859a.434.434,0,0,1,0-.857h6.859a.434.434,0,1,1,.137.857.274.274,0,0,1-.137,0Zm-13.719,0h-6.859a.434.434,0,0,1,0-.857h6.859a.434.434,0,1,1,.137.857.274.274,0,0,1-.137,0Zm-13.719,0h-6.859a.434.434,0,0,1,0-.857h6.859a.434.434,0,1,1,.137.857.274.274,0,0,1-.137,0Zm-13.719,0H321.5a.434.434,0,0,1,0-.857h6.859a.434.434,0,1,1,.137.857.274.274,0,0,1-.137,0Zm-13.719,0h-6.859a.434.434,0,0,1,0-.857h6.859a.434.434,0,1,1,.137.857.274.274,0,0,1-.137,0Zm-13.719,0h-6.859a.434.434,0,0,1,0-.857h6.859a.434.434,0,1,1,.137.857.274.274,0,0,1-.137,0Zm-13.719,0H280.34a.434.434,0,0,1,0-.857H287.2a.434.434,0,1,1,.137.857.274.274,0,0,1-.137,0Zm-13.719,0h-6.859a.434.434,0,0,1,0-.857h6.859a.434.434,0,1,1,.137.857A.274.274,0,0,1,273.48,239.447Zm-13.719,0H252.9a.434.434,0,0,1,0-.857h6.859a.434.434,0,1,1,.137.857A.274.274,0,0,1,259.762,239.447Zm-13.719,0h-6.859a.434.434,0,0,1,0-.857h6.859a.434.434,0,1,1,.137.857.274.274,0,0,1-.137,0Zm-13.719,0h-6.859a.434.434,0,0,1,0-.857h6.859a.434.434,0,1,1,.137.857.275.275,0,0,1-.137,0Zm-13.719,0h-6.859a.434.434,0,0,1,0-.857h6.859a.434.434,0,1,1,.137.857.274.274,0,0,1-.137,0Zm-13.719,0h-6.859a.434.434,0,0,1,0-.857h6.859a.434.434,0,1,1,.137.857.274.274,0,0,1-.137,0Zm-13.719,0h-6.859a.434.434,0,0,1,0-.857h6.859a.434.434,0,1,1,.137.857.274.274,0,0,1-.137,0Zm-13.719,0h-6.859a.434.434,0,0,1,0-.857h6.859a.434.434,0,1,1,.137.857.274.274,0,0,1-.137,0Zm-13.719,0h-6.859a.434.434,0,0,1,0-.857h6.859a.434.434,0,1,1,.137.857.274.274,0,0,1-.137,0Zm-13.719,0h-6.859a.434.434,0,0,1,0-.857h6.859a.434.434,0,1,1,.137.857.274.274,0,0,1-.137,0Zm-13.719,0h-6.859a.434.434,0,0,1,0-.857h6.859a.434.434,0,1,1,.137.857.274.274,0,0,1-.137,0Zm-13.719,0h-6.859a.434.434,0,0,1,0-.857h6.859a.434.434,0,1,1,.137.857A.274.274,0,0,1,122.576,239.447Zm-13.719,0H102a.434.434,0,0,1,0-.857h6.859a.434.434,0,1,1,.137.857.275.275,0,0,1-.137,0Zm-13.719,0H88.279a.434.434,0,0,1,0-.857h6.859a.434.434,0,1,1,.137.857A.274.274,0,0,1,95.138,239.447Zm-13.719,0H74.561a.434.434,0,0,1,0-.857H81.42a.434.434,0,1,1,.137.857A.274.274,0,0,1,81.42,239.447Zm-13.719,0H60.842a.434.434,0,0,1,0-.857H67.7a.434.434,0,1,1,.137.857.274.274,0,0,1-.137,0Zm-13.719,0H47.123a.434.434,0,0,1,0-.857h6.859a.434.434,0,1,1,.137.857.274.274,0,0,1-.137,0Zm-13.719,0H34.3a.434.434,0,0,1,0-.857h5.945a.434.434,0,1,1,.137.857.274.274,0,0,1-.137,0Z" fill="#fff"/>
          <path id="Path_9743" data-name="Path 9743" d="M520.415,336.483h-5.968a.412.412,0,0,1-.423-.4h0a.434.434,0,0,1,.412-.434h5.956a.434.434,0,0,1,.434.434h0a.423.423,0,0,1-.411.4Zm-12.8,0h-6.859a.412.412,0,0,1-.423-.4h0a.434.434,0,0,1,.411-.434H507.6a.434.434,0,0,1,.434.434h0a.423.423,0,0,1-.423.423h0Zm-13.719,0h-6.859a.412.412,0,0,1-.423-.4h0a.434.434,0,0,1,.411-.434h6.859a.434.434,0,0,1,.434.434h0a.423.423,0,0,1-.423.423h0Zm-13.719,0h-6.859a.412.412,0,0,1-.423-.4h0a.434.434,0,0,1,.411-.434h6.859a.434.434,0,0,1,.434.434h0a.423.423,0,0,1-.423.423h0Zm-13.719,0H459.6a.412.412,0,0,1-.423-.4h0a.434.434,0,0,1,.412-.434h6.859a.434.434,0,0,1,.434.434h0a.423.423,0,0,1-.423.423h0Zm-13.719,0h-6.859a.412.412,0,0,1-.423-.4h0a.434.434,0,0,1,.412-.434h6.859a.434.434,0,0,1,.434.434h0a.423.423,0,0,1-.423.423h0Zm-13.719,0h-6.859a.412.412,0,0,1-.423-.4h0a.434.434,0,0,1,.412-.434h6.859a.434.434,0,0,1,.434.434h0a.423.423,0,0,1-.423.423h0Zm-13.719,0H418.44a.412.412,0,0,1-.423-.4h0a.434.434,0,0,1,.412-.434h6.859a.434.434,0,0,1,.434.434h0a.423.423,0,0,1-.423.423h0Zm-13.719,0h-6.859a.412.412,0,0,1-.423-.4h0a.434.434,0,0,1,.412-.434h6.859a.434.434,0,0,1,.434.434h0a.423.423,0,0,1-.423.423h0Zm-13.719,0H391a.412.412,0,0,1-.423-.4h0a.434.434,0,0,1,.412-.434h6.859a.434.434,0,0,1,.434.434h0a.423.423,0,0,1-.423.423h0Zm-13.719,0h-6.859a.412.412,0,0,1-.423-.4h0a.434.434,0,0,1,.412-.434h6.859a.434.434,0,0,1,.434.434h0a.423.423,0,0,1-.423.423h0Zm-13.719,0h-6.859a.412.412,0,0,1-.423-.4h0a.434.434,0,0,1,.412-.434h6.859a.434.434,0,0,1,.434.434h0a.423.423,0,0,1-.423.423h0Zm-13.719,0h-6.859a.412.412,0,0,1-.423-.4h0a.434.434,0,0,1,.412-.434h6.859a.434.434,0,0,1,.434.434h0a.423.423,0,0,1-.423.423h0Zm-13.719,0h-6.859a.412.412,0,0,1-.423-.4h0a.434.434,0,0,1,.412-.434h6.859a.434.434,0,0,1,.434.434h0a.423.423,0,0,1-.423.423h0Zm-13.719,0H322.41a.412.412,0,0,1-.423-.4h0a.434.434,0,0,1,.412-.434h6.859a.434.434,0,0,1,.434.434h0a.423.423,0,0,1-.423.423h0Zm-13.719,0h-6.859a.412.412,0,0,1-.423-.4h0a.434.434,0,0,1,.412-.434h6.859a.434.434,0,0,1,.434.434h0a.423.423,0,0,1-.423.423h0Zm-13.719,0h-6.859a.412.412,0,0,1-.423-.4h0a.434.434,0,0,1,.412-.434h6.859a.434.434,0,0,1,.434.434h0a.423.423,0,0,1-.423.423h0Zm-13.719,0h-6.859a.412.412,0,0,1-.423-.4h0a.434.434,0,0,1,.412-.434H288.1a.434.434,0,0,1,.434.434h0a.423.423,0,0,1-.423.423h0Zm-13.719,0h-6.859a.412.412,0,0,1-.423-.4h0a.434.434,0,0,1,.412-.434h6.859a.434.434,0,0,1,.434.434h0a.423.423,0,0,1-.423.423h0Zm-13.719,0h-6.859a.412.412,0,0,1-.423-.4h0a.434.434,0,0,1,.412-.434h6.859a.434.434,0,0,1,.434.434h0a.423.423,0,0,1-.423.423h0Zm-13.719,0H240.1a.412.412,0,0,1-.423-.4h0a.434.434,0,0,1,.412-.434h6.859a.434.434,0,0,1,.434.434h0a.423.423,0,0,1-.423.423h0Zm-13.719,0H226.38a.412.412,0,0,1-.423-.4h0a.434.434,0,0,1,.412-.434h6.859a.434.434,0,0,1,.434.434h0a.423.423,0,0,1-.423.423h0Zm-13.719,0h-6.859a.412.412,0,0,1-.423-.4h0a.434.434,0,0,1,.412-.434h6.859a.434.434,0,0,1,.434.434h0a.423.423,0,0,1-.423.423h0Zm-13.719,0h-6.859a.412.412,0,0,1-.423-.4h0a.434.434,0,0,1,.412-.434h6.859a.434.434,0,0,1,.434.434h0a.423.423,0,0,1-.423.423h0Zm-13.719,0h-6.859a.412.412,0,0,1-.423-.4h0a.434.434,0,0,1,.412-.434h6.859a.434.434,0,0,1,.434.434h0a.423.423,0,0,1-.423.423h0Zm-13.719,0h-6.859a.412.412,0,0,1-.423-.4h0a.434.434,0,0,1,.412-.434h6.859a.434.434,0,0,1,.434.434h0a.423.423,0,0,1-.423.423h0Zm-13.719,0h-6.859a.412.412,0,0,1-.423-.4h0a.434.434,0,0,1,.412-.434h6.859a.434.434,0,0,1,.434.434h0a.423.423,0,0,1-.423.423h0Zm-13.719,0h-6.859a.412.412,0,0,1-.423-.4h0a.434.434,0,0,1,.412-.434h6.859a.434.434,0,0,1,.434.434h0a.423.423,0,0,1-.423.423h0Zm-13.719,0H130.35a.412.412,0,0,1-.423-.4h0a.434.434,0,0,1,.412-.434H137.2a.434.434,0,0,1,.434.434h0a.423.423,0,0,1-.423.423h0Zm-13.719,0h-6.859a.412.412,0,0,1-.423-.4h0a.434.434,0,0,1,.412-.434h6.859a.434.434,0,0,1,.434.434h0a.423.423,0,0,1-.423.423h0Zm-13.719,0h-6.882a.412.412,0,0,1-.423-.4h0a.434.434,0,0,1,.412-.434h6.859a.434.434,0,0,1,.434.434h0a.434.434,0,0,1-.423.423h0Zm-13.719,0H89.171a.412.412,0,0,1-.423-.4h0a.434.434,0,0,1,.412-.434h6.859a.434.434,0,0,1,.434.434h0a.434.434,0,0,1-.423.423h0Zm-13.719,0H75.452a.412.412,0,0,1-.423-.4h0a.434.434,0,0,1,.412-.434H82.3a.434.434,0,0,1,.434.434h0a.434.434,0,0,1-.423.423h0Zm-13.719,0H61.734a.412.412,0,0,1-.423-.4h0a.434.434,0,0,1,.412-.434h6.859a.434.434,0,0,1,.434.434h0a.434.434,0,0,1-.423.423h0Zm-13.719,0H48.015a.412.412,0,0,1-.423-.4h0a.434.434,0,0,1,.412-.434h6.859a.434.434,0,0,1,.434.434h0a.434.434,0,0,1-.423.423h0Zm-13.719,0H34.3a.412.412,0,0,1-.423-.4h0a.434.434,0,0,1,.412-.434h6.859a.434.434,0,0,1,.434.434h0a.434.434,0,0,1-.423.423h0Z" fill="#fff"/>
          <path id="Path_9744" data-name="Path 9744" d="M520.415,433.165h-6.859a.434.434,0,0,1,0-.857h6.859a.434.434,0,1,1,.137.857.274.274,0,0,1-.137,0Zm-13.719,0h-6.859a.434.434,0,0,1,0-.857H506.7a.434.434,0,1,1,.137.857.274.274,0,0,1-.137,0Zm-13.719,0h-6.859a.434.434,0,0,1,0-.857h6.859a.434.434,0,1,1,.137.857.274.274,0,0,1-.137,0Zm-13.719,0H472.4a.434.434,0,0,1,0-.857h6.859a.434.434,0,1,1,.137.857.273.273,0,0,1-.137,0Zm-13.719,0h-6.859a.434.434,0,0,1,0-.857h6.859a.434.434,0,1,1,.137.857.274.274,0,0,1-.137,0Zm-13.719,0h-6.859a.434.434,0,0,1,0-.857h6.859a.434.434,0,1,1,.137.857.274.274,0,0,1-.137,0Zm-13.719,0h-6.859a.434.434,0,0,1,0-.857H438.1a.434.434,0,1,1,.137.857.274.274,0,0,1-.137,0Zm-13.719,0h-6.859a.434.434,0,0,1,0-.857h6.859a.434.434,0,1,1,.137.857.274.274,0,0,1-.137,0Zm-13.719,0h-6.859a.434.434,0,0,1,0-.857h6.859a.434.434,0,1,1,.137.857.273.273,0,0,1-.137,0Zm-13.719,0h-6.859a.434.434,0,0,1,0-.857h6.859a.434.434,0,1,1,.137.857.274.274,0,0,1-.137,0Zm-13.719,0H376.37a.434.434,0,0,1,0-.857h6.859a.434.434,0,1,1,.137.857.274.274,0,0,1-.137,0Zm-13.719,0h-6.859a.434.434,0,0,1,0-.857h6.859a.434.434,0,1,1,.137.857.274.274,0,0,1-.137,0Zm-13.719,0h-6.859a.434.434,0,0,1,0-.857h6.859a.434.434,0,1,1,.137.857.274.274,0,0,1-.137,0Zm-13.719,0h-6.859a.434.434,0,0,1,0-.857h6.859a.434.434,0,1,1,.137.857.274.274,0,0,1-.137,0Zm-13.719,0H321.5a.434.434,0,0,1,0-.857h6.859a.434.434,0,1,1,.137.857.274.274,0,0,1-.137,0Zm-13.719,0h-6.859a.434.434,0,0,1,0-.857h6.859a.434.434,0,1,1,.137.857.274.274,0,0,1-.137,0Zm-13.719,0h-6.859a.434.434,0,0,1,0-.857h6.859a.434.434,0,1,1,.137.857.274.274,0,0,1-.137,0Zm-13.719,0H280.34a.434.434,0,0,1,0-.857H287.2a.434.434,0,1,1,.137.857.274.274,0,0,1-.137,0Zm-13.719,0h-6.859a.434.434,0,0,1,0-.857h6.859a.434.434,0,1,1,.137.857A.274.274,0,0,1,273.48,433.165Zm-13.719,0H252.9a.434.434,0,0,1,0-.857h6.859a.434.434,0,1,1,.137.857A.274.274,0,0,1,259.762,433.165Zm-13.719,0h-6.859a.434.434,0,0,1,0-.857h6.859a.434.434,0,1,1,.137.857.274.274,0,0,1-.137,0Zm-13.719,0h-6.859a.434.434,0,0,1,0-.857h6.859a.434.434,0,1,1,.137.857.274.274,0,0,1-.137,0Zm-13.719,0h-6.859a.434.434,0,0,1,0-.857h6.859a.434.434,0,1,1,.137.857.274.274,0,0,1-.137,0Zm-13.719,0h-6.859a.434.434,0,0,1,0-.857h6.859a.434.434,0,1,1,.137.857.274.274,0,0,1-.137,0Zm-13.719,0h-6.859a.434.434,0,0,1,0-.857h6.859a.434.434,0,1,1,.137.857.274.274,0,0,1-.137,0Zm-13.719,0h-6.859a.434.434,0,0,1,0-.857h6.859a.434.434,0,1,1,.137.857.274.274,0,0,1-.137,0Zm-13.719,0h-6.859a.434.434,0,0,1,0-.857h6.859a.434.434,0,1,1,.137.857.274.274,0,0,1-.137,0Zm-13.719,0h-6.859a.434.434,0,0,1,0-.857h6.859a.434.434,0,1,1,.137.857.274.274,0,0,1-.137,0Zm-13.719,0h-6.859a.434.434,0,0,1,0-.857h6.859a.434.434,0,1,1,.137.857.274.274,0,0,1-.137,0Zm-13.719,0h-6.859a.434.434,0,0,1,0-.857h6.859a.434.434,0,1,1,.137.857.274.274,0,0,1-.137,0Zm-13.719,0H102a.434.434,0,0,1,0-.857h6.859a.434.434,0,1,1,.137.857.274.274,0,0,1-.137,0Zm-13.719,0H88.279a.434.434,0,0,1,0-.857h6.859a.434.434,0,1,1,.137.857.274.274,0,0,1-.137,0Zm-13.719,0H74.561a.434.434,0,0,1,0-.857H81.42a.434.434,0,1,1,.137.857.274.274,0,0,1-.137,0Zm-13.719,0H60.842a.434.434,0,0,1,0-.857H67.7a.434.434,0,1,1,.137.857.274.274,0,0,1-.137,0Zm-13.719,0H47.123a.434.434,0,0,1,0-.857h6.859a.434.434,0,1,1,.137.857.274.274,0,0,1-.137,0Zm-13.719,0H34.3a.434.434,0,0,1,0-.857h5.945a.434.434,0,1,1,.137.857.274.274,0,0,1-.137,0Z" fill="#fff"/>
          <path id="Path_9745" data-name="Path 9745" d="M422.567,531.024a.434.434,0,0,1-.423-.423h0v-.149a.435.435,0,0,1,.412-.434h0a.434.434,0,0,1,.434.434h0v.149a.434.434,0,0,1-.423.423Zm0-7.019a.435.435,0,0,1-.423-.423v-6.859a.435.435,0,0,1,.412-.435h0a.434.434,0,0,1,.434.434h0v6.859a.435.435,0,0,1-.423.423Zm0-13.719a.435.435,0,0,1-.423-.423V503a.434.434,0,0,1,.412-.434h0a.434.434,0,0,1,.434.434h0v6.859a.434.434,0,0,1-.423.423Zm0-13.719a.435.435,0,0,1-.423-.423v-6.859a.434.434,0,0,1,.412-.434h0a.434.434,0,0,1,.434.434h0v6.859a.434.434,0,0,1-.423.423Zm0-13.719a.434.434,0,0,1-.423-.423v-6.859a.434.434,0,0,1,.412-.434h0a.434.434,0,0,1,.434.434h0v6.859a.434.434,0,0,1-.423.423Zm0-13.719a.434.434,0,0,1-.423-.423v-6.859a.434.434,0,0,1,.412-.434h0a.434.434,0,0,1,.434.434h0v6.859a.434.434,0,0,1-.423.423Zm0-13.719a.434.434,0,0,1-.423-.423v-6.859a.434.434,0,0,1,.412-.434h0a.434.434,0,0,1,.434.434h0v6.859a.434.434,0,0,1-.423.423Zm0-13.719a.434.434,0,0,1-.423-.423v-6.859a.434.434,0,0,1,.412-.434h0a.434.434,0,0,1,.434.434h0v6.859a.434.434,0,0,1-.423.423Zm0-13.719a.434.434,0,0,1-.423-.423v-6.859a.434.434,0,0,1,.412-.434h0a.434.434,0,0,1,.434.434h0v6.859a.434.434,0,0,1-.423.423Zm0-13.719a.434.434,0,0,1-.423-.423v-6.859a.434.434,0,0,1,.412-.434h0a.434.434,0,0,1,.434.434h0v6.859a.434.434,0,0,1-.423.423Zm0-13.719a.434.434,0,0,1-.423-.423v-6.859a.434.434,0,0,1,.412-.434h0a.434.434,0,0,1,.434.434h0v6.859a.434.434,0,0,1-.423.423Zm0-13.719a.434.434,0,0,1-.423-.423v-6.859a.434.434,0,0,1,.412-.434h0a.434.434,0,0,1,.434.434h0V386.4a.434.434,0,0,1-.423.423Zm0-13.719a.434.434,0,0,1-.423-.423v-6.859a.434.434,0,0,1,.412-.434h0a.434.434,0,0,1,.434.434h0v6.859a.434.434,0,0,1-.423.423Zm0-13.719a.435.435,0,0,1-.423-.423V352.1a.435.435,0,0,1,.412-.434h0a.434.434,0,0,1,.434.434h0v6.859a.434.434,0,0,1-.423.423Zm0-13.719a.435.435,0,0,1-.423-.423v-6.859a.435.435,0,0,1,.412-.434h0a.434.434,0,0,1,.434.434h0v6.859a.434.434,0,0,1-.423.423Zm0-13.719a.434.434,0,0,1-.423-.423v-6.859a.434.434,0,0,1,.412-.434h0a.434.434,0,0,1,.434.434h0v6.859a.434.434,0,0,1-.423.423Zm0-13.719a.435.435,0,0,1-.423-.423v-6.859a.434.434,0,0,1,.412-.434h0a.434.434,0,0,1,.434.434h0V317.8a.434.434,0,0,1-.423.423Zm0-13.719a.435.435,0,0,1-.423-.423v-6.859a.435.435,0,0,1,.412-.434h0a.434.434,0,0,1,.434.434h0v6.859a.434.434,0,0,1-.423.423Zm0-13.719a.435.435,0,0,1-.423-.423v-6.859a.434.434,0,0,1,.412-.434h0a.434.434,0,0,1,.434.434h0v6.859a.434.434,0,0,1-.434.423Zm0-13.719a.434.434,0,0,1-.423-.423v-6.859a.434.434,0,0,1,.412-.434h0a.434.434,0,0,1,.434.434h0v6.859a.434.434,0,0,1-.434.423Zm0-13.719a.434.434,0,0,1-.423-.423v-6.859a.434.434,0,0,1,.412-.434h0a.434.434,0,0,1,.434.434h0v6.859a.434.434,0,0,1-.434.423Zm0-13.719a.434.434,0,0,1-.423-.423V242.35a.434.434,0,0,1,.412-.434h0a.434.434,0,0,1,.434.434h0v6.859a.434.434,0,0,1-.434.423Zm0-13.719a.434.434,0,0,1-.423-.423v-6.859a.434.434,0,0,1,.412-.434h0a.434.434,0,0,1,.434.434h0v6.859a.434.434,0,0,1-.434.423Zm0-13.719a.434.434,0,0,1-.423-.423v-6.859a.434.434,0,0,1,.412-.434h0a.434.434,0,0,1,.434.434h0v6.859a.434.434,0,0,1-.434.423Zm0-13.719a.434.434,0,0,1-.423-.423v-6.859a.434.434,0,0,1,.412-.434h0a.434.434,0,0,1,.434.434h0v6.859a.434.434,0,0,1-.434.423Zm0-13.719a.434.434,0,0,1-.423-.423v-6.859a.434.434,0,0,1,.412-.434h0a.434.434,0,0,1,.434.434h0v6.859a.434.434,0,0,1-.434.423Zm0-13.719a.434.434,0,0,1-.423-.423v-6.859a.434.434,0,0,1,.412-.434h0a.434.434,0,0,1,.434.434h0v6.859a.434.434,0,0,1-.434.423Zm0-13.719a.434.434,0,0,1-.423-.423v-6.859a.434.434,0,0,1,.412-.434h0a.434.434,0,0,1,.434.434h0V166.9a.434.434,0,0,1-.434.423Zm0-13.719a.434.434,0,0,1-.423-.423V146.32a.434.434,0,0,1,.412-.434h0a.434.434,0,0,1,.434.434h0v6.859a.434.434,0,0,1-.434.423Zm0-13.719a.434.434,0,0,1-.423-.423V132.6a.434.434,0,0,1,.412-.434h0a.434.434,0,0,1,.434.434h0v6.859a.434.434,0,0,1-.434.423Zm0-13.719a.434.434,0,0,1-.423-.423v-6.859a.434.434,0,0,1,.412-.434h0a.434.434,0,0,1,.434.434h0v6.859a.434.434,0,0,1-.434.423Zm0-13.719a.434.434,0,0,1-.423-.423v-6.848a.434.434,0,0,1,.412-.434h0a.434.434,0,0,1,.434.434v6.859a.434.434,0,0,1-.423.412Zm0-13.719a.434.434,0,0,1-.423-.423V91.457a.434.434,0,0,1,.412-.434h0a.434.434,0,0,1,.434.434v6.859a.434.434,0,0,1-.423.412Z" fill="#fff"/>
          <path id="Path_9746" data-name="Path 9746" d="M325.885,531.024a.434.434,0,0,1-.423-.434V523.73a.434.434,0,0,1,.857,0v6.859A.434.434,0,0,1,325.885,531.024Zm0-13.719a.435.435,0,0,1-.423-.435v-6.859a.434.434,0,0,1,.857,0v6.859a.434.434,0,0,1-.434.434Zm0-13.719a.434.434,0,0,1-.423-.434v-6.859a.434.434,0,0,1,.857,0v6.859a.434.434,0,0,1-.434.434Zm0-13.719a.434.434,0,0,1-.423-.434v-6.859a.434.434,0,0,1,.857,0v6.859A.434.434,0,0,1,325.885,489.868Zm0-13.719a.434.434,0,0,1-.423-.434v-6.859a.434.434,0,0,1,.857,0v6.859A.434.434,0,0,1,325.885,476.15Zm0-13.719a.434.434,0,0,1-.423-.434v-6.859a.434.434,0,0,1,.857,0V462a.434.434,0,0,1-.434.434Zm0-13.719a.434.434,0,0,1-.423-.434v-6.859a.434.434,0,0,1,.857,0v6.859a.434.434,0,0,1-.435.434Zm0-13.719a.434.434,0,0,1-.423-.434V427.7a.434.434,0,0,1,.857,0v6.859A.434.434,0,0,1,325.885,434.994Zm0-13.719a.434.434,0,0,1-.423-.434v-6.859a.434.434,0,0,1,.857,0v6.859A.434.434,0,0,1,325.885,421.275Zm0-13.719a.434.434,0,0,1-.423-.434v-6.859a.434.434,0,0,1,.857,0v6.859A.434.434,0,0,1,325.885,407.557Zm0-13.719a.434.434,0,0,1-.423-.434v-6.859a.434.434,0,0,1,.857,0V393.4A.434.434,0,0,1,325.885,393.838Zm0-13.719a.434.434,0,0,1-.423-.434v-6.859a.434.434,0,0,1,.857,0v6.859A.434.434,0,0,1,325.885,380.12Zm0-13.719a.434.434,0,0,1-.423-.434v-6.859a.434.434,0,0,1,.857,0v6.859A.434.434,0,0,1,325.885,366.4Zm0-13.719a.434.434,0,0,1-.423-.434v-6.859a.434.434,0,0,1,.857,0v6.859A.434.434,0,0,1,325.885,352.682Zm0-13.719a.434.434,0,0,1-.423-.434V331.67a.434.434,0,0,1,.857,0v6.859A.434.434,0,0,1,325.885,338.964Zm0-13.719a.434.434,0,0,1-.423-.434v-6.859a.434.434,0,0,1,.857,0v6.859A.434.434,0,0,1,325.885,325.245Zm0-13.719a.434.434,0,0,1-.423-.434v-6.859a.434.434,0,0,1,.857,0v6.859A.434.434,0,0,1,325.885,311.527Zm0-13.719a.434.434,0,0,1-.423-.434v-6.859a.434.434,0,0,1,.857,0v6.859A.434.434,0,0,1,325.885,297.808Zm0-13.719a.434.434,0,0,1-.423-.434V276.8a.434.434,0,0,1,.857,0v6.859a.434.434,0,0,1-.434.434Zm0-13.719a.434.434,0,0,1-.423-.434v-6.859a.434.434,0,0,1,.857,0v6.859A.434.434,0,0,1,325.885,270.371Zm0-13.719a.434.434,0,0,1-.423-.434v-6.859a.434.434,0,0,1,.857,0v6.859a.434.434,0,0,1-.434.434Zm0-13.719a.434.434,0,0,1-.423-.434V235.64a.434.434,0,0,1,.857,0V242.5A.434.434,0,0,1,325.885,242.934Zm0-13.719a.434.434,0,0,1-.423-.434v-6.859a.434.434,0,0,1,.857,0v6.859a.434.434,0,0,1-.434.434Zm0-13.719a.434.434,0,0,1-.423-.434V208.2a.434.434,0,0,1,.857,0v6.859A.434.434,0,0,1,325.885,215.5Zm0-13.719a.434.434,0,0,1-.423-.434v-6.859a.434.434,0,0,1,.857,0v6.859A.434.434,0,0,1,325.885,201.778Zm0-13.719a.434.434,0,0,1-.423-.434v-6.859a.434.434,0,0,1,.857,0v6.859A.434.434,0,0,1,325.885,188.059Zm0-13.719a.434.434,0,0,1-.423-.434v-6.859a.434.434,0,0,1,.857,0v6.859A.434.434,0,0,1,325.885,174.341Zm0-13.719a.434.434,0,0,1-.423-.434v-6.859a.434.434,0,0,1,.857,0v6.859A.434.434,0,0,1,325.885,160.622Zm0-13.719a.434.434,0,0,1-.423-.434V139.61a.434.434,0,0,1,.857,0v6.859A.434.434,0,0,1,325.885,146.9Zm0-13.719a.434.434,0,0,1-.423-.434v-6.859a.434.434,0,0,1,.857,0v6.859A.434.434,0,0,1,325.885,133.185Zm0-13.719a.434.434,0,0,1-.423-.434v-6.859a.434.434,0,0,1,.857,0v6.859a.434.434,0,0,1-.434.434Zm0-13.719a.434.434,0,0,1-.423-.434V98.454a.434.434,0,0,1,.857,0v6.859a.434.434,0,0,1-.434.434Zm0-13.719a.434.434,0,0,1-.423-.434v-.137a.434.434,0,1,1,.857-.137.275.275,0,0,1,0,.137v.149a.434.434,0,0,1-.434.423Z" fill="#fff"/>
          <path id="Path_9747" data-name="Path 9747" d="M228.849,531.024a.434.434,0,0,1-.423-.434v-.137a.434.434,0,1,1,.857-.137.274.274,0,0,1,0,.137v.149a.434.434,0,0,1-.434.423Zm0-7.019a.446.446,0,0,1-.423-.423v-6.859a.434.434,0,1,1,.857-.137.274.274,0,0,1,0,.137v6.859a.434.434,0,0,1-.434.423Zm0-13.719a.446.446,0,0,1-.423-.423V503a.434.434,0,1,1,.857-.137.274.274,0,0,1,0,.137v6.859a.434.434,0,0,1-.434.423Zm0-13.719a.446.446,0,0,1-.423-.423v-6.859a.434.434,0,1,1,.857-.137.275.275,0,0,1,0,.137v6.859a.434.434,0,0,1-.434.423Zm0-13.719a.446.446,0,0,1-.423-.423v-6.859a.434.434,0,1,1,.857-.137.275.275,0,0,1,0,.137v6.859a.434.434,0,0,1-.434.423Zm0-13.719a.446.446,0,0,1-.423-.423v-6.859a.434.434,0,1,1,.857-.137.274.274,0,0,1,0,.137v6.859a.434.434,0,0,1-.434.423Zm0-13.719a.446.446,0,0,1-.423-.423v-6.859a.434.434,0,1,1,.857-.137.275.275,0,0,1,0,.137v6.859a.434.434,0,0,1-.434.423Zm0-13.719a.446.446,0,0,1-.423-.423v-6.859a.434.434,0,1,1,.857-.137.274.274,0,0,1,0,.137v6.859a.434.434,0,0,1-.434.423Zm0-13.719a.446.446,0,0,1-.423-.423v-6.859a.434.434,0,1,1,.857-.137.274.274,0,0,1,0,.137v6.859a.434.434,0,0,1-.434.423Zm0-13.719a.446.446,0,0,1-.423-.423v-6.859a.434.434,0,1,1,.857-.137.274.274,0,0,1,0,.137v6.859a.434.434,0,0,1-.434.423Zm0-13.719a.446.446,0,0,1-.423-.423v-6.859a.434.434,0,1,1,.857-.137.274.274,0,0,1,0,.137v6.859a.434.434,0,0,1-.434.423Zm0-13.719a.446.446,0,0,1-.423-.423v-6.859a.434.434,0,1,1,.857-.137.274.274,0,0,1,0,.137V386.4a.434.434,0,0,1-.434.423Zm0-13.719a.446.446,0,0,1-.423-.423v-6.859a.434.434,0,1,1,.857-.137.274.274,0,0,1,0,.137v6.859a.434.434,0,0,1-.434.423Zm0-13.719a.446.446,0,0,1-.423-.423V352.1a.434.434,0,1,1,.857-.137.274.274,0,0,1,0,.137v6.859a.434.434,0,0,1-.434.423Zm0-13.719a.446.446,0,0,1-.423-.423v-6.859a.434.434,0,1,1,.857-.137.274.274,0,0,1,0,.137v6.859a.434.434,0,0,1-.434.423Zm0-13.719a.446.446,0,0,1-.423-.423v-6.859a.434.434,0,1,1,.857-.137.274.274,0,0,1,0,.137v6.859a.434.434,0,0,1-.434.423Zm0-13.719a.446.446,0,0,1-.423-.423v-6.859a.434.434,0,1,1,.857-.137.274.274,0,0,1,0,.137V317.8a.434.434,0,0,1-.434.423Zm0-13.719a.446.446,0,0,1-.423-.423v-6.859a.434.434,0,1,1,.857-.137.274.274,0,0,1,0,.137v6.859a.434.434,0,0,1-.434.423Zm0-13.719a.446.446,0,0,1-.423-.423v-6.859a.434.434,0,1,1,.857-.137.274.274,0,0,1,0,.137v6.859a.434.434,0,0,1-.434.423Zm0-13.719a.446.446,0,0,1-.423-.423v-6.859a.434.434,0,1,1,.857-.137.274.274,0,0,1,0,.137v6.859a.434.434,0,0,1-.434.423Zm0-13.719a.446.446,0,0,1-.423-.423v-6.859a.434.434,0,1,1,.857-.137.274.274,0,0,1,0,.137v6.859a.434.434,0,0,1-.434.423Zm0-13.719a.446.446,0,0,1-.423-.423V242.35a.434.434,0,1,1,.857-.137.274.274,0,0,1,0,.137v6.859a.434.434,0,0,1-.434.423Zm0-13.719a.446.446,0,0,1-.423-.423v-6.859a.434.434,0,1,1,.857-.137.274.274,0,0,1,0,.137v6.859a.434.434,0,0,1-.434.423Zm0-13.719a.446.446,0,0,1-.423-.423v-6.859a.434.434,0,1,1,.857-.137.274.274,0,0,1,0,.137v6.859a.434.434,0,0,1-.434.423Zm0-13.719a.446.446,0,0,1-.423-.423v-6.859a.434.434,0,1,1,.857-.137.274.274,0,0,1,0,.137v6.859a.434.434,0,0,1-.434.423Zm0-13.719a.446.446,0,0,1-.423-.423v-6.859a.434.434,0,1,1,.857-.137.274.274,0,0,1,0,.137v6.859a.434.434,0,0,1-.434.423Zm0-13.719a.446.446,0,0,1-.423-.423v-6.859a.434.434,0,1,1,.857-.137.274.274,0,0,1,0,.137v6.859a.434.434,0,0,1-.434.423Zm0-13.719a.446.446,0,0,1-.423-.423v-6.859a.434.434,0,1,1,.857-.137.274.274,0,0,1,0,.137V166.9a.434.434,0,0,1-.434.423Zm0-13.719a.446.446,0,0,1-.423-.423V146.32a.434.434,0,1,1,.857-.137.274.274,0,0,1,0,.137v6.859a.434.434,0,0,1-.434.423Zm0-13.719a.446.446,0,0,1-.423-.423V132.6a.434.434,0,1,1,.857-.137.274.274,0,0,1,0,.137v6.859a.434.434,0,0,1-.434.423Zm0-13.719a.446.446,0,0,1-.423-.423v-6.859a.434.434,0,1,1,.857-.137.274.274,0,0,1,0,.137v6.859a.434.434,0,0,1-.434.423Zm0-13.719a.446.446,0,0,1-.423-.423v-6.848a.434.434,0,1,1,.857-.137.274.274,0,0,1,0,.137v6.859a.434.434,0,0,1-.434.412Zm0-13.719a.446.446,0,0,1-.423-.423V91.457a.434.434,0,1,1,.857-.137.274.274,0,0,1,0,.137v6.859a.434.434,0,0,1-.434.412Z" fill="#fff"/>
          <path id="Path_9748" data-name="Path 9748" d="M132.167,531.024a.434.434,0,0,1-.423-.434V523.73a.434.434,0,0,1,.857,0v6.859A.434.434,0,0,1,132.167,531.024Zm0-13.719a.434.434,0,0,1-.423-.435v-6.859a.434.434,0,0,1,.857,0v6.859a.434.434,0,0,1-.434.434Zm0-13.719a.434.434,0,0,1-.423-.434v-6.859a.434.434,0,0,1,.857,0v6.859a.434.434,0,0,1-.434.434Zm0-13.719a.434.434,0,0,1-.423-.434v-6.859a.434.434,0,0,1,.857,0v6.859A.434.434,0,0,1,132.167,489.868Zm0-13.719a.434.434,0,0,1-.423-.434v-6.859a.434.434,0,0,1,.857,0v6.859A.434.434,0,0,1,132.167,476.15Zm0-13.719a.434.434,0,0,1-.423-.434v-6.859a.434.434,0,0,1,.857,0V462a.434.434,0,0,1-.434.434Zm0-13.719a.434.434,0,0,1-.423-.434v-6.859a.434.434,0,0,1,.857,0v6.859a.434.434,0,0,1-.434.434Zm0-13.719a.434.434,0,0,1-.423-.434V427.7a.434.434,0,0,1,.857,0v6.859A.434.434,0,0,1,132.167,434.994Zm0-13.719a.434.434,0,0,1-.423-.434v-6.859a.434.434,0,0,1,.857,0v6.859A.434.434,0,0,1,132.167,421.275Zm0-13.719a.434.434,0,0,1-.423-.434v-6.859a.434.434,0,0,1,.857,0v6.859A.434.434,0,0,1,132.167,407.557Zm0-13.719a.434.434,0,0,1-.423-.434v-6.859a.434.434,0,0,1,.857,0V393.4A.434.434,0,0,1,132.167,393.838Zm0-13.719a.434.434,0,0,1-.423-.434v-6.859a.434.434,0,0,1,.857,0v6.859A.434.434,0,0,1,132.167,380.12Zm0-13.719a.434.434,0,0,1-.423-.434v-6.859a.434.434,0,0,1,.857,0v6.859A.434.434,0,0,1,132.167,366.4Zm0-13.719a.434.434,0,0,1-.423-.434v-6.859a.434.434,0,0,1,.857,0v6.859A.434.434,0,0,1,132.167,352.682Zm0-13.719a.434.434,0,0,1-.423-.434V331.67a.434.434,0,0,1,.857,0v6.859A.434.434,0,0,1,132.167,338.964Zm0-13.719a.434.434,0,0,1-.423-.434v-6.859a.434.434,0,0,1,.857,0v6.859A.434.434,0,0,1,132.167,325.245Zm0-13.719a.434.434,0,0,1-.423-.434v-6.859a.434.434,0,0,1,.857,0v6.859A.434.434,0,0,1,132.167,311.527Zm0-13.719a.434.434,0,0,1-.423-.434v-6.859a.434.434,0,0,1,.857,0v6.859A.434.434,0,0,1,132.167,297.808Zm0-13.719a.434.434,0,0,1-.423-.434V276.8a.434.434,0,0,1,.857,0v6.859a.434.434,0,0,1-.434.434Zm0-13.719a.434.434,0,0,1-.423-.434v-6.859a.434.434,0,0,1,.857,0v6.859A.434.434,0,0,1,132.167,270.371Zm0-13.719a.434.434,0,0,1-.423-.434v-6.859a.434.434,0,0,1,.857,0v6.859a.434.434,0,0,1-.434.434Zm0-13.719a.434.434,0,0,1-.423-.434V235.64a.434.434,0,0,1,.857,0V242.5A.434.434,0,0,1,132.167,242.934Zm0-13.719a.434.434,0,0,1-.423-.434v-6.859a.434.434,0,0,1,.857,0v6.859a.434.434,0,0,1-.434.434Zm0-13.719a.434.434,0,0,1-.423-.434V208.2a.434.434,0,0,1,.857,0v6.859A.434.434,0,0,1,132.167,215.5Zm0-13.719a.434.434,0,0,1-.423-.434v-6.859a.434.434,0,0,1,.857,0v6.859a.434.434,0,0,1-.434.434Zm0-13.719a.434.434,0,0,1-.423-.434v-6.859a.434.434,0,0,1,.857,0v6.859A.434.434,0,0,1,132.167,188.059Zm0-13.719a.434.434,0,0,1-.423-.434v-6.859a.434.434,0,0,1,.857,0v6.859a.434.434,0,0,1-.434.434Zm0-13.719a.434.434,0,0,1-.423-.434v-6.859a.434.434,0,0,1,.857,0v6.859A.434.434,0,0,1,132.167,160.622Zm0-13.719a.434.434,0,0,1-.423-.434V139.61a.434.434,0,0,1,.857,0v6.859a.434.434,0,0,1-.434.434Zm0-13.719a.434.434,0,0,1-.423-.434v-6.859a.434.434,0,0,1,.857,0v6.859A.434.434,0,0,1,132.167,133.185Zm0-13.719a.434.434,0,0,1-.423-.434v-6.859a.434.434,0,0,1,.857,0v6.859a.434.434,0,0,1-.434.434Zm0-13.719a.434.434,0,0,1-.423-.434V98.454a.434.434,0,0,1,.857,0v6.859a.434.434,0,0,1-.434.434Zm0-13.719a.434.434,0,0,1-.423-.434v-.137a.434.434,0,1,1,.857-.137.274.274,0,0,1,0,.137v.149a.434.434,0,0,1-.434.423Z" fill="#fff"/>
        </g>
      </g>
      <g id="freepik--Clouds--inject-79">
        <path id="Path_9749" data-name="Path 9749" d="M197.456,110.755a10.748,10.748,0,0,0,.1-1.5,11.432,11.432,0,0,0-22.647-2.069h-.206a9.26,9.26,0,0,0-8.163,4.847,9.146,9.146,0,0,0-4.573-1.143,9.306,9.306,0,0,0,.091,18.612l35.154-.171a9.306,9.306,0,0,0,.217-18.6Z" fill="#fff"/>
        <path id="Path_9750" data-name="Path 9750" d="M184.538,97.882a11.432,11.432,0,0,0-9.694,9.146h-.206a9.271,9.271,0,0,0-8.151,4.893,9.409,9.409,0,0,0-4.573-1.143" fill="none" stroke="#263238" stroke-linecap="round" stroke-linejoin="round" stroke-width="0.5"/>
        <path id="Path_9751" data-name="Path 9751" d="M197.411,107.817a11.432,11.432,0,0,0-11.432-10.037" fill="none" stroke="#263238" stroke-linecap="round" stroke-linejoin="round" stroke-width="0.5"/>
        <path id="Path_9752" data-name="Path 9752" d="M197.182,129.252a9.306,9.306,0,0,0,.217-18.6" fill="none" stroke="#263238" stroke-linecap="round" stroke-linejoin="round" stroke-width="0.5"/>
        <path id="Path_9753" data-name="Path 9753" d="M192.4,129.275h3.3" fill="none" stroke="#263238" stroke-linecap="round" stroke-linejoin="round" stroke-width="0.5"/>
        <path id="Path_9754" data-name="Path 9754" d="M160.325,110.949a9.317,9.317,0,0,0,1.7,18.474l28.775-.137" fill="none" stroke="#263238" stroke-linecap="round" stroke-linejoin="round" stroke-width="0.5"/>
        <path id="Path_9755" data-name="Path 9755" d="M432.376,56.018a13.712,13.712,0,0,0,.114-1.681,12.747,12.747,0,0,0-25.277-2.286h-.229a10.392,10.392,0,0,0-9.146,5.465,10.316,10.316,0,1,0-4.973,19.469l39.269-.183a10.393,10.393,0,1,0,.24-20.784Z" fill="#fff"/>
        <path id="Path_9756" data-name="Path 9756" d="M418.017,41.7A12.758,12.758,0,0,0,407.2,51.993h-.217a10.392,10.392,0,0,0-9.146,5.465,10.369,10.369,0,0,0-5.064-1.3" fill="none" stroke="#263238" stroke-linecap="round" stroke-linejoin="round" stroke-width="0.5"/>
        <path id="Path_9757" data-name="Path 9757" d="M432.376,52.782A12.736,12.736,0,0,0,419.663,41.59" fill="none" stroke="#263238" stroke-linecap="round" stroke-linejoin="round" stroke-width="0.5"/>
        <path id="Path_9758" data-name="Path 9758" d="M432.136,76.71a10.38,10.38,0,0,0,.229-20.692" fill="none" stroke="#263238" stroke-linecap="round" stroke-linejoin="round" stroke-width="0.5"/>
        <path id="Path_9759" data-name="Path 9759" d="M426.786,76.733h3.693" fill="none" stroke="#263238" stroke-linecap="round" stroke-linejoin="round" stroke-width="0.5"/>
        <path id="Path_9760" data-name="Path 9760" d="M390.98,56.292a10.38,10.38,0,0,0,1.9,20.578l32.113-.149" fill="none" stroke="#263238" stroke-linecap="round" stroke-linejoin="round" stroke-width="0.5"/>
        <path id="Path_9761" data-name="Path 9761" d="M351.585,77.4a21.161,21.161,0,0,1,19.961-14.164,21.629,21.629,0,0,1,5.282.652,14.153,14.153,0,0,1,25.288,7,17.423,17.423,0,0,1-2.675,34.628l-45.729.069a14.153,14.153,0,0,1-2.126-28.146Z" fill="#fff"/>
        <path id="Path_9762" data-name="Path 9762" d="M402.092,71.177a17.423,17.423,0,0,1-2.687,34.628" fill="none" stroke="#263238" stroke-linecap="round" stroke-linejoin="round" stroke-width="0.5"/>
        <path id="Path_9763" data-name="Path 9763" d="M371.545,63.563a21.723,21.723,0,0,1,5.283.652,14.153,14.153,0,0,1,24.727,4.378" fill="none" stroke="#263238" stroke-linecap="round" stroke-linejoin="round" stroke-width="0.5"/>
        <path id="Path_9764" data-name="Path 9764" d="M340.141,87.548a14.187,14.187,0,0,1,11.432-9.82,21.172,21.172,0,0,1,16.92-13.947" fill="none" stroke="#263238" stroke-linecap="round" stroke-linejoin="round" stroke-width="0.5"/>
        <path id="Path_9765" data-name="Path 9765" d="M389.563,105.816H353.688a14.142,14.142,0,0,1-14.153-14.062" fill="none" stroke="#263238" stroke-linecap="round" stroke-linejoin="round" stroke-width="0.5"/>
        <path id="Path_9766" data-name="Path 9766" d="M395.084,105.8h-1.749" fill="none" stroke="#263238" stroke-linecap="round" stroke-linejoin="round" stroke-width="0.5"/>
      </g>
      <g id="freepik--Arrow--inject-79">
        <path id="Path_9767" data-name="Path 9767" d="M540.227,151.842l-20.464-47.649-47.649,20.452,6.928,16.131,20.121-8.631-34.491,86.393-51.228,63.917L335.477,307.48l-.743.24L263.02,345.834,214.3,364.343l-14.61,75.349H162.737l-30.7,72.171H36.663v17.56H143.645l30.707-72.171h39.807l15.5-79.979,40.618-15.422,71.3-37.9,82.254-26.4L480,227.477l35.463-88.828,8.631,20.109Z" fill="#abffc4"/>
      </g>
      <g id="freepik--Floor--inject-79">
        <line id="Line_104" data-name="Line 104" x2="484.472" transform="translate(35.131 530.59)" fill="none" stroke="#fff" stroke-linecap="round" stroke-linejoin="round" stroke-width="0.5"/>
      </g>
      <g id="freepik--character-3--inject-79">
        <path id="Path_9768" data-name="Path 9768" d="M267.513,332.813l-.32,5.282s-4.573,3.144-8.151,5.35c-2.286,1.406-4.367,1.761-4.093,2.869.686,2.835,10.54-.366,15.468-1.555s11.432-1.143,6.665-5.636a17.986,17.986,0,0,1-1.429-1.738L275.8,332Z" fill="#263238" stroke="#263238" stroke-linecap="round" stroke-linejoin="round" stroke-width="0.5"/>
        <path id="Path_9769" data-name="Path 9769" d="M330.824,292.469s1.383,5.533,1.143,7.4a15.022,15.022,0,0,0,.171,5.716c.949,3.19,2.961,1.921,7.351.846,4.664-1.143,8.471-1.463,8.105-3.624s-6.208-2.584-7.419-4.276-1.921-7.911-1.921-7.911Z" fill="#263238" stroke="#263238" stroke-linecap="round" stroke-linejoin="round" stroke-width="0.5"/>
        <path id="Path_9770" data-name="Path 9770" d="M284.318,251.05s-14.725,31.073-16.9,45.248-.869,38.755-.869,38.755,3.818,2.286,10.289.091c0,0,2.789-35.6,4.893-39.715s17.914-26.637,20.807-27.94,18.532,9.34,20.772,13.2,7.545,17.434,7.545,17.434,4.1,2.012,9.386-2.687c0,0-1.017-17.411-5.9-24.248s-20.178-23.6-20.178-23.6Z" fill="#fff" stroke="#263238" stroke-linecap="round" stroke-linejoin="round" stroke-width="0.5"/>
        <path id="Path_9771" data-name="Path 9771" d="M333.5,281.643c-5.5,1.738-10.518-4.87-13.433-7.774s-8.437-11.592-11.764-9.626-5.716,1.429-11.432.149-13.959,25.151-18.143,28.58-2.366.995-4.641,21.435c-1.6,14.382-5.487,17.96-7.648,18.817a16.712,16.712,0,0,0,.091,1.875s3.818,2.286,10.289.091c0,0,2.789-35.6,4.893-39.715s17.914-26.637,20.807-27.94,18.532,9.34,20.772,13.2,7.545,17.434,7.545,17.434,4.1,2.012,9.386-2.687a90.82,90.82,0,0,0-2.847-17.32A5.487,5.487,0,0,1,333.5,281.643Z" opacity="0.3"/>
        <path id="Path_9772" data-name="Path 9772" d="M269.8,294.71a12.735,12.735,0,0,0,.526,6.3" fill="none" stroke="#263238" stroke-linecap="round" stroke-linejoin="round" stroke-width="0.5"/>
        <path id="Path_9773" data-name="Path 9773" d="M325.6,275.938s-3.533.846-1.258,6.859" fill="none" stroke="#263238" stroke-linecap="round" stroke-linejoin="round" stroke-width="0.5"/>
        <path id="Path_9774" data-name="Path 9774" d="M290.766,260.322s10.632,4.036,9.58,5.5-6.368.537-6.368.537" fill="none" stroke="#263238" stroke-linecap="round" stroke-linejoin="round" stroke-width="0.5"/>
        <path id="Path_9775" data-name="Path 9775" d="M305.467,263.774a25.563,25.563,0,0,0,6.151-4.436" fill="none" stroke="#263238" stroke-linecap="round" stroke-linejoin="round" stroke-width="0.5"/>
        <path id="Path_9776" data-name="Path 9776" d="M335.225,278.007s-2.378,2.584-4.744,1.955" fill="none" stroke="#263238" stroke-linecap="round" stroke-linejoin="round" stroke-width="0.5"/>
        <path id="Path_9777" data-name="Path 9777" d="M278.648,296.436s-3.875.789-4.344,1.955" fill="none" stroke="#263238" stroke-linecap="round" stroke-linejoin="round" stroke-width="0.5"/>
        <path id="Path_9778" data-name="Path 9778" d="M260.242,218.091l-6.116,5.385a28.8,28.8,0,0,0-9.249,4.859c-5.282,3.887-19.012,14.279-19.012,14.279a28.09,28.09,0,0,1-5.019,1.143c-2.286.252-4.744,1.966-4.253,2.744s2.607-.835,3.121-.755-.48,5.03.194,6.173,1.715-.423,1.715-.423a1.578,1.578,0,0,0,2.389-.48s1.578.32,1.852-1.052a1.049,1.049,0,0,0,1.5-.857,16.319,16.319,0,0,1,.812-2.412s25.219-11.432,28.912-16.062c0,0,3.224-1.143,3.773-2.618l4.8-3.784Z" fill="#fff" stroke="#263238" stroke-linecap="round" stroke-linejoin="round" stroke-width="0.5"/>
        <path id="Path_9779" data-name="Path 9779" d="M220.5,249.69s.972-.137,1.143.32,1.143-.777,1.681-.514,1.269-1.406,1.978-.983" fill="#fff" stroke="#263238" stroke-linecap="round" stroke-linejoin="round" stroke-width="0.5"/>
        <path id="Path_9780" data-name="Path 9780" d="M350.407,194.347c-1.875,1.829-11.832,25.631-18.817,23.322a103.383,103.383,0,0,1-13.9-6.013l3.567-9.249,10.735,5.716s.206-2.892,14.05-15.285c0,0-1.635-4.573-1.418-6.436s-.251-3.841.812-3.807.789,3.27.789,3.27l.24.995s2.469.217,3.43-1.223a7.385,7.385,0,0,0,1.395-3.258c.16-.88,1.063-2.446,1.5-.972,0,0,1.143-.5,1.143,1.143a21.268,21.268,0,0,1-.1,2.652s1.063-2.138,1.463-1.7-.8,2.9-.8,2.9,1.555-1.36,1.692-.789-1.589,2.115-1.955,3.11a17.228,17.228,0,0,1-3.818,5.625Z" fill="#fff" stroke="#263238" stroke-linecap="round" stroke-linejoin="round" stroke-width="0.5"/>
        <path id="Path_9781" data-name="Path 9781" d="M292.195,197.376c-4.733.9-19.7,3.99-18.223,9.249,1.383,4.9,9.031,28.4,7.442,42.3a2.7,2.7,0,0,0,2.572,3.018,107.8,107.8,0,0,0,30.4-3.178,5.99,5.99,0,0,0,4.47-6.7c-1.075-7.042-2.641-19.869-1.635-29.918C318.729,197.548,317.917,192.483,292.195,197.376Z" fill="#407bff" stroke="#263238" stroke-linecap="round" stroke-linejoin="round" stroke-width="0.5"/>
        <path id="Path_9782" data-name="Path 9782" d="M308.371,200.852a6.528,6.528,0,0,0-1.429,8.757" fill="none" stroke="#263238" stroke-linecap="round" stroke-linejoin="round" stroke-width="0.5"/>
        <path id="Path_9783" data-name="Path 9783" d="M278.945,222.539a50.9,50.9,0,0,0,28.329,20.486" fill="none" stroke="#263238" stroke-linecap="round" stroke-linejoin="round" stroke-width="0.5"/>
        <path id="Path_9784" data-name="Path 9784" d="M285.381,247.026a54.349,54.349,0,0,0,14.6-.743" fill="none" stroke="#263238" stroke-linecap="round" stroke-linejoin="round" stroke-width="0.5"/>
        <path id="Path_9785" data-name="Path 9785" d="M275.024,204.979,257.67,217.394s3.91,9.489,8.071,10.083l13.078-8.517" fill="#407bff" stroke="#263238" stroke-linecap="round" stroke-linejoin="round" stroke-width="0.5"/>
        <path id="Path_9786" data-name="Path 9786" d="M309.32,197.982s9.146,1.612,21.024,8.357c0,0,0,7.237-4.573,11.969l-11.809-5.545" fill="#407bff" stroke="#263238" stroke-linecap="round" stroke-linejoin="round" stroke-width="0.5"/>
        <path id="Path_9787" data-name="Path 9787" d="M285.576,205.493l2.378,4.733-.663,13.01s-.1,11.158,4.447,27.814l3.43,1.486,2.584-2.035s-4.744-23.23-5.213-27.632l-2.584-13.021,1.875-4.779-3.9.48Z" fill="#fff" stroke="#263238" stroke-linecap="round" stroke-linejoin="round" stroke-width="0.5"/>
        <path id="Path_9788" data-name="Path 9788" d="M291.269,199.583c-1.806.354-5.1,1.017-8.4,1.989a15.559,15.559,0,0,0-.24,7.442,5.327,5.327,0,0,1,6.608-2.092c5.064-3.533,8.768-.915,8.768-.915a74.51,74.51,0,0,0-1.292-7.339C295.03,198.92,293.235,199.217,291.269,199.583Z" fill="#407bff" stroke="#263238" stroke-linecap="round" stroke-linejoin="round" stroke-width="0.5"/>
        <path id="Path_9789" data-name="Path 9789" d="M292.892,194.678s1.235,3.864,2.584,4.161c0,0-1.738,6.8-8.22,5.487s1.806-7.442,1.806-7.442Z" fill="#fff" stroke="#263238" stroke-linecap="round" stroke-linejoin="round" stroke-width="0.5"/>
        <path id="Path_9790" data-name="Path 9790" d="M291.669,194.347s1.36,3.087,3.361,2.641c0,0-1.52-5.373-.812-8.631s-1.612-11.5-9.34-9.237a16,16,0,0,0-9.74,2.961c-4.447,3.35-5.2.892-5.2.892s-.915,3.99,3.372,3.018c0,0-1.143,2.286-3.121,1.738,0,0,1.486,2.046,3.43,1.052,0,0-1.292,1.783-.171,3,0,0,5.293-4.241,8.4-3.5S291.669,194.347,291.669,194.347Z" fill="#263238" stroke="#263238" stroke-linecap="round" stroke-linejoin="round" stroke-width="0.5"/>
        <path id="Path_9791" data-name="Path 9791" d="M276.178,193.2s2.046,9.717,8.368,13.021c4.23,2.206,8.574-8.711,8.506-10.2a3.738,3.738,0,0,0,2.081-3.212c.1-2.355-1.612-2.927-3.007-1.829,0,0-.572,1.646-1.3,1.749s-.56-4.161-1.406-4.573-2.847-.594-3.5-2.286-3.43.686-7.031,1.143S275.515,190.791,276.178,193.2Z" fill="#fff" stroke="#263238" stroke-linecap="round" stroke-linejoin="round" stroke-width="0.5"/>
        <path id="Path_9792" data-name="Path 9792" d="M280.088,194.976a5.567,5.567,0,0,1-1.395,4.15c-.949,1.04,2.7.354,2.972,1.086" fill="none" stroke="#263238" stroke-linecap="round" stroke-linejoin="round" stroke-width="0.5"/>
        <path id="Path_9793" data-name="Path 9793" d="M278.259,194.93c.126.492,0,.937-.16.983s-.48-.309-.594-.8,0-.949.16-.995S278.145,194.427,278.259,194.93Z" fill="#263238"/>
        <path id="Path_9794" data-name="Path 9794" d="M283.129,193.741c.114.5,0,.937-.16.995s-.48-.309-.606-.812,0-.937.16-.995S283,193.2,283.129,193.741Z" fill="#263238"/>
        <path id="Path_9795" data-name="Path 9795" d="M286.33,199.08c.137,1.372-3.144,2.286-3.144,2.286" fill="none" stroke="#263238" stroke-linecap="round" stroke-linejoin="round" stroke-width="0.5"/>
        <path id="Path_9796" data-name="Path 9796" d="M276.178,193.2a3.052,3.052,0,0,1,3.007.48" fill="none" stroke="#263238" stroke-linecap="round" stroke-linejoin="round" stroke-width="0.5"/>
        <path id="Path_9797" data-name="Path 9797" d="M281.06,192.849s.766-2.949,2.458-1.806" fill="none" stroke="#263238" stroke-linecap="round" stroke-linejoin="round" stroke-width="0.5"/>
        <path id="Path_9798" data-name="Path 9798" d="M347.652,188.631a2.744,2.744,0,0,1,.652,2.675" fill="#fff" stroke="#263238" stroke-linecap="round" stroke-linejoin="round" stroke-width="0.5"/>
      </g>
      <g id="freepik--character-4--inject-79">
        <path id="Path_9799" data-name="Path 9799" d="M458.7,211.324a146.117,146.117,0,0,0-6.756-13.216c-2.6-4.047-18.52-2.286-24.819-.412s-10,24.831-11.226,32.307,7.145,39.578,7.145,39.578c-2.961,4.081-11.489,2.961-11.489,2.961s-8.883-25.562-10.735-38.869S407,187.362,407,187.362l24.9-6.379s18.086-.343,26.168.091c11.969.629,8.391,27.826,8.391,27.826S465.746,211.324,458.7,211.324Z" fill="#407bff" stroke="#263238" stroke-linecap="round" stroke-linejoin="round" stroke-width="0.5"/>
        <path id="Path_9800" data-name="Path 9800" d="M412.507,269.216s2.778,5.556-1.395,7.774-5.9,5.465-3.635,5.465h14.2c2.5,0,5.007-1.292,2.778-5.51-.446-.835-3.052-9.683-3.052-9.683Z" fill="#263238" stroke="#263238" stroke-linecap="round" stroke-linejoin="round" stroke-width="0.5"/>
        <path id="Path_9801" data-name="Path 9801" d="M458.064,206.591s.926,6.116,1.143,9.637,2.6,5.556,5.373,4.264,16.3-10.746,15.559-12.793-3.7.377-7.225,1.143a31.164,31.164,0,0,1-5.716.732l-.926-5Z" fill="#263238" stroke="#263238" stroke-linecap="round" stroke-linejoin="round" stroke-width="0.5"/>
        <path id="Path_9802" data-name="Path 9802" d="M401.692,231.787s.995,3.887,3.212,5.19" fill="none" stroke="#7f7f7f" stroke-linecap="round" stroke-linejoin="round" stroke-width="0.5"/>
        <path id="Path_9803" data-name="Path 9803" d="M415.9,196.4s9.443-2.286,9.409-.926-5.716,3.521-6.139,4.573" fill="none" stroke="#7f7f7f" stroke-linecap="round" stroke-linejoin="round" stroke-width="0.5"/>
        <path id="Path_9804" data-name="Path 9804" d="M427.14,195.067s5.933-2.515,5.933-3.921" fill="none" stroke="#7f7f7f" stroke-linecap="round" stroke-linejoin="round" stroke-width="0.5"/>
        <path id="Path_9805" data-name="Path 9805" d="M466.432,208.866a19.812,19.812,0,0,1-7.751,2.458" fill="none" stroke="#7f7f7f" stroke-linecap="round" stroke-linejoin="round" stroke-width="0.5"/>
        <path id="Path_9806" data-name="Path 9806" d="M422.693,270.565c-2.435,2.012-6.585,2.184-8.894,2.1" fill="none" stroke="#7f7f7f" stroke-linecap="round" stroke-linejoin="round" stroke-width="0.5"/>
        <path id="Path_9807" data-name="Path 9807" d="M423.607,130.327s3.144-11.672-3.338-14.645c0,0-4.356-4.447-12.575,0s-5.087,7.385-3.338,6.333c0,0-3.978,3.578-2.961,4.7s2.961-.835,2.961-.835a10.289,10.289,0,0,0,1.486,5.716c1.669,2.286,9.626,1.395,9.626,1.395l6.128-1.143Z" fill="#263238" stroke="#263238" stroke-linecap="round" stroke-linejoin="round" stroke-width="0.5"/>
        <path id="Path_9808" data-name="Path 9808" d="M407.682,191.089a4.927,4.927,0,0,1-4.573-4c-.96-4.927-2.835-14.164-4.882-22.361-2.972-11.855-14.153-23.242,15.193-28.157,28.729-4.824,22.224,8.151,21.858,15.925-.309,6.368-1.852,18.291.64,24.339a4.973,4.973,0,0,1-1.715,6.07C428.969,186.459,419.138,191.729,407.682,191.089Z" fill="#fff" stroke="#263238" stroke-linecap="round" stroke-linejoin="round" stroke-width="0.5"/>
        <path id="Path_9809" data-name="Path 9809" d="M400.423,155.763a34.3,34.3,0,0,0,27.586,14.05" fill="none" stroke="#263238" stroke-linecap="round" stroke-linejoin="round" stroke-width="0.5"/>
        <path id="Path_9810" data-name="Path 9810" d="M405.076,178.193l24.671.217a57.537,57.537,0,0,1-23.836,5.476" fill="none" stroke="#263238" stroke-linecap="round" stroke-linejoin="round" stroke-width="0.5"/>
        <path id="Path_9811" data-name="Path 9811" d="M410.14,142.491s1.143,5.465,2.286,6.025c0,0-2.778,16.851-.549,31.21l.949,5.465,4.241,2.138,3.51-4.081s-.823-3.818-1.143-5.087c-1.612-7.351-4.733-21.4-4.573-29.724,0,0,3.876-3.064,3.6-5.716Z" fill="#407bff" stroke="#263238" stroke-linecap="round" stroke-linejoin="round" stroke-width="0.5"/>
        <path id="Path_9812" data-name="Path 9812" d="M445.546,143.84l7.442-6.025a65.569,65.569,0,0,0,8.78-3.167c5.716-2.424,19.869-9.706,19.869-9.706a26.785,26.785,0,0,1,4.916,0c2.126.263,4.813-.766,4.573-1.6s-2.6.194-3.052,0,1.555-4.573,1.143-5.716-1.658,0-1.658,0a1.509,1.509,0,0,0-2.286-.08s-1.395-.652-1.943.56a.995.995,0,0,0-1.578.469,17.006,17.006,0,0,1-1.28,2.046s-24.991,5.716-29.426,9.146l-11.5,6.551Z" fill="#fff" stroke="#263238" stroke-linecap="round" stroke-linejoin="round" stroke-width="0.5"/>
        <path id="Path_9813" data-name="Path 9813" d="M390.763,163.091l-8.277,4.573a62.8,62.8,0,0,1-7.259,5.865c-5.053,3.647-18.612,11.947-18.612,11.947a26.535,26.535,0,0,0-2.538,4.207c-.88,1.955-3.144,3.715-3.715,3.052s1.509-2.115,1.6-2.607-4.7-1.029-5.533-1.978.869-1.418.869-1.418a1.509,1.509,0,0,1,1.143-2.023s.171-1.532,1.486-1.372c0,0-.149-1.143,1.223-1.143a16.922,16.922,0,0,0,2.412,0s17.857-18.383,23.1-20.395l10.506-6.756Z" fill="#fff" stroke="#263238" stroke-linecap="round" stroke-linejoin="round" stroke-width="0.5"/>
        <path id="Path_9814" data-name="Path 9814" d="M406.562,136.374s-1.269,9.363.434,11.306c0,0,1.783-5.556,6.516-2.035,0,0,6.859-4.173,7.865,1.383,0,0,2.412-6.7,2.286-11.729l-15.365-.183Z" fill="#fff" stroke="#263238" stroke-linecap="round" stroke-linejoin="round" stroke-width="0.5"/>
        <path id="Path_9815" data-name="Path 9815" d="M397.508,141.953,380.44,157.547s5.03,7.785,8.54,9.454,9.614-9.637,9.614-9.637" fill="#fff" stroke="#263238" stroke-linecap="round" stroke-linejoin="round" stroke-width="0.5"/>
        <path id="Path_9816" data-name="Path 9816" d="M428.546,135.883l19.149-5.83s3.327,7.442,1.852,12.072-15.754,5.556-15.754,5.556" fill="#fff" stroke="#263238" stroke-linecap="round" stroke-linejoin="round" stroke-width="0.5"/>
        <path id="Path_9817" data-name="Path 9817" d="M405.842,131.561s1.852,12.575,7.042,12.575,9.077-6.413,9.443-7.934a20.166,20.166,0,0,0,.469-2.286s.457.549,1.383.091,1.212-6.3.56-6.391a13.9,13.9,0,0,0-2.126,0s0,2.869-.743,2.778-.56-3.99-1.017-4.447-2.229.091-3.521-.835-2.5,1.143-5.716,1.292-3.67-1.943-4.573-.926S406.836,131.093,405.842,131.561Z" fill="#fff" stroke="#263238" stroke-linecap="round" stroke-linejoin="round" stroke-width="0.5"/>
        <path id="Path_9818" data-name="Path 9818" d="M410.815,133.1a13.867,13.867,0,0,0-.64,3.807c.183.949,2.538-.16,2.618.583" fill="none" stroke="#263238" stroke-linecap="round" stroke-linejoin="round" stroke-width="0.5"/>
        <path id="Path_9819" data-name="Path 9819" d="M412.793,139.53a4.116,4.116,0,0,0,3.11-1.3" fill="none" stroke="#263238" stroke-linecap="round" stroke-linejoin="round" stroke-width="0.5"/>
        <path id="Path_9820" data-name="Path 9820" d="M408.78,133.653c0,.469-.206.846-.457.846s-.469-.377-.469-.846.217-.846.469-.846S408.78,133.185,408.78,133.653Z" fill="#263238"/>
        <path id="Path_9821" data-name="Path 9821" d="M414.382,133.391c0,.469-.206.846-.457.846s-.469-.377-.469-.846.206-.846.469-.846S414.382,132.922,414.382,133.391Z" fill="#263238"/>
        <path id="Path_9822" data-name="Path 9822" d="M406.985,130.544s1.143-1.395,2.709,1.143" fill="none" stroke="#263238" stroke-linecap="round" stroke-linejoin="round" stroke-width="0.5"/>
        <path id="Path_9823" data-name="Path 9823" d="M412.393,131.744s2.023-2.035,3.052-1.143" fill="none" stroke="#263238" stroke-linecap="round" stroke-linejoin="round" stroke-width="0.5"/>
        <path id="Path_9824" data-name="Path 9824" d="M448.3,196.416l7.785.309" fill="none" stroke="#7f7f7f" stroke-linecap="round" stroke-linejoin="round" stroke-width="0.5"/>
        <path id="Path_9825" data-name="Path 9825" d="M461.242,182.126a11.238,11.238,0,0,1,3.178,10.438" fill="none" stroke="#7f7f7f" stroke-linecap="round" stroke-linejoin="round" stroke-width="0.5"/>
      </g>
      <g id="freepik--character-2--inject-79">
        <path id="Path_9826" data-name="Path 9826" d="M184.732,288.605l7.122-6.7a67.319,67.319,0,0,1,5.9-7.854c4.218-5.019,15.925-16.977,15.925-16.977a28.751,28.751,0,0,0,1.509-4.95c.389-2.229,2.286-4.573,3.007-4.07s-.995,2.549-.96,3.075,5.064-.16,6.151.594-.514,1.669-.514,1.669a1.578,1.578,0,0,1-.64,2.355s.217,1.6-1.143,1.783c0,0,.457,1.143-.96,1.44a17.146,17.146,0,0,0-2.446.663s-13.5,23.356-18.291,26.751l-8.894,10.632Z" fill="#efefef" stroke="#263238" stroke-linecap="round" stroke-linejoin="round" stroke-width="0.5"/>
        <path id="Path_9827" data-name="Path 9827" d="M172.351,299.294s9.889-10,14.747-13.719c0,0,5.8,6.711,5.59,12.575,0,0-7.682,8.883-11.5,9.729" fill="#fff" stroke="#263238" stroke-linecap="round" stroke-linejoin="round" stroke-width="0.5"/>
        <path id="Path_9828" data-name="Path 9828" d="M194.13,355.735a16.393,16.393,0,0,1,5.716,6.471c1.543,3.43,0,4.87,2.286,6.985,2.618,2.412,18.291-10.14,17.548-12.278s-3.9.389-7.6,1.143a32.626,32.626,0,0,1-6.048.777l-4.493-7.6Z" fill="#263238" stroke="#263238" stroke-linecap="round" stroke-linejoin="round" stroke-width="0.5"/>
        <path id="Path_9829" data-name="Path 9829" d="M167.824,345.823s9.592-4.047,13.1-13.6c0,0-2.732,9.352,16.005,27.689,0,0,5.716-.777,7.831-5.853,0,0-16.485-38.412-22.3-38.218s-27.437,18.589-27.437,18.589S157.055,347.538,167.824,345.823Z" fill="#999" stroke="#263238" stroke-linecap="round" stroke-linejoin="round" stroke-width="0.5"/>
        <path id="Path_9830" data-name="Path 9830" d="M184.732,338.6c-1.818-4.676-.9-19.32-3.841-11.284s-9.912,7.2-9.912,7.2l-2.355,3.35,2.835,5.888a24.442,24.442,0,0,0,9.466-11.535s-2.732,9.352,16.005,27.689a11.432,11.432,0,0,0,6.059-3.167C196.77,358.524,186.562,343.262,184.732,338.6Z" opacity="0.2"/>
        <path id="Path_9831" data-name="Path 9831" d="M182.457,324.8s-1.269.7-.915,5.03" fill="none" stroke="#263238" stroke-linecap="round" stroke-linejoin="round" stroke-width="0.5"/>
        <path id="Path_9832" data-name="Path 9832" d="M192.06,425.722l.732,4.687c5.407,5.556,11.7,3.647,11.992,6.139S196.3,438.6,192.941,438.6s-9.214,1.143-10.392-.88c-.583-1.017,1.063-3.647,1.681-6.025a11.238,11.238,0,0,0,.229-4.481Z" fill="#263238" stroke="#263238" stroke-linecap="round" stroke-linejoin="round" stroke-width="0.5"/>
        <path id="Path_9833" data-name="Path 9833" d="M170.979,273.32s4.882-4.093,3.121-5.716-3.933,1.315-3.933,1.315,1.738-5.259-.743-5.99-2.778,4.573-2.778,4.573-.149-4.664-2.641-4.573,0,3.27-4.241,6.059-9.5,6.151-5.407,10.826c0,0-2.481,2.927,2.492,6.139s6.208,4.287,6.859,7.922l5.716-5.43.743-10.975Z" fill="#263238" stroke="#263238" stroke-linecap="round" stroke-linejoin="round" stroke-width="0.5"/>
        <path id="Path_9834" data-name="Path 9834" d="M181.543,283.518l7.614-6.116a66.943,66.943,0,0,1,6.5-7.374c4.573-4.676,17.148-15.7,17.148-15.7a28.582,28.582,0,0,0,1.886-4.813c.56-2.184,2.607-4.413,3.315-3.818s-1.143,2.469-1.143,2.984,5.053.24,6.082,1.075-.652,1.623-.652,1.623a1.578,1.578,0,0,1-.812,2.286s.091,1.612-1.3,1.692c0,0,.366,1.143-1.075,1.36a16.484,16.484,0,0,0-2.492.469s-15.273,22.2-20.361,25.185l-9.694,9.9Z" fill="#efefef" stroke="#263238" stroke-linecap="round" stroke-linejoin="round" stroke-width="0.5"/>
        <path id="Path_9835" data-name="Path 9835" d="M142.9,339.821s-4.093,8.38,5.465,16.771,27.106,27.689,28.272,33.931,6.631,38.424,6.631,38.424,6.242,1.749,10.289-1.372c0,0,.389-30.958-2.927-43.168s-15.422-27.2-18.909-36.983a36.711,36.711,0,0,1-.789-6.242Z" fill="#999" stroke="#263238" stroke-linecap="round" stroke-linejoin="round" stroke-width="0.5"/>
        <path id="Path_9836" data-name="Path 9836" d="M181.486,387.79c.572-3.247-17.743-28.923-23.562-28.923-2.355,0-6.276-1.143-9.534-2.286,9.557,8.391,27.083,27.677,28.249,33.908s6.631,38.423,6.631,38.423a16.475,16.475,0,0,0,4.641.469C183.075,428.238,180.9,391.037,181.486,387.79Z" opacity="0.2"/>
        <path id="Path_9837" data-name="Path 9837" d="M182.457,386.041a4.436,4.436,0,0,0-4.653,1.749" fill="none" stroke="#263238" stroke-linecap="round" stroke-linejoin="round" stroke-width="0.5"/>
        <path id="Path_9838" data-name="Path 9838" d="M172.934,273.755l2.629,4.253s3.784.583,4.31,1.749-2.115,1.9-2.115,1.9,3.658,4.241,3.075,5.716-5.716,4.241-5.716,4.241l-11.261.7s1.9-3.178,1.017-5.373c0,0-4.241.263-3.8-3.9s3.361-.926,3.361-.926a1.909,1.909,0,0,0,.88-2.286c-.446-1.749,1.017-2.481,1.143-3.944S170.339,269.513,172.934,273.755Z" fill="#efefef" stroke="#263238" stroke-linecap="round" stroke-linejoin="round" stroke-width="0.5"/>
        <path id="Path_9839" data-name="Path 9839" d="M174.249,278.03c.309.526.309,1.143,0,1.258s-.777-.114-1.086-.64-.309-1.143,0-1.258S173.952,277.516,174.249,278.03Z" fill="#263238"/>
        <path id="Path_9840" data-name="Path 9840" d="M172.351,275.812s-3.658-1.612-3.807,0" fill="none" stroke="#263238" stroke-linecap="round" stroke-linejoin="round" stroke-width="0.5"/>
        <path id="Path_9841" data-name="Path 9841" d="M161.091,296.093V291.52S181.669,286.947,179,294.3l-2.126,1.795Z" fill="#fff" stroke="#263238" stroke-linecap="round" stroke-linejoin="round" stroke-width="0.5"/>
        <path id="Path_9842" data-name="Path 9842" d="M141.336,343.479a122.484,122.484,0,0,1,11.124-38.241c9.363-19.012,29.186-12.85,29.838-7.259,1.143,9.923-4.573,18.9-7.454,30.935-1.909,7.911-.823,14.3-3.372,14.645C165.035,344.405,141.336,343.479,141.336,343.479Z" fill="#fff" stroke="#263238" stroke-linecap="round" stroke-linejoin="round" stroke-width="0.5"/>
        <path id="Path_9843" data-name="Path 9843" d="M169.425,293.647s9.8-10.129,14.633-13.89c0,0,5.853,6.665,5.716,12.575,0,0-7.6,8.963-11.432,9.832" fill="#fff" stroke="#263238" stroke-linecap="round" stroke-linejoin="round" stroke-width="0.5"/>
        <path id="Path_9844" data-name="Path 9844" d="M177.759,307.1a90.886,90.886,0,0,1-21.332,21.6" fill="none" stroke="#263238" stroke-linecap="round" stroke-linejoin="round" stroke-width="0.5"/>
        <path id="Path_9845" data-name="Path 9845" d="M169.3,322.044A48.838,48.838,0,0,1,150.745,339.1c.114-.229.217-.457.331-.7" fill="none" stroke="#263238" stroke-linecap="round" stroke-linejoin="round" stroke-width="0.5"/>
      </g>
      <g id="freepik--character-1--inject-79">
        <path id="Path_9846" data-name="Path 9846" d="M137.655,345.7A6.791,6.791,0,0,0,139,342.633c.1-1.463-.32-9.969.72-9.717s.983,4,.983,4,2.858-7.717,3.43-7.431-.137,2.561-.137,2.561,1.418-2.561,1.943-2.286-.674,3.727-.674,3.727,1.52-1.875,2.046-1.658-1.338,4.573-1.338,4.573,1.955-2.286,2.5-1.829-2.023,3.235-2.481,4.87a15.125,15.125,0,0,1-3.43,5.636l-.846,4.3Z" fill="#fff" stroke="#263238" stroke-linecap="round" stroke-linejoin="round" stroke-width="0.5"/>
        <path id="Path_9847" data-name="Path 9847" d="M95.127,381.457s3.841-3.372,16.531-5.442a8.689,8.689,0,0,0,4.767-2.4c2.847-2.824,6.859-6.562,9.077-8.929,3.075-3.372,3.978-5.327,11.432-21.252a7.431,7.431,0,0,1,6.265,6.4s-6.574,15.788-10.209,20.864-19.435,16.691-19.435,16.691" fill="#407bff" stroke="#263238" stroke-linecap="round" stroke-linejoin="round" stroke-width="0.5"/>
        <path id="Path_9848" data-name="Path 9848" d="M93.732,369.087l2.584-9.992,9.18,3.807-.9,8.311Z" fill="#fff" stroke="#263238" stroke-linecap="round" stroke-linejoin="round" stroke-width="0.5"/>
        <path id="Path_9849" data-name="Path 9849" d="M94.624,366.561s3.43-6.276,3.43-7.785c0,0,4.127-2.1,3.43-5.43s-1.246-5.4-1.246-5.4l1.143-1.909s3.978-.869,2.767-3.43-7.042,1.006-11,1.7-9.329,2.412-7.591,6.413l-.389,1.04S81.386,360.3,94.624,366.561Z" fill="#263238" stroke="#263238" stroke-linecap="round" stroke-linejoin="round" stroke-width="0.5"/>
        <path id="Path_9850" data-name="Path 9850" d="M91.56,372.609l1.383-5.316s8.917.24,13.158,4.138v4.207Z" fill="#407bff" stroke="#263238" stroke-linecap="round" stroke-linejoin="round" stroke-width="0.5"/>
        <path id="Path_9851" data-name="Path 9851" d="M98.762,361.714s3.738,5.579,9.226,3.533c3.876-1.463.537-6.859.537-6.859s1.863-.857,1.783-1.921-3.132-3.35-3.132-3.35-.549-3.544-1.589-4.253l-4.184-2.8s-4.573-.16-4.733.686,2.789,3.761,2.789,3.761.3,6.219-.492,6.619-2.881-.206-2.881-.206-4.047-1.612-3.361,1.886S97.173,363.417,98.762,361.714Z" fill="#fff" stroke="#263238" stroke-linecap="round" stroke-linejoin="round" stroke-width="0.5"/>
        <path id="Path_9852" data-name="Path 9852" d="M106,353.688c.194.526.171,1.029,0,1.143s-.572-.274-.766-.8-.183-1.029,0-1.143S105.793,353.162,106,353.688Z" fill="#263238"/>
        <path id="Path_9853" data-name="Path 9853" d="M102.97,351.459a1.532,1.532,0,0,1,2.081-.3" fill="none" stroke="#263238" stroke-linecap="round" stroke-linejoin="round" stroke-width="0.5"/>
        <path id="Path_9854" data-name="Path 9854" d="M106.319,360.308s1.452.537,2.149-.114" fill="none" stroke="#263238" stroke-linecap="round" stroke-linejoin="round" stroke-width="0.5"/>
        <path id="Path_9855" data-name="Path 9855" d="M123.067,498.511l.732,4.687c5.407,5.556,11.7,3.658,11.992,6.139s-8.483,2.046-11.855,2.046-9.214,1.143-10.38-.869c-.583-1.029,1.063-3.658,1.681-6.025a11.158,11.158,0,0,0,.217-4.493Z" fill="#263238" stroke="#263238" stroke-linecap="round" stroke-linejoin="round" stroke-width="0.5"/>
        <path id="Path_9856" data-name="Path 9856" d="M67.45,498.511,64.672,503.2c5.407,5.556,11.7,3.658,11.992,6.139s-8.483,2.046-11.844,2.046-9.214,1.143-10.392-.869C53.846,509.486,58.67,500,58.67,500Z" fill="#263238" stroke="#263238" stroke-linecap="round" stroke-linejoin="round" stroke-width="0.5"/>
        <path id="Path_9857" data-name="Path 9857" d="M116.608,416.245s.777,6.185,0,8.551c0,0,11.512,25.379,11.9,36.7.069,2.069-4.1,39.555-4.1,39.555s-3.315,2.7-9.752,0c0,0-1.143-26.888.4-37.612,0,0-8-19.435-10.289-25.437s-3.212-18.623-3.212-18.623Z" fill="#fff" stroke="#263238" stroke-linecap="round" stroke-linejoin="round" stroke-width="0.5"/>
        <path id="Path_9858" data-name="Path 9858" d="M104.7,438c2.286,5.956,10.289,25.437,10.289,25.437-1.566,10.723-.4,37.612-.4,37.612,6.436,2.7,9.752,0,9.752,0s.114-.949.286-2.538h0s-7.751,5.19-8.551-3.2,2.755-26.294,3.167-31.518-8.506-15.079-5.853-22.338,3.155-25.151,3.155-25.151l-15.1,3.132S102.352,432.044,104.7,438Z" opacity="0.3"/>
        <path id="Path_9859" data-name="Path 9859" d="M121.444,461.917s1.543,3.544,4.047,3.75" fill="none" stroke="#263238" stroke-linecap="round" stroke-linejoin="round" stroke-width="0.5"/>
        <path id="Path_9860" data-name="Path 9860" d="M115.03,432.97a29.644,29.644,0,0,1-6.734,8.483" fill="none" stroke="#263238" stroke-linecap="round" stroke-linejoin="round" stroke-width="0.5"/>
        <path id="Path_9861" data-name="Path 9861" d="M115.03,418.486s-1.463,13.17-8.2,22.236S93.961,467.336,88.7,471.44,67.633,500.98,67.633,500.98s-6.859,4.9-11.112-.583c0,0,13.17-26.626,21.355-36.857,0,0,8.185-19.778,10.826-25.539,0,0-1.761-7.808,4.093-18.051Z" fill="#fff" stroke="#263238" stroke-linecap="round" stroke-linejoin="round" stroke-width="0.5"/>
        <path id="Path_9862" data-name="Path 9862" d="M61.345,500.192c-.389-7.214,11.306-21.653,19.435-38.275s18.749-19.252,13.09-20.464a8,8,0,0,1-5.362-4.573,9.705,9.705,0,0,0,.16,1.143c-2.641,5.716-10.826,25.539-10.826,25.539-8.185,10.232-21.355,36.857-21.355,36.857a6.219,6.219,0,0,0,4.1,2.481,3.361,3.361,0,0,0,.755-2.709Z" opacity="0.3"/>
        <path id="Path_9863" data-name="Path 9863" d="M79.922,464.557s-.88,4.241,1.9,6.151" fill="none" stroke="#263238" stroke-linecap="round" stroke-linejoin="round" stroke-width="0.5"/>
        <path id="Path_9864" data-name="Path 9864" d="M94.521,423.642a3.841,3.841,0,0,1-3.43-4.573,9.774,9.774,0,0,0,0-4.093c-2.355-11.787-9.317-33.233-4.721-39.487,6.436-8.78,19.595-4.39,24.008,2.046,3.99,5.853,8.951,29.369,8.94,39.955a3.853,3.853,0,0,1-2.709,3.647A58.167,58.167,0,0,1,94.521,423.642Z" fill="#407bff" stroke="#263238" stroke-linecap="round" stroke-linejoin="round" stroke-width="0.5"/>
        <path id="Path_9865" data-name="Path 9865" d="M137.838,344.108a6.859,6.859,0,0,0,1.761-2.858c.3-1.429,1.04-9.912,2.035-9.523s.434,4.093.434,4.093,3.864-7.259,4.356-6.859-.492,2.515-.492,2.515,1.761-2.286,2.286-2.046-1.143,3.6-1.143,3.6,1.761-1.658,2.286-1.36-1.943,4.39-1.943,4.39,2.286-1.955,2.732-1.463-2.446,2.915-3.121,4.481a15.159,15.159,0,0,1-4.116,5.122l-1.429,4.138Z" fill="#fff" stroke="#263238" stroke-linecap="round" stroke-linejoin="round" stroke-width="0.5"/>
        <path id="Path_9866" data-name="Path 9866" d="M90.84,373.729s4.276-2.812,17.148-3.132a8.757,8.757,0,0,0,5.053-1.738c3.2-2.412,7.74-5.556,10.2-7.6,3.51-2.927,4.676-4.744,14.233-19.5a7.431,7.431,0,0,1,5.35,7.191s-8.666,14.747-12.953,19.275-21.55,13.9-21.55,13.9" fill="#407bff" stroke="#263238" stroke-linecap="round" stroke-linejoin="round" stroke-width="0.5"/>
        <path id="Path_9867" data-name="Path 9867" d="M109.646,383.789A23.4,23.4,0,0,1,100.4,395" fill="none" stroke="#263238" stroke-linecap="round" stroke-linejoin="round" stroke-width="0.5"/>
        <path id="Path_9868" data-name="Path 9868" d="M93.492,404.7l-2.5,12.93" fill="none" stroke="#263238" stroke-linecap="round" stroke-linejoin="round" stroke-width="0.5"/>
        <path id="Path_9869" data-name="Path 9869" d="M115.259,465.175a12.918,12.918,0,0,0,6.151,8.86" fill="none" stroke="#263238" stroke-linecap="round" stroke-linejoin="round" stroke-width="0.5"/>
        <path id="Path_9870" data-name="Path 9870" d="M191.112,385.938c-.423,2.5-.835,5.007-1.258,7.5" fill="none" stroke="#263238" stroke-linecap="round" stroke-linejoin="round" stroke-width="0.5"/>
      </g>
    </g>
  </g>
</svg>
