<svg xmlns="http://www.w3.org/2000/svg" xmlns:xlink="http://www.w3.org/1999/xlink" width="120" height="120" viewBox="0 0 120 120">
  <defs>
    <clipPath id="clip-path">
      <circle id="Ellipse_285" data-name="Ellipse 285" cx="60" cy="60" r="60" transform="translate(466 4964)" fill="#fff"/>
    </clipPath>
  </defs>
  <g id="Mask_Group_44" data-name="Mask Group 44" transform="translate(-466 -4964)" clip-path="url(#clip-path)">
    <g id="Vector_3" data-name="Vector 3" transform="translate(483.073 4984.778)">
      <path id="Path_18772" data-name="Path 18772" d="M55.745,33.918a3.657,3.657,0,0,0-2.453,0h0a3.7,3.7,0,0,0-1.384.87L40.123,46.562a3.686,3.686,0,0,0-.894,3.787L41.182,56.2l2.34-.779L41.57,49.567a1.233,1.233,0,0,1,.3-1.262L53.286,36.9V51.1a4.883,4.883,0,1,0,2.467,0V36.9L67.169,48.317a1.234,1.234,0,0,1,.3,1.262L60.93,69.192H48.1L44.97,59.78a1.233,1.233,0,1,0-2.34.779l2.921,8.762a4.262,4.262,0,0,0-3.217,4.126V74.7a4.262,4.262,0,0,0,4.258,4.258H47.81v8.62a3.7,3.7,0,0,0,3.7,3.7h6.017a3.7,3.7,0,0,0,3.7-3.7v-8.62h1.217A4.262,4.262,0,0,0,66.7,74.7v-1.25a4.262,4.262,0,0,0-3.217-4.126l6.324-18.965a3.682,3.682,0,0,0-.894-3.8l-11.78-11.78a3.7,3.7,0,0,0-1.382-.87h0Zm3.016,53.656a1.233,1.233,0,0,1-1.233,1.233H51.51a1.233,1.233,0,0,1-1.233-1.233v-8.62h8.484Zm5.475-14.127V74.7a1.793,1.793,0,0,1-1.791,1.791H46.592A1.793,1.793,0,0,1,44.8,74.7v-1.25a1.8,1.8,0,0,1,1.791-1.793H62.445a1.8,1.8,0,0,1,1.791,1.793ZM56.943,55.813A2.418,2.418,0,1,1,54.528,53.4a2.418,2.418,0,0,1,2.416,2.418Z" transform="translate(-11.597 -9.762)" fill="#fff"/>
      <path id="Path_18773" data-name="Path 18773" d="M93.213,56.844h-2.57a1.211,1.211,0,0,0,.148-.773,38.238,38.238,0,0,0-75.764.138,1.233,1.233,0,0,0,.082.635H12.626a1.233,1.233,0,0,0-1.233,1.233v6.579a1.233,1.233,0,0,0,1.233,1.233h2.438a1.188,1.188,0,0,0-.049.541,38.2,38.2,0,0,0,6.692,17.018,1.234,1.234,0,1,0,2.013-1.427,35.754,35.754,0,0,1-6.26-15.916,1.265,1.265,0,0,0-.049-.216H19.2a1.233,1.233,0,0,0,1.233-1.233V58.077A1.233,1.233,0,0,0,19.2,56.844H17.385a1.262,1.262,0,0,0,.086-.3,35.771,35.771,0,0,1,70.878-.13,1.2,1.2,0,0,0,.146.434h-1.86A1.233,1.233,0,0,0,85.4,58.077v6.579a1.233,1.233,0,0,0,1.233,1.233h1.807a1.258,1.258,0,0,0-.084.3A35.771,35.771,0,0,1,26.32,85.282a1.233,1.233,0,1,0-1.834,1.645A38.238,38.238,0,0,0,90.8,66.518a1.234,1.234,0,0,0-.082-.635h2.485a1.233,1.233,0,0,0,1.233-1.233V58.077a1.233,1.233,0,0,0-1.225-1.233ZM17.971,63.422H13.86V59.311h4.112Zm74.009,0H87.868V59.311H91.98Z" transform="translate(-9.997 -9.149)" fill="#fff"/>
      <path id="Path_18774" data-name="Path 18774" d="M15.248,18.982a5.345,5.345,0,0,0,5.127-3.836H47.729v2.6a1.233,1.233,0,0,0,1.233,1.233h8.223a1.233,1.233,0,0,0,1.233-1.233v-2.6H85.291a5.345,5.345,0,1,0-.13-2.467H58.42V9.525a1.233,1.233,0,0,0-1.233-1.233H48.963a1.233,1.233,0,0,0-1.233,1.233v3.154H20.515a5.345,5.345,0,1,0-5.267,6.3Zm75.164-8.223a2.878,2.878,0,1,1-2.878,2.878A2.878,2.878,0,0,1,90.412,10.759Zm-40.216,0h5.756v5.756H50.2Zm-34.949,0a2.878,2.878,0,1,1-2.878,2.878,2.878,2.878,0,0,1,2.878-2.878Z" transform="translate(-9.911 -8.291)" fill="#fff"/>
    </g>
  </g>
</svg>
