<svg xmlns="http://www.w3.org/2000/svg" xmlns:xlink="http://www.w3.org/1999/xlink" width="345" height="307" viewBox="0 0 345 307">
  <defs>
    <clipPath id="clip-path">
      <rect id="Rectangle_13" data-name="Rectangle 13" width="345" height="307" transform="translate(201 281)" fill="#e5f7ff" stroke="#707070" stroke-width="1"/>
    </clipPath>
  </defs>
  <g id="Mask_Group_1" data-name="Mask Group 1" transform="translate(-201 -281)" clip-path="url(#clip-path)">
    <g id="Interaction_Design-bro" data-name="Interaction Design-bro" transform="translate(168.354 231.157)">
      <g id="freepik--background-simple--inject-33">
        <path id="Path_8972" data-name="Path 8972" d="M72.1,211.982s9.316,50.205,56.568,77.436,105.975,20.756,153.706,16.709,79.95-36.3,79.264-77.571-38.606-47.635-65.214-90.672-27.174-58.428-72.893-80.405S115.531,62.747,88.931,116.417,72.1,211.982,72.1,211.982Z" fill="#e5f7ff"/>
        <path id="Path_8973" data-name="Path 8973" d="M72.1,211.982s9.316,50.205,56.568,77.436,105.975,20.756,153.706,16.709,79.95-36.3,79.264-77.571-38.606-47.635-65.214-90.672-27.174-58.428-72.893-80.405S115.531,62.747,88.931,116.417,72.1,211.982,72.1,211.982Z" fill="#e5f7ff" opacity="0.7"/>
      </g>
      <g id="freepik--Floor--inject-33">
        <ellipse id="Ellipse_1" data-name="Ellipse 1" cx="123.881" cy="8.957" rx="123.881" ry="8.957" transform="translate(60.927 338.929)" fill="#407bff"/>
        <ellipse id="Ellipse_2" data-name="Ellipse 2" cx="123.881" cy="8.957" rx="123.881" ry="8.957" transform="translate(60.927 338.929)" fill="#fff" opacity="0.5"/>
      </g>
      <g id="freepik--Graphics--inject-33">
        <rect id="Rectangle_1" data-name="Rectangle 1" width="202.514" height="262.124" rx="7.983" transform="translate(147.144 61.07)" fill="none" stroke="#263238" stroke-linecap="round" stroke-linejoin="round" stroke-width="0.817"/>
        <path id="Path_8974" data-name="Path 8974" d="M232.172,133.1v.814h-.814" fill="none" stroke="#263238" stroke-linecap="round" stroke-linejoin="round" stroke-width="0.817"/>
        <line id="Line_1" data-name="Line 1" x1="47.491" transform="translate(182.253 133.916)" fill="none" stroke="#263238" stroke-linecap="round" stroke-linejoin="round" stroke-width="0.817" stroke-dasharray="2.017 2.017"/>
        <path id="Path_8975" data-name="Path 8975" d="M181.447,133.916h-.822V133.1" fill="none" stroke="#263238" stroke-linecap="round" stroke-linejoin="round" stroke-width="0.817"/>
        <line id="Line_2" data-name="Line 2" y1="36.938" transform="translate(180.625 94.591)" fill="none" stroke="#263238" stroke-linecap="round" stroke-linejoin="round" stroke-width="0.817" stroke-dasharray="1.969 1.969"/>
        <path id="Path_8976" data-name="Path 8976" d="M180.625,93.8v-.814h.822" fill="none" stroke="#263238" stroke-linecap="round" stroke-linejoin="round" stroke-width="0.817"/>
        <line id="Line_3" data-name="Line 3" x2="47.499" transform="translate(183.052 92.987)" fill="none" stroke="#263238" stroke-linecap="round" stroke-linejoin="round" stroke-width="0.817" stroke-dasharray="2.017 2.017"/>
        <path id="Path_8977" data-name="Path 8977" d="M231.357,92.987h.814V93.8" fill="none" stroke="#263238" stroke-linecap="round" stroke-linejoin="round" stroke-width="0.817"/>
        <line id="Line_4" data-name="Line 4" y2="36.946" transform="translate(232.172 95.374)" fill="none" stroke="#263238" stroke-linecap="round" stroke-linejoin="round" stroke-width="0.817" stroke-dasharray="1.969 1.969"/>
        <rect id="Rectangle_2" data-name="Rectangle 2" width="35.086" height="27.861" transform="translate(188.855 99.525)" fill="#fff" stroke="#263238" stroke-linecap="round" stroke-linejoin="round" stroke-width="0.817"/>
        <line id="Line_5" data-name="Line 5" x1="12.038" y1="9.284" transform="translate(174.757 88.173)" fill="none" stroke="#263238" stroke-linecap="round" stroke-linejoin="round" stroke-width="0.817"/>
        <line id="Line_6" data-name="Line 6" x2="10.322" y2="8.941" transform="translate(226.352 128.759)" fill="none" stroke="#263238" stroke-linecap="round" stroke-linejoin="round" stroke-width="0.817"/>
        <path id="Path_8978" data-name="Path 8978" d="M174.278,91.23l-.351-3.952h4.127" fill="none" stroke="#263238" stroke-linecap="round" stroke-linejoin="round" stroke-width="0.817"/>
        <path id="Path_8979" data-name="Path 8979" d="M236.953,133.964l.71,4.311-5.021.184" fill="none" stroke="#263238" stroke-linecap="round" stroke-linejoin="round" stroke-width="0.817"/>
        <rect id="Rectangle_3" data-name="Rectangle 3" width="17.036" height="6.147" transform="translate(250.357 238.981)" fill="#263238"/>
        <path id="Path_8980" data-name="Path 8980" d="M274.314,242.047l-10.921-6.3v12.605Z" fill="#263238"/>
        <rect id="Rectangle_4" data-name="Rectangle 4" width="50.245" height="98.064" rx="5.532" transform="translate(193.358 196.583)" fill="#263238" stroke="#263238" stroke-linecap="round" stroke-linejoin="round" stroke-width="0.662"/>
        <rect id="Rectangle_5" data-name="Rectangle 5" width="45.783" height="85.578" transform="translate(195.593 203.241)" fill="#fff" stroke="#263238" stroke-linecap="round" stroke-linejoin="round" stroke-width="0.662"/>
        <path id="Path_8981" data-name="Path 8981" d="M232.89,308.146l3.5-13.571a17.668,17.668,0,0,0,.575-4.479V273.819a2.492,2.492,0,0,0,.1-.647,2.754,2.754,0,0,0-2.906-2.571,3.066,3.066,0,0,0-2.123.8,2.786,2.786,0,0,0-2.882-2.355,2.986,2.986,0,0,0-2.451,1.2,2.794,2.794,0,0,0-2.874-2.315,3.018,3.018,0,0,0-2.459,1.205c0-2.155,0-12.493-.359-13.34-1.054-2.722-6.386-1.477-5.436,1.413v23.909c0-1.676-1.245-3.888-1.764-5.516a14.919,14.919,0,0,0-1.788-4.55c-1.645-2.347-4.542-1.054-4.375,1.389.136,2.147,1.692,3.84,2.531,5.788,1.549,3.592.623,7.352,2.084,10.961a64.857,64.857,0,0,0,4.039,6.626,20.507,20.507,0,0,1,1.876,4.423l-1.357,7.911" fill="#fff" stroke="#263238" stroke-linecap="round" stroke-linejoin="round" stroke-width="0.817"/>
        <line id="Line_7" data-name="Line 7" y2="4.471" transform="translate(218.52 247.555)" fill="none" stroke="#263238" stroke-linecap="round" stroke-linejoin="round" stroke-width="0.817"/>
        <line id="Line_8" data-name="Line 8" x2="3.632" transform="translate(223.55 256.209)" fill="none" stroke="#263238" stroke-linecap="round" stroke-linejoin="round" stroke-width="0.817"/>
        <line id="Line_9" data-name="Line 9" x2="3.632" transform="translate(208.47 256.209)" fill="none" stroke="#263238" stroke-linecap="round" stroke-linejoin="round" stroke-width="0.817"/>
        <line id="Line_10" data-name="Line 10" x2="1.397" y2="2.227" transform="translate(213.499 251.467)" fill="none" stroke="#263238" stroke-linecap="round" stroke-linejoin="round" stroke-width="0.817"/>
        <line id="Line_11" data-name="Line 11" y1="2.507" x2="1.956" transform="translate(221.873 251.467)" fill="none" stroke="#263238" stroke-linecap="round" stroke-linejoin="round" stroke-width="0.817"/>
        <rect id="Rectangle_6" data-name="Rectangle 6" width="42.446" height="5.309" transform="translate(197.301 236.387)" fill="none" stroke="#263238" stroke-linecap="round" stroke-linejoin="round" stroke-width="0.817"/>
        <rect id="Rectangle_7" data-name="Rectangle 7" width="20.389" height="24.292" transform="translate(198.699 207.903)" fill="none" stroke="#263238" stroke-linecap="round" stroke-linejoin="round" stroke-width="0.817"/>
        <line id="Line_12" data-name="Line 12" x2="20.381" y2="24.292" transform="translate(198.699 207.903)" fill="none" stroke="#263238" stroke-linecap="round" stroke-linejoin="round" stroke-width="0.817"/>
        <path id="Path_8982" data-name="Path 8982" d="M198.14,279.112V244.481h41.328v34.351" fill="none" stroke="#263238" stroke-linecap="round" stroke-linejoin="round" stroke-width="0.817"/>
        <rect id="Rectangle_8" data-name="Rectangle 8" width="50.245" height="98.064" rx="5.532" transform="translate(277.859 196.583)" fill="#263238" stroke="#263238" stroke-linecap="round" stroke-linejoin="round" stroke-width="0.662"/>
        <rect id="Rectangle_9" data-name="Rectangle 9" width="45.783" height="85.578" transform="translate(280.094 203.241)" fill="#fff" stroke="#263238" stroke-linecap="round" stroke-linejoin="round" stroke-width="0.662"/>
        <rect id="Rectangle_10" data-name="Rectangle 10" width="41.328" height="45.24" transform="translate(282.473 207.344)" fill="none" stroke="#263238" stroke-linecap="round" stroke-linejoin="round" stroke-width="0.817"/>
        <line id="Line_13" data-name="Line 13" x2="41.328" transform="translate(282.473 256.767)" fill="none" stroke="#263238" stroke-linecap="round" stroke-linejoin="round" stroke-width="0.817"/>
        <line id="Line_14" data-name="Line 14" x2="41.328" transform="translate(282.473 260.12)" fill="none" stroke="#263238" stroke-linecap="round" stroke-linejoin="round" stroke-width="0.817"/>
        <line id="Line_15" data-name="Line 15" x2="41.328" transform="translate(282.473 263.473)" fill="none" stroke="#263238" stroke-linecap="round" stroke-linejoin="round" stroke-width="0.817"/>
        <line id="Line_16" data-name="Line 16" x2="41.328" transform="translate(282.473 266.826)" fill="none" stroke="#263238" stroke-linecap="round" stroke-linejoin="round" stroke-width="0.817"/>
        <line id="Line_17" data-name="Line 17" x2="41.328" transform="translate(282.473 270.171)" fill="none" stroke="#263238" stroke-linecap="round" stroke-linejoin="round" stroke-width="0.817"/>
        <line id="Line_18" data-name="Line 18" x2="41.328" transform="translate(282.473 273.524)" fill="none" stroke="#263238" stroke-linecap="round" stroke-linejoin="round" stroke-width="0.817"/>
        <line id="Line_19" data-name="Line 19" x2="41.328" transform="translate(282.473 276.877)" fill="none" stroke="#263238" stroke-linecap="round" stroke-linejoin="round" stroke-width="0.817"/>
        <line id="Line_20" data-name="Line 20" y1="45.24" x2="41.328" transform="translate(282.473 207.344)" fill="none" stroke="#263238" stroke-linecap="round" stroke-linejoin="round" stroke-width="0.817"/>
        <rect id="Rectangle_11" data-name="Rectangle 11" width="50.245" height="98.064" rx="5.532" transform="translate(277.859 84.014)" fill="#263238" stroke="#263238" stroke-linecap="round" stroke-linejoin="round" stroke-width="0.662"/>
        <rect id="Rectangle_12" data-name="Rectangle 12" width="45.783" height="85.578" transform="translate(280.094 90.672)" fill="#fff" stroke="#263238" stroke-linecap="round" stroke-linejoin="round" stroke-width="0.662"/>
        <path id="Path_8983" data-name="Path 8983" d="M227.238,193.661V167.581h36.7" fill="none" stroke="#263238" stroke-linecap="round" stroke-linejoin="round" stroke-width="0.817"/>
        <path id="Path_8984" data-name="Path 8984" d="M262.739,171.652l7.049-4.071-7.049-4.071Z" fill="#263238"/>
        <line id="Line_21" data-name="Line 21" y1="20.022" transform="translate(302.055 172.953)" fill="none" stroke="#263238" stroke-linecap="round" stroke-linejoin="round" stroke-width="0.817"/>
        <path id="Path_8985" data-name="Path 8985" d="M306.127,174.151l-4.071-7.057-4.071,7.057Z" fill="#263238"/>
        <line id="Line_22" data-name="Line 22" x2="18.513" transform="translate(283.135 303.572)" fill="none" stroke="#263238" stroke-linecap="round" stroke-linejoin="round" stroke-width="0.817"/>
        <line id="Line_23" data-name="Line 23" x2="18.513" transform="translate(283.135 307.739)" fill="none" stroke="#263238" stroke-linecap="round" stroke-linejoin="round" stroke-width="0.817"/>
        <line id="Line_24" data-name="Line 24" x2="18.513" transform="translate(283.135 311.898)" fill="none" stroke="#263238" stroke-linecap="round" stroke-linejoin="round" stroke-width="0.817"/>
        <line id="Line_25" data-name="Line 25" x2="18.513" transform="translate(238.247 303.572)" fill="none" stroke="#263238" stroke-linecap="round" stroke-linejoin="round" stroke-width="0.817"/>
        <line id="Line_26" data-name="Line 26" x2="18.513" transform="translate(238.247 307.739)" fill="none" stroke="#263238" stroke-linecap="round" stroke-linejoin="round" stroke-width="0.817"/>
        <line id="Line_27" data-name="Line 27" x2="18.513" transform="translate(238.247 311.898)" fill="none" stroke="#263238" stroke-linecap="round" stroke-linejoin="round" stroke-width="0.817"/>
        <line id="Line_28" data-name="Line 28" x2="18.513" transform="translate(233.153 175.843)" fill="none" stroke="#263238" stroke-linecap="round" stroke-linejoin="round" stroke-width="0.817"/>
        <line id="Line_29" data-name="Line 29" x2="18.513" transform="translate(233.153 180.002)" fill="none" stroke="#263238" stroke-linecap="round" stroke-linejoin="round" stroke-width="0.817"/>
        <line id="Line_30" data-name="Line 30" x2="18.513" transform="translate(233.153 184.169)" fill="none" stroke="#263238" stroke-linecap="round" stroke-linejoin="round" stroke-width="0.817"/>
        <line id="Line_31" data-name="Line 31" x2="18.513" transform="translate(247.036 125.398)" fill="none" stroke="#263238" stroke-linecap="round" stroke-linejoin="round" stroke-width="0.817"/>
        <line id="Line_32" data-name="Line 32" x2="18.513" transform="translate(247.036 129.565)" fill="none" stroke="#263238" stroke-linecap="round" stroke-linejoin="round" stroke-width="0.817"/>
        <line id="Line_33" data-name="Line 33" x2="18.513" transform="translate(247.036 133.724)" fill="none" stroke="#263238" stroke-linecap="round" stroke-linejoin="round" stroke-width="0.817"/>
        <line id="Line_34" data-name="Line 34" x2="18.513" transform="translate(180.393 139.744)" fill="none" stroke="#263238" stroke-linecap="round" stroke-linejoin="round" stroke-width="0.817"/>
        <line id="Line_35" data-name="Line 35" x2="18.513" transform="translate(180.393 143.911)" fill="none" stroke="#263238" stroke-linecap="round" stroke-linejoin="round" stroke-width="0.817"/>
        <line id="Line_36" data-name="Line 36" x2="18.513" transform="translate(180.393 148.07)" fill="none" stroke="#263238" stroke-linecap="round" stroke-linejoin="round" stroke-width="0.817"/>
      </g>
      <g id="freepik--Plants--inject-33">
        <path id="Path_8986" data-name="Path 8986" d="M90.081,201.173s0-3.449-4.838-8.286-7.983-7.6-7.983-7.6-2.395,7.983,2.068,12.773a84.852,84.852,0,0,0,10.713,9.324Z" fill="#407bff"/>
        <path id="Path_8987" data-name="Path 8987" d="M83.064,222.775s0-3.457-4.838-8.294-7.975-7.6-7.975-7.6-2.395,7.983,2.068,12.773a85.611,85.611,0,0,0,10.713,9.324Z" fill="#407bff"/>
        <path id="Path_8988" data-name="Path 8988" d="M89.778,207.081s.367-3.433,5.684-7.728,8.7-6.722,8.7-6.722,1.6,8.159-3.409,12.494a84.78,84.78,0,0,1-11.631,8.143Z" fill="#407bff"/>
        <path id="Path_8989" data-name="Path 8989" d="M81.3,232.563s.718-3.377,6.466-7.089,9.356-5.772,9.356-5.772.7,8.278-4.7,12.062a84.773,84.773,0,0,1-12.43,6.881Z" fill="#407bff"/>
        <path id="Path_8990" data-name="Path 8990" d="M82.888,260.344s0-3.457,4.838-8.294,7.983-7.6,7.983-7.6,2.395,7.983-2.068,12.773a85.259,85.259,0,0,1-10.713,9.332Z" fill="#407bff"/>
        <path id="Path_8991" data-name="Path 8991" d="M82.808,267.121s.495-3.417-3.608-8.893-6.786-8.654-6.786-8.654-3.521,7.528.239,12.949a84.093,84.093,0,0,0,9.276,10.753Z" fill="#407bff"/>
        <path id="Path_8992" data-name="Path 8992" d="M78.042,287.223s0-3.457,4.838-8.294,7.983-7.6,7.983-7.6,2.395,7.943-2.076,12.773a84.453,84.453,0,0,1-10.705,9.324Z" fill="#407bff"/>
        <path id="Path_8993" data-name="Path 8993" d="M81.268,305.44s-.87-3.345,2.555-9.268,5.764-9.364,5.764-9.364,4.351,7.073,1.237,12.885a84.827,84.827,0,0,1-7.983,11.735Z" fill="#407bff"/>
        <path id="Path_8994" data-name="Path 8994" d="M90.52,200.319a99.336,99.336,0,0,1-1.325,10.721c-1.916,9.875-6.69,16.254-8.606,25.171s3.576,20.421,2.108,31.876-5.931,17.834-4.654,25.482,7.983,28.356,7.983,28.356" fill="none" stroke="#263238" stroke-linecap="round" stroke-linejoin="round" stroke-width="0.826"/>
        <line id="Line_37" data-name="Line 37" y1="4" x2="5.213" transform="translate(89.73 205.38)" fill="none" stroke="#263238" stroke-linecap="round" stroke-linejoin="round" stroke-width="0.826"/>
        <line id="Line_38" data-name="Line 38" x1="2.179" y1="3.88" transform="translate(87.79 200.894)" fill="none" stroke="#263238" stroke-linecap="round" stroke-linejoin="round" stroke-width="0.826"/>
        <path id="Path_8995" data-name="Path 8995" d="M80.876,235.8s4.367-3.273,8.853-6.546" fill="none" stroke="#263238" stroke-linecap="round" stroke-linejoin="round" stroke-width="0.826"/>
        <path id="Path_8996" data-name="Path 8996" d="M83.064,228.994a69.733,69.733,0,0,0-7.76-11.855" fill="none" stroke="#263238" stroke-linecap="round" stroke-linejoin="round" stroke-width="0.826"/>
        <path id="Path_8997" data-name="Path 8997" d="M83.064,265.261A53.814,53.814,0,0,1,92.4,252.776" fill="none" stroke="#263238" stroke-linecap="round" stroke-linejoin="round" stroke-width="0.826"/>
        <path id="Path_8998" data-name="Path 8998" d="M82.226,270.107a61.358,61.358,0,0,0-4.734-8.973c-2.539-3.752-2.906-4.239-2.906-4.239" fill="none" stroke="#263238" stroke-linecap="round" stroke-linejoin="round" stroke-width="0.826"/>
        <path id="Path_8999" data-name="Path 8999" d="M78.042,293.569a58.43,58.43,0,0,1,3.928-7.983,50.7,50.7,0,0,1,5.093-6.666" fill="none" stroke="#263238" stroke-linecap="round" stroke-linejoin="round" stroke-width="0.826"/>
        <path id="Path_9000" data-name="Path 9000" d="M82.848,311.451a14.825,14.825,0,0,1,1.3-7.648c1.82-3.521,3.88-8.119,4.734-9.939" fill="none" stroke="#263238" stroke-linecap="round" stroke-linejoin="round" stroke-width="0.826"/>
        <path id="Path_9001" data-name="Path 9001" d="M58.412,247.347s-.375-2.163,2.131-5.724S64.7,236,64.7,236s2.395,4.726.088,8.246a53.783,53.783,0,0,1-5.716,7.009Z" fill="#407bff"/>
        <path id="Path_9002" data-name="Path 9002" d="M65.15,260.12s-.367-2.171,2.139-5.724,4.151-5.628,4.151-5.628,2.395,4.718.088,8.239a54.061,54.061,0,0,1-5.7,7.009Z" fill="#407bff"/>
        <path id="Path_9003" data-name="Path 9003" d="M59.242,251.012s-.607-2.116-4.407-4.239-6.187-3.289-6.187-3.289-.1,5.285,3.5,7.464a53.819,53.819,0,0,0,8.175,3.84Z" fill="#407bff"/>
        <path id="Path_9004" data-name="Path 9004" d="M67.321,266.068s-.8-2.044-4.79-3.752-6.5-2.595-6.5-2.595.463,5.261,4.263,7.049a54.525,54.525,0,0,0,8.534,2.97Z" fill="#407bff"/>
        <path id="Path_9005" data-name="Path 9005" d="M69.341,283.654s-.375-2.163-3.936-4.67-5.8-3.9-5.8-3.9-.655,5.245,2.682,7.791a54.15,54.15,0,0,0,7.728,4.686Z" fill="#407bff"/>
        <path id="Path_9006" data-name="Path 9006" d="M70.123,287.9s-.671-2.108,1.3-5.971,3.313-6.163,3.313-6.163S77.763,280.1,76,283.918a54.181,54.181,0,0,1-4.654,7.744Z" fill="#407bff"/>
        <path id="Path_9007" data-name="Path 9007" d="M76.2,305.376s.247-2.187,3.656-4.894,5.588-4.223,5.588-4.223.958,5.2-2.235,7.927a54.282,54.282,0,0,1-7.448,5.117Z" fill="#407bff"/>
        <path id="Path_9008" data-name="Path 9008" d="M75.3,299.988s-.375-2.171-3.928-4.678-5.812-3.928-5.812-3.928-.655,5.245,2.69,7.791a53.679,53.679,0,0,0,7.728,4.686Z" fill="#407bff"/>
        <path id="Path_9009" data-name="Path 9009" d="M75.248,311.763s.192-2.2-2.618-5.516S68,300.994,68,300.994s-1.964,4.91.631,8.223a54.465,54.465,0,0,0,6.283,6.49Z" fill="#407bff"/>
        <path id="Path_9010" data-name="Path 9010" d="M58.037,246.844a64.94,64.94,0,0,0,2,6.578c2.275,5.987,5.963,9.468,8.127,14.857s0,13.188,2.139,20.213,5.66,10.538,5.684,15.471-1.916,18.648-1.916,18.648" fill="none" stroke="#263238" stroke-linecap="round" stroke-linejoin="round" stroke-width="0.826"/>
        <line id="Line_39" data-name="Line 39" x1="3.704" y1="1.94" transform="translate(55.818 250.501)" fill="none" stroke="#263238" stroke-linecap="round" stroke-linejoin="round" stroke-width="0.826"/>
        <line id="Line_40" data-name="Line 40" y1="2.674" x2="0.95" transform="translate(58.867 246.908)" fill="none" stroke="#263238" stroke-linecap="round" stroke-linejoin="round" stroke-width="0.826"/>
        <path id="Path_9011" data-name="Path 9011" d="M67.936,268.055s-3.089-1.6-6.259-3.145" fill="none" stroke="#263238" stroke-linecap="round" stroke-linejoin="round" stroke-width="0.826"/>
        <path id="Path_9012" data-name="Path 9012" d="M65.828,264.016a44.643,44.643,0,0,1,3.576-8.278" fill="none" stroke="#263238" stroke-linecap="round" stroke-linejoin="round" stroke-width="0.826"/>
        <path id="Path_9013" data-name="Path 9013" d="M69.764,286.76a34.216,34.216,0,0,0-7.185-6.818" fill="none" stroke="#263238" stroke-linecap="round" stroke-linejoin="round" stroke-width="0.826"/>
        <path id="Path_9014" data-name="Path 9014" d="M70.826,289.705a38.6,38.6,0,0,1,1.988-6.139c1.189-2.626,1.365-2.978,1.365-2.978" fill="none" stroke="#263238" stroke-linecap="round" stroke-linejoin="round" stroke-width="0.826"/>
        <path id="Path_9015" data-name="Path 9015" d="M75.839,307.707a32.651,32.651,0,0,1,3.992-4.135,21.05,21.05,0,0,0,2.587-2.243" fill="none" stroke="#263238" stroke-linecap="round" stroke-linejoin="round" stroke-width="0.826"/>
        <path id="Path_9016" data-name="Path 9016" d="M75.983,303.963a36.587,36.587,0,0,0-3.321-4.55,31.931,31.931,0,0,0-3.92-3.632" fill="none" stroke="#263238" stroke-linecap="round" stroke-linejoin="round" stroke-width="0.826"/>
        <path id="Path_9017" data-name="Path 9017" d="M74.913,315.706a9.468,9.468,0,0,0-1.645-4.662c-1.525-2-3.321-4.67-4.047-5.716" fill="none" stroke="#263238" stroke-linecap="round" stroke-linejoin="round" stroke-width="0.826"/>
        <path id="Path_9018" data-name="Path 9018" d="M64.192,320.225H95.8v23.8a2.4,2.4,0,0,1-2.395,2.395H66.619a2.4,2.4,0,0,1-2.395-2.395v-23.8Z" fill="#263238"/>
        <path id="Path_9019" data-name="Path 9019" d="M95.549,324.352H64.192a2.475,2.475,0,0,1-2.475-2.483h0a2.475,2.475,0,0,1,2.475-2.475H95.549a2.475,2.475,0,0,1,2.475,2.475h0a2.475,2.475,0,0,1-2.475,2.483Z" fill="#263238"/>
      </g>
      <g id="freepik--Character--inject-33">
        <path id="Path_9020" data-name="Path 9020" d="M105.376,338.482s-1.716,6.61-1.716,8.278-.415,2.786,3.193,3.481,5.987.279,6.546-1.389.974-10.035.974-10.035l-8.781-1.676Z" fill="#fff" stroke="#263238" stroke-linecap="round" stroke-linejoin="round" stroke-width="0.826"/>
        <path id="Path_9021" data-name="Path 9021" d="M113.36,348.86a6.882,6.882,0,0,0,.239-1.166,59.073,59.073,0,0,1-9.995-.8c0,1.6-.311,2.674,3.193,3.345S112.825,350.528,113.36,348.86Z" fill="#fff" stroke="#263238" stroke-linecap="round" stroke-linejoin="round" stroke-width="0.826"/>
        <path id="Path_9022" data-name="Path 9022" d="M190.037,339.1s2.786.974,6.834,2.227,12.286,2.65,13.084,2.786.8,1.812.136,2.515-4.319,2.786-8.638,3.9-18.96,2.092-20.213,1.261c-1.046-.7-.695-7.528-.279-9.061S190.037,339.1,190.037,339.1Z" fill="#fff" stroke="#263238" stroke-linecap="round" stroke-linejoin="round" stroke-width="0.826"/>
        <path id="Path_9023" data-name="Path 9023" d="M210.106,346.633a2.084,2.084,0,0,0,.415-1.956c-2.826,2.251-8.47,4.726-14.21,5.3a102.693,102.693,0,0,1-15.647-.08c.1.958.287,1.684.591,1.892,1.253.8,15.886-.144,20.213-1.261A25.205,25.205,0,0,0,210.106,346.633Z" fill="#fff" stroke="#263238" stroke-linecap="round" stroke-linejoin="round" stroke-width="0.826"/>
        <path id="Path_9024" data-name="Path 9024" d="M122.62,217.594s-2.395,14.577-.543,22.672c0,0-3.5,32.108-4.047,46.414,0,0-7.552,25.1-8.638,32.922a192.722,192.722,0,0,1-4.015,18.88,17.092,17.092,0,0,0,5.4,1.892c3.784.8,4.319-2.163,4.319-2.163s20.756-47.763,22.4-54.78,7-32.1,7-32.1l22.353,41.017s1.086,14.034,4.319,22.129,9.444,30.487,9.444,30.487a22.353,22.353,0,0,0,7.289-.8c3.241-1.078,3.241-2.7,3.241-2.7s-4.862-18.082-4.862-24.013-1.884-26.176-3.233-31.844-10.53-35.349-11.879-38.59-4.319-13.491-4.319-13.491L164.962,217.6S141.779,224.077,122.62,217.594Z" fill="#263238" stroke="#263238" stroke-linecap="round" stroke-linejoin="round" stroke-width="0.826"/>
        <path id="Path_9025" data-name="Path 9025" d="M139.744,148.82a14,14,0,0,1-1.245-4.343c0-1.653-.8-9.508-.8-9.508s11.975-21.69,15.288-25.825a50.717,50.717,0,0,1,7.233-7.233s8.063-1.652,9.715-1.652,3.513-.8,3.513-1.86-2.69-.8-4.343-.8a8.262,8.262,0,0,1-3.72-1.445s2.69-7.7,3.513-10.745c.439-1.6,1.86-4.957.8-4.957s-1.237.8-1.86,2.068-3.3,5.373-3.3,5.373l.615-9.093s-.8-1.237-1.445.208a62.193,62.193,0,0,0-2.068,6.818,4.989,4.989,0,0,1-1.03,1.964l-.8-6.778s-1.405-1.493-1.653,1.094c-.136,1.437,0,6.2,0,7.025s-.8-1.174-.8-1.174-.487-2.243-1.03-2.547-1.03.415-.8,2.068-.208,8.47-.208,8.47-1.237,1.652-3.1,3.928-16.764,15.7-22.353,20.045-6.195,7.855-7.025,12.19-1.652,29.537-1.652,38.646.8,23.55,1.445,28.308-.495,10.889-1.293,14.226,0,6.195,2.275,7.847,11.975,2.69,20.037,2.69,16.325-.8,18.808-1.652,4.383-1.046,4.383-4.343-1.652-9.915-1.652-11.775,3.313-21.075,3.313-21.075,21.075,6.386,25,4.957S230.288,157.5,230.288,157.5a51.34,51.34,0,0,1,7.855-2.483c2.69-.415,6.818-2.267,7.025-2.89s-.415-.415-2.068-.415a19.478,19.478,0,0,0-4.343.8s5.644-3.576,6.618-3.928c.671-.247,1.828-1.772.208-1.445-2.036.407-7.025,1.86-7.025,1.86l6.61-4.135s1.03-1.653-.208-1.653-7.44,3.72-7.44,3.72l4.79-4.486c.934-.862.152-2.084-.95-1.445l-5.588,3.193a21.636,21.636,0,0,1-4.311,1.924l-1.03.623a27.32,27.32,0,0,0,.415-3.3c0-1.038-.623-3.72-2.068-3.928s-.208,1.86-.208,2.89-2.068,6.386-2.068,7.233v2.483s-7.025,6.195-13.428,9.508S192.2,175.875,192.2,175.875,175.675,167.4,171.955,164.3s-7.855-6.818-11.975-10.123a51.285,51.285,0,0,0-6.818-4.79Z" fill="#fff" stroke="#263238" stroke-linecap="round" stroke-linejoin="round" stroke-width="0.826"/>
        <path id="Path_9026" data-name="Path 9026" d="M208.8,164.172c-7.017,4.486-16.573,11.719-16.573,11.719s-16.525-8.478-20.245-11.575S164.124,157.5,160,154.193a51.282,51.282,0,0,0-6.818-4.79l-13.428-.615a14,14,0,0,1-1.245-4.343c0-1.652-.8-9.508-.8-9.508s6.187-11.176,10.9-19.04l-.375-.383a17.675,17.675,0,0,0-8.31-4.231c-3.9,3.457-7.768,6.786-10.067,8.574-5.588,4.335-6.195,7.855-7.025,12.19s-1.653,29.537-1.653,38.646.8,23.55,1.445,28.308-.487,10.953-1.285,14.29,0,6.195,2.275,7.847,11.975,2.69,20.037,2.69,16.325-.8,18.808-1.652,4.383-1.046,4.383-4.343-1.652-9.915-1.652-11.775,3.313-21.075,3.313-21.075,21.075,6.386,25,4.957c2.092-.8,12.454-9.979,21.642-18.361A28.244,28.244,0,0,0,208.8,164.172Z" fill="#407bff" stroke="#263238" stroke-linecap="round" stroke-linejoin="round" stroke-width="0.826"/>
        <path id="Path_9027" data-name="Path 9027" d="M162.056,157.873s-8.318,2.267-8.781,8.566" fill="none" stroke="#263238" stroke-linecap="round" stroke-linejoin="round" stroke-width="0.826"/>
        <path id="Path_9028" data-name="Path 9028" d="M168.443,184.984s-9.691-2.666-14.729-7.712" fill="none" stroke="#263238" stroke-linecap="round" stroke-linejoin="round" stroke-width="0.826"/>
        <path id="Path_9029" data-name="Path 9029" d="M163.062,183.611s-8.318,2.267-15.878-.75" fill="none" stroke="#263238" stroke-linecap="round" stroke-linejoin="round" stroke-width="0.826"/>
        <path id="Path_9030" data-name="Path 9030" d="M127.969,170.223s2.626,18.361,15.288,27.51" fill="none" stroke="#263238" stroke-linecap="round" stroke-linejoin="round" stroke-width="0.826"/>
        <path id="Path_9031" data-name="Path 9031" d="M147.248,202.77c.966.263,1.964.495,2.994.679" fill="none" stroke="#263238" stroke-linecap="round" stroke-linejoin="round" stroke-width="0.826"/>
        <path id="Path_9032" data-name="Path 9032" d="M127.969,188.56a35.525,35.525,0,0,0,14.17,12.262" fill="none" stroke="#263238" stroke-linecap="round" stroke-linejoin="round" stroke-width="0.826"/>
        <path id="Path_9033" data-name="Path 9033" d="M125.518,147.8s8.063-3.992,12.853-.255" fill="none" stroke="#263238" stroke-linecap="round" stroke-linejoin="round" stroke-width="0.826"/>
        <path id="Path_9034" data-name="Path 9034" d="M127.785,129.406s7.312,2.523,9.324,7.56" fill="none" stroke="#263238" stroke-linecap="round" stroke-linejoin="round" stroke-width="0.826"/>
        <path id="Path_9035" data-name="Path 9035" d="M132.575,127.641a10.3,10.3,0,0,1,3.529,5.54" fill="none" stroke="#263238" stroke-linecap="round" stroke-linejoin="round" stroke-width="0.826"/>
        <path id="Path_9036" data-name="Path 9036" d="M167.014,115.754s1.245,7.025,1.245,8.885-2.068,2.483-1.245,4.957,2.69,2.69,2.275,4.79-3.1,3.3-3.1,3.3-1.445,5.788-2.9,8.262-6.818.623-6.818.623l-.415,6.61s-1.86,2.69-8.678,1.86a37.832,37.832,0,0,1-11.36-3.1l-1.038-1.445s5.373-2.69,5.588-4.55,0-6.195,0-12.4-1.86-18.185,8.262-21.283S167.014,115.754,167.014,115.754Z" fill="#fff" stroke="#263238" stroke-linecap="round" stroke-linejoin="round" stroke-width="0.826"/>
        <path id="Path_9037" data-name="Path 9037" d="M154.393,132.718s-2.331-5.349-4.942-2.291c-1.692,1.988.415,7.855,1.445,8.678s3.3.415,3.3.415-3.3,3.3-6.818,3.3-6.61-3.3-8.885-9.093-3.928-15.7-1.445-21.7,15.3-6.195,18.185-6.195a26.334,26.334,0,0,1,7.233,1.653s9.3-.8,9.508,2.275-1.245,3.3-1.245,3.3,6.618,3.513,3.513,4.957-7.847.623-10.953.623a4.431,4.431,0,0,0-4.127,2.267s2.89,1.86,1.86,2.69-4.79,2.475-5.165,3.928,1.445,3.72.2,4.79S154.393,132.718,154.393,132.718Z" fill="#263238" stroke="#263238" stroke-linecap="round" stroke-linejoin="round" stroke-width="0.826"/>
        <path id="Path_9038" data-name="Path 9038" d="M165.888,130.22c0,1.054-.439,1.908-.974,1.908s-.966-.854-.966-1.908.439-1.908.966-1.908S165.888,129.166,165.888,130.22Z" fill="#263238"/>
        <path id="Path_9039" data-name="Path 9039" d="M162.5,127.785s1.333-3.113,3.449-1.445" fill="none" stroke="#263238" stroke-linecap="round" stroke-linejoin="round" stroke-width="0.826"/>
        <path id="Path_9040" data-name="Path 9040" d="M144.478,251.331l-1.892-3.513-9.444-2.427" fill="none" stroke="#fff" stroke-linecap="round" stroke-linejoin="round" stroke-width="0.826"/>
      </g>
    </g>
  </g>
</svg>
