<svg xmlns="http://www.w3.org/2000/svg" xmlns:xlink="http://www.w3.org/1999/xlink" width="120" height="120" viewBox="0 0 120 120">
  <defs>
    <clipPath id="clip-path">
      <circle id="Ellipse_279" data-name="Ellipse 279" cx="60" cy="60" r="60" transform="translate(778 3105)" fill="#fff"/>
    </clipPath>
  </defs>
  <g id="Mask_Group_39" data-name="Mask Group 39" transform="translate(-778 -3105)" clip-path="url(#clip-path)">
    <g id="Layer_x0020_1" transform="translate(804.869 3126.962)">
      <path id="Path_18747" data-name="Path 18747" d="M59.4,77.116a8.524,8.524,0,0,1-3.218.646H9.522a8.491,8.491,0,0,1-8.471-8.472V11.16A8.491,8.491,0,0,1,9.522,2.688H56.18a8.492,8.492,0,0,1,8.472,8.472V51.11c.429-.04.864-.061,1.3-.061A13.857,13.857,0,1,1,59.4,77.116Zm-.651-11.383a1.968,1.968,0,0,1,3.187-2.309L63.948,66.2l6.146-7.034a1.964,1.964,0,0,1,2.956,2.586l-7.683,8.793a1.969,1.969,0,0,1-3.157-.04Zm1.964-13.658V16.427H4.991V69.291a4.549,4.549,0,0,0,4.531,4.531H55.346a13.862,13.862,0,0,1,5.364-21.746Zm5.245,2.914a9.917,9.917,0,1,0,9.917,9.917A9.917,9.917,0,0,0,65.956,54.989ZM20.028,67.907a1.971,1.971,0,0,1,0-3.941H45.675a1.971,1.971,0,0,1,0,3.941Zm40.682-55.42V11.16A4.549,4.549,0,0,0,56.18,6.629H9.522A4.549,4.549,0,0,0,4.991,11.16v1.326h55.72Z" transform="translate(-1.051 -2.688)" fill="#fff"/>
    </g>
  </g>
</svg>
