<svg xmlns="http://www.w3.org/2000/svg" xmlns:xlink="http://www.w3.org/1999/xlink" width="605" height="372" viewBox="0 0 605 372">
  <defs>
    <clipPath id="clip-path">
      <rect id="Rectangle_132" data-name="Rectangle 132" width="605" height="372" transform="translate(381 278)" fill="#fff"/>
    </clipPath>
  </defs>
  <g id="Mask_Group_35" data-name="Mask Group 35" transform="translate(-381 -278)" clip-path="url(#clip-path)">
    <g id="Privacy_policy-pana" data-name="Privacy policy-pana" transform="translate(479.668 249.179)">
      <g id="freepik--Icon--inject-52">
        <path id="Path_10116" data-name="Path 10116" d="M56.256,148.3,27.414,160.59a5.141,5.141,0,0,0-3.119,4.72v11.842a55.438,55.438,0,0,0,34.236,51.221c11.2-3.415,19.561-12.517,24.677-20.308a54.977,54.977,0,0,0,9.028-30.319V165.31a5.141,5.141,0,0,0-3.111-4.72L60.242,148.3A5.149,5.149,0,0,0,56.256,148.3Z" fill="#407bff"/>
        <circle id="Ellipse_43" data-name="Ellipse 43" cx="18.906" cy="18.906" r="18.906" transform="translate(33.808 173.597) rotate(-21.2)" opacity="0.3"/>
        <circle id="Ellipse_44" data-name="Ellipse 44" cx="7.848" cy="7.848" r="7.848" transform="translate(50.413 169.741)" fill="#fff"/>
        <path id="Path_10117" data-name="Path 10117" d="M43.935,196.71A15.325,15.325,0,0,1,57.964,188a16.685,16.685,0,0,1,14.655,8.712s-4.628,6.852-14.853,6.6a17.941,17.941,0,0,1-13.831-6.6Z" fill="#fff"/>
        <path id="Path_10118" data-name="Path 10118" d="M77.167,184.389a1.65,1.65,0,0,1,0-.305,4.262,4.262,0,0,0-.074-.891v-.66a8.081,8.081,0,0,0-.124-.825,13.979,13.979,0,0,0-.4-1.939,18.271,18.271,0,0,0-2.1-5,18.832,18.832,0,0,0-4.786-5.314,18.56,18.56,0,0,0-7.889-3.482,18.774,18.774,0,0,0-9.828.825,18.058,18.058,0,0,0-2.476,1.073,19.972,19.972,0,0,0-2.294,1.469,22.956,22.956,0,0,0-2.121,1.807,22.024,22.024,0,0,0-1.832,2.162,18.663,18.663,0,0,0-2.665,16.95,18.155,18.155,0,0,0,2.665,5.149,22.134,22.134,0,0,0,1.832,2.17,21.65,21.65,0,0,0,2.121,1.8,17.181,17.181,0,0,0,4.729,2.55,18.735,18.735,0,0,0,22.5-7.98,17.974,17.974,0,0,0,2.071-4.968,14.317,14.317,0,0,0,.4-1.948c0-.281.1-.545.124-.825a5.821,5.821,0,0,0,0-.66l.074-.9a1.848,1.848,0,0,1,0-.305,1.749,1.749,0,0,1,0,.305v1.568a7.336,7.336,0,0,1-.107.825,12.041,12.041,0,0,1-.363,1.972,17.776,17.776,0,0,1-2.055,5.075,18.98,18.98,0,0,1-22.842,8.252,19.493,19.493,0,0,1-2.476-1.089,19.105,19.105,0,0,1-2.327-1.543,20.737,20.737,0,0,1-2.179-1.84,22.076,22.076,0,0,1-1.832-2.179,18.683,18.683,0,0,1-2.74-5.265,20.515,20.515,0,0,1-.982-6.032,20.251,20.251,0,0,1,.99-6.032,18.452,18.452,0,0,1,2.732-5.265,23.11,23.11,0,0,1,1.882-2.212,20.816,20.816,0,0,1,2.17-1.84,20.058,20.058,0,0,1,2.3-1.518,19.546,19.546,0,0,1,2.476-1.1A18.912,18.912,0,0,1,74.6,174.676a17.817,17.817,0,0,1,2.055,5.083,11.958,11.958,0,0,1,.363,1.964c0,.289.091.553.107.825v1.568A1.65,1.65,0,0,1,77.167,184.389Z" fill="#263238"/>
        <path id="Path_10119" data-name="Path 10119" d="M92.137,174.536a2.665,2.665,0,0,1,.058.553,14.652,14.652,0,0,0,.066,1.568,15.359,15.359,0,0,1,0,2.476v1.551a9.675,9.675,0,0,1-.107,1.733c-.116,1.213-.2,2.55-.454,3.969-.107.71-.2,1.444-.347,2.2s-.33,1.518-.5,2.311a57.253,57.253,0,0,1-3.3,9.952,58.871,58.871,0,0,1-5.174,9.135c-.957,1.3-1.84,2.55-2.8,3.631-.462.545-.891,1.1-1.345,1.584l-1.312,1.386c-.825.916-1.65,1.65-2.36,2.3a22.806,22.806,0,0,1-1.873,1.65l-1.221.99a2.473,2.473,0,0,1-.437.314,2.947,2.947,0,0,1,.388-.38l1.164-1.048c.52-.446,1.139-1,1.816-1.65s1.5-1.419,2.3-2.335l1.287-1.4c.446-.487.825-1.04,1.32-1.584.933-1.081,1.8-2.335,2.748-3.639a60.243,60.243,0,0,0,5.1-9.078,58.228,58.228,0,0,0,3.3-9.9l.512-2.294c.149-.743.248-1.477.371-2.179.264-1.4.363-2.732.5-3.936.074-.6.124-1.18.14-1.725l.074-1.543c.074-.966.058-1.8.058-2.476V175.1A3.73,3.73,0,0,1,92.137,174.536Z" fill="#263238"/>
      </g>
      <g id="freepik--Device--inject-52">
        <path id="Path_10120" data-name="Path 10120" d="M292.8,388.964H97.666a9.729,9.729,0,0,1-9.564-9.9V80.806a9.729,9.729,0,0,1,9.564-9.9H292.8a9.721,9.721,0,0,1,9.556,9.9V379.077a9.721,9.721,0,0,1-9.556,9.886Z" fill="#263238"/>
        <path id="Path_10121" data-name="Path 10121" d="M198.971,374.5a9.078,9.078,0,1,1-9.078-8.921A9.078,9.078,0,0,1,198.971,374.5Z" fill="#455a64"/>
        <path id="Path_10122" data-name="Path 10122" d="M217.184,87.722H173.447a3.1,3.1,0,0,1-3.053-3.152h0a3.111,3.111,0,0,1,3.053-3.161h43.737a3.111,3.111,0,0,1,3.053,3.161h0a3.1,3.1,0,0,1-3.053,3.152Z" fill="#455a64"/>
        <rect id="Rectangle_128" data-name="Rectangle 128" width="200.745" height="265.608" transform="translate(94.679 93.606)" fill="#fff"/>
        <rect id="Rectangle_129" data-name="Rectangle 129" width="8.566" height="265.608" transform="translate(286.858 93.606)" fill="#f5f5f5"/>
        <path id="Path_10123" data-name="Path 10123" d="M291.133,189.035h0a2.674,2.674,0,0,1-2.665-2.674V127.614a2.674,2.674,0,0,1,2.665-2.674h0a2.674,2.674,0,0,1,2.674,2.674v58.748a2.674,2.674,0,0,1-2.674,2.674Z" fill="#e0e0e0"/>
        <path id="Path_10124" data-name="Path 10124" d="M269.239,154.054H121.226a4.258,4.258,0,0,1-4.258-4.258h0a4.258,4.258,0,0,1,4.258-4.258H269.239A4.258,4.258,0,0,1,273.5,149.8h0a4.258,4.258,0,0,1-4.258,4.258Z" fill="#e0e0e0"/>
        <path id="Path_10125" data-name="Path 10125" d="M246.471,122.959H153.361A4.258,4.258,0,0,1,149.1,118.7h0a4.258,4.258,0,0,1,4.258-4.258h93.111a4.258,4.258,0,0,1,4.258,4.258h0A4.258,4.258,0,0,1,246.471,122.959Z" fill="#407bff"/>
        <path id="Path_10126" data-name="Path 10126" d="M248.221,171.194H142.245a4.258,4.258,0,0,1-4.258-4.258h0a4.258,4.258,0,0,1,4.258-4.258H248.221a4.258,4.258,0,0,1,4.258,4.258h0a4.258,4.258,0,0,1-4.258,4.258Z" fill="#e0e0e0"/>
        <path id="Path_10127" data-name="Path 10127" d="M200.374,245.918H118.833a4.258,4.258,0,0,1-4.258-4.258h0a4.258,4.258,0,0,1,4.258-4.258h81.541a4.258,4.258,0,0,1,4.258,4.258h0A4.258,4.258,0,0,1,200.374,245.918Z" fill="#e0e0e0"/>
        <path id="Path_10128" data-name="Path 10128" d="M266.846,228.069H118.833a4.258,4.258,0,0,1-4.258-4.258h0a4.25,4.25,0,0,1,4.258-4.25H266.846a4.25,4.25,0,0,1,4.258,4.25h0A4.258,4.258,0,0,1,266.846,228.069Z" fill="#e0e0e0"/>
        <rect id="Rectangle_130" data-name="Rectangle 130" width="138.069" height="8.516" rx="4.258" transform="translate(133.035 276.988)" fill="#e0e0e0"/>
        <path id="Path_10129" data-name="Path 10129" d="M266.846,303.684H118.833a4.258,4.258,0,0,1-4.258-4.258h0a4.258,4.258,0,0,1,4.258-4.242H266.846a4.258,4.258,0,0,1,4.258,4.258h0A4.258,4.258,0,0,1,266.846,303.684Z" fill="#e0e0e0"/>
        <path id="Path_10130" data-name="Path 10130" d="M266.846,322.186H118.833a4.258,4.258,0,0,1-4.258-4.258h0a4.258,4.258,0,0,1,4.258-4.258H266.846a4.258,4.258,0,0,1,4.258,4.258h0A4.258,4.258,0,0,1,266.846,322.186Z" fill="#e0e0e0"/>
        <path id="Path_10131" data-name="Path 10131" d="M125.493,281.246a4.423,4.423,0,1,1-4.415-4.423A4.423,4.423,0,0,1,125.493,281.246Z" fill="#407bff"/>
        <path id="Path_10132" data-name="Path 10132" d="M266.846,211.44H137.285a4.258,4.258,0,0,1-4.258-4.258h0a4.258,4.258,0,0,1,4.258-4.258H266.846a4.258,4.258,0,0,1,4.258,4.258h0A4.258,4.258,0,0,1,266.846,211.44Z" fill="#e0e0e0"/>
        <circle id="Ellipse_45" data-name="Ellipse 45" cx="4.423" cy="4.423" r="4.423" transform="translate(116.654 202.759)" fill="#407bff"/>
        <path id="Path_10133" data-name="Path 10133" d="M262.712,349.262H229.5a6.783,6.783,0,0,1-6.783-6.783h0A6.783,6.783,0,0,1,229.5,335.7h33.215a6.783,6.783,0,0,1,6.783,6.783h0A6.783,6.783,0,0,1,262.712,349.262Z" fill="#407bff"/>
      </g>
      <g id="freepik--Padlock--inject-52">
        <path id="Path_10134" data-name="Path 10134" d="M91.6,29.172,57.172,46.444a6.981,6.981,0,0,0-4.25,6.42V68.973A74.766,74.766,0,0,0,65.2,110.234c6.206,9.424,14.425,21.506,28.116,28.4H99.49c15.234-4.646,26.605-17.033,33.562-27.62a74.766,74.766,0,0,0,12.279-41.261V52.864a6.981,6.981,0,0,0-4.217-6.42L101.866,29.708C100.117,28.99,93.35,28.429,91.6,29.172Z" fill="#407bff"/>
        <path id="Path_10135" data-name="Path 10135" d="M108.485,87.062H104.3V64.294a9.721,9.721,0,0,0-19.434,0V87.062H80.683V64.294a13.905,13.905,0,0,1,27.8,0Z" fill="#f5f5f5"/>
        <rect id="Rectangle_131" data-name="Rectangle 131" width="37.465" height="29.362" rx="4.795" transform="translate(75.855 71.613)" fill="#fff"/>
        <path id="Path_10136" data-name="Path 10136" d="M108.526,100.975a9.713,9.713,0,0,0,1.246-.215,4.762,4.762,0,0,0,3.441-4.621V76.07a4.613,4.613,0,0,0-2.723-3.87,5.521,5.521,0,0,0-2.566-.4h-2.773l-24.5-.008a4.58,4.58,0,0,0-4.456,3.515,6.123,6.123,0,0,0-.132,1.518V93.251c.074,1.865-.314,3.788.644,5.257a4.638,4.638,0,0,0,4.167,2.286h9.284l13.443.074h4.6a1.75,1.75,0,0,1,.33,0,1.476,1.476,0,0,1-.33,0h-4.6l-13.443.066H80.873a4.993,4.993,0,0,1-5.215-5.083V76.862a6.412,6.412,0,0,1,.14-1.65,4.951,4.951,0,0,1,1.774-2.723A5.05,5.05,0,0,1,80.691,71.4h27.183a5.843,5.843,0,0,1,2.723.446,4.951,4.951,0,0,1,2.921,4.184V96.123a4.852,4.852,0,0,1-.726,2.558,4.762,4.762,0,0,1-2.9,2.146A3.714,3.714,0,0,1,108.526,100.975Z" fill="#263238"/>
        <path id="Path_10137" data-name="Path 10137" d="M97.46,87.053a4.044,4.044,0,0,0,1.188-2.872A4.126,4.126,0,1,0,93.4,88.126l-.883,3.912h3.92l-.825-3.912a4.126,4.126,0,0,0,1.807-1.073" fill="#407bff"/>
      </g>
      <g id="freepik--Character--inject-52">
        <path id="Path_10138" data-name="Path 10138" d="M353.05,116.5v33.438c.074,5.777.924,14.854-8.252,14.557h0c-7.914-.825-10.018-8.36-10.076-13.757,0-2.558-.058-4.7-.083-4.951,0,0-8.665-.71-9.4-9.276-.355-4.126-.388-12.717-.33-20.482A16.009,16.009,0,0,1,339.764,100.2l.825-.058C349.559,100.01,353.2,107.544,353.05,116.5Z" fill="#ffbf9d"/>
        <path id="Path_10139" data-name="Path 10139" d="M334.664,145.785a20.779,20.779,0,0,0,10.918-4.126s-2.261,6.462-10.868,6.313Z" fill="#ff9a6c"/>
        <path id="Path_10140" data-name="Path 10140" d="M339.574,119.543c.173.173,1.164-.627,2.591-.66s2.476.66,2.657.479-.1-.4-.569-.726a3.606,3.606,0,0,0-2.129-.611,3.516,3.516,0,0,0-2.063.751C339.632,119.138,339.491,119.46,339.574,119.543Z" fill="#263238"/>
        <path id="Path_10141" data-name="Path 10141" d="M339.549,123.595a1.155,1.155,0,0,0,1.2,1.089,1.106,1.106,0,0,0,1.114-1.131,1.164,1.164,0,0,0-1.2-1.089,1.122,1.122,0,0,0-1.122,1.131Z" fill="#263238"/>
        <path id="Path_10142" data-name="Path 10142" d="M335.984,129.561a8.92,8.92,0,0,0-2.17-.231c-.338,0-.66-.058-.734-.281a1.717,1.717,0,0,1,.149-1.015c.264-.825.528-1.708.825-2.632a45.089,45.089,0,0,0,1.749-6.858,44.356,44.356,0,0,0-2.294,6.7q-.4,1.386-.767,2.649a1.956,1.956,0,0,0-.074,1.329.825.825,0,0,0,.586.454,2.475,2.475,0,0,0,.578,0A9.077,9.077,0,0,0,335.984,129.561Z" fill="#263238"/>
        <path id="Path_10143" data-name="Path 10143" d="M340.184,113.436c.14.322,1.287.083,2.666.149s2.476.371,2.665.066c.066-.14-.149-.437-.611-.718a4.481,4.481,0,0,0-4.06-.165C340.358,113.007,340.127,113.288,340.184,113.436Z" fill="#263238"/>
        <path id="Path_10144" data-name="Path 10144" d="M326.56,115.582c.157.264,1.271,0,2.632-.066s2.476.132,2.624-.14c.058-.132-.165-.363-.635-.569a4.729,4.729,0,0,0-2.005-.33,4.811,4.811,0,0,0-2,.5C326.717,115.21,326.494,115.458,326.56,115.582Z" fill="#263238"/>
        <path id="Path_10145" data-name="Path 10145" d="M313.587,108.344a1.353,1.353,0,0,1,.652-.825,4.209,4.209,0,0,1,2.187-.355,12.321,12.321,0,0,0,6.437-1.956,28.826,28.826,0,0,1,3-3.631c2.6-2.674,4.729-4.5,6.94-5.389a19.484,19.484,0,0,1,10.612-.825c2.979.825,5.653,3.2,6.074,6.247,1.65-1.411,4.176-1.395,6.214-.578h.05c2.261.825,3.548,3.2,4.217,5.513s.957,4.786,2.179,6.858c.256.429.561.949.338,1.4a.957.957,0,0,1-1,.429,2.723,2.723,0,0,1-1.056-.479c.256.611.5,1.213.759,1.816a5.315,5.315,0,0,1-2.476-.157,53.325,53.325,0,0,1-1.609,6.09,3.54,3.54,0,0,0-2.4.586c-.825.718-1.147,2.063-2.476,1.551-.668-.264-1.279-1.65-1.51-2.352a33.537,33.537,0,0,1-1.444-14.186,10.827,10.827,0,0,0-3.3-2.393l.1.091c-2.393-.825-5.1-1.65-7.369-.528-1.758.875-2.789,2.7-4.126,4.126a13.418,13.418,0,0,1-9.581,4.481c-.124,2.41.074,5.818-.049,8.252l-2.03-3.862h0a9.339,9.339,0,0,1-.437-.825v-.083h0a14.271,14.271,0,0,0-.685-1.378h0a1.51,1.51,0,0,1-2.2-2.014,3.408,3.408,0,0,1,.726-.734,2.36,2.36,0,0,1-2.269.586,1.865,1.865,0,0,1-1.32-1.849,1.6,1.6,0,0,1,.949-1.271,5.323,5.323,0,0,1-3.053-.677C313.959,109.673,313.364,109.1,313.587,108.344Z" fill="#263238"/>
        <path id="Path_10146" data-name="Path 10146" d="M346.77,102.609a6.709,6.709,0,0,1,.825.825,6.065,6.065,0,0,1,1.312,2.839,10.523,10.523,0,0,1,.223,2.179c0,.825-.058,1.65-.124,2.525a22.419,22.419,0,0,0-.058,2.806,9.271,9.271,0,0,0,.19,1.485,3.136,3.136,0,0,0,.6,1.436,1.3,1.3,0,0,0,1.213.4,1.9,1.9,0,0,0,1.081-.611,4.382,4.382,0,0,0,.825-2.179h-.173a7.022,7.022,0,0,0,1.04,1.8,2.567,2.567,0,0,0,1.65.908,1.65,1.65,0,0,0,.883-.157,1.444,1.444,0,0,0,.6-.594,1.559,1.559,0,0,0,.182-.759,1.048,1.048,0,0,0-.281-.66l-.091.083a5.545,5.545,0,0,0,1.84,1.378,4.957,4.957,0,0,0,.569.223l.206.05-.19-.083c-.132-.058-.322-.132-.553-.248a5.777,5.777,0,0,1-1.782-1.4l-.091.083a1.1,1.1,0,0,1,.058,1.271,1.254,1.254,0,0,1-.536.52,1.461,1.461,0,0,1-.825.132,2.4,2.4,0,0,1-1.551-.825,7.113,7.113,0,0,1-1-1.758l-.124-.272-.058.3a4.332,4.332,0,0,1-.825,2.08,1.8,1.8,0,0,1-.974.545,1.1,1.1,0,0,1-1.032-.338,2.864,2.864,0,0,1-.553-1.345,9.9,9.9,0,0,1-.2-1.452,22.18,22.18,0,0,1,.058-2.789c.05-.891.107-1.733.1-2.533a10.579,10.579,0,0,0-.248-2.2,6.082,6.082,0,0,0-1.395-2.872A3.3,3.3,0,0,0,346.77,102.609Z" fill="#455a64"/>
        <path id="Path_10147" data-name="Path 10147" d="M320.272,110.936l.074.058a1.823,1.823,0,0,0,.215.157,2.124,2.124,0,0,0,.363.239,5.868,5.868,0,0,0,.52.272,7.6,7.6,0,0,0,3.664.66,9.713,9.713,0,0,0,5.166-1.915,16.587,16.587,0,0,0,4.44-5.116c.627-1.032,1.131-2.1,1.65-3.078a11.555,11.555,0,0,1,1.981-2.608,5.859,5.859,0,0,1,2.476-1.5,4.2,4.2,0,0,1,1.3-.149,4.531,4.531,0,0,1,1.172.248,4.951,4.951,0,0,1,1.791,1.073,4.878,4.878,0,0,1,.966,1.254,5.372,5.372,0,0,1,.437,1.287s0,0,0-.091a.628.628,0,0,0-.041-.264,4.026,4.026,0,0,0-.33-.966,4.951,4.951,0,0,0-2.773-2.426,4.853,4.853,0,0,0-1.23-.256,4.514,4.514,0,0,0-1.353.149,5.95,5.95,0,0,0-2.55,1.527,11.2,11.2,0,0,0-1.956,2.641c-.569.99-1.081,2.047-1.692,3.078a16.761,16.761,0,0,1-4.382,5.067,9.614,9.614,0,0,1-5.067,1.923,7.683,7.683,0,0,1-3.623-.594,11.166,11.166,0,0,1-1.221-.668Z" fill="#455a64"/>
        <path id="Path_10148" data-name="Path 10148" d="M319.5,107.173a2.06,2.06,0,0,0,.305.215,6.883,6.883,0,0,0,.908.462,8.738,8.738,0,0,0,1.444.47,9.538,9.538,0,0,0,1.84.248,10.216,10.216,0,0,0,1.857-.124,8.666,8.666,0,0,0,1.461-.38,6.693,6.693,0,0,0,.941-.4,1.7,1.7,0,0,0,.322-.19s-.487.206-1.3.462a11.311,11.311,0,0,1-1.452.33,11.5,11.5,0,0,1-1.816.107,11.629,11.629,0,0,1-1.807-.223,9.9,9.9,0,0,1-1.428-.429C319.975,107.412,319.512,107.14,319.5,107.173Z" fill="#455a64"/>
        <path id="Path_10149" data-name="Path 10149" d="M326.5,119.543c.165.173,1.155-.627,2.591-.66s2.476.66,2.657.479-.107-.4-.569-.726a3.639,3.639,0,0,0-2.137-.611,3.483,3.483,0,0,0-2.055.751C326.552,119.138,326.411,119.46,326.5,119.543Z" fill="#263238"/>
        <path id="Path_10150" data-name="Path 10150" d="M327.963,123.595a1.164,1.164,0,0,0,1.2,1.089,1.114,1.114,0,0,0,1.122-1.131,1.172,1.172,0,0,0-1.2-1.089,1.114,1.114,0,0,0-1.114,1.131Z" fill="#263238"/>
        <path id="Path_10151" data-name="Path 10151" d="M352.827,122.893c.14-.074,5.777-2.17,6,3.7s-5.7,4.894-5.719,4.729S352.827,122.893,352.827,122.893Z" fill="#ffbf9d"/>
        <path id="Path_10152" data-name="Path 10152" d="M354.849,129.025a2.365,2.365,0,0,0,.281.14,1.064,1.064,0,0,0,.767,0,2.525,2.525,0,0,0,1.073-2.319,3.3,3.3,0,0,0-.338-1.452,1.172,1.172,0,0,0-.825-.751.528.528,0,0,0-.586.305c-.074.165,0,.281-.066.3s-.124-.091-.091-.338a.718.718,0,0,1,.215-.38.825.825,0,0,1,.561-.173,1.452,1.452,0,0,1,1.106.867,3.442,3.442,0,0,1,.421,1.65,2.666,2.666,0,0,1-1.386,2.591,1.1,1.1,0,0,1-.941-.116C354.849,129.165,354.791,129.033,354.849,129.025Z" fill="#ff9a6c"/>
        <path id="Path_10153" data-name="Path 10153" d="M340.16,130.733c.05,0,.05.347-.149.825a3.6,3.6,0,0,1-1.353,1.568,3.3,3.3,0,0,1-1.964.561,1.308,1.308,0,0,1-.825-.272,4.4,4.4,0,0,1,.825,0,3.755,3.755,0,0,0,1.766-.594,4.176,4.176,0,0,0,1.312-1.345C339.995,131.022,340.094,130.716,340.16,130.733Z" fill="#263238"/>
        <path id="Path_10154" data-name="Path 10154" d="M369.7,362.763l1.749,19.806,6.206,15.316a2.014,2.014,0,0,1-1.4,2.674h0a2.236,2.236,0,0,1-1.948-.33c-3.54-2.575-16.307-12.048-16.447-13.278-.182-1.6-3.441-21.1-3.441-21.1Z" fill="#455a64"/>
        <path id="Path_10155" data-name="Path 10155" d="M376.3,400.583l-18.749-15.869.19,1.469c.124.825.14,1.238.7,1.741a177.5,177.5,0,0,0,15.679,12.659,2.533,2.533,0,0,0,2.146,0Z" fill="#263238"/>
        <path id="Path_10156" data-name="Path 10156" d="M361.2,378.525a1.2,1.2,0,0,1,.545,1.568,1.312,1.312,0,0,1-1.65.52,1.271,1.271,0,0,1-.561-1.65,1.353,1.353,0,0,1,1.774-.355" fill="#fff"/>
        <path id="Path_10157" data-name="Path 10157" d="M370.479,392.413c.124.049.479-1.04,1.65-1.716a7.18,7.18,0,0,1,2.368-.685c0-.049-.272-.173-.767-.19a3.565,3.565,0,0,0-1.857.5,3.227,3.227,0,0,0-1.271,1.353C370.421,392.108,370.421,392.4,370.479,392.413Z" fill="#263238"/>
        <path id="Path_10158" data-name="Path 10158" d="M372.278,394.914c.107.083.71-.635,1.766-1.032a16.844,16.844,0,0,1,2.03-.454,2.525,2.525,0,0,0-2.2.05C372.665,393.94,372.179,394.872,372.278,394.914Z" fill="#263238"/>
        <path id="Path_10159" data-name="Path 10159" d="M367.3,389.3a21.1,21.1,0,0,1,2.616-1.774,22.479,22.479,0,0,1,3.045-1,5.051,5.051,0,0,0-3.26.611A4.788,4.788,0,0,0,367.3,389.3Z" fill="#263238"/>
        <path id="Path_10160" data-name="Path 10160" d="M366.237,383.311c.066.116,1.18-.462,2.682-.66s2.748,0,2.781-.107a4.4,4.4,0,0,0-2.847-.33,4.283,4.283,0,0,0-2.616,1.1Z" fill="#263238"/>
        <path id="Path_10161" data-name="Path 10161" d="M365.577,377.5a7.3,7.3,0,0,1,5.645-.38c0-.049-.223-.272-.743-.487a4.952,4.952,0,0,0-2.154-.33,4.7,4.7,0,0,0-2.08.619C365.75,377.2,365.527,377.46,365.577,377.5Z" fill="#263238"/>
        <path id="Path_10162" data-name="Path 10162" d="M368.176,375.636a2.172,2.172,0,0,0-.05-.751,5.2,5.2,0,0,0-.825-1.9,2.426,2.426,0,0,0-1.172-1,.916.916,0,0,0-.957.281,1.246,1.246,0,0,0-.231.932,3,3,0,0,0,2.971,2.385,3.565,3.565,0,0,0,3.3-2.088,1.106,1.106,0,0,0-.05-.966.9.9,0,0,0-.941-.338,3.144,3.144,0,0,0-1.312.825,6,6,0,0,0-1.263,1.65,1.784,1.784,0,0,0-.247.718,9.54,9.54,0,0,1,1.741-2.17,2.856,2.856,0,0,1,1.155-.693.47.47,0,0,1,.512.182.767.767,0,0,1,0,.635,3.185,3.185,0,0,1-2.864,1.783,2.624,2.624,0,0,1-2.558-2,.908.908,0,0,1,.132-.652.487.487,0,0,1,.528-.157,2.212,2.212,0,0,1,1.015.825A7.427,7.427,0,0,1,368.176,375.636Z" fill="#263238"/>
        <path id="Path_10163" data-name="Path 10163" d="M319.743,363.786l.776,16.793s-17.9,6.387-18.073,9.507l34.7-.256-.074-26.218Z" fill="#455a64"/>
        <path id="Path_10164" data-name="Path 10164" d="M331.239,379.086a1.329,1.329,0,0,1,.99,1.518,1.362,1.362,0,0,1-1.584.933,1.4,1.4,0,0,1-1.04-1.6,1.436,1.436,0,0,1,1.766-.825" fill="#e0e0e0"/>
        <path id="Path_10165" data-name="Path 10165" d="M337.148,389.83l-.116-2.641-33.232,1.23s-1.535.644-1.353,1.65Z" fill="#263238"/>
        <path id="Path_10166" data-name="Path 10166" d="M319.958,380.431c0,.157.825.223,1.65.726s1.287,1.172,1.444,1.106-.107-.982-1.131-1.576S319.917,380.274,319.958,380.431Z" fill="#263238"/>
        <path id="Path_10167" data-name="Path 10167" d="M316.327,381.858c0,.157.7.421,1.279,1.089s.759,1.386.924,1.378.272-.916-.47-1.733S316.335,381.71,316.327,381.858Z" fill="#263238"/>
        <path id="Path_10168" data-name="Path 10168" d="M314.3,385.968c.157,0,.38-.759-.058-1.65s-1.238-1.2-1.312-1.073.429.594.776,1.312S314.132,385.96,314.3,385.968Z" fill="#263238"/>
        <path id="Path_10169" data-name="Path 10169" d="M320.23,376.569c.074.149.825-.074,1.807,0s1.708.33,1.791.2-.627-.7-1.758-.751S320.189,376.445,320.23,376.569Z" fill="#263238"/>
        <path id="Path_10170" data-name="Path 10170" d="M313.7,243.179c0,.966,4.027,135.214,4.027,135.214h21.456l4.349-114.839s5.075,60.044,5.075,61.339,4.473,54.143,4.473,54.143l19.888-1.527-1.312-120.863-2.426-17.726Z" fill="#263238"/>
        <path id="Path_10171" data-name="Path 10171" d="M345.771,259.3a3.467,3.467,0,0,1-.866.347c-.569.2-1.4.47-2.426.825l-.19.058v-.19c-.116-1.609-.256-3.771-.38-6.14-.14-2.566-.239-4.885-.289-6.6,0-.825-.041-1.527-.041-2a2.222,2.222,0,0,1,.049-.734,2.928,2.928,0,0,1,.116.726c.058.47.116,1.155.173,1.989.132,1.65.281,4,.413,6.6.132,2.368.223,4.531.272,6.148l-.206-.132c1.04-.289,1.882-.52,2.476-.668a4.768,4.768,0,0,1,.9-.231Z" fill="#455a64"/>
        <path id="Path_10172" data-name="Path 10172" d="M344.121,245.349a.539.539,0,0,1,.289-.182,1.394,1.394,0,0,1,.941.083,1.1,1.1,0,0,1,.718,1.1,1.37,1.37,0,0,1-1.122,1.221,1.65,1.65,0,0,1-1.584-.668,1.172,1.172,0,0,1,0-1.279,1.428,1.428,0,0,1,.71-.553c.215-.074.338-.058.347-.041a1.642,1.642,0,0,0-.784.718.891.891,0,0,0,.05.974,1.238,1.238,0,0,0,1.164.479,1.04,1.04,0,0,0,.825-.825.825.825,0,0,0-.47-.825,1.774,1.774,0,0,0-1.081-.2Z" fill="#455a64"/>
        <path id="Path_10173" data-name="Path 10173" d="M353.974,246.744c-.116,0-.281-.578-.363-1.3s-.058-1.329.058-1.337.281.569.363,1.3S354.09,246.744,353.974,246.744Z" fill="#455a64"/>
        <path id="Path_10174" data-name="Path 10174" d="M355.459,246.587c-.116,0-.215-.619-.215-1.386s.083-1.386.206-1.386.215.619.215,1.386S355.583,246.587,355.459,246.587Z" fill="#455a64"/>
        <path id="Path_10175" data-name="Path 10175" d="M329.6,247.511a3.261,3.261,0,0,1-.4-1.551,3.525,3.525,0,0,1,0-1.6,3.462,3.462,0,0,1,.4,1.56C329.712,246.793,329.72,247.5,329.6,247.511Z" fill="#455a64"/>
        <path id="Path_10176" data-name="Path 10176" d="M331.412,247.643a2.335,2.335,0,0,1-.528-1.65,2.311,2.311,0,0,1,.371-1.65c.124,0,0,.759.058,1.65S331.528,247.61,331.412,247.643Z" fill="#455a64"/>
        <path id="Path_10177" data-name="Path 10177" d="M324.629,245.852a1.741,1.741,0,0,1-.074.586,10.95,10.95,0,0,1-.429,1.576,16.438,16.438,0,0,1-2.657,4.786,18.336,18.336,0,0,1-4.192,3.813,14.456,14.456,0,0,1-1.518.875,2.971,2.971,0,0,1-.6.256c0-.05.776-.479,1.956-1.329a20.093,20.093,0,0,0,4.044-3.813,18.806,18.806,0,0,0,2.715-4.663C324.373,246.661,324.563,245.836,324.629,245.852Z" fill="#455a64"/>
        <path id="Path_10178" data-name="Path 10178" d="M371.007,254.9a2.4,2.4,0,0,1-.652.1,11.413,11.413,0,0,1-1.8,0,12.279,12.279,0,0,1-5.5-1.915,10.488,10.488,0,0,1-3.656-4.126,7.649,7.649,0,0,1-.561-1.527,1.542,1.542,0,0,1-.091-.578c.066,0,.248.825.9,2.005a11.091,11.091,0,0,0,3.639,3.953,12.882,12.882,0,0,0,5.3,1.948C370.066,254.922,371,254.831,371.007,254.9Z" fill="#455a64"/>
        <path id="Path_10179" data-name="Path 10179" d="M336.058,322.879c0,.091-3.582-.685-7.939-1.716s-7.873-1.956-7.84-2.047,3.581.677,7.939,1.716S336.083,322.789,336.058,322.879Z" fill="#455a64"/>
        <path id="Path_10180" data-name="Path 10180" d="M370.619,317.994c.05.083-3.045,1.692-6.907,3.606s-7.047,3.392-7.1,3.3,3.045-1.7,6.907-3.606S370.569,317.911,370.619,317.994Z" fill="#455a64"/>
        <path id="Path_10181" data-name="Path 10181" d="M303.288,197.717l2.93,3.672v-6.313h9.243s1.023,14.45.825,17.528a24.335,24.335,0,0,1-1.131,4.712,5.422,5.422,0,0,1-9,2.245,31.9,31.9,0,0,1-2.888-3.218c-4.126-5.281-10.926-18.155-10.926-18.155l7.13-4.258Z" fill="#ffbf9d"/>
        <path id="Path_10182" data-name="Path 10182" d="M302.7,197.04a10.926,10.926,0,0,0,1.2,1.65c.825.966,1.865,2.294,3.095,3.73s2.4,2.707,3.3,3.573a6.733,6.733,0,0,0,1.568,1.271,15.551,15.551,0,0,0-1.353-1.485c-.825-.908-1.964-2.2-3.194-3.639A43.157,43.157,0,0,0,302.7,197.04Z" fill="#ff9a6c"/>
        <path id="Path_10183" data-name="Path 10183" d="M324.365,153.328l9.746-3.829,17.949-1.015,8.434,3.21-11.561,6.42-9.969-.363Z" fill="#ffbf9d"/>
        <path id="Path_10184" data-name="Path 10184" d="M312.869,245.011c.883.149,59.689,2.649,59.689,2.649l-2.03-52.905-.173-10.381-3.3-31.449s-8.8-3.029-13.278-4.473c0,0-4.72,4.951-13.7,4.786-8.772-.124-10.6-2.1-10.6-2.1l-12.263,4.7s-8.723,3.128-10.225,6.99-4.126,25.211-4.126,25.211h12.717l-.338,37.936Z" fill="#29abe2"/>
        <g id="Group_131" data-name="Group 131" opacity="0.2">
          <path id="Path_10185" data-name="Path 10185" d="M349.848,174.437l1.824,13.336,8.822,3.936,6.519-5.554V173.777l-17.165.66" fill="#076a94"/>
        </g>
        <path id="Path_10186" data-name="Path 10186" d="M366.782,178.25c0,.107-3.664.2-8.186.2s-8.195-.091-8.195-.2a81.042,81.042,0,0,1,8.195-.206,80.8,80.8,0,0,1,8.186.206Z" fill="#263238"/>
        <path id="Path_10187" data-name="Path 10187" d="M308.908,168.347a2.42,2.42,0,0,1,.1.355c.058.264.132.594.231,1.015a33.582,33.582,0,0,0,1.172,3.755c.586,1.576,1.411,3.433,2.426,5.513a64.426,64.426,0,0,1,2.723,7.2h0c0,3.169,0,6.6-.066,10.258-.083,8.087-.165,15.407-.215,20.746-.05,2.624-.083,4.762-.116,6.288q0,1.065-.05,1.708a3.364,3.364,0,0,1-.041.594,4.249,4.249,0,0,1,0-.6v-8c0-5.339.066-12.659.107-20.738,0-3.623.066-7.089.091-10.258v.058c-.883-2.641-1.733-5.092-2.657-7.2a58.194,58.194,0,0,1-2.36-5.562,29.03,29.03,0,0,1-1.081-3.8c-.083-.454-.149-.825-.182-1.04A1.727,1.727,0,0,1,308.908,168.347Z" fill="#263238"/>
        <path id="Path_10188" data-name="Path 10188" d="M371.254,162.174a7.437,7.437,0,0,1,0,1.131c0,.825-.066,1.832-.116,3.07-.107,2.657-.248,6.206-.4,10.126s-.338,7.477-.454,10.134c-.074,1.238-.132,2.269-.182,3.07a5.776,5.776,0,0,1-.115,1.122,7.145,7.145,0,0,1,0-1.131c0-.825,0-1.832.058-3.07.066-2.6.182-6.181.347-10.134s.347-7.543.512-10.126c.083-1.3.165-2.344.239-3.07a6.407,6.407,0,0,1,.116-1.122Z" fill="#263238"/>
        <g id="Group_132" data-name="Group 132" opacity="0.3">
          <path id="Path_10189" data-name="Path 10189" d="M308.941,170.286a22.067,22.067,0,0,0,5.777,15.754C313.521,180.585,310.534,175.51,308.941,170.286Z"/>
        </g>
        <g id="Group_133" data-name="Group 133" opacity="0.3">
          <path id="Path_10190" data-name="Path 10190" d="M334.771,222.63a11.009,11.009,0,0,0,7.056-3.928,33.447,33.447,0,0,0,4.745-6.858,27.034,27.034,0,0,0,2.773-10.794C345.92,210.235,340.9,217.5,334.771,222.63Z"/>
        </g>
        <path id="Path_10191" data-name="Path 10191" d="M350.434,197.048a1.757,1.757,0,0,1-.049.338c-.058.264-.132.578-.215.957s-.215.916-.4,1.494-.355,1.238-.619,1.956a45.086,45.086,0,0,1-2.03,4.951,47.311,47.311,0,0,1-7.221,10.868,41.268,41.268,0,0,1-3.8,3.763c-.553.52-1.106.933-1.576,1.312s-.883.685-1.238.924l-.825.553c-.19.116-.289.182-.3.165a1.362,1.362,0,0,1,.248-.231l.767-.611c.338-.248.743-.569,1.2-.966s.99-.825,1.535-1.345a48.542,48.542,0,0,0,3.705-3.8,55.847,55.847,0,0,0,3.936-5.166,57.257,57.257,0,0,0,3.235-5.62,50.672,50.672,0,0,0,2.088-4.877c.281-.7.479-1.362.668-1.931s.347-1.065.462-1.469.2-.677.281-.933S350.417,197.04,350.434,197.048Z" fill="#263238"/>
        <path id="Path_10192" data-name="Path 10192" d="M348.734,180.494a4.181,4.181,0,0,1-.074.545c-.066.388-.157.9-.264,1.535s-.272,1.477-.512,2.41-.454,2.014-.825,3.169c-.165.578-.347,1.188-.536,1.824s-.437,1.279-.668,1.948c-.437,1.362-1.032,2.765-1.65,4.25a70.691,70.691,0,0,1-10.811,17.734c-1.048,1.2-2.03,2.377-3.037,3.383-.5.512-.957,1.023-1.436,1.477s-.932.9-1.378,1.312c-.825.825-1.716,1.543-2.476,2.17s-1.37,1.147-1.915,1.551l-1.246.941a2.277,2.277,0,0,1-.446.305,2.862,2.862,0,0,1,.4-.363l1.2-1c.528-.421,1.172-.941,1.873-1.593s1.551-1.345,2.4-2.212l1.353-1.32c.47-.462.924-.974,1.411-1.485,1-1.015,1.964-2.187,3-3.4a72.883,72.883,0,0,0,10.794-17.643c.611-1.477,1.2-2.864,1.65-4.209.239-.677.487-1.312.685-1.939s.38-1.23.561-1.807c.38-1.147.619-2.212.875-3.144s.437-1.733.569-2.393.256-1.131.338-1.518a2.557,2.557,0,0,1,.165-.528Z" fill="#263238"/>
        <path id="Path_10193" data-name="Path 10193" d="M302.265,164.047l22.644,34.429a1.015,1.015,0,0,1-.982,1.568l-26.077-3.3a1.04,1.04,0,0,1-.693-.413l-24.905-34.016a1.023,1.023,0,0,1,.9-1.65l26.828,1.981a3.02,3.02,0,0,1,2.286,1.4Z" fill="#e0e0e0"/>
        <path id="Path_10194" data-name="Path 10194" d="M302.265,164.047a1.6,1.6,0,0,0-.206-.314,3.012,3.012,0,0,0-.825-.71,3.705,3.705,0,0,0-1.741-.421l-2.41-.2-15.465-1.213-5.125-.4-2.723-.206h-.718a1.172,1.172,0,0,0-.751.305,1.2,1.2,0,0,0-.2,1.535l7.246,9.944c5.116,6.99,10.728,14.673,16.628,22.743.38.5.718.99,1.131,1.518a1.18,1.18,0,0,0,.462.314,1.8,1.8,0,0,0,.5.1l.924.116,3.648.462,7.13.891,13.484,1.65c.281,0,.512.074.825.091a1.213,1.213,0,0,0,.866-.355,1.254,1.254,0,0,0,.355-.825,1.4,1.4,0,0,0-.314-.825l-1.749-2.674-3.3-4.951-5.909-8.937c-3.615-5.438-6.536-9.853-8.574-12.915l-2.352-3.507c-.264-.38-.47-.685-.627-.9a2.48,2.48,0,0,0-.223-.305,3.191,3.191,0,0,0,.19.33l.586.924c.528.825,1.3,2.022,2.278,3.548l8.467,13,5.867,8.962,3.3,4.993,1.716,2.616a1.04,1.04,0,0,1,.248.619.875.875,0,0,1-.248.578.825.825,0,0,1-.578.239c-.223,0-.528-.066-.784-.091l-13.509-1.725-7.13-.9-3.648-.462-.916-.116a2.1,2.1,0,0,1-.4-.074.825.825,0,0,1-.305-.206c-.363-.5-.726-.982-1.089-1.485-5.909-8.054-11.553-15.729-16.653-22.719-2.566-3.482-4.993-6.8-7.27-9.9a.825.825,0,0,1,.66-1.3,3.912,3.912,0,0,1,.677.041l2.723.2,5.133.363,15.514,1.073,2.426.165a3.565,3.565,0,0,1,1.708.371A3.3,3.3,0,0,1,302.265,164.047Z" fill="#263238"/>
        <path id="Path_10195" data-name="Path 10195" d="M272.251,162.339a2.716,2.716,0,0,0,.545.083l1.584.165,5.892.52,20.037,1.65-.157-.091c1.254,1.865,2.55,3.8,3.846,5.777,5.29,8.129,9.9,15.605,13.393,20.92,1.733,2.665,3.177,4.795,4.184,6.263l1.172,1.65a3.517,3.517,0,0,0,.437.561,5.915,5.915,0,0,0-.363-.611l-1.106-1.725-4.068-6.33c-3.416-5.356-8-12.849-13.286-20.986-1.3-2.005-2.6-3.936-3.862-5.777l-.058-.083h-.058l-20.045-1.485-5.9-.4-1.593-.091A3.993,3.993,0,0,0,272.251,162.339Z" fill="#263238"/>
        <path id="Path_10196" data-name="Path 10196" d="M288.418,167.208Z" fill="#fff"/>
        <path id="Path_10197" data-name="Path 10197" d="M287.774,167.6a.52.52,0,0,1,.644-.388,1.444,1.444,0,0,1,.7.388.71.71,0,0,1,.124.9c-.256.322-.825.2-1.106-.066a.932.932,0,0,1-.363-.833Z" fill="#fff"/>
        <path id="Path_10198" data-name="Path 10198" d="M299.954,186.89s1.023-2.476-1.584-2.773a91.2,91.2,0,0,0-9.465,0s-3.755.4-2.963,3.086c0,0-2.212,1.981-1.023,4.126s1.65,1.5,1.65,1.5-.314,2.616,1.65,3c0,0,2.146,2.533,4.126,2.377s10.357-4.192,10.91-4.951,1.345-1.238.875-2.121c0,0,1.023-2.319-1.188-2.674C302.958,188.425,302.8,186.5,299.954,186.89Z" fill="#ffbf9d"/>
        <path id="Path_10199" data-name="Path 10199" d="M288.055,187.773a6.784,6.784,0,0,0,1.766.132h4.25a24.651,24.651,0,0,0,4.275-.248c1.122-.264,1.568-.924,1.518-.941a4.679,4.679,0,0,1-1.584.635c-1.032.173-2.558.066-4.217.124s-3.161.074-4.25.124a7.369,7.369,0,0,0-1.758.173Z" fill="#ff9a6c"/>
        <path id="Path_10200" data-name="Path 10200" d="M289.92,191.734a1.452,1.452,0,0,0,.569.19,6.114,6.114,0,0,0,1.65.107,11.429,11.429,0,0,0,2.377-.437c.875-.239,1.807-.578,2.789-.875a12.6,12.6,0,0,1,2.814-.586,4.266,4.266,0,0,0,2.393-.479,1.378,1.378,0,0,0,.569-.825,1.122,1.122,0,0,0-.1-.743c-.206-.371-.487-.4-.479-.38a.927.927,0,0,1,.322.454,1.015,1.015,0,0,1-.487,1.23,4.333,4.333,0,0,1-2.245.338,11.61,11.61,0,0,0-2.913.561l-2.773.916a14.357,14.357,0,0,1-2.294.512,18.151,18.151,0,0,1-2.2.017Z" fill="#ff9a6c"/>
        <path id="Path_10201" data-name="Path 10201" d="M292.725,195.076a6.825,6.825,0,0,0,1.766-.338c1.073-.272,2.542-.693,4.126-1.213s3.037-1.056,4.06-1.477a6.973,6.973,0,0,0,1.65-.767c-.049-.116-2.624.825-5.777,1.824A57.175,57.175,0,0,0,292.725,195.076Z" fill="#ff9a6c"/>
        <path id="Path_10202" data-name="Path 10202" d="M292.057,198.179a3.7,3.7,0,0,0,1.461-.165,17.538,17.538,0,0,0,3.342-1.18c1.254-.569,2.352-1.155,3.144-1.576a5.091,5.091,0,0,0,1.254-.759,28.289,28.289,0,0,0-4.58,1.939C294.211,197.626,292.04,198.055,292.057,198.179Z" fill="#ff9a6c"/>
        <path id="Path_10203" data-name="Path 10203" d="M375.422,174.586s-5.331,21.357-11.991,29.246c-6.453,7.642-16.562,4.126-20.061-5.777s-9.738-32.44-9.738-32.44l7.658-5.859,13.2,25.656,5.966-17.487Z" fill="#ffbf9d"/>
        <path id="Path_10204" data-name="Path 10204" d="M333.987,166.226l-5.62-8.145a14.2,14.2,0,0,1-2.393-.743c-.635-.371-1.263-3.606-1.246-4.233s-1.089-2.1-.644-2.525,1.948-.446,1.865-1.048c0-.132-1.114-1.485-.239-2.476a4.679,4.679,0,0,1,1.584-.668l-.091-3.111s1.65-3.664,3.392-2.335c0,0,6.462,4.951,7.113,5.777s3.144,11.132,3.581,13.072" fill="#ffbf9d"/>
        <path id="Path_10205" data-name="Path 10205" d="M341.29,159.773a2.7,2.7,0,0,0-.083-.545c-.091-.4-.2-.908-.338-1.551-.3-1.353-.751-3.3-1.362-5.7-.314-1.2-.652-2.476-1.089-3.92-.107-.347-.223-.7-.371-1.065a2.418,2.418,0,0,0-.759-.933c-.594-.52-1.213-1.032-1.848-1.551-1.279-1.032-2.641-2.1-4.052-3.2a4.951,4.951,0,0,0-1.188-.784,1.651,1.651,0,0,0-1.452.347,6.726,6.726,0,0,0-1.725,2.327h0v1c0,.726,0,1.452.066,2.162l.149-.2a7.088,7.088,0,0,0-1.139.38,1.774,1.774,0,0,0-.553.363,1.6,1.6,0,0,0-.314.569,1.914,1.914,0,0,0,.1,1.238,3.2,3.2,0,0,0,.256.536l.14.239v.058h0a.141.141,0,0,1,0,.058c0,.066-.165.165-.322.223s-.33.116-.5.173a4.95,4.95,0,0,0-.528.173,1,1,0,0,0-.536.38.875.875,0,0,0,0,.66,3.54,3.54,0,0,0,.19.52c.14.33.3.644.413.949a1.279,1.279,0,0,1,.1.437,3.584,3.584,0,0,0,.049.528c.05.338.107.668.182,1a13.593,13.593,0,0,0,.52,1.873,2.476,2.476,0,0,0,.5.866,3.062,3.062,0,0,0,.875.388c.569.173,1.131.314,1.65.437l-.091-.058,4.126,5.909,1.155,1.6a4.242,4.242,0,0,0,.429.545,5.538,5.538,0,0,0-.355-.594l-1.089-1.65c-.982-1.461-2.36-3.5-4.052-5.991v-.05h.008c-.528-.132-1.081-.281-1.65-.454a3.021,3.021,0,0,1-.751-.33,2.205,2.205,0,0,1-.4-.734,12.685,12.685,0,0,1-.5-1.832c-.066-.322-.124-.644-.173-.974v-.479a1.742,1.742,0,0,0-.116-.561c-.124-.338-.281-.652-.413-.974a2.705,2.705,0,0,1-.173-.47.553.553,0,0,1,0-.38.759.759,0,0,1,.347-.206,4.491,4.491,0,0,1,.5-.165c.173-.058.355-.107.536-.182a.9.9,0,0,0,.528-.437.478.478,0,0,0,.041-.215.338.338,0,0,0-.041-.149v-.066l-.14-.239a3.736,3.736,0,0,1-.231-.487,1.56,1.56,0,0,1-.083-.982,1.089,1.089,0,0,1,.231-.429,1.419,1.419,0,0,1,.421-.256,7.12,7.12,0,0,1,1.073-.363l.148-.041v-.157c0-.71-.041-1.428-.066-2.154v-.858a6.289,6.289,0,0,1,1.593-2.179,1.213,1.213,0,0,1,1.106-.289,4.877,4.877,0,0,1,1.065.71c1.419,1.1,2.781,2.162,4.06,3.185.644.512,1.263,1.015,1.848,1.518a2.079,2.079,0,0,1,.685.825c.14.338.256.693.371,1.032.437,1.386.825,2.7,1.122,3.887.619,2.368,1.131,4.291,1.485,5.669.173.635.305,1.147.4,1.535a2.591,2.591,0,0,0,.008.536Z" fill="#ff9a6c"/>
        <path id="Path_10206" data-name="Path 10206" d="M327.294,146.387c0,.066.652,0,1.65.116a12.587,12.587,0,0,1,1.766.4,8.137,8.137,0,0,0,2.286,0,4.324,4.324,0,0,1,3.606,1.172,4.762,4.762,0,0,1,.866,1.378,2.146,2.146,0,0,0-.66-1.576,4.25,4.25,0,0,0-1.551-1.081,4.761,4.761,0,0,0-2.286-.289,8.848,8.848,0,0,1-2.187,0,9.563,9.563,0,0,0-1.824-.322A4.275,4.275,0,0,0,327.294,146.387Z" fill="#ff9a6c"/>
        <path id="Path_10207" data-name="Path 10207" d="M329.58,146.214c.091.05.355-.33.322-.867s-.338-.875-.421-.825,0,.413,0,.825S329.473,146.173,329.58,146.214Z" fill="#ff9a6c"/>
        <path id="Path_10208" data-name="Path 10208" d="M325.751,149.647a14.186,14.186,0,0,0,4.869-.38,4.812,4.812,0,0,1,1.791-.231,1.948,1.948,0,0,1,1.164.767,9.64,9.64,0,0,1,.644,1.213,2.2,2.2,0,0,0-.4-1.4,2.146,2.146,0,0,0-1.32-.957,4.613,4.613,0,0,0-1.948.19C327.93,149.441,325.751,149.532,325.751,149.647Z" fill="#ff9a6c"/>
        <path id="Path_10209" data-name="Path 10209" d="M324.893,152.585a2.633,2.633,0,0,0,1.2,0c.734-.083,1.725-.338,2.8-.553a6.271,6.271,0,0,1,1.51-.149,1.758,1.758,0,0,1,1.081.4,1.782,1.782,0,0,1,.536.949.574.574,0,0,0,.066-.33,1.345,1.345,0,0,0-.4-.825,1.931,1.931,0,0,0-1.246-.553,5.777,5.777,0,0,0-1.65.124c-1.106.215-2.063.512-2.773.66a5.656,5.656,0,0,0-1.114.281Z" fill="#ff9a6c"/>
        <path id="Path_10210" data-name="Path 10210" d="M326.791,154.912c-.066.05.487.627,1.494.627l-.2-.173a1.6,1.6,0,0,0,.058.52,5.777,5.777,0,0,0,.462,2.055,5.619,5.619,0,0,0-.066-2.1l-.074-.52v-.182h-.173A6.84,6.84,0,0,1,326.791,154.912Z" fill="#ff9a6c"/>
        <path id="Path_10211" data-name="Path 10211" d="M366.988,152.956s10.918,2.641,10.893,17.124-3.3,21.629-3.3,21.629l-20.127-10.984,4.522-11.248Z" fill="#29abe2"/>
        <path id="Path_10212" data-name="Path 10212" d="M374.58,191.709a1.725,1.725,0,0,1-.413-.182L373,190.933l-4.291-2.261-14.351-7.732-.165-.083.066-.173,1.081-2.822c1.287-3.342,2.476-6.528,3.631-9.424q.842-2.166,1.593-4.126a24.932,24.932,0,0,1,1.593-3.515,10.942,10.942,0,0,1,3.631-4.2,4.324,4.324,0,0,1,1.419-.569,2.326,2.326,0,0,1,.388-.049h.14a5.512,5.512,0,0,0-1.857.759,10.943,10.943,0,0,0-3.458,4.209,26.172,26.172,0,0,0-1.527,3.491q-.73,1.943-1.56,4.126l-3.6,9.441-1.081,2.822-.1-.264,14.326,7.864L373.1,190.8l1.131.66a1.947,1.947,0,0,1,.347.248Z" fill="#263238"/>
      </g>
    </g>
  </g>
</svg>
