<svg xmlns="http://www.w3.org/2000/svg" xmlns:xlink="http://www.w3.org/1999/xlink" width="370" height="240" viewBox="0 0 370 240">
  <defs>
    <clipPath id="clip-path">
      <rect id="Rectangle_113" data-name="Rectangle 113" width="370" height="240" transform="translate(258 1198)" fill="#fff"/>
    </clipPath>
  </defs>
  <g id="Mask_Group_33" data-name="Mask Group 33" transform="translate(-258 -1198)" clip-path="url(#clip-path)">
    <g id="Shared_goals-cuate" data-name="Shared goals-cuate" transform="translate(300.063 1174.563)">
      <g id="freepik--Floor--inject-37">
        <path id="Path_9884" data-name="Path 9884" d="M263.48,254.6,233,254.74l-30.481.051-60.962.1-60.962-.1-30.475-.051L19.642,254.6l30.481-.142,30.475-.046,60.962-.1,60.962.1,30.481.046Z" fill="#263238"/>
      </g>
      <g id="freepik--Target--inject-37">
        <path id="Path_9885" data-name="Path 9885" d="M249.158,254.6h3.26L229.585,133.942h-8.12Z" fill="#455a64"/>
        <path id="Path_9886" data-name="Path 9886" d="M221.465,133.942l4.1,17.844h7.4l-3.368-17.827-.006-.017Z" fill="#37474f"/>
        <path id="Path_9887" data-name="Path 9887" d="M215.849,254.6h3.26l-.728-120.662h-8.114Z" fill="#455a64"/>
        <path id="Path_9888" data-name="Path 9888" d="M210.267,133.942l.825,17.844h7.4l-.108-17.827v-.017Z" fill="#37474f"/>
        <path id="Path_9889" data-name="Path 9889" d="M185.8,254.6h-3.255L200.52,133.942h8.12Z" fill="#455a64"/>
        <path id="Path_9890" data-name="Path 9890" d="M197.863,151.786h7.4l3.38-17.844h-8.12l-.006.017Z" fill="#37474f"/>
        <rect id="Rectangle_110" data-name="Rectangle 110" width="47.38" height="2.356" transform="translate(239.866 205.266) rotate(180)" fill="#455a64"/>
        <ellipse id="Ellipse_28" data-name="Ellipse 28" cx="61.031" cy="43.346" rx="61.031" ry="43.346" transform="translate(173.619 145.93) rotate(-87.17)" fill="#407bff"/>
        <path id="Path_9891" data-name="Path 9891" d="M213.482,25.554l10.174.632-7.75,121.828-10.179-.632Z" fill="#407bff"/>
        <g id="Group_127" data-name="Group 127" opacity="0.1">
          <path id="Path_9892" data-name="Path 9892" d="M213.482,25.554l10.174.632-7.75,121.828-10.179-.632Z"/>
        </g>
        <ellipse id="Ellipse_29" data-name="Ellipse 29" cx="61.031" cy="43.346" rx="61.031" ry="43.346" transform="translate(164.253 145.349) rotate(-87.17)" fill="#407bff"/>
        <ellipse id="Ellipse_30" data-name="Ellipse 30" cx="47.608" cy="33.815" rx="47.608" ry="33.815" transform="translate(174.435 132.413) rotate(-87.17)" fill="#fff"/>
        <ellipse id="Ellipse_31" data-name="Ellipse 31" cx="34.328" cy="24.376" rx="34.328" ry="24.376" transform="translate(184.519 119.615) rotate(-87.17)" fill="#407bff"/>
        <ellipse id="Ellipse_32" data-name="Ellipse 32" cx="20.899" cy="14.839" rx="20.899" ry="14.839" transform="translate(194.706 106.674) rotate(-87.17)" fill="#fff"/>
        <path id="Path_9893" data-name="Path 9893" d="M217.141,85.35c.353,5.121-2.31,9.758-5.952,10.424s-6.868-2.913-7.215-8.006,2.31-9.758,5.946-10.43S216.788,80.229,217.141,85.35Z" fill="#407bff"/>
        <ellipse id="Ellipse_33" data-name="Ellipse 33" cx="61.031" cy="43.346" rx="61.031" ry="43.346" transform="translate(164.253 145.349) rotate(-87.17)" fill="#fff" opacity="0.4"/>
      </g>
      <g id="freepik--Plant--inject-37">
        <path id="Path_9894" data-name="Path 9894" d="M169.7,220.771a140.235,140.235,0,0,0-.2-14.913,189.8,189.8,0,0,0-4.671-30.384c-1.3-5.622-2.908-11.152-4.58-16.672-.051-.171-.313-.119-.267.051,5.166,19.465,9.411,39.557,9.1,59.79-.08,5.69-.734,11.226-1.275,16.854,0,.154.233.211.267.057A82.681,82.681,0,0,0,169.7,220.771Z" fill="#407bff"/>
        <path id="Path_9895" data-name="Path 9895" d="M159.974,158.875s-7.835,19.881-6.083,24.552a9.037,9.037,0,0,0,5.371,5.69s-4.791,6.828-1.445,13.258,10.811,6.117,11.283,13.389C169.1,215.741,169.516,185.322,159.974,158.875Z" fill="#407bff"/>
        <path id="Path_9896" data-name="Path 9896" d="M168.252,203.183a.182.182,0,0,0,0-.108,182.154,182.154,0,0,0-7.6-39.989c0-.034-.074,0-.063,0q2.322,8.723,4.114,17.536a8.649,8.649,0,0,0-3.738-2.083c-.028,0-.04.028,0,.04a9.855,9.855,0,0,1,3.858,2.578c.233,1.138.455,2.276.666,3.459-1.747-1.957-4.176-2.925-6.606-3.846-.034,0-.051.04,0,.051a15.853,15.853,0,0,1,6.765,4.552q.893,4.95,1.57,9.929a9.473,9.473,0,0,0-4.671-2.674c-.051,0-.085.068-.028.085a9.849,9.849,0,0,1,4.734,3.033h.034c.154,1.166.3,2.339.438,3.505a12.125,12.125,0,0,0-3.272-1.974c-.028,0-.046.04,0,.051a11.2,11.2,0,0,1,3.277,2.174.068.068,0,0,0,.046,0c.125,1.138.256,2.23.37,3.346a15.932,15.932,0,0,0-6.64-4.745.042.042,0,0,0-.028.08,17.343,17.343,0,0,1,6.543,5.041.154.154,0,0,0,.165.051c.171,1.707.324,3.414.45,5.121,0,0,.04.028.04,0C168.514,206.694,168.423,204.936,168.252,203.183Z" fill="#263238"/>
        <path id="Path_9897" data-name="Path 9897" d="M161.959,176.583a9.815,9.815,0,0,0-4.706-1.468.028.028,0,0,0,0,.057,18.9,18.9,0,0,1,4.654,1.519C161.965,176.719,162.016,176.622,161.959,176.583Z" fill="#263238"/>
        <path id="Path_9898" data-name="Path 9898" d="M162.91,197.63a9.883,9.883,0,0,0-3.533-1.212.034.034,0,1,0,0,.068,13.281,13.281,0,0,1,3.494,1.223C162.915,197.732,162.955,197.653,162.91,197.63Z" fill="#263238"/>
        <path id="Path_9899" data-name="Path 9899" d="M190.284,183.752a53.406,53.406,0,0,0-9.064,7.92,32.6,32.6,0,0,0-6.356,10.783,80.576,80.576,0,0,0-4.734,25.787,62.349,62.349,0,0,0,1.394,14.5.139.139,0,1,0,.273-.051,81.07,81.07,0,0,1,.142-25.343c1.343-8.228,3.459-17.172,8.683-23.858,2.845-3.636,6.4-6.5,9.906-9.457C190.711,183.871,190.477,183.615,190.284,183.752Z" fill="#407bff"/>
        <path id="Path_9900" data-name="Path 9900" d="M171.268,222.319a48.69,48.69,0,0,1,6.612-8.444c3.915-3.92,7.215-6.7,7.727-9.292s-3.926-4.5-3.926-4.5,5.423.973,6.9-1.3,2.2-15.454,2.2-15.454-9.844,7.044-14.447,16.916S171.268,222.319,171.268,222.319Z" fill="#407bff"/>
        <path id="Path_9901" data-name="Path 9901" d="M187.382,186.705c-4.148,4.08-8.324,8.421-10.771,13.775a54.147,54.147,0,0,0-2.179,5.69h0c-.125.387-.256.78-.376,1.172a.114.114,0,0,0,0,.063,112.355,112.355,0,0,0-2.805,12.176s.04.04.046,0c.421-2.054.893-4.131,1.417-6.2h.057a8.672,8.672,0,0,1,2.589-.66c.057,0,.051-.108,0-.1a9.541,9.541,0,0,0-2.56.467c.478-1.866,1-3.727,1.582-5.565a27.424,27.424,0,0,1,5.849-.762v-.034a22.127,22.127,0,0,0-5.747.489c.1-.313.2-.626.313-.939a28.951,28.951,0,0,1,3.892-.66v-.046a19.136,19.136,0,0,0-3.812.467c.541-1.587,1.138-3.152,1.764-4.677a27.464,27.464,0,0,1,1.861-3.619,23.677,23.677,0,0,1,3.158-.569c.028,0,.028-.051,0-.051a8.586,8.586,0,0,0-2.993.324q.78-1.252,1.644-2.452h0a16.679,16.679,0,0,1,6.72-.518.034.034,0,0,0,0-.068,14.143,14.143,0,0,0-6.435.182q.347-.467.717-.922a14.5,14.5,0,0,1,4.131-.649.023.023,0,1,0,0-.046,10.708,10.708,0,0,0-3.852.341c1.826-2.276,3.846-4.41,5.844-6.521C187.553,186.665,187.485,186.631,187.382,186.705Z" fill="#263238"/>
        <path id="Path_9902" data-name="Path 9902" d="M187.274,195.689a9.059,9.059,0,0,0-1.963-.068.074.074,0,0,0,0,.142c.649,0,1.3-.034,1.952,0a.04.04,0,0,0,.011-.074Z" fill="#263238"/>
        <path id="Path_9903" data-name="Path 9903" d="M180.173,208.475a8.973,8.973,0,0,0-3.038.609v.046c1.007-.239,2.02-.336,3.038-.506a.074.074,0,1,0,0-.148Z" fill="#263238"/>
        <path id="Path_9904" data-name="Path 9904" d="M178.045,204.059a6.57,6.57,0,0,0-1.292.114c-.04,0-.04.08,0,.08a6.513,6.513,0,0,0,1.292-.063C178.125,204.179,178.125,204.059,178.045,204.059Z" fill="#263238"/>
        <path id="Path_9905" data-name="Path 9905" d="M142.369,197.738a44.673,44.673,0,0,1,9.167,4.319,27.357,27.357,0,0,1,7.636,7.255,67.864,67.864,0,0,1,9.821,19.773,53,53,0,0,1,2.225,12.057.119.119,0,0,1-.233,0,68.5,68.5,0,0,0-5.974-20.484c-2.993-6.344-6.765-13.087-12.518-17.3a56.271,56.271,0,0,0-10.2-5.366C142.05,197.931,142.181,197.675,142.369,197.738Z" fill="#407bff"/>
        <path id="Path_9906" data-name="Path 9906" d="M166.665,224.555a40.968,40.968,0,0,0-7.3-5.3c-4.08-2.276-7.4-3.755-8.4-5.735s2.139-4.552,2.139-4.552-4.165,2.037-5.889.541-5.354-12-5.354-12,9.61,3.414,15.613,10.35S166.665,224.555,166.665,224.555Z" fill="#407bff"/>
        <path id="Path_9907" data-name="Path 9907" d="M166.147,222.393c-4.808-9.024-11.221-17.184-20.012-22.572h0a44.154,44.154,0,0,1,6.43,5.036,10.19,10.19,0,0,0-5.166,1.087.034.034,0,0,0,.028.057,14.1,14.1,0,0,1,5.314-.9.1.1,0,0,0,.057,0c.313.3.62.6.927.9a16.01,16.01,0,0,0-2.76.37v.034a14.321,14.321,0,0,1,2.913-.239,60.127,60.127,0,0,1,4.552,5.149,4.592,4.592,0,0,0-1.929.137.04.04,0,0,0,0,.074,9.976,9.976,0,0,1,2.06-.028c.267.336.529.666.791,1.007a18.481,18.481,0,0,0-5.832.569v.046a23.254,23.254,0,0,1,5.992-.393c.245.324.478.66.717.99a12.563,12.563,0,0,0-3.471.4c-.046,0-.034.08,0,.068a13.383,13.383,0,0,1,3.6-.279c1.036,1.423,2.026,2.879,2.976,4.353a3.294,3.294,0,0,0-1.525.091v.04a6.909,6.909,0,0,1,1.644.08c.859,1.331,1.707,2.68,2.481,4.034C166.039,222.6,166.227,222.512,166.147,222.393Z" fill="#263238"/>
        <path id="Path_9908" data-name="Path 9908" d="M158.688,214.91a7.266,7.266,0,0,0-2.794.341v.04a21.762,21.762,0,0,1,2.777-.285C158.75,215,158.75,214.916,158.688,214.91Z" fill="#263238"/>
        <path id="Path_9909" data-name="Path 9909" d="M150.3,203.911a5.122,5.122,0,0,0-1.286.074.04.04,0,0,0,0,.08c.421-.046.836-.028,1.263-.04a.058.058,0,0,0,.023-.114Z" fill="#263238"/>
        <path id="Path_9910" data-name="Path 9910" d="M179.058,254.387h-21.69l3.09-22.657.791-5.8h13.923l.791,5.8Z" fill="#455a64"/>
        <path id="Path_9911" data-name="Path 9911" d="M175.962,231.73H160.457l.791-5.8h13.923Z" fill="#263238"/>
        <rect id="Rectangle_111" data-name="Rectangle 111" width="17.906" height="4.922" transform="translate(159.257 223.906)" fill="#455a64"/>
      </g>
      <g id="freepik--Arrow--inject-37">
        <rect id="Rectangle_112" data-name="Rectangle 112" width="151.171" height="27.249" transform="translate(26.588 83.383) rotate(-3.36)" fill="#407bff"/>
        <path id="Path_9912" data-name="Path 9912" d="M177.061,67.085l2.469,42.072,30.572-22.9Z" fill="#407bff"/>
        <g id="Group_128" data-name="Group 128" opacity="0.5">
          <path id="Path_9913" data-name="Path 9913" d="M210.1,86.254l-30.572,22.9-.438-7.425L28.182,110.585l-1.6-27.2,150.909-8.859-.438-7.437Z" fill="#fff"/>
          <path id="Path_9914" data-name="Path 9914" d="M26.845,112.092,25.081,82.049l150.9-8.859-.5-8.654,37.2,21.571-34.419,25.776-.506-8.649Zm1.24-27.369,1.434,24.364,150.909-8.871.364,6.208L207.536,86.4,178.631,69.645,179,75.859Z" fill="#407bff"/>
        </g>
      </g>
      <g id="freepik--character-2--inject-37">
        <path id="Path_9915" data-name="Path 9915" d="M103.461,225.585s-.569,22.538-.569,22.555c0,4.165.1,7.818.324,9.673v.034a3,3,0,0,0,.313,1.286h0c1.246.836,34.544,1.707,35.716,1.343s.233-3.733-1.03-4.8-13.855-7.027-13.855-7.027l.364-22.527Z" fill="#f7a9a0"/>
        <path id="Path_9916" data-name="Path 9916" d="M102.852,243.667s.04,4.455.034,4.472c0,4.165.1,7.818.324,9.673v.034a5.986,5.986,0,0,0,.313,1.286h0c1.246.836,34.544,1.707,35.716,1.343s.233-3.733-1.03-4.8-13.849-7.027-13.849-7.027V244.1Z" fill="#fff"/>
        <path id="Path_9917" data-name="Path 9917" d="M126.4,248.652a7.832,7.832,0,0,0-6.566,1.644c-.063.063.028.148.1.125a31.126,31.126,0,0,1,6.469-1.491.142.142,0,0,0,0-.279Z" fill="#263238"/>
        <path id="Path_9918" data-name="Path 9918" d="M128.024,249.574a7.843,7.843,0,0,0-6.566,1.639c-.063.063.028.154.1.131a31.124,31.124,0,0,1,6.47-1.491.142.142,0,0,0,0-.279Z" fill="#263238"/>
        <path id="Path_9919" data-name="Path 9919" d="M129.629,250.5c-2.219-.364-4.91.028-6.566,1.639-.063.063,0,.154.1.131a30.987,30.987,0,0,1,6.464-1.491.142.142,0,0,0,.006-.279Z" fill="#263238"/>
        <path id="Path_9920" data-name="Path 9920" d="M139.262,260.527c-1.172.358-34.47-.506-35.716-1.343-.478-.307-.637-5.166-.654-11.044v-.188l21.485.319v.364s12.6,6.031,13.872,7.1S140.434,260.168,139.262,260.527Z" fill="#37474f"/>
        <path id="Path_9921" data-name="Path 9921" d="M102.886,247.952v.188c.028,5.878.182,10.737.66,11.044.569.381,7.784.768,15.579,1.047,9.337.33,19.5.5,20.137.3,1.172-.358.228-3.733-1.03-4.8s-13.872-7.078-13.872-7.078v-.358l-7.147-.125Z" fill="#407bff"/>
        <path id="Path_9922" data-name="Path 9922" d="M138.915,259.224c-5.6-.285-28.256-.9-33.821-.751-.046,0-.046.034,0,.034,5.553.4,28.205.836,33.821.808C139.034,259.315,139.034,259.229,138.915,259.224Z" fill="#263238"/>
        <path id="Path_9923" data-name="Path 9923" d="M117.213,248.168c.523,3.6,1.326,8.9,1.912,12.063,9.337.33,19.5.495,20.137.3,1.172-.358.228-3.733-1.03-4.8s-13.872-7.078-13.872-7.078v-.358Z" opacity="0.1"/>
        <path id="Path_9924" data-name="Path 9924" d="M100.951,248.259l24.1.233s1.366-39.261,1.468-52.314c.119-14.948-.728-59.745-.728-59.745H107.774s-4.831,9.883-2.071,21l.762,39.995Z" fill="#263238"/>
        <path id="Path_9925" data-name="Path 9925" d="M102.738,244.043a17.892,17.892,0,0,1,1.918-.154c.711-.051,1.423-.1,2.134-.131,1.371-.063,2.743-.085,4.114-.091,2.771,0,5.536,0,8.3.1,1.576.051,3.147.114,4.717.2.063,0,.057.1,0,.1-2.743.1-5.491.142-8.233.2s-5.485.1-8.222.051c-.791,0-1.576,0-2.361-.068s-1.587,0-2.356-.114C102.7,244.128,102.681,244.054,102.738,244.043Z" fill="#37474f"/>
        <path id="Path_9926" data-name="Path 9926" d="M123.313,222.387c.279-6.487.489-12.979.666-19.465q.529-19.477.279-38.959c-.091-7.283-.284-14.566-.5-21.849a.063.063,0,0,1,.125,0c.688,13.036.956,26.1.967,39.153s-.239,25.98-.9,38.936c-.358,7.277-.8,14.566-1.485,21.821a.051.051,0,0,1-.1,0C122.659,235.485,123.029,228.942,123.313,222.387Z" fill="#37474f"/>
        <path id="Path_9927" data-name="Path 9927" d="M129.236,229.164s.182,21.787.182,21.8c0,4.165.1,7.818.319,9.7a.04.04,0,0,0,0,.028,2.811,2.811,0,0,0,.313,1.286.057.057,0,0,0,0,.028c1.24.836,34.538,1.707,35.71,1.337s.239-3.727-1.03-4.791-13.872-7.1-13.872-7.1l-.387-21.776Z" fill="#f7a9a0"/>
        <path id="Path_9928" data-name="Path 9928" d="M129.379,246.49s.04,4.461.04,4.478c0,4.165.1,7.818.319,9.7a.04.04,0,0,0,0,.028,5.542,5.542,0,0,0,.313,1.286.057.057,0,0,0,0,.028c1.24.836,34.538,1.707,35.71,1.337s.239-3.727-1.03-4.791-13.872-7.1-13.872-7.1l.028-4.552Z" fill="#fff"/>
        <path id="Path_9929" data-name="Path 9929" d="M152.929,251.5c-2.219-.364-4.91.028-6.566,1.639-.063.063,0,.154.1.131a30.988,30.988,0,0,1,6.464-1.491.142.142,0,0,0,.006-.279Z" fill="#263238"/>
        <path id="Path_9930" data-name="Path 9930" d="M154.545,252.4c-2.219-.364-4.91.028-6.566,1.639-.063.063,0,.154.1.131a30.989,30.989,0,0,1,6.464-1.491.142.142,0,0,0,.006-.279Z" fill="#263238"/>
        <path id="Path_9931" data-name="Path 9931" d="M156.161,253.329c-2.219-.364-4.916,0-6.566,1.639-.068.063,0,.154.1.131a30.988,30.988,0,0,1,6.464-1.491.142.142,0,0,0,.006-.279Z" fill="#263238"/>
        <path id="Path_9932" data-name="Path 9932" d="M165.789,263.349c-1.172.364-34.464-.5-35.71-1.337-.478-.313-.637-5.172-.66-11.044v-.188l21.485.319v.364s12.592,6.031,13.866,7.1S166.967,263,165.789,263.349Z" fill="#407bff"/>
        <path id="Path_9933" data-name="Path 9933" d="M165.447,262.052c-5.61-.285-28.256-.9-33.827-.751-.04,0-.046,0,0,.034,5.553.4,28.211.831,33.827.808C165.578,262.143,165.578,262.057,165.447,262.052Z" fill="#263238"/>
        <path id="Path_9934" data-name="Path 9934" d="M118.226,159.467s9.883,31.158,10.066,36.882c.148,4.882-.472,54.977-.472,54.977l25.036.148s-2.111-51.085-2.5-56.171c-.728-9.514-9.064-35.631-15.022-58.9H108.337s.233,12.188,5.775,21C114.112,157.4,116.644,158.562,118.226,159.467Z" fill="#263238"/>
        <path id="Path_9935" data-name="Path 9935" d="M129.162,246.711c2.891-.085,5.889-.171,8.78-.1s5.747.114,8.609.285c1.622.1,3.243.154,4.865.313a.043.043,0,0,1,0,.085c-2.89.171-5.792.137-8.683.108s-5.741-.057-8.609-.188c-1.627-.074-3.243-.154-4.865-.267C129.066,246.945,128.975,246.717,129.162,246.711Z" fill="#37474f"/>
        <path id="Path_9936" data-name="Path 9936" d="M132.354,141.635c.893,2.976,11.949,43.813,13.087,49.742s2.68,44.86,2.572,51.1c0,.774-.028,1.548-.057,2.322a.057.057,0,0,1-.114,0c-.171-6.2-1.826-47.056-2.891-53.139-1-5.974-12.012-46.567-12.78-49.981a.1.1,0,0,1,.182-.046Z" fill="#37474f"/>
        <path id="Path_9937" data-name="Path 9937" d="M124.417,160.07a22.554,22.554,0,0,1-3.716-.336,35.506,35.506,0,0,1-3.6-.984,28.4,28.4,0,0,0-3.533-.569,12.518,12.518,0,0,1-3.46-1.03c-.051,0-.091.051-.04.074a21.172,21.172,0,0,0,3.317,1.44c1.184.376,2.424.427,3.63.723a30.392,30.392,0,0,0,3.7.853,13.286,13.286,0,0,0,3.71-.068C124.479,160.144,124.462,160.07,124.417,160.07Z" fill="#37474f"/>
        <path id="Path_9938" data-name="Path 9938" d="M125.993,184.856c-.239-.927-.461-1.849-.711-2.771-.506-1.861-1.019-3.721-1.582-5.565-1.138-3.664-2.174-7.351-3.351-10.993-.671-2.071-1.275-4.159-2.06-6.191a.042.042,0,1,0-.08.028c.4,1.889.956,3.738,1.457,5.6s1.036,3.716,1.576,5.57c1.064,3.676,2.111,7.363,3.277,11.016q.484,1.536,1.013,3.061c.358,1.036.643,2.105,1.075,3.112.028.057.1.034.091,0C126.534,186.739,126.238,185.8,125.993,184.856Z" fill="#37474f"/>
        <path id="Path_9939" data-name="Path 9939" d="M128.952,106.226c-1.809.239-4.928-3.033-5.9-5.349a36.668,36.668,0,0,1,.711-3.63,34.413,34.413,0,0,0,.569-3.664l7.346,2.606a19.392,19.392,0,0,0-1.2,4.552,3.59,3.59,0,0,0,0,.5s0,.051,0,.085C130.556,102.26,130.7,106,128.952,106.226Z" fill="#f7a9a0"/>
        <path id="Path_9940" data-name="Path 9940" d="M123.125,100.28a7.446,7.446,0,0,0,7.926-2.208c.313-1.081.643-1.883.643-1.883l-7.346-2.606c-.125,1.2-.353,2.5-.569,3.664C123.507,98.522,123.245,99.631,123.125,100.28Z" fill="#263238"/>
        <path id="Path_9941" data-name="Path 9941" d="M133.97,84.729c.916,2.652-.216,10.458-2.065,12.256-2.674,2.612-7.2,3.016-9.451-.233-2.179-3.152-.523-13.3,1.553-14.948C127.063,79.375,132.616,80.8,133.97,84.729Z" fill="#f7a9a0"/>
        <path id="Path_9942" data-name="Path 9942" d="M126.283,89.7s.04.028.034.051c-.085.523-.091,1.138.364,1.377h0C126.1,91,126.118,90.18,126.283,89.7Z" fill="#263238"/>
        <path id="Path_9943" data-name="Path 9943" d="M126.824,89.207c.859.04.706,1.753-.085,1.707S126.107,89.168,126.824,89.207Z" fill="#263238"/>
        <path id="Path_9944" data-name="Path 9944" d="M123.313,89.429s-.046,0-.046.04c0,.535-.154,1.138-.649,1.269v.034C123.211,90.738,123.37,89.936,123.313,89.429Z" fill="#263238"/>
        <path id="Path_9945" data-name="Path 9945" d="M122.9,88.832c-.848-.137-1.058,1.565-.279,1.707S123.6,88.951,122.9,88.832Z" fill="#263238"/>
        <path id="Path_9946" data-name="Path 9946" d="M127.569,88.485c-.228-.08-.427-.193-.643-.29a.972.972,0,0,1-.569-.427.364.364,0,0,1,.1-.432.91.91,0,0,1,.91,0,1.314,1.314,0,0,1,.706.637.387.387,0,0,1-.5.512Z" fill="#263238"/>
        <path id="Path_9947" data-name="Path 9947" d="M122.3,87.916a4.108,4.108,0,0,0,.694-.114,1.189,1.189,0,0,0,.688-.256.37.37,0,0,0,0-.444.9.9,0,0,0-.876-.245,1.331,1.331,0,0,0-.854.432.387.387,0,0,0,.347.626Z" fill="#263238"/>
        <path id="Path_9948" data-name="Path 9948" d="M126.425,94.556c-.137.114-.279.273-.472.273a1.371,1.371,0,0,1-.569-.182.711.711,0,0,0,.649.347.569.569,0,0,0,.455-.432S126.443,94.539,126.425,94.556Z" fill="#263238"/>
        <path id="Path_9949" data-name="Path 9949" d="M126,92.923a1.787,1.787,0,0,1-1.269.694,2.275,2.275,0,0,1-.654,0l-.119-.028-.119-.028a.131.131,0,0,1-.091-.125h0a.159.159,0,0,1,0-.051h0v-.068c.028-.41.119-1.024.119-1.024-.154.063-.945.336-.916.125a27.6,27.6,0,0,1,1.178-5.394.051.051,0,0,1,.1,0c-.182,1.707-.66,3.346-.871,5.047a3.078,3.078,0,0,1,.871-.188c.057,0-.2,1.189-.2,1.371h0a2.521,2.521,0,0,0,1.918-.415C126,92.843,126.039,92.883,126,92.923Z" fill="#263238"/>
        <path id="Path_9950" data-name="Path 9950" d="M124.343,93.407a2.173,2.173,0,0,0,.8.74.956.956,0,0,0,.569.085c.432-.074.478-.461.427-.8a2.526,2.526,0,0,0-.142-.529A2.805,2.805,0,0,1,124.343,93.407Z" fill="#263238"/>
        <path id="Path_9951" data-name="Path 9951" d="M125.14,94.146a.956.956,0,0,0,.569.085c.432-.074.478-.461.427-.8a.99.99,0,0,0-1,.711Z" fill="#ff98b9"/>
        <path id="Path_9952" data-name="Path 9952" d="M131.933,89.9c-.427-1.622.666-4.211-.08-4.973-1.6-1.656-5.314,1.053-7.721.9s-3.01-1.707-2.458-3.568,2.248-3.021,4.893-3.232a9.849,9.849,0,0,1,6.407,1.991s-.523-.984-.279-1.263,1.32.711,1.639,1.138a3.459,3.459,0,0,1,.5,1.138A3.716,3.716,0,0,1,135.9,82a2.242,2.242,0,0,1,1.343.711c.034.148-.825.193-1.422.182a5.558,5.558,0,0,1,.9,2.811c-.108,1.257-2.487,7.112-2.959,7.147C133.145,92.877,132.11,90.539,131.933,89.9Z" fill="#263238"/>
        <path id="Path_9953" data-name="Path 9953" d="M135.6,82.715h-.034a3.983,3.983,0,0,1,1.138,1.872,4.928,4.928,0,0,1-.154,2.6,23.864,23.864,0,0,1-2.2,4.552.042.042,0,1,0,.074.04,17.48,17.48,0,0,0,2.378-4.9A3.8,3.8,0,0,0,135.6,82.715Z" fill="#263238"/>
        <path id="Path_9954" data-name="Path 9954" d="M132.007,84.3a5.815,5.815,0,0,0-2.128,0,8.274,8.274,0,0,0-1.872.774,8.091,8.091,0,0,1-4.393.888v.028a7.073,7.073,0,0,0,4.068-.569,16.9,16.9,0,0,1,1.946-.865,7.471,7.471,0,0,1,2.361-.114.072.072,0,0,0,.017-.142Z" fill="#263238"/>
        <path id="Path_9955" data-name="Path 9955" d="M131.586,80.229a10.913,10.913,0,0,0-2.925-1.195,8.677,8.677,0,0,0-3.01-.313,4.331,4.331,0,0,0-3.937,2.9,3.761,3.761,0,0,0,.165,2.714.051.051,0,0,0,.091-.04,3.9,3.9,0,0,1,1.2-4.518,6.269,6.269,0,0,1,5.246-.688,16.194,16.194,0,0,1,3.164,1.138Z" fill="#263238"/>
        <path id="Path_9956" data-name="Path 9956" d="M132.451,91.108s1.707-2.538,2.845-1.929-.108,4.262-1.44,4.785a1.36,1.36,0,0,1-1.832-.7Z" fill="#f7a9a0"/>
        <path id="Path_9957" data-name="Path 9957" d="M134.926,90.214v.04a3.414,3.414,0,0,0-1.741,2.179.745.745,0,0,1,1.138-.228v.051a.836.836,0,0,0-.916.307,4.255,4.255,0,0,0-.427.751c-.046.085-.193.046-.165-.051h0C132.747,92.047,133.646,90.357,134.926,90.214Z" fill="#263238"/>
        <path id="Path_9958" data-name="Path 9958" d="M103.609,142.6c.074.1,34.709,3.232,35.062,2.9.484-.461-1.582-35.118-7.767-42.2-1.519-1.747-6.9-3.841-8.666-2.754-4.592,2.845-7.425,9.223-9.241,12.939a112.719,112.719,0,0,0-4.683,12.364C105.668,133.879,103.353,142.249,103.609,142.6Z" fill="#407bff"/>
        <path id="Path_9959" data-name="Path 9959" d="M124.5,110.738a6.356,6.356,0,0,0,.523,1.707,6.6,6.6,0,0,0,.945,1.514,6.139,6.139,0,0,0-.523-1.707A6.56,6.56,0,0,0,124.5,110.738Zm5.827,22.7a6.3,6.3,0,0,0,.529,1.707,6.152,6.152,0,0,0,.945,1.519,6.828,6.828,0,0,0-1.474-3.221Zm-14.384-1.087a6.259,6.259,0,0,0,.529,1.707,5.878,5.878,0,0,0,.95,1.514,6.117,6.117,0,0,0-.535-1.707,6.293,6.293,0,0,0-.945-1.514Zm-9.855,7.158a6.908,6.908,0,0,0,3.215-1.479,6.828,6.828,0,0,0-3.215,1.479Zm23.46-17.958a6.356,6.356,0,0,0,1.707-.523,6.2,6.2,0,0,0,1.514-.95,6.3,6.3,0,0,0-1.707.529,6.117,6.117,0,0,0-1.514.945ZM120.252,104a6.356,6.356,0,0,0,1.707-.523,6.258,6.258,0,0,0,1.519-.95A7.027,7.027,0,0,0,120.258,104Zm9.895,2.583a6.35,6.35,0,0,0,.831-1.576,7.559,7.559,0,0,0,.33-1.195l-.159-.216a6.787,6.787,0,0,0-.6,1.246,6.117,6.117,0,0,0-.4,1.741ZM116.337,120.8a6.384,6.384,0,0,0,.831-1.582,6.259,6.259,0,0,0,.4-1.735,6.441,6.441,0,0,0-.831,1.576,6.316,6.316,0,0,0-.4,1.753Zm-2.156,22.76.324.028a4.508,4.508,0,0,0,.091-.677,4.633,4.633,0,0,0-.415.689Zm21.406,1.337a6.35,6.35,0,0,0,.831-1.576,6.117,6.117,0,0,0,.4-1.741A6.931,6.931,0,0,0,135.586,144.9Zm-27.648-17.906q.2.1.41.171a6.316,6.316,0,0,0,1.741.4,6.179,6.179,0,0,0-1.582-.825l-.432-.148Zm14.6,13.758a6.874,6.874,0,0,0,3.317,1.229,6.327,6.327,0,0,0-1.576-.825,6.169,6.169,0,0,0-1.741-.4ZM121.4,127.1a6.293,6.293,0,0,0,1.582.831,6.123,6.123,0,0,0,1.707.4,6.874,6.874,0,0,0-3.317-1.229Zm12.4-15.164a5.059,5.059,0,0,0,.933.569c-.034-.148-.074-.29-.108-.438a4.888,4.888,0,0,0-.842-.119Zm-18.64-2.771a5.6,5.6,0,0,0,1.542.33,5.61,5.61,0,0,0-1.326-.728Z" fill="#fff"/>
        <path id="Path_9960" data-name="Path 9960" d="M127.865,108.752c8.882,2.111,22.709,4.2,27.261,1.32,2.327-1.474,7.733-14.379,9.241-21.622.393-1.883-15.056-4.524-15.545-2.532-.66,2.686-2.208,11.152-2.97,12.484-.438.762-10.242,1.9-18.14,3.152C118.448,103.034,120.656,107.04,127.865,108.752Z" fill="#f7a9a0"/>
        <path id="Path_9961" data-name="Path 9961" d="M151.353,69.583a2.276,2.276,0,0,1,1.787,1.2,3.181,3.181,0,0,1,1.832-1.138c1.292-.222,2.2,1.707,2.2,1.707a3.932,3.932,0,0,1,2.128-.9c1.257-.085,2.458,1.707,2.458,1.707a2.691,2.691,0,0,1,2.373.381c2.4,2.009,1.644,12.973-.279,17.349l-14.629-2.208s-1.963-8.262-1.639-10.811C147.848,74.766,149.077,69.366,151.353,69.583Z" fill="#f7a9a0"/>
        <path id="Path_9962" data-name="Path 9962" d="M153.06,70.817a28.838,28.838,0,0,0-1.405,6.9.04.04,0,1,0,.08,0c.239-2.276,1.1-4.6,1.434-6.879C153.2,70.783,153.1,70.76,153.06,70.817Z" fill="#263238"/>
        <path id="Path_9963" data-name="Path 9963" d="M156.986,71.392a5.934,5.934,0,0,0-.216,1.587c-.04.569-.063,1.138-.085,1.707q-.051,1.707-.028,3.414a.043.043,0,1,0,.085,0c.034-1.138.091-2.276.182-3.414.04-.569.091-1.138.142-1.707a7.175,7.175,0,0,0,.074-1.6.08.08,0,0,0-.154.011Z" fill="#263238"/>
        <path id="Path_9964" data-name="Path 9964" d="M161.743,72.217a4.312,4.312,0,0,0-.119,1.434V75.2c-.028,1.036-.051,2.071-.114,3.1a.04.04,0,1,0,.08,0c.068-1.047.148-2.1.2-3.147.028-.518.057-1.036.08-1.548a4.051,4.051,0,0,0-.057-1.411S161.754,72.194,161.743,72.217Z" fill="#263238"/>
        <path id="Path_9965" data-name="Path 9965" d="M140.286,112.883l-.569-13.912s-9.707.626-15.209,2.646-3.63,5.019,1.707,7.1A136.343,136.343,0,0,0,140.286,112.883Z" fill="#407bff"/>
        <path id="Path_9966" data-name="Path 9966" d="M138,99.694a6.117,6.117,0,0,0-1.741-.4,6.294,6.294,0,0,0,1.582.831,6.122,6.122,0,0,0,1.735.4A6.071,6.071,0,0,0,138,99.694Zm-7.46,5.121a6.315,6.315,0,0,0-.4,1.741,6.384,6.384,0,0,0,.831-1.582,6.259,6.259,0,0,0,.4-1.707,6.441,6.441,0,0,0-.831,1.576Zm9.514,2.674a6.43,6.43,0,0,0-1.411.472,6.213,6.213,0,0,0-1.519.945,6.356,6.356,0,0,0,1.707-.523,6.555,6.555,0,0,0,1.235-.723Zm-18.032-4.552a2.771,2.771,0,0,0-.632.751c.188-.068.376-.142.569-.222a6.259,6.259,0,0,0,1.519-.95,5.69,5.69,0,0,0-1.457.427Z" fill="#fff"/>
        <path id="Path_9967" data-name="Path 9967" d="M137.219,99.791a87.168,87.168,0,0,0,.609,11.812h.091c.028-3.232-.4-9.673-.569-11.812C137.356,99.751,137.219,99.751,137.219,99.791Z" fill="#263238"/>
        <path id="Path_9968" data-name="Path 9968" d="M140.212,111.137c.091.569.142,1.138.216,1.741v.182l-.2-.04c-1.218-.256-2.435-.5-3.642-.8s-2.413-.6-3.607-.945-2.39-.694-3.562-1.1-2.35-.819-3.494-1.326l3.607.945c1.2.313,2.4.626,3.6.95l3.59.979c1.195.319,2.384.688,3.579,1.024l-.171.142C140.172,112.3,140.172,111.723,140.212,111.137Z" fill="#263238"/>
        <path id="Path_9969" data-name="Path 9969" d="M129.088,109.93a3.881,3.881,0,0,1-1.354.085,3.414,3.414,0,0,1-1.3-.387c.228,0,.45.028.671.046l.654.057a12.244,12.244,0,0,1,1.326.2Z" fill="#263238"/>
      </g>
      <g id="freepik--character-1--inject-37">
        <path id="Path_9970" data-name="Path 9970" d="M44.484,248.145a7.7,7.7,0,0,0-6.674-.569c-.08.034,0,.148.046.148a30.46,30.46,0,0,1,6.526.683.142.142,0,0,0,.1-.262Z" fill="#263238"/>
        <path id="Path_9971" data-name="Path 9971" d="M45.7,249.534a7.7,7.7,0,0,0-6.674-.569c-.08.034,0,.148.046.148a30.46,30.46,0,0,1,6.538.677.142.142,0,0,0,.091-.256Z" fill="#263238"/>
        <path id="Path_9972" data-name="Path 9972" d="M46.908,250.928a7.7,7.7,0,0,0-6.674-.569c-.08.034,0,.148.051.148a30.44,30.44,0,0,1,6.532.694.144.144,0,1,0,.091-.273Z" fill="#263238"/>
        <path id="Path_9973" data-name="Path 9973" d="M48.126,252.31a7.711,7.711,0,0,0-6.68-.569c-.08.034,0,.148.051.148a30.44,30.44,0,0,1,6.532.694.145.145,0,1,0,.1-.273Z" fill="#263238"/>
        <path id="Path_9974" data-name="Path 9974" d="M49.878,244.561c-.455-1.388-2.145-1.371-3.249-.922a11.71,11.71,0,0,0-4.74,3.744.057.057,0,0,0,0,.091c-.046.159.04.376.239.364,1.929-.085,3.983.063,5.838-.609C49.065,246.837,50.311,245.875,49.878,244.561Zm-4.831,2.555c-.945.063-1.883.08-2.845.182a31.366,31.366,0,0,1,2.845-2.128,12.263,12.263,0,0,1,1.485-.836c.8-.364,3.642-.779,2.538,1.388-.615,1.223-2.9,1.314-4.023,1.394Z" fill="#263238"/>
        <path id="Path_9975" data-name="Path 9975" d="M36.769,245.141c1.485,1.28,3.471,1.878,5.24,2.64a.267.267,0,0,0,.353-.256.057.057,0,0,0,.057-.074,11.665,11.665,0,0,0-3.1-5.178c-.871-.819-2.441-1.434-3.363-.3S35.9,244.39,36.769,245.141Zm-.461-1.787c-.262-2.418,2.276-1.024,2.845-.4a14.156,14.156,0,0,1,1.092,1.309c.706.95,1.269,1.98,1.878,2.987-.848-.427-1.707-.78-2.583-1.172-1-.472-3.09-1.411-3.232-2.725Z" fill="#263238"/>
        <path id="Path_9976" data-name="Path 9976" d="M22.532,245.164c-.125.757-.25,1.5-.364,2.213-.751,4.6-1.195,8.154-.848,8.478,1.058,1.007,32.825,7.4,34.015,7.238s.842-3.539-.193-4.768c-.632-.745-4.973-3.955-8.279-6.35h0c-2.128-1.536-3.824-2.748-3.824-2.748l6.373-20.6-21.36-4.216S22.76,243.946,22.532,245.164Z" fill="#ffc4c0"/>
        <path id="Path_9977" data-name="Path 9977" d="M55.335,263.093c-1.189.142-32.956-6.231-34.015-7.238-.347-.33.1-3.875.848-8.478.114-.711.233-1.457.364-2.213.074-.427.774-3.09,1.644-6.373,3.1.615,15.517,3.112,20.785,4.171l-1.935,6.259s1.707,1.206,3.824,2.748h0c3.306,2.4,7.647,5.6,8.273,6.35C56.171,259.554,56.518,262.939,55.335,263.093Z" fill="#ebebeb"/>
        <path id="Path_9978" data-name="Path 9978" d="M55.6,263.3c-.785.091-14.561-2.646-24.547-4.888-2.31-.518-4.415-1.013-6.111-1.434a19.805,19.805,0,0,1-4.12-1.246c-.387-.376,2.048-13.4,2.475-14.908l21.121,4.37-1.24,3.9s11.186,8.057,12.251,9.32S56.809,263.144,55.6,263.3Z" fill="#407bff"/>
        <path id="Path_9979" data-name="Path 9979" d="M55.1,261.841c-5.423-1.24-27.392-5.792-32.843-6.623-.046,0-.051,0,0,.034,5.337,1.366,27.346,5.724,32.82,6.68C55.193,261.949,55.193,261.87,55.1,261.841Z" fill="#263238"/>
        <path id="Path_9980" data-name="Path 9980" d="M49.383,240.2c.228-.108,6.418-26.68,9.241-37.514,4.074-15.636,8.023-41.121,9.206-46.43a77.987,77.987,0,0,0,4.939-19.039H47.085s-6.731,12.876-3.272,21.98c.319.836-4.484,33-6.97,38.231-2.145,4.506-11.949,37.508-11.949,37.508Z" fill="#37474f"/>
        <path id="Path_9981" data-name="Path 9981" d="M49.247,234.751c-.626-.228-1.3-.341-1.946-.512s-1.371-.347-2.06-.5c-1.377-.313-2.754-.609-4.131-.91-2.76-.6-5.525-1.138-8.29-1.707q-1.138-.233-2.276-.444a13.12,13.12,0,0,0-2.276-.347.046.046,0,0,0,0,.08,11.824,11.824,0,0,0,1.929.541c.683.171,1.371.33,2.06.484,1.354.307,2.708.62,4.068.916,2.731.569,5.468,1.2,8.211,1.758.78.154,1.553.313,2.339.444s1.559.336,2.344.393C49.287,234.939,49.36,234.791,49.247,234.751Z" fill="#263238"/>
        <path id="Path_9982" data-name="Path 9982" d="M61.11,155.074c-.5,2.674-.9,5.366-1.349,8.046-.222,1.371-.523,2.725-.751,4.091s-.438,2.686-.654,4.029q-1.309,8.108-2.589,16.211-.637,4.029-1.292,8.046a75.256,75.256,0,0,1-1.622,7.846c-.706,2.583-1.536,5.121-2.327,7.687l-2.418,7.864c-1.6,5.212-1.371,6.1-2.805,11.38-.176.654-.358,1.309-.569,1.963a.063.063,0,0,0,.119.028c1.77-5.166,1.525-6.054,3.169-11.266s3.329-10.379,4.893-15.591a66.51,66.51,0,0,0,1.815-7.727c.455-2.686.853-5.377,1.286-8.068q1.275-8.1,2.589-16.211c.421-2.652.888-5.309,1.218-7.966.341-2.765.819-5.514,1.229-8.268.1-.677.2-1.349.29-2.026C61.344,154.989,61.139,154.927,61.11,155.074Z" fill="#263238"/>
        <path id="Path_9983" data-name="Path 9983" d="M83.2,249.915a7.761,7.761,0,0,0-6.549,1.445c-.063.063,0,.154.1.131a30.574,30.574,0,0,1,6.441-1.3.142.142,0,0,0,.011-.279Z" fill="#263238"/>
        <path id="Path_9984" data-name="Path 9984" d="M84.781,250.877c-2.185-.421-4.865-.1-6.543,1.445-.068.063,0,.154.091.131a30.646,30.646,0,0,1,6.452-1.3.142.142,0,0,0,0-.279Z" fill="#263238"/>
        <path id="Path_9985" data-name="Path 9985" d="M86.34,251.838a7.753,7.753,0,0,0-6.543,1.445c-.063.063,0,.154.1.131a30.573,30.573,0,0,1,6.441-1.3.142.142,0,0,0,.006-.279Z" fill="#263238"/>
        <path id="Path_9986" data-name="Path 9986" d="M87.916,252.8c-2.185-.421-4.865-.1-6.543,1.445-.068.063,0,.154.091.131a30.647,30.647,0,0,1,6.441-1.3.142.142,0,0,0,.011-.279Z" fill="#263238"/>
        <path id="Path_9987" data-name="Path 9987" d="M87.267,244.885c-.854-1.189-2.458-.671-3.374.091a11.67,11.67,0,0,0-3.414,4.99.057.057,0,0,0,.046.08.272.272,0,0,0,.341.279c1.815-.66,3.829-1.138,5.383-2.333C87.176,247.3,88.075,246.006,87.267,244.885Zm-3.841,3.881c-.882.341-1.775.643-2.646,1.019a31.933,31.933,0,0,1,2.048-2.845A12.094,12.094,0,0,1,84,245.693c.654-.569,3.243-1.832,2.845.569C86.613,247.559,84.479,248.35,83.426,248.766Z" fill="#263238"/>
        <path id="Path_9988" data-name="Path 9988" d="M74.937,249.363c1.8.78,3.869.751,5.787.95a.273.273,0,0,0,.267-.347.063.063,0,0,0,0-.091,11.721,11.721,0,0,0-4.512-4.017c-1.075-.512-2.76-.632-3.294.728S73.884,248.908,74.937,249.363ZM73.97,247.8c-.973-2.23,1.838-1.65,2.617-1.24a12.278,12.278,0,0,1,1.434.922c.962.694,1.8,1.508,2.686,2.276-.933-.154-1.872-.228-2.817-.347C76.758,249.278,74.493,249.027,73.97,247.8Z" fill="#263238"/>
        <path id="Path_9989" data-name="Path 9989" d="M61.281,247.394c0,1.3.569,14.276.962,14.527,1.235.785,33.639.876,34.771.506s.142-3.636-1.138-4.637c-.762-.615-5.639-2.919-9.349-4.626h0c-2.384-1.1-4.285-1.952-4.285-1.952l.1-3.807.3-17.315H61.247S61.139,238.979,61.281,247.394Z" fill="#ffc4c0"/>
        <path id="Path_9990" data-name="Path 9990" d="M97.02,262.427c-1.138.37-33.542.273-34.771-.506-.4-.256-.95-13.229-.967-14.521,0-.859,0-1.707-.034-2.583H82.408l-.046,2.583-.108,3.8,4.285,1.957h0c3.7,1.707,8.58,4.023,9.349,4.632C97.156,258.791,98.146,262.052,97.02,262.427Z" fill="#ebebeb"/>
        <path id="Path_9991" data-name="Path 9991" d="M97.782,262.689c-.751.25-14.794.25-25.036,0-2.367-.057-4.552-.131-6.259-.211a20.284,20.284,0,0,1-4.285-.427c-.455-.29-1.1-13.542-.973-15.1l21.406.108.08,4.08s12.66,5.764,13.952,6.794S98.943,262.308,97.782,262.689Z" fill="#407bff"/>
        <path id="Path_9992" data-name="Path 9992" d="M97.008,261.363c-5.559-.171-27.995-.336-33.5-.085-.04,0-.046.034,0,.034,5.508.29,27.943.273,33.5.142C97.128,261.448,97.128,261.363,97.008,261.363Z" fill="#263238"/>
        <path id="Path_9993" data-name="Path 9993" d="M57.469,160.19s3.659,35.9,3.716,36.746c0,.336-1.57,44.211-1.57,44.211h24.2s-.865-41.116-1.235-46.185c-.04-.569-1.6-37.087-8.649-57.748H47.05s.233,12.137,5.753,20.916a46.267,46.267,0,0,1,4.666,2.06Z" fill="#37474f"/>
        <path id="Path_9994" data-name="Path 9994" d="M82.283,236.612c-.666-.1-1.343-.074-2.014-.108s-1.405-.068-2.111-.085c-1.411-.028-2.845-.04-4.233-.057-2.845-.034-5.644,0-8.467,0h-2.31a13.243,13.243,0,0,0-2.327.119c-.04,0-.034.074,0,.085a12.258,12.258,0,0,0,1.991.148c.706.028,1.411.046,2.117.057,1.388.028,2.777.063,4.171.08,2.794.034,5.593.085,8.393.074.8,0,1.588,0,2.384-.028s1.593,0,2.378-.091C82.357,236.788,82.4,236.629,82.283,236.612Z" fill="#263238"/>
        <path id="Path_9995" data-name="Path 9995" d="M76.815,198.944c-.637-12.933-2-25.81-3.71-38.635a152.933,152.933,0,0,0-3.932-20.882h-.046a166.013,166.013,0,0,1,3.346,18.982c.8,6.316,1.559,12.643,2.2,18.982,1.3,12.859,1.883,25.764,1.963,38.692.046,7.272-.148,10.7-.353,17.963,0,.068.1.063.108,0A246.675,246.675,0,0,0,76.815,198.944Z" fill="#263238"/>
        <path id="Path_9996" data-name="Path 9996" d="M75.5,142.215a.04.04,0,1,0-.08,0c.1,1.531.364,3.2-.319,4.643a8.777,8.777,0,0,1-2.794,2.845c0,.028,0,.08.046.068a4.82,4.82,0,0,0,3.34-2.629A7.669,7.669,0,0,0,75.5,142.215Z" fill="#263238"/>
        <path id="Path_9997" data-name="Path 9997" d="M63.847,159.4a26.607,26.607,0,0,0-3.363.114,23.427,23.427,0,0,1-3.283-.057,13.124,13.124,0,0,1-1.627-.273c-.569-.131-1.081-.336-1.633-.489a3.033,3.033,0,0,0-1.514.057c-.569.131-1.138.222-1.758.3a17.072,17.072,0,0,1-4.068.1c-.051,0-.074.074,0,.085a16.9,16.9,0,0,0,3.465.358,13.367,13.367,0,0,0,1.781-.159,5.417,5.417,0,0,1,1.667-.216,14.349,14.349,0,0,1,1.627.541,11.621,11.621,0,0,0,1.65.336,16.661,16.661,0,0,0,3.368.1,14.794,14.794,0,0,0,3.744-.569.12.12,0,1,0-.057-.233Z" fill="#263238"/>
        <path id="Path_9998" data-name="Path 9998" d="M61.241,194.961a.04.04,0,0,0-.034,0h0a.034.034,0,0,0,0,.034v.085h0a.046.046,0,0,0,.034,0V195a.04.04,0,0,0,0-.034Z" fill="#263238"/>
        <path id="Path_9999" data-name="Path 9999" d="M60.6,188.776q-.319-3.488-.683-6.976c-.489-4.654-.95-9.309-1.428-13.963-.273-2.64-.467-5.3-.9-7.92,0-.068-.119-.068-.114,0,.034,2.333.285,4.666.484,6.993s.4,4.654.62,6.982c.438,4.654.853,9.314,1.4,13.963q.233,1.974.489,3.983c.176,1.32.41,2.634.569,3.955a.046.046,0,1,0,.091,0C60.923,193.459,60.814,191.1,60.6,188.776Z" fill="#263238"/>
        <path id="Path_10000" data-name="Path 10000" d="M60.786,108.03c.182.5,3.056,3.539,5.394,3.135.762-.131.228-4.324.228-4.324l.028-.319.438-4.455-5.5-2.64-.791-.341s-.04,1.229-.068,2.754V104.1a27.88,27.88,0,0,0,.273,3.926Z" fill="#ffc4c0"/>
        <path id="Path_10001" data-name="Path 10001" d="M60.513,101.85a8.967,8.967,0,0,0,5.923,4.683l.438-4.455-5.5-2.64-.791-.341S60.541,100.314,60.513,101.85Z" fill="#263238"/>
        <path id="Path_10002" data-name="Path 10002" d="M73.714,130.2l.216,7.016H47.085s3.164-20.8,10.242-28.45c3.539-3.846,7.3-3.124,9.952-.438.666.683,8,10.242,8.842,14.282C76.854,126.135,73.714,130.2,73.714,130.2Z" fill="#407bff"/>
        <path id="Path_10003" data-name="Path 10003" d="M73.9,136.377H47.227c.034-.216.08-.467.131-.751H73.884Zm-.085-2.845H47.75c-.051.262-.1.512-.148.751H73.839Zm-.063-2.1H48.188c-.057.256-.108.506-.159.751H73.776Zm-25.087-2.105c-.057.256-.119.506-.176.751H73.8c.108-.142.29-.4.506-.751Zm.518-2.1-.188.751H75.068c.125-.239.239-.489.353-.751Zm.569-2.1-.2.751H75.9c.068-.245.131-.5.182-.751Zm26.447-2.1H50.368c-.08.25-.154.5-.228.751H76.246a6.64,6.64,0,0,0-.051-.757Zm-.626-2.1H51.039c-.085.25-.165.5-.25.751h25.07c-.08-.245-.182-.484-.29-.757Zm-1.047-2.105H51.779c-.1.25-.188.5-.279.757H74.92c-.119-.256-.256-.506-.381-.762Zm-1.235-2.1H52.615q-.159.376-.307.751h21.44q-.222-.381-.461-.757Zm-1.354-2.1H53.554c-.119.25-.239.5-.353.751H72.428Zm-1.445-2.1H54.652c-.142.245-.285.5-.415.751H71.005c-.171-.262-.347-.512-.518-.757Zm-1.531-2.1H55.972c-.176.245-.341.5-.506.751H69.509Zm-1.656-2.1H57.719q-.193.193-.393.41t-.307.341h10.9a8.484,8.484,0,0,0-.62-.757Zm-3.482-2.105H61.253a6.31,6.31,0,0,0-1.8.751h6.168a6.561,6.561,0,0,0-1.8-.757Z" fill="#030402" opacity="0.1"/>
        <path id="Path_10004" data-name="Path 10004" d="M64.94,114.192c4.808,1.844,22.726,5.946,26.5,2.811,5.923-4.922,10.555-13.741,12.945-20.973.825-2.515-14.965-4.683-15.829-1.844a83.777,83.777,0,0,1-4.74,11.585c-.757,1.155-11.471,1.349-18.7,2.026C59.085,108.36,58.84,111.859,64.94,114.192Z" fill="#ffc4c0"/>
        <path id="Path_10005" data-name="Path 10005" d="M90.431,77.384a2.23,2.23,0,0,1,2.447.711,3.317,3.317,0,0,1,1.889-1.218c1.343-.239,2.31,1.758,2.31,1.758a4.057,4.057,0,0,1,2.2-.967c1.309-.1,2.572,1.775,2.572,1.775a3.573,3.573,0,0,1,2.469.364c1.963,1.195,2.009,4.7,2.065,6.93s-1.883,8.6-2.128,9.855L90.527,97.919A21.2,21.2,0,0,1,87.17,84.5C87.426,82.271,88.8,77.992,90.431,77.384Z" fill="#ffc4c0"/>
        <path id="Path_10006" data-name="Path 10006" d="M92.65,78.192a29.008,29.008,0,0,0-1.218,7.1.046.046,0,0,0,.085,0c.228-2.4.922-4.711,1.246-7.09C92.775,78.152,92.673,78.129,92.65,78.192Z" fill="#263238"/>
        <path id="Path_10007" data-name="Path 10007" d="M96.889,78.675a6.185,6.185,0,0,0-.2,1.65c-.034.569-.057,1.178-.074,1.764v3.539a.04.04,0,1,0,.08,0q.046-1.764.154-3.528.057-.882.137-1.758a7.4,7.4,0,0,0,.057-1.661.085.085,0,0,0-.148-.006Z" fill="#263238"/>
        <path id="Path_10008" data-name="Path 10008" d="M101.85,79.478a4.552,4.552,0,0,0-.108,1.5V82.59c0,1.075-.028,2.145-.08,3.221a.04.04,0,1,0,.08,0c.063-1.092.137-2.185.182-3.272,0-.569.046-1.075.063-1.61a4.2,4.2,0,0,0-.068-1.462.035.035,0,0,0-.068.011Z" fill="#263238"/>
        <path id="Path_10009" data-name="Path 10009" d="M85.236,101.85l12.774,10.4s-4.859,5.491-7.5,6.054-16.928-.256-25.036-3.533-6.037-6.458-.114-7.152,16.9-2,17.258-2.213A40.331,40.331,0,0,0,85.236,101.85Z" fill="#407bff"/>
        <path id="Path_10010" data-name="Path 10010" d="M66.664,115.216q-.6-.211-1.178-.444c-.415-.171-.808-.336-1.172-.5L60.2,110.909a1.462,1.462,0,0,1,.051-.939Zm-4.854-6.674a4.392,4.392,0,0,0-.688.4l8.9,7.277c.569.142,1.138.279,1.673.4Zm2.413-.745c-.33.063-.637.131-.933.211l11.249,9.206q.751.137,1.5.256Zm2.845-.376-1.041.119,12.558,10.242c.467.063.933.119,1.388.165Zm2.9-.341-1.03.125,13.468,11,1.3.1Zm2.9-.347-1.03.125,14.162,11.573,1.223.034Zm2.885-.358-1.03.131L89.31,118.454a8.161,8.161,0,0,0,1.058-.108Zm2.845-.364-1.024.137L91.791,117.76c.222-.125.444-.267.671-.421Zm2.845-.387-1.013.142L93.555,116.5a6.863,6.863,0,0,0,.569-.484Zm1.918-1.138a5.326,5.326,0,0,1-.455.569l12.268,10.031.569-.523Zm1.223-1.707-.432.615,12.518,10.242.518-.569Z" fill="#030402" opacity="0.1"/>
        <path id="Path_10011" data-name="Path 10011" d="M95.1,113.532c-3.414-3.01-6.873-6.014-10.572-8.677a.035.035,0,1,0-.04.057c3.323,3.112,6.942,5.912,10.549,8.683C95.079,113.629,95.136,113.566,95.1,113.532Z" fill="#263238"/>
        <path id="Path_10012" data-name="Path 10012" d="M75.887,117.378c-2.606-.518-5.195-1.11-7.812-1.57v.046a31.553,31.553,0,0,0,3.215.871c-.427,0-.854-.04-1.28-.034a.028.028,0,0,0,0,.057,6.3,6.3,0,0,0,1.178.108h.643c1.343.273,2.7.472,4.063.626a.051.051,0,0,0-.006-.1Z" fill="#263238"/>
        <path id="Path_10013" data-name="Path 10013" d="M58.647,89.623a1.479,1.479,0,0,1-1.622.108c-.717-.285-1.633-1.024-2.413-.506-.876.569-.569,1.838-.154,2.589a16.114,16.114,0,0,1,1.07,1.974,5.94,5.94,0,0,1,.376,2.06c0,1.417-.774,2.725-.683,4.137.119,1.707,1.707,2.936,3.061,3.71a27.4,27.4,0,0,0,4.552,1.627,8.29,8.29,0,0,1,5.155,6.066,10.743,10.743,0,0,1,.267,2.037c0,.734-.051,1.474,0,2.208a2.612,2.612,0,0,0,1.212,2.065,6.322,6.322,0,0,0,2.157.677.131.131,0,0,1,.04.233,10.772,10.772,0,0,1-1.286.762,3.334,3.334,0,0,1-2.566.324,4.536,4.536,0,0,1-2.077-2.065,6.828,6.828,0,0,0-2.378-2.384,10.128,10.128,0,0,0-3.238-1.064c-2.191-.376-4.432-.262-6.612-.723a7.966,7.966,0,0,1-5.229-3.414,7.664,7.664,0,0,1-1.138-2.993,11.221,11.221,0,0,1,.182-3.488,31.471,31.471,0,0,0,.484-7.454,32.957,32.957,0,0,0-.444-3.505,16,16,0,0,1-.324-3.289,5.445,5.445,0,0,1,2.845-4.654,5.6,5.6,0,0,1,5.479-.1C58.106,86.123,59,89.27,58.647,89.623Z" fill="#263238"/>
        <path id="Path_10014" data-name="Path 10014" d="M55.591,101.23h0a6.02,6.02,0,0,0,3.414,3.323c1.565.569,3.283.6,4.876,1.138a7.869,7.869,0,0,1,3.8,2.481,6.754,6.754,0,0,1,1.252,4.051c.057,1.639-.108,3.272.068,4.9a.026.026,0,1,1-.051,0c-.569-2.845.529-6.031-1.252-8.575a7.738,7.738,0,0,0-4.359-2.811,36.809,36.809,0,0,1-4.586-1.087,6,6,0,0,1-3.158-3.425Z" fill="#263238"/>
        <path id="Path_10015" data-name="Path 10015" d="M46.863,109.1a7.869,7.869,0,0,1,.091-2.873c.211-1.138.478-2.276.723-3.414h0c-.2.973-.364,1.957-.535,2.942a10.191,10.191,0,0,0-.188,2.817,6.259,6.259,0,0,0,3,4.524,10.046,10.046,0,0,0,5.383,1.206,37.555,37.555,0,0,1,5,.245A13.371,13.371,0,0,1,65.6,116.28s0,.057,0,.04c-3.255-1.906-6.987-1.809-10.629-1.8a9.468,9.468,0,0,1-5.155-1.24,6.378,6.378,0,0,1-2.953-4.176Z" fill="#263238"/>
        <path id="Path_10016" data-name="Path 10016" d="M57.509,91.449c.1,0,1.491-1.457,1.639-1.6s1.616-1.5,1.639-1.6a5.508,5.508,0,0,0-1.65-1.138c-.37-.08-1.474.842-1.656,1.013s-1.138,1.263-1.047,1.639A5.582,5.582,0,0,0,57.509,91.449Z" fill="#407bff"/>
        <path id="Path_10017" data-name="Path 10017" d="M72.667,94.357c2.06,7.585-2.213,9.747-3.892,10.117-1.5.336-6.595,1.576-9.423-5.758S59.4,88.03,62.766,86.931,70.613,86.766,72.667,94.357Z" fill="#ffc4c0"/>
        <path id="Path_10018" data-name="Path 10018" d="M71.847,92.82h-.569a.876.876,0,0,1-.569-.114.279.279,0,0,1-.068-.33.706.706,0,0,1,.643-.3,1.019,1.019,0,0,1,.694.233.3.3,0,0,1-.131.506Z" fill="#263238"/>
        <path id="Path_10019" data-name="Path 10019" d="M66.925,94.072a4.785,4.785,0,0,0,.5-.211.882.882,0,0,0,.472-.319.273.273,0,0,0-.068-.33.683.683,0,0,0-.7,0,.984.984,0,0,0-.569.478.3.3,0,0,0,.37.381Z" fill="#263238"/>
        <path id="Path_10020" data-name="Path 10020" d="M68.433,95.745s-.034.034,0,.057c.131.518.193,1.138-.239,1.411v.028C68.735,97.037,68.644,96.217,68.433,95.745Z" fill="#263238"/>
        <path id="Path_10021" data-name="Path 10021" d="M67.847,95.307c-.854.119-.569,1.821.245,1.707S68.564,95.2,67.847,95.307Z" fill="#263238"/>
        <path id="Path_10022" data-name="Path 10022" d="M67.529,95.455c-.131.125-.245.319-.421.37s-.393-.091-.569-.239h0c.057.33.239.637.569.626s.506-.341.529-.688C67.648,95.483,67.58,95.4,67.529,95.455Z" fill="#263238"/>
        <path id="Path_10023" data-name="Path 10023" d="M71.21,94.943s.046,0,.051.04c.074.529.25,1.138.757,1.218v.028C71.421,96.246,71.2,95.455,71.21,94.943Z" fill="#263238"/>
        <path id="Path_10024" data-name="Path 10024" d="M71.586,94.311c.842-.216,1.2,1.474.427,1.673S70.886,94.488,71.586,94.311Z" fill="#263238"/>
        <path id="Path_10025" data-name="Path 10025" d="M71.967,94.345c.148.063.319.193.478.171s.285-.239.364-.438h.034c.074.324.04.683-.256.808s-.541-.114-.683-.421C71.876,94.419,71.9,94.323,71.967,94.345Z" fill="#263238"/>
        <path id="Path_10026" data-name="Path 10026" d="M69.162,99.813c.142.108.3.262.489.25a1.309,1.309,0,0,0,.569-.211h.028a.723.723,0,0,1-.637.376.569.569,0,0,1-.478-.41C69.1,99.813,69.139,99.8,69.162,99.813Z" fill="#263238"/>
        <path id="Path_10027" data-name="Path 10027" d="M70.994,97.492s.256.762.33,1.138c0,.034-.08.068-.2.1h0a1.8,1.8,0,0,1-1.838-.324.04.04,0,0,1,.046-.063,2.714,2.714,0,0,0,1.707.148c0-.108-.489-1.292-.432-1.309a3.294,3.294,0,0,1,.876.028c-.5-1.6-1.24-3.124-1.707-4.728a.051.051,0,0,1,.091-.046,27.415,27.415,0,0,1,2.065,5.019C71.967,97.657,71.153,97.526,70.994,97.492Z" fill="#263238"/>
        <path id="Path_10028" data-name="Path 10028" d="M71.034,98.436a2.213,2.213,0,0,1-.632.91,1.007,1.007,0,0,1-.569.216c-.444,0-.569-.353-.6-.7a2.361,2.361,0,0,1,0-.569,2.845,2.845,0,0,0,1.8.142Z" fill="#263238"/>
        <path id="Path_10029" data-name="Path 10029" d="M70.4,99.358a1.007,1.007,0,0,1-.569.216c-.444,0-.569-.353-.6-.7A1.019,1.019,0,0,1,70.4,99.358Z" fill="#ff98b9"/>
        <path id="Path_10030" data-name="Path 10030" d="M60.479,101.151c.666-.119,0-4.307,0-4.307s2.606-1.394,2.725-5.354a5.969,5.969,0,0,1-.569,3.363s4.552-1.417,5.73-5.69a10.466,10.466,0,0,1-.979,2.982,5.542,5.542,0,0,0,2.475-2.7,11.937,11.937,0,0,0,2.009,2.578s-.859-7.9-9.161-5.73a8.37,8.37,0,0,0-6.157,6.151,10.558,10.558,0,0,0,1.3,7.26A5.039,5.039,0,0,0,60.479,101.151Z" fill="#263238"/>
        <path id="Path_10031" data-name="Path 10031" d="M62.59,97.475S60.661,95.2,59.6,95.893s.569,4.137,1.9,4.5a1.331,1.331,0,0,0,1.707-.871Z" fill="#ffc4c0"/>
        <path id="Path_10032" data-name="Path 10032" d="M60.08,96.866V96.9A3.374,3.374,0,0,1,62,98.835a.74.74,0,0,0-1.138-.1s0,.051,0,.046a.819.819,0,0,1,.922.2,3.909,3.909,0,0,1,.5.688c.051.08.193,0,.154-.068h0C62.391,98.436,61.338,96.866,60.08,96.866Z" fill="#263238"/>
      </g>
    </g>
  </g>
</svg>
