<svg xmlns="http://www.w3.org/2000/svg" xmlns:xlink="http://www.w3.org/1999/xlink" width="370" height="240" viewBox="0 0 370 240">
  <defs>
    <clipPath id="clip-path">
      <rect id="Rectangle_109" data-name="Rectangle 109" width="370" height="240" transform="translate(258 613)" fill="#fff"/>
    </clipPath>
  </defs>
  <g id="Mask_Group_32" data-name="Mask Group 32" transform="translate(-258 -613)" clip-path="url(#clip-path)">
    <g id="Scope-bro" transform="translate(308.922 592.768)">
      <g id="freepik--Clouds--inject-10">
        <path id="Path_9871" data-name="Path 9871" d="M120.2,81.25S112.6,68.55,105.33,67.463s-7.608,7.978-10.521,9.782S87.918,73.62,83.56,75.43s-2.9,5.081-5.434,6.521-2.9-2.538-8.342-.364a13.6,13.6,0,0,0-7.255,6.168h63.479Z" fill="none" stroke="#263238" stroke-linecap="round" stroke-linejoin="round" stroke-width="0.543"/>
        <path id="Path_9872" data-name="Path 9872" d="M216.7,159.967s-6.168-10.157-10.521-8.7-5.076,7.255-7.978,7.608-4.348-3.63-6.9-2.174-3.625,4.717-6.163,5.081-2.9-1.451-5.434-.728-4.348,3.994-4.348,3.994h50.426s-.071-5.184-3.261-6.168C220.159,158.141,218.512,159.6,216.7,159.967Z" fill="none" stroke="#263238" stroke-linecap="round" stroke-linejoin="round" stroke-width="0.543"/>
        <path id="Path_9873" data-name="Path 9873" d="M235.886,42.106s-6.168-10.157-10.521-8.7-5.081,7.255-7.983,7.608-4.348-3.63-6.891-2.174-3.625,4.717-6.168,5.081-2.9-1.451-5.434-.728-4.348,3.994-4.348,3.994h50.426s-.071-5.184-3.261-6.168C239.348,40.3,237.7,41.742,235.886,42.106Z" fill="none" stroke="#263238" stroke-linecap="round" stroke-linejoin="round" stroke-width="0.543"/>
        <path id="Path_9874" data-name="Path 9874" d="M58.3,224.985s-6.168-10.157-10.521-8.7S42.7,223.545,39.8,223.9s-4.348-3.63-6.9-2.174-3.625,4.717-6.168,5.081-2.9-1.451-5.434-.728-4.348,3.989-4.348,3.989H67.387s-.071-5.179-3.261-6.163C61.762,223.164,60.115,224.61,58.3,224.985Z" fill="none" stroke="#263238" stroke-linecap="round" stroke-linejoin="round" stroke-width="0.543"/>
      </g>
      <g id="freepik--Flag--inject-10">
        <line id="Line_105" data-name="Line 105" y1="39.519" transform="translate(132.35 77.641)" fill="none" stroke="#263238" stroke-linecap="round" stroke-linejoin="round" stroke-width="0.543"/>
        <path id="Path_9875" data-name="Path 9875" d="M158.141,119.486l-.054-11.825,2.57,7.608S158.294,118.389,158.141,119.486Z" fill="#263238" stroke="#263238" stroke-linecap="round" stroke-linejoin="round" stroke-width="0.543"/>
        <path id="Path_9876" data-name="Path 9876" d="M160.668,115.275s-3.576,3.3-2.174,5.369,4.266.136,10.048.136,10.325,3.994,10.325,3.994V105.5s-.277-2.337-3.989-3.717-12.945-.272-14.6-2.891-.543-7.021-.543-7.021-3.027,6.059-1.929,10.738S160.668,115.275,160.668,115.275Z" fill="#fff" stroke="#263238" stroke-linecap="round" stroke-linejoin="round" stroke-width="0.543"/>
        <path id="Path_9877" data-name="Path 9877" d="M132.448,78.984a10.271,10.271,0,0,0,6.13,2.793c9.239,1.054,10.972.321,15.374,1.283a11.519,11.519,0,0,1,6.744,4.82v27.395s-1.375-4.13-7.157-4.684-11.01-.136-15.695-.413-5.369-1.087-5.369-1.087Z" fill="#fff" stroke="#263238" stroke-linecap="round" stroke-linejoin="round" stroke-width="0.543"/>
        <path id="Path_9878" data-name="Path 9878" d="M160.071,108.21V99.874c-.277-.4-.571-.793-.88-1.174l-1.88-2.228a16.848,16.848,0,0,1-1.136-1.581,3.38,3.38,0,0,1-.495-1.837,1.413,1.413,0,0,1,.326-.962.875.875,0,0,1,.962-.19,1.511,1.511,0,0,1,.908.625,3.005,3.005,0,0,1,.408,1.141,11.224,11.224,0,0,1,.136,1.527l1.63.277V91.021c-.125-.147-.266-.293-.413-.435a5.913,5.913,0,0,0-2.005-1.19V87.38l-1.087-.348v2.022a4.06,4.06,0,0,0-3.261.315,3.236,3.236,0,0,0-1.212,2.94,6.266,6.266,0,0,0,.3,2.022,7.544,7.544,0,0,0,.826,1.712,19.588,19.588,0,0,0,1.179,1.63l1.929,2.266a12.972,12.972,0,0,1,1.462,2.038,4.244,4.244,0,0,1,.543,2.1,1.63,1.63,0,0,1-.261.962c-.174.25-.495.3-.967.147a1.951,1.951,0,0,1-.994-.69,3.31,3.31,0,0,1-.576-1.315,10.079,10.079,0,0,1-.239-1.967l-3.2-.467a8.76,8.76,0,0,0,1.244,4.587,6.663,6.663,0,0,0,3.489,2.6v2.109l1.087.342v-2.13a3.913,3.913,0,0,0,2.168-.049Z" fill="#407bff"/>
      </g>
      <g id="freepik--Mountain--inject-10">
        <path id="Path_9879" data-name="Path 9879" d="M220.925,256.64l-42.046-66.316-11.554,5.429L132.35,117.161,91.271,188.895l-6.418-9.717L36.161,256.64Z" fill="#407bff"/>
        <path id="Path_9880" data-name="Path 9880" d="M33.9,259.292l50.953-80.114,6.418,9.717,41.079-71.734,34.976,78.592,11.554-5.429,44.084,69.533" fill="none" stroke="#263238" stroke-linecap="round" stroke-linejoin="round" stroke-width="0.543"/>
        <path id="Path_9881" data-name="Path 9881" d="M84.853,179.178,90,193.3,87.418,206.98l4.065-8.874,2.587,4.44-5.543,46.948,11.461-43.622-5.179-9.613.37-12.939-3.907,5.576Z" fill="#263238" stroke="#263238" stroke-linecap="round" stroke-linejoin="round" stroke-width="0.543"/>
        <path id="Path_9882" data-name="Path 9882" d="M141.018,136.741l16.271,65.436-4.44,1.109-5.174-14.417-1.848,4.8,2.587,24.031-3.326,2.956,2.217,35.856,20.33-26.982L179,252.189l23.308-11.8,16.042,11.972-39.476-62.034-11.554,5.429Z" fill="#263238" stroke="#263238" stroke-linecap="round" stroke-linejoin="round" stroke-width="0.543"/>
      </g>
      <g id="freepik--Sight--inject-10">
        <circle id="Ellipse_27" data-name="Ellipse 27" cx="10.249" cy="10.249" r="10.249" transform="translate(125.35 141.595) rotate(-76.61)" fill="none" stroke="#263238" stroke-linecap="round" stroke-linejoin="round" stroke-width="0.543"/>
        <line id="Line_106" data-name="Line 106" x2="47.388" transform="translate(80.06 134.007)" fill="none" stroke="#263238" stroke-linecap="round" stroke-linejoin="round" stroke-width="0.543"/>
        <line id="Line_107" data-name="Line 107" x2="46.573" transform="translate(33.487 134.007)" fill="none" stroke="#263238" stroke-linecap="round" stroke-linejoin="round" stroke-width="2.717"/>
        <line id="Line_108" data-name="Line 108" y2="6.603" transform="translate(89.266 130.823)" fill="none" stroke="#263238" stroke-linecap="round" stroke-linejoin="round" stroke-width="0.543"/>
        <line id="Line_109" data-name="Line 109" y2="6.603" transform="translate(94.374 130.823)" fill="none" stroke="#263238" stroke-linecap="round" stroke-linejoin="round" stroke-width="0.543"/>
        <line id="Line_110" data-name="Line 110" y2="6.603" transform="translate(99.482 130.823)" fill="none" stroke="#263238" stroke-linecap="round" stroke-linejoin="round" stroke-width="0.543"/>
        <line id="Line_111" data-name="Line 111" y2="6.603" transform="translate(104.591 130.823)" fill="none" stroke="#263238" stroke-linecap="round" stroke-linejoin="round" stroke-width="0.543"/>
        <line id="Line_112" data-name="Line 112" y2="6.603" transform="translate(109.699 130.823)" fill="none" stroke="#263238" stroke-linecap="round" stroke-linejoin="round" stroke-width="0.543"/>
        <line id="Line_113" data-name="Line 113" y2="6.603" transform="translate(114.802 130.823)" fill="none" stroke="#263238" stroke-linecap="round" stroke-linejoin="round" stroke-width="0.543"/>
        <line id="Line_114" data-name="Line 114" y2="47.388" transform="translate(137.697 76.37)" fill="none" stroke="#263238" stroke-linecap="round" stroke-linejoin="round" stroke-width="0.543"/>
        <line id="Line_115" data-name="Line 115" y2="46.573" transform="translate(137.697 29.797)" fill="none" stroke="#263238" stroke-linecap="round" stroke-linejoin="round" stroke-width="2.717"/>
        <line id="Line_116" data-name="Line 116" x1="6.603" transform="translate(134.279 85.576)" fill="none" stroke="#263238" stroke-linecap="round" stroke-linejoin="round" stroke-width="0.543"/>
        <line id="Line_117" data-name="Line 117" x1="6.603" transform="translate(134.279 90.684)" fill="none" stroke="#263238" stroke-linecap="round" stroke-linejoin="round" stroke-width="0.543"/>
        <line id="Line_118" data-name="Line 118" x1="6.603" transform="translate(134.279 95.792)" fill="none" stroke="#263238" stroke-linecap="round" stroke-linejoin="round" stroke-width="0.543"/>
        <line id="Line_119" data-name="Line 119" x1="6.603" transform="translate(134.279 100.901)" fill="none" stroke="#263238" stroke-linecap="round" stroke-linejoin="round" stroke-width="0.543"/>
        <line id="Line_120" data-name="Line 120" x1="6.603" transform="translate(134.279 106.009)" fill="none" stroke="#263238" stroke-linecap="round" stroke-linejoin="round" stroke-width="0.543"/>
        <line id="Line_121" data-name="Line 121" x1="6.603" transform="translate(134.279 111.117)" fill="none" stroke="#263238" stroke-linecap="round" stroke-linejoin="round" stroke-width="0.543"/>
        <line id="Line_122" data-name="Line 122" x1="47.388" transform="translate(147.946 134.007)" fill="none" stroke="#263238" stroke-linecap="round" stroke-linejoin="round" stroke-width="0.543"/>
        <line id="Line_123" data-name="Line 123" x1="46.573" transform="translate(195.335 134.007)" fill="none" stroke="#263238" stroke-linecap="round" stroke-linejoin="round" stroke-width="2.717"/>
        <line id="Line_124" data-name="Line 124" y1="6.608" transform="translate(186.129 130.589)" fill="none" stroke="#263238" stroke-linecap="round" stroke-linejoin="round" stroke-width="0.543"/>
        <line id="Line_125" data-name="Line 125" y1="6.608" transform="translate(181.02 130.589)" fill="none" stroke="#263238" stroke-linecap="round" stroke-linejoin="round" stroke-width="0.543"/>
        <line id="Line_126" data-name="Line 126" y1="6.608" transform="translate(175.912 130.589)" fill="none" stroke="#263238" stroke-linecap="round" stroke-linejoin="round" stroke-width="0.543"/>
        <line id="Line_127" data-name="Line 127" y1="6.608" transform="translate(170.804 130.589)" fill="none" stroke="#263238" stroke-linecap="round" stroke-linejoin="round" stroke-width="0.543"/>
        <line id="Line_128" data-name="Line 128" y1="6.608" transform="translate(165.695 130.589)" fill="none" stroke="#263238" stroke-linecap="round" stroke-linejoin="round" stroke-width="0.543"/>
        <line id="Line_129" data-name="Line 129" y1="6.608" transform="translate(160.587 130.589)" fill="none" stroke="#263238" stroke-linecap="round" stroke-linejoin="round" stroke-width="0.543"/>
        <line id="Line_130" data-name="Line 130" y1="47.388" transform="translate(137.697 144.257)" fill="none" stroke="#263238" stroke-linecap="round" stroke-linejoin="round" stroke-width="0.543"/>
        <line id="Line_131" data-name="Line 131" y1="46.573" transform="translate(137.697 191.645)" fill="none" stroke="#263238" stroke-linecap="round" stroke-linejoin="round" stroke-width="2.717"/>
        <line id="Line_132" data-name="Line 132" x2="6.608" transform="translate(134.507 182.439)" fill="none" stroke="#263238" stroke-linecap="round" stroke-linejoin="round" stroke-width="0.543"/>
        <line id="Line_133" data-name="Line 133" x2="6.608" transform="translate(134.507 177.33)" fill="none" stroke="#263238" stroke-linecap="round" stroke-linejoin="round" stroke-width="0.543"/>
        <line id="Line_134" data-name="Line 134" x2="6.608" transform="translate(134.507 172.222)" fill="none" stroke="#263238" stroke-linecap="round" stroke-linejoin="round" stroke-width="0.543"/>
        <line id="Line_135" data-name="Line 135" x2="6.608" transform="translate(134.507 167.114)" fill="none" stroke="#263238" stroke-linecap="round" stroke-linejoin="round" stroke-width="0.543"/>
        <line id="Line_136" data-name="Line 136" x2="6.608" transform="translate(134.507 162.005)" fill="none" stroke="#263238" stroke-linecap="round" stroke-linejoin="round" stroke-width="0.543"/>
        <line id="Line_137" data-name="Line 137" x2="6.608" transform="translate(134.507 156.902)" fill="none" stroke="#263238" stroke-linecap="round" stroke-linejoin="round" stroke-width="0.543"/>
        <path id="Path_9883" data-name="Path 9883" d="M137.7,20.232a113.788,113.788,0,1,0,113.775,113.8A113.8,113.8,0,0,0,137.7,20.232Zm0,211.268a24542.788,24542.788,0,1,0-.005.005Z" fill="#263238"/>
      </g>
    </g>
  </g>
</svg>
