<svg xmlns="http://www.w3.org/2000/svg" xmlns:xlink="http://www.w3.org/1999/xlink" width="120" height="120" viewBox="0 0 120 120">
  <defs>
    <clipPath id="clip-path">
      <circle id="Ellipse_283" data-name="Ellipse 283" cx="60" cy="60" r="60" transform="translate(466 4221)" fill="#fff"/>
    </clipPath>
  </defs>
  <g id="Mask_Group_42" data-name="Mask Group 42" transform="translate(-466 -4221)" clip-path="url(#clip-path)">
    <g id="_2290864_art_document_draw_list_note_icon" data-name="2290864_art_document_draw_list_note_icon" transform="translate(490.529 4238.729)">
      <g id="Group_7114" data-name="Group 7114" transform="translate(43.608 34.381)">
        <line id="Line_258" data-name="Line 258" x1="7.528" y2="11.993" transform="translate(19.311 18.082)" fill="none" stroke="#fff" stroke-linecap="round" stroke-linejoin="round" stroke-miterlimit="2.613" stroke-width="2.087"/>
        <path id="Path_18752" data-name="Path 18752" d="M82.542,76.819a11.35,11.35,0,0,1-3.589,3.961" transform="translate(-63.231 -46.744)" fill="none" stroke="#fff" stroke-linecap="round" stroke-linejoin="round" stroke-miterlimit="2.613" stroke-width="2.087" fill-rule="evenodd"/>
        <line id="Line_259" data-name="Line 259" x1="10.35" y2="5.997" transform="translate(5.372 34.036)" fill="none" stroke="#fff" stroke-linecap="round" stroke-linejoin="round" stroke-miterlimit="2.613" stroke-width="2.087"/>
        <path id="Path_18753" data-name="Path 18753" d="M66.861,87.466c-3.937,2.236-5.779,1.311-5.3-3.737" transform="translate(-61.489 -47.433)" fill="none" stroke="#fff" stroke-linecap="round" stroke-linejoin="round" stroke-miterlimit="2.613" stroke-width="2.087" fill-rule="evenodd"/>
        <line id="Line_260" data-name="Line 260" y1="11.375" x2="1.056" transform="translate(0.075 24.921)" fill="none" stroke="#fff" stroke-linecap="round" stroke-linejoin="round" stroke-miterlimit="2.613" stroke-width="2.087"/>
        <path id="Path_18754" data-name="Path 18754" d="M62.745,70.591a10.48,10.48,0,0,1,1.592-4.53" transform="translate(-61.614 -45.67)" fill="none" stroke="#fff" stroke-linecap="round" stroke-linejoin="round" stroke-miterlimit="2.613" stroke-width="2.087" fill-rule="evenodd"/>
        <line id="Line_261" data-name="Line 261" y1="20.391" x2="13.149" transform="translate(2.722)" fill="none" stroke="#fff" stroke-linecap="round" stroke-linejoin="round" stroke-miterlimit="2.613" stroke-width="2.087"/>
        <path id="Path_18755" data-name="Path 18755" d="M70.125,69.67a3.533,3.533,0,0,1,4.749-.91A3.389,3.389,0,0,1,76.1,73.451" transform="translate(-62.35 -45.886)" fill="none" stroke="#fff" stroke-linecap="round" stroke-linejoin="round" stroke-miterlimit="2.613" stroke-width="2.087" fill-rule="evenodd"/>
        <path id="Path_18756" data-name="Path 18756" d="M76.833,73.859a2.8,2.8,0,0,1,3.773-.731,2.7,2.7,0,0,1,.975,3.74" transform="translate(-63.02 -46.333)" fill="none" stroke="#fff" stroke-linecap="round" stroke-linejoin="round" stroke-miterlimit="2.613" stroke-width="2.087" fill-rule="evenodd"/>
        <path id="Path_18757" data-name="Path 18757" d="M64.66,66.5a2.828,2.828,0,0,1,3.8-.728,2.717,2.717,0,0,1,.993,3.766" transform="translate(-61.805 -45.598)" fill="none" stroke="#fff" stroke-linecap="round" stroke-linejoin="round" stroke-miterlimit="2.613" stroke-width="2.087" fill-rule="evenodd"/>
        <path id="Path_18758" data-name="Path 18758" d="M62.049,78.555a15.633,15.633,0,0,1,5.245,1.982,15.292,15.292,0,0,1,3.745,3.217" transform="translate(-61.544 -46.917)" fill="none" stroke="#fff" stroke-linecap="round" stroke-linejoin="round" stroke-miterlimit="2.613" stroke-width="2.087" fill-rule="evenodd"/>
      </g>
      <line id="Line_262" data-name="Line 262" y2="12.449" transform="translate(69.826 66.779)" fill="none" stroke="#fff" stroke-linecap="round" stroke-linejoin="round" stroke-miterlimit="2.613" stroke-width="2.087"/>
      <path id="Path_18759" data-name="Path 18759" d="M90.012,93.227A5.4,5.4,0,0,1,84.6,98.542" transform="translate(-20.186 -13.999)" fill="none" stroke="#fff" stroke-linecap="round" stroke-linejoin="round" stroke-miterlimit="2.613" stroke-width="2.087" fill-rule="evenodd"/>
      <line id="Line_263" data-name="Line 263" x1="59.008" transform="translate(5.401 84.543)" fill="none" stroke="#fff" stroke-linecap="round" stroke-linejoin="round" stroke-miterlimit="2.613" stroke-width="2.087"/>
      <path id="Path_18760" data-name="Path 18760" d="M18.448,98.542a5.379,5.379,0,0,1-5.4-5.315" transform="translate(-13.047 -13.999)" fill="none" stroke="#fff" stroke-linecap="round" stroke-linejoin="round" stroke-miterlimit="2.613" stroke-width="2.087" fill-rule="evenodd"/>
      <path id="Path_18761" data-name="Path 18761" d="M13.047,84.446V26.485l23.4-21.267H77.456" transform="translate(-13.047 -5.218)" fill="none" stroke="#fff" stroke-linecap="round" stroke-linejoin="round" stroke-miterlimit="2.613" stroke-width="2.087" fill-rule="evenodd"/>
      <path id="Path_18762" data-name="Path 18762" d="M84.6,5.218a5.389,5.389,0,0,1,5.417,5.315" transform="translate(-20.186 -5.218)" fill="none" stroke="#fff" stroke-linecap="round" stroke-linejoin="round" stroke-miterlimit="2.613" stroke-width="2.087" fill-rule="evenodd"/>
      <line id="Line_264" data-name="Line 264" y2="38.665" transform="translate(69.826 5.315)" fill="none" stroke="#fff" stroke-linecap="round" stroke-linejoin="round" stroke-miterlimit="2.613" stroke-width="2.087"/>
      <line id="Line_265" data-name="Line 265" y2="19.608" transform="translate(24.473)" fill="none" stroke="#fff" stroke-linecap="round" stroke-linejoin="round" stroke-miterlimit="2.613" stroke-width="2.087"/>
      <path id="Path_18763" data-name="Path 18763" d="M39.912,27a2.886,2.886,0,0,1-2.889,2.845" transform="translate(-15.439 -7.392)" fill="none" stroke="#fff" stroke-linecap="round" stroke-linejoin="round" stroke-miterlimit="2.613" stroke-width="2.087" fill-rule="evenodd"/>
      <line id="Line_266" data-name="Line 266" x1="21.584" transform="translate(0 22.453)" fill="none" stroke="#fff" stroke-linecap="round" stroke-linejoin="round" stroke-miterlimit="2.613" stroke-width="2.087"/>
      <line id="Line_267" data-name="Line 267" x2="20.458" transform="translate(38.571 9.019)" fill="none" stroke="#fff" stroke-linecap="round" stroke-linejoin="round" stroke-miterlimit="2.613" stroke-width="2.087"/>
      <path id="Path_18764" data-name="Path 18764" d="M78.618,15.237a1.328,1.328,0,0,1,1.272,1.378" transform="translate(-19.589 -6.218)" fill="none" stroke="#fff" stroke-linecap="round" stroke-linejoin="round" stroke-miterlimit="2.613" stroke-width="2.087" fill-rule="evenodd"/>
      <line id="Line_268" data-name="Line 268" y2="11.645" transform="translate(60.301 10.397)" fill="none" stroke="#fff" stroke-linecap="round" stroke-linejoin="round" stroke-miterlimit="2.613" stroke-width="2.087"/>
      <path id="Path_18765" data-name="Path 18765" d="M79.89,29.7a1.325,1.325,0,0,1-1.272,1.376" transform="translate(-19.589 -7.661)" fill="none" stroke="#fff" stroke-linecap="round" stroke-linejoin="round" stroke-miterlimit="2.613" stroke-width="2.087" fill-rule="evenodd"/>
      <line id="Line_269" data-name="Line 269" x1="20.458" transform="translate(38.571 23.418)" fill="none" stroke="#fff" stroke-linecap="round" stroke-linejoin="round" stroke-miterlimit="2.613" stroke-width="2.087"/>
      <path id="Path_18766" data-name="Path 18766" d="M55.751,31.079A1.326,1.326,0,0,1,54.474,29.7" transform="translate(-17.18 -7.661)" fill="none" stroke="#fff" stroke-linecap="round" stroke-linejoin="round" stroke-miterlimit="2.613" stroke-width="2.087" fill-rule="evenodd"/>
      <line id="Line_270" data-name="Line 270" y1="11.645" transform="translate(37.294 10.397)" fill="none" stroke="#fff" stroke-linecap="round" stroke-linejoin="round" stroke-miterlimit="2.613" stroke-width="2.087"/>
      <path id="Path_18767" data-name="Path 18767" d="M54.474,16.615a1.329,1.329,0,0,1,1.277-1.378" transform="translate(-17.18 -6.218)" fill="none" stroke="#fff" stroke-linecap="round" stroke-linejoin="round" stroke-miterlimit="2.613" stroke-width="2.087" fill-rule="evenodd"/>
      <line id="Line_271" data-name="Line 271" x2="40.207" transform="translate(8.537 35.783)" fill="none" stroke="#fff" stroke-linecap="round" stroke-linejoin="round" stroke-miterlimit="2.613" stroke-width="2.087"/>
      <line id="Line_272" data-name="Line 272" x2="27.074" transform="translate(8.537 54.702)" fill="none" stroke="#fff" stroke-linecap="round" stroke-linejoin="round" stroke-miterlimit="2.613" stroke-width="2.087"/>
      <line id="Line_273" data-name="Line 273" x2="27.074" transform="translate(8.537 73.621)" fill="none" stroke="#fff" stroke-linecap="round" stroke-linejoin="round" stroke-miterlimit="2.613" stroke-width="2.087"/>
    </g>
  </g>
</svg>
