<svg xmlns="http://www.w3.org/2000/svg" xmlns:xlink="http://www.w3.org/1999/xlink" width="120" height="120" viewBox="0 0 120 120">
  <defs>
    <clipPath id="clip-path">
      <circle id="Ellipse_282" data-name="Ellipse 282" cx="60" cy="60" r="60" transform="translate(778 3849)" fill="#fff"/>
    </clipPath>
  </defs>
  <g id="Mask_Group_41" data-name="Mask Group 41" transform="translate(-778 -3849)" clip-path="url(#clip-path)">
    <g id="brain_idea" transform="translate(801.612 3860.224)">
      <g id="Group_7105" data-name="Group 7105" transform="translate(0 -1.522)">
        <path id="Path_18749" data-name="Path 18749" d="M48.949,20.474a4.043,4.043,0,1,0-4.043-4.043A4.048,4.048,0,0,0,48.949,20.474Zm0-5.391A1.348,1.348,0,1,1,47.6,16.431,1.35,1.35,0,0,1,48.949,15.083Z" transform="translate(-12.561 -2.958)" fill="#fff"/>
        <path id="Path_18750" data-name="Path 18750" d="M48.748,53.795a2.7,2.7,0,0,1-2.7-2.7h-2.7a5.391,5.391,0,0,0,10.782,0h-2.7A2.7,2.7,0,0,1,48.748,53.795Z" transform="translate(-12.36 -7.977)" fill="#fff"/>
        <path id="Path_18751" data-name="Path 18751" d="M77.424,46.027A9.376,9.376,0,0,0,73.618,35.5a8.082,8.082,0,0,0-5.486-9.315,10.834,10.834,0,0,0-9.251-8.377c.044-.474.074-.951.074-1.434a14.827,14.827,0,0,0-29.505-2.1,15.262,15.262,0,0,0-.065,3.528,10.835,10.835,0,0,0-9.256,8.379A8.082,8.082,0,0,0,14.643,35.5a9.376,9.376,0,0,0-3.806,10.527,12.114,12.114,0,0,0,3.757,19,10.8,10.8,0,0,0,6.654,8.5A12.111,12.111,0,0,0,44.13,78.508a12.111,12.111,0,0,0,22.883-4.986,10.8,10.8,0,0,0,6.652-8.5,12.114,12.114,0,0,0,3.759-19Zm-45.3-31.382A12.187,12.187,0,0,1,42.741,4.323a12.127,12.127,0,0,1,10.981,19.47,26.3,26.3,0,0,0-4.914,10.1h-3.33V21.765h-2.7V33.894H39.5a22.718,22.718,0,0,0-4.69-9.759A12.051,12.051,0,0,1,32.121,14.645Zm7.821,21.945h8.395a22.5,22.5,0,0,0-.163,2.555v.14H40.087V39.14A25,25,0,0,0,39.942,36.589ZM71.9,62.86l-.791.318-.051.852a8.1,8.1,0,0,1-4.247,6.62,12.144,12.144,0,0,0-11.9-9.8v2.7a9.434,9.434,0,1,1-9.434,9.434V58.152h-2.7V72.977a9.434,9.434,0,1,1-9.434-9.434v-2.7a12.147,12.147,0,0,0-11.9,9.8A8.1,8.1,0,0,1,17.2,64.03l-.051-.852-.791-.318a9.411,9.411,0,0,1-4.218-14.14,9.423,9.423,0,0,0,14.021,1.639l-1.8-2.008a6.735,6.735,0,1,1-8.7-10.273,8.078,8.078,0,0,0,6.907,3.9v-2.7a5.391,5.391,0,1,1,5.391-5.391h2.7a8.09,8.09,0,0,0-7.625-8.063,8.113,8.113,0,0,1,6.853-5.342,14.741,14.741,0,0,0,2.865,5.376A20.672,20.672,0,0,1,37.392,39.14v2.84H50.869V39.144a22.338,22.338,0,0,1,4.982-13.7,14.7,14.7,0,0,0,2.517-4.96,8.115,8.115,0,0,1,6.865,5.344,8.09,8.09,0,0,0-7.627,8.063h2.7a5.391,5.391,0,1,1,5.391,5.391v2.7a8.078,8.078,0,0,0,6.907-3.9,6.735,6.735,0,1,1-8.7,10.273l-1.8,2.008A9.423,9.423,0,0,0,76.119,48.72,9.41,9.41,0,0,1,71.9,62.86Z" transform="translate(-7.742 -1.553)" fill="#fff"/>
      </g>
      <g id="Group_7106" data-name="Group 7106" transform="translate(35.04 51.036)">
        <rect id="Rectangle_4645" data-name="Rectangle 4645" width="2.695" height="2.695" fill="#fff"/>
      </g>
      <g id="Group_7107" data-name="Group 7107" transform="translate(59.299 55.08)">
        <rect id="Rectangle_4646" data-name="Rectangle 4646" width="2.695" height="2.695" fill="#fff"/>
      </g>
      <g id="Group_7108" data-name="Group 7108" transform="translate(18.868 40.255)">
        <rect id="Rectangle_4647" data-name="Rectangle 4647" width="2.695" height="2.695" fill="#fff"/>
      </g>
      <g id="Group_7109" data-name="Group 7109" transform="translate(24.259 69.904)">
        <rect id="Rectangle_4648" data-name="Rectangle 4648" width="2.695" height="2.695" fill="#fff"/>
      </g>
      <g id="Group_7110" data-name="Group 7110" transform="translate(43.126 48.341)">
        <rect id="Rectangle_4649" data-name="Rectangle 4649" width="2.695" height="2.695" fill="#fff"/>
      </g>
      <g id="Group_7111" data-name="Group 7111" transform="translate(55.256 32.169)">
        <rect id="Rectangle_4650" data-name="Rectangle 4650" width="2.695" height="2.695" fill="#fff"/>
      </g>
      <g id="Group_7112" data-name="Group 7112" transform="translate(10.782 56.427)">
        <rect id="Rectangle_4651" data-name="Rectangle 4651" width="2.695" height="2.695" fill="#fff"/>
      </g>
      <g id="Group_7113" data-name="Group 7113" transform="translate(47.169 65.861)">
        <rect id="Rectangle_4652" data-name="Rectangle 4652" width="2.695" height="2.695" fill="#fff"/>
      </g>
    </g>
  </g>
</svg>
