<svg xmlns="http://www.w3.org/2000/svg" xmlns:xlink="http://www.w3.org/1999/xlink" width="120" height="120" viewBox="0 0 120 120">
  <defs>
    <clipPath id="clip-path">
      <circle id="Ellipse_284" data-name="Ellipse 284" cx="60" cy="60" r="60" transform="translate(777.703 4592)" fill="#fff"/>
    </clipPath>
  </defs>
  <g id="Mask_Group_43" data-name="Mask Group 43" transform="translate(-777.703 -4592)" clip-path="url(#clip-path)">
    <g id="choose" transform="translate(791.007 4614.502)">
      <path id="Path_18768" data-name="Path 18768" d="M1818.738,1735.847a2.459,2.459,0,0,1-2.317-3.281c4.39-12.4,4.586-23.268,0-28.29-8.018-8.775-27.51-3.935-27.707-3.871l-2.067.782-.3-26.125.039-.214s.124-4.544-.674-6.128c-.378-.419-1.937-1.627-2.5-1.556-.6-.067-2.2,1.158-2.615,1.607-.836,1.524-.851,6-.851,6l.027.354V1712.3l-2.67-2.287c-4.343-.686-6.785,1.5-6.962,1.844-1.129,2.213,4.4,11.519,12.3,19.457.959.963,3.466,2.851,2.5,3.81a2.46,2.46,0,0,1-3.48-.007c-4.134-4.154-17.345-18.228-13.839-25.1,1.587-3.111,5.366-3.5,8.224-3.342v-31.376a12.114,12.114,0,0,1,2.021-8.73,6.806,6.806,0,0,1,5.337-2.31,6.586,6.586,0,0,1,5.273,2.322,12.148,12.148,0,0,1,1.778,8.913v21.536c6.5-1.146,21.6-2.668,29.48,5.952,5.917,6.466,6.357,16.969,1.308,31.233A2.459,2.459,0,0,1,1818.738,1735.847Z" transform="translate(-1743.303 -1653.339)" fill="#fff"/>
      <path id="Path_18769" data-name="Path 18769" d="M1751.371,1675.528a5.41,5.41,0,0,1-3.841-1.589l-7.39-7.39a2.459,2.459,0,1,1,3.478-3.478l7.392,7.391a.52.52,0,0,0,.738,0l16.039-16.038a2.459,2.459,0,0,1,3.478,3.478l-16.042,16.04a5.411,5.411,0,0,1-3.851,1.586Z" transform="translate(-1739.419 -1651.857)" fill="#fff"/>
      <path id="Path_18770" data-name="Path 18770" d="M1825.84,1677.073a2.461,2.461,0,0,1-1.739-.721l-20.6-20.6a2.459,2.459,0,0,1,3.478-3.478l20.6,20.6a2.459,2.459,0,0,1-1.739,4.2Z" transform="translate(-1748.325 -1651.555)" fill="#fff"/>
      <path id="Path_18771" data-name="Path 18771" d="M1805.241,1677.073a2.459,2.459,0,0,1-1.739-4.2l20.6-20.6a2.459,2.459,0,0,1,3.478,3.478l-20.6,20.6A2.458,2.458,0,0,1,1805.241,1677.073Z" transform="translate(-1748.325 -1651.555)" fill="#fff"/>
    </g>
  </g>
</svg>
