<svg xmlns="http://www.w3.org/2000/svg" xmlns:xlink="http://www.w3.org/1999/xlink" width="370" height="240" viewBox="0 0 370 240">
  <defs>
    <clipPath id="clip-path">
      <rect id="Rectangle_127" data-name="Rectangle 127" width="370" height="240" transform="translate(283 1758)" fill="#fff"/>
    </clipPath>
  </defs>
  <g id="Mask_Group_34" data-name="Mask Group 34" transform="translate(-283 -1758)" clip-path="url(#clip-path)">
    <g id="Success_factors-rafiki" data-name="Success factors-rafiki" transform="translate(298.452 1708.032)">
      <g id="freepik--Shadow--inject-10">
        <ellipse id="freepik--path--inject-10" cx="131.495" cy="7.677" rx="131.495" ry="7.677" transform="translate(38.053 274.614)" fill="#f5f5f5"/>
      </g>
      <g id="freepik--Factors--inject-10">
        <path id="Path_10033" data-name="Path 10033" d="M141.539,107.873a22.977,22.977,0,1,1,31.719-7.046A22.977,22.977,0,0,1,141.539,107.873Z" fill="#407bff"/>
        <path id="Path_10034" data-name="Path 10034" d="M157.28,115.659a.332.332,0,0,1-.332-.3.339.339,0,0,1,.292-.38c.441-.054.882-.122,1.356-.2a.345.345,0,1,1,.122.678c-.454.081-.9.149-1.356.21Zm-10.112-.617h-.081a27.8,27.8,0,0,1-3.269-1.051.346.346,0,0,1-.19-.441.332.332,0,0,1,.441-.19,28.039,28.039,0,0,0,3.181,1.031.342.342,0,1,1-.081.678Zm17.891-1.594a.332.332,0,0,1-.305-.2.339.339,0,0,1,.17-.448,26.524,26.524,0,0,0,8.138-5.758.339.339,0,1,1,.488.468,27.073,27.073,0,0,1-8.362,5.907.366.366,0,0,1-.109.034Zm-22.977-.271a.3.3,0,0,1-.149,0,28.81,28.81,0,0,1-2.787-1.553,27.345,27.345,0,0,1-5.426-4.544.339.339,0,1,1,.5-.454,26.83,26.83,0,0,0,5.3,4.422,25.474,25.474,0,0,0,2.713,1.519.339.339,0,0,1,.156.454.326.326,0,0,1-.285.156Zm32.594-7.08a.332.332,0,0,1-.217-.081.339.339,0,0,1-.047-.475,27.6,27.6,0,0,0,1.974-2.713l.217-.346a.332.332,0,0,1,.461-.115.346.346,0,0,1,.115.468l-.224.353a28.24,28.24,0,0,1-2.035,2.781.346.346,0,0,1-.224.129Zm-44.639-4.449a.332.332,0,0,1-.3-.176c-.217-.407-.427-.814-.617-1.228a.339.339,0,0,1,.156-.454.346.346,0,0,1,.454.163c.19.407.393.8.6,1.194a.339.339,0,0,1-.136.461.359.359,0,0,1-.142.041Zm50.471-8.057h-.054a.346.346,0,0,1-.278-.393c.081-.441.142-.882.2-1.356a.342.342,0,1,1,.678.081c-.054.454-.129.909-.2,1.356a.346.346,0,0,1-.346.312Zm-53.618-2.9a.339.339,0,0,1-.339-.319c-.041-.617-.061-1.248-.061-1.872,0-.515,0-1.038.041-1.56a.353.353,0,0,1,.359-.319.339.339,0,0,1,.319.359c0,.509-.041,1.011-.041,1.519s0,1.221.061,1.824a.339.339,0,0,1-.319.366ZM180.7,85.452a.339.339,0,0,1-.332-.3,26.823,26.823,0,0,0-3.072-9.495.337.337,0,1,1,.59-.326,27.29,27.29,0,0,1,3.188,9.739.332.332,0,0,1-.292.373Zm-53.638-.21h-.047a.339.339,0,0,1-.292-.38,27.209,27.209,0,0,1,3.235-9.712.342.342,0,0,1,.6.332,26.45,26.45,0,0,0-3.16,9.495.339.339,0,0,1-.332.265Zm49.508-11.163a.346.346,0,0,1-.285-.149,26.729,26.729,0,0,0-1.994-2.713.328.328,0,1,1,.481-.441,27.076,27.076,0,0,1,2.035,2.753.339.339,0,0,1-.1.468.305.305,0,0,1-.156.081ZM134.282,70.2a.353.353,0,0,1-.237-.095.339.339,0,0,1,0-.482c.319-.332.644-.678.97-.97a.339.339,0,1,1,.468.488c-.319.305-.638.624-.943.949a.353.353,0,0,1-.258.109ZM166.679,65a.312.312,0,0,1-.156-.041c-.393-.217-.793-.42-1.194-.61a.332.332,0,0,1-.163-.448.339.339,0,0,1,.454-.163c.407.2.821.4,1.221.624a.326.326,0,0,1,.136.454.339.339,0,0,1-.312.183ZM143.723,63.75a.326.326,0,0,1-.312-.21.346.346,0,0,1,.183-.441,27.756,27.756,0,0,1,3.255-1.085.346.346,0,0,1,.42.244.339.339,0,0,1-.244.414,25.993,25.993,0,0,0-3.174,1.078.427.427,0,0,1-.129,0Zm15.314-1.485h-.068a26.857,26.857,0,0,0-9.983,0,.339.339,0,0,1-.393-.271.346.346,0,0,1,.271-.4,27.616,27.616,0,0,1,10.234,0,.346.346,0,0,1,.271.4.339.339,0,0,1-.332.278Z" fill="#407bff"/>
        <path id="Path_10035" data-name="Path 10035" d="M141.539,107.873a22.977,22.977,0,1,1,31.719-7.046A22.977,22.977,0,0,1,141.539,107.873Z" fill="#fff" opacity="0.8"/>
        <path id="Path_10036" data-name="Path 10036" d="M231.6,83.418a.339.339,0,1,1,0-.678,10.957,10.957,0,0,0,1.322-.1.338.338,0,0,1,.081.671c-.461.054-.929.095-1.356.109Zm7.691-2.353a.339.339,0,0,1-.176-.624,15.219,15.219,0,0,0,6.151-7.589.339.339,0,0,1,.637.231,15.917,15.917,0,0,1-6.429,7.935.353.353,0,0,1-.183.061Zm-17.24-.563a.305.305,0,0,1-.2-.068,15.4,15.4,0,0,1-2.564-2.319.326.326,0,0,1,0-.475.339.339,0,0,1,.481,0,15.537,15.537,0,0,0,2.448,2.224.339.339,0,0,1-.2.61ZM218.3,76.636a.325.325,0,0,1-.278-.149,15.68,15.68,0,0,1-2.713-8.817c0-.339,0-.678.034-1.024a.346.346,0,0,1,.359-.319.339.339,0,0,1,.319.359c0,.326-.034.678-.034.983a15,15,0,0,0,2.584,8.443.346.346,0,0,1-.095.475A.312.312,0,0,1,218.3,76.636Zm27.887-5.27h-.075a.339.339,0,0,1-.258-.407,15.228,15.228,0,0,0,.359-3.289.346.346,0,0,1,.339-.339.339.339,0,0,1,.339.339,15.754,15.754,0,0,1-.373,3.438A.339.339,0,0,1,246.184,71.366Zm-.576-8.694a.326.326,0,0,1-.319-.224c-.156-.414-.326-.821-.515-1.221a.332.332,0,0,1,.163-.448.339.339,0,0,1,.454.156c.2.42.373.848.536,1.282a.339.339,0,0,1-.2.434Zm-28-2.13a.359.359,0,0,1-.163-.041.332.332,0,0,1-.129-.461c.217-.4.461-.8.719-1.18a.346.346,0,0,1,.475-.095.339.339,0,0,1,.088.475c-.244.366-.475.746-.678,1.126a.332.332,0,0,1-.339.176Zm23.35-4.429a.332.332,0,0,1-.217-.081A14.975,14.975,0,0,0,231.6,52.58a.332.332,0,0,1-.339-.359.326.326,0,0,1,.346-.332,15.6,15.6,0,0,1,9.549,3.608.346.346,0,0,1,.041.481.332.332,0,0,1-.271.136Zm-14.71-2.76a.343.343,0,0,1-.109-.678,16.094,16.094,0,0,1,3.391-.719.341.341,0,1,1,.068.678,15.015,15.015,0,0,0-3.235.678.305.305,0,0,1-.115.041Z" fill="#407bff"/>
        <circle id="Ellipse_34" data-name="Ellipse 34" cx="12.513" cy="12.513" r="12.513" transform="translate(213.396 67.664) rotate(-45)" fill="#407bff"/>
        <circle id="Ellipse_35" data-name="Ellipse 35" cx="12.513" cy="12.513" r="12.513" transform="translate(213.396 67.664) rotate(-45)" fill="#fff" opacity="0.8"/>
        <path id="Path_10037" data-name="Path 10037" d="M231.094,60.936a4.5,4.5,0,0,1,2.2,8.423.678.678,0,0,0-.339.536h-3.73a.678.678,0,0,0-.346-.536,4.5,4.5,0,0,1,2.211-8.423m0-.678a5.181,5.181,0,0,0-2.543,9.691l.041.624h5l.041-.624a5.175,5.175,0,0,0-2.536-9.691Z" fill="#407bff"/>
        <rect id="Rectangle_114" data-name="Rectangle 114" width="5.351" height="0.787" rx="0.326" transform="translate(228.415 70.932)" fill="#407bff"/>
        <rect id="Rectangle_115" data-name="Rectangle 115" width="5.039" height="0.787" rx="0.326" transform="translate(228.571 72.011)" fill="#407bff"/>
        <rect id="Rectangle_116" data-name="Rectangle 116" width="4.646" height="0.787" rx="0.326" transform="translate(228.768 73.096)" fill="#407bff"/>
        <path id="Path_10038" data-name="Path 10038" d="M229.528,74.228a1.865,1.865,0,0,0,3.126,0Z" fill="#407bff"/>
        <path id="Path_10039" data-name="Path 10039" d="M231.942,70.58h0a.156.156,0,0,1-.156-.176,10.932,10.932,0,0,1,.8-3.622h-.353a.17.17,0,0,1-.156-.109l-.095-.224-.305.766a.17.17,0,0,1-.156.109h0a.176.176,0,0,1-.156-.109l-.3-.746-.292.746a.183.183,0,0,1-.319,0l-.278-.753-.088.21a.17.17,0,0,1-.156.109h-.346a11.3,11.3,0,0,1,.8,3.622.163.163,0,0,1-.163.176.156.156,0,0,1-.176-.156s-.19-2.815-.909-3.71a.156.156,0,0,1,0-.176.163.163,0,0,1,.149-.095h.549l.2-.5a.163.163,0,0,1,.156-.1h0a.17.17,0,0,1,.156.1l.3.753.292-.753a.17.17,0,0,1,.156-.1h0a.176.176,0,0,1,.163.1l.292.753.3-.753a.156.156,0,0,1,.149-.1.163.163,0,0,1,.163.1l.217.5h.549a.17.17,0,0,1,.136.271c-.726.9-.909,3.683-.909,3.71a.176.176,0,0,1-.217.156Z" fill="#407bff"/>
        <path id="Path_10040" data-name="Path 10040" d="M86.13,170.131h0a18.677,18.677,0,0,1-3.391-.563.353.353,0,0,1-.237-.42.339.339,0,0,1,.414-.237,17.293,17.293,0,0,0,3.276.543.346.346,0,0,1,.319.366.339.339,0,0,1-.38.312Zm-5.276-1.187h-.122a18.413,18.413,0,0,1-8.138-6.226.346.346,0,0,1,.075-.475.339.339,0,0,1,.475.075,17.633,17.633,0,0,0,7.813,5.988.345.345,0,1,1-.122.678Zm15.09-.922a.339.339,0,0,1-.3-.183.332.332,0,0,1,.136-.454c.393-.21.78-.441,1.146-.678a.339.339,0,0,1,.366.57,10.989,10.989,0,0,1-1.194.678.312.312,0,0,1-.17.068ZM102,162.7a.312.312,0,0,1-.2-.068.339.339,0,0,1-.081-.475,17.633,17.633,0,0,0,3.31-9.271.332.332,0,0,1,.359-.319.339.339,0,0,1,.319.359,18.311,18.311,0,0,1-3.432,9.63.353.353,0,0,1-.292.142Zm-32.011-5.948a.339.339,0,0,1-.332-.251l-.068-.271c-.088-.359-.163-.719-.231-1.078a.345.345,0,0,1,.678-.122q.1.515.224,1.038l.068.264a.339.339,0,0,1-.237.414Zm35.375-5.514a.339.339,0,0,1-.339-.319,18.005,18.005,0,0,0-.5-3.289,17.572,17.572,0,0,0-2.313-5.365.339.339,0,0,1,.57-.366,18.42,18.42,0,0,1,2.909,8.979.339.339,0,0,1-.319.359Zm-34.676-5.765a.278.278,0,0,1-.129,0,.339.339,0,0,1-.19-.441,18.413,18.413,0,0,1,1.587-3.059.339.339,0,1,1,.57.366A17.634,17.634,0,0,0,71,145.289a.346.346,0,0,1-.312.156ZM73.4,140.82a.38.38,0,0,1-.217-.075.353.353,0,0,1-.047-.482,18.311,18.311,0,0,1,8.416-5.805.34.34,0,0,1,.217.644,17.538,17.538,0,0,0-8.138,5.6.346.346,0,0,1-.2.095Zm27.867-.041a.326.326,0,0,1-.258-.122,18.311,18.311,0,0,0-2.34-2.36.335.335,0,1,1,.427-.515,18.006,18.006,0,0,1,2.435,2.441.353.353,0,0,1-.047.482.366.366,0,0,1-.183.047Zm-11.577-6.436H89.65c-.441-.054-.888-.1-1.356-.122a.346.346,0,0,1-.319-.359.339.339,0,0,1,.359-.319,9.985,9.985,0,0,1,1.356.129.34.34,0,0,1-.047.678Z" fill="#407bff"/>
        <circle id="Ellipse_36" data-name="Ellipse 36" cx="14.595" cy="14.595" r="14.595" transform="translate(72.79 137.239)" fill="#407bff"/>
        <circle id="Ellipse_37" data-name="Ellipse 37" cx="14.595" cy="14.595" r="14.595" transform="translate(72.79 137.239)" fill="#fff" opacity="0.8"/>
        <path id="Path_10041" data-name="Path 10041" d="M74.418,93.835a.342.342,0,1,1-.081-.678c.427-.109.855-.237,1.275-.38a.339.339,0,1,1,.217.637c-.434.149-.882.285-1.356.4Zm-10.03-.3h-.1a18.2,18.2,0,0,1-3.167-1.356.34.34,0,0,1,.326-.6,17.8,17.8,0,0,0,3.045,1.329.317.317,0,0,1-.1.624Zm-4.836-2.414a.319.319,0,0,1-.19-.061,18.366,18.366,0,0,1-6.4-7.982.341.341,0,1,1,.631-.258A17.633,17.633,0,0,0,59.749,90.5a.339.339,0,0,1-.2.617Zm22.028-1a.339.339,0,0,1-.2-.6,17.633,17.633,0,0,0,5.426-8.213.353.353,0,0,1,.678.2,18.365,18.365,0,0,1-5.643,8.532.332.332,0,0,1-.264.081ZM87.6,79.769h-.061a.346.346,0,0,1-.271-.4,17.355,17.355,0,0,0,.312-3.3,17.68,17.68,0,0,0-.963-5.771.346.346,0,0,1,.19-.441.339.339,0,0,1,.427.21,18.311,18.311,0,0,1,1,6,18.731,18.731,0,0,1-.319,3.432.339.339,0,0,1-.319.278Zm-35.68-3.086a.332.332,0,0,1-.339-.332V74.974a.346.346,0,0,1,.359-.319.332.332,0,0,1,.319.359c0,.346,0,.678,0,1.051v.278a.339.339,0,0,1-.339.339ZM86.164,68.64a.339.339,0,0,1-.305-.19A17.321,17.321,0,0,0,84.15,65.6a.339.339,0,0,1,.075-.475.332.332,0,0,1,.468.075,17.9,17.9,0,0,1,1.777,2.957.332.332,0,0,1-.156.448.3.3,0,0,1-.149.034ZM55.313,65.88a.312.312,0,0,1-.2-.068.332.332,0,0,1-.075-.475,17.918,17.918,0,0,1,2.272-2.591.339.339,0,1,1,.461.488,18.216,18.216,0,0,0-2.163,2.5A.332.332,0,0,1,55.313,65.88ZM59.1,62.014a.332.332,0,0,1-.2-.6,18.155,18.155,0,0,1,9.556-3.628.339.339,0,0,1,.366.312.346.346,0,0,1-.312.366,17.633,17.633,0,0,0-9.2,3.486.332.332,0,0,1-.2.068Zm17.362-2.387a.387.387,0,0,1-.122,0c-.414-.163-.834-.312-1.255-.441a.339.339,0,0,1-.231-.42.332.332,0,0,1,.427-.224c.434.129.875.285,1.3.454a.339.339,0,0,1,.2.434.346.346,0,0,1-.319.2Z" fill="#407bff"/>
        <circle id="Ellipse_38" data-name="Ellipse 38" cx="14.588" cy="14.588" r="14.588" transform="matrix(0.924, -0.383, 0.383, 0.924, 50.864, 68.17)" fill="#407bff"/>
        <circle id="Ellipse_39" data-name="Ellipse 39" cx="14.588" cy="14.588" r="14.588" transform="matrix(0.924, -0.383, 0.383, 0.924, 50.864, 68.17)" fill="#fff" opacity="0.8"/>
        <path id="Path_10042" data-name="Path 10042" d="M92.96,153.95H90.925a.17.17,0,0,1-.17-.156l-.088-.916a5.425,5.425,0,0,1-1.7-.678l-.712.59a.176.176,0,0,1-.231,0L86.6,151.359a.163.163,0,0,1,0-.224l.59-.678a5.6,5.6,0,0,1-.678-1.7l-.916-.081a.176.176,0,0,1-.156-.17v-2.035a.17.17,0,0,1,.156-.163l.916-.088a5.6,5.6,0,0,1,.678-1.7l-.59-.712a.163.163,0,0,1,0-.224l1.431-1.431a.176.176,0,0,1,.231,0l.712.59a5.8,5.8,0,0,1,1.7-.678l.088-.916a.17.17,0,0,1,.17-.156H92.96a.17.17,0,0,1,.17.156l.088.916a5.8,5.8,0,0,1,1.7.678l.712-.59a.176.176,0,0,1,.231,0l1.431,1.431a.17.17,0,0,1,0,.224l-.59.712a5.426,5.426,0,0,1,.678,1.7l.922.088a.163.163,0,0,1,.149.163V148.5a.17.17,0,0,1-.149.17l-.922.081a5.426,5.426,0,0,1-.678,1.7l.59.678a.17.17,0,0,1,0,.224l-1.431,1.431a.176.176,0,0,1-.231,0l-.712-.59a5.425,5.425,0,0,1-1.7.678l-.088.916a.17.17,0,0,1-.17.156Zm-1.865-.339H92.8l.088-.888a.17.17,0,0,1,.129-.149,5.243,5.243,0,0,0,1.811-.753.176.176,0,0,1,.2,0l.678.57,1.214-1.214-.57-.678a.163.163,0,0,1,0-.2,5.114,5.114,0,0,0,.753-1.811.17.17,0,0,1,.149-.136l.888-.081v-1.716l-.9-.068a.17.17,0,0,1-.149-.136,5.168,5.168,0,0,0-.753-1.811.163.163,0,0,1,0-.2l.57-.678-1.2-1.248-.678.57a.176.176,0,0,1-.2,0,5.243,5.243,0,0,0-1.811-.753.17.17,0,0,1-.129-.149l-.088-.888H91.1l-.088.888a.163.163,0,0,1-.136.149,5.263,5.263,0,0,0-1.8.753.17.17,0,0,1-.2,0l-.678-.57-1.207,1.214.57.678a.163.163,0,0,1,0,.2,5.378,5.378,0,0,0-.753,1.811.163.163,0,0,1-.149.136l-.888.081v1.716l.888.081a.163.163,0,0,1,.149.136,5.242,5.242,0,0,0,.753,1.811.176.176,0,0,1,0,.2l-.57.678,1.207,1.214.678-.57a.17.17,0,0,1,.2,0,5.263,5.263,0,0,0,1.8.753.163.163,0,0,1,.136.149Zm.855-3.289a2.893,2.893,0,1,0,0-.02Zm0-5.473a1.067,1.067,0,1,0,0-.02Z" fill="#407bff"/>
        <path id="Path_10043" data-name="Path 10043" d="M86.809,162.807H85.222a.176.176,0,0,1-.17-.156l-.061-.678a4.421,4.421,0,0,1-1.3-.543l-.536.448a.176.176,0,0,1-.231,0l-1.139-1.146a.17.17,0,0,1,0-.224l.448-.543a4.293,4.293,0,0,1-.536-1.289l-.678-.068a.17.17,0,0,1-.149-.17v-1.587a.17.17,0,0,1,.149-.163l.678-.068a4.4,4.4,0,0,1,.536-1.3l-.448-.536a.176.176,0,0,1,0-.231l1.119-1.119a.176.176,0,0,1,.231,0l.536.448a4.4,4.4,0,0,1,1.3-.536l.061-.678a.176.176,0,0,1,.17-.156h1.607a.17.17,0,0,1,.17.156l.068.678a4.292,4.292,0,0,1,1.289.536l.543-.448a.17.17,0,0,1,.224,0l1.1,1.119a.17.17,0,0,1,0,.231l-.448.536a4.422,4.422,0,0,1,.543,1.3l.678.068a.17.17,0,0,1,.156.163v1.587a.17.17,0,0,1-.156.17l-.678.068a4.306,4.306,0,0,1-.543,1.289l.448.543a.163.163,0,0,1,0,.224l-1.119,1.126a.17.17,0,0,1-.224,0l-.543-.448a4.307,4.307,0,0,1-1.289.543l-.068.678A.17.17,0,0,1,86.809,162.807Zm-1.431-.339h1.275l.061-.678a.176.176,0,0,1,.136-.149,3.934,3.934,0,0,0,1.4-.583.17.17,0,0,1,.2,0l.515.427.9-.9-.427-.515a.163.163,0,0,1,0-.2,4.15,4.15,0,0,0,.583-1.411.17.17,0,0,1,.149-.129l.678-.068v-1.275l-.678-.061a.163.163,0,0,1-.149-.136,4.069,4.069,0,0,0-.583-1.4.176.176,0,0,1,0-.2l.427-.515-.9-.9-.515.427a.17.17,0,0,1-.2,0,3.934,3.934,0,0,0-1.4-.583.183.183,0,0,1-.136-.149l-.061-.678H85.378l-.061.678a.17.17,0,0,1-.136.149,3.987,3.987,0,0,0-1.4.583.176.176,0,0,1-.2,0l-.515-.427-.9.9.427.515a.176.176,0,0,1,0,.2,4.069,4.069,0,0,0-.583,1.4.183.183,0,0,1-.156.136l-.678.061v1.275l.678.068a.183.183,0,0,1,.156.129,4.015,4.015,0,0,0,.583,1.411.163.163,0,0,1,0,.2l-.427.515.9.9.515-.427a.176.176,0,0,1,.2,0,4.069,4.069,0,0,0,1.4.583.163.163,0,0,1,.136.149Zm.637-2.5a2.349,2.349,0,1,0-.02,0Zm0-4.293a2,2,0,1,1-.02,0Z" fill="#407bff"/>
        <path id="Path_10044" data-name="Path 10044" d="M82.061,152.2l.441.536,1.1-.753-.332-.6A3.642,3.642,0,0,0,84,150.267l.678.061.244-1.309-.678-.19a3.669,3.669,0,0,0-.278-1.3l.536-.441-.753-1.1-.6.332a3.642,3.642,0,0,0-1.112-.732l.061-.678-1.309-.244-.19.678a3.668,3.668,0,0,0-1.3.278l-.441-.529-1.1.746.332.6a3.642,3.642,0,0,0-.732,1.112l-.678-.061-.244,1.309.678.19a3.669,3.669,0,0,0,.278,1.3l-.529.441.746,1.1.6-.332a3.594,3.594,0,0,0,1.119.732l-.068.678,1.309.244.19-.678a3.669,3.669,0,0,0,1.3-.278Zm-3.14-3.635a1.8,1.8,0,1,1,1.438,2.1A1.8,1.8,0,0,1,78.921,148.565Z" fill="#407bff"/>
        <path id="Path_10045" data-name="Path 10045" d="M70.871,80.162a1.567,1.567,0,1,0-.454-1.607l-.637-2.238-1.356.387.122.156a2.075,2.075,0,0,1,.332.678,1.967,1.967,0,0,1-3.771,1.051,1.878,1.878,0,0,1-.061-.732v-.2l-1.5.427.509,1.79,1.119,3.94h0a.556.556,0,0,0,.081.17.312.312,0,0,1,.047.047.467.467,0,0,0,.088.075h.068l.109.034h.068a.773.773,0,0,0,.176,0l2.828-.807,2.9-.827Z" fill="none"/>
        <path id="Path_10046" data-name="Path 10046" d="M74.357,73.645a1.56,1.56,0,0,0-2.313-.9,1.533,1.533,0,0,0-.753,1.356,1.56,1.56,0,0,0,1.119,1.478l-2.238.637.387,1.356.156-.122a1.831,1.831,0,0,1,.678-.332A1.967,1.967,0,1,1,72.465,80.9a1.879,1.879,0,0,1-.733.061h-.2l.427,1.5,5.731-1.628a.529.529,0,0,0,.359-.624h0L77,76.514l-.583-2.035-2.38.678A1.56,1.56,0,0,0,74.357,73.645Z" fill="none"/>
        <path id="Path_10047" data-name="Path 10047" d="M61.8,71.943h0l1.628,5.731L65.812,77a1.564,1.564,0,1,0,1.607-.454l2.245-.638-.387-1.356-.163.122a2.116,2.116,0,0,1-.678.332,1.967,1.967,0,1,1-1.044-3.791,1.886,1.886,0,0,1,.732-.061h.2l-.427-1.506-5.731,1.628a.529.529,0,0,0-.359.671Z" fill="none"/>
        <path id="Path_10048" data-name="Path 10048" d="M78.67,79.979,75.279,68.124a1.207,1.207,0,0,0-.57-.719,1.166,1.166,0,0,0-.583-.149,1.356,1.356,0,0,0-.326.041L61.946,70.688a1.207,1.207,0,0,0-.827,1.485L64.51,84.021a1.214,1.214,0,0,0,1.153.875,1.356,1.356,0,0,0,.332-.047l11.848-3.391A1.2,1.2,0,0,0,78.67,79.979Zm-12.886,4.2a.773.773,0,0,1-.176,0h-.068l-.109-.034h-.068a.468.468,0,0,1-.088-.075.312.312,0,0,0-.047-.047.556.556,0,0,1-.081-.17h0l-1.119-3.94-.509-1.79,1.5-.427v.2a1.879,1.879,0,0,0,.061.732,1.967,1.967,0,1,0,3.785-1.072,2.075,2.075,0,0,0-.333-.678l-.122-.156,1.356-.387.637,2.238a1.56,1.56,0,1,1,.454,1.607l.678,2.38-2.9.827Zm11.163-7.711L78,80.162h0a.529.529,0,0,1-.359.624l-5.731,1.628-.427-1.5h.2a1.879,1.879,0,0,0,.732-.061,1.967,1.967,0,1,0-1.072-3.785,1.831,1.831,0,0,0-.678.333l-.156.122-.387-1.356,2.238-.638a1.56,1.56,0,0,1-1.119-1.478A1.533,1.533,0,0,1,71.99,72.7a1.56,1.56,0,0,1,1.974,2.367l2.38-.678ZM68.321,71.21h-.2a1.886,1.886,0,0,0-.732.061,1.967,1.967,0,1,0,1.078,3.784,2.116,2.116,0,0,0,.678-.332l.163-.122.387,1.356-2.245.638a1.57,1.57,0,1,1-1.607.454l-2.38.678L61.838,72h0a.529.529,0,0,1,.359-.624l5.731-1.628Z" fill="#407bff"/>
        <path id="Path_10049" data-name="Path 10049" d="M238.188,177.686a.34.34,0,1,1-.048-.678c.448-.061.882-.129,1.323-.21a.345.345,0,0,1,.122.678c-.448.088-.9.156-1.356.217Zm-10.03-1.031a.346.346,0,0,1-.115,0c-.366-.129-.739-.265-1.112-.414-.678-.285-1.356-.6-2.035-.943a.346.346,0,0,1-.149-.461.353.353,0,0,1,.461-.142,20.95,20.95,0,0,0,1.98.916c.359.142.726.278,1.085.4a.343.343,0,1,1-.109.678Zm17.742-1.424a.332.332,0,0,1-.3-.176.346.346,0,0,1,.136-.461,22.007,22.007,0,0,0,7.46-6.524.339.339,0,0,1,.475-.075.346.346,0,0,1,.075.475,22.746,22.746,0,0,1-7.718,6.728.312.312,0,0,1-.129.041Zm-22.618-.936a.38.38,0,0,1-.183-.054,22.767,22.767,0,0,1-7.121-7.352.339.339,0,1,1,.583-.346,22.034,22.034,0,0,0,6.911,7.128.339.339,0,0,1,.1.468.346.346,0,0,1-.292.156Zm31.333-7.392a.325.325,0,0,1-.176-.047.332.332,0,0,1-.115-.461,23.532,23.532,0,0,0,1.472-2.991.339.339,0,1,1,.631.251,24.113,24.113,0,0,1-1.519,3.086.353.353,0,0,1-.292.17Zm1.946-4.259h-.109a.353.353,0,0,1-.217-.434,21.475,21.475,0,0,0,.827-3.228.344.344,0,0,1,.678.115,22.6,22.6,0,0,1-.848,3.33.332.332,0,0,1-.332.224ZM213.7,160.806a.339.339,0,0,1-.332-.258c-.109-.448-.2-.9-.285-1.356a.339.339,0,0,1,.271-.393.346.346,0,0,1,.393.278c.081.434.176.875.278,1.3a.346.346,0,0,1-.244.414Zm.224-11.394h-.095a.346.346,0,0,1-.237-.42c.217-.76.482-1.512.773-2.252.136-.332.278-.678.42-.977a.332.332,0,0,1,.448-.163.339.339,0,0,1,.17.448c-.142.312-.278.624-.407.943-.285.719-.536,1.451-.746,2.184a.353.353,0,0,1-.326.244Zm42.916-.115a.332.332,0,0,1-.326-.244c-.129-.427-.264-.855-.414-1.275a.339.339,0,0,1,.637-.224c.156.427.3.868.427,1.309a.346.346,0,0,1-.231.42Zm-40.82-4.842a.334.334,0,0,1-.292-.5,22.706,22.706,0,0,1,6.965-7.508.339.339,0,0,1,.468.095.332.332,0,0,1-.088.468,22.082,22.082,0,0,0-6.782,7.277A.339.339,0,0,1,216.018,144.455Zm37.192-2.36a.346.346,0,0,1-.271-.136,21.749,21.749,0,0,0-7.623-6.361.339.339,0,0,1,.305-.6,22.381,22.381,0,0,1,7.86,6.558.346.346,0,0,1-.068.475.332.332,0,0,1-.2.041Zm-9.6-7.291a.291.291,0,0,1-.129,0,22.379,22.379,0,0,0-3.181-.99.347.347,0,1,1,.149-.678,23.282,23.282,0,0,1,3.282,1.024.339.339,0,0,1,.19.441.326.326,0,0,1-.312.176Zm-14.629-.631a.342.342,0,1,1-.095-.678c.434-.129.882-.251,1.356-.353a.348.348,0,0,1,.156.678c-.434.1-.868.217-1.3.346Z" fill="#407bff"/>
        <circle id="Ellipse_40" data-name="Ellipse 40" cx="18.045" cy="18.045" r="18.045" transform="translate(213.348 140.151) rotate(-13.339)" fill="#407bff"/>
        <circle id="Ellipse_41" data-name="Ellipse 41" cx="18.045" cy="18.045" r="18.045" transform="translate(213.348 140.151) rotate(-13.339)" fill="#fff" opacity="0.8"/>
        <path id="Path_10050" data-name="Path 10050" d="M235.38,164.57a9.495,9.495,0,1,1,.916-.047,8.281,8.281,0,0,1-.916.047Zm0-17.382a8.009,8.009,0,1,0,6.178,13.1h0a8.009,8.009,0,0,0-6.158-13.123Z" fill="#407bff"/>
        <path id="Path_10051" data-name="Path 10051" d="M235.38,161a5.751,5.751,0,0,1-3.676-1.356h0a5.807,5.807,0,1,1,4.252,1.3A5.551,5.551,0,0,1,235.38,161Zm-2.814-2.367a4.422,4.422,0,1,0-1.616-3.006,4.449,4.449,0,0,0,1.616,3.006Z" fill="#407bff"/>
        <path id="Path_10052" data-name="Path 10052" d="M235.387,157.442a2.184,2.184,0,0,1-1.417-.515,2.211,2.211,0,0,1-.807-1.512,2.26,2.26,0,1,1,2.469,2.014Zm0-3.133h-.054a.888.888,0,0,0-.475,1.567h0a.882.882,0,0,0,1.248-.122.917.917,0,0,0-.122-1.275.848.848,0,0,0-.59-.17Z" fill="#407bff"/>
        <path id="Path_10053" data-name="Path 10053" d="M235.394,155.537a.38.38,0,0,1-.217-.075l-9.434-7.772a.332.332,0,0,1-.041-.475.339.339,0,0,1,.475-.047l9.434,7.765a.339.339,0,0,1-.217.6Z" fill="#407bff"/>
        <path id="Path_10054" data-name="Path 10054" d="M225.4,149.413a.353.353,0,0,1-.339-.312.339.339,0,0,1,.305-.366l1.946-.19-.19-1.94a.341.341,0,1,1,.678-.068l.217,2.279a.339.339,0,0,1-.305.373l-2.279.217Z" fill="#407bff"/>
        <path id="Path_10055" data-name="Path 10055" d="M224.414,148.592a.339.339,0,0,1,0-.678l1.946-.19-.19-1.946a.34.34,0,1,1,.678-.061l.217,2.279a.339.339,0,0,1-.305.373l-2.279.217Z" fill="#407bff"/>
        <path id="Path_10056" data-name="Path 10056" d="M223.424,147.778a.346.346,0,0,1-.339-.305.353.353,0,0,1,.305-.373l1.946-.183-.19-1.946a.332.332,0,0,1,.305-.366.339.339,0,0,1,.373.305l.217,2.279a.332.332,0,0,1-.305.366l-2.279.224Z" fill="#407bff"/>
        <path id="Path_10057" data-name="Path 10057" d="M127.12,84.835h-.047L87.69,78.955a.332.332,0,0,1-.285-.387.339.339,0,0,1,.38-.285l39.389,5.88a.339.339,0,0,1,.285.387.346.346,0,0,1-.339.285Z" fill="#407bff"/>
        <path id="Path_10058" data-name="Path 10058" d="M100.413,139.755a.339.339,0,0,1-.231-.583L134.058,106.9a.332.332,0,0,1,.475,0,.339.339,0,0,1,0,.482l-33.91,32.268a.319.319,0,0,1-.21.1Z" fill="#407bff"/>
        <path id="Path_10059" data-name="Path 10059" d="M218.107,141.39a.305.305,0,0,1-.21-.075l-43.3-35.436a.339.339,0,1,1,.427-.522l43.3,35.436a.339.339,0,0,1-.217.6Z" fill="#407bff"/>
        <path id="Path_10060" data-name="Path 10060" d="M179.986,81.79a.342.342,0,0,1-.088-.678l36.2-9.759a.351.351,0,0,1,.183.678L180.074,81.8Z" fill="#407bff"/>
      </g>
      <g id="freepik--Podium--inject-10">
        <path id="Path_10061" data-name="Path 10061" d="M280.738,243.844H256.153V228.381h-40.6v26.558H181.464v25.724H290.233V243.844Z" fill="#407bff"/>
        <g id="Group_129" data-name="Group 129" opacity="0.3">
          <rect id="Rectangle_117" data-name="Rectangle 117" width="31.109" height="25.717" transform="translate(181.464 254.939)" fill="#fff"/>
          <rect id="Rectangle_118" data-name="Rectangle 118" width="31.109" height="52.282" transform="translate(215.55 228.381)" fill="#fff"/>
          <rect id="Rectangle_119" data-name="Rectangle 119" width="31.109" height="36.819" transform="translate(249.629 243.844)" fill="#fff"/>
        </g>
        <path id="Path_10062" data-name="Path 10062" d="M232.057,236.255v11.57h-2.15v-9.78h-2.448v-1.8Z" fill="#fff"/>
        <path id="Path_10063" data-name="Path 10063" d="M268.917,262.461v1.818h-8.532V262.84l4.6-4.368c1.126-1.072,1.322-1.75,1.322-2.394,0-1.058-.726-1.675-2.15-1.675a3.262,3.262,0,0,0-2.713,1.207l-1.506-1.153a5.351,5.351,0,0,1,4.4-1.919c2.516,0,4.13,1.275,4.13,3.323,0,1.126-.312,2.15-1.913,3.655l-3.093,2.943Z" fill="#fff"/>
        <path id="Path_10064" data-name="Path 10064" d="M201.152,270.077c0,1.946-1.472,3.635-4.578,3.635a7.237,7.237,0,0,1-4.347-1.356l.922-1.668a5.385,5.385,0,0,0,3.391,1.139c1.539,0,2.448-.678,2.448-1.75s-.76-1.723-2.516-1.723h-1.058v-1.472l2.631-3.126H192.79v-1.8h7.887V263.4l-2.814,3.337C200.067,267.032,201.152,268.341,201.152,270.077Z" fill="#fff"/>
      </g>
      <g id="freepik--Trophy--inject-10">
        <rect id="Rectangle_120" data-name="Rectangle 120" width="5.466" height="65.14" transform="translate(73.299 215.523)" fill="#407bff"/>
        <path id="Path_10065" data-name="Path 10065" d="M70.295,250.273l-4.53-7.9-9.345.312,14.222-26.009,13.883,7.589Z" fill="#407bff"/>
        <path id="Path_10066" data-name="Path 10066" d="M70.295,250.273l-4.53-7.9-9.345.312,14.222-26.009,13.883,7.589Z" fill="#fff" opacity="0.2"/>
        <path id="Path_10067" data-name="Path 10067" d="M96.195,242.779l-9.088-.509-4.836,8.009-14.052-26.1,13.93-7.5Z" fill="#407bff"/>
        <path id="Path_10068" data-name="Path 10068" d="M96.195,242.779l-9.088-.509-4.836,8.009-14.052-26.1,13.93-7.5Z" fill="#fff" opacity="0.2"/>
        <path id="Path_10069" data-name="Path 10069" d="M74.032,194.757l2.7,1.445,2.787-1.268L81.77,197l3.011-.529,1.668,2.564,3.052.231.983,2.9,2.9.983L93.6,206.2l2.564,1.675-.536,3.011,2.062,2.258-1.268,2.781,1.438,2.7L95.944,221l.719,2.977L94.208,225.8l-.041,3.059-2.828,1.16-.8,2.957-3.032.414L86,236.059l-3.045-.346-2.123,2.2-2.855-1.092-2.6,1.607-2.5-1.77-2.923.909-1.98-2.333-3.052.149-1.336-2.753-3-.61-.61-3-2.747-1.343.156-3.052-2.333-1.98.909-2.923-1.763-2.5,1.607-2.6-1.085-2.862,2.2-2.116-.346-3.045,2.665-1.506.42-3.032,2.957-.793,1.166-2.828,3.052-.034,1.838-2.455,2.97.726Z" fill="#407bff"/>
        <circle id="Ellipse_42" data-name="Ellipse 42" cx="18.481" cy="18.481" r="18.481" transform="matrix(0.943, -0.334, 0.334, 0.943, 52.468, 205.216)" fill="#fff" opacity="0.4"/>
        <path id="Path_10070" data-name="Path 10070" d="M76.568,215.068l-.231,3.316L79,218.134l-.149,2.638-2.713.258-.285,4.13-2.584.244.285-4.137-2.245.21-.292,4.137-2.584.244.292-4.137-2.55.237.149-2.638,2.584-.244.231-3.316L66.6,216l.156-2.645,2.577-.244.326-4.747,2.591-.237-.332,4.747,2.245-.21.332-4.747,2.584-.244-.332,4.747,2.713-.251-.156,2.638Zm-2.6.244-2.238.21-.217,3.31,2.238-.21Z" fill="#407bff"/>
        <path id="Path_10071" data-name="Path 10071" d="M84.6,224.339l-1.241-13.232-2.211.21-.17-1.811a3.8,3.8,0,0,0,1.709-.868,3.554,3.554,0,0,0,1.078-1.567l1.811-.17,1.614,17.2Z" fill="#407bff"/>
        <rect id="Rectangle_121" data-name="Rectangle 121" width="26.144" height="2.292" transform="translate(62.963 278.364)" fill="#407bff"/>
        <path id="Path_10072" data-name="Path 10072" d="M89.1,278.364H62.963l10.173-4.347h5.792Z" fill="#407bff"/>
        <path id="Path_10073" data-name="Path 10073" d="M89.1,278.364H62.963l10.173-4.347h5.792Z" fill="#fff" opacity="0.4"/>
        <rect id="Rectangle_122" data-name="Rectangle 122" width="26.144" height="2.292" transform="translate(62.963 278.364)" fill="#fff" opacity="0.2"/>
      </g>
      <g id="freepik--Character--inject-10">
        <g id="freepik--group--inject-10">
          <path id="Path_10074" data-name="Path 10074" d="M124.116,274.39l-6.85,6.178-5.88-.705,7.915-8.688Z" fill="#e4897b"/>
          <path id="Path_10075" data-name="Path 10075" d="M221.532,274.512l7.575,5.263,5.744-1.445-8.952-7.616Z" fill="#e4897b"/>
          <path id="Path_10076" data-name="Path 10076" d="M114.811,273.549l5.426,5.249s39.261-31.319,39.9-36.561,0-33.17,0-33.17,5.242,6.138,13.354,15.246c13.021,14.642,33.428,36.955,51.305,53.808l6.3-4.368c-45.337-56.588-59.756-86.856-59.756-86.856l-1.865-14.242-26.056-2.36s-6.267,16.412-4.571,28.6,8.138,34.866,7.46,39.437S114.811,273.549,114.811,273.549Z" fill="#263238"/>
          <path id="Path_10077" data-name="Path 10077" d="M117.707,279.5h-6.484a.475.475,0,0,0-.461.366l-1.051,4.747a.787.787,0,0,0,.61.936.729.729,0,0,0,.17,0c2.1-.034,3.635-.163,6.28-.163,1.628,0,6.538.17,8.817.17s2.536-2.218,1.621-2.428c-4.13-.9-7.236-2.143-8.559-3.33A1.282,1.282,0,0,0,117.707,279.5Z" fill="#263238"/>
          <path id="Path_10078" data-name="Path 10078" d="M233.732,276.926l-5.86,2.767a.475.475,0,0,0-.258.529l1.072,4.747a.794.794,0,0,0,.956.59l.163-.061c1.885-.922,3.221-1.7,5.609-2.821,1.478-.678,6-2.625,8.023-3.581s1.356-3.093.441-2.882c-4.123.943-7.46,1.133-9.162.624A1.268,1.268,0,0,0,233.732,276.926Z" fill="#263238"/>
          <path id="Path_10079" data-name="Path 10079" d="M159.07,196.676l1.065,12.363s5.242,6.138,13.354,15.246c-8.606-13.9-10.932-23.465-10.932-23.465,2.808-3.75,3.1-9.746,3.1-9.746Z" opacity="0.3"/>
          <path id="Path_10080" data-name="Path 10080" d="M146.022,107.616l1.879-2.2,1.356.1c.448,0,5.012-4.646,4.992-4.9a10.213,10.213,0,0,0-3.31-2.089c-.637-.054-3.73,3.391-3.73,3.391l-.1,1.356-2.882,2.326Z" fill="#e4897b"/>
          <path id="Path_10081" data-name="Path 10081" d="M165.777,110.783l-1.634-1.424s-2.455.678-2.618-.2a30.73,30.73,0,0,1,0-3.811l.536-5.175s2.089-.61,2.964.217.047,6.85.047,6.85l4,3.784Z" fill="#e4897b"/>
          <path id="Path_10082" data-name="Path 10082" d="M169.372,137.178c2.713-2.808,6.334-12.37,6.144-14.968S164.8,110.681,164.8,110.681l1.417-2.564s13.3,8.138,14.825,11.529-3.561,23.872-10.634,29.162l-3.927-5.52Z" fill="#407bff"/>
          <path id="Path_10083" data-name="Path 10083" d="M169.372,137.178c2.713-2.808,6.334-12.37,6.144-14.968S164.8,110.681,164.8,110.681l1.417-2.564s13.3,8.138,14.825,11.529-3.561,23.872-10.634,29.162l-3.927-5.52Z" fill="#fff" opacity="0.5"/>
          <path id="Path_10084" data-name="Path 10084" d="M169.2,173.739H141.81v3.255l27.738-.332Z"/>
          <rect id="Rectangle_123" data-name="Rectangle 123" width="0.977" height="5.785" transform="translate(151.59 178.06) rotate(180)" fill="#263238"/>
          <rect id="Rectangle_124" data-name="Rectangle 124" width="0.977" height="5.785" transform="translate(165.445 178.06) rotate(180)" fill="#263238"/>
          <rect id="Rectangle_125" data-name="Rectangle 125" width="5.066" height="3.649" transform="translate(161.783 176.818) rotate(180)" fill="#fff"/>
          <path id="Path_10085" data-name="Path 10085" d="M142.732,82.428a3.079,3.079,0,0,0-1.689-1.94,3.886,3.886,0,0,0-2.353-.3,3.832,3.832,0,0,0-2.1,1.105,2.577,2.577,0,0,0-.387.475,2.666,2.666,0,0,0-.3.522l-.122.271-.081.258-.149.522a5.629,5.629,0,0,0,.678,4.184,7.833,7.833,0,0,0,2.991,2.781,11.048,11.048,0,0,0,3.757,1.214,12.6,12.6,0,0,0,1.946.142,9.766,9.766,0,0,1,1.77.075,2.462,2.462,0,0,1,1.356.678,1.1,1.1,0,0,1,.258,1.234.875.875,0,0,1-1.092.359.678.678,0,0,1,0-1.241.827.827,0,0,0-.773.678,1.126,1.126,0,0,0,.373,1.085,1.3,1.3,0,0,0,1.173.251,1.634,1.634,0,0,0,.983-.678,1.94,1.94,0,0,0-.258-2.231,3.425,3.425,0,0,0-1.851-1.078,11.531,11.531,0,0,0-1.953-.2,11.162,11.162,0,0,1-1.777-.224,9.983,9.983,0,0,1-3.269-1.241,6.287,6.287,0,0,1-2.353-2.34,4.232,4.232,0,0,1-.373-3.194,2.2,2.2,0,0,1,2.713-1.567,4.09,4.09,0,0,1,2.258,2.659Z" fill="#407bff"/>
          <path id="Path_10086" data-name="Path 10086" d="M160.053,79.206a3.086,3.086,0,0,1,.868-2.414,3.893,3.893,0,0,1,2.1-1.126,3.839,3.839,0,0,1,2.36.271,3.649,3.649,0,0,1,.99.678l.217.2.17.217.326.434a5.588,5.588,0,0,1,.848,4.157,7.738,7.738,0,0,1-1.784,3.662,11,11,0,0,1-3.065,2.489,12.736,12.736,0,0,1-1.77.834,10.1,10.1,0,0,0-1.621.678,2.475,2.475,0,0,0-1.044,1.139,1.105,1.105,0,0,0,.2,1.241A.882.882,0,0,0,160,91.617a.678.678,0,0,0-.468-1.153.814.814,0,0,1,.949.332,1.119,1.119,0,0,1,.047,1.146,1.3,1.3,0,0,1-1.011.678,1.607,1.607,0,0,1-1.16-.3,1.933,1.933,0,0,1-.563-2.17,3.35,3.35,0,0,1,1.356-1.668,10.437,10.437,0,0,1,1.757-.888,11.726,11.726,0,0,0,1.573-.848,10.01,10.01,0,0,0,2.6-2.34,6.287,6.287,0,0,0,1.356-3.025,4.273,4.273,0,0,0-.807-3.12,2.191,2.191,0,0,0-3.106-.475,4.058,4.058,0,0,0-1.146,3.289Z" fill="#407bff"/>
          <g id="Group_130" data-name="Group 130" opacity="0.2">
            <path id="Path_10087" data-name="Path 10087" d="M142.732,82.428a3.079,3.079,0,0,0-1.689-1.94,3.886,3.886,0,0,0-2.353-.3,3.832,3.832,0,0,0-2.1,1.105,2.577,2.577,0,0,0-.387.475,2.666,2.666,0,0,0-.3.522l-.122.271-.081.258-.149.522a5.629,5.629,0,0,0,.678,4.184,7.833,7.833,0,0,0,2.991,2.781,11.048,11.048,0,0,0,3.757,1.214,12.6,12.6,0,0,0,1.946.142,9.766,9.766,0,0,1,1.77.075,2.462,2.462,0,0,1,1.356.678,1.1,1.1,0,0,1,.258,1.234.875.875,0,0,1-1.092.359.678.678,0,0,1,0-1.241.827.827,0,0,0-.773.678,1.126,1.126,0,0,0,.373,1.085,1.3,1.3,0,0,0,1.173.251,1.634,1.634,0,0,0,.983-.678,1.94,1.94,0,0,0-.258-2.231,3.425,3.425,0,0,0-1.851-1.078,11.531,11.531,0,0,0-1.953-.2,11.162,11.162,0,0,1-1.777-.224,9.983,9.983,0,0,1-3.269-1.241,6.287,6.287,0,0,1-2.353-2.34,4.232,4.232,0,0,1-.373-3.194,2.2,2.2,0,0,1,2.713-1.567,4.09,4.09,0,0,1,2.258,2.659Z"/>
            <path id="Path_10088" data-name="Path 10088" d="M160.053,79.206a3.086,3.086,0,0,1,.868-2.414,3.893,3.893,0,0,1,2.1-1.126,3.839,3.839,0,0,1,2.36.271,3.649,3.649,0,0,1,.99.678l.217.2.17.217.326.434a5.588,5.588,0,0,1,.848,4.157,7.738,7.738,0,0,1-1.784,3.662,11,11,0,0,1-3.065,2.489,12.736,12.736,0,0,1-1.77.834,10.1,10.1,0,0,0-1.621.678,2.475,2.475,0,0,0-1.044,1.139,1.105,1.105,0,0,0,.2,1.241A.882.882,0,0,0,160,91.617a.678.678,0,0,0-.468-1.153.814.814,0,0,1,.949.332,1.119,1.119,0,0,1,.047,1.146,1.3,1.3,0,0,1-1.011.678,1.607,1.607,0,0,1-1.16-.3,1.933,1.933,0,0,1-.563-2.17,3.35,3.35,0,0,1,1.356-1.668,10.437,10.437,0,0,1,1.757-.888,11.726,11.726,0,0,0,1.573-.848,10.01,10.01,0,0,0,2.6-2.34,6.287,6.287,0,0,0,1.356-3.025,4.273,4.273,0,0,0-.807-3.12,2.191,2.191,0,0,0-3.106-.475,4.058,4.058,0,0,0-1.146,3.289Z"/>
          </g>
          <path id="Path_10089" data-name="Path 10089" d="M150.559,92.953c-3.872-1.011-7.358-4.564-8.871-9.495L141.01,81.2l20.19-3.764.163,2.36c.359,5.127-1.614,9.7-4.869,12.038a2.876,2.876,0,0,0-1.119,2.781l.739,4.456a2.211,2.211,0,0,0,2.224,1.858,3.981,3.981,0,0,1,2.672.936l.9.78-12.492,2.326.563-1.058a4.015,4.015,0,0,1,2.157-1.831,2.211,2.211,0,0,0,1.4-2.536l-.909-4.422a2.882,2.882,0,0,0-2.075-2.17Z" fill="#407bff"/>
          <path id="Path_10090" data-name="Path 10090" d="M162.38,101.5l-13.815,2.57.312,4.585,14.859-2.767Z" fill="#263238"/>
          <path id="Path_10091" data-name="Path 10091" d="M159.226,102.082l-7.508,1.4.312,4.578,8.552-1.594Z" fill="#fff" opacity="0.2"/>
          <rect id="Rectangle_126" data-name="Rectangle 126" width="4.564" height="1.777" transform="translate(158.287 105.432) rotate(169.45)" fill="#fff"/>
          <path id="Path_10092" data-name="Path 10092" d="M155.849,91.454a3.194,3.194,0,0,0-1,3.011l.936,5.039c.183.99.543,1.309,1.662,1.512a3.893,3.893,0,0,1,1.824.732l-2.1.387a2.523,2.523,0,0,0-.712-.285l-.319-.068a1.112,1.112,0,0,1-.855-.882l-1.526-8.193a1.94,1.94,0,0,1,.461-1.641l.414-.461a10.1,10.1,0,0,0,2.557-7.04l-.163-4.747,3.032-.57-.122,5.459A11.279,11.279,0,0,1,155.849,91.454Z" fill="#fff" opacity="0.3"/>
          <path id="Path_10093" data-name="Path 10093" d="M151.332,140.081c2.184,2.306,8,1.946,8,1.946s3.662-.678,2.991-1.892c-2.089-.509-3.038-1.573-3.391-2.862a6.1,6.1,0,0,1,0-2.435,11.587,11.587,0,0,1,.278-1.356l-6.714-5.8C153.156,131.257,153.814,137.734,151.332,140.081Z" fill="#e4897b"/>
          <path id="Path_10094" data-name="Path 10094" d="M153.875,131.183a6.114,6.114,0,0,0,5.08,6.1,6.1,6.1,0,0,1,0-2.435Z" opacity="0.2"/>
          <path id="Path_10095" data-name="Path 10095" d="M162.637,119.477s1.506-3.466-3.045-5.643-15.219.231-12.7,7.962S162.637,119.477,162.637,119.477Z" fill="#263238"/>
          <path id="Path_10096" data-name="Path 10096" d="M161.763,116.778s2.828,4.924.414,8.681-7.04-8.05-7.04-8.05Z" fill="#263238"/>
          <path id="Path_10097" data-name="Path 10097" d="M153.74,133.868a7.727,7.727,0,0,0,.637.468,6.178,6.178,0,0,0,7.46-.353,6.9,6.9,0,0,0,2.489-4.422,6.376,6.376,0,0,0,.075-.732,15.363,15.363,0,0,0-.041-1.56c-.326-4.422-2.516-10.064-7.053-10.9a6.721,6.721,0,0,0-7.7,8.45C150.81,129.182,151.345,131.942,153.74,133.868Z" fill="#e4897b"/>
          <path id="Path_10098" data-name="Path 10098" d="M157.2,124.652c.054.393.353.678.61.61s.393-.414.312-.807-.353-.678-.6-.61S157.117,124.258,157.2,124.652Z" fill="#263238"/>
          <path id="Path_10099" data-name="Path 10099" d="M161.613,123.736c.054.393.359.678.61.61s.393-.414.319-.807-.359-.678-.61-.61S161.539,123.363,161.613,123.736Z" fill="#263238"/>
          <path id="Path_10100" data-name="Path 10100" d="M160.25,124.218a14.2,14.2,0,0,0,2.557,2.957,2.292,2.292,0,0,1-1.8.739Z" fill="#de5753"/>
          <path id="Path_10101" data-name="Path 10101" d="M155.53,123.506a.231.231,0,0,0,.2-.136,1.9,1.9,0,0,1,1.309-1.072.244.244,0,0,0,.2-.264.231.231,0,0,0-.264-.2h0a2.313,2.313,0,0,0-1.668,1.356.231.231,0,0,0,.1.312h0a.305.305,0,0,0,.115,0Z" fill="#263238"/>
          <path id="Path_10102" data-name="Path 10102" d="M163.194,121.817a.21.21,0,0,0,.142,0,.237.237,0,0,0,.047-.326h0a2.319,2.319,0,0,0-1.919-.949.231.231,0,0,0-.21.251h0a.237.237,0,0,0,.251.217h0a1.885,1.885,0,0,1,1.506.773A.217.217,0,0,0,163.194,121.817Z" fill="#263238"/>
          <path id="Path_10103" data-name="Path 10103" d="M151.359,127.9c-.4.231.678,3.988.678,3.988s-2.068-.515-3.791-3.391c-3.391-5.731-2.713-7.365-1.4-8.708,2.462-2.489,7.094-.136,7.094-.136a1.743,1.743,0,0,0-1.485,2.672c1.133,1.58.834,4.571-.237,6C152.193,128.3,151.956,127.548,151.359,127.9Z" fill="#263238"/>
          <path id="Path_10104" data-name="Path 10104" d="M148.355,129.189a4.666,4.666,0,0,0,3.1,1.763c1.621.2,2.184-1.316,1.526-2.713-.59-1.248-2.157-2.889-3.683-2.421a2.082,2.082,0,0,0-.943,3.371Z" fill="#e4897b"/>
          <path id="Path_10105" data-name="Path 10105" d="M150.491,118.141a7.46,7.46,0,0,0,6.694,2.564,6.778,6.778,0,0,1-2.713-.766s4.639.848,8.138-.461-1.4-5.765-3.513-5.663S149.453,114.866,150.491,118.141Z" fill="#263238"/>
          <path id="Path_10106" data-name="Path 10106" d="M161.125,129.793a11.018,11.018,0,0,0-.956,1.424l-.285-.109c-1.275-.488-1.7-1.139-1.8-1.709a1.824,1.824,0,0,1,.088-.834,1.8,1.8,0,0,1,.21-.427,6.389,6.389,0,0,0,2.306,1.478C160.955,129.731,161.125,129.793,161.125,129.793Z" fill="#263238"/>
          <path id="Path_10107" data-name="Path 10107" d="M160.691,129.616l-.292.414a4.108,4.108,0,0,1-2.224-1.465,1.8,1.8,0,0,1,.21-.427A6.388,6.388,0,0,0,160.691,129.616Z" fill="#fff"/>
          <path id="Path_10108" data-name="Path 10108" d="M159.884,131.108c-1.275-.488-1.7-1.139-1.8-1.709a4.469,4.469,0,0,1,1.289.814,1.661,1.661,0,0,1,.509.9Z" fill="#de5753"/>
          <path id="Path_10109" data-name="Path 10109" d="M169.548,174.669l-27.433-1.411c.38-13.36-.319-31.054-.922-36.019l2.286-3.337s7.46,7.318,10.926,7.352a30.172,30.172,0,0,0,14.954-4.069C171.807,149.291,170.5,165.879,169.548,174.669Z" fill="#407bff"/>
          <path id="Path_10110" data-name="Path 10110" d="M169.548,174.669l-27.433-1.411c.38-13.36-.319-31.054-.922-36.019l2.286-3.337s7.46,7.318,10.926,7.352a30.172,30.172,0,0,0,14.954-4.069C171.807,149.291,170.5,165.879,169.548,174.669Z" fill="#fff" opacity="0.6"/>
          <path id="Path_10111" data-name="Path 10111" d="M156.466,142.719l.549.475,3.038,2.618s3.262,13.164,16.012,15.334l2.211-1.818-1.784-2.211s-11.129.156-15.015-12.065l.482-3.391-1.682-.129-2.713-.2" fill="#407bff"/>
          <path id="Path_10112" data-name="Path 10112" d="M152.593,137.449l6.565,3.574.583-2.428,2.435,1.065a2.075,2.075,0,0,1,1.2,2.252l-.488,2.672-3.316-2.163-1.9,2.306-7.867-4.544Z" fill="#407bff"/>
          <path id="Path_10113" data-name="Path 10113" d="M152.593,137.449l6.565,3.574.583-2.428,2.435,1.065a2.075,2.075,0,0,1,1.2,2.252l-.488,2.672-3.316-2.163-1.9,2.306-7.867-4.544Z" fill="#fff" opacity="0.5"/>
          <path id="Path_10114" data-name="Path 10114" d="M143.492,133.9s-6.1-8.023-4.9-12.8,8.932-14.859,8.932-14.859l-1.757-2.672s-11.129,9.223-12.736,17.118,8.783,26.945,8.783,26.945S145.683,137.673,143.492,133.9Z" fill="#407bff"/>
          <path id="Path_10115" data-name="Path 10115" d="M143.492,133.9s-6.1-8.023-4.9-12.8,8.932-14.859,8.932-14.859l-1.757-2.672s-11.129,9.223-12.736,17.118,8.783,26.945,8.783,26.945S145.683,137.673,143.492,133.9Z" fill="#fff" opacity="0.5"/>
        </g>
      </g>
    </g>
  </g>
</svg>
