<svg xmlns="http://www.w3.org/2000/svg" width="338.021" height="314.046" viewBox="0 0 338.021 314.046">
  <g id="Mobile_wireframe-pana" data-name="Mobile wireframe-pana" transform="translate(-24.13 -49.667)">
    <g id="freepik--Floor--inject-35" transform="translate(24.13 344.535)">
      <path id="Path_6598" data-name="Path 6598" d="M362.151,446.635c0,.112-75.672.195-169,.195s-169.018-.082-169.018-.195,75.657-.195,169.018-.195S362.151,446.53,362.151,446.635Z" transform="translate(-24.13 -446.44)" fill="#263238"/>
    </g>
    <g id="freepik--mobile-wireframe--inject-35" transform="translate(102.196 49.666)">
      <path id="Path_6599" data-name="Path 6599" d="M300.467,52.62a6.645,6.645,0,1,1-7.31,0H280.832a6.645,6.645,0,1,1-7.3,0H261.258a6.645,6.645,0,1,1-7.3,0h-12.3a6.637,6.637,0,1,1-7.3,0H222.056a6.645,6.645,0,1,1-7.311,0H202.451a6.645,6.645,0,1,1-7.311,0H182.847a6.645,6.645,0,1,1-7.311,0H163.242a6.645,6.645,0,1,1-7.311,0H143.638a6.645,6.645,0,1,1-7.311,0H128.74V304.74H310.209V52.62Z" transform="translate(-128.53 -52.433)" fill="#fff"/>
      <path id="Path_6600" data-name="Path 6600" d="M300.4,52.557h9.765c0,27.155.06,121.406.127,252.12v.165H128.46V52.37h8.4l-.516.344a6.45,6.45,0,0,0-2.6,7.348,6.532,6.532,0,0,0,2.409,3.292,6.869,6.869,0,0,0,1.848.913,6.734,6.734,0,0,0,2.035.277,6.45,6.45,0,0,0,3.4-11.838l-.5-.337h13.469l-.5.337a6.465,6.465,0,1,0,7.109,0l-.494-.329H176l-.486.322a6.562,6.562,0,0,0-2.5,3.285,6.472,6.472,0,1,0,9.668-3.285l-.464-.314h13.4l-.456.3a6.473,6.473,0,1,0,9.615,3.09,6.57,6.57,0,0,0-2.484-3.1l-.434-.284h13.334l-.434.284a6.477,6.477,0,1,0,7.116,0l-.4-.269h13.244l-.389.254a6.511,6.511,0,0,0,4.123,11.9,6.832,6.832,0,0,0,2.005-.479A7.011,7.011,0,0,0,242.181,63a6.5,6.5,0,0,0,1.8-7.34,6.577,6.577,0,0,0-2.462-2.993l-.352-.232h13.125l-.337.232a6.51,6.51,0,0,0,.3,11.067,6.974,6.974,0,0,0,1.96.748,7.258,7.258,0,0,0,2.088.082,6.443,6.443,0,0,0,3.674-1.7,6.514,6.514,0,0,0-.846-10.229l-.292-.195h12.982l-.277.187a6.544,6.544,0,1,0,9.555,2.724,6.637,6.637,0,0,0-2.335-2.739l-.21-.135H293.31l-.18.12a6.577,6.577,0,1,0,9.989,3.741A6.51,6.51,0,0,0,301.938,54a6.369,6.369,0,0,0-1.122-1.16l-.419-.314a4.578,4.578,0,0,1,.434.3,6.653,6.653,0,1,1-7.774-.352v.12H280.762l.045-.142a6.713,6.713,0,1,1-7.43-.015l.06.18H261.187l.06-.195a6.787,6.787,0,0,1-2.933,12.391,7.483,7.483,0,0,1-2.155-.09,7.176,7.176,0,0,1-2.035-.786,6.734,6.734,0,0,1-.3-11.486l.067.224H241.583l.075-.232a6.769,6.769,0,0,1,.7,10.768,7.363,7.363,0,0,1-1.8,1.122,6.921,6.921,0,0,1-2.088.5,6.779,6.779,0,0,1-6.989-8.83A6.892,6.892,0,0,1,234.2,52.43l.082.262H221.986l.075-.262a6.963,6.963,0,1,1-10.139,3.509,6.877,6.877,0,0,1,2.7-3.509l.09.277H202.381l.082-.292a6.839,6.839,0,0,1,2.611,3.247,6.69,6.69,0,0,1,.21,4.19,6.8,6.8,0,1,1-10.3-7.445l.09.307H182.776l.09-.307a6.869,6.869,0,0,1,2.619,3.27,6.734,6.734,0,0,1,.2,4.213,6.809,6.809,0,1,1-10.319-7.483l.1.322H163.172l.1-.322A6.815,6.815,0,1,1,155.8,52.4l.1.337H143.567l.1-.337a6.824,6.824,0,0,1-3.577,12.518,7.273,7.273,0,0,1-2.155-.292,7.1,7.1,0,0,1-1.953-.965,6.832,6.832,0,0,1,.195-11.224l.1.344h-7.61l.187-.187v252.12l-.187-.187H310.138l-.165.165c.067-130.714.12-224.966.135-252.12h0Z" transform="translate(-128.46 -52.37)" fill="#263238"/>
      <path id="Path_6601" data-name="Path 6601" d="M310.209,85.94c0,.1-40.623.195-90.727.195s-90.742-.075-90.742-.195,40.6-.18,90.734-.18S310.209,85.85,310.209,85.94Z" transform="translate(-128.53 -60.775)" fill="#e0e0e0"/>
      <path id="Path_6602" data-name="Path 6602" d="M310.209,101.157c0,.1-40.623.195-90.727.195s-90.742-.09-90.742-.195,40.6-.157,90.734-.157S310.209,101.045,310.209,101.157Z" transform="translate(-128.53 -64.612)" fill="#e0e0e0"/>
      <path id="Path_6603" data-name="Path 6603" d="M310.209,116.325c0,.112-40.623.195-90.727.195s-90.742-.082-90.742-.195,40.616-.195,90.742-.195S310.209,116.22,310.209,116.325Z" transform="translate(-128.53 -68.421)" fill="#e0e0e0"/>
      <path id="Path_6604" data-name="Path 6604" d="M310.209,131.515c0,.1-40.623.195-90.727.195s-90.742-.09-90.742-.195,40.616-.195,90.742-.195S310.209,131.41,310.209,131.515Z" transform="translate(-128.53 -72.245)" fill="#e0e0e0"/>
      <path id="Path_6605" data-name="Path 6605" d="M310.209,146.7c0,.1-40.623.195-90.727.195s-90.742-.09-90.742-.195,40.616-.195,90.742-.195S310.209,146.592,310.209,146.7Z" transform="translate(-128.53 -76.068)" fill="#e0e0e0"/>
      <path id="Path_6606" data-name="Path 6606" d="M310.209,161.935c0,.112-40.623.195-90.727.195s-90.742-.082-90.742-.195,40.616-.195,90.742-.195S310.209,161.792,310.209,161.935Z" transform="translate(-128.53 -79.902)" fill="#e0e0e0"/>
      <path id="Path_6607" data-name="Path 6607" d="M310.209,177.075c0,.1-40.623.195-90.727.195s-90.742-.09-90.742-.195,40.616-.195,90.742-.195S310.209,176.97,310.209,177.075Z" transform="translate(-128.53 -83.714)" fill="#e0e0e0"/>
      <path id="Path_6608" data-name="Path 6608" d="M310.209,192.265c0,.1-40.623.195-90.727.195s-90.742-.09-90.742-.195,40.616-.195,90.742-.195S310.209,192.152,310.209,192.265Z" transform="translate(-128.53 -87.538)" fill="#e0e0e0"/>
      <path id="Path_6609" data-name="Path 6609" d="M310.209,207.445c0,.112-40.623.2-90.727.2s-90.742-.09-90.742-.2,40.616-.195,90.742-.195S310.209,207.34,310.209,207.445Z" transform="translate(-128.53 -91.359)" fill="#e0e0e0"/>
      <path id="Path_6610" data-name="Path 6610" d="M310.209,222.635c0,.112-40.623.195-90.727.195s-90.742-.082-90.742-.195,40.616-.195,90.742-.195S310.209,222.53,310.209,222.635Z" transform="translate(-128.53 -95.183)" fill="#e0e0e0"/>
      <path id="Path_6611" data-name="Path 6611" d="M310.209,237.825c0,.1-40.623.195-90.727.195s-90.742-.09-90.742-.195,40.616-.195,90.742-.195S310.209,237.712,310.209,237.825Z" transform="translate(-128.53 -99.007)" fill="#e0e0e0"/>
      <path id="Path_6612" data-name="Path 6612" d="M310.209,253.015c0,.1-40.623.195-90.727.195s-90.742-.09-90.742-.195,40.616-.195,90.742-.195S310.209,252.9,310.209,253.015Z" transform="translate(-128.53 -102.83)" fill="#e0e0e0"/>
      <path id="Path_6613" data-name="Path 6613" d="M310.209,268.195c0,.112-40.623.195-90.727.195s-90.742-.082-90.742-.195,40.6-.195,90.734-.195S310.209,268.09,310.209,268.195Z" transform="translate(-128.53 -106.652)" fill="#e0e0e0"/>
      <path id="Path_6614" data-name="Path 6614" d="M310.209,283.385c0,.1-40.623.195-90.727.195s-90.742-.09-90.742-.195,40.616-.195,90.742-.195S310.209,283.28,310.209,283.385Z" transform="translate(-128.53 -110.476)" fill="#e0e0e0"/>
      <path id="Path_6615" data-name="Path 6615" d="M310.209,298.575c0,.1-40.623.195-90.727.195s-90.742-.09-90.742-.195,40.616-.195,90.742-.195S310.209,298.462,310.209,298.575Z" transform="translate(-128.53 -114.3)" fill="#e0e0e0"/>
      <path id="Path_6616" data-name="Path 6616" d="M310.209,313.755c0,.112-40.623.195-90.727.195s-90.742-.082-90.742-.195,40.616-.195,90.742-.195S310.209,313.65,310.209,313.755Z" transform="translate(-128.53 -118.121)" fill="#e0e0e0"/>
      <path id="Path_6617" data-name="Path 6617" d="M310.209,328.935c0,.1-40.623.195-90.727.195s-90.742-.09-90.742-.195,40.616-.195,90.742-.195S310.209,328.837,310.209,328.935Z" transform="translate(-128.53 -121.942)" fill="#e0e0e0"/>
      <path id="Path_6618" data-name="Path 6618" d="M310.209,344.135c0,.1-40.623.195-90.727.195s-90.742-.09-90.742-.195,40.616-.195,90.742-.195S310.209,344.022,310.209,344.135Z" transform="translate(-128.53 -125.769)" fill="#e0e0e0"/>
      <path id="Path_6619" data-name="Path 6619" d="M310.209,359.315c0,.112-40.623.195-90.727.195s-90.742-.082-90.742-.195,40.616-.195,90.742-.195S310.209,359.21,310.209,359.315Z" transform="translate(-128.53 -129.59)" fill="#e0e0e0"/>
      <path id="Path_6620" data-name="Path 6620" d="M310.209,374.5c0,.112-40.623.195-90.727.195s-90.742-.082-90.742-.195,40.616-.195,90.742-.195S310.209,374.4,310.209,374.5Z" transform="translate(-128.53 -133.414)" fill="#e0e0e0"/>
      <path id="Path_6621" data-name="Path 6621" d="M144.335,309.49c-.1,0-.195-53.291-.195-118.974s.09-119.026.195-119.026.195,53.284.195,119.026S144.447,309.49,144.335,309.49Z" transform="translate(-132.407 -57.183)" fill="#e0e0e0"/>
      <path id="Path_6622" data-name="Path 6622" d="M159.525,304.74c-.1,0-.195-56.442-.195-126.053s.09-126.068.195-126.068.195,56.434.195,126.068S159.629,304.74,159.525,304.74Z" transform="translate(-136.231 -52.433)" fill="#e0e0e0"/>
      <path id="Path_6623" data-name="Path 6623" d="M174.715,309.49c-.112,0-.195-53.291-.195-118.974s.082-119.026.195-119.026.195,53.284.195,119.026S174.819,309.49,174.715,309.49Z" transform="translate(-140.055 -57.183)" fill="#e0e0e0"/>
      <path id="Path_6624" data-name="Path 6624" d="M189.935,309.49c-.1,0-.195-53.291-.195-118.974s.09-119.026.195-119.026.195,53.284.195,119.026S190.017,309.49,189.935,309.49Z" transform="translate(-143.886 -57.183)" fill="#e0e0e0"/>
      <path id="Path_6625" data-name="Path 6625" d="M205.085,304.74c-.1,0-.195-56.442-.195-126.053s.09-126.068.195-126.068.195,56.434.195,126.068S205.189,304.74,205.085,304.74Z" transform="translate(-147.7 -52.433)" fill="#e0e0e0"/>
      <path id="Path_6626" data-name="Path 6626" d="M220.275,309.49c-.112,0-.195-53.291-.195-118.974s.082-119.026.195-119.026.195,53.284.195,119.026S220.379,309.49,220.275,309.49Z" transform="translate(-151.524 -57.183)" fill="#e0e0e0"/>
      <path id="Path_6627" data-name="Path 6627" d="M235.455,304.74c-.1,0-.195-56.442-.195-126.053s.09-126.068.195-126.068.195,56.434.195,126.068S235.567,304.74,235.455,304.74Z" transform="translate(-155.345 -52.433)" fill="#e0e0e0"/>
      <path id="Path_6628" data-name="Path 6628" d="M250.645,309.49c-.1,0-.195-53.291-.195-118.974s.09-119.026.195-119.026.195,53.284.195,119.026S250.749,309.49,250.645,309.49Z" transform="translate(-159.169 -57.183)" fill="#e0e0e0"/>
      <path id="Path_6629" data-name="Path 6629" d="M265.835,304.74c-.112,0-.195-56.442-.195-126.053s.082-126.068.195-126.068.195,56.434.195,126.068S265.909,304.74,265.835,304.74Z" transform="translate(-162.993 -52.433)" fill="#e0e0e0"/>
      <path id="Path_6630" data-name="Path 6630" d="M281.022,309.49c-.112,0-.2-53.291-.2-118.974s.09-119.026.2-119.026.195,53.284.195,119.026S281.127,309.49,281.022,309.49Z" transform="translate(-166.814 -57.183)" fill="#e0e0e0"/>
      <path id="Path_6631" data-name="Path 6631" d="M296.2,309.49c-.1,0-.195-53.291-.195-118.974S296.1,71.49,296.2,71.49s.195,53.284.195,119.026S296.317,309.49,296.2,309.49Z" transform="translate(-170.638 -57.183)" fill="#e0e0e0"/>
      <path id="Path_6632" data-name="Path 6632" d="M311.395,304.74c-.112,0-.195-56.442-.195-126.053s.082-126.068.195-126.068.195,56.434.195,126.068S311.5,304.74,311.395,304.74Z" transform="translate(-174.462 -52.433)" fill="#e0e0e0"/>
      <path id="Path_6633" data-name="Path 6633" d="M326.585,309.49c-.112,0-.195-53.291-.195-118.974s.082-119.026.195-119.026.195,53.284.195,119.026S326.689,309.49,326.585,309.49Z" transform="translate(-178.286 -57.183)" fill="#e0e0e0"/>
      <path id="Path_6634" data-name="Path 6634" d="M341.765,304.74c-.1,0-.195-56.442-.195-126.053s.09-126.068.195-126.068.195,56.434.195,126.068S341.892,304.74,341.765,304.74Z" transform="translate(-182.107 -52.433)" fill="#e0e0e0"/>
      <path id="Path_6635" data-name="Path 6635" d="M356.935,309.49c-.1,0-.195-53.291-.195-118.974s.09-119.026.195-119.026.195,53.284.195,119.026S357.054,309.49,356.935,309.49Z" transform="translate(-185.926 -57.183)" fill="#e0e0e0"/>
      <path id="Path_6636" data-name="Path 6636" d="M273.569,93.549h.374a6.28,6.28,0,0,1,1.115.15,6.734,6.734,0,0,1,3.681,2.245,7.108,7.108,0,0,1,1.5,2.873,15.863,15.863,0,0,1,.247,3.9v9.727c0,14.666.037,35.872.06,62.106s0,57.414.045,92.036v18.16a10.936,10.936,0,0,1-.075,1.706,6.734,6.734,0,0,1-4.026,5.29,6.644,6.644,0,0,1-1.691.449c-.591.052-1.16.037-1.729.037H196l-.95-.045c-.314-.067-.644-.082-.95-.18a7.161,7.161,0,0,1-3.307-1.863,7.662,7.662,0,0,1-1.983-3.24,11.448,11.448,0,0,1-.374-3.741V101.107a10.094,10.094,0,0,1,.224-2.634,6.794,6.794,0,0,1,1.115-2.379,6.405,6.405,0,0,1,4.317-2.619,23.719,23.719,0,0,1,2.514-.067h15.534a4.774,4.774,0,0,1,1.167.082,3.053,3.053,0,0,1,1.863,1.347A3.614,3.614,0,0,1,215.6,95.9c.1.359.2.748.3,1.07.195.748.389,1.422.584,2.118a4,4,0,0,0,.883,1.893,3.1,3.1,0,0,0,1.751,1,5.192,5.192,0,0,0,1.033.052h28.464a5.044,5.044,0,0,0,1.5-.112,3.24,3.24,0,0,0,2.088-1.871c.314-.89.524-1.826.786-2.7.12-.441.247-.875.367-1.3a3.852,3.852,0,0,1,.494-1.235,2.993,2.993,0,0,1,2.1-1.339c1.639-.052,3.15,0,4.564,0H255.97a2.843,2.843,0,0,0-2.005,1.287,3.809,3.809,0,0,0-.471,1.2c-.12.427-.239.868-.367,1.309-.254.883-.456,1.788-.748,2.716a3.4,3.4,0,0,1-2.192,1.975,5.455,5.455,0,0,1-1.556.127H220.151a6.615,6.615,0,0,1-1.077-.052,3.39,3.39,0,0,1-1.886-1.07,3.644,3.644,0,0,1-.606-.935,7.424,7.424,0,0,1-.329-1.055c-.195-.7-.4-1.407-.591-2.118a8.41,8.41,0,0,0-.748-2.065,2.791,2.791,0,0,0-1.706-1.235,4.49,4.49,0,0,0-1.107-.075H196.61a24.688,24.688,0,0,0-2.477.06A6.143,6.143,0,0,0,190,96.049a6.607,6.607,0,0,0-1.063,2.245,9.728,9.728,0,0,0-.2,2.567V282.928a11.1,11.1,0,0,0,.352,3.637,7.393,7.393,0,0,0,1.931,3.33,6.786,6.786,0,0,0,3.135,1.758,7.482,7.482,0,0,0,.89.172c.307,0,.6.037.913.037H273.03c.569,0,1.145,0,1.684-.045a6.173,6.173,0,0,0,1.594-.412,6.413,6.413,0,0,0,3.8-5.006,10.048,10.048,0,0,0,.075-1.654v-18.16c0-34.652,0-65.847.037-92.036s.052-47.41.067-62.106v-9.727a15.661,15.661,0,0,0-.224-3.876A6.981,6.981,0,0,0,278.627,96a6.734,6.734,0,0,0-3.637-2.245,6.39,6.39,0,0,0-1.1-.165Z" transform="translate(-143.551 -62.698)" fill="#263238"/>
      <rect id="Rectangle_2550" data-name="Rectangle 2550" width="73.562" height="60.056" transform="translate(54.81 77.475)" fill="#fafafa"/>
      <path id="Path_6637" data-name="Path 6637" d="M275.194,215.862v-4.325c0-2.813,0-6.929-.037-12.174,0-10.476-.052-25.478-.09-43.556l.165.165H201.677l.195-.195v60.056l-.172-.172,53.127.09,15.048.045h.022l-15.01.045-53.254.09h-.172V155.5h73.921v.157c-.037,18.123-.067,33.156-.082,43.661,0,5.238-.037,9.331-.045,12.137v3.18A11.449,11.449,0,0,1,275.194,215.862Z" transform="translate(-146.837 -78.332)" fill="#263238"/>
      <rect id="Rectangle_2551" data-name="Rectangle 2551" width="65.398" height="52.461" transform="translate(58.888 81.209)" fill="#407bff"/>
      <path id="Path_6638" data-name="Path 6638" d="M270.652,210.539s-.06,0-.15-.142l-.389-.441c-.359-.419-.853-1-1.5-1.736-1.294-1.534-3.12-3.741-5.38-6.413s-4.946-5.986-7.932-9.555a5.148,5.148,0,0,0-1.2-1.212,3.113,3.113,0,0,0-1.609-.524,3.24,3.24,0,0,0-1.684.382,7.049,7.049,0,0,0-1.392,1.19l-5.664,5.47-4.026,3.876-.12.112-.127-.09-5.619-3.966-1.339-.95a5.812,5.812,0,0,0-1.332-.808,3.218,3.218,0,0,0-2.821.269,5.434,5.434,0,0,0-1.07.965l-1,1.055-1.893,2.005-3.382,3.577-4.856,5.133-1.332,1.347-.352.352c-.075.075-.12.112-.127.1l.1-.135.322-.367,1.28-1.414,4.789-5.193,3.352-3.614c.6-.644,1.227-1.324,1.878-2.013l.98-1.063a5.576,5.576,0,0,1,1.137-1.025,3.562,3.562,0,0,1,3.128-.322,4.145,4.145,0,0,1,.748.382l.658.464,1.347.943,5.634,3.951h-.247l4.018-3.876,5.672-5.462a7.317,7.317,0,0,1,1.5-1.25,3.592,3.592,0,0,1,1.878-.426,3.517,3.517,0,0,1,1.8.591A5.664,5.664,0,0,1,255.612,192l7.864,9.623,5.275,6.5c.606.748,1.077,1.347,1.422,1.773.15.195.269.344.359.471S270.652,210.539,270.652,210.539Z" transform="translate(-150.084 -87.045)" fill="#fff"/>
      <path id="Path_6639" data-name="Path 6639" d="M248.929,178.086a8.827,8.827,0,0,0-.217-1.07,4.49,4.49,0,0,0-1.624-2.365,4.288,4.288,0,1,0,0,6.869,4.423,4.423,0,0,0,1.624-2.365c.187-.673.172-1.07.217-1.07s0,.1,0,.284a3.5,3.5,0,0,1-.09.823,4.43,4.43,0,0,1-1.609,2.544,4.619,4.619,0,1,1,0-7.3,4.489,4.489,0,0,1,1.609,2.544,3.5,3.5,0,0,1,.09.823Z" transform="translate(-156.488 -82.854)" fill="#fff"/>
      <path id="Path_6640" data-name="Path 6640" d="M211.51,144.082l.195,1.018,3.4,17.831,1.661-2.08,2.791.943,1.833-1.467,2.619,1.04-3.375-19.507-2.312,2.828-2.282-1.16-1.953,2.065Z" transform="translate(-149.367 -74.898)" fill="#e0e0e0"/>
      <rect id="Rectangle_2552" data-name="Rectangle 2552" width="62.285" height="3.734" transform="translate(45.315 172.333)" fill="#e0e0e0"/>
      <rect id="Rectangle_2553" data-name="Rectangle 2553" width="78.695" height="23.436" transform="translate(31.921 148.89)" fill="#fafafa"/>
      <path id="Path_6641" data-name="Path 6641" d="M249.757,274.7v-6.218c0-4.011-.037-9.855-.067-17.21l.12.127-78.687.067h0l.195-.195v23.443l-.195-.195,56.217.09,16.462.052h.09l-16.462.052-56.352.09h-.187V250.98h.2l78.687.075h.127v.12c0,7.4-.052,13.267-.067,17.3v5.754A1.323,1.323,0,0,1,249.757,274.7Z" transform="translate(-139.141 -102.367)" fill="#263238"/>
      <path id="Path_6642" data-name="Path 6642" d="M244.841,260.995c0,.112-14.367.2-32.086.2s-32.086-.09-32.086-.2,14.359-.195,32.086-.195S244.841,260.89,244.841,260.995Z" transform="translate(-141.603 -104.839)" fill="#263238"/>
      <path id="Path_6643" data-name="Path 6643" d="M244.841,266.355c0,.112-14.367.2-32.086.2s-32.086-.09-32.086-.2,14.359-.195,32.086-.195S244.841,266.25,244.841,266.355Z" transform="translate(-141.603 -106.189)" fill="#263238"/>
      <path id="Path_6644" data-name="Path 6644" d="M244.841,271.715c0,.112-14.367.195-32.086.195s-32.086-.082-32.086-.195,14.359-.195,32.086-.195S244.841,271.61,244.841,271.715Z" transform="translate(-141.603 -107.538)" fill="#263238"/>
      <rect id="Rectangle_2554" data-name="Rectangle 2554" width="25.546" height="25.546" transform="translate(54.81 178.88)" fill="#fafafa"/>
      <path id="Path_6645" data-name="Path 6645" d="M227.231,316.865a.4.4,0,0,1,0-.127c0-.1,0-.217,0-.367v-1.377c0-1.227,0-2.993-.045-5.238,0-4.49-.052-10.835-.09-18.46l.172.165H201.722l.195-.195h0v25.538l-.172-.172,18.467.09,5.238.037h.067l-5.171.045-18.572.082h-.165v-25.7h0l.195-.195h25.718v.172c0,7.662-.06,14.06-.082,18.572,0,2.207-.037,3.951-.045,5.171V316.6A.636.636,0,0,1,227.231,316.865Z" transform="translate(-146.874 -112.439)" fill="#263238"/>
      <circle id="Ellipse_56" data-name="Ellipse 56" cx="9.293" cy="9.293" r="9.293" transform="translate(54.444 191.654) rotate(-45)" fill="#407bff"/>
      <path id="Path_6646" data-name="Path 6646" d="M215.238,307.149a4.588,4.588,0,0,1,.075.92v1.758a1.01,1.01,0,0,0,.172.644c.673,1,1.878-.239,3.068-.831l1.9-1.115,1.01-.584a.883.883,0,0,0,.509-.793.868.868,0,0,0-.509-.793l-1.01-.591-1.9-1.107c-1.19-.6-2.394-1.833-3.068-.838a1.018,1.018,0,0,0-.172.643v1.758a4.628,4.628,0,0,1-.075.928,4.019,4.019,0,0,1-.075-.928c0-.322,0-.681-.037-1.077v-.681a1.249,1.249,0,0,1,.195-.8,1.2,1.2,0,0,1,.748-.509,1.287,1.287,0,0,1,.965.21l1.743.98,1.916,1.092,1.01.584a1.257,1.257,0,0,1,0,2.245l-1.01.576-1.923,1.107-1.743.988a1.287,1.287,0,0,1-.965.209,1.212,1.212,0,0,1-.748-.516,1.242,1.242,0,0,1-.195-.8v-.673a9.879,9.879,0,0,1,.037-1.085A3.981,3.981,0,0,1,215.238,307.149Z" transform="translate(-150.273 -115.496)" fill="#fff"/>
      <rect id="Rectangle_2555" data-name="Rectangle 2555" width="25.546" height="25.546" transform="translate(97.446 178.88)" fill="#fafafa"/>
      <path id="Path_6647" data-name="Path 6647" d="M284.226,316.865a.589.589,0,0,1,0-.127c0-.1,0-.217,0-.367v-6.615c0-4.49-.052-10.835-.09-18.46l.172.165H258.762l.195-.195h0v25.538l-.165-.172,18.467.09,5.238.037h.067l-5.171.045-18.572.082h-.172v-25.7h0l.195-.195h25.71v.172c-.037,7.662-.067,14.06-.082,18.572,0,2.207-.037,3.951-.045,5.171V316.6C284.428,316.685,284.226,316.865,284.226,316.865Z" transform="translate(-161.234 -112.439)" fill="#263238"/>
      <circle id="Ellipse_57" data-name="Ellipse 57" cx="9.293" cy="9.293" r="9.293" transform="translate(99.542 199.312) rotate(-80.75)" fill="#455a64"/>
      <path id="Path_6648" data-name="Path 6648" d="M272.218,307.149a4.189,4.189,0,0,1,.082.92v1.758a1.01,1.01,0,0,0,.172.644c.673,1,1.878-.239,3.06-.831l1.908-1.115,1.01-.584a.9.9,0,0,0,.509-.793.868.868,0,0,0-.509-.793l-1.01-.591-1.908-1.107c-1.182-.6-2.387-1.833-3.06-.838a1.018,1.018,0,0,0-.172.644v1.758a4.218,4.218,0,0,1-.082.928,4.629,4.629,0,0,1-.075-.928v-1.758a1.25,1.25,0,0,1,.195-.8,1.16,1.16,0,0,1,.748-.509,1.287,1.287,0,0,1,.965.21l1.736.98,1.916,1.092,1.018.584a1.257,1.257,0,0,1,0,2.245l-1.01.576-1.938,1.107-1.736.988a1.287,1.287,0,0,1-.965.209,1.19,1.19,0,0,1-.748-.516,1.242,1.242,0,0,1-.195-.8q0-.348,0-.673v-1.085A4.586,4.586,0,0,1,272.218,307.149Z" transform="translate(-164.625 -115.496)" fill="#fff"/>
      <rect id="Rectangle_2556" data-name="Rectangle 2556" width="32.467" height="12.062" transform="translate(50.874 207.127)" fill="#fafafa"/>
      <path id="Path_6649" data-name="Path 6649" d="M228.842,341.144v-.853c0-.569,0-1.377-.037-2.394,0-2.1-.037-5.1-.067-8.815l.127.135-32.46.06c-.172.172.232-.24.195-.195h0v12.055l-.187-.187,23.2.09,6.787.052h.037l-6.734.052-23.331.082h-.187V328.984h0l.195-.195,32.46.06h.135v.135c0,3.741-.052,6.779-.067,8.889v2.978A.625.625,0,0,1,228.842,341.144Z" transform="translate(-145.508 -121.955)" fill="#263238"/>
      <path id="Path_6650" data-name="Path 6650" d="M226.877,337.174c0,.112-5.156.195-11.508.195s-11.508-.082-11.508-.195,5.156-.195,11.508-.195S226.877,337.07,226.877,337.174Z" transform="translate(-147.441 -124.017)" fill="#263238"/>
      <rect id="Rectangle_2557" data-name="Rectangle 2557" width="32.467" height="12.062" transform="translate(93.66 207.77)" fill="#fafafa"/>
      <path id="Path_6651" data-name="Path 6651" d="M286.013,341.99a1.49,1.49,0,0,1,0-.224v-3.03c0-2.1-.045-5.088-.075-8.807l.135.135-32.46.06c-.18.172.232-.239.187-.195h0v12.055l-.187-.187,23.2.09,6.779.052h.03l-6.734.052-23.338.09h-.187V329.838h0c-.045,0,.374-.374.2-.195l32.46.06h.135v.195c0,3.741-.06,6.779-.075,8.889v2.978A.3.3,0,0,1,286.013,341.99Z" transform="translate(-159.901 -122.157)" fill="#263238"/>
      <path id="Path_6652" data-name="Path 6652" d="M284.059,338.035c0,.1-5.148.195-11.5.195s-11.508-.09-11.508-.195,5.148-.195,11.508-.195S284.059,337.96,284.059,338.035Z" transform="translate(-161.838 -124.233)" fill="#263238"/>
      <path id="Path_6653" data-name="Path 6653" d="M216.217,250.431a5.6,5.6,0,1,0,1.425-4.05A5.612,5.612,0,0,0,216.217,250.431Z" transform="translate(-150.55 -100.741)" fill="#407bff"/>
      <path id="Path_6654" data-name="Path 6654" d="M211.908,248.455a3.367,3.367,0,1,0,3.18-3.547A3.367,3.367,0,0,0,211.908,248.455Z" transform="translate(-149.466 -100.838)" fill="#407bff"/>
      <path id="Path_6655" data-name="Path 6655" d="M216.1,251.806a10.663,10.663,0,0,0,1.257-.172,3.263,3.263,0,0,0,2.11-1.931,3.457,3.457,0,0,0-.352-2.866,10.406,10.406,0,0,0-.808-.988,2.213,2.213,0,0,1,1.04.838,3.5,3.5,0,0,1,.486,3.15,3.315,3.315,0,0,1-2.409,2.08A1.826,1.826,0,0,1,216.1,251.806Z" transform="translate(-150.522 -101.076)" fill="#263238"/>
      <path id="Path_6656" data-name="Path 6656" d="M219.869,246.366a3.928,3.928,0,0,0,3.7-.846c.045,0-.045.254-.322.539a2.656,2.656,0,0,1-1.332.748,2.769,2.769,0,0,1-1.5-.082C220.026,246.575,219.847,246.41,219.869,246.366Z" transform="translate(-151.471 -100.993)" fill="#263238"/>
      <path id="Path_6657" data-name="Path 6657" d="M219.887,256.931a6.076,6.076,0,0,0-1.2-2.043,5.844,5.844,0,0,0-2.11-1.07c0-.052.292-.112.748,0a3.2,3.2,0,0,1,2.559,2.365C220,256.669,219.955,256.931,219.887,256.931Z" transform="translate(-150.643 -103.066)" fill="#263238"/>
      <rect id="Rectangle_2558" data-name="Rectangle 2558" width="53.336" height="2.664" transform="translate(83.514 64.298)" fill="#e0e0e0"/>
      <rect id="Rectangle_2559" data-name="Rectangle 2559" width="82.81" height="14.337" transform="translate(76.877 49.962)" fill="#fafafa"/>
      <path id="Path_6658" data-name="Path 6658" d="M313.963,133.411v-3.779c0-2.439,0-5.986-.06-10.588l.1.1-82.8.09h0l.195-.195v14.367l-.195-.195,58.933.09,17.487.052h.1l-17.45.052-59.068.09h-.195V118.88h.2l82.8.1h.045v.1c0,4.6-.037,8.231-.052,10.648v3.457A.449.449,0,0,1,313.963,133.411Z" transform="translate(-154.275 -69.113)" fill="#263238"/>
      <path id="Path_6659" data-name="Path 6659" d="M322.791,130.642a3.921,3.921,0,1,1,3.667-2.454h0a3.831,3.831,0,0,1-1.2,1.594,3.936,3.936,0,0,1-2.469.861Zm0-7.647a3.73,3.73,0,1,0,3.45,5.141h0a3.741,3.741,0,0,0-2.043-4.864,3.681,3.681,0,0,0-1.4-.277ZM326.33,128.173Z" transform="translate(-176.401 -70.1)" fill="#263238"/>
      <path id="Path_6660" data-name="Path 6660" d="M331.6,131.409h-.037l-2.716-1.25a.1.1,0,0,1,.1-.165l2.716,1.257a.09.09,0,0,1,.045.12A.1.1,0,0,1,331.6,131.409Z" transform="translate(-178.893 -71.907)" fill="#263238"/>
      <g id="Group_5198" data-name="Group 5198" transform="translate(58.29 137.531)" opacity="0.3">
        <rect id="Rectangle_2560" data-name="Rectangle 2560" width="67.172" height="1.833"/>
      </g>
      <path id="Path_6661" data-name="Path 6661" d="M267.94,221.97l.195,1.01,3.4,17.839,1.661-2.08,2.791.935,1.833-1.459,2.611,1.04-3.367-19.515-2.312,2.828-2.282-1.16-1.96,2.073Z" transform="translate(-163.572 -94.503)" fill="#e0e0e0"/>
    </g>
    <g id="freepik--text-boxes--inject-35" transform="translate(137.679 309.845)">
      <rect id="Rectangle_2561" data-name="Rectangle 2561" width="76.966" height="34.465" transform="translate(0.135 0.284)" fill="#fafafa"/>
      <path id="Path_6662" data-name="Path 6662" d="M252.981,434.829v-9.293c0-5.986-.045-14.554-.075-25.172l.135.142-76.959.052h0l.195-.195v34.465l-.187-.187,55.214.09,15.983.052h.082l-15.938.052-55.372.09h-.18V400.08h.2l76.959.052h.142v.142c0,10.655-.06,19.283-.075,25.261,0,2.956,0,5.238-.037,6.839v1.773A2.358,2.358,0,0,1,252.981,434.829Z" transform="translate(-175.88 -400.08)" fill="#263238"/>
      <path id="Path_6663" data-name="Path 6663" d="M248.157,409.935c0,.1-14.045.195-31.375.195s-31.382-.09-31.382-.195,14.045-.195,31.382-.195S248.157,409.792,248.157,409.935Z" transform="translate(-178.277 -402.512)" fill="#263238"/>
      <path id="Path_6664" data-name="Path 6664" d="M248.157,415.135c0,.1-14.045.195-31.375.195s-31.382-.09-31.382-.195,14.045-.195,31.382-.195S248.157,415.022,248.157,415.135Z" transform="translate(-178.277 -403.821)" fill="#263238"/>
      <path id="Path_6665" data-name="Path 6665" d="M248.157,420.375c0,.1-14.045.195-31.375.195s-31.382-.09-31.382-.195,14.045-.195,31.382-.195S248.157,420.27,248.157,420.375Z" transform="translate(-178.277 -405.14)" fill="#263238"/>
      <path id="Path_6666" data-name="Path 6666" d="M248.157,426.055c0,.1-14.045.195-31.375.195s-31.382-.09-31.382-.195,14.045-.195,31.382-.195S248.157,425.965,248.157,426.055Z" transform="translate(-178.277 -406.57)" fill="#263238"/>
      <path id="Path_6667" data-name="Path 6667" d="M248.157,431.725c0,.112-14.045.195-31.375.195s-31.382-.082-31.382-.195,14.045-.195,31.382-.195S248.157,431.62,248.157,431.725Z" transform="translate(-178.277 -407.997)" fill="#263238"/>
      <path id="Path_6668" data-name="Path 6668" d="M248.157,437.4c0,.1-14.045.195-31.375.195s-31.382-.09-31.382-.195,14.045-.195,31.382-.195S248.157,437.3,248.157,437.4Z" transform="translate(-178.277 -409.427)" fill="#263238"/>
      <rect id="Rectangle_2562" data-name="Rectangle 2562" width="30.148" height="30.148" transform="translate(37.391 4.968)" fill="#fafafa"/>
      <path id="Path_6669" data-name="Path 6669" d="M255.962,436.8v-2.2c0-1.437,0-3.509-.045-6.143,0-5.283-.052-12.8-.09-21.8l.172.172H225.852c-.045.045.367-.367.195-.187h0v30.133l-.172-.165,21.8.082,6.143.037h.067l-6.106.045-21.909.09h-.165V406.672h0l.2-.2h30.312v.165c0,9.054-.06,16.6-.082,21.909,0,2.619,0,4.677-.037,6.106v2.005C255.97,436.8,255.97,436.8,255.962,436.8Z" transform="translate(-188.424 -401.689)" fill="#263238"/>
      <circle id="Ellipse_58" data-name="Ellipse 58" cx="10.97" cy="10.97" r="10.97" transform="translate(36.952 20.037) rotate(-45)" fill="#407bff"/>
      <path id="Path_6670" data-name="Path 6670" d="M241.833,425.261a5.552,5.552,0,0,1,.075,1.092v2.08a1.22,1.22,0,0,0,.2.748,1.137,1.137,0,0,0,1.624.224l2.028-1.2,2.245-1.309,1.2-.7a1.077,1.077,0,0,0,.621-.965,1.1,1.1,0,0,0-.621-.965l-1.2-.688-2.245-1.317-2.035-1.19a1.122,1.122,0,0,0-1.616.224,1.167,1.167,0,0,0-.2.748v2.08a5.508,5.508,0,0,1-.075,1.085,5.508,5.508,0,0,1-.075-1.085q0-.561,0-1.28v-.8a1.5,1.5,0,0,1,.232-.928,1.347,1.347,0,0,1,.883-.591,1.5,1.5,0,0,1,1.122.239l2.05,1.167,2.245,1.287,1.2.688a1.444,1.444,0,0,1,0,2.6l-1.2.688-2.245,1.294L244,429.66a1.5,1.5,0,0,1-1.115.247,1.377,1.377,0,0,1-.89-.591,1.452,1.452,0,0,1-.225-.928c0-.284,0-.546,0-.8v-1.28a5.553,5.553,0,0,1,.067-1.048Z" transform="translate(-192.463 -405.222)" fill="#fff"/>
    </g>
    <g id="freepik--Pictures--inject-35" transform="translate(233.127 295.568)">
      <rect id="Rectangle_2563" data-name="Rectangle 2563" width="59.674" height="48.712" transform="translate(29.565 0.187)" fill="#fafafa"/>
      <path id="Path_6671" data-name="Path 6671" d="M402.594,429.9V416.505c0-8.508-.052-20.667-.09-35.318l.165.157L343,381.382h0l.2-.195V429.9l-.18-.172,43.1.082,12.2.052h.052l-12.167.052L343,430h-.172V381h59.958v.165c-.037,14.7-.067,26.893-.09,35.423,0,4.235,0,7.557-.037,9.84v2.582C402.609,429.637,402.594,429.9,402.594,429.9Z" transform="translate(-313.355 -381)" fill="#263238"/>
      <rect id="Rectangle_2564" data-name="Rectangle 2564" width="53.052" height="42.554" transform="translate(32.879 3.21)" fill="#407bff"/>
      <path id="Path_6672" data-name="Path 6672" d="M398.887,425.538a3.142,3.142,0,0,1-.441-.471c-.3-.344-.7-.808-1.2-1.4l-4.37-5.2-6.443-7.745a4.413,4.413,0,0,0-.965-.973,2.462,2.462,0,0,0-1.295-.419,2.581,2.581,0,0,0-1.347.307,5.463,5.463,0,0,0-1.115.958l-4.6,4.437-3.262,3.143-.112.112-.135-.09-4.557-3.218-1.085-.748a4.415,4.415,0,0,0-1.07-.651,2.567,2.567,0,0,0-2.245.217,4.183,4.183,0,0,0-.861.748l-.8.853-1.541,1.624-2.746,2.9-3.966,4.145-1.077,1.1a2.149,2.149,0,0,1-.4.367,3.582,3.582,0,0,1,.344-.412c.254-.292.6-.673,1.033-1.152l3.876-4.22,2.716-2.933,1.5-1.639.8-.861a4.333,4.333,0,0,1,.92-.846,2.941,2.941,0,0,1,2.567-.262,2.642,2.642,0,0,1,.614.314l.539.374,1.092.748,4.572,3.21h-.247l3.262-3.143,4.594-4.43a6.2,6.2,0,0,1,1.212-1.018,2.933,2.933,0,0,1,2.993.135,4.49,4.49,0,0,1,1.1,1.077l6.375,7.8,4.28,5.275L398.535,425a5.445,5.445,0,0,1,.352.539Z" transform="translate(-315.978 -388.028)" fill="#fff"/>
      <path id="Path_6673" data-name="Path 6673" d="M381.222,399.219a6.3,6.3,0,0,0-.187-.861,3.606,3.606,0,0,0-1.324-1.9,3.442,3.442,0,1,0,0,5.522,3.592,3.592,0,0,0,1.324-1.893c.157-.546.15-.868.187-.868s0,.082,0,.232a2.793,2.793,0,0,1-.067.673,3.621,3.621,0,0,1-1.309,2.08,3.776,3.776,0,1,1,0-5.964,3.577,3.577,0,0,1,1.309,2.08,2.741,2.741,0,0,1,.067.666C381.244,399.144,381.237,399.219,381.222,399.219Z" transform="translate(-321.143 -384.636)" fill="#fff"/>
      <rect id="Rectangle_2565" data-name="Rectangle 2565" width="36.283" height="29.624" transform="translate(0.15 19.881)" fill="#fafafa"/>
      <path id="Path_6674" data-name="Path 6674" d="M339.873,437.13v-2.148c0-1.407,0-3.435-.037-5.986,0-5.178-.052-12.563-.09-21.46l.165.165H303.627c-.045.045.367-.367.195-.187h0v29.609l-.172-.172,26.189.09,7.43.045h.075l-7.393.045-26.294.082h-.172V407.521h0c-.18.172.232-.247.195-.2h36.448v.165c-.037,8.942-.067,16.357-.082,21.565,0,2.559-.037,4.579-.045,5.986v1.556A.954.954,0,0,1,339.873,437.13Z" transform="translate(-303.439 -387.625)" fill="#263238"/>
      <rect id="Rectangle_2566" data-name="Rectangle 2566" width="32.258" height="25.875" transform="translate(2.163 21.722)" fill="#455a64"/>
      <path id="Path_6675" data-name="Path 6675" d="M337.656,434.483a1.85,1.85,0,0,1-.277-.277l-.748-.846-2.679-3.143-3.928-4.7a2.513,2.513,0,0,0-.576-.584,1.444,1.444,0,0,0-1.5-.06,3.739,3.739,0,0,0-.666.569l-2.791,2.7-2.028,1.916-.112.112-.127-.1-2.769-1.953-.666-.471a2.557,2.557,0,0,0-.636-.389,1.5,1.5,0,0,0-1.309.12,8.236,8.236,0,0,0-1,.98l-.943.988-1.676,1.751-2.424,2.507-.666.658c-.157.15-.239.224-.254.217a1.242,1.242,0,0,1,.2-.262l.614-.711c.591-.643,1.377-1.5,2.342-2.582l1.646-1.788.92-1,.486-.524a3.235,3.235,0,0,1,.569-.524,1.871,1.871,0,0,1,1.624-.165,1.89,1.89,0,0,1,.389.195l.329.232.658.464,2.784,1.945H322.2l1.975-1.916,2.8-2.694a3.743,3.743,0,0,1,.748-.629,1.945,1.945,0,0,1,.98-.224,1.923,1.923,0,0,1,.928.307,2.842,2.842,0,0,1,.651.658c1.444,1.781,2.754,3.39,3.868,4.751l2.574,3.225.688.89C337.581,434.364,337.656,434.476,337.656,434.483Z" transform="translate(-305.061 -391.9)" fill="#fff"/>
      <path id="Path_6676" data-name="Path 6676" d="M326.884,418.48a4.564,4.564,0,0,0-.142-.524,2.185,2.185,0,0,0-.808-1.115,2.065,2.065,0,0,0-1.93-.262,2.028,2.028,0,1,0,1.93,3.532,2.185,2.185,0,0,0,.808-1.115,4.865,4.865,0,0,1,.142-.516,1.178,1.178,0,0,1,0,.554,2.245,2.245,0,0,1-.786,1.3,2.35,2.35,0,0,1-3.809-1.856,2.387,2.387,0,0,1,1.579-2.245,2.357,2.357,0,0,1,2.245.374,2.245,2.245,0,0,1,.786,1.3A1.021,1.021,0,0,1,326.884,418.48Z" transform="translate(-308.185 -389.836)" fill="#fff"/>
      <rect id="Rectangle_2567" data-name="Rectangle 2567" width="58.604" height="29.624" transform="translate(63.409 19.537)" fill="#fafafa"/>
      <path id="Path_6677" data-name="Path 6677" d="M446.714,436.638v-8.006c0-5.126-.045-12.511-.075-21.617l.142.15-58.6.045h0l.195-.195v29.624l-.187-.18,42.075.09,12.144.045h-.03l-12.1.052-42.2.09h-.18V406.73h.2l58.6.052h.15v.142c-.037,9.144-.06,16.559-.082,21.7v7.385A3.993,3.993,0,0,1,446.714,436.638Z" transform="translate(-324.701 -387.477)" fill="#263238"/>
      <rect id="Rectangle_2568" data-name="Rectangle 2568" width="53.733" height="25.875" transform="translate(65.421 21.378)" fill="#407bff"/>
      <path id="Path_6678" data-name="Path 6678" d="M436.537,434.855a1.843,1.843,0,0,1-.277-.277l-.748-.846-2.679-3.143-3.928-4.7a2.472,2.472,0,0,0-.576-.576,1.423,1.423,0,0,0-1.5-.067,3.741,3.741,0,0,0-.666.569l-2.791,2.7-1.99,1.916-.112.112-.127-.1-2.769-1.953-.666-.471a2.562,2.562,0,0,0-.636-.389,1.5,1.5,0,0,0-1.317.12,8.812,8.812,0,0,0-1,.98l-.935.988-1.676,1.758c-1,1.025-1.818,1.871-2.424,2.5l-.673.666a.165.165,0,1,1-.045-.052l.614-.711c.591-.644,1.377-1.5,2.342-2.582l1.646-1.788.92-1,.486-.524a2.757,2.757,0,0,1,.569-.524,1.871,1.871,0,0,1,1.624-.172,1.922,1.922,0,0,1,.389.2l.329.224.658.464,2.784,1.946h-.247c.636-.614,1.309-1.257,1.983-1.916l2.8-2.686a3.538,3.538,0,0,1,.748-.636,1.864,1.864,0,0,1,.98-.217,1.781,1.781,0,0,1,.928.307,2.709,2.709,0,0,1,.651.659l3.869,4.744c1.055,1.332,1.931,2.424,2.574,3.225l.688.89A1.685,1.685,0,0,1,436.537,434.855Z" transform="translate(-329.946 -391.995)" fill="#fff"/>
      <path id="Path_6679" data-name="Path 6679" d="M424.442,419.743s-.045-.195-.142-.516a2.193,2.193,0,0,0-.816-1.122,2.065,2.065,0,0,0-1.93-.254,2.02,2.02,0,0,0,0,3.786,2.065,2.065,0,0,0,1.931-.254,2.193,2.193,0,0,0,.816-1.122c.1-.322.1-.516.142-.516a1.062,1.062,0,0,1,0,.554,2.192,2.192,0,0,1-.748,1.3,2.3,2.3,0,0,1-2.245.374,2.357,2.357,0,0,1,0-4.49,2.327,2.327,0,0,1,2.245.374,2.192,2.192,0,0,1,.748,1.3A1.062,1.062,0,0,1,424.442,419.743Z" transform="translate(-332.734 -390.15)" fill="#fff"/>
    </g>
    <g id="freepik--character-2--inject-35" transform="translate(240.439 84.69)">
      <path id="Path_6680" data-name="Path 6680" d="M337.245,204.767s-1.167-3.36-2.589-4.273l-8.882-4.325s-1.137-.082-.262,1.571a8.373,8.373,0,0,0,2.9,2.671l1.714,1.5h0l-8.328-2.873s-4-1.624-4.377-.673c-.329.823,1.033,1.826,2.933,2.641l4.325,1.863s.636.486-.846,0-5.792-2.409-6.592-2.589-2.559-1.167-3.105-.135,1.025,1.9,1.025,1.9l7.647,3.741s-3.435-.965-4.033-1.115-2.32-.905-3.375-1.137-1.818,0-2.05.434a.965.965,0,0,0,.3,1.295l6.959,2.552s3.27,1.018,3.412,1.19-1.833-.082-1.833-.082l-2.387-.427s-3.277-.9-3.854-.21,0,1.085,0,1.085l5.859,2.14,7.2,1.556,12.466,4.849,5.26-9.982Z" transform="translate(-313.212 -123.593)" fill="#ffbe9d"/>
      <path id="Path_6681" data-name="Path 6681" d="M381.687,415.626l1.018,15.28s-15.212,5.043-15.294,7.887l29.706.217-.6-23.87Z" transform="translate(-326.855 -178.716)" fill="#455a64"/>
      <g id="Group_5199" data-name="Group 5199" transform="translate(63.592 250.621)" opacity="0.6">
        <path id="Path_6682" data-name="Path 6682" d="M399.6,434.118a1.212,1.212,0,0,1,.875,1.362,1.167,1.167,0,0,1-1.339.883,1.287,1.287,0,0,1-.92-1.444,1.2,1.2,0,0,1,1.5-.748" transform="translate(-398.198 -434.113)" fill="#fff"/>
      </g>
      <g id="Group_5200" data-name="Group 5200" transform="translate(40.555 257.855)" opacity="0.6">
        <path id="Path_6683" data-name="Path 6683" d="M397.116,446.189l-.06-2.409-28.314.494a2.327,2.327,0,0,0-1.332,1.7Z" transform="translate(-367.41 -443.78)" fill="#fff"/>
      </g>
      <path id="Path_6684" data-name="Path 6684" d="M387.2,435.952c0,.142.748.187,1.459.629s1.13,1.048,1.257.988-.1-.9-1-1.422S387.162,435.84,387.2,435.952Z" transform="translate(-331.837 -183.919)" fill="#263238"/>
      <path id="Path_6685" data-name="Path 6685" d="M383.09,437.858c0,.135.606.367,1.115.965s.673,1.242.816,1.235.217-.838-.434-1.571S383.09,437.716,383.09,437.858Z" transform="translate(-330.803 -184.418)" fill="#263238"/>
      <path id="Path_6686" data-name="Path 6686" d="M380.458,442.1c.135,0,.314-.7-.082-1.5s-1.085-1.077-1.137-.95.374.531.688,1.182S380.316,442.09,380.458,442.1Z" transform="translate(-329.832 -184.878)" fill="#263238"/>
      <path id="Path_6687" data-name="Path 6687" d="M387.408,431.151c.06.135.748-.09,1.541-.06s1.5.269,1.541.142-.561-.621-1.5-.643S387.333,431.039,387.408,431.151Z" transform="translate(-331.888 -182.605)" fill="#263238"/>
      <g id="Group_5201" data-name="Group 5201" transform="translate(55.041 239.634)" opacity="0.3">
        <path id="Path_6688" data-name="Path 6688" d="M386.77,419.737l.172,2.724,14.591-.576-.052-2.454Z" transform="translate(-386.77 -419.43)"/>
      </g>
      <path id="Path_6689" data-name="Path 6689" d="M387.21,426.384a2.866,2.866,0,0,0,1.5-.052,7.014,7.014,0,0,0,1.541-.531,6.449,6.449,0,0,0,.838-.479,1.646,1.646,0,0,0,.434-.359.629.629,0,0,0,.045-.748.793.793,0,0,0-.643-.314,1.947,1.947,0,0,0-.554.09,4.987,4.987,0,0,0-.92.352,5.192,5.192,0,0,0-1.339.935c-.673.659-.89,1.212-.838,1.235s.389-.419,1.07-.965a6.238,6.238,0,0,1,1.309-.786,5.617,5.617,0,0,1,.846-.292c.307-.09.576-.1.658.037s0,.075,0,.165a1.5,1.5,0,0,1-.322.269,7.191,7.191,0,0,1-.748.471,8.1,8.1,0,0,1-1.414.591A9.938,9.938,0,0,0,387.21,426.384Z" transform="translate(-331.84 -180.921)" fill="#263238"/>
      <path id="Path_6690" data-name="Path 6690" d="M386.775,425.9a2.432,2.432,0,0,0,.352-1.452,5.044,5.044,0,0,0-.254-1.624,5.474,5.474,0,0,0-.4-.89,1.242,1.242,0,0,0-.973-.748.688.688,0,0,0-.614.434,2.074,2.074,0,0,0-.135.546,3.427,3.427,0,0,0,0,1,3.48,3.48,0,0,0,.681,1.5c.606.748,1.212.905,1.227.853a6.349,6.349,0,0,1-.935-1.062,3.3,3.3,0,0,1-.509-1.384,2.993,2.993,0,0,1,0-.861c.037-.314.142-.576.262-.546a1.084,1.084,0,0,1,.539.471,4.852,4.852,0,0,1,.389.793,5.537,5.537,0,0,1,.337,1.5C386.835,425.335,386.693,425.882,386.775,425.9Z" transform="translate(-331.211 -180.239)" fill="#263238"/>
      <path id="Path_6691" data-name="Path 6691" d="M436.2,414.989l5.515,14.284s-13.012,9.346-12.257,12.084l28.434-8.635-7.677-22.613Z" transform="translate(-342.467 -177.449)" fill="#455a64"/>
      <g id="Group_5202" data-name="Group 5202" transform="translate(106.432 247.602)" opacity="0.6">
        <path id="Path_6692" data-name="Path 6692" d="M456.528,430.087a1.22,1.22,0,0,1,1.25,1.04,1.175,1.175,0,0,1-1.018,1.242,1.28,1.28,0,0,1-1.309-1.107c0-.591.606-1.272,1.2-1.175" transform="translate(-455.45 -430.078)" fill="#fff"/>
      </g>
      <g id="Group_5203" data-name="Group 5203" transform="translate(86.905 252.991)" opacity="0.6">
        <path id="Path_6693" data-name="Path 6693" d="M457.875,439.562l-.748-2.282-27.162,9.3a2.043,2.043,0,0,0-.569,1.871Z" transform="translate(-429.353 -437.28)" fill="#fff"/>
      </g>
      <path id="Path_6694" data-name="Path 6694" d="M445.178,435.608c.045.142.748-.037,1.579.172s1.392.658,1.5.561-.374-.816-1.377-1.055S445.1,435.5,445.178,435.608Z" transform="translate(-346.431 -183.77)" fill="#263238"/>
      <path id="Path_6695" data-name="Path 6695" d="M441.8,438.675c0,.142.688.172,1.354.591s1.01.988,1.145.935-.045-.861-.883-1.369S441.755,438.54,441.8,438.675Z" transform="translate(-345.581 -184.599)" fill="#263238"/>
      <path id="Path_6696" data-name="Path 6696" d="M440.553,443.531c.135,0,.09-.748-.524-1.392s-1.354-.7-1.369-.569.516.4,1.01.92S440.411,443.568,440.553,443.531Z" transform="translate(-344.791 -185.354)" fill="#263238"/>
      <path id="Path_6697" data-name="Path 6697" d="M443.994,430.836c.1.1.666-.307,1.459-.516s1.5-.18,1.5-.322-.748-.434-1.654-.165S443.874,430.746,443.994,430.836Z" transform="translate(-346.13 -182.387)" fill="#263238"/>
      <g id="Group_5204" data-name="Group 5204" transform="translate(94.826 235.699)" opacity="0.3">
        <path id="Path_6698" data-name="Path 6698" d="M439.94,418.839l.98,2.552,13.761-4.894-.786-2.327Z" transform="translate(-439.94 -414.17)"/>
      </g>
      <path id="Path_6699" data-name="Path 6699" d="M442.56,426.14a2.836,2.836,0,0,0,1.407-.494,6.974,6.974,0,0,0,1.317-.958,6.731,6.731,0,0,0,.658-.711,1.765,1.765,0,0,0,.307-.479.621.621,0,0,0-.187-.748.793.793,0,0,0-.711-.1,1.849,1.849,0,0,0-.5.254,5.7,5.7,0,0,0-.748.6,5.482,5.482,0,0,0-1,1.3,2.544,2.544,0,0,0-.434,1.429c.082,0,.247-.516.748-1.242a5.985,5.985,0,0,1,1.01-1.145,5.232,5.232,0,0,1,.748-.524c.277-.18.524-.269.651-.165s.052.06,0,.165a1.563,1.563,0,0,1-.232.352,9.044,9.044,0,0,1-.6.681,8.074,8.074,0,0,1-1.175.988A11.922,11.922,0,0,0,442.56,426.14Z" transform="translate(-345.773 -180.595)" fill="#263238"/>
      <path id="Path_6700" data-name="Path 6700" d="M441.843,426.109a2.357,2.357,0,0,0-.1-1.5,4.787,4.787,0,0,0-.748-1.5,4.488,4.488,0,0,0-.651-.748,1.227,1.227,0,0,0-1.137-.4.7.7,0,0,0-.456.6,1.914,1.914,0,0,0,0,.561,3.369,3.369,0,0,0,1.422,2.192c.8.539,1.429.509,1.429.456a12.548,12.548,0,0,1-1.212-.748,3.352,3.352,0,0,1-.9-1.167,2.856,2.856,0,0,1-.254-.823c-.06-.307,0-.591.09-.6a.823.823,0,0,1,.651.292,4.944,4.944,0,0,1,.614.643,5.322,5.322,0,0,1,.748,1.31C441.731,425.548,441.761,426.109,441.843,426.109Z" transform="translate(-344.81 -180.429)" fill="#263238"/>
      <path id="Path_6701" data-name="Path 6701" d="M374.184,109.864a5.444,5.444,0,0,1,1.04-6.4,8.9,8.9,0,0,1,6.368-2.365,26.188,26.188,0,0,1,6.854,1.182,7.415,7.415,0,0,1,13.095,2.035,4.714,4.714,0,0,1,6.51,5.238l-9.675,5.283-8,21.55a9.084,9.084,0,0,1-15.145-9.772,7.7,7.7,0,0,1-1.893-1.691,7.977,7.977,0,0,1-4.422-4.265A8.426,8.426,0,0,1,374.184,109.864Z" transform="translate(-327.105 -99.176)" fill="#263238"/>
      <path id="Path_6702" data-name="Path 6702" d="M391.685,152.582c.112-3.307.2-5.582.195-5.56s-6.435-1.369-7.393-9.892c-.479-4.243.045-11.127.651-16.754.554-5.066,4.2-11.142,9.234-10.378l15.616,4.707c1.5.232,2.005,1.556,1.9,3.1l.1.748-1.833,24.2-.681,10.8a8.9,8.9,0,0,1-8.725,8.268h0a8.912,8.912,0,0,1-9.061-9.234Z" transform="translate(-331.107 -101.884)" fill="#ffbe9d"/>
      <path id="Path_6708" data-name="Path 6708" d="M394.4,158.657a21.52,21.52,0,0,0,11.471-2.507s-3.128,5.844-11.561,4.669Z" transform="translate(-333.627 -113.519)" fill="#eb996e"/>
      <path id="Path_6711" data-name="Path 6711" d="M403.756,108.919a5.792,5.792,0,0,1-7.079,5.417c-1.287-.292-2.671-1-3.824-.359s-1.332,2.447-2.417,3.307c-1.549,1.227-3.869-.09-5.784.389-1.5.374-2.454,1.736-3.479,2.866s-2.529,2.192-3.973,1.691a17.411,17.411,0,0,1,.748-3.876,5.792,5.792,0,0,1,2.357-3.083,20.3,20.3,0,0,0,1.916-1.01c1.257-.928,1.609-2.619,2.424-3.958a6.345,6.345,0,0,1,4.969-2.993c1.676-.1,3.367.479,5.006.135,1.212-.247,2.3-.98,3.524-1.16,2.379-.352,4.49,1.444,6.151,3.21" transform="translate(-329.32 -100.955)" fill="#263238"/>
      <path id="Path_6712" data-name="Path 6712" d="M402.358,112.284c1.07-.254,3.27-.853,3.883-1.743a6.488,6.488,0,0,1,5.777-2.993,5.35,5.35,0,0,1,4.639,4.437,7.7,7.7,0,0,1,6.435,4.542,8.979,8.979,0,0,1-.6,8.291,15.556,15.556,0,0,0-.958,2,13.3,13.3,0,0,1,1.684,1.826c2.365,3.562-2.11,5.807-2.11,5.807.412,2.581-1.975,2.956-3.5,3.2s-1.706,4.452-2.926,4.49l-.838-12.773a1.556,1.556,0,0,1-.546.187c-2.866.524-2.993-5.043-2.3-6.607a16.68,16.68,0,0,1-2.724-3.12,12.025,12.025,0,0,1-1.062-5.807C406.189,114.028,401.886,112.374,402.358,112.284Z" transform="translate(-335.644 -101.282)" fill="#263238"/>
      <path id="Path_6713" data-name="Path 6713" d="M417.146,136.914a2.469,2.469,0,0,1,3.7-1.945c.838.531,1.452,1.556,1.287,3.464-.427,5.1-5.447,3.614-5.44,3.464S416.922,139.017,417.146,136.914Z" transform="translate(-339.261 -108.103)" fill="#ffbe9d"/>
      <path id="Path_6714" data-name="Path 6714" d="M419,140.605a1.853,1.853,0,0,0,.224.15.86.86,0,0,0,.666.067,2.2,2.2,0,0,0,1.182-1.878,2.933,2.933,0,0,0-.142-1.295,1.025,1.025,0,0,0-.614-.748.456.456,0,0,0-.539.195c-.082.142-.06.247-.09.247s-.1-.09,0-.3a.576.576,0,0,1,.224-.3.658.658,0,0,1,.5-.09,1.257,1.257,0,0,1,.861.868,3.046,3.046,0,0,1,.187,1.444,2.3,2.3,0,0,1-1.5,2.088.928.928,0,0,1-.793-.2C419,140.725,419,140.65,419,140.605Z" transform="translate(-339.842 -108.607)" fill="#eb996e"/>
      <path id="Path_6715" data-name="Path 6715" d="M379.417,128.155a13.593,13.593,0,0,1-1.25-.928,7.34,7.34,0,0,1-2.148-3.554,7.175,7.175,0,0,1-.187-2.858,6.121,6.121,0,0,1,1.3-2.993,7.213,7.213,0,0,1,6.734-2.5,3.31,3.31,0,0,1,.7.165,4.5,4.5,0,0,1,.651.247l.329.12-.052-.337a2.544,2.544,0,0,1,.359-1.7,3.943,3.943,0,0,1,1.235-1.227,5.275,5.275,0,0,1,3.225-.748c2.17.135,4.108.8,5.821.748a5.41,5.41,0,0,0,3.659-1.377,3.053,3.053,0,0,0,.621-.883,1.094,1.094,0,0,0,.112-.352,4.534,4.534,0,0,1-.838,1.13,5.425,5.425,0,0,1-3.562,1.212,13.7,13.7,0,0,1-2.671-.322,24.521,24.521,0,0,0-3.128-.486,6.6,6.6,0,0,0-1.743.1,5.4,5.4,0,0,0-1.7.7,4.3,4.3,0,0,0-1.369,1.354,2.9,2.9,0,0,0-.412,1.968l.277-.217c-.224-.082-.456-.18-.7-.262a4.2,4.2,0,0,0-.748-.18,7.565,7.565,0,0,0-7.123,2.664,6.472,6.472,0,0,0-1.339,3.165,7.287,7.287,0,0,0,.247,2.993,7.16,7.16,0,0,0,2.32,3.592,5.15,5.15,0,0,0,.973.651A1.429,1.429,0,0,0,379.417,128.155Z" transform="translate(-328.873 -101.896)" fill="#455a64"/>
      <path id="Path_6716" data-name="Path 6716" d="M378.34,109.528a5.29,5.29,0,0,1,1.5-.8,4.28,4.28,0,0,1,1.9-.135,3.741,3.741,0,0,1,2.147,1.085l.232.239.067-.322a5.784,5.784,0,0,1,4.07-4.2,7.507,7.507,0,0,1,4.662.561,19.7,19.7,0,0,0,3.831,1.25,5.582,5.582,0,0,0,2.724-.12,3.273,3.273,0,0,0,.674-.307c.142-.1.217-.15.209-.157a8.532,8.532,0,0,1-.928.314,5.889,5.889,0,0,1-2.626,0,21.047,21.047,0,0,1-3.741-1.317,12.3,12.3,0,0,0-2.3-.688,5.8,5.8,0,0,0-2.6.09,6.061,6.061,0,0,0-4.31,4.49l.3-.09a3.951,3.951,0,0,0-2.365-1.122,4.19,4.19,0,0,0-2.005.224,3.636,3.636,0,0,0-1.115.644A1.443,1.443,0,0,0,378.34,109.528Z" transform="translate(-329.607 -100.599)" fill="#455a64"/>
      <path id="Path_6719" data-name="Path 6719" d="M423.152,118.363a1.655,1.655,0,0,0,.217-.18,4.891,4.891,0,0,0,.554-.584,5.851,5.851,0,0,0,1.28-2.641,4.6,4.6,0,0,0-.067-2.058,4.258,4.258,0,0,0-1.2-2.035,3.352,3.352,0,0,0-2.447-.89,3.135,3.135,0,0,0-2.477,1.272l.239.112v-.052a6.989,6.989,0,0,0-.314-5.313,4.594,4.594,0,0,0-3.509-2.5,3.741,3.741,0,0,0-2.791.89,2.992,2.992,0,0,0-.524.614,1.235,1.235,0,0,0-.127.254,4.048,4.048,0,0,1,.748-.748,3.741,3.741,0,0,1,2.709-.748,4.445,4.445,0,0,1,3.292,2.357,6.779,6.779,0,0,1,.277,5.111v.06l-.277.816.471-.681a2.873,2.873,0,0,1,2.245-1.16,3.1,3.1,0,0,1,2.245.816,3.988,3.988,0,0,1,1.152,1.908,4.408,4.408,0,0,1,.1,1.96,6.076,6.076,0,0,1-1.175,2.619C423.421,118.086,423.129,118.34,423.152,118.363Z" transform="translate(-338.075 -100.259)" fill="#263238"/>
      <path id="Path_6720" data-name="Path 6720" d="M379.445,251.06s-6.555,13.97-6.555,22.889,6.817,103.934,6.817,103.934l23.2-.846L396.37,251.2Z" transform="translate(-328.235 -137.411)" fill="#263238"/>
      <path id="Path_6721" data-name="Path 6721" d="M397.12,270.271c0,1.586,7.019,65.974,7.019,65.974L423.594,380l21.7-7.311-18.332-42.928s1.04-31.113,1.878-42.591c.636-8.635,1.444-16.731,1.033-20.285a21.356,21.356,0,0,0-3.9-10.124c-2.1-2.754-2.664-2.148-4.819-5.051-2.993-4.026-24-1.018-24-1.018Z" transform="translate(-334.334 -137.048)" fill="#263238"/>
      <path id="Path_6722" data-name="Path 6722" d="M423.974,386.13l-.112-.21-.3-.636-1.13-2.469c-.973-2.163-2.387-5.29-4.145-9.181l-13.94-31.2h0c-.284-3.345-.591-6.832-.95-10.378-.793-8.014-1.669-15.639-2.394-22.583s-1.309-13.2-1.684-18.467-.554-9.533-.666-12.481c0-1.459-.06-2.6-.075-3.4v-.883a1.776,1.776,0,0,1,0-.3,1.776,1.776,0,0,1,0,.3,7,7,0,0,0,.045.883c0,.793.075,1.93.135,3.39.157,2.948.359,7.213.748,12.474s1.01,11.516,1.766,18.452,1.624,14.561,2.417,22.575c.359,3.554.666,7.034.943,10.386v-.06c5.515,12.451,10.363,23.391,13.835,31.24,1.721,3.913,3.1,7.049,4.048,9.234l1.078,2.484.269.651a1.019,1.019,0,0,1,.112.172Z" transform="translate(-334.7 -143.173)" fill="#455a64"/>
      <path id="Path_6723" data-name="Path 6723" d="M388.974,171.509s-12.922,21.7-13,25.441,4.168,16.118,4.168,16.118-2.866,15.848-2.656,18.22a5.762,5.762,0,0,0,.748,2.626c1.714,1.856,4.624,1.833,7.1,2.365L407.4,239.96c2.888.621,9.787,0,12.4-1.414,1.444-.748,2.776-1.766,2.417-3.225-.4-1.7-7.146-17.375-7.146-17.375s1.848-29.579,2.6-35.094-7.692-15.122-7.692-15.122l-20.951,4.078" transform="translate(-329.01 -116.434)" fill="#407bff"/>
      <g id="Group_5205" data-name="Group 5205" transform="translate(49.893 72.255)" opacity="0.3">
        <path id="Path_6724" data-name="Path 6724" d="M379.89,230.093c3.891,5.649,12.107,7.333,17.719,3.622,5.29-3.494,7.535-10.341,9.047-16.739,1.407-5.986,3.547-15.115,4.31-21.236,0,0-12.5,30.6-14.12,32.557s-4.549,6.592-12.72,3.449Z" transform="translate(-379.89 -195.74)"/>
      </g>
      <path id="Path_6725" data-name="Path 6725" d="M392.98,167.886l.157,1.414,20.951-4.078-.374-5.874s0-1.639-1.983-1.639c-.98,0-17.958,4.265-18.609,4.7C391.483,163.5,392.98,167.886,392.98,167.886Z" transform="translate(-333.135 -113.911)" fill="#407bff"/>
      <path id="Path_6726" data-name="Path 6726" d="M391.106,172.25c-5.358,0-8.665,11.688-8.665,11.688s-6.921,23.1-7.378,23.458-28.614-8.179-28.614-8.179l-4.4,12.72s36.77,20.51,43.444,14.277,17.517-40.339,17.517-40.339S401.874,172.295,391.106,172.25Z" transform="translate(-320.471 -117.571)" fill="#407bff"/>
      <path id="Path_6727" data-name="Path 6727" d="M387.241,227.825a8.373,8.373,0,0,1-1.556-4.168,9.077,9.077,0,0,1,.329-4.437,39.754,39.754,0,0,0,.1,4.377,27.683,27.683,0,0,0,1.13,4.228Z" transform="translate(-331.421 -129.396)" fill="#263238"/>
      <path id="Path_6728" data-name="Path 6728" d="M392.586,172.249a3.521,3.521,0,0,0-.7.1,4.587,4.587,0,0,0-1.8.846c-1.437,1.01-2.941,3.143-4.235,5.986a98.927,98.927,0,0,0-3.487,10.476c-1.242,3.981-2.529,8.381-3.981,12.967-.367,1.145-.748,2.282-1.115,3.39l-.292.831c-.052.142-.1.277-.165.419a.629.629,0,0,1-.187.262c-.157.052-.142,0-.209,0H376.3c-.591-.1-1.137-.247-1.691-.389-2.207-.569-4.31-1.175-6.315-1.751-4-1.167-7.6-2.245-10.618-3.158l-7.138-2.2-1.938-.614-.5-.172a.546.546,0,0,1-.165-.067h.18l.509.142,1.953.554,7.168,2.088,10.648,3.083c2.005.561,4.108,1.167,6.3,1.728.546.135,1.107.284,1.654.374h.142v.1c0,.045.06.075,0,0l-.067-.015h0v-.082c0-.03.1-.254.157-.389l.284-.823c.382-1.107.748-2.245,1.107-3.382,1.459-4.587,2.791-8.979,4.018-12.96s2.17-7.632,3.562-10.476,2.9-5.006,4.385-5.986a4.436,4.436,0,0,1,1.878-.793A2.558,2.558,0,0,1,392.586,172.249Z" transform="translate(-321.951 -117.571)" fill="#263238"/>
      <path id="Path_6729" data-name="Path 6729" d="M378.31,228.21l.157.052.434.172,1.654.673a48.56,48.56,0,0,0,6.211,2.088,16.912,16.912,0,0,0,4.452.591,5.987,5.987,0,0,0,2.395-.509,5.462,5.462,0,0,0,1.923-1.728,33.154,33.154,0,0,0,3.03-4.849c.928-1.766,1.818-3.629,2.679-5.56,3.442-7.745,6.038-14.965,7.909-20.2.913-2.6,1.646-4.714,2.17-6.211.247-.711.449-1.272.591-1.691l.157-.434c.037-.1.06-.15.067-.142a.569.569,0,0,1,0,.15l-.127.449c-.127.419-.307,1-.524,1.714-.471,1.5-1.167,3.622-2.065,6.248-1.818,5.238-4.37,12.5-7.819,20.255-.868,1.938-1.766,3.809-2.7,5.575a33,33,0,0,1-3.083,4.894,5.776,5.776,0,0,1-2.043,1.811,6.323,6.323,0,0,1-2.522.524,17.413,17.413,0,0,1-4.49-.644,44.586,44.586,0,0,1-6.2-2.207c-.748-.307-1.265-.561-1.631-.748l-.419-.2A.434.434,0,0,1,378.31,228.21Z" transform="translate(-329.599 -122.155)" fill="#263238"/>
      <path id="Path_6730" data-name="Path 6730" d="M416.98,239.249a5.6,5.6,0,0,1-.441.524,18.068,18.068,0,0,1-1.362,1.28,27.837,27.837,0,0,1-5.088,3.472,27.319,27.319,0,0,1-5.732,2.245c-.748.2-1.384.337-1.826.412a2.852,2.852,0,0,1-.681.075c0-.06.943-.262,2.439-.748a32.923,32.923,0,0,0,5.634-2.335,33.57,33.57,0,0,0,5.1-3.352C416.239,239.878,416.927,239.2,416.98,239.249Z" transform="translate(-335.525 -134.437)" fill="#263238"/>
      <g id="Group_5206" data-name="Group 5206" transform="translate(60.661 50.309)" opacity="0.3">
        <path id="Path_6731" data-name="Path 6731" d="M394.7,169.979a107.31,107.31,0,0,0,18.168-3.569,31.135,31.135,0,0,1-18.587,3.667" transform="translate(-394.28 -166.41)"/>
      </g>
    </g>
    <g id="freepik--character-1--inject-35" transform="translate(34.089 185.026)">
      <path id="Path_6732" data-name="Path 6732" d="M178,389.125s4.8-1.5,6.5-.928l9.458,4.422s.823.883-1.115,1.257a7.106,7.106,0,0,1-3.973-.861l-2.492-.172,1.377,1.751,6.173,3.427s4.49,2.365,3.741,2.948-2.185.359-4.123-.659L189.22,398s-.748-.352.337.846,6.622,3.839,7.3,4.377,2.7,1.3,2.245,2.439-2.888-.374-2.888-.374l-8.149-3.794s3.075,2.17,3.592,2.567,2.245,1.3,3.18,2.013,1.235,1.5,1.01,1.983a1.025,1.025,0,0,1-1.265.614l-6.734-4.026a37.2,37.2,0,0,0-3.24-2.005c-.247,0,.973,1.721.973,1.721l2.065,1.676s3.105,1.826,2.918,2.754-.875.748-.875.748l-5.709-3.39-6.068-4.886-5.1-3.906-3.741-2.073a74.171,74.171,0,0,1,6.966-7.423Z" transform="translate(-70.575 -272.184)" fill="#c8877f"/>
      <path id="Path_6733" data-name="Path 6733" d="M182.93,396.827a4.812,4.812,0,0,0,1.437.449,3.667,3.667,0,0,0,1.609-.187,3.576,3.576,0,0,0,1.624-1.115,3.681,3.681,0,0,0,.748-1.377v-.052h.045a12.122,12.122,0,0,1,2.611-.15,5.155,5.155,0,0,1,.748.067.966.966,0,0,1,.262.052H191a14.26,14.26,0,0,0-2.582.21l.06-.06a3.7,3.7,0,0,1-4.13,2.731,3.5,3.5,0,0,1-1.078-.344,1.394,1.394,0,0,1-.262-.157C182.982,396.856,182.922,396.834,182.93,396.827Z" transform="translate(-74.065 -273.825)" fill="#a06763"/>
      <path id="Path_6734" data-name="Path 6734" d="M146.1,361.058s-2.552-16.275-2.192-17.9l-16.589,1.115,4.766,24.693,28.262,16.088,5.642-8.036Z" transform="translate(-60.066 -260.931)" fill="#c8877f"/>
      <path id="Path_6735" data-name="Path 6735" d="M68.364,291.053s-22.627,38.91-26.316,58.08l-.823,3.427a9.136,9.136,0,0,0-2.873,7.707l.561,4.864,55.454-7.542,4.594-12.915L116.7,304.268l-.494-2.058-7.43-6.405c-7.984,4.811-12.608.254-16.986-9.533l-10.82-1.242Z" transform="translate(-37.655 -246.298)" fill="#455a64"/>
      <path id="Path_6736" data-name="Path 6736" d="M138.392,308s6.068,5.013,6.734,21.385v7.857l-18.707,2.05.367-5.754Z" transform="translate(-59.839 -252.08)" fill="#455a64"/>
      <path id="Path_6737" data-name="Path 6737" d="M46.28,375.088c0,.067,1.175-.531,3.135-1.182a26.031,26.031,0,0,1,3.517-.89,25.523,25.523,0,0,1,8.837-.022,26.189,26.189,0,0,1,3.524.861c1.968.643,3.113,1.235,3.143,1.167a4.266,4.266,0,0,0-.748-.449,7.474,7.474,0,0,0-.965-.449c-.382-.165-.808-.359-1.309-.524a23.242,23.242,0,0,0-3.547-.95,24.137,24.137,0,0,0-8.979,0,22.723,22.723,0,0,0-3.539.973c-.5.157-.928.367-1.309.524a9.243,9.243,0,0,0-.965.456,3.74,3.74,0,0,0-.793.486Z" transform="translate(-39.665 -268.249)" fill="#263238"/>
      <path id="Path_6738" data-name="Path 6738" d="M42.35,381.965a10.243,10.243,0,0,1,4.288-3.375,17.15,17.15,0,0,1,5.814-1.287c2.245-.15,4.766-.1,7.385-.142,5.238-.052,10-.12,13.469-.187l4.078-.1,1.107-.045a1.266,1.266,0,0,0,.382-.045,1.944,1.944,0,0,0-.382,0H73.306c-3.442,0-8.231,0-13.469.067-2.626.045-5.126,0-7.408.18a17.039,17.039,0,0,0-5.9,1.392,10,10,0,0,0-3.315,2.387,7.319,7.319,0,0,0-.681.883,1.323,1.323,0,0,0-.18.269Z" transform="translate(-38.676 -269.394)" fill="#263238"/>
      <path id="Path_6739" data-name="Path 6739" d="M133,320.1a1.655,1.655,0,0,1-.127.434l-.434,1.2c-.382,1.04-.965,2.537-1.7,4.385-1.5,3.7-3.577,8.762-5.986,14.337s-4.587,10.6-6.211,14.217c-.8,1.773-1.459,3.225-1.945,4.288-.217.471-.4.853-.546,1.152a1.706,1.706,0,0,1-.217.4,2.193,2.193,0,0,1,.15-.427c.12-.307.284-.7.479-1.182l1.826-4.34c1.586-3.689,3.741-8.717,6.106-14.269L130.451,326l1.811-4.34.509-1.175A2.3,2.3,0,0,1,133,320.1Z" transform="translate(-57.174 -255.126)" fill="#263238"/>
      <g id="Group_5207" data-name="Group 5207" transform="translate(29.608 66.605)" opacity="0.3">
        <path id="Path_6740" data-name="Path 6740" d="M77.519,322.28S74.975,345.985,81.26,351.1s26.855,4.549,26.855,4.549L81.29,333.541,80.145,322.6Z" transform="translate(-77.01 -322.28)"/>
      </g>
      <g id="Group_5208" data-name="Group 5208" transform="translate(67.456 66.941)" opacity="0.3">
        <path id="Path_6741" data-name="Path 6741" d="M127.59,340.98s3.18-4.856,4.736-7.954c1.437-2.858,2.926-10.3,2.926-10.3Z" transform="translate(-127.59 -322.73)"/>
      </g>
      <path id="Path_6742" data-name="Path 6742" d="M145.167,256.555c-.89-1.7-2.073-3.4-2.02-5.313.052-1.766,1.152-3.5.681-5.238-.584-2.1-3.225-2.993-4.071-4.983-.4-.973-.337-2.088-.748-3.06-.681-1.661-2.559-2.507-4.332-2.739s-3.6,0-5.365-.307c-2.424-.4-4.7-1.773-7.153-1.639-2.709.15-4.8,2.013-6.959,3.741l-2.746,2a9.645,9.645,0,0,1-1.706.816,17.661,17.661,0,0,0-3.12,1.077,4.34,4.34,0,0,0-1.19,6.151,4.624,4.624,0,0,0-4.1,3.7,13.26,13.26,0,0,0,.082,3.262,4.654,4.654,0,0,1-.666,3.128,2.038,2.038,0,0,1-2.858.5,4.879,4.879,0,0,0,1.833,3.786,2.993,2.993,0,0,1-2.118.389c.846,5.006,5.537,8.657,10.476,9.862s10.109.464,15.137-.284l14.12-.277c1.235,0,2.058-1.287,2.327-2.492s.269-2.522.958-3.539c.958-1.392,2.933-1.781,3.913-3.158C146.656,260.446,146.042,258.261,145.167,256.555Z" transform="translate(-52.839 -233.268)" fill="#263238"/>
      <path id="Path_6743" data-name="Path 6743" d="M114.8,263.23a57,57,0,0,1-.157-9.727,19.732,19.732,0,0,1,2.993-9.144c.277-.412,2.432-3.068,2.9-2.911.329.12-1.227,2.709-1.13,3.045a16.649,16.649,0,0,1-.471,9.9,44.013,44.013,0,0,1-4.153,8.83" transform="translate(-56.841 -235.325)" fill="#263238"/>
      <path id="Path_6744" data-name="Path 6744" d="M132.187,238.8l-.748-.217c-7.917-1.886-13.94,3.786-15.6,11.748l-7.206,27.072a9.533,9.533,0,0,0,6.3,11.531h0a9.533,9.533,0,0,0,12.04-6.285c.434-1.407.748-2.394.748-2.387s7.827,1.085,10.169-6.368c1.13-3.6,2.858-11.224,4.34-18.093A14.546,14.546,0,0,0,132.187,238.8Z" transform="translate(-55.28 -234.515)" fill="#c8877f"/>
      <path id="Path_6745" data-name="Path 6745" d="M131.257,292.407a18.886,18.886,0,0,1-8.867-5.807s.606,6.151,8.231,7.722Z" transform="translate(-58.825 -246.693)" fill="#a06763"/>
      <path id="Path_6754" data-name="Path 6754" d="M114.889,261.684c-.112-.1-4.684-3.068-6.053,2.1s4.086,5.477,4.138,5.328S114.889,261.684,114.889,261.684Z" transform="translate(-55.357 -240.185)" fill="#c8877f"/>
      <path id="Path_6755" data-name="Path 6755" d="M112.358,267.321a2.225,2.225,0,0,1-.277.067.935.935,0,0,1-.681-.165,2.3,2.3,0,0,1-.494-2.245,3.1,3.1,0,0,1,.591-1.22,1.093,1.093,0,0,1,.861-.516.479.479,0,0,1,.464.389c0,.165,0,.262,0,.277s.135-.06.15-.284a.613.613,0,0,0-.12-.374.688.688,0,0,0-.464-.262,1.294,1.294,0,0,0-1.152.546,3.15,3.15,0,0,0-.7,1.354,2.339,2.339,0,0,0,.748,2.582,1.04,1.04,0,0,0,.861.082C112.358,267.441,112.358,267.336,112.358,267.321Z" transform="translate(-55.819 -240.749)" fill="#a06763"/>
      <path id="Path_6756" data-name="Path 6756" d="M142.748,245.945c.95-.247-.861-3.607-2.679-5.066-2.746-2.245-7.273-4.3-10.348-4.22-3.7.09-7.011,1.07-9.555,3.741a20.951,20.951,0,0,0-4.946,9.8,6.278,6.278,0,0,0-.082,3.345c.427,1.332,1.624,2.409,1.16,3.966a2.245,2.245,0,0,0,.135,1.721c.688,1.25,2.088.6,2.866-.21,1.654-1.736,2.4-4.123,3.1-6.42a15.587,15.587,0,0,0,.935-5c0-.928-.224-1.848-.21-2.776a3.21,3.21,0,0,1,1.033-2.492,3.305,3.305,0,0,1,.531-.314,5.59,5.59,0,0,1,5.612.352c2.649,1.781,7.228,4.594,8.777,3.943A8.231,8.231,0,0,0,142,244.561Z" transform="translate(-56.952 -234.121)" fill="#263238"/>
      <path id="Path_6757" data-name="Path 6757" d="M132.4,235.795a11.785,11.785,0,0,1,8.62,2.724,6.128,6.128,0,0,1,2.245,4.235,3.5,3.5,0,0,1-2.724,3.584h-.12c-2.394.18-3.741-.486-5.762-1.818-1.684-1.115-3.038-2.679-4.729-3.786a10.865,10.865,0,0,0-6.113-1.758A17.786,17.786,0,0,1,132.4,235.795Z" transform="translate(-59.185 -233.892)" fill="#263238"/>
      <path id="Path_6758" data-name="Path 6758" d="M65.208,414.779,42.281,411,37.44,439.5c2.746.292,10.723-13.521,10.723-13.521l14.584,3.03Z" transform="translate(-37.44 -278.009)" fill="#407bff"/>
      <path id="Path_6759" data-name="Path 6759" d="M54.672,419.173a1.182,1.182,0,0,0-1.19-1.033,1.137,1.137,0,0,0-1.033,1.175,1.242,1.242,0,0,0,1.265,1.085,1.182,1.182,0,0,0,.943-1.339" transform="translate(-41.218 -279.807)" fill="#fff"/>
      <path id="Path_6760" data-name="Path 6760" d="M42.281,411l2.3.471-5.507,27.14s-.748,1.175-1.631.883Z" transform="translate(-37.44 -278.009)" fill="#263238"/>
      <path id="Path_6761" data-name="Path 6761" d="M51.463,430.7c-.142,0-.082-.748-.419-1.5s-.853-1.227-.748-1.347.846.224,1.235,1.152S51.567,430.748,51.463,430.7Z" transform="translate(-40.673 -282.246)" fill="#263238"/>
      <path id="Path_6762" data-name="Path 6762" d="M48.886,434.631c-.135,0-.269-.636-.748-1.2S47,432.611,47,432.469s.831-.09,1.452.636S49.02,434.646,48.886,434.631Z" transform="translate(-39.847 -283.398)" fill="#263238"/>
      <path id="Path_6763" data-name="Path 6763" d="M44.36,436.8c0-.127.748-.2,1.422.284s.89,1.19.748,1.227-.464-.434-1.048-.823S44.345,436.925,44.36,436.8Z" transform="translate(-39.182 -284.48)" fill="#263238"/>
      <path id="Path_6764" data-name="Path 6764" d="M56.392,431.082c-.112-.075.187-.681.269-1.5s-.067-1.452.067-1.5.524.629.419,1.564S56.489,431.172,56.392,431.082Z" transform="translate(-42.205 -282.311)" fill="#263238"/>
      <path id="Path_6765" data-name="Path 6765" d="M61.037,430.635a2.821,2.821,0,0,1,.254-1.422,6.578,6.578,0,0,1,.748-1.414,6.453,6.453,0,0,1,.576-.748,1.706,1.706,0,0,1,.412-.374.621.621,0,0,1,.748.06.786.786,0,0,1,.217.666,2.164,2.164,0,0,1-.165.524,5.921,5.921,0,0,1-.456.838,5.2,5.2,0,0,1-1.13,1.122c-.748.554-1.28.7-1.3.643s.456-.322,1.077-.905a5.88,5.88,0,0,0,.935-1.152,5.809,5.809,0,0,0,.389-.748c.135-.284.18-.546.06-.643s-.067-.045-.165,0a1.2,1.2,0,0,0-.3.269,7.487,7.487,0,0,0-.561.681,7.929,7.929,0,0,0-.748,1.294A13.649,13.649,0,0,1,61.037,430.635Z" transform="translate(-43.356 -281.931)" fill="#263238"/>
      <path id="Path_6766" data-name="Path 6766" d="M60.85,431.6a2.282,2.282,0,0,1,1.444-.142,4.708,4.708,0,0,1,1.5.456,4.578,4.578,0,0,1,.808.516,1.2,1.2,0,0,1,.561,1.033.658.658,0,0,1-.494.524,2.157,2.157,0,0,1-.554.06,3.337,3.337,0,0,1-2.327-1.025c-.644-.681-.748-1.287-.666-1.294a9.069,9.069,0,0,0,.905,1.048,3.271,3.271,0,0,0,1.265.673,3,3,0,0,0,.823.12c.314,0,.576-.067.561-.187a1.037,1.037,0,0,0-.382-.576,4.279,4.279,0,0,0-.711-.486A5.081,5.081,0,0,0,62.2,431.8C61.4,431.618,60.857,431.678,60.85,431.6Z" transform="translate(-43.333 -283.145)" fill="#263238"/>
      <path id="Path_6767" data-name="Path 6767" d="M92.764,402.35s30.784,16.2,36.934,23.376c3.135,3.652,1.631,15.758-5.163,19.56s-14.157,0-18.632-1.085S66.38,430.342,66.38,430.342l4.953-27.993Z" transform="translate(-44.725 -275.832)" fill="#263238"/>
      <path id="Path_6768" data-name="Path 6768" d="M107.13,430.29a4.851,4.851,0,0,0,.786.636c.262.195.614.389,1,.636a14.789,14.789,0,0,0,1.407.748,36.214,36.214,0,0,0,3.794,1.5,40.93,40.93,0,0,1,4.594,1.886,12.879,12.879,0,0,1,3.24,2.282,10.065,10.065,0,0,1,1.983,2.806,33.716,33.716,0,0,1,1.609,4.235l.1.254v-.262a3.121,3.121,0,0,0,0-.748,2.731,2.731,0,0,0-.157.711h.12a24.42,24.42,0,0,0-1.452-4.332,10.178,10.178,0,0,0-2.005-2.926,12.721,12.721,0,0,0-3.322-2.365,36.656,36.656,0,0,0-4.647-1.878c-1.452-.5-2.754-.965-3.809-1.429a27.672,27.672,0,0,1-3.24-1.751Z" transform="translate(-54.983 -282.865)" fill="#455a64"/>
      <path id="Path_6769" data-name="Path 6769" d="M126.79,440.13a17.439,17.439,0,0,1,3.3,2.058,17.9,17.9,0,0,1,2.484,2.993,6.735,6.735,0,0,0-2.245-3.27,6.6,6.6,0,0,0-3.539-1.781Z" transform="translate(-59.933 -285.342)" fill="#455a64"/>
      <path id="Path_6770" data-name="Path 6770" d="M70.4,422.45,53.12,437.969l19.193,21.61c1.953-1.96-3.831-16.821-3.831-16.821l11.486-9.488Z" transform="translate(-41.387 -280.892)" fill="#407bff"/>
      <path id="Path_6771" data-name="Path 6771" d="M66.414,439.482a1.182,1.182,0,0,0-1.549.284,1.137,1.137,0,0,0,.262,1.541A1.25,1.25,0,0,0,66.766,441a1.175,1.175,0,0,0-.456-1.571" transform="translate(-44.296 -285.136)" fill="#fff"/>
      <path id="Path_6772" data-name="Path 6772" d="M53.12,442.687l1.8-1.5,17.734,21.281s.434,1.332-.344,1.826Z" transform="translate(-41.387 -285.609)" fill="#263238"/>
      <path id="Path_6773" data-name="Path 6773" d="M73.226,449.522c-.1.1-.621-.389-1.429-.606s-1.5-.1-1.5-.239a1.649,1.649,0,0,1,1.676-.24C72.9,448.714,73.345,449.462,73.226,449.522Z" transform="translate(-45.712 -287.409)" fill="#263238"/>
      <path id="Path_6774" data-name="Path 6774" d="M74.688,453.85c-.082.112-.666-.187-1.429-.15s-1.332.359-1.422.247.449-.7,1.4-.748S74.785,453.753,74.688,453.85Z" transform="translate(-46.096 -288.632)" fill="#263238"/>
      <path id="Path_6775" data-name="Path 6775" d="M73.544,458.654c-.1-.075.292-.7,1.107-.935s1.5.045,1.444.172-.629.09-1.3.3S73.649,458.759,73.544,458.654Z" transform="translate(-46.525 -289.747)" fill="#263238"/>
      <path id="Path_6776" data-name="Path 6776" d="M76.674,445.915c-.135.037-.419-.576-1-1.137s-1.167-.846-1.13-1,.816,0,1.5.651S76.8,445.892,76.674,445.915Z" transform="translate(-46.781 -286.248)" fill="#263238"/>
      <path id="Path_6777" data-name="Path 6777" d="M79.576,441.38a2.973,2.973,0,0,1-.95-1.085,6.2,6.2,0,0,1-.658-1.444,6.51,6.51,0,0,1-.224-.913,1.8,1.8,0,0,1,0-.554.629.629,0,0,1,.516-.546.786.786,0,0,1,.658.247,2.064,2.064,0,0,1,.3.456,4.91,4.91,0,0,1,.367.883A5.074,5.074,0,0,1,79.815,440a2.35,2.35,0,0,1-.314,1.414,7.014,7.014,0,0,1,0-1.407,5.874,5.874,0,0,0-.314-1.444,6.191,6.191,0,0,0-.359-.793c-.142-.284-.314-.479-.471-.449s-.075,0-.1.135a1.13,1.13,0,0,0,0,.4,7.284,7.284,0,0,0,.18.861,7.738,7.738,0,0,0,.524,1.407,9.392,9.392,0,0,1,.614,1.25Z" transform="translate(-47.58 -284.513)" fill="#263238"/>
      <path id="Path_6778" data-name="Path 6778" d="M79.837,442.07c-.052,0,.142-.569.793-1.212a4.684,4.684,0,0,1,2.245-1.212,1.182,1.182,0,0,1,1.16.2.666.666,0,0,1,.1.748,2.065,2.065,0,0,1-.292.464,3.142,3.142,0,0,1-.748.651,3.345,3.345,0,0,1-1.5.531,1.871,1.871,0,0,1-1.422-.292,11.6,11.6,0,0,0,1.377-.052,3.3,3.3,0,0,0,1.317-.561,2.942,2.942,0,0,0,.606-.576c.2-.239.314-.486.21-.554a1.072,1.072,0,0,0-.688-.067,5.3,5.3,0,0,0-.823.254,5.373,5.373,0,0,0-1.265.748C80.2,441.651,79.9,442.138,79.837,442.07Z" transform="translate(-48.111 -285.203)" fill="#263238"/>
      <path id="Path_6779" data-name="Path 6779" d="M102.122,372.969a18.707,18.707,0,0,1,10.334,1.945,9.33,9.33,0,0,1,4.355,3.906c2.641,5.7,3.427,14.344-1.28,19.193-3.966,4.093-40.474,28.112-40.474,28.112L60.092,413.982l9.443-8.68s-14.217,2.1-19.619-.082S36.2,395.9,38.983,387.261l2.043-2.469a20.951,20.951,0,0,1,14.217-7.483Z" transform="translate(-37.689 -268.413)" fill="#263238"/>
      <path id="Path_6780" data-name="Path 6780" d="M67.47,424a1.5,1.5,0,0,0,.262.254l.8.681,3.075,2.529,10.723,8.74.1.082.112-.075,9.361-6.36,17.816-12.2,5.373-3.741,1.414-1.033a4.423,4.423,0,0,0,.494-.382,3.219,3.219,0,0,0-.539.314l-1.5.973-5.44,3.637L91.639,429.52l-9.316,6.4h.21l-10.8-8.62-3.113-2.454-.838-.636a2.244,2.244,0,0,0-.307-.21Z" transform="translate(-45 -278.384)" fill="#455a64"/>
      <path id="Path_6781" data-name="Path 6781" d="M114.252,389.611a3.468,3.468,0,0,0-.554-.187c-.367-.1-.913-.254-1.616-.412a23.152,23.152,0,0,0-6.121-.531,16.626,16.626,0,0,0-8.6,2.888c-2.9,1.893-5.515,4.662-8.321,7.423s-5.694,5.193-8.231,7.483l-6.862,5.986-4.624,4.026-1.257,1.092a2.834,2.834,0,0,0-.419.4,3.744,3.744,0,0,0,.471-.344l1.287-1.04c1.122-.92,2.731-2.245,4.714-3.936s4.317-3.674,6.906-5.919,5.44-4.7,8.291-7.483,5.41-5.522,8.231-7.4a17.844,17.844,0,0,1,4.3-2.133,18.1,18.1,0,0,1,4.115-.748,24.639,24.639,0,0,1,6.076.4c.748.135,1.257.262,1.624.344A2.694,2.694,0,0,0,114.252,389.611Z" transform="translate(-45.045 -272.334)" fill="#455a64"/>
      <path id="Path_6782" data-name="Path 6782" d="M107.91,390.6a34.948,34.948,0,0,1,3.883-3.42,33.938,33.938,0,0,1,4.557-2.447,4.543,4.543,0,0,0-1.5.4,15.6,15.6,0,0,0-6.053,4.2,4.713,4.713,0,0,0-.89,1.265Z" transform="translate(-55.18 -271.396)" fill="#455a64"/>
      <rect id="Rectangle_2569" data-name="Rectangle 2569" width="22.927" height="76.966" transform="matrix(0.93, -0.367, 0.367, 0.93, 77.887, 78.376)" fill="#fafafa"/>
      <path id="Path_6783" data-name="Path 6783" d="M162.8,326.73l-.367.157-1.085.441-4.175,1.684-15.646,6.248.067-.157c6.63,16.724,16.873,42.591,28.344,71.556h0l-.254-.1,21.326-8.418-.1.247c-8.074-20.525-15.1-38.408-20.121-51.174l-5.844-15.048-1.571-4.041-.4-1.055-.135-.367s.052.1.15.337l.419,1.018,1.6,3.988c1.4,3.509,3.42,8.59,5.986,14.965l20.33,51.226.067.18-.172.067-21.326,8.425-.18.075-.067-.187h0l-28.2-71.609-.045-.112.112-.045,15.758-6.158,4.183-1.616,1.07-.4Z" transform="translate(-63.608 -256.788)" fill="#263238"/>
      <path id="Path_6784" data-name="Path 6784" d="M153.93,343.48c.1-.045,5.343,12.99,11.71,29.107s11.448,29.22,11.344,29.265-5.343-13-11.71-29.122S153.832,343.517,153.93,343.48Z" transform="translate(-66.764 -261.012)" fill="#263238"/>
      <path id="Path_6785" data-name="Path 6785" d="M158.809,341.55c.1-.037,5.343,13,11.7,29.115s11.448,29.22,11.351,29.257-5.343-13-11.71-29.115S158.7,341.587,158.809,341.55Z" transform="translate(-67.993 -260.526)" fill="#263238"/>
      <path id="Path_6786" data-name="Path 6786" d="M163.68,339.62c.1-.037,5.343,13,11.71,29.115s11.448,29.22,11.344,29.257S181.4,385,175.023,368.877,163.582,339.665,163.68,339.62Z" transform="translate(-69.219 -260.04)" fill="#263238"/>
      <path id="Path_6787" data-name="Path 6787" d="M158.979,348.831c-.052-1.317-2.327-1.19-3.232-1.407s-6.285-.374-8.006-.651-.838-.456-.838-.456l5.328.262c2.342.12,3.861-.329,4.3-1.22s-4.991-1.167-4.991-1.167l-10.124-1.579.441-.045,2.484-.636a9.517,9.517,0,0,0,4.273-1.28c1.714-1.242.516-1.736.516-1.736H137.908c-1.893.217-5.634,2.933-5.634,2.933L98.542,331.7,99.5,313s-6.405-5.672-11.179-5.6S80,312,80,312l.928,20.106c.277,6.076,1.893,14.1,9.51,15.422l40.279,5.552,6.734,1.5,8.1,2.005,7.026.748s.748-.135.516-1.122-4.026-1.706-4.026-1.706l-2.649-.748s-2.125-.748-1.9-.831,4.063.486,4.063.486l8.358.876a1.1,1.1,0,0,0,.95-1.167c0-.591-.681-1.182-1.878-1.5s-3.315-.374-4-.524-4.647-.875-4.647-.875H157S159.024,350.156,158.979,348.831Z" transform="translate(-48.154 -251.929)" fill="#c8877f"/>
      <path id="Path_6788" data-name="Path 6788" d="M98.861,339.85l33.747,10.094h-.052c.816-.576,1.691-1.145,2.619-1.684A9.787,9.787,0,0,1,138.228,347h11.224a.688.688,0,0,1,.434.7,1.429,1.429,0,0,1-.434.748,4.9,4.9,0,0,1-1.414.935,10.617,10.617,0,0,1-3.4.786h0l-2.477.644v-.135l9.675,1.624h0a27.515,27.515,0,0,1,3.741.427,5.131,5.131,0,0,1,.92.262.89.89,0,0,1,.419.3.307.307,0,0,1,0,.3,2.006,2.006,0,0,1-.135.21,2.821,2.821,0,0,1-1.706.89,15.444,15.444,0,0,1-3.9.082l-3.958-.194h0a.747.747,0,0,0-.157.052h0a1.241,1.241,0,0,0,.344.112c.239.06.494.1.748.142.5.067,1.018.112,1.5.157l3.113.2c1.048.075,2.1.1,3.158.262.509.112,1.04.135,1.571.217a2.844,2.844,0,0,1,1.5.584,1.115,1.115,0,0,1,0,1.556,2.627,2.627,0,0,1-1.5.621c-1.092.045-2.17,0-3.262,0h-6.585v-.157l2.911.546c.831.142,1.654.352,2.477.434s1.669.157,2.5.277a4.265,4.265,0,0,1,2.335.913,1.317,1.317,0,0,1,.344.561,1.279,1.279,0,0,1,0,.651,1.13,1.13,0,0,1-.958.808h0c-2.956-.314-5.881-.6-8.762-.935l-2.14-.3c-.359-.045-.711-.09-1.07-.12h-.382c.045,0,0-.037,0-.037a2.588,2.588,0,0,0,.456.224,36.094,36.094,0,0,0,4.041,1.28h0a16.146,16.146,0,0,1,2.851.816,4.27,4.27,0,0,1,.666.337,1.19,1.19,0,0,1,.539.546,1.212,1.212,0,0,1,0,.748.748.748,0,0,1-.569.516h0l-7.026-.748h0l-7.565-1.871-7.258-1.631h0l-24.476-3.42-10.206-1.414-4.542-.629a11.432,11.432,0,0,1-4.026-1.115,9.024,9.024,0,0,1-2.918-2.342,12.1,12.1,0,0,1-1.751-2.8,20.735,20.735,0,0,1-1.5-5.013,31.808,31.808,0,0,1-.382-3.218c0-.658-.045-.958-.052-1.115a8.975,8.975,0,0,0,.075,1.115c.075.658.15,1.818.4,3.21a20.563,20.563,0,0,0,1.5,4.991,11.9,11.9,0,0,0,1.758,2.784,8.858,8.858,0,0,0,2.9,2.312A11.223,11.223,0,0,0,91.8,355.8l4.542.621,10.206,1.407,24.446,3.352h0l7.258,1.631,7.572,1.871h0l7.026.748h0a.614.614,0,0,0,.456-.419,1,1,0,0,0,0-.658,1.047,1.047,0,0,0-.479-.471,3.974,3.974,0,0,0-.644-.322,16.266,16.266,0,0,0-2.821-.808h0a36.4,36.4,0,0,1-4.056-1.287,3.1,3.1,0,0,1-.5-.247s-.075,0-.052-.15.082-.045.112-.06a1.177,1.177,0,0,1,.15,0h.277l1.07.127,2.148.3c2.873.337,5.8.614,8.755.935h0a1.018,1.018,0,0,0,.831-.7,1.219,1.219,0,0,0,0-.569,1.123,1.123,0,0,0-.307-.486,4.086,4.086,0,0,0-2.245-.868c-.823-.127-1.654-.187-2.492-.277s-1.661-.292-2.5-.434l-2.9-.546a.082.082,0,0,1-.067-.09.09.09,0,0,1,.082-.067H157.5a2.566,2.566,0,0,0,1.429-.576.958.958,0,0,0,0-1.339,2.626,2.626,0,0,0-1.429-.539c-.524-.09-1.055-.112-1.579-.224-1.033-.15-2.1-.187-3.135-.262l-3.113-.2c-.516-.037-1.033-.082-1.541-.157a7.368,7.368,0,0,1-.748-.142,1.294,1.294,0,0,1-.382-.135.187.187,0,0,1-.1-.12.15.15,0,0,1,.082-.15.746.746,0,0,1,.2-.075h0l3.958.195a15.407,15.407,0,0,0,3.854-.075,2.716,2.716,0,0,0,1.624-.838c.09-.127.195-.254.127-.344a.748.748,0,0,0-.352-.239,4.889,4.889,0,0,0-.89-.254,27.044,27.044,0,0,0-3.689-.419h0l-9.675-1.631a.075.075,0,0,1-.06-.075.082.082,0,0,1,.052-.06l2.477-.636h0a10.474,10.474,0,0,0,3.36-.748,4.781,4.781,0,0,0,1.377-.905,1.384,1.384,0,0,0,.4-.651.546.546,0,0,0-.359-.554H138.168a9.646,9.646,0,0,0-2.993,1.242c-.928.539-1.8,1.1-2.611,1.676a.06.06,0,0,1-.052,0Z" transform="translate(-48.451 -260.098)" fill="#a06763"/>
      <path id="Path_6789" data-name="Path 6789" d="M77.513,292.035C79.369,284.9,91.3,282.308,95.89,288.1a19.451,19.451,0,0,1,3.494,9.308v15.8h-19.5a3.547,3.547,0,0,1-3.809-3.539C76.017,305.092,76.174,297.288,77.513,292.035Z" transform="translate(-47.164 -246.27)" fill="#455a64"/>
      <path id="Path_6790" data-name="Path 6790" d="M76.838,297.268a1.81,1.81,0,0,1,0,.352v1.01c0,.92-.067,2.207-.12,3.809-.127,3.3-.314,7.917-.524,13.327l-.18-.187H99.009l-.18.172a100.487,100.487,0,0,0,0-13.985c-.157-1.714-.367-3.06-.524-3.981-.082-.434-.15-.748-.195-1.048a1.922,1.922,0,0,1-.052-.367,1.855,1.855,0,0,1,.112.352c.052.232.15.584.247,1.04a37.631,37.631,0,0,1,.629,3.981,92.214,92.214,0,0,1,.127,14.022v.172H75.82v-.187c.269-5.41.5-10.019.666-13.319.1-1.6.172-2.888.224-3.809a10.111,10.111,0,0,1,.075-1.01,1.43,1.43,0,0,1,.052-.344Z" transform="translate(-47.102 -249.153)" fill="#263238"/>
    </g>
  </g>
</svg>
