<svg xmlns="http://www.w3.org/2000/svg" xmlns:xlink="http://www.w3.org/1999/xlink" width="773" height="524" viewBox="0 0 773 524">
  <defs>
    <clipPath id="clip-path">
      <rect id="Rectangle_1768" data-name="Rectangle 1768" width="5.753" height="7.944" fill="#fff"/>
    </clipPath>
    <filter id="Rectangle_4677" x="153.5" y="142.5" width="435" height="137" filterUnits="userSpaceOnUse">
      <feOffset dy="15" input="SourceAlpha"/>
      <feGaussianBlur stdDeviation="17.5" result="blur"/>
      <feFlood flood-opacity="0.161"/>
      <feComposite operator="in" in2="blur"/>
      <feComposite in="SourceGraphic"/>
    </filter>
    <filter id="Rectangle_4677-2" x="153.5" y="228.5" width="435" height="137" filterUnits="userSpaceOnUse">
      <feOffset dy="15" input="SourceAlpha"/>
      <feGaussianBlur stdDeviation="17.5" result="blur-2"/>
      <feFlood flood-opacity="0.161"/>
      <feComposite operator="in" in2="blur-2"/>
      <feComposite in="SourceGraphic"/>
    </filter>
    <filter id="Rectangle_4677-3" x="153.5" y="314.5" width="435" height="137" filterUnits="userSpaceOnUse">
      <feOffset dy="15" input="SourceAlpha"/>
      <feGaussianBlur stdDeviation="17.5" result="blur-3"/>
      <feFlood flood-opacity="0.161"/>
      <feComposite operator="in" in2="blur-3"/>
      <feComposite in="SourceGraphic"/>
    </filter>
  </defs>
  <g id="Notification" transform="translate(-7930 -13159)">
    <rect id="Rectangle_4678" data-name="Rectangle 4678" width="773" height="524" transform="translate(7930 13159)" fill="#f8fbfd"/>
    <g id="Group_5353" data-name="Group 5353" transform="translate(7778 4492)">
      <text id="اشترك_في_خدمتنا_البريدية" data-name="اشترك في خدمتنا البريدية" transform="translate(530 8793)" fill="#707070" font-size="14" font-family="DroidArabicKufi, Droid Arabic Kufi"><tspan x="0" y="0">اشترك في خدمتنا البريدية</tspan></text>
      <g id="Group_5350" data-name="Group 5350" transform="translate(275 8808)">
        <g id="Component_76_3" data-name="Component 76 – 3" transform="translate(82)">
          <g id="Rectangle_2180" data-name="Rectangle 2180" fill="#fff" stroke="#b1b1b1" stroke-width="1">
            <rect width="331" height="38" rx="3" stroke="none"/>
            <rect x="0.5" y="0.5" width="330" height="37" rx="2.5" fill="none"/>
          </g>
          <text id="بريدك_الالكتروني" data-name="بريدك الالكتروني" transform="translate(239 23)" fill="#aeafaf" font-size="10" font-family="DroidArabicKufi, Droid Arabic Kufi"><tspan x="0" y="0">بريدك الالكتروني</tspan></text>
        </g>
        <g id="Group_5351" data-name="Group 5351" transform="translate(0)">
          <rect id="Rectangle_2181" data-name="Rectangle 2181" width="77" height="38" rx="3" fill="#0273bd"/>
          <g id="Group_4962" data-name="Group 4962" transform="translate(20.309 10)">
            <text id="اشترك" transform="translate(9.797 13)" fill="#fff" font-size="10" font-family="DroidArabicKufi, Droid Arabic Kufi"><tspan x="0" y="0">اشترك</tspan></text>
            <g id="Group_4961" data-name="Group 4961" transform="translate(0 6)">
              <g id="Group_4794" data-name="Group 4794" clip-path="url(#clip-path)">
                <path id="Path_4969" data-name="Path 4969" d="M.146,3.7,4.653.142a.512.512,0,0,1,.707,0l.393.312L1.676,3.7a.342.342,0,0,0,0,.564L5.753,7.484l-.393.344a.592.592,0,0,1-.707,0L.146,4.267a.345.345,0,0,1,0-.564" transform="translate(0 0)" fill="#fff" fill-rule="evenodd"/>
              </g>
            </g>
          </g>
        </g>
      </g>
    </g>
    <g id="Group_7246" data-name="Group 7246" transform="translate(7766 12927)">
      <g transform="matrix(1, 0, 0, 1, 164, 232)" filter="url(#Rectangle_4677)">
        <rect id="Rectangle_4677-4" data-name="Rectangle 4677" width="330" height="32" rx="8" transform="translate(206 180)" fill="#54e1a5"/>
      </g>
      <g id="Group_7245" data-name="Group 7245" transform="translate(419.251 417)">
        <text id="تم_الإشتراك_في_الخدمة_بنجـاح_شكراً_لك" data-name="تم الإشتراك في الخدمة بنجـاح &quot;شكراً لك" transform="translate(25.738 15)" fill="#fff" font-size="10" font-family="DroidArabicKufi-Bold, Droid Arabic Kufi" font-weight="700"><tspan x="0" y="0">شكراً لك</tspan><tspan y="0" font-size="12" font-family="SegoeUI, Segoe UI" font-weight="400">&quot;</tspan><tspan y="0" font-size="12">بنجـاح </tspan><tspan y="0" font-size="12" font-family="DroidArabicKufi, Droid Arabic Kufi" font-weight="400">تم الإشتراك في الخدمة </tspan></text>
        <path id="Path_18738" data-name="Path 18738" d="M11.751,5.859a.32.32,0,0,1-.011.452l-4.693,4.48a.32.32,0,0,1-.442,0L4.259,8.551A.32.32,0,0,1,4.7,8.089l2.126,2.029L11.3,5.849a.32.32,0,0,1,.452.011ZM16,8a8.009,8.009,0,1,1-2.346-5.654A8,8,0,0,1,16,8Zm-.64,0A7.368,7.368,0,1,0,13.2,13.2,7.36,7.36,0,0,0,15.36,8Z" transform="translate(0 3.5)" fill="#fff"/>
        <path id="Path_18738_-_Outline" data-name="Path 18738 - Outline" d="M8-.25H8a8.25,8.25,0,0,1,3.157,15.872A8.25,8.25,0,1,1,8-.25Zm0,16A7.75,7.75,0,1,0,6.488,15.6,7.712,7.712,0,0,0,8,15.75ZM8,.39A7.61,7.61,0,0,1,8,15.61H8A7.61,7.61,0,0,1,8,.39ZM8,15.11a7.11,7.11,0,1,0-3.95-1.2A7.073,7.073,0,0,0,8,15.11Zm3.52-9.6h.013a.57.57,0,0,1,.38.982L7.22,10.972a.57.57,0,0,1-.787,0L4.086,8.732a.57.57,0,0,1,.38-.981h.014a.568.568,0,0,1,.392.156L6.827,9.772l4.3-4.1a.57.57,0,0,1,.393-.158ZM6.827,10.63a.07.07,0,0,0,.048-.019l4.693-4.48a.07.07,0,0,0-.047-.121h0a.07.07,0,0,0-.048.019L6.827,10.463l-2.3-2.194a.074.074,0,0,0-.1,0,.07.07,0,0,0,0,.1l2.346,2.239A.07.07,0,0,0,6.827,10.63Z" transform="translate(0 3.5)" fill="#fff"/>
        <path id="Path_18742" data-name="Path 18742" d="M2.466,8,2.291,10.6H1.62L1.445,8ZM4.4,8,4.228,10.6H3.557L3.382,8Z" transform="translate(21.336 -1.361)" fill="#fff"/>
      </g>
    </g>
    <text id="_54E1A5" data-name="#54E1A5" transform="translate(8500.5 13360)" fill="#54e1a5" font-size="20" font-family="SegoeUI, Segoe UI"><tspan x="0" y="0">#54E1A5</tspan></text>
    <text id="_54E1A5-2" data-name="#54E1A5" transform="translate(8500.5 13446)" fill="#ec6666" font-size="20" font-family="SegoeUI, Segoe UI"><tspan x="0" y="0">#54E1A5</tspan></text>
    <text id="_54E1A5-3" data-name="#54E1A5" transform="translate(8500.5 13532)" fill="#fe9b01" font-size="20" font-family="SegoeUI, Segoe UI"><tspan x="0" y="0">#54E1A5</tspan></text>
    <g id="Group_7247" data-name="Group 7247" transform="translate(7766 13014)">
      <g transform="matrix(1, 0, 0, 1, 164, 145)" filter="url(#Rectangle_4677-2)">
        <rect id="Rectangle_4677-5" data-name="Rectangle 4677" width="330" height="32" rx="8" transform="translate(206 266)" fill="#ec6666"/>
      </g>
      <g id="Group_7245-2" data-name="Group 7245" transform="translate(417.25 416)">
        <text id="البريد_الإلكتروني_الذي_أدخلته_غير_صحيح_" data-name="البريد الإلكتروني الذي أدخلته غير صحيح " transform="translate(25.738 15)" fill="#fff" font-size="12" font-family="DroidArabicKufi-Bold, Droid Arabic Kufi" font-weight="700"><tspan x="0" y="0">غير صحيح</tspan><tspan y="0" font-family="DroidArabicKufi, Droid Arabic Kufi" font-weight="400">البريد الإلكتروني الذي أدخلته </tspan><tspan y="0"> </tspan></text>
        <g id="Group_7248" data-name="Group 7248" transform="translate(-53 3.25)">
          <path id="Path_18736" data-name="Path 18736" d="M74.782,16.1a.327.327,0,0,1,0,.462L72.4,18.939l2.381,2.381a.327.327,0,0,1-.462.462L71.939,19.4l-2.381,2.381a.327.327,0,0,1-.462-.462l2.381-2.381L69.1,16.557a.327.327,0,1,1,.462-.462l2.381,2.381L74.32,16.1A.327.327,0,0,1,74.782,16.1Z" transform="translate(-10.776 -10.776)" fill="#fff" fill-rule="evenodd"/>
          <path id="Path_18736_-_Outline" data-name="Path 18736 - Outline" d="M69.327,15.75a.573.573,0,0,1,.408.169l2.2,2.2,2.2-2.2a.577.577,0,1,1,.815.815l-2.2,2.2,2.2,2.2a.577.577,0,0,1-.815.815l-2.2-2.2-2.2,2.2a.577.577,0,1,1-.815-.815l2.2-2.2-2.2-2.2a.577.577,0,0,1,.408-.984Zm2.612,3.081-2.558-2.558a.077.077,0,0,0-.108.108l2.558,2.558L69.272,21.5a.077.077,0,0,0,.108.108l2.558-2.558L74.5,21.605a.077.077,0,0,0,.108-.108l-2.558-2.558,2.558-2.558a.077.077,0,1,0-.108-.108Z" transform="translate(-10.776 -10.776)" fill="#fff"/>
          <path id="Path_18737" data-name="Path 18737" d="M61,.653A7.347,7.347,0,1,0,68.347,8,7.347,7.347,0,0,0,61,.653ZM53,8a8,8,0,1,1,8,8A8,8,0,0,1,53,8Z" fill="#fff" fill-rule="evenodd"/>
          <path id="Path_18737_-_Outline" data-name="Path 18737 - Outline" d="M61-.25A8.25,8.25,0,1,1,52.75,8,8.259,8.259,0,0,1,61-.25Zm0,16A7.75,7.75,0,1,0,53.25,8,7.759,7.759,0,0,0,61,15.75ZM61,.4A7.6,7.6,0,1,1,53.4,8,7.606,7.606,0,0,1,61,.4ZM61,15.1A7.1,7.1,0,1,0,53.9,8,7.1,7.1,0,0,0,61,15.1Z" fill="#fff"/>
        </g>
      </g>
    </g>
    <g id="Group_7249" data-name="Group 7249" transform="translate(7766 13100)">
      <g transform="matrix(1, 0, 0, 1, 164, 59)" filter="url(#Rectangle_4677-3)">
        <rect id="Rectangle_4677-6" data-name="Rectangle 4677" width="330" height="32" rx="8" transform="translate(206 352)" fill="#fe9b01"/>
      </g>
      <g id="Group_7251" data-name="Group 7251" transform="translate(409.25 415)">
        <text id="البريد_الاكتروني_الذي_أدخلته_مسجل_بالفعل" data-name="البريد الاكتروني الذي أدخلته مسجل بالفعل" transform="translate(24.738 16)" fill="#fff" font-size="12" font-family="DroidArabicKufi-Bold, Droid Arabic Kufi" font-weight="700"><tspan x="0" y="0">مسجل </tspan><tspan y="0" font-family="DroidArabicKufi, Droid Arabic Kufi" font-weight="400">البريد الاكتروني الذي أدخلته مسجل ب</tspan></text>
        <g id="Group_7250" data-name="Group 7250" transform="translate(2.75 4)">
          <path id="Path_18739" data-name="Path 18739" d="M8,15a7,7,0,1,0-4.95-2.05A7,7,0,0,0,8,15Zm0,1a8,8,0,1,0-5.657-2.343A8,8,0,0,0,8,16Z" fill="#fff" fill-rule="evenodd"/>
          <path id="Path_18740" data-name="Path 18740" d="M8.93,6.578l-2.29.287-.082.38.45.083c.294.07.352.176.288.469l-.738,3.468c-.194.9.105,1.319.808,1.319a2.071,2.071,0,0,0,1.465-.6l.088-.416a1.108,1.108,0,0,1-.686.246c-.275,0-.375-.193-.3-.533Z" fill="#fff"/>
          <path id="Path_18741" data-name="Path 18741" d="M8,5.5a1,1,0,1,0-1-1A1,1,0,0,0,8,5.5Z" fill="#fff"/>
        </g>
      </g>
    </g>
  </g>
</svg>
