<svg xmlns="http://www.w3.org/2000/svg" width="80.575" height="72.957" viewBox="0 0 80.575 72.957">
  <path id="Path_18776" data-name="Path 18776" d="M-5.567-121.009c13.478-12.6,25.491-31.058,25.491-50.689,0-13.771-10.255-22.268-19.338-22.268a15.7,15.7,0,0,0-15.822,15.529c0,11.427,8.5,16.994,20.217,16.994,0,12.306-3.516,19.924-16.994,33.988Zm45.415,0c13.185-12.6,25.491-31.058,25.491-50.689,0-13.771-10.255-22.268-19.631-22.268a15.632,15.632,0,0,0-15.529,15.529c0,11.427,8.2,16.994,19.924,16.994,0,12.306-3.223,19.924-16.7,33.988Z" transform="translate(15.236 193.966)" fill="#29abe2"/>
</svg>
