<svg id="Strategic_consulting-rafiki" data-name="Strategic consulting-rafiki" xmlns="http://www.w3.org/2000/svg" width="345.126" height="307.244" viewBox="0 0 345.126 307.244">
  <g id="freepik--background-simple--inject-17" transform="translate(7.726)">
    <path id="Path_9121" data-name="Path 9121" d="M224.955,83.515c19.447,2.278,43.112,11.508,56.773,26.478,10.3,11.294,16.4,25.6,18.69,40.62,2.474,16.091-2.314,32.147-.774,48.229.828,8.651,3.631,17.346,9.4,23.843,10.965,12.335,27.368,11.526,41.928,16.02,26.006,8.063,44.046,35.689,36.152,62.71-6.088,20.871-24.413,31.72-44.66,35.769-35.324,7.049-67.907-3.613-96.7-23.647-6.8-4.726-14.436-8.962-22.713-9.14-14.7-.32-30.946,9.674-44.945,13.929-16.5,5.011-33.945,8.126-51.051,4.379-31.043-6.782-49.369-32.93-56.569-62.389-7.254-29.735-8.571-61.677,1.922-90.879a128.7,128.7,0,0,1,52.448-65.513C154.075,85.5,190.966,79.546,224.955,83.515Z" transform="translate(-64.79 -82.344)" fill="#e5f7ff"/>
  </g>
  <g id="freepik--Shadow--inject-17" transform="translate(0 287.094)">
    <ellipse id="freepik--path--inject-17" cx="172.563" cy="10.075" rx="172.563" ry="10.075" fill="#f5f5f5"/>
  </g>
  <g id="freepik--Plant--inject-17" transform="translate(273.524 207.959)">
    <path id="Path_9122" data-name="Path 9122" d="M384.31,323.71c.187,1.308-3.364,2.163-6.23,2.67.231,2.376,1.78,4.77,4,7.013,2.75-1.549,6.666-3.56,7.387-3.088s-3.222,3.142-5.732,4.664a51.627,51.627,0,0,0,5.687,4.308c1.228-1.148,2.67-2.154,3.56-1.611s.65,2.341.2,3.934c2.99,1.78,5.224,2.8,5.224,2.8a60.066,60.066,0,0,0,1.994-8.482c-.151-.3-.294-.605-.436-.89-.481-1.112,0-1.593.783-1.78a29.921,29.921,0,0,0,.053-6.114c-3.382-.7-7.494-2.02-5.954-4.049.89-1.219,2.626-1.362,4.4-1.05a7.663,7.663,0,0,0-.837-1.139c-6.15-6.782-10.449,0-10.449,0-3.56-2.982-8.6-2.172-9.683,2.483C380.234,322.855,384.079,322.09,384.31,323.71Z" transform="translate(-365.049 -316.211)" fill="#407bff"/>
    <path id="Path_9123" data-name="Path 9123" d="M391.613,374.055l-.89-.071c0-.454,3.64-45.853-6.55-50.134a3.453,3.453,0,0,0-3.088.071c-3.676,1.922-5.447,9.87-5.465,9.95l-.89-.2c.071-.338,1.869-8.428,5.919-10.538a4.352,4.352,0,0,1,3.845-.107C395.307,327.552,391.774,372.159,391.613,374.055Z" transform="translate(-364.68 -316.734)" fill="#407bff"/>
    <path id="Path_9124" data-name="Path 9124" d="M394.992,372.347c-.187-2.047-4.343-50.081,3.435-55.18,1.86-1.219,3.56-1.486,4.94-.765,3.676,1.851,4.156,9.71,4.174,10.039l-.89.053c0-.08-.472-7.681-3.685-9.3-1.113-.561-2.474-.32-4.05.721-7.343,4.806-3.088,53.854-3.044,54.353Z" transform="translate(-366.769 -316.005)" fill="#407bff"/>
    <path id="Path_9125" data-name="Path 9125" d="M396.444,378.477c-.062-1.566-1.344-38.333,5.741-41.554a4.975,4.975,0,0,1,4.21,0c4.859,2.136,7.868,11.187,8.01,11.57l-.845.276c0-.089-3.008-9.06-7.5-11.036a4.04,4.04,0,0,0-3.48,0c-5.438,2.474-5.616,30.26-5.224,40.709Z" transform="translate(-367.054 -318.254)" fill="#407bff"/>
    <path id="Path_9126" data-name="Path 9126" d="M393.413,376.2l-.89-.1c1.246-10.947,3.631-40.1-.267-43.61a1.522,1.522,0,0,0-1.593-.5c-2.608,1.006-4.2,10.493-4.592,14.062l-.89-.1c.151-1.371,1.566-13.412,5.153-14.792a2.377,2.377,0,0,1,2.51.659C397.9,336.345,393.6,374.615,393.413,376.2Z" transform="translate(-365.83 -317.659)" fill="#407bff"/>
    <path id="Path_9127" data-name="Path 9127" d="M377.75,358.47h31.969l-2.67,35.814H380.42Z" transform="translate(-365.012 -320.676)" fill="#263238"/>
    <path id="Path_9128" data-name="Path 9128" d="M382,343.256c-.329.89-2.812.187-4.762-.507a8.866,8.866,0,0,0,.053,5.7c2.225,0,5.34.062,5.616.623s-3.062.828-5.135.89a36.9,36.9,0,0,0,2.029,4.61c1.157-.285,2.394-.418,2.732.214s-.4,1.673-1.219,2.5c1.246,2.092,2.261,3.516,2.261,3.516a41.741,41.741,0,0,0,4.139-4.548,3.879,3.879,0,0,1,.044-.712c.089-.89.534-.988,1.086-.81a20.98,20.98,0,0,0,2.118-3.747c-1.842-1.6-3.925-3.818-2.278-4.539.988-.436,2.083.062,3.071.89a4.547,4.547,0,0,0-.125-.988c-1.469-6.292-6.444-3.56-6.444-3.56-1.184-3.071-4.557-4.29-6.817-1.78C379.78,341.334,382.406,342.179,382,343.256Z" transform="translate(-364.907 -318.607)" fill="#407bff"/>
    <path id="Path_9129" data-name="Path 9129" d="M382,343.256c-.329.89-2.812.187-4.762-.507a8.866,8.866,0,0,0,.053,5.7c2.225,0,5.34.062,5.616.623s-3.062.828-5.135.89a36.9,36.9,0,0,0,2.029,4.61c1.157-.285,2.394-.418,2.732.214s-.4,1.673-1.219,2.5c1.246,2.092,2.261,3.516,2.261,3.516a41.741,41.741,0,0,0,4.139-4.548,3.879,3.879,0,0,1,.044-.712c.089-.89.534-.988,1.086-.81a20.98,20.98,0,0,0,2.118-3.747c-1.842-1.6-3.925-3.818-2.278-4.539.988-.436,2.083.062,3.071.89a4.547,4.547,0,0,0-.125-.988c-1.469-6.292-6.444-3.56-6.444-3.56-1.184-3.071-4.557-4.29-6.817-1.78C379.78,341.334,382.406,342.179,382,343.256Z" transform="translate(-364.907 -318.607)" fill="#fff" opacity="0.3"/>
    <path id="Path_9130" data-name="Path 9130" d="M408.9,347.437a12.515,12.515,0,0,0-2.928.614,7.057,7.057,0,0,1-.427-2.109c-.2-6.453,4.45-3.738,6.853-5.625a5.233,5.233,0,0,1,4.085-1.282,8.575,8.575,0,0,0-.561,1.1,1.024,1.024,0,0,0,.783,1.38,2.964,2.964,0,0,0,1.78-.214,3.352,3.352,0,0,0,.463-.329,9.21,9.21,0,0,1,.89,2.163,12.461,12.461,0,0,1,.409,2.759,9.8,9.8,0,0,0-1.077.3,1.006,1.006,0,0,0-.4,1.531,4.548,4.548,0,0,0,1.326.935,15.289,15.289,0,0,1-.81,3.026l-.329.044a6.611,6.611,0,0,0-.694.178,2.774,2.774,0,0,0-.383.133,1.05,1.05,0,0,0-.605.783,1,1,0,0,0,.383.89,2.883,2.883,0,0,0,.481.294,7.183,7.183,0,0,1-2.563,2.581,26.762,26.762,0,0,1-2.714-1.442c.2-.258.392-.516.57-.783a1.5,1.5,0,0,0,.267-1.006,1.4,1.4,0,0,0-.516-.89,1.433,1.433,0,0,0-1.015-.267,1.353,1.353,0,0,0-.89.516,9.01,9.01,0,0,1-.685.89,17.009,17.009,0,0,1-3.275-3.177h.1a9.675,9.675,0,0,1,1.78-.3,1.373,1.373,0,0,0-.347-2.723Z" transform="translate(-368.069 -318.534)" fill="#407bff"/>
    <path id="Path_9131" data-name="Path 9131" d="M408.9,347.437a12.515,12.515,0,0,0-2.928.614,7.057,7.057,0,0,1-.427-2.109c-.2-6.453,4.45-3.738,6.853-5.625a5.233,5.233,0,0,1,4.085-1.282,8.575,8.575,0,0,0-.561,1.1,1.024,1.024,0,0,0,.783,1.38,2.964,2.964,0,0,0,1.78-.214,3.352,3.352,0,0,0,.463-.329,9.21,9.21,0,0,1,.89,2.163,12.461,12.461,0,0,1,.409,2.759,9.8,9.8,0,0,0-1.077.3,1.006,1.006,0,0,0-.4,1.531,4.548,4.548,0,0,0,1.326.935,15.289,15.289,0,0,1-.81,3.026l-.329.044a6.611,6.611,0,0,0-.694.178,2.774,2.774,0,0,0-.383.133,1.05,1.05,0,0,0-.605.783,1,1,0,0,0,.383.89,2.883,2.883,0,0,0,.481.294,7.183,7.183,0,0,1-2.563,2.581,26.762,26.762,0,0,1-2.714-1.442c.2-.258.392-.516.57-.783a1.5,1.5,0,0,0,.267-1.006,1.4,1.4,0,0,0-.516-.89,1.433,1.433,0,0,0-1.015-.267,1.353,1.353,0,0,0-.89.516,9.01,9.01,0,0,1-.685.89,17.009,17.009,0,0,1-3.275-3.177h.1a9.675,9.675,0,0,1,1.78-.3,1.373,1.373,0,0,0-.347-2.723Z" transform="translate(-368.069 -318.534)" fill="#fff" opacity="0.5"/>
    <path id="Path_9132" data-name="Path 9132" d="M410.386,323.03a8.8,8.8,0,0,1,1.78-.961,4.726,4.726,0,0,0-.7-1.3c-2.723-3.48-3.952,0-6.07.053a3.56,3.56,0,0,0-2.67,1.121,5.993,5.993,0,0,1,.774.338.685.685,0,0,1,.2,1.068,2.092,2.092,0,0,1-1.041.676,1.937,1.937,0,0,1-.392,0,5.911,5.911,0,0,0,.481,1.522,8.5,8.5,0,0,0,1,1.629,6.1,6.1,0,0,1,.694-.312.694.694,0,0,1,.89.632,3.232,3.232,0,0,1-.294,1.077,10.938,10.938,0,0,0,1.78,1.228l.2-.116a4.1,4.1,0,0,1,.445-.214.891.891,0,0,1,.258-.1.721.721,0,0,1,.667.142.7.7,0,0,1,.2.659,1.778,1.778,0,0,1-.125.365,4.9,4.9,0,0,0,2.474.231,18.532,18.532,0,0,0,.8-1.949c-.214-.045-.436-.1-.641-.16a1,1,0,0,1-.587-.409.952.952,0,0,1-.125-.712.89.89,0,0,1,.409-.587.97.97,0,0,1,.7-.125c.258.071.507.134.765.187a11.634,11.634,0,0,0,.329-3.106h-.062a6.765,6.765,0,0,0-1.095.641.938.938,0,1,1-1.006-1.584Z" transform="translate(-367.708 -316.359)" fill="#407bff"/>
    <path id="Path_9133" data-name="Path 9133" d="M410.386,323.03a8.8,8.8,0,0,1,1.78-.961,4.726,4.726,0,0,0-.7-1.3c-2.723-3.48-3.952,0-6.07.053a3.56,3.56,0,0,0-2.67,1.121,5.993,5.993,0,0,1,.774.338.685.685,0,0,1,.2,1.068,2.092,2.092,0,0,1-1.041.676,1.937,1.937,0,0,1-.392,0,5.911,5.911,0,0,0,.481,1.522,8.5,8.5,0,0,0,1,1.629,6.1,6.1,0,0,1,.694-.312.694.694,0,0,1,.89.632,3.232,3.232,0,0,1-.294,1.077,10.938,10.938,0,0,0,1.78,1.228l.2-.116a4.1,4.1,0,0,1,.445-.214.891.891,0,0,1,.258-.1.721.721,0,0,1,.667.142.7.7,0,0,1,.2.659,1.778,1.778,0,0,1-.125.365,4.9,4.9,0,0,0,2.474.231,18.532,18.532,0,0,0,.8-1.949c-.214-.045-.436-.1-.641-.16a1,1,0,0,1-.587-.409.952.952,0,0,1-.125-.712.89.89,0,0,1,.409-.587.97.97,0,0,1,.7-.125c.258.071.507.134.765.187a11.634,11.634,0,0,0,.329-3.106h-.062a6.765,6.765,0,0,0-1.095.641.938.938,0,1,1-1.006-1.584Z" transform="translate(-367.708 -316.359)" fill="#fff" opacity="0.3"/>
    <path id="Path_9134" data-name="Path 9134" d="M380.065,330.03c-.187,1.308,3.355,2.172,6.23,2.67-.24,2.376-1.78,4.779-4.005,7.022-2.741-1.549-6.666-3.56-7.387-3.1s3.222,3.142,5.732,4.673a51.513,51.513,0,0,1-5.678,4.308c-1.237-1.157-2.67-2.163-3.56-1.62s-.65,2.35-.214,3.934c-2.982,1.78-5.224,2.8-5.224,2.8a60.084,60.084,0,0,1-1.994-8.482c.151-.294.3-.6.436-.89.481-1.112,0-1.584-.783-1.78a29.833,29.833,0,0,1-.044-6.105c3.382-.712,7.494-2.02,5.954-4.049-.89-1.228-2.67-1.362-4.406-1.059a7.665,7.665,0,0,1,.837-1.139c6.159-6.773,10.449,0,10.449,0,3.56-2.973,8.6-2.172,9.683,2.483C384.141,329.185,380.3,328.419,380.065,330.03Z" transform="translate(-363.438 -316.907)" fill="#407bff"/>
    <path id="Path_9135" data-name="Path 9135" d="M380.065,330.03c-.187,1.308,3.355,2.172,6.23,2.67-.24,2.376-1.78,4.779-4.005,7.022-2.741-1.549-6.666-3.56-7.387-3.1s3.222,3.142,5.732,4.673a51.513,51.513,0,0,1-5.678,4.308c-1.237-1.157-2.67-2.163-3.56-1.62s-.65,2.35-.214,3.934c-2.982,1.78-5.224,2.8-5.224,2.8a60.084,60.084,0,0,1-1.994-8.482c.151-.294.3-.6.436-.89.481-1.112,0-1.584-.783-1.78a29.833,29.833,0,0,1-.044-6.105c3.382-.712,7.494-2.02,5.954-4.049-.89-1.228-2.67-1.362-4.406-1.059a7.665,7.665,0,0,1,.837-1.139c6.159-6.773,10.449,0,10.449,0,3.56-2.973,8.6-2.172,9.683,2.483C384.141,329.185,380.3,328.419,380.065,330.03Z" transform="translate(-363.438 -316.907)" fill="#fff" opacity="0.5"/>
  </g>
  <g id="freepik--character-1--inject-17" transform="translate(54.372 109.713)">
    <path id="Path_9136" data-name="Path 9136" d="M184.305,411.434l-22.437-8.259-22.677,8.268a1.2,1.2,0,0,1-1.611-1.13h0a1.21,1.21,0,0,1,.694-1.086l23.594-10.947,23.354,10.947a1.184,1.184,0,0,1,.694,1.086h0a1.193,1.193,0,0,1-1.611,1.121Z" transform="translate(-119.443 -226.808)" fill="#263238"/>
    <path id="Path_9137" data-name="Path 9137" d="M184.305,411.434l-22.437-8.259-22.677,8.268a1.2,1.2,0,0,1-1.611-1.13h0a1.21,1.21,0,0,1,.694-1.086l23.594-10.947,23.354,10.947a1.184,1.184,0,0,1,.694,1.086h0a1.193,1.193,0,0,1-1.611,1.121Z" transform="translate(-119.443 -226.808)" fill="#fff" opacity="0.3"/>
    <path id="Path_9138" data-name="Path 9138" d="M158.93,405.1l5.287-1.922,5.046,1.86v-4.4l-5.046-2.359-5.287,2.448Z" transform="translate(-121.792 -226.808)" opacity="0.2"/>
    <path id="Path_9139" data-name="Path 9139" d="M164.417,405.419h0a1.994,1.994,0,0,1-1.985-1.78l-.632-6.648V341.81h5.224v55.18l-.632,6.648A1.994,1.994,0,0,1,164.417,405.419Z" transform="translate(-122.107 -220.597)" fill="#263238"/>
    <path id="Path_9140" data-name="Path 9140" d="M164.417,405.419h0a1.994,1.994,0,0,1-1.985-1.78l-.632-6.648V341.81h5.224v55.18l-.632,6.648A1.994,1.994,0,0,1,164.417,405.419Z" transform="translate(-122.107 -220.597)" fill="#fff" opacity="0.3"/>
    <rect id="Rectangle_3316" data-name="Rectangle 3316" width="5.233" height="6.426" transform="translate(39.693 121.169)" opacity="0.2"/>
    <path id="Path_9141" data-name="Path 9141" d="M147.779,277.87a2.225,2.225,0,0,1,2,1.148,77.342,77.342,0,0,1,9.683,53.4,1.958,1.958,0,0,1-1.869,1.736c-1.451.107-27.27,0-28.2,0a2.6,2.6,0,0,1-2.626-3.026,72.2,72.2,0,0,0-9.194-49.653,2.394,2.394,0,0,1,2.163-3.56C120.483,277.852,146.133,277.9,147.779,277.87Z" transform="translate(-117.209 -213.563)" fill="#407bff"/>
    <path id="Path_9142" data-name="Path 9142" d="M147.779,277.87a2.225,2.225,0,0,1,2,1.148,77.342,77.342,0,0,1,9.683,53.4,1.958,1.958,0,0,1-1.869,1.736c-1.451.107-27.27,0-28.2,0a2.6,2.6,0,0,1-2.626-3.026,72.2,72.2,0,0,0-9.194-49.653,2.394,2.394,0,0,1,2.163-3.56C120.483,277.852,146.133,277.9,147.779,277.87Z" transform="translate(-117.209 -213.563)" opacity="0.2"/>
    <path id="Path_9143" data-name="Path 9143" d="M126.759,331.11a72.2,72.2,0,0,0-9.194-49.653c-1.611-2.67,2.563-5.1,4.165-2.439a77.341,77.341,0,0,1,9.683,53.4c-.552,3.053-5.207,1.78-4.655-1.282Z" transform="translate(-117.202 -213.563)" fill="#407bff"/>
    <g id="Group_5391" data-name="Group 5391" transform="translate(0 64.303)" opacity="0.1">
      <path id="Path_9144" data-name="Path 9144" d="M126.759,331.11a72.2,72.2,0,0,0-9.194-49.653c-1.611-2.67,2.563-5.1,4.165-2.439a77.341,77.341,0,0,1,9.683,53.4c-.552,3.053-5.207,1.78-4.655-1.282Z" transform="translate(-117.202 -277.866)" fill="#fff"/>
    </g>
    <path id="Path_9145" data-name="Path 9145" d="M208.992,335.8a81.311,81.311,0,0,0-18.1-2.492c-6.283-.16-29.815,0-35.4,0a81.488,81.488,0,0,0-20.2,2.519c-4.147,1.059-2.866,7.04.89,7.12h71.717C211.8,343.092,213.229,336.88,208.992,335.8Z" transform="translate(-118.907 -219.654)" fill="#407bff"/>
    <path id="Path_9146" data-name="Path 9146" d="M208.992,335.8a81.311,81.311,0,0,0-18.1-2.492c-6.283-.16-29.815,0-35.4,0a81.488,81.488,0,0,0-20.2,2.519c-4.147,1.059-2.866,7.04.89,7.12h71.717C211.8,343.092,213.229,336.88,208.992,335.8Z" transform="translate(-118.907 -219.654)" opacity="0.3"/>
    <path id="Path_9147" data-name="Path 9147" d="M137.213,342.825a74.093,74.093,0,0,1,36.553,0c4.512,1.148,6.444-5.838,1.922-6.987a82.147,82.147,0,0,0-40.406,0C130.77,336.986,132.683,343.973,137.213,342.825Z" transform="translate(-118.907 -219.662)" fill="#407bff"/>
    <g id="Group_5392" data-name="Group 5392" transform="translate(13.8 113.653)" opacity="0.3">
      <path id="Path_9148" data-name="Path 9148" d="M137.213,342.825a74.093,74.093,0,0,1,36.553,0c4.512,1.148,6.444-5.838,1.922-6.987a82.147,82.147,0,0,0-40.406,0C130.77,336.986,132.683,343.973,137.213,342.825Z" transform="translate(-132.708 -333.315)" fill="#fff"/>
    </g>
    <rect id="Rectangle_3317" data-name="Rectangle 3317" width="31.862" height="12.772" transform="translate(30.49 88.043)" fill="#263238"/>
    <rect id="Rectangle_3318" data-name="Rectangle 3318" width="31.862" height="12.772" transform="translate(30.49 88.043)" fill="#fff" opacity="0.2"/>
    <path id="Path_9149" data-name="Path 9149" d="M206.012,380.74l-4.192,18.254,5.207,2.011,7.494-18.352Z" transform="translate(-126.509 -224.879)" fill="#fff"/>
    <path id="Path_9150" data-name="Path 9150" d="M206.225,401.85l-4.744-2.528a.5.5,0,0,0-.614.116l-3.382,3.907a.828.828,0,0,0,.08,1.166.889.889,0,0,0,.142.107c1.985,1.023,3.791,1.851,6.23,3.177,2.884,1.558,1.967,1.5,5.34,3.382,2.029,1.13,3.658-1,2.848-1.575-3.7-2.67-4.192-4.45-4.957-6.711a2.011,2.011,0,0,0-.943-1.041Z" transform="translate(-126.01 -226.916)" fill="#263238"/>
    <path id="Path_9151" data-name="Path 9151" d="M159.086,316.946l25.561-1.406s42.462,6.639,41.83,18.512-17.916,49.306-17.916,49.306l-10.137-2.812s7.725-37.638,12.754-43.877c0,0-31.711-3.72-39.65-5.838C167.2,329.673,156.674,331.64,159.086,316.946Z" transform="translate(-121.77 -217.707)" fill="#263238"/>
    <path id="Path_9152" data-name="Path 9152" d="M159.086,316.946l25.561-1.406s42.462,6.639,41.83,18.512-17.916,49.306-17.916,49.306l-10.137-2.812s7.725-37.638,12.754-43.877c0,0-31.711-3.72-39.65-5.838C167.2,329.673,156.674,331.64,159.086,316.946Z" transform="translate(-121.77 -217.707)" fill="#fff" opacity="0.2"/>
    <path id="Path_9153" data-name="Path 9153" d="M206.924,336.223a22.757,22.757,0,0,0-1.949-10.253c-2.359-5.34-21.8-8.526-31.1-9.79l-14.792.81c-2.412,14.694,8.117,12.727,12.46,13.884C177.661,332.538,197.988,335.128,206.924,336.223Z" transform="translate(-121.77 -217.777)" opacity="0.2"/>
    <path id="Path_9154" data-name="Path 9154" d="M186.938,386.39l-.668,18.717,5.634.267,3.747-18.717Z" transform="translate(-124.799 -225.5)" fill="#fff"/>
    <path id="Path_9155" data-name="Path 9155" d="M191.284,405.809l-5.465.116a.507.507,0,0,0-.49.4l-1.041,5.153a.89.89,0,0,0,.65,1.006h.178c2.278-.08,4.29-.249,7.12-.294,3.346-.062,2.5.356,6.435.338,2.367,0,2.75-2.67,1.78-2.821-4.6-.5-5.954-1.869-7.752-3.48a2.047,2.047,0,0,0-1.415-.418Z" transform="translate(-124.58 -227.635)" fill="#263238"/>
    <path id="Path_9156" data-name="Path 9156" d="M202.322,386.09l12.754,3.551-2.332,4.9-11.623-2.893Z" transform="translate(-126.432 -225.467)" fill="#263238"/>
    <path id="Path_9157" data-name="Path 9157" d="M202.322,386.09l12.754,3.551-2.332,4.9-11.623-2.893Z" transform="translate(-126.432 -225.467)" opacity="0"/>
    <path id="Path_9158" data-name="Path 9158" d="M164.768,317.12s34.212,1.21,36.223,11.677-9.452,57.352-9.452,57.352H181.269s1.21-42.062,4.637-50.917c0,0-28.178,4.45-35.6-1.967-5.34-4.566,1.006-16.145,1.006-16.145Z" transform="translate(-120.608 -217.881)" fill="#263238"/>
    <path id="Path_9159" data-name="Path 9159" d="M164.768,317.12s34.212,1.21,36.223,11.677-9.452,57.352-9.452,57.352H181.269s1.21-42.062,4.637-50.917c0,0-28.178,4.45-35.6-1.967-5.34-4.566,1.006-16.145,1.006-16.145Z" transform="translate(-120.608 -217.881)" fill="#fff" opacity="0.2"/>
    <path id="Path_9160" data-name="Path 9160" d="M184.23,391.74l12.887.605-1.21,5.135-11.677-.605Z" transform="translate(-124.575 -226.089)" fill="#263238"/>
    <path id="Path_9161" data-name="Path 9161" d="M184.23,391.74l12.887.605-1.21,5.135-11.677-.605Z" transform="translate(-124.575 -226.089)" opacity="0"/>
    <path id="Path_9162" data-name="Path 9162" d="M217.526,271.719l5.482-2.047-4.673-4.512s-4.779,2.127-3.56,4.548Z" transform="translate(-127.912 -212.166)" fill="#fff"/>
    <path id="Path_9163" data-name="Path 9163" d="M227.059,264.8l-5.331-2.51-2.928,2.563,4.673,4.5Z" transform="translate(-128.377 -211.85)" fill="#fff"/>
    <path id="Path_9164" data-name="Path 9164" d="M210.06,272.366l3.231-3.516,4.317,3.676-3.5,4.139Z" transform="translate(-127.416 -212.571)" fill="#407bff"/>
    <path id="Path_9165" data-name="Path 9165" d="M210.06,272.366l3.231-3.516,4.317,3.676-3.5,4.139Z" transform="translate(-127.416 -212.571)" fill="#fff" opacity="0.8"/>
    <path id="Path_9166" data-name="Path 9166" d="M185.453,248.48s3.373,3.827,8.241,16.367,10.262,8.9,16.18,2.118l4.868,4.45s-9.1,11.348-14.827,11.348c-6.372,0-12.558-9.888-13.8-16.786S185.453,248.48,185.453,248.48Z" transform="translate(-124.694 -210.331)" fill="#263238"/>
    <path id="Path_9167" data-name="Path 9167" d="M186.48,256.433l-1.78-1.513-.89,4.824c.125,1.4.285,2.768.507,4.005.712,3.943,3.382,9.1,6.23,13.395a160.453,160.453,0,0,0-4.067-20.71Z" transform="translate(-124.528 -211.039)" opacity="0.4"/>
    <path id="Path_9168" data-name="Path 9168" d="M147.661,285.373l.507,26.113,19.224.65c2.51,0,3.1-1.673,3.622-3.56l.943-3.409.837,3.079c.507,1.887,3.142,2.2,5.046,1.78l8.375-2.074-1.922-25.712s1.291-19.367-1.78-31.764a6.648,6.648,0,0,0-5.091-4.575,50.81,50.81,0,0,0-30.055,2.278,2.884,2.884,0,0,0-1.78,3.026Z" transform="translate(-120.322 -209.906)" fill="#263238"/>
    <path id="Path_9169" data-name="Path 9169" d="M174.512,277.9a.8.8,0,1,1-.8-.8.8.8,0,0,1,.8.8Z" transform="translate(-123.329 -213.479)" opacity="0.5"/>
    <path id="Path_9170" data-name="Path 9170" d="M175.392,290.311a.8.8,0,1,1-.8-.8A.8.8,0,0,1,175.392,290.311Z" transform="translate(-123.426 -214.844)" opacity="0.5"/>
    <path id="Path_9171" data-name="Path 9171" d="M175.8,302.591a.8.8,0,1,1-.792-.8A.8.8,0,0,1,175.8,302.591Z" transform="translate(-123.471 -216.195)" opacity="0.5"/>
    <path id="Path_9172" data-name="Path 9172" d="M160.138,244.128a16.981,16.981,0,0,1,9.568-.668l1.967,1.121.685,2.181-2.483,1.949-5.874.605-4.851-2.011.267-2.154Z" transform="translate(-121.816 -209.735)" fill="#263238"/>
    <path id="Path_9173" data-name="Path 9173" d="M170.935,243.963c-1.949-.525-3.329-3.916-1.727-6.1L160.7,231.28c1.246,11.882.632,9.719-1.13,13.136,0,0,1.219,3.961,8.081,2.732C172.1,246.348,170.935,243.963,170.935,243.963Z" transform="translate(-121.862 -208.439)" fill="#fff"/>
    <path id="Path_9174" data-name="Path 9174" d="M169.342,237.9l-8.562-6.346c.214,1.673.24,1.682.356,2.893.89,1.842,2.741,6.524,7.574,6.666A4.3,4.3,0,0,1,169.342,237.9Z" transform="translate(-121.995 -208.469)" opacity="0.2"/>
    <path id="Path_9175" data-name="Path 9175" d="M159.625,251.876l2.341,7.61,5.429,7.841,4.459,4.637,1.664-6.791-.534-14.178-.089-3.062-1.246-1.753-1.976,1.736-1.691.65-2.474.027-6.488-1.976Z" transform="translate(-121.802 -210.078)" fill="#407bff"/>
    <path id="Path_9176" data-name="Path 9176" d="M159.625,251.876l2.341,7.61,5.429,7.841,4.459,4.637,1.664-6.791-.534-14.178-.089-3.062-1.246-1.753-1.976,1.736-1.691.65-2.474.027-6.488-1.976Z" transform="translate(-121.802 -210.078)" fill="#407bff" opacity="0.8"/>
    <path id="Path_9177" data-name="Path 9177" d="M159.625,251.876l2.341,7.61,5.429,7.841,4.459,4.637,1.664-6.791-.534-14.178-.089-3.062-1.246-1.753-1.976,1.736-1.691.65-2.474.027-6.488-1.976Z" transform="translate(-121.802 -210.078)" fill="#fff" opacity="0.5"/>
    <path id="Path_9178" data-name="Path 9178" d="M165.59,251.35a10.377,10.377,0,0,0,2.528,3.222s-1.086,7.761.587,13.19l3.872,4.557,1.13-5.634s-1.78-9.007-4.058-12.416a14.338,14.338,0,0,0,1.291-3.72l-1.424-1.139s-1.931,1.379-3.088.418Z" transform="translate(-122.524 -210.433)" fill="#407bff"/>
    <path id="Path_9179" data-name="Path 9179" d="M159.434,244.963s3.56,3.053,7.182,3.053,4-3.756,4-3.756l1.513,1.638a10.68,10.68,0,0,1-1.237,5.474l-3.747-2.537L164.6,252.5a15.37,15.37,0,0,1-5.936-5.34Z" transform="translate(-121.762 -209.867)" fill="#407bff"/>
    <path id="Path_9180" data-name="Path 9180" d="M159.434,244.963s3.56,3.053,7.182,3.053,4-3.756,4-3.756l1.513,1.638a10.68,10.68,0,0,1-1.237,5.474l-3.747-2.537L164.6,252.5a15.37,15.37,0,0,1-5.936-5.34Z" transform="translate(-121.762 -209.867)" fill="#fff" opacity="0.8"/>
    <path id="Path_9181" data-name="Path 9181" d="M159.683,244.178s-2.937,9.051,11.57,26.317c0,0,2.6-21.155-1.958-26.985l3.168,1.255,3.293,4.975-2.412,1.549,2.982,1.326s-.427,6.862-4.628,20.052a75.842,75.842,0,0,1-15.718-17.275l2.893-2.305-3.863-.614,1.718-6.871Z" transform="translate(-121.361 -209.784)" fill="#263238"/>
    <path id="Path_9182" data-name="Path 9182" d="M159.683,244.178s-2.937,9.051,11.57,26.317c0,0,2.6-21.155-1.958-26.985l3.168,1.255,3.293,4.975-2.412,1.549,2.982,1.326s-.427,6.862-4.628,20.052a75.842,75.842,0,0,1-15.718-17.275l2.893-2.305-3.863-.614,1.718-6.871Z" transform="translate(-121.361 -209.784)" opacity="0.3"/>
    <path id="Path_9183" data-name="Path 9183" d="M146.05,254.793l3.765,20.977.436-.543a51.674,51.674,0,0,0-.819-21.058l-1.139.614Z" transform="translate(-120.375 -210.957)" opacity="0.4"/>
    <path id="Path_9184" data-name="Path 9184" d="M172.066,213.18s4.094,7.574.943,12.184-8.5-10.315-8.5-10.315Z" transform="translate(-122.405 -206.448)" fill="#263238"/>
    <path id="Path_9185" data-name="Path 9185" d="M174.7,229.71a7.657,7.657,0,0,1-.107.89,8.615,8.615,0,0,1-3.275,5.429,7.9,7.9,0,0,1-5.474,1.638,7.752,7.752,0,0,1-3.889-1.46c-3.56-2.537-4.147-6.105-5.571-12.06a8.375,8.375,0,0,1,9.915-10.262C172.666,215.256,175.078,224.058,174.7,229.71Z" transform="translate(-121.483 -206.504)" fill="#fff"/>
    <path id="Path_9186" data-name="Path 9186" d="M167.068,225.406c.053.49.418.846.739.783s.516-.507.427-1-.418-.837-.739-.783S167.006,224.934,167.068,225.406Z" transform="translate(-122.685 -207.683)" fill="#263238"/>
    <path id="Path_9187" data-name="Path 9187" d="M173.308,224.306c.053.49.418.837.739.783s.507-.507.427-1-.427-.837-.748-.783S173.228,223.834,173.308,224.306Z" transform="translate(-123.371 -207.562)" fill="#263238"/>
    <path id="Path_9189" data-name="Path 9189" d="M174.795,221.263a.338.338,0,0,1-.3,0,2.35,2.35,0,0,0-2.109.125.294.294,0,0,1-.338-.481h0a2.9,2.9,0,0,1,2.67-.187.285.285,0,0,1,.169.374h0A.89.89,0,0,1,174.795,221.263Z" transform="translate(-123.22 -207.251)" fill="#263238"/>
    <path id="Path_9190" data-name="Path 9190" d="M165.365,223.069a.258.258,0,0,1-.214-.436h0a2.91,2.91,0,0,1,2.439-1.1.276.276,0,0,1,.249.32h0a.294.294,0,0,1-.32.258h0a2.376,2.376,0,0,0-1.913.89.32.32,0,0,1-.24.071Z" transform="translate(-122.468 -207.366)" fill="#263238"/>
    <path id="Path_9191" data-name="Path 9191" d="M159.093,216.13l.89,2.554a2.011,2.011,0,0,0-.427,2.67c1.353,2.02.89,5.741-.516,7.494,0,0-.267-.952-1.023-.543s.6,5.34,2.715,7.378c0,0-2.875-1.611-5.411-6.55-2.35-4.557-3.418-8.562-2.848-10.68Z" transform="translate(-121.065 -206.773)" fill="#263238"/>
    <path id="Path_9192" data-name="Path 9192" d="M154.414,231a5.812,5.812,0,0,0,3.8,2.323c2.02.3,2.777-1.566,2.011-3.346-.7-1.575-2.59-3.685-4.521-3.151A2.59,2.59,0,0,0,154.414,231Z" transform="translate(-121.227 -207.94)" fill="#fff"/>
    <path id="Path_9193" data-name="Path 9193" d="M152.337,218.631s-1.4-3.311,3.462-7.2,11.5-2.083,14.632-5.2,5.34,6.426-2.207,9.185a62.985,62.985,0,0,1-15.887,3.213Z" transform="translate(-121.046 -205.616)" fill="#263238"/>
    <path id="Path_9194" data-name="Path 9194" d="M171.58,231.95a18.467,18.467,0,0,0-1.5,2.189l-.436-.169c-1.967-.783-2.617-1.78-2.75-2.67a3.035,3.035,0,0,1,.472-1.94,9.942,9.942,0,0,0,3.56,2.314A6.962,6.962,0,0,0,171.58,231.95Z" transform="translate(-122.667 -208.228)" fill="#263238"/>
    <path id="Path_9195" data-name="Path 9195" d="M170.933,231.714l-.463.632c-1.842-.73-3.044-1.5-3.4-2.287a2.67,2.67,0,0,1,.32-.659A9.941,9.941,0,0,0,170.933,231.714Z" transform="translate(-122.687 -208.232)" fill="#fff"/>
    <path id="Path_9196" data-name="Path 9196" d="M169.66,234.21c-1.967-.783-2.617-1.78-2.75-2.67a6.711,6.711,0,0,1,2.011,1.291A2.581,2.581,0,0,1,169.66,234.21Z" transform="translate(-122.669 -208.468)" fill="#a02724"/>
    <path id="Path_9197" data-name="Path 9197" d="M133.176,277.527c.89,1.994,2.528,2.189,4.174,1.371a10.68,10.68,0,0,0,3.685-3.427c.748-1.077,1.78-2.67,2.786-4.406,2.2-3.694,4.495-7.8,4.495-7.8a8.437,8.437,0,0,0,1.513-7.4c-1.326-3.961-2.964-6.23-4.592-6.444C140.8,251.539,131.511,273.967,133.176,277.527Z" transform="translate(-118.937 -210.435)" fill="#263238"/>
    <path id="Path_9198" data-name="Path 9198" d="M137.524,281.038a10.681,10.681,0,0,0,3.685-3.427c.748-1.077,1.78-2.67,2.786-4.406a41.963,41.963,0,0,0-2.617-4.156l-2.234,6.3s-3.934.89-4.557,2.946C134.355,279.071,135.69,280.175,137.524,281.038Z" transform="translate(-119.111 -212.593)" opacity="0.2"/>
    <path id="Path_9199" data-name="Path 9199" d="M138,261.808l7.423,28.284a1.451,1.451,0,0,0,1.549,1.041l19.7-2.626a1.068,1.068,0,0,0,.89-1.362l-7.36-28.275a1.451,1.451,0,0,0-1.549-1.032l-19.7,2.617a1.077,1.077,0,0,0-.952,1.353Z" transform="translate(-119.485 -211.359)" fill="#263238"/>
    <path id="Path_9200" data-name="Path 9200" d="M137.995,261.82l7.423,28.284a1.451,1.451,0,0,0,1.549,1.041l18.8-2.5a1.077,1.077,0,0,0,.89-1.371L159.23,258.99a1.442,1.442,0,0,0-1.549-1.041l-18.8,2.5a1.077,1.077,0,0,0-.89,1.371Z" transform="translate(-119.484 -211.371)" fill="#fff" opacity="0.4"/>
    <path id="Path_9201" data-name="Path 9201" d="M153.236,274.418a2.065,2.065,0,0,1,2.216,1.486,1.54,1.54,0,0,1-1.317,1.967,2.091,2.091,0,0,1-2.225-1.5,1.54,1.54,0,0,0,1.326-1.958Z" transform="translate(-121.02 -213.182)" fill="#fff" opacity="0.3"/>
    <path id="Path_9202" data-name="Path 9202" d="M135.873,287.314c1.335.7,4.325-.365,5.233-.721l.285-.107s1.629-5.34-2.626-8.215a.347.347,0,0,0-.1-.053c-1.353-.73-5.554.2-5.678,1.629C132.482,285.534,134.3,286.487,135.873,287.314Z" transform="translate(-118.929 -213.574)" fill="#263238"/>
    <path id="Path_9203" data-name="Path 9203" d="M139.116,282.789a6.764,6.764,0,0,0,2.67,3.836l.285-.107s1.629-5.34-2.626-8.215a.346.346,0,0,0-.1-.053C138.973,278.731,138.359,279.994,139.116,282.789Z" transform="translate(-119.573 -213.605)" opacity="0.2"/>
    <path id="Path_9204" data-name="Path 9204" d="M145.288,275.754s-2.732-.116-3.987,0-.89,4.156-.89,4.156l-1.077.587s-.89,2.376,1,3.56l.97-.329a2.67,2.67,0,0,0,1.041,1.424c.774.481,4.584-.6,4.584-.6Z" transform="translate(-119.613 -213.325)" fill="#fff"/>
  </g>
  <g id="freepik--Table--inject-17" transform="translate(58.998 162.84)">
    <path id="Path_9205" data-name="Path 9205" d="M222.562,295.03a.89.89,0,1,0,0-1.78H197.74a.89.89,0,1,0,0,1.78Z" transform="translate(-130.589 -268.383)" fill="#407bff"/>
    <path id="Path_9206" data-name="Path 9206" d="M222.562,295.03a.89.89,0,1,0,0-1.78H197.74a.89.89,0,1,0,0,1.78Z" transform="translate(-130.589 -268.383)" fill="#fff" opacity="0.5"/>
    <path id="Path_9207" data-name="Path 9207" d="M223.367,290.381l3.3-23.505a1.869,1.869,0,0,1,1.78-1.566h3.168v26.638H224.7a1.326,1.326,0,0,1-1.335-1.566Z" transform="translate(-133.503 -265.31)" fill="#407bff"/>
    <path id="Path_9208" data-name="Path 9208" d="M223.367,290.381l3.3-23.505a1.869,1.869,0,0,1,1.78-1.566h3.168v26.638H224.7a1.326,1.326,0,0,1-1.335-1.566Z" transform="translate(-133.503 -265.31)" fill="#fff" opacity="0.6"/>
    <path id="Path_9209" data-name="Path 9209" d="M226.25,291.948h28.106a1.869,1.869,0,0,0,1.78-1.566l3.3-23.505a1.335,1.335,0,0,0-1.344-1.566H229.988a1.851,1.851,0,0,0-1.78,1.566L224.9,290.381a1.335,1.335,0,0,0,1.353,1.566Z" transform="translate(-133.672 -265.31)" fill="#407bff"/>
    <path id="Path_9210" data-name="Path 9210" d="M226.25,291.948h28.106a1.869,1.869,0,0,0,1.78-1.566l3.3-23.505a1.335,1.335,0,0,0-1.344-1.566H229.988a1.851,1.851,0,0,0-1.78,1.566L224.9,290.381a1.335,1.335,0,0,0,1.353,1.566Z" transform="translate(-133.672 -265.31)" fill="#fff" opacity="0.5"/>
    <path id="Path_9211" data-name="Path 9211" d="M241.666,281.342a2.047,2.047,0,0,0,2.074,2.412,2.884,2.884,0,0,0,2.759-2.412,2.056,2.056,0,0,0-2.083-2.412A2.866,2.866,0,0,0,241.666,281.342Z" transform="translate(-135.515 -266.808)" fill="#fff" opacity="0.7"/>
    <path id="Path_9212" data-name="Path 9212" d="M129.41,401.612h2.332l2.99-99.832h-3.071Z" transform="translate(-123.171 -269.321)" fill="#263238"/>
    <path id="Path_9213" data-name="Path 9213" d="M129.41,401.612h2.332l2.99-99.832h-3.071Z" transform="translate(-123.171 -269.321)" fill="#fff" opacity="0.6"/>
    <path id="Path_9214" data-name="Path 9214" d="M166.665,301.78v99.832H164.2l-2.9-95.275H131.59l-2.172,95.275H126.98V301.78Z" transform="translate(-122.904 -269.321)" fill="#263238"/>
    <path id="Path_9215" data-name="Path 9215" d="M166.665,301.78v99.832H164.2l-2.9-95.275H131.59l-2.172,95.275H126.98V301.78Z" transform="translate(-122.904 -269.321)" fill="#fff" opacity="0.4"/>
    <path id="Path_9216" data-name="Path 9216" d="M171.57,401.612h2.323l.748-99.832H171.57Z" transform="translate(-127.808 -269.321)" fill="#263238"/>
    <path id="Path_9217" data-name="Path 9217" d="M171.57,401.612h2.323l.748-99.832H171.57Z" transform="translate(-127.808 -269.321)" fill="#fff" opacity="0.6"/>
    <path id="Path_9218" data-name="Path 9218" d="M271.31,401.612h2.323l3-99.832h-3.079Z" transform="translate(-138.779 -269.321)" fill="#263238"/>
    <path id="Path_9219" data-name="Path 9219" d="M271.31,401.612h2.323l3-99.832h-3.079Z" transform="translate(-138.779 -269.321)" fill="#fff" opacity="0.6"/>
    <path id="Path_9220" data-name="Path 9220" d="M308.556,301.78v99.832H306.1l-2.9-95.275H273.49l-2.172,95.275H268.88V301.78Z" transform="translate(-138.512 -269.321)" fill="#263238"/>
    <path id="Path_9221" data-name="Path 9221" d="M308.556,301.78v99.832H306.1l-2.9-95.275H273.49l-2.172,95.275H268.88V301.78Z" transform="translate(-138.512 -269.321)" fill="#fff" opacity="0.4"/>
    <path id="Path_9222" data-name="Path 9222" d="M313.46,401.612h2.332l.748-99.832H313.46Z" transform="translate(-143.415 -269.321)" fill="#263238"/>
    <path id="Path_9223" data-name="Path 9223" d="M313.46,401.612h2.332l.748-99.832H313.46Z" transform="translate(-143.415 -269.321)" fill="#fff" opacity="0.6"/>
    <rect id="Rectangle_3319" data-name="Rectangle 3319" width="131.516" height="5.741" transform="translate(177.2 32.45) rotate(180)" fill="#263238"/>
    <rect id="Rectangle_3320" data-name="Rectangle 3320" width="131.516" height="5.741" transform="translate(177.2 32.45) rotate(180)" fill="#fff" opacity="0.5"/>
    <rect id="Rectangle_3321" data-name="Rectangle 3321" width="49.253" height="5.741" transform="translate(49.253 32.45) rotate(180)" fill="#263238"/>
    <rect id="Rectangle_3322" data-name="Rectangle 3322" width="49.253" height="5.741" transform="translate(49.253 32.45) rotate(180)" fill="#fff" opacity="0.3"/>
  </g>
  <g id="freepik--character-2--inject-17" transform="translate(161.976 132.85)">
    <path id="Path_9224" data-name="Path 9224" d="M293,257.751l2.27-4.121,3.071,4.245s-2.243,3.56-4.023,2.323Z" transform="translate(-244.143 -234.034)" fill="#fff"/>
    <path id="Path_9225" data-name="Path 9225" d="M299.6,251.03l1.379,4.53-2.376,2.029-3.044-4.245Z" transform="translate(-244.424 -233.748)" fill="#fff"/>
    <path id="Path_9226" data-name="Path 9226" d="M296.81,252.858a12.861,12.861,0,0,0,1.949,4.877l.5-.427-1.566-4.948Z" transform="translate(-244.562 -233.895)" opacity="0.2"/>
    <path id="Path_9227" data-name="Path 9227" d="M292.38,266.261l.57-8,3.008.579v8.046Z" transform="translate(-244.074 -234.544)" fill="#fff"/>
    <path id="Path_9228" data-name="Path 9228" d="M248.9,374.4l4.6,1.8,3.3-6.23,3.008-5.66-5.1-3.062-3.079,6.96Z" transform="translate(-239.292 -245.872)" fill="#fff"/>
    <path id="Path_9229" data-name="Path 9229" d="M251.97,368.21l5.171,1.762,3.008-5.66-5.1-3.062Z" transform="translate(-239.63 -245.872)" opacity="0.2"/>
    <path id="Path_9230" data-name="Path 9230" d="M253.05,357.907l6.23,3.355s23.63-41.537,27.261-41.189,38.092,22.312,48.6,14.2.285-32.53.285-32.53-21.743-6.23-24.1-1.433a36.483,36.483,0,0,0-1.557,4.361c-.463,1.5-.81,2.759-.81,2.759h0c-.659-.267-22.134-9.069-31.72-4.352C267.5,307.844,253.05,357.907,253.05,357.907Z" transform="translate(-239.748 -238.969)" fill="#263238"/>
    <path id="Path_9231" data-name="Path 9231" d="M253.05,357.907l6.23,3.355s23.63-41.537,27.261-41.189,38.092,22.312,48.6,14.2.285-32.53.285-32.53-21.743-6.23-24.1-1.433a36.483,36.483,0,0,0-1.557,4.361c-.463,1.5-.81,2.759-.81,2.759h0c-.659-.267-22.134-9.069-31.72-4.352C267.5,307.844,253.05,357.907,253.05,357.907Z" transform="translate(-239.748 -238.969)" fill="#fff" opacity="0.3"/>
    <path id="Path_9232" data-name="Path 9232" d="M291.087,401.567l4.9-.561.018-6.915.009-6.346-5.927-.285.525,7.476Z" transform="translate(-243.822 -248.755)" fill="#fff"/>
    <path id="Path_9233" data-name="Path 9233" d="M290.634,395.083l5.393-.854v-6.417L290.1,387.5Z" transform="translate(-243.824 -248.759)" opacity="0.2"/>
    <path id="Path_9234" data-name="Path 9234" d="M262.262,366.135l-9.149-4.575-.952,3.872,6.924,3.578Z" transform="translate(-239.65 -245.906)" fill="#263238"/>
    <path id="Path_9235" data-name="Path 9235" d="M321.822,336.632s-1.5-.178-24.618-4.45c0,0-.525,29.566-1.62,51.62l-7.12.231s-10.208-48.977-9.007-56.32,9.986-8.384,9.986-8.384S304.7,331.185,321.822,336.632Z" transform="translate(-242.642 -241.261)" fill="#263238"/>
    <path id="Path_9236" data-name="Path 9236" d="M321.822,336.632s-1.5-.178-24.618-4.45c0,0-.525,29.566-1.62,51.62l-7.12.231s-10.208-48.977-9.007-56.32,9.986-8.384,9.986-8.384S304.7,331.185,321.822,336.632Z" transform="translate(-242.642 -241.261)" fill="#fff" opacity="0.4"/>
    <path id="Path_9237" data-name="Path 9237" d="M321.822,336.632s-1.5-.178-24.618-4.45c0,0-.525,29.566-1.62,51.62l-7.12.231s-10.208-48.977-9.007-56.32,9.986-8.384,9.986-8.384S304.7,331.185,321.822,336.632Z" transform="translate(-242.642 -241.261)" opacity="0.3"/>
    <path id="Path_9238" data-name="Path 9238" d="M297.86,389.483l-9.71-.223,1.326,4.005,7.877.071Z" transform="translate(-243.609 -248.953)" fill="#263238"/>
    <path id="Path_9239" data-name="Path 9239" d="M238.581,384.277a6.232,6.232,0,0,1,2.367-.267s2.973-1.246,6.55-7.12l3.062.409c1.5.2,3.56,1.922,3.186,3.329-.694,2.964-3.079,5.482-4.352,8.233l-.5-.2,1.566-4.45c.525-1.513-1.308-.24-2.278,1.228s-2.35,2.866-5.616,1.638C238.759,385.594,237.246,384.811,238.581,384.277Z" transform="translate(-238.104 -247.592)" fill="#263238"/>
    <path id="Path_9240" data-name="Path 9240" d="M248.634,375.1s-4.922,7.467-7.334,8.713c0,0,2.67,2.163,6.319-1.335,4.664-4.512,5.456-4.3,5.456-4.3a4.448,4.448,0,0,0-.133-1.308C252.6,375.153,248.634,375.1,248.634,375.1Z" transform="translate(-238.456 -247.395)" fill="#fff"/>
    <path id="Path_9241" data-name="Path 9241" d="M282.953,411.884a6.479,6.479,0,0,1,2.243-.819s2.581-1.913,4.664-8.491l3.071-.338c2.528-.276,4.023,1.228,3.9,3.053,0,2.323-2.287,8.455-2.287,8.455l-.534-.071.472-4.681c.151-1.593-1.326.08-1.922,1.727s-1.6,3.355-5.073,2.928C283.407,413.13,281.76,412.7,282.953,411.884Z" transform="translate(-242.996 -250.376)" fill="#263238"/>
    <path id="Path_9242" data-name="Path 9242" d="M290.545,400.669s-3.008,8.419-5.055,10.2c0,0,3.142,1.46,5.812-2.795,3.462-5.491,4.851-5.34,4.851-5.34a5.4,5.4,0,0,1-1.006-1.406C294.372,399.788,290.545,400.669,290.545,400.669Z" transform="translate(-243.316 -250.18)" fill="#fff"/>
    <path id="Path_9243" data-name="Path 9243" d="M299.946,244.091a.214.214,0,0,1-.187-.1,2.9,2.9,0,0,0-2.3-1.068h0a.223.223,0,1,1,0-.445,3.311,3.311,0,0,1,2.67,1.273.214.214,0,0,1-.062.3A.2.2,0,0,1,299.946,244.091Z" transform="translate(-244.609 -232.808)" fill="#263238"/>
    <path id="Path_9244" data-name="Path 9244" d="M298.074,247.26a12.6,12.6,0,0,1-1.994,2.287,1.647,1.647,0,0,0,1.5.837Z" transform="translate(-244.481 -233.334)" fill="#fff"/>
    <path id="Path_9245" data-name="Path 9245" d="M297.349,245.209c-.062.481.151.89.472.952s.641-.32.7-.81-.151-.89-.472-.952S297.411,244.72,297.349,245.209Z" transform="translate(-244.62 -233.018)" fill="#263238"/>
    <path id="Path_9246" data-name="Path 9246" d="M298.156,244.382l-1.006-.552S297.568,244.782,298.156,244.382Z" transform="translate(-244.599 -232.956)" fill="#263238"/>
    <path id="Path_9247" data-name="Path 9247" d="M310.033,255.836a.954.954,0,0,1-.2.134,8.829,8.829,0,0,1-3.2,1.379c-3.346.6-5.58,0-6.978-1.531h0c-1.949-2.341-2.27-6.337-1.78-11.116a17.871,17.871,0,0,1,1.317-5.536v-.089a1.578,1.578,0,0,1,.089-.2,6.524,6.524,0,0,1,5-3.756,12.933,12.933,0,0,1,2.848-.187C316.53,235.3,317.456,250.852,310.033,255.836Z" transform="translate(-244.658 -231.977)" fill="#fff"/>
    <path id="Path_9248" data-name="Path 9248" d="M310.084,258.467a8.634,8.634,0,0,1-3.2,1.246c-3.337.605-5.563-.071-6.969-1.655a9.372,9.372,0,0,0,5.954-.2,4.868,4.868,0,0,1,4.21.605Z" transform="translate(-244.904 -234.474)" opacity="0.2"/>
    <path id="Path_9249" data-name="Path 9249" d="M299.415,238.817a9.825,9.825,0,0,0,5.233,9.639s2.332,6.933,6.23,7.218c5.34.392,10.431-6.987,8.962-14.827C317.945,230.673,302.753,229.116,299.415,238.817Z" transform="translate(-244.844 -231.69)" fill="#263238"/>
    <path id="Path_9250" data-name="Path 9250" d="M301.867,247.861c.053-1.023.961-2.67,2.537-2.385s2.341,4.45-1.78,5.126C302.081,250.7,301.761,250,301.867,247.861Z" transform="translate(-245.116 -233.134)" fill="#fff"/>
    <path id="Path_9251" data-name="Path 9251" d="M310.913,232.331s-6.177-1.887-9.79.454c-4.174,2.741-5.856,5.7-1.308,10.68,0,0,10.68-2.884,14.115-1.994a37.439,37.439,0,0,1,5.892,2.029C320.935,236.568,314.464,231.067,310.913,232.331Z" transform="translate(-244.594 -231.612)" fill="#263238"/>
    <path id="Path_9252" data-name="Path 9252" d="M306,259s4.592,2.243,3.248,7.165l11.7-4.85s-6.381-.4-6.061-4.886C314.9,256.411,308.216,253.848,306,259Z" transform="translate(-245.573 -234.27)" fill="#fff"/>
    <path id="Path_9253" data-name="Path 9253" d="M320.148,241.3s2.314-6.648,7.547-5.5,4.842,6.773,1.095,8.508S319.792,245.38,320.148,241.3Z" transform="translate(-247.127 -232.059)" fill="#263238"/>
    <path id="Path_9254" data-name="Path 9254" d="M326.473,245.434s4.646,0,4.076,3.952a3.373,3.373,0,0,0-1.451-1.825s1.406,1.077,0,2.946c0,0,.561-1.219-1.353-2.065s-7.182-.765-6.23-3.364S326.473,245.434,326.473,245.434Z" transform="translate(-247.267 -232.976)" fill="#263238"/>
    <path id="Path_9255" data-name="Path 9255" d="M320.376,261.357l-2.857-2.047s-9.372,1.264-9.47,7.245S320.376,261.357,320.376,261.357Z" transform="translate(-245.798 -234.659)" fill="#407bff"/>
    <path id="Path_9256" data-name="Path 9256" d="M315.89,308.185l8.9,4.45a20.221,20.221,0,0,0-8.126-7.245C316.237,306.921,315.89,308.185,315.89,308.185Z" transform="translate(-246.66 -239.728)" opacity="0.2"/>
    <path id="Path_9257" data-name="Path 9257" d="M321.7,261.6s-7.031-1.353-16.812,5.2c0,0-3.275,14.329,10.564,33.82l26.255-1.647S334.6,270.255,321.7,261.6Z" transform="translate(-245.413 -234.898)" fill="#263238"/>
    <path id="Path_9258" data-name="Path 9258" d="M305.679,280a48.288,48.288,0,0,0,1.851,5.972,64.143,64.143,0,0,0,7.921,14.614l26.255-1.647s-7.12-28.685-20.007-37.38c0,0-7.022-1.344-16.821,5.2C304.878,266.789,303.73,271.835,305.679,280Z" transform="translate(-245.412 -234.894)" fill="#fff" opacity="0.1"/>
    <path id="Path_9259" data-name="Path 9259" d="M305.82,282.078a48.286,48.286,0,0,0,1.851,5.972A73.864,73.864,0,0,1,309,280.36,19.07,19.07,0,0,0,305.82,282.078Z" transform="translate(-245.553 -236.974)" opacity="0.2"/>
    <path id="Path_9260" data-name="Path 9260" d="M310.538,271.732c-4.646,8.375-9.559,16.6-14.578,24.76a4.032,4.032,0,0,1-7.44-2.367c.338-5.34.757-10.733,1.219-16.109s1.015-10.733,1.709-16.091a2.216,2.216,0,0,1,4.406.151c.65,10.76.792,21.547.774,32.325l-7.574-2.145c3.3-6.31,6.72-12.558,10.2-18.761,1.184-2.056,2.332-4.13,3.56-6.168a4.452,4.452,0,0,1,7.734,4.406Z" transform="translate(-243.649 -234.736)" fill="#263238"/>
    <path id="Path_9261" data-name="Path 9261" d="M310.538,271.732c-4.646,8.375-9.559,16.6-14.578,24.76a4.032,4.032,0,0,1-7.44-2.367c.338-5.34.757-10.733,1.219-16.109s1.015-10.733,1.709-16.091a2.216,2.216,0,0,1,4.406.151c.65,10.76.792,21.547.774,32.325l-7.574-2.145c3.3-6.31,6.72-12.558,10.2-18.761,1.184-2.056,2.332-4.13,3.56-6.168a4.452,4.452,0,0,1,7.734,4.406Z" transform="translate(-243.649 -234.736)" fill="#fff" opacity="0.1"/>
    <path id="Path_9262" data-name="Path 9262" d="M297.322,279.514l-2.252,4.049,2.038-9.114Z" transform="translate(-244.37 -236.324)" opacity="0.2"/>
    <path id="Path_9263" data-name="Path 9263" d="M361.435,412.774,339,404.515l-22.677,8.268a1.2,1.2,0,0,1-1.611-1.121h0a1.21,1.21,0,0,1,.694-1.095L339,399.62l23.363,10.947a1.2,1.2,0,0,1,.685,1.086h0a1.193,1.193,0,0,1-1.611,1.121Z" transform="translate(-246.531 -250.092)" fill="#263238"/>
    <path id="Path_9264" data-name="Path 9264" d="M361.435,412.774,339,404.515l-22.677,8.268a1.2,1.2,0,0,1-1.611-1.121h0a1.21,1.21,0,0,1,.694-1.095L339,399.62l23.363,10.947a1.2,1.2,0,0,1,.685,1.086h0a1.193,1.193,0,0,1-1.611,1.121Z" transform="translate(-246.531 -250.092)" fill="#fff" opacity="0.3"/>
    <path id="Path_9265" data-name="Path 9265" d="M336.06,406.446l5.287-1.931,5.046,1.86v-4.388l-5.046-2.367-5.287,2.456Z" transform="translate(-248.879 -250.092)" opacity="0.2"/>
    <path id="Path_9266" data-name="Path 9266" d="M341.547,406.759h0a1.994,1.994,0,0,1-1.985-1.78l-.632-6.648V343.15h5.233v55.18l-.632,6.648A2,2,0,0,1,341.547,406.759Z" transform="translate(-249.195 -243.881)" fill="#263238"/>
    <path id="Path_9267" data-name="Path 9267" d="M341.547,406.759h0a1.994,1.994,0,0,1-1.985-1.78l-.632-6.648V343.15h5.233v55.18l-.632,6.648A2,2,0,0,1,341.547,406.759Z" transform="translate(-249.195 -243.881)" fill="#fff" opacity="0.3"/>
    <rect id="Rectangle_3323" data-name="Rectangle 3323" width="5.233" height="6.426" transform="translate(89.735 99.233)" opacity="0.2"/>
    <path id="Path_9268" data-name="Path 9268" d="M373.332,337.143a81.307,81.307,0,0,0-18.1-2.492c-6.283-.16-29.815,0-35.4,0a81.882,81.882,0,0,0-20.2,2.519c-4.147,1.059-2.866,7.049.89,7.12h71.717C376.145,344.432,377.569,338.229,373.332,337.143Z" transform="translate(-244.588 -242.938)" fill="#407bff"/>
    <path id="Path_9269" data-name="Path 9269" d="M373.332,337.143a81.307,81.307,0,0,0-18.1-2.492c-6.283-.16-29.815,0-35.4,0a81.882,81.882,0,0,0-20.2,2.519c-4.147,1.059-2.866,7.049.89,7.12h71.717C376.145,344.432,377.569,338.229,373.332,337.143Z" transform="translate(-244.588 -242.938)" opacity="0.3"/>
    <path id="Path_9270" data-name="Path 9270" d="M301.544,344.135a74.333,74.333,0,0,1,36.561,0c4.512,1.157,6.444-5.83,1.922-6.987a82.147,82.147,0,0,0-40.406,0C295.109,338.3,297.023,345.292,301.544,344.135Z" transform="translate(-244.588 -242.943)" fill="#407bff"/>
    <g id="Group_5393" data-name="Group 5393" transform="translate(52.459 91.682)" opacity="0.3">
      <path id="Path_9271" data-name="Path 9271" d="M301.544,344.135a74.333,74.333,0,0,1,36.561,0c4.512,1.157,6.444-5.83,1.922-6.987a82.147,82.147,0,0,0-40.406,0C295.109,338.3,297.023,345.292,301.544,344.135Z" transform="translate(-297.047 -334.625)" fill="#fff"/>
    </g>
    <path id="Path_9272" data-name="Path 9272" d="M359.784,279.21a2.216,2.216,0,0,0-1.994,1.157,77.27,77.27,0,0,0-9.683,53.4,1.967,1.967,0,0,0,1.86,1.78c1.451.1,27.279,0,28.213,0a2.6,2.6,0,0,0,2.626-3.124A72.188,72.188,0,0,1,390,282.779a2.4,2.4,0,0,0-2.172-3.56C387.08,279.2,361.43,279.246,359.784,279.21Z" transform="translate(-250.067 -236.848)" fill="#407bff"/>
    <path id="Path_9273" data-name="Path 9273" d="M359.784,279.21a2.216,2.216,0,0,0-1.994,1.157,77.27,77.27,0,0,0-9.683,53.4,1.967,1.967,0,0,0,1.86,1.78c1.451.1,27.279,0,28.213,0a2.6,2.6,0,0,0,2.626-3.124A72.188,72.188,0,0,1,390,282.779a2.4,2.4,0,0,0-2.172-3.56C387.08,279.2,361.43,279.246,359.784,279.21Z" transform="translate(-250.067 -236.848)" opacity="0.2"/>
    <path id="Path_9274" data-name="Path 9274" d="M352.761,332.42a72.189,72.189,0,0,1,9.194-49.645c1.611-2.67-2.563-5.109-4.165-2.439a77.27,77.27,0,0,0-9.683,53.4c.552,3.062,5.207,1.78,4.655-1.282Z" transform="translate(-250.067 -236.845)" fill="#407bff"/>
    <g id="Group_5394" data-name="Group 5394" transform="translate(96.798 42.337)" opacity="0.2">
      <path id="Path_9275" data-name="Path 9275" d="M352.761,332.42a72.189,72.189,0,0,1,9.194-49.645c1.611-2.67-2.563-5.109-4.165-2.439a77.27,77.27,0,0,0-9.683,53.4c.552,3.062,5.207,1.78,4.655-1.282Z" transform="translate(-346.866 -279.181)" fill="#fff"/>
    </g>
  </g>
  <g id="freepik--chart-4--inject-17" transform="translate(222.786 76.101)">
    <path id="Path_11252" data-name="Path 11252" d="M17.232.288A16.182,16.182,0,0,1,33.589,16.794,16.794,16.794,0,0,1,0,16.794C0,7.519,7.957.288,17.232.288Z" transform="translate(6.143 11.407) rotate(-11.535)" fill="#263238"/>
    <path id="Path_9276" data-name="Path 9276" d="M332.977,194.675l11.7,12.042a16.786,16.786,0,1,1-11.205-28.827Z" transform="translate(-307.505 -169.953)" fill="#407bff"/>
    <path id="Path_9277" data-name="Path 9277" d="M334.811,196.75l11.7,12.042a16.785,16.785,0,0,1-13.635,4.637Z" transform="translate(-309.339 -171.029)" fill="#fff" opacity="0.5"/>
    <path id="Path_9278" data-name="Path 9278" d="M333.373,196.75l14.543,8.393a16.376,16.376,0,0,1-2.67,3.48,16.91,16.91,0,0,1-23.745,0,17.245,17.245,0,0,1-1.7-1.985Z" transform="translate(-307.901 -171.029)" fill="#fff" opacity="0.4"/>
    <path id="Path_9279" data-name="Path 9279" d="M327.679,201.964a8.9,8.9,0,1,1,6.306,2.619,8.9,8.9,0,0,1-6.306-2.619Z" transform="translate(-308.482 -169.932)" fill="#fff"/>
    <path id="Path_9280" data-name="Path 9280" d="M392.323,181.135h-21.36a.3.3,0,1,1,0-.605h21.36a.3.3,0,0,1,0,.605Z" transform="translate(-313.495 -169.245)" fill="#263238"/>
    <path id="Path_9281" data-name="Path 9281" d="M388.663,189.075h-17.8a.3.3,0,0,1,0-.605h17.8a.3.3,0,0,1,0,.605Z" transform="translate(-313.484 -170.118)" fill="#263238"/>
    <path id="Path_9282" data-name="Path 9282" d="M395.93,197.015H370.9a.3.3,0,0,1,0-.605H395.93a.3.3,0,1,1,0,.605Z" transform="translate(-313.488 -170.991)" fill="#263238"/>
    <path id="Path_9283" data-name="Path 9283" d="M392.323,204.925h-21.36a.3.3,0,1,1,0-.605h21.36a.3.3,0,0,1,0,.605Z" transform="translate(-313.495 -171.861)" fill="#263238"/>
    <path id="Path_9284" data-name="Path 9284" d="M393.509,212.925H370.9a.3.3,0,0,1,0-.605h22.606a.3.3,0,0,1,0,.605Z" transform="translate(-313.488 -172.741)" fill="#263238"/>
    <rect id="Rectangle_3324" data-name="Rectangle 3324" width="4.308" height="4.192" transform="translate(47.998 9.496)" fill="#263238"/>
    <rect id="Rectangle_3325" data-name="Rectangle 3325" width="4.308" height="4.192" transform="translate(47.998 16.563)" fill="#263238"/>
    <rect id="Rectangle_3326" data-name="Rectangle 3326" width="4.308" height="4.192" transform="translate(47.998 23.63)" fill="#407bff"/>
    <rect id="Rectangle_3327" data-name="Rectangle 3327" width="4.308" height="4.192" transform="translate(47.998 30.696)" fill="#407bff"/>
    <rect id="Rectangle_3328" data-name="Rectangle 3328" width="4.308" height="4.192" transform="translate(47.998 37.763)" fill="#407bff"/>
    <rect id="Rectangle_3329" data-name="Rectangle 3329" width="4.308" height="4.192" transform="translate(47.998 16.563)" fill="#fff" opacity="0.4"/>
    <rect id="Rectangle_3330" data-name="Rectangle 3330" width="4.308" height="4.192" transform="translate(47.998 30.696)" fill="#fff" opacity="0.4"/>
    <rect id="Rectangle_3331" data-name="Rectangle 3331" width="4.308" height="4.192" transform="translate(47.998 37.763)" fill="#fff" opacity="0.6"/>
    <path id="Path_9285" data-name="Path 9285" d="M390.749,217.041H313.933a7.512,7.512,0,0,1-7.5-7.5V175.353a7.512,7.512,0,0,1,7.5-7.5h76.816a7.512,7.512,0,0,1,7.5,7.5v34.185A7.512,7.512,0,0,1,390.749,217.041Zm-76.816-48.3a6.631,6.631,0,0,0-6.613,6.613v34.185a6.622,6.622,0,0,0,6.613,6.613h76.816a6.613,6.613,0,0,0,6.613-6.613V175.353a6.622,6.622,0,0,0-6.613-6.613Z" transform="translate(-306.43 -167.85)" fill="#407bff"/>
  </g>
  <g id="freepik--chart-3--inject-17" transform="translate(129.692 88.561)">
    <rect id="Rectangle_3332" data-name="Rectangle 3332" width="2.421" height="44.304" transform="translate(19.429 7.672)" fill="#407bff"/>
    <rect id="Rectangle_3333" data-name="Rectangle 3333" width="2.421" height="44.304" transform="translate(19.429 7.672)" opacity="0.2"/>
    <rect id="Rectangle_3334" data-name="Rectangle 3334" width="2.421" height="34.47" transform="translate(23.452 17.506)" fill="#263238"/>
    <rect id="Rectangle_3335" data-name="Rectangle 3335" width="2.421" height="34.47" transform="translate(23.452 17.506)" fill="#fff" opacity="0.4"/>
    <rect id="Rectangle_3336" data-name="Rectangle 3336" width="2.421" height="18.067" transform="translate(11.383 33.909)" fill="#407bff"/>
    <rect id="Rectangle_3337" data-name="Rectangle 3337" width="2.421" height="24.626" transform="translate(15.406 27.35)" fill="#407bff"/>
    <rect id="Rectangle_3338" data-name="Rectangle 3338" width="2.421" height="37.745" transform="translate(27.474 14.231)" fill="#263238"/>
    <rect id="Rectangle_3339" data-name="Rectangle 3339" width="2.421" height="30.029" transform="translate(23.452 21.948)" fill="#fff" opacity="0.4"/>
    <rect id="Rectangle_3340" data-name="Rectangle 3340" width="2.421" height="31.871" transform="translate(27.474 20.105)" fill="#fff" opacity="0.4"/>
    <rect id="Rectangle_3341" data-name="Rectangle 3341" width="2.421" height="40.397" transform="translate(19.429 11.579)" fill="#407bff"/>
    <rect id="Rectangle_3342" data-name="Rectangle 3342" width="2.421" height="15.887" transform="translate(15.406 36.09)" fill="#fff" opacity="0.4"/>
    <rect id="Rectangle_3343" data-name="Rectangle 3343" width="2.421" height="18.067" transform="translate(11.383 33.909)" fill="#fff" opacity="0.2"/>
    <rect id="Rectangle_3344" data-name="Rectangle 3344" width="2.421" height="13.955" transform="translate(11.383 38.021)" fill="#fff" opacity="0.4"/>
    <path id="Path_9286" data-name="Path 9286" d="M234.237,240.383H213.161a.151.151,0,1,1,0-.3h21.075a.151.151,0,0,1,0,.3Z" transform="translate(-203.06 -188.255)" fill="#263238"/>
    <rect id="Rectangle_3345" data-name="Rectangle 3345" width="2.421" height="34.47" transform="translate(53.124 17.506)" fill="#407bff"/>
    <rect id="Rectangle_3346" data-name="Rectangle 3346" width="2.421" height="34.47" transform="translate(53.124 17.506)" opacity="0.2"/>
    <rect id="Rectangle_3347" data-name="Rectangle 3347" width="2.421" height="33.518" transform="translate(57.147 18.459)" fill="#263238"/>
    <rect id="Rectangle_3348" data-name="Rectangle 3348" width="2.421" height="33.518" transform="translate(57.147 18.459)" fill="#fff" opacity="0.4"/>
    <rect id="Rectangle_3349" data-name="Rectangle 3349" width="2.421" height="27.804" transform="translate(45.079 24.173)" fill="#407bff"/>
    <rect id="Rectangle_3350" data-name="Rectangle 3350" width="2.421" height="28.605" transform="translate(49.102 23.372)" fill="#407bff"/>
    <rect id="Rectangle_3351" data-name="Rectangle 3351" width="2.421" height="25.045" transform="translate(61.17 26.932)" fill="#263238"/>
    <rect id="Rectangle_3352" data-name="Rectangle 3352" width="2.421" height="29.201" transform="translate(57.147 22.775)" fill="#fff" opacity="0.4"/>
    <rect id="Rectangle_3353" data-name="Rectangle 3353" width="2.421" height="21.147" transform="translate(61.17 30.83)" fill="#fff" opacity="0.4"/>
    <rect id="Rectangle_3354" data-name="Rectangle 3354" width="2.421" height="31.426" transform="translate(53.124 20.55)" fill="#407bff"/>
    <rect id="Rectangle_3355" data-name="Rectangle 3355" width="2.421" height="23.63" transform="translate(49.102 28.347)" fill="#fff" opacity="0.4"/>
    <rect id="Rectangle_3356" data-name="Rectangle 3356" width="2.421" height="27.804" transform="translate(45.079 24.173)" fill="#fff" opacity="0.2"/>
    <rect id="Rectangle_3357" data-name="Rectangle 3357" width="2.421" height="21.476" transform="translate(45.079 30.501)" fill="#fff" opacity="0.4"/>
    <path id="Path_9287" data-name="Path 9287" d="M272.092,240.383H250.981a.151.151,0,1,1,0-.3h21.075a.151.151,0,1,1,0,.3Z" transform="translate(-207.22 -188.255)" fill="#263238"/>
    <path id="Path_9288" data-name="Path 9288" d="M269.9,243.51H209.333a7.512,7.512,0,0,1-7.5-7.5V189.353a7.512,7.512,0,0,1,7.5-7.5H269.9a7.512,7.512,0,0,1,7.5,7.5v46.654a7.512,7.512,0,0,1-7.5,7.5Zm-60.565-60.77a6.631,6.631,0,0,0-6.613,6.613v46.654a6.622,6.622,0,0,0,6.613,6.613H269.9a6.622,6.622,0,0,0,6.613-6.613V189.353a6.631,6.631,0,0,0-6.613-6.613Z" transform="translate(-201.83 -181.85)" fill="#407bff"/>
  </g>
  <g id="freepik--chart-2--inject-17" transform="translate(188.761 6.476)">
    <g id="Group_5395" data-name="Group 5395" transform="translate(9.763 17.515)" opacity="0.2">
      <path id="Path_9289" data-name="Path 9289" d="M340.661,143.779H279.17V109.3h.5v33.98h60.992Z" transform="translate(-279.17 -109.3)"/>
    </g>
    <rect id="Rectangle_3358" data-name="Rectangle 3358" width="2.661" height="4.984" transform="translate(12.985 46.271)" opacity="0.2"/>
    <rect id="Rectangle_3359" data-name="Rectangle 3359" width="2.661" height="1.451" transform="translate(12.985 46.271)" fill="#407bff"/>
    <rect id="Rectangle_3360" data-name="Rectangle 3360" width="2.661" height="12.95" transform="translate(18.405 38.306)" opacity="0.2"/>
    <rect id="Rectangle_3361" data-name="Rectangle 3361" width="2.661" height="3.774" transform="translate(18.405 38.306)" fill="#407bff"/>
    <rect id="Rectangle_3362" data-name="Rectangle 3362" width="2.661" height="9.959" transform="translate(23.834 41.287)" opacity="0.2"/>
    <rect id="Rectangle_3363" data-name="Rectangle 3363" width="2.661" height="2.901" transform="translate(23.834 41.287)" fill="#407bff"/>
    <rect id="Rectangle_3364" data-name="Rectangle 3364" width="2.661" height="14.543" transform="translate(29.263 36.713)" opacity="0.2"/>
    <rect id="Rectangle_3365" data-name="Rectangle 3365" width="2.661" height="4.236" transform="translate(29.263 36.713)" fill="#407bff"/>
    <rect id="Rectangle_3366" data-name="Rectangle 3366" width="2.661" height="18.761" transform="translate(34.684 32.485)" opacity="0.2"/>
    <rect id="Rectangle_3367" data-name="Rectangle 3367" width="2.661" height="5.465" transform="translate(34.684 32.485)" fill="#407bff"/>
    <rect id="Rectangle_3368" data-name="Rectangle 3368" width="2.661" height="21.965" transform="translate(40.113 29.29)" opacity="0.2"/>
    <rect id="Rectangle_3369" data-name="Rectangle 3369" width="2.661" height="6.39" transform="translate(40.113 29.29)" fill="#407bff"/>
    <rect id="Rectangle_3370" data-name="Rectangle 3370" width="2.661" height="18.263" transform="translate(45.542 32.984)" opacity="0.2"/>
    <rect id="Rectangle_3371" data-name="Rectangle 3371" width="2.661" height="5.322" transform="translate(45.542 32.984)" fill="#407bff"/>
    <rect id="Rectangle_3372" data-name="Rectangle 3372" width="2.661" height="19.064" transform="translate(50.962 32.192)" opacity="0.2"/>
    <rect id="Rectangle_3373" data-name="Rectangle 3373" width="2.661" height="5.554" transform="translate(50.962 32.192)" fill="#407bff"/>
    <rect id="Rectangle_3374" data-name="Rectangle 3374" width="2.661" height="23.923" transform="translate(56.391 27.323)" opacity="0.2"/>
    <rect id="Rectangle_3375" data-name="Rectangle 3375" width="2.661" height="6.969" transform="translate(56.391 27.323)" fill="#407bff"/>
    <rect id="Rectangle_3376" data-name="Rectangle 3376" width="2.661" height="28.827" transform="translate(61.82 22.419)" opacity="0.2"/>
    <rect id="Rectangle_3377" data-name="Rectangle 3377" width="2.661" height="8.393" transform="translate(61.82 22.419)" fill="#407bff"/>
    <rect id="Rectangle_3378" data-name="Rectangle 3378" width="2.661" height="33.117" transform="translate(67.249 18.138)" opacity="0.2"/>
    <rect id="Rectangle_3379" data-name="Rectangle 3379" width="2.661" height="9.639" transform="translate(67.249 18.138)" fill="#407bff"/>
    <rect id="Rectangle_3380" data-name="Rectangle 3380" width="32.904" height="1.371" transform="translate(23.834 12.309)" opacity="0.2"/>
    <path id="Path_9290" data-name="Path 9290" d="M341.261,150.416H275.712a7.521,7.521,0,0,1-7.512-7.5V97.123a7.52,7.52,0,0,1,7.512-7.5h65.549a7.512,7.512,0,0,1,7.5,7.5v45.791a7.512,7.512,0,0,1-7.5,7.5ZM275.712,90.51a6.622,6.622,0,0,0-6.622,6.613v45.791a6.622,6.622,0,0,0,6.622,6.613h65.549a6.613,6.613,0,0,0,6.613-6.613V97.123a6.613,6.613,0,0,0-6.613-6.613Z" transform="translate(-268.2 -89.62)" fill="#407bff"/>
  </g>
  <g id="freepik--chart-1--inject-17" transform="translate(64.089 17.601)">
    <path id="Path_9291" data-name="Path 9291" d="M147.13,153.655s11.57-18.8,15.184-19.126,7.841,10.6,10.849,9.6,20.55-32.12,24.564-31.284,10.36,17.587,11.864,17.311,3.507-3.355,7.85,5.207a184.233,184.233,0,0,1,7.894,18.29Z" transform="translate(-130.211 -103.298)" fill="#407bff"/>
    <path id="Path_9292" data-name="Path 9292" d="M147.13,153.655s11.57-18.8,15.184-19.126,7.841,10.6,10.849,9.6,20.55-32.12,24.564-31.284,10.36,17.587,11.864,17.311,3.507-3.355,7.85,5.207a184.233,184.233,0,0,1,7.894,18.29Z" transform="translate(-130.211 -103.298)" fill="#fff" opacity="0.4"/>
    <path id="Path_9293" data-name="Path 9293" d="M216.522,154.521s-14.694-32.254-19.375-33.713-11.036,12.834-14.24,15.379-8.313-9.318-10.4-9.487-11.623,18.557-14.836,18.388-3.676-2.6-7.022-3.978-11.864,13.412-11.864,13.412Z" transform="translate(-129.293 -104.164)" fill="#407bff"/>
    <path id="Path_9294" data-name="Path 9294" d="M219.492,146.636s-7.2-8.558-10.039-10.564-6.853,5.031-9.7,5.282-13.35-14.017-16.376-15.092-9.185,11.57-12.113,11.8-8.9-7.647-12.113-8.074-17.72,16.632-17.72,16.632Z" transform="translate(-129.584 -96.279)" fill="#fff"/>
    <rect id="Rectangle_3381" data-name="Rectangle 3381" width="88.582" height="0.587" transform="translate(7.512 50.063)" fill="#fff"/>
    <path id="Path_9297" data-name="Path 9297" d="M224.134,161.955H135.623a7.512,7.512,0,0,1-7.5-7.5v-44.83a7.512,7.512,0,0,1,7.5-7.5h88.511a7.512,7.512,0,0,1,7.5,7.5v44.83a7.512,7.512,0,0,1-7.5,7.5Zm-88.5-58.945a6.613,6.613,0,0,0-6.613,6.613v44.83a6.613,6.613,0,0,0,6.613,6.613h88.5a6.613,6.613,0,0,0,6.613-6.613v-44.83a6.613,6.613,0,0,0-6.613-6.613Z" transform="translate(-128.12 -102.12)" fill="#407bff"/>
  </g>
</svg>
