<svg id="svgexport-20" xmlns="http://www.w3.org/2000/svg" width="51.194" height="51.194" viewBox="0 0 51.194 51.194">
  <path id="Path_9334" data-name="Path 9334" d="M50.257,19C45.7,19,42,20.85,42,23.129V36.34c0,2.279,3.7,4.129,8.257,4.129s8.257-1.85,8.257-4.129V23.129C58.514,20.85,54.815,19,50.257,19Z" transform="translate(-8.146 -4.137)" fill="#65c7ee"/>
  <path id="Path_9335" data-name="Path 9335" d="M58.514,24v6.606c0,2.279-3.7,4.129-8.257,4.129S42,32.885,42,30.606V24c0,2.279,3.7,4.129,8.257,4.129S58.514,26.279,58.514,24Z" transform="translate(-8.146 -5.009)" fill="#fdfdfd"/>
  <g id="Group_5410" data-name="Group 5410" transform="translate(0.942 0.941)">
    <circle id="Ellipse_124" data-name="Ellipse 124" cx="4.235" cy="4.235" r="4.235" transform="translate(0 41.408)" fill="#65c7ee"/>
    <circle id="Ellipse_125" data-name="Ellipse 125" cx="4.235" cy="4.235" r="4.235" transform="translate(0 20.704)" fill="#65c7ee"/>
    <circle id="Ellipse_126" data-name="Ellipse 126" cx="4.235" cy="4.235" r="4.235" transform="translate(0 0)" fill="#65c7ee"/>
  </g>
  <path id="Path_9336" data-name="Path 9336" d="M46.414,25.771h1.651v1.651H46.414Zm0,6.606h1.651v1.651H46.414ZM5.954,42.285a4.954,4.954,0,1,0,4.954,4.954A4.958,4.958,0,0,0,5.954,42.285Zm0,8.257a3.3,3.3,0,1,1,3.3-3.3A3.3,3.3,0,0,1,5.954,50.542Zm0-28.9A4.954,4.954,0,1,0,10.908,26.6,4.958,4.958,0,0,0,5.954,21.643Zm0,8.257a3.3,3.3,0,1,1,3.3-3.3A3.3,3.3,0,0,1,5.954,29.9Zm0-28.9a4.954,4.954,0,1,0,4.954,4.954A4.958,4.958,0,0,0,5.954,1Zm0,8.257a3.3,3.3,0,1,1,3.3-3.3A3.3,3.3,0,0,1,5.954,9.257ZM31.2,25.92l-4.129-2.89-.95,1.354L28.1,25.771H20.809V9.257A4.13,4.13,0,0,0,16.68,5.129h-3.3V6.78h3.3a2.484,2.484,0,0,1,2.477,2.477V25.771h-5.78v1.651h5.78V43.937a2.484,2.484,0,0,1-2.477,2.477h-3.3v1.651h3.3a4.13,4.13,0,0,0,4.129-4.129V27.422H28.1L26.118,28.81l.95,1.354,4.129-2.89a.823.823,0,0,0,0-1.354Z" transform="translate(-1 -1)" fill="#273587"/>
  <path id="Path_9337" data-name="Path 9337" d="M50.083,18C44.988,18,41,20.18,41,22.954V36.165c0,2.774,3.988,4.954,9.083,4.954s9.083-2.18,9.083-4.954V22.954C59.165,20.18,55.177,18,50.083,18Zm7.431,18.165c0,1.561-3.055,3.3-7.431,3.3s-7.431-1.742-7.431-3.3V32.433a12.447,12.447,0,0,0,7.431,2.081,12.447,12.447,0,0,0,7.431-2.081Zm0-6.606c0,1.561-3.055,3.3-7.431,3.3s-7.431-1.742-7.431-3.3V25.828a12.447,12.447,0,0,0,7.431,2.081,12.447,12.447,0,0,0,7.431-2.081Zm-7.431-3.3c-4.376,0-7.431-1.742-7.431-3.3s3.055-3.3,7.431-3.3,7.431,1.742,7.431,3.3S54.459,26.257,50.083,26.257Z" transform="translate(-7.972 -3.963)" fill="#273587"/>
</svg>
