<svg xmlns="http://www.w3.org/2000/svg" width="500" height="372.56" viewBox="0 0 500 372.56">
  <g id="Uploading-rafiki" transform="translate(0 -55)">
    <g id="freepik--background-complete--inject-25">
      <rect id="Rectangle_2644" data-name="Rectangle 2644" width="500" height="0.25" transform="translate(0 382.4)" fill="#ebebeb"/>
      <rect id="Rectangle_2645" data-name="Rectangle 2645" width="33.12" height="0.25" transform="translate(416.78 398.49)" fill="#ebebeb"/>
      <rect id="Rectangle_2646" data-name="Rectangle 2646" width="8.69" height="0.25" transform="translate(322.53 401.21)" fill="#ebebeb"/>
      <rect id="Rectangle_2647" data-name="Rectangle 2647" width="19.19" height="0.25" transform="translate(396.59 389.21)" fill="#ebebeb"/>
      <rect id="Rectangle_2648" data-name="Rectangle 2648" width="43.19" height="0.25" transform="translate(52.46 390.89)" fill="#ebebeb"/>
      <rect id="Rectangle_2649" data-name="Rectangle 2649" width="6.33" height="0.25" transform="translate(104.56 390.89)" fill="#ebebeb"/>
      <rect id="Rectangle_2650" data-name="Rectangle 2650" width="93.68" height="0.25" transform="translate(131.47 395.11)" fill="#ebebeb"/>
      <path id="Path_6982" data-name="Path 6982" d="M237,337.8H43.91a5.71,5.71,0,0,1-5.7-5.71V60.66A5.71,5.71,0,0,1,43.91,55H237a5.71,5.71,0,0,1,5.71,5.71V332.09A5.71,5.71,0,0,1,237,337.8ZM43.91,55.2a5.46,5.46,0,0,0-5.45,5.46V332.09a5.46,5.46,0,0,0,5.45,5.46H237a5.47,5.47,0,0,0,5.46-5.46V60.66A5.47,5.47,0,0,0,237,55.2Z" fill="#ebebeb"/>
      <path id="Path_6983" data-name="Path 6983" d="M453.31,337.8H260.21a5.72,5.72,0,0,1-5.71-5.71V60.66A5.72,5.72,0,0,1,260.21,55h193.1A5.71,5.71,0,0,1,459,60.66V332.09A5.71,5.71,0,0,1,453.31,337.8ZM260.21,55.2a5.47,5.47,0,0,0-5.46,5.46V332.09a5.47,5.47,0,0,0,5.46,5.46h193.1a5.47,5.47,0,0,0,5.46-5.46V60.66a5.47,5.47,0,0,0-5.46-5.46Z" fill="#ebebeb"/>
      <rect id="Rectangle_2651" data-name="Rectangle 2651" width="130.44" height="6.7" transform="translate(316.8 138.61)" fill="#e0e0e0"/>
      <rect id="Rectangle_2652" data-name="Rectangle 2652" width="5.75" height="24.7" transform="translate(322.8 113.91)" fill="#ebebeb"/>
      <rect id="Rectangle_2653" data-name="Rectangle 2653" width="5.75" height="24.7" transform="translate(350.59 113.91)" fill="#ebebeb"/>
      <rect id="Rectangle_2654" data-name="Rectangle 2654" width="5.75" height="24.7" transform="matrix(0.985, -0.17, 0.17, 0.985, 382.224, 114.252)" fill="#ebebeb"/>
      <rect id="Rectangle_2655" data-name="Rectangle 2655" width="5.75" height="21.45" transform="translate(329.92 117.17)" fill="#ebebeb"/>
      <rect id="Rectangle_2656" data-name="Rectangle 2656" width="5.75" height="21.45" transform="translate(343.13 117.17)" fill="#ebebeb"/>
      <rect id="Rectangle_2657" data-name="Rectangle 2657" width="5.75" height="21.45" transform="translate(376.47 117.17)" fill="#ebebeb"/>
      <rect id="Rectangle_2658" data-name="Rectangle 2658" width="5.75" height="21.45" transform="translate(358.272 117.661) rotate(-12.53)" fill="#ebebeb"/>
      <rect id="Rectangle_2659" data-name="Rectangle 2659" width="2.87" height="25.93" transform="translate(337.77 112.68)" fill="#ebebeb"/>
      <rect id="Rectangle_2660" data-name="Rectangle 2660" width="2.87" height="25.93" transform="translate(371.95 112.68)" fill="#ebebeb"/>
      <rect id="Rectangle_2661" data-name="Rectangle 2661" width="28" height="19.33" transform="translate(406.72 119.06)" fill="#ebebeb"/>
      <rect id="Rectangle_2662" data-name="Rectangle 2662" width="130.44" height="6.7" transform="translate(447.24 195.34) rotate(180)" fill="#e0e0e0"/>
      <rect id="Rectangle_2663" data-name="Rectangle 2663" width="5.75" height="24.7" transform="translate(441.23 188.65) rotate(180)" fill="#ebebeb"/>
      <rect id="Rectangle_2664" data-name="Rectangle 2664" width="5.75" height="24.7" transform="translate(413.45 188.65) rotate(180)" fill="#ebebeb"/>
      <rect id="Rectangle_2665" data-name="Rectangle 2665" width="5.75" height="24.7" transform="matrix(-0.985, -0.17, 0.17, -0.985, 377.63, 188.643)" fill="#ebebeb"/>
      <rect id="Rectangle_2666" data-name="Rectangle 2666" width="5.75" height="21.45" transform="translate(434.11 188.64) rotate(180)" fill="#ebebeb"/>
      <rect id="Rectangle_2667" data-name="Rectangle 2667" width="5.75" height="21.45" transform="translate(420.91 188.64) rotate(180)" fill="#ebebeb"/>
      <rect id="Rectangle_2668" data-name="Rectangle 2668" width="5.75" height="21.45" transform="translate(387.57 188.64) rotate(180)" fill="#ebebeb"/>
      <rect id="Rectangle_2669" data-name="Rectangle 2669" width="5.75" height="21.45" transform="translate(401.128 188.63) rotate(-167.47)" fill="#ebebeb"/>
      <rect id="Rectangle_2670" data-name="Rectangle 2670" width="2.87" height="25.93" transform="translate(426.27 188.64) rotate(180)" fill="#ebebeb"/>
      <rect id="Rectangle_2671" data-name="Rectangle 2671" width="2.87" height="25.93" transform="translate(392.09 188.64) rotate(180)" fill="#ebebeb"/>
      <rect id="Rectangle_2672" data-name="Rectangle 2672" width="28" height="19.33" transform="translate(357.31 188.43) rotate(180)" fill="#ebebeb"/>
      <path id="Path_6984" data-name="Path 6984" d="M53,266V383h6V278H165V383h7V266Z" fill="#e0e0e0"/>
      <path id="Path_6985" data-name="Path 6985" d="M119,266V383h6V278H231V383h7V266Z" fill="#f5f5f5"/>
      <path id="Path_6986" data-name="Path 6986" d="M156.88,222.4c-1.34-2.2-3.54-.28-3.54-.28.31-4.23-3.57-7.11-3.57-7.11s4.51,0,5.14-4.31-1.57-2.3-3.64-2.33-4.23,6-1.5,9.4,2,9.2-4.3,14.77a12.36,12.36,0,0,0-3.29,5.13c.48-5.12.75-12.34-.76-17.15-2.56-8.19,2.32-10.39,3.73-14.48s-3.73-7.56-3.73-7.56,4.84-2.2,2.47-4.72-7.23-2.18-7.23,1.12,3.3,4.55,3.3,4.55,3.78,3.93,3.78,6-3.78,6.45-3.78,6.45,1.73-3.77-1.73-3.93-4.57,4.4-3.15,6.45,3.78.31,3.78.31a39.441,39.441,0,0,0,1.08,7.08c.35,1.18.19,5.8-.11,10.6a12,12,0,0,0-3.07-4.55c-6.29-5.57-7-11.37-4.3-14.77s.57-9.43-1.5-9.4-4.27-2-3.64,2.33,5.14,4.31,5.14,4.31-3.88,2.88-3.56,7.11c0,0-2.21-1.92-3.55.28-2.38,3.94,3.15,6.38,4.08,4.44,0,0,11.74,8.31,8.91,20.27l.66,1c-.09,1-.14,1.55-.14,1.55l.92-.39,1,1.54a36,36,0,0,0,.27,5.2l2.8-4.15c-2.83-12,8.91-20.27,8.91-20.27C153.73,228.78,159.27,226.34,156.88,222.4Z" fill="#e0e0e0"/>
      <path id="Path_6987" data-name="Path 6987" d="M149.77,266l-3.79-21.69,1.07-6.31H135.12l1.07,6.31L132.41,266Z" fill="#ebebeb"/>
    </g>
    <g id="freepik--Shadow--inject-25">
      <ellipse id="freepik--path--inject-25" cx="193.89" cy="11.32" rx="193.89" ry="11.32" transform="translate(56.11 404.92)" fill="#d9f2f2"/>
    </g>
    <g id="freepik--Files--inject-25">
      <rect id="Rectangle_2673" data-name="Rectangle 2673" width="35.01" height="45.72" transform="translate(269.931 90.654) rotate(28.37)" fill="#407bff"/>
      <rect id="Rectangle_2674" data-name="Rectangle 2674" width="35.01" height="45.72" transform="translate(269.931 90.654) rotate(28.37)" fill="#fff" opacity="0.6"/>
      <rect id="Rectangle_2675" data-name="Rectangle 2675" width="24.56" height="2.47" transform="translate(271.455 98.839) rotate(28.37)" fill="#407bff"/>
      <rect id="Rectangle_2676" data-name="Rectangle 2676" width="24.56" height="2.47" transform="translate(269.401 102.647) rotate(28.37)" fill="#407bff"/>
      <rect id="Rectangle_2677" data-name="Rectangle 2677" width="24.56" height="2.47" transform="translate(267.343 106.452) rotate(28.37)" fill="#407bff"/>
      <rect id="Rectangle_2678" data-name="Rectangle 2678" width="24.56" height="2.47" transform="translate(265.28 110.255) rotate(28.37)" fill="#407bff"/>
      <rect id="Rectangle_2679" data-name="Rectangle 2679" width="24.56" height="2.47" transform="translate(263.231 114.055) rotate(28.37)" fill="#407bff"/>
      <rect id="Rectangle_2680" data-name="Rectangle 2680" width="24.56" height="2.47" transform="translate(261.178 117.868) rotate(28.37)" fill="#407bff"/>
      <rect id="Rectangle_2681" data-name="Rectangle 2681" width="24.56" height="2.47" transform="translate(259.128 121.668) rotate(28.37)" fill="#407bff"/>
      <rect id="Rectangle_2682" data-name="Rectangle 2682" width="15.9" height="2.47" transform="translate(257.062 125.476) rotate(28.37)" fill="#407bff"/>
      <path id="Path_6988" data-name="Path 6988" d="M218.89,107.59a22.15,22.15,0,1,1,24.29-19.78,22.15,22.15,0,0,1-24.29,19.78Z" fill="#407bff"/>
      <circle id="Ellipse_61" data-name="Ellipse 61" cx="20.21" cy="20.21" r="20.21" transform="translate(199.45 66.931) rotate(-4.4)" fill="#fff" opacity="0.3"/>
      <path id="Path_6989" data-name="Path 6989" d="M228,79c-2.33-1.65-5.58-7.29-5.58-7.32l-2.1,20.44c.05-.46-1.77-.93-3-1-2.93-.31-5.4,1.07-5.6,3s2,3.85,5,4.15,5.37-1.08,5.58-3.06c0-.3-.21-.62-.18-.89l1.61-15.75a13.26,13.26,0,0,0,4.34,3.29c2.21,1,3,4.07,3,4.07A7.92,7.92,0,0,0,228,79Z" fill="#fff"/>
      <ellipse id="Ellipse_62" data-name="Ellipse 62" cx="15.94" cy="13.21" rx="15.94" ry="13.21" transform="matrix(0.888, -0.46, 0.46, 0.888, 198.586, 76.515)" fill="#fff" opacity="0.5"/>
      <rect id="Rectangle_2683" data-name="Rectangle 2683" width="47.75" height="35.75" transform="translate(130.195 60.671) rotate(-4.65)" fill="#407bff"/>
      <rect id="Rectangle_2684" data-name="Rectangle 2684" width="43" height="31" transform="translate(132.814 62.787) rotate(-4.65)" fill="#407bff"/>
      <path id="Path_7093" data-name="Path 7093" d="M0,0H43V31H0Z" transform="translate(132.814 62.787) rotate(-4.65)" fill="#fff" opacity="0.5"/>
      <path id="Path_6990" data-name="Path 6990" d="M177.84,86l.34,4.2-42.86,3.49L134.1,78.67l8.21-8.46,14.17,11.73,6.54-5.63Z" fill="#407bff"/>
      <path id="Path_6991" data-name="Path 6991" d="M177.84,86l.34,4.2-42.86,3.49L134.1,78.67l8.21-8.46,14.17,11.73,6.54-5.63Z" fill="#fff" opacity="0.3"/>
      <path id="Path_6992" data-name="Path 6992" d="M169.19,68a3.46,3.46,0,1,1-3.73-3.17A3.46,3.46,0,0,1,169.19,68Z" fill="#407bff"/>
      <path id="Path_6993" data-name="Path 6993" d="M169.19,68a3.46,3.46,0,1,1-3.73-3.17A3.46,3.46,0,0,1,169.19,68Z" fill="#fff" opacity="0.3"/>
      <path id="Path_6994" data-name="Path 6994" d="M86.39,98.87l-1.84-1.13a2.45,2.45,0,0,0-2.2-.19L74.18,101a2.14,2.14,0,0,0-1.31,1.66l-.3,2a2.08,2.08,0,0,1-1.3,1.65l-4.88,2a2.15,2.15,0,0,0-1.09,3l13,26.64a2.46,2.46,0,0,0,3.11,1.19L120.07,123a2.14,2.14,0,0,0,1.1-3l-13-26.63a2.46,2.46,0,0,0-3.11-1.2L88.59,99.06A2.45,2.45,0,0,1,86.39,98.87Z" fill="#407bff"/>
      <path id="Path_6995" data-name="Path 6995" d="M110,93.16,74.59,108a3.21,3.21,0,0,0-1.8,3.87l7.75,24.53a2.6,2.6,0,0,0,3.55,1.6l35.42-14.82a3.23,3.23,0,0,0,1.8-3.87l-7.76-24.53A2.59,2.59,0,0,0,110,93.16Z" fill="#407bff"/>
      <path id="Path_6996" data-name="Path 6996" d="M110,93.16,74.59,108a3.21,3.21,0,0,0-1.8,3.87l7.75,24.53a2.6,2.6,0,0,0,3.55,1.6l35.42-14.82a3.23,3.23,0,0,0,1.8-3.87l-7.76-24.53A2.59,2.59,0,0,0,110,93.16Z" fill="#fff" opacity="0.5"/>
    </g>
    <g id="freepik--Cloud--inject-25">
      <path id="Path_6997" data-name="Path 6997" d="M238.48,152a30.13,30.13,0,0,0,.66-6.28,29.82,29.82,0,0,0-29.82-29.82,30.359,30.359,0,0,0-5.51.51c-.76-.14-1.53,0-2.32-.09A34.92,34.92,0,0,0,169.5,96h-11a35,35,0,0,0-35.17,34.92v.65a29.44,29.44,0,0,0,5.4,58.43h108a19.02,19.02,0,0,0,1.73-38Z" fill="#407bff"/>
      <path id="Path_6998" data-name="Path 6998" d="M238.48,152a30.13,30.13,0,0,0,.66-6.28,29.82,29.82,0,0,0-29.82-29.82,30.359,30.359,0,0,0-5.51.51c-.76-.14-1.53,0-2.32-.09A34.92,34.92,0,0,0,169.5,96h-11a35,35,0,0,0-35.17,34.92v.65a29.44,29.44,0,0,0,5.4,58.43h108a19.02,19.02,0,0,0,1.73-38Z" fill="#fff" opacity="0.5"/>
      <path id="Path_6999" data-name="Path 6999" d="M238.48,152a30.13,30.13,0,0,0,.66-6.28,29.82,29.82,0,0,0-29.82-29.82,30.359,30.359,0,0,0-5.51.51c-.76-.14-1.53,0-2.32-.09A34.92,34.92,0,0,0,169.5,96h0a35,35,0,0,0-35.17,34.92v.65a29.44,29.44,0,0,0,5.4,58.43h97a19.02,19.02,0,0,0,1.73-38Z" fill="#fff" opacity="0.4"/>
      <path id="Path_7000" data-name="Path 7000" d="M267.67,239H234a50.06,50.06,0,0,1-50-50V179H174v10a60.07,60.07,0,0,0,60,60h33.67Z" fill="#407bff"/>
      <path id="Path_7001" data-name="Path 7001" d="M178.88,172.34,170.21,181h17.33Z" fill="#407bff"/>
    </g>
    <g id="freepik--Stuff--inject-25">
      <path id="Path_7002" data-name="Path 7002" d="M104.28,367.33l-6-18.33A26.16,26.16,0,0,1,120,343.17l5,17.16Z" fill="#407bff"/>
      <path id="Path_7003" data-name="Path 7003" d="M104.28,367.33l-6-18.33A26.16,26.16,0,0,1,120,343.17l5,17.16Z" fill="#fff" opacity="0.7"/>
      <g id="Group_5284" data-name="Group 5284" opacity="0.2">
        <path id="Path_7004" data-name="Path 7004" d="M101.14,353.33a16.212,16.212,0,0,1,2.37-2.17,21.282,21.282,0,0,1,2.78-1.82c.53-.28,1.09-.58,1.68-.84a15.762,15.762,0,0,1,1.81-.7,17.912,17.912,0,0,1,1.87-.52l.93-.21.93-.11c.3,0,.6-.09.89-.11h.86a9,9,0,0,1,1.58.05c.48.05.92.09,1.31.16l1,.23.85.22h-.88l-1-.05h-1.3a13.9,13.9,0,0,0-1.51.12,14.68,14.68,0,0,0-1.67.25l-.88.16-.88.23a16.449,16.449,0,0,0-1.78.53c-.61.16-1.18.43-1.76.64s-1.12.48-1.65.73-1,.5-1.52.77-.93.5-1.34.74c-.82.48-1.5.89-2,1.21Z"/>
        <path id="Path_7005" data-name="Path 7005" d="M101.67,355s.23-.2.67-.51,1.06-.76,1.85-1.22a30.094,30.094,0,0,1,2.77-1.48,33.188,33.188,0,0,1,3.34-1.36c.59-.17,1.18-.37,1.76-.53a16.047,16.047,0,0,1,1.74-.39c.57-.09,1.12-.22,1.65-.26s1-.11,1.49-.12a17.222,17.222,0,0,1,2.22.08l.84.1s-.31.05-.84.1a3.343,3.343,0,0,0-.94.1l-1.22.19c-.45.07-.92.2-1.43.29s-1,.26-1.57.38-1.1.32-1.67.46-1.13.37-1.7.55c-2.28.76-4.51,1.68-6.18,2.39-.83.37-1.54.65-2,.88Z"/>
        <path id="Path_7006" data-name="Path 7006" d="M103.08,358.42a7,7,0,0,1,.62-.55c.4-.33,1-.8,1.72-1.31a26.01,26.01,0,0,1,2.63-1.59,27.871,27.871,0,0,1,3.21-1.47,23.91,23.91,0,0,1,3.4-1,14.113,14.113,0,0,1,1.62-.24c.52,0,1-.11,1.46-.1l1.23.05a6.813,6.813,0,0,1,.94.12l.81.14s-.3,0-.82.05a5.225,5.225,0,0,0-.92.06l-1.2.16c-.43.05-.89.17-1.39.25s-1,.26-1.53.37-1.06.33-1.61.48-1.09.38-1.64.57-1.09.41-1.62.64-1.06.43-1.55.67c-1,.45-1.93.91-2.72,1.3s-1.46.73-1.91,1Z"/>
        <path id="Path_7007" data-name="Path 7007" d="M103.92,360.75a16.319,16.319,0,0,1,2.25-1.86,22.539,22.539,0,0,1,2.58-1.54c.5-.24,1-.48,1.55-.7a16.373,16.373,0,0,1,1.66-.59,17.17,17.17,0,0,1,1.71-.44,12.883,12.883,0,0,1,1.69-.27,11,11,0,0,1,1.6-.09,9.3,9.3,0,0,1,1.42.06l1.2.16.9.22c.49.13.77.22.77.22h-2.88A11.288,11.288,0,0,0,117,356a14.551,14.551,0,0,0-1.52.21c-.52.07-1,.22-1.6.34s-1.08.29-1.62.45a31.335,31.335,0,0,0-3.14,1.14c-1,.42-1.89.85-2.66,1.23s-1.41.72-1.85,1Z"/>
        <path id="Path_7008" data-name="Path 7008" d="M105.08,363.87a6.854,6.854,0,0,1,.59-.55c.39-.33.94-.8,1.65-1.31a24.448,24.448,0,0,1,2.53-1.59c.47-.27,1-.53,1.5-.77s1.07-.45,1.61-.69a14.659,14.659,0,0,1,1.66-.55,14.24,14.24,0,0,1,1.66-.39,15.435,15.435,0,0,1,1.57-.21c.51,0,1-.08,1.43-.06l1.2.08a5,5,0,0,1,.91.16l.78.18h-1.7l-1.16.11c-.42.05-.88.16-1.35.22s-1,.24-1.49.34-1,.32-1.57.46a13.562,13.562,0,0,0-1.59.56c-.53.2-1.06.4-1.57.63s-1,.43-1.5.67c-1,.45-1.85.91-2.62,1.3s-1.41.72-1.84,1Z"/>
      </g>
      <path id="Path_7009" data-name="Path 7009" d="M101.68,367.46,114,358.12a1.33,1.33,0,0,1,1.07-.25l14.07,2.67a1.35,1.35,0,0,1,.39,2.52l-11.61,6.29a1.46,1.46,0,0,1-.61.16l-14.8.38a1.35,1.35,0,0,1-.83-2.43Z" fill="#407bff"/>
      <path id="Path_7010" data-name="Path 7010" d="M123.89,373s18.94-45.83,22.28-48.67,24.5,9.47,24.5,9.47l-18.84,48.37Z" fill="#407bff"/>
      <path id="Path_7011" data-name="Path 7011" d="M129.33,372.67s18.14-43.78,20.84-45.67,18.16,6.17,18.16,6.17-16.11-9.84-21.05-8.17-21.78,46.67-21.78,46.67Z" opacity="0.2"/>
      <rect id="Rectangle_2686" data-name="Rectangle 2686" width="80.44" height="47.5" transform="translate(87.06 368.5)" fill="#263238"/>
      <rect id="Rectangle_2687" data-name="Rectangle 2687" width="80.44" height="47.5" transform="translate(87.06 368.5)" fill="#fff" opacity="0.2"/>
      <rect id="Rectangle_2688" data-name="Rectangle 2688" width="49.94" height="47.5" transform="translate(117.56 368.5)" fill="#fff" opacity="0.4"/>
      <path id="Path_7012" data-name="Path 7012" d="M117.56,369l18.94-15.25,42.25,2.88L167.5,369Z" fill="#263238"/>
      <path id="Path_7013" data-name="Path 7013" d="M117.56,369l-14.31-16.5L73,355.75,87.06,368.5Z" fill="#263238"/>
      <path id="Path_7014" data-name="Path 7014" d="M117.56,369l-14.31-16.5L73,355.75,87.06,368.5Z" fill="#fff" opacity="0.1"/>
      <path id="Path_7015" data-name="Path 7015" d="M117.56,369l18.94-15.25,42.25,2.88L167.5,369Z" fill="#fff" opacity="0.4"/>
      <path id="Path_7016" data-name="Path 7016" d="M152.27,390.36a12.78,12.78,0,1,0,12.78,12.78A12.78,12.78,0,0,0,152.27,390.36Zm0,17.87a5.09,5.09,0,1,1,3.606-1.487A5.1,5.1,0,0,1,152.27,408.23Z" fill="#407bff"/>
      <path id="Path_7017" data-name="Path 7017" d="M163.79,397.59a12.38,12.38,0,0,0-.78-1.37,11.39,11.39,0,0,0-1.28-1.67,12.64,12.64,0,0,0-8.47-4.14,8.212,8.212,0,0,0-1-.05,12.79,12.79,0,0,0-12.39,15.88,10.479,10.479,0,0,0,.46,1.44,11.509,11.509,0,0,0,1,2,12.75,12.75,0,0,0,9.84,6.15c.37,0,.74.05,1.11.05a12.79,12.79,0,0,0,11.52-18.32Zm-11.52,10.64a3.863,3.863,0,0,1-.48,0,5.07,5.07,0,0,1-4.23-3.13,5.531,5.531,0,0,1-.28-.9,5.415,5.415,0,0,1-.07-.58,3.4,3.4,0,0,1,0-.45,5.09,5.09,0,0,1,5.09-5.1,2.171,2.171,0,0,1,.36,0,5.06,5.06,0,0,1,2.87,1.12,4.852,4.852,0,0,1,.56.55,3.9,3.9,0,0,1,.4.51,5,5,0,0,1,.91,2.9,5.09,5.09,0,0,1-5.13,5.08Z" fill="#fff" opacity="0.7"/>
      <path id="Path_7018" data-name="Path 7018" d="M151.79,408.2l-.63,7.66a12.75,12.75,0,0,1-9.84-6.15l6.24-4.64a5.07,5.07,0,0,0,4.23,3.13Z" fill="#fff" opacity="0.2"/>
      <path id="Path_7019" data-name="Path 7019" d="M161.73,394.55l-6.23,4.63a5.06,5.06,0,0,0-2.87-1.12l.63-7.65A12.64,12.64,0,0,1,161.73,394.55Z" fill="#fff" opacity="0.2"/>
      <path id="Path_7020" data-name="Path 7020" d="M147.28,404.17l-6.94,3.51a10.479,10.479,0,0,1-.46-1.44l7.33-2.65a5.407,5.407,0,0,0,.07.58Z" fill="#fff" opacity="0.2"/>
      <path id="Path_7021" data-name="Path 7021" d="M163.79,397.59l-7.33,2.65a3.9,3.9,0,0,0-.4-.51l6.95-3.51a12.38,12.38,0,0,1,.78,1.37Z" fill="#fff" opacity="0.2"/>
      <path id="Path_7022" data-name="Path 7022" d="M161.6,393.91c-7,0-10.83,4.93-8.43,11s10.05,11,17.1,11,10.84-4.92,8.44-11S168.66,393.91,161.6,393.91Zm6.07,15.39a7.76,7.76,0,0,1-6.82-4.39c-1-2.42.55-4.39,3.36-4.39a7.78,7.78,0,0,1,6.82,4.39c.97,2.42-.55,4.39-3.36,4.39Z" fill="#407bff"/>
      <path id="Path_7023" data-name="Path 7023" d="M175.57,400.13c-.39-.4-.8-.8-1.24-1.18a17.8,17.8,0,0,0-1.85-1.43,19.87,19.87,0,0,0-9.87-3.57h-1c-7,0-10.83,4.92-8.43,11a13,13,0,0,0,1.43,2.67,12,12,0,0,0,1,1.24,16.142,16.142,0,0,0,1.67,1.75,20.4,20.4,0,0,0,11.92,5.3h1.13c7.06,0,10.84-4.93,8.45-11a15.14,15.14,0,0,0-3.21-4.78Zm-7.91,9.17h-.49a8.16,8.16,0,0,1-5.29-2.69,6.062,6.062,0,0,1-.58-.78,4.829,4.829,0,0,1-.27-.5,3.39,3.39,0,0,1-.18-.39c-1-2.43.55-4.39,3.36-4.39a2.171,2.171,0,0,1,.36,0,7.69,7.69,0,0,1,3.25,1,7.344,7.344,0,0,1,.75.48,4.811,4.811,0,0,1,.57.44,6.28,6.28,0,0,1,1.9,2.49c.96,2.37-.56,4.34-3.38,4.34Z" fill="#fff" opacity="0.1"/>
      <path id="Path_7024" data-name="Path 7024" d="M167.17,409.27l2,6.6a20.4,20.4,0,0,1-11.92-5.3l4.66-4A8.16,8.16,0,0,0,167.17,409.27Z" fill="#fff" opacity="0.2"/>
      <path id="Path_7025" data-name="Path 7025" d="M172.48,397.52l-4.66,4a7.69,7.69,0,0,0-3.25-1l-2-6.59a19.871,19.871,0,0,1,9.91,3.59Z" fill="#fff" opacity="0.2"/>
      <path id="Path_7026" data-name="Path 7026" d="M161.3,405.8l-5.75,3a12,12,0,0,1-1-1.24L161,405.3A4.824,4.824,0,0,0,161.3,405.8Z" fill="#fff" opacity="0.2"/>
      <path id="Path_7027" data-name="Path 7027" d="M175.57,400.13l-6.43,2.29a4.808,4.808,0,0,0-.57-.44l5.76-3A13.5,13.5,0,0,1,175.57,400.13Z" fill="#fff" opacity="0.2"/>
    </g>
    <g id="freepik--Chair--inject-25">
      <path id="Path_7028" data-name="Path 7028" d="M372.4,330l.36,15.57L374.4,416h5.41l1.63-70.43L381.8,330Z" fill="#407bff"/>
      <path id="Path_7029" data-name="Path 7029" d="M372.4,330l.36,15.57L374.4,416h5.41l1.63-70.43L381.8,330Z" fill="#fff" opacity="0.4"/>
      <path id="Path_7030" data-name="Path 7030" d="M372.4,330l.36,16h8.68l.36-16Z" opacity="0.2"/>
      <path id="Path_7031" data-name="Path 7031" d="M343.02,415.75l5-84.65h8.17l-7,84.65Z" fill="#407bff"/>
      <path id="Path_7032" data-name="Path 7032" d="M349.21,415.75h-6.18l4.54-77.05.45-7.7h8.17l-.63,7.7Z" fill="#fff" opacity="0.5"/>
      <path id="Path_7033" data-name="Path 7033" d="M356.19,331l-.63,8h-7.99l.45-8Z" opacity="0.2"/>
      <path id="Path_7034" data-name="Path 7034" d="M405.02,415.75l-7-84.65h8.17l5,84.65Z" fill="#407bff"/>
      <path id="Path_7035" data-name="Path 7035" d="M405,415.75l-6.35-77.05-.63-7.7h8.17l.45,7.7,4.54,77.05Z" fill="#fff" opacity="0.5"/>
      <path id="Path_7036" data-name="Path 7036" d="M398.02,331l.63,8h7.99l-.45-8Z" opacity="0.2"/>
      <path id="Path_7037" data-name="Path 7037" d="M343.65,322.33h66.92V329a5,5,0,0,1-5,5H348.65a5,5,0,0,1-5-5v-6.67Z" transform="translate(754.21 656.36) rotate(180)" fill="#407bff"/>
      <rect id="Rectangle_2689" data-name="Rectangle 2689" width="73.33" height="5.84" rx="2.01" transform="translate(413.77 334.02) rotate(180)" fill="#407bff"/>
      <rect id="Rectangle_2690" data-name="Rectangle 2690" width="73.33" height="5.84" rx="2.01" transform="translate(413.77 334.02) rotate(180)" fill="#fff" opacity="0.6"/>
    </g>
    <g id="freepik--Character--inject-25">
      <g id="freepik--group--inject-25">
        <path id="Path_7038" data-name="Path 7038" d="M353.09,227.5s-.28.76-.79,2-1.29,3.13-2.24,5.19c-2.3,5-5.64,11.36-9.13,14.79a9.4,9.4,0,0,1-3.1,2.16c-3.72,1.43-13.05,1.69-21.38,1.61s-15.45-.5-15.45-.5v-6.31l27.39-7.3s14.44-26.06,23-29.92Z" fill="#263238"/>
        <path id="Path_7039" data-name="Path 7039" d="M352.3,229.51c-.52,1.3-1.29,3.13-2.24,5.19-2.3,5-5.64,11.36-9.13,14.79-3.55-13.08,9.58-25.53,9.58-25.53Z" opacity="0.2"/>
        <path id="Path_7040" data-name="Path 7040" d="M348.76,408.78l-7.97-1.09-1.1-18.94,7.95,1.1Z" fill="#ebb376"/>
        <path id="Path_7041" data-name="Path 7041" d="M347.64,389.85l-7.95-1.09.63,10.82,7.95.7Z" opacity="0.2"/>
        <path id="Path_7042" data-name="Path 7042" d="M348.44,297.46l1.94-12.18L395,282.61s4.75,25.34,1.1,32.09c-6.51,12.05-41.61,6-51.89,7.15C350.39,347,349.79,396,349.79,396l-14.67,1.12s-11.28-52.87-13.57-78C320,302.2,334.06,302.62,348.44,297.46Z" fill="#407bff"/>
        <path id="Path_7043" data-name="Path 7043" d="M351.51,396.73l-17.63,1.15-1.51-7.55,19.37-.89Z" fill="#407bff"/>
        <path id="Path_7044" data-name="Path 7044" d="M330.38,401.71l-8.02.59-5.02-18.29,8.01-.58Z" fill="#ebb376"/>
        <path id="Path_7045" data-name="Path 7045" d="M321.28,402.57h-.14c0-.12-.41-2.37-1.38-2.9a.9.9,0,0,0-.8,0,.7.7,0,0,0-.49.73,3,3,0,0,0,1.18,1.63,3.21,3.21,0,0,0-2.24.06.71.71,0,0,0-.28.63,1,1,0,0,0,.51.94,2.15,2.15,0,0,0,1.56,0,10,10,0,0,0,2-.84h.07v-.06a.16.16,0,0,0,.01-.19Zm-2.41-2.24c0-.11,0-.25.27-.35h.09a.5.5,0,0,1,.43.05c.58.31,1,1.53,1.17,2.26l-.18-.05c-.79-.47-1.71-1.37-1.78-1.91Zm-1.05,2.94a.71.71,0,0,1-.31-.61.36.36,0,0,1,.13-.31c.46-.34,1.92-.05,3,.27-1.33.66-2.35.9-2.82.65Z" fill="#407bff"/>
        <path id="Path_7046" data-name="Path 7046" d="M325.35,383.43l-8.01.59,2.87,10.45,7.92-.97Z" opacity="0.2"/>
        <path id="Path_7047" data-name="Path 7047" d="M314.62,393.18,328.74,389s-8.43-47.58-17-64.08c.64-.21,1.49-.48,2.54-.79,1.89-.57,4.4-1.28,7.35-2.1,20.52-5.69,62.11-16.36,62.11-16.36l-19-17.73s-75.68,11.54-77.25,31.48C286.76,329,314.62,393.18,314.62,393.18Z" fill="#407bff"/>
        <path id="Path_7048" data-name="Path 7048" d="M330.56,389.34l-17,4.81-3.05-7.07,18.76-4.91Z" fill="#407bff"/>
        <path id="Path_7049" data-name="Path 7049" d="M314.3,324.16c1.89-.57,4.4-1.28,7.35-2.1-.59-4.84-.6-10.39,1.73-13.22,4.63-5.64,16.54-8.95,23.32-10.15,5.67-1,24.72-3,24.72-3s-24.72-2.37-50,5C308.94,304.35,311.37,316.56,314.3,324.16Z" opacity="0.2"/>
        <path id="Path_7050" data-name="Path 7050" d="M397.52,295.34c3-2.29.12-23.59,1.65-44.54,2.33-31.9,0-42.15-2.35-43.14a90.4,90.4,0,0,0-13.13-1.3,168.115,168.115,0,0,0-19.31.42,84.737,84.737,0,0,0-13,2.64s-10.52,33.5-3.8,81.75Z" fill="#263238"/>
        <path id="Path_7051" data-name="Path 7051" d="M400,234.38h0c-.13,4.69-.41,10.13-.87,16.41-1.53,20.95,1.33,42.25-1.65,44.54l-49.95-4.17a225.22,225.22,0,0,1-.05-63.15c4.06-6.34,11.94-13.57,15.56-16.74a7.52,7.52,0,0,0,4.6,2.39c3.89.76,8.33-1,12-3.24,2.9,2.89,8.4,8.74,10.81,13.67a15.721,15.721,0,0,1,.67,1.57c1.53,4.28,6.2-1,8.58-7.88a149,149,0,0,1,.3,16.6Z" fill="#fff" opacity="0.8"/>
        <path id="Path_7052" data-name="Path 7052" d="M381.32,184.71c-1.09,6.24-2.06,17.64,2.37,21.7a20,20,0,0,1-14,6.36c-8,.35-5.3-6-5.3-6,6.9-1.8,6.6-6.94,5.29-11.74Z" fill="#ebb376"/>
        <path id="Path_7053" data-name="Path 7053" d="M376.57,188.94l-6.89,6.14a19.782,19.782,0,0,1,.67,3.41c2.64-.43,6.21-3.42,6.44-6.2a9.22,9.22,0,0,0-.22-3.35Z" opacity="0.2"/>
        <path id="Path_7054" data-name="Path 7054" d="M366.19,168.56c3.45,2.34,1.88,6.3-5.92,12.51C357.11,177,356.58,169,359.1,167S363.19,166.53,366.19,168.56Z" fill="#263238"/>
        <path id="Path_7055" data-name="Path 7055" d="M381,175c-.37,8.43-.17,13.37-4.34,17.77-6.28,6.61-16.74,2.93-18.89-5.44-1.92-7.52-1-20,7.19-23.53A11.49,11.49,0,0,1,381,175Z" fill="#ebb376"/>
        <path id="Path_7061" data-name="Path 7061" d="M377.54,167.58c-3.91,1.42-3.35,5.65,2.69,13.57,4.08-3.21,6.55-10.82,4.58-13.37S381,166.35,377.54,167.58Z" fill="#263238"/>
        <path id="Path_7062" data-name="Path 7062" d="M385.15,181.65a8,8,0,0,1-3.73,4.86c-2.45,1.38-4.34-.65-4.23-3.3.11-2.4,1.51-6,4.24-6.3S385.81,179.13,385.15,181.65Z" fill="#ebb376"/>
        <path id="Path_7063" data-name="Path 7063" d="M369.68,185.79a5.88,5.88,0,0,1-5.54,2.63" fill="none" stroke="#263238" stroke-linecap="round" stroke-linejoin="round" stroke-width="0.526"/>
        <path id="Path_7064" data-name="Path 7064" d="M369,166.24s1.26,8.44,9.39,9,9.87-4.49,9.87-4.49a15.543,15.543,0,0,1-2,.16s2.38-4.09,0-8-10.48-8.09-16.49-6a14.27,14.27,0,0,0-11.38,1.1c-5.63,3.27-4.63,10.4-4.63,10.4s-.25-4.33,2.38-5.54c0,0-3.25,8.91,1.62,11.29C357.75,174.13,358.23,165.36,369,166.24Z" fill="#263238"/>
        <path id="Path_7065" data-name="Path 7065" d="M355.17,246s-29-.66-30.64-.82-8.51-4-10-4.21-5.38,6-5.87,7.44,11,5.34,12.11,5.17a20.689,20.689,0,0,0,3.73-1.39L354.1,256Z" fill="#ebb376"/>
        <path id="Path_7066" data-name="Path 7066" d="M271,252v2.65c0,.79,1.36,1.35,2.15,1.35h61.79c.8,0,2.06-.56,2.06-1.35V252Z" fill="#263238"/>
        <path id="Path_7067" data-name="Path 7067" d="M271,252v2.65c0,.79,1.36,1.35,2.15,1.35h61.79c.8,0,2.06-.56,2.06-1.35V252Z" fill="#fff" opacity="0.6"/>
        <path id="Path_7068" data-name="Path 7068" d="M271,252v2.65c0,.79,1.36,1.35,2.15,1.35H313.9c.8,0,2.1-.56,2.1-1.35V252Z" opacity="0.2"/>
        <path id="Path_7069" data-name="Path 7069" d="M261.09,219.51,268.45,253a2.61,2.61,0,0,0,2.39,2H311a1.74,1.74,0,0,0,1.51-2.24l-7.35-33.12a2.3,2.3,0,0,0-2.39-1.64H262.61C261.53,218,260.85,218.42,261.09,219.51Z" fill="#263238"/>
        <path id="Path_7070" data-name="Path 7070" d="M261.09,219.51,268.45,253a2.61,2.61,0,0,0,2.39,2H311a1.74,1.74,0,0,0,1.51-2.24l-7.35-33.12a2.3,2.3,0,0,0-2.39-1.64H262.61C261.53,218,260.85,218.42,261.09,219.51Z" fill="#fff" opacity="0.6"/>
        <path id="Path_7071" data-name="Path 7071" d="M261.09,219.51,268.45,253a2.61,2.61,0,0,0,2.39,2h38.81a1.75,1.75,0,0,0,1.52-2.24l-7.35-33.12a2.3,2.3,0,0,0-2.39-1.64H262.61C261.53,218,260.85,218.42,261.09,219.51Z" fill="#fff" opacity="0.4"/>
        <path id="Path_7073" data-name="Path 7073" d="M400,234.38h0c-4.31,7-10.34,14.45-16.35,14.1-6.29-.37.05-13.21,6.81-24.39a15.721,15.721,0,0,1,.67,1.57c1.53,4.28,6.2-1,8.58-7.88a148.993,148.993,0,0,1,.29,16.6Z" opacity="0.2"/>
        <path id="Path_7074" data-name="Path 7074" d="M396.82,207.66c14.83,5.34-11.2,45.5-19.29,49.64s-29.35-.63-29.35-.63l1.32-12.41s16.83,1.14,20.18.29,11.31-18,15.89-26.05a25.84,25.84,0,0,1,11.25-10.84Z" fill="#263238"/>
        <path id="Path_7075" data-name="Path 7075" d="M351.51,396.73l-17.63,1.15-1.51-7.55,19.37-.89Z" fill="#fff" opacity="0.2"/>
        <path id="Path_7076" data-name="Path 7076" d="M330.56,389.34l-17,4.81-3.05-7.07,18.76-4.91Z" fill="#fff" opacity="0.2"/>
        <path id="Path_7077" data-name="Path 7077" d="M321.58,401.48l8.68-2.42a.58.58,0,0,1,.72.36h0l2.35,6.76a1.43,1.43,0,0,1-1,1.75c-3.05.79-4.54,1-8.37,2.06-2.35.65-6.93,2.15-10.28,2.53s-3.63-2.94-2.25-3.39c3.28-1.1,7.21-4.52,8.91-6.84a2.27,2.27,0,0,1,1.24-.81Z" fill="#263238"/>
        <path id="Path_7078" data-name="Path 7078" d="M340,407.7h0c0-.14-.14-2.41-1-3.13a1.16,1.16,0,0,0-.9-.21.77.77,0,0,0-.68.6,2.89,2.89,0,0,0,.79,1.84,3.31,3.31,0,0,0-2.22-.41.74.74,0,0,0-.41.56,1,1,0,0,0,.3,1,2.13,2.13,0,0,0,1.52.3,9.31,9.31,0,0,0,2.1-.42.08.08,0,0,0,.07,0v-.06s.19,0,.2-.07.17,0,.17,0Zm-2.21-2.7c0-.11.07-.25.33-.3h.09a.51.51,0,0,1,.41.15c.51.42.65,1.69.68,2.45l-.16-.09a3.78,3.78,0,0,1-1.35-2.21Zm-1.64,2.65A.7.7,0,0,1,336,407a.33.33,0,0,1,.2-.27c.51-.24,1.88.35,2.85.88-1.44.39-2.5.39-2.9.08Z" fill="#407bff"/>
        <path id="Path_7079" data-name="Path 7079" d="M340.19,406.73l9-.56a.56.56,0,0,1,.63.5h0l.88,7.1a1.4,1.4,0,0,1-1.31,1.5c-3.14.15-4.65.06-8.61.28-2.43.14-7.22.66-10.58.33s-2.94-3.63-1.49-3.79c3.43-.39,8-2.91,10.13-4.83a2.24,2.24,0,0,1,1.35-.53Z" fill="#263238"/>
        <g id="Logo-01" transform="translate(282.346 231.924)" style="mix-blend-mode: multiply;isolation: isolate">
          <g id="Icon" transform="translate(0 0)">
            <path id="Path_5753" data-name="Path 5753" d="M549.929,365.123l-.249.249-.788-.788a.051.051,0,0,0-.072,0l-3.072,3.073-.245-.244a.051.051,0,0,1,0-.072l3.322-3.321a.051.051,0,0,1,.072,0l1.031,1.032a.05.05,0,0,1,0,.072Z" transform="translate(-545.463 -364.004)" fill="#f2f2f2"/>
            <path id="Path_5754" data-name="Path 5754" d="M549.512,394.157l-.242.242-.561-.561a.051.051,0,0,0-.072,0l-.149.141-2.935,2.935-.246-.246a.051.051,0,0,1,0-.072l3.322-3.323a.052.052,0,0,1,.072,0l.81.81A.052.052,0,0,1,549.512,394.157Z" transform="translate(-545.274 -392.415)" fill="#f2f2f2"/>
            <rect id="Rectangle_2223" data-name="Rectangle 2223" width="0.907" height="0.913" rx="0.454" transform="translate(5.313 3.624) rotate(45)" fill="#f2f2f2"/>
            <rect id="Rectangle_2224" data-name="Rectangle 2224" width="0.907" height="0.913" rx="0.454" transform="translate(4.36 2.684) rotate(45)" fill="#f2f2f2"/>
            <path id="Path_5755" data-name="Path 5755" d="M548.036,427.612l-.765.765-.01.006-.042.042a.047.047,0,0,1-.067,0l-2.517-2.517a.051.051,0,0,1,0-.071l3.34-3.338a.051.051,0,0,1,.072,0l.579.578a.051.051,0,0,1,0,.072l-2.734,2.734,1.3,1.3.207-.207Z" transform="translate(-544.62 -420.792)" fill="#f2f2f2"/>
            <path id="Path_5756" data-name="Path 5756" d="M612.57,489.765l-.476.476a.116.116,0,0,1-.165,0l-2.087-2.088a.116.116,0,0,1,0-.165l.48-.475.008-.01.944-.944s0,0,0,0l.079-.079a.048.048,0,0,1,.067,0l1.552,1.553a.047.047,0,0,1,0,.067l-.574.574a0,0,0,0,0,0,0l-.329.332-.642-.642.3-.3-.336-.337-.345.347,1.526,1.527a.116.116,0,0,1,0,.164Z" transform="translate(-607.921 -482.922)" fill="#f2f2f2"/>
          </g>
        </g>
      </g>
    </g>
    <g id="freepik--Table--inject-25">
      <path id="Path_7080" data-name="Path 7080" d="M300.11,416h6.12l1.01-153.25h-8.13Z" fill="#407bff"/>
      <path id="Path_7081" data-name="Path 7081" d="M299.1,263l.16,24.73L300.1,416h6.13l.84-128.27.16-24.73Z" fill="#fff" opacity="0.4"/>
      <path id="Path_7082" data-name="Path 7082" d="M299.1,263l.16,25h7.81l.16-25Z" opacity="0.2"/>
      <path id="Path_7083" data-name="Path 7083" d="M235.07,416h6.12L252.2,262.75h-8.13Z" fill="#407bff"/>
      <path id="Path_7084" data-name="Path 7084" d="M235.06,416h6.13l10.47-145.63.54-7.37h-8.13l-.44,7.37Z" fill="#fff" opacity="0.5"/>
      <path id="Path_7085" data-name="Path 7085" d="M243.63,270h8.03l.54-7h-8.13Z" opacity="0.2"/>
      <path id="Path_7086" data-name="Path 7086" d="M365.15,416h6.12l-9-153.25h-8.13Z" fill="#407bff"/>
      <path id="Path_7087" data-name="Path 7087" d="M354.14,263l.54,7.37L365.15,416h6.12l-8.56-145.63-.44-7.37Z" fill="#fff" opacity="0.5"/>
      <path id="Path_7088" data-name="Path 7088" d="M362.27,263h-8.13l.54,7h8.03Z" opacity="0.2"/>
      <path id="Path_7089" data-name="Path 7089" d="M239.79,258.92H366.55a2.16,2.16,0,0,1,2.16,2.16v5.51H237.63v-5.51a2.16,2.16,0,0,1,2.16-2.16Z" transform="translate(606.34 525.51) rotate(180)" fill="#407bff"/>
      <path id="Path_7090" data-name="Path 7090" d="M239.79,258.92H366.55a2.16,2.16,0,0,1,2.16,2.16v5.51H237.63v-5.51a2.16,2.16,0,0,1,2.16-2.16Z" transform="translate(606.34 525.51) rotate(180)" fill="#fff" opacity="0.6"/>
      <rect id="Rectangle_2691" data-name="Rectangle 2691" width="131.08" height="3.84" transform="translate(368.71 262.75) rotate(180)" opacity="0.2"/>
      <path id="Path_7091" data-name="Path 7091" d="M233.83,259.92H372.51a2.17,2.17,0,0,0,2.16-2.17h0a2.16,2.16,0,0,0-2.16-2.16H233.83a2.16,2.16,0,0,0-2.16,2.16h0a2.17,2.17,0,0,0,2.16,2.17Z" fill="#407bff"/>
      <path id="Path_7092" data-name="Path 7092" d="M233.83,259.92H372.51a2.17,2.17,0,0,0,2.16-2.17h0a2.16,2.16,0,0,0-2.16-2.16H233.83a2.16,2.16,0,0,0-2.16,2.16h0a2.17,2.17,0,0,0,2.16,2.17Z" fill="#fff" opacity="0.6"/>
    </g>
    <g id="Group_5285" data-name="Group 5285" transform="translate(91.583 -49.672) rotate(56)">
      <rect id="Rectangle_2692" data-name="Rectangle 2692" width="29.088" height="15.574" rx="4" transform="translate(168.156 118.481) rotate(41)" fill="#407bff"/>
      <rect id="Rectangle_2693" data-name="Rectangle 2693" width="23.268" height="12.59" rx="1" transform="translate(169.373 121.518) rotate(41)" fill="#a0bdff"/>
    </g>
  </g>
</svg>
