<svg width="18" height="18" viewBox="0 0 18 18" fill="none" xmlns="http://www.w3.org/2000/svg">
<path d="M0.552808 5.99394H4.1154V17.4568H0.552808V5.99394ZM2.33509 0.289063C2.7437 0.289063 3.14313 0.410255 3.48286 0.637309C3.82258 0.864362 4.08733 1.18707 4.2436 1.56462C4.39988 1.94217 4.44067 2.35758 4.36081 2.75832C4.28095 3.15905 4.08403 3.52709 3.79496 3.81589C3.50589 4.10468 3.13766 4.30125 2.73685 4.38073C2.33604 4.46021 1.92067 4.41902 1.54327 4.26238C1.16587 4.10574 0.843414 3.84069 0.616685 3.50075C0.389955 3.16081 0.269143 2.76127 0.269532 2.35265C0.270054 1.80517 0.487904 1.2803 0.875215 0.893355C1.26253 0.506413 1.78761 0.289062 2.33509 0.289063Z" fill="white"/>
<path d="M6.34961 5.99614H9.76467V7.5699H9.81188C10.2879 6.66893 11.4486 5.71877 13.1817 5.71877C16.7895 5.7109 17.4584 8.08531 17.4584 11.164V17.459H13.8958V11.882C13.8958 10.5541 13.8722 8.84465 12.0446 8.84465C10.2171 8.84465 9.9063 10.2925 9.9063 11.7954V17.459H6.34961V5.99614Z" fill="white"/>
</svg>
