<svg xmlns="http://www.w3.org/2000/svg" width="146.699" height="134.979" viewBox="0 0 146.699 134.979">
  <g id="Development-amico" transform="translate(-37.51 -57.681)">
    <g id="freepik--Floor--inject-7" transform="translate(37.51 142.542)">
      <ellipse id="freepik--floor--inject-7-2" data-name="freepik--floor--inject-7" cx="73.35" cy="25.059" rx="73.35" ry="25.059" fill="#c1e1fe"/>
    </g>
    <g id="freepik--Shadow--inject-7" transform="translate(120.204 163.87)" style="mix-blend-mode: multiply;isolation: isolate">
      <ellipse id="Ellipse_111" data-name="Ellipse 111" cx="16.176" cy="9.338" rx="16.176" ry="9.338" fill="#e0e0e0"/>
    </g>
    <g id="freepik--Gear--inject-7" transform="translate(44.504 89.367)">
      <path id="Path_8411" data-name="Path 8411" d="M60.686,196.324l.062.035-.08-.042-.149-.087Z" transform="translate(-59.535 -179.875)" opacity="0.3"/>
      <path id="Path_8412" data-name="Path 8412" d="M57.69,192.563a.218.218,0,0,0,0,.125.191.191,0,0,1,0-.125l.229-.763Z" transform="translate(-57.68 -176.981)" fill="#407bff"/>
      <path id="Path_8413" data-name="Path 8413" d="M57.69,192.563a.218.218,0,0,0,0,.125.191.191,0,0,1,0-.125l.229-.763Z" transform="translate(-57.68 -176.981)" fill="#fff" opacity="0.4"/>
      <path id="Path_8414" data-name="Path 8414" d="M80.421,153.646l-4.261-2.469a.189.189,0,0,0-.049-.028.2.2,0,0,0-.08-.017l-.347-.184-.454-.267-1.838-1.064-.284-.163c-.347-.2-.565-.326-.579-.347a.347.347,0,0,0-.212-.042l-2.146.215a.638.638,0,0,0-.347.17.4.4,0,0,0-.111.156l-1.165,3.121v.021l-.031.059a.236.236,0,0,1-.045.062.987.987,0,0,1-.08.09,1.214,1.214,0,0,1-.222.177l-.08.045a7.6,7.6,0,0,0-.693.347l-2.25-1.307a.211.211,0,0,0-.1-.024.347.347,0,0,0-.25.128h0l-1.408,1.491-.947,1a.739.739,0,0,0-.166.295.385.385,0,0,0,0,.222l.659,2.219a.2.2,0,0,1,0,.08.323.323,0,0,1,0,.139.455.455,0,0,1-.021.094v.021a.08.08,0,0,1,0,.035.208.208,0,0,1-.028.069.457.457,0,0,1-.052.1,17.023,17.023,0,0,0-1.082,1.883.243.243,0,0,1-.052.069.644.644,0,0,1-.066.076.822.822,0,0,1-.4.229l-2.032.51a.694.694,0,0,0-.385.246.416.416,0,0,0-.073.132l-.125.426-.662,2.23-.225.763a.232.232,0,0,0,.024.191.2.2,0,0,0,.052.055l.035.024.347.194.094.055h0l.27.156.146.087.166.094.062.035.177.1.981.565a8.815,8.815,0,0,0,.038.915.635.635,0,0,1-.042.25.94.94,0,0,1-.156.291l-2.056,2.49a.627.627,0,0,0-.128.253c0,.024,0,.052,0,.076a.305.305,0,0,0,0,.18l.978,2.16a.215.215,0,0,0,.028.042.094.094,0,0,0,.035.028h0l1.46.86c.125.069.253.149.385.225l1.422.822.166.1.884.51a.142.142,0,0,1-.055-.069l-.974-2.153a.388.388,0,0,1,0-.26.693.693,0,0,1,.128-.253l2.046-2.483a.936.936,0,0,0,.163-.295.628.628,0,0,0,.038-.25,9.709,9.709,0,0,1,0-1.768.3.3,0,0,0-.309-.3l-1.845-.1a.326.326,0,0,1-.146-.042h0a.218.218,0,0,1-.094-.257l.891-3,.125-.416a.416.416,0,0,1,.083-.146.742.742,0,0,1,.371-.232l2.018-.485a.922.922,0,0,0,.4-.239.568.568,0,0,0,.107-.142,18.187,18.187,0,0,1,1.085-1.879.808.808,0,0,0,.128-.465h0a.2.2,0,0,0,0-.066l-.655-2.219a.447.447,0,0,1,.021-.246.725.725,0,0,1,.163-.27l.031-.035,2.323-2.455a.316.316,0,0,1,.326-.114H69.5a.149.149,0,0,1,.055.049l1.1,1.678c.08.121.281.111.461,0a9.526,9.526,0,0,1,1.328-.766,1.012,1.012,0,0,0,.461-.437h0l1.165-3.121a.427.427,0,0,1,.114-.163.6.6,0,0,1,.347-.163l2.146-.215a.392.392,0,0,1,.187.024h0a.194.194,0,0,1,.094.218l-.693,3.065a.347.347,0,0,0,.222.388,3.426,3.426,0,0,1,.936.544.392.392,0,0,0,.482-.083l2.191-2A.322.322,0,0,1,80.421,153.646Z" transform="translate(-57.713 -149.063)" fill="#407bff"/>
      <path id="Path_8415" data-name="Path 8415" d="M119.4,181.6a6.049,6.049,0,0,1-.042.86.3.3,0,0,0,.309.3l1.841.1a.278.278,0,0,1,.135.031Z" transform="translate(-97.973 -170.318)" fill="#407bff"/>
      <path id="Path_8416" data-name="Path 8416" d="M99.463,216.773c-.076-.121-.277-.114-.458,0s-.433.281-.645.409l2.257,1.311h0a.132.132,0,0,1-.055-.045Z" transform="translate(-84.254 -193.237)" fill="#407bff"/>
      <path id="Path_8417" data-name="Path 8417" d="M77.349,219.23a3.322,3.322,0,0,1-.94-.544.381.381,0,0,0-.479.083l-2.191,2a.385.385,0,0,1-.239.107l3.467,2.018a.191.191,0,0,1-.09-.208l.693-3.076A.347.347,0,0,0,77.349,219.23Z" transform="translate(-68.014 -194.512)" fill="#407bff"/>
      <path id="Path_8418" data-name="Path 8418" d="M91.868,186.858a6.162,6.162,0,0,1-2.774,1.81l-.118.028-.083.021-.191.031-.222.021h-.2a2.157,2.157,0,0,1-2.021-1.356,3.742,3.742,0,0,1-.295-1.127,5.464,5.464,0,0,0,.51-.264,9.54,9.54,0,0,0,4.31-7.465,4.513,4.513,0,0,0-.024-.586,3.377,3.377,0,0,1,1.522-.322h.253a2.153,2.153,0,0,1,1.689,1.331C95.111,181.022,94.067,184.538,91.868,186.858Z" transform="translate(-76.154 -167.736)" fill="#407bff"/>
      <path id="Path_8419" data-name="Path 8419" d="M91.868,186.858a6.162,6.162,0,0,1-2.774,1.81l-.118.028-.083.021-.191.031-.222.021h-.2a2.157,2.157,0,0,1-2.021-1.356,3.742,3.742,0,0,1-.295-1.127,5.464,5.464,0,0,0,.51-.264,9.54,9.54,0,0,0,4.31-7.465,4.513,4.513,0,0,0-.024-.586,3.377,3.377,0,0,1,1.522-.322h.253a2.153,2.153,0,0,1,1.689,1.331C95.111,181.022,94.067,184.538,91.868,186.858Z" transform="translate(-76.154 -167.736)" opacity="0.4"/>
      <path id="Path_8420" data-name="Path 8420" d="M89.583,166.392h0a.3.3,0,0,0-.132-.035l-1.841-.1a.3.3,0,0,1-.309-.3c.024-.291.038-.579.042-.86a7.941,7.941,0,0,0-.042-.915.912.912,0,0,1,.2-.544l2.053-2.486a.555.555,0,0,0,.125-.51l-.974-2.16a.142.142,0,0,0-.062-.066h0c-.08-.042-.2,0-.316.1l-2.216,1.99a.385.385,0,0,1-.479.08,3.467,3.467,0,0,0-.936-.544.347.347,0,0,1-.222-.385l.693-3.072a.191.191,0,0,0-.094-.215.368.368,0,0,0-.2-.038l-2.143.215a.6.6,0,0,0-.472.347L81.1,160.009a.992.992,0,0,1-.468.454,9.555,9.555,0,0,0-1.328.77c-.18.121-.381.128-.461,0l-1.1-1.678c-.076-.118-.253-.094-.4.055L74.992,162.1a.621.621,0,0,0-.184.517l.655,2.223a.749.749,0,0,1-.118.534,18.944,18.944,0,0,0-1.085,1.879.856.856,0,0,1-.51.385l-2.018.485a.662.662,0,0,0-.454.378l-1.016,3.415a.243.243,0,0,0,.25.309l1.845.1a.3.3,0,0,1,.309.3,9.5,9.5,0,0,0,0,1.775.863.863,0,0,1-.2.541l-2.053,2.49a.555.555,0,0,0-.125.513l.974,2.157a.139.139,0,0,0,.059.066h0a.139.139,0,0,0,.076.021h0a.392.392,0,0,0,.243-.111l2.171-2.018a.388.388,0,0,1,.479-.08,3.5,3.5,0,0,0,.94.544.347.347,0,0,1,.218.385l-.693,3.072a.191.191,0,0,0,.09.212h0a.3.3,0,0,0,.2.035l2.143-.212a.6.6,0,0,0,.472-.326l1.165-3.121a1.04,1.04,0,0,1,.468-.454c.225-.1.454-.225.693-.347a5.861,5.861,0,0,0,.648-.409c.215-.146.381-.132.458,0l1.1,1.678a.149.149,0,0,0,.055.049c.087.055.225.017.347-.1l2.358-2.49a.617.617,0,0,0,.18-.513l-.655-2.223a.752.752,0,0,1,.121-.534,17.6,17.6,0,0,0,1.082-1.883.857.857,0,0,1,.513-.378l2.015-.485a.652.652,0,0,0,.454-.381l1.019-3.415A.225.225,0,0,0,89.583,166.392Zm-10.749,8.343-.118.031-.087.017a1.679,1.679,0,0,1-.191.031l-.222.024h-.2a2.16,2.16,0,0,1-2.021-1.359,3.72,3.72,0,0,1-.295-1.123,5.251,5.251,0,0,1-.035-.624,9.526,9.526,0,0,1,2.663-6.1,7.319,7.319,0,0,1,1.626-1.318,4.438,4.438,0,0,1,.541-.277,3.426,3.426,0,0,1,1.522-.322h.253a2.157,2.157,0,0,1,1.689,1.335c.908,2.015-.135,5.527-2.334,7.847A6.151,6.151,0,0,1,78.834,174.735Z" transform="translate(-65.894 -153.806)" fill="#407bff"/>
      <line id="Line_100" data-name="Line 100" x2="4.338" y2="2.51" transform="translate(18.395 2.086)" fill="none"/>
      <path id="Path_8421" data-name="Path 8421" d="M67.976,183.5a.922.922,0,0,1-.4.239l-2.018.485a.742.742,0,0,0-.371.232l-4.345-2.5a.693.693,0,0,1,.385-.246l2.015-.489a.822.822,0,0,0,.4-.229h0Z" transform="translate(-59.744 -169.926)" opacity="0.2"/>
      <path id="Path_8422" data-name="Path 8422" d="M75.792,171.547l-4.334-2.5a.2.2,0,0,0,0-.08l-.659-2.219a.385.385,0,0,1,0-.222l3.322,1.9,1.04.589a.447.447,0,0,0-.021.246l.655,2.219A.2.2,0,0,1,75.792,171.547Z" transform="translate(-66.239 -160.473)" opacity="0.3"/>
      <path id="Path_8423" data-name="Path 8423" d="M94.557,152.687a.427.427,0,0,0-.114.163l-1.165,3.121h0l-4.338-2.5v-.021l1.165-3.121a.4.4,0,0,1,.111-.156Z" transform="translate(-78.101 -149.786)" opacity="0.3"/>
      <path id="Path_8424" data-name="Path 8424" d="M114.972,157.563a.322.322,0,0,0-.3.107l-2.184,2a.392.392,0,0,1-.482.083,3.426,3.426,0,0,0-.936-.544.347.347,0,0,1-.222-.388l.693-3.065a.194.194,0,0,0-.094-.218h0c-.062-.035-.385-.218-.825-.479a.2.2,0,0,1,.08.017.191.191,0,0,1,.049.028Z" transform="translate(-92.263 -152.98)" opacity="0.3"/>
      <path id="Path_8425" data-name="Path 8425" d="M121.7,182.9a.278.278,0,0,0-.135-.031l-1.841-.1a.3.3,0,0,1-.309-.3c.024-.295.042-.579.042-.86Z" transform="translate(-98.006 -170.318)" opacity="0.3"/>
      <path id="Path_8426" data-name="Path 8426" d="M100.617,218.474h0l-2.257-1.311c.212-.128.43-.264.645-.409s.381-.132.458,0l1.1,1.678a.132.132,0,0,0,.055.042Z" transform="translate(-84.254 -193.214)" opacity="0.4"/>
      <path id="Path_8427" data-name="Path 8427" d="M77.561,219.6l-.693,3.076a.191.191,0,0,0,.09.208l-3.467-2.018a.385.385,0,0,0,.239-.108l2.195-2.011a.381.381,0,0,1,.479-.083,3.322,3.322,0,0,0,.94.544.347.347,0,0,1,.218.392Z" transform="translate(-68.008 -194.499)" opacity="0.4"/>
      <path id="Path_8428" data-name="Path 8428" d="M64.418,204.413a.936.936,0,0,1-.163.295L62.2,207.2a.694.694,0,0,0-.128.253l-4.334-2.507a.628.628,0,0,1,.128-.253l2.056-2.49a.939.939,0,0,0,.156-.291Z" transform="translate(-57.719 -183.586)" opacity="0.2"/>
      <path id="Path_8429" data-name="Path 8429" d="M91.109,162.243a1.012,1.012,0,0,1-.461.437,9.524,9.524,0,0,0-1.328.766c-.18.125-.381.135-.461,0l-1.1-1.678a.149.149,0,0,0-.055-.049H87.69l-2.06-1.189a7.61,7.61,0,0,1,.693-.347l.08-.045a1.214,1.214,0,0,0,.222-.177.989.989,0,0,0,.08-.09.237.237,0,0,0,.045-.062l.031-.059Z" transform="translate(-75.938 -156.044)" opacity="0.1"/>
      <path id="Path_8430" data-name="Path 8430" d="M68.876,201.969a.628.628,0,0,1-.038.25l-4.338-2.5a.634.634,0,0,0,.042-.25,8.814,8.814,0,0,1-.038-.915l2.08,1.2h0a.326.326,0,0,0,.146.042l1.845.1a.3.3,0,0,1,.309.3A9.708,9.708,0,0,0,68.876,201.969Z" transform="translate(-62.135 -181.391)" opacity="0.4"/>
      <path id="Path_8431" data-name="Path 8431" d="M74.569,176.316h0a.808.808,0,0,1-.128.465,18.186,18.186,0,0,0-1.085,1.879.568.568,0,0,1-.107.142l-4.338-2.486a.32.32,0,0,0,.062-.076.243.243,0,0,0,.052-.069,17.023,17.023,0,0,1,1.082-1.883.458.458,0,0,0,.052-.1.208.208,0,0,0,.028-.069.08.08,0,0,0,0-.035v-.021a.454.454,0,0,0,.021-.094.322.322,0,0,0,0-.139Z" transform="translate(-65.016 -165.242)" opacity="0.1"/>
      <path id="Path_8432" data-name="Path 8432" d="M68.972,180.78a.319.319,0,0,1-.062.076h0A.649.649,0,0,0,68.972,180.78Z" transform="translate(-65.016 -169.782)" opacity="0.3"/>
      <path id="Path_8433" data-name="Path 8433" d="M63.111,215.663l-.884-.51-.166-.1-1.422-.822c-.132-.076-.26-.156-.385-.225l-1.46-.843h0a.094.094,0,0,1-.035-.028.215.215,0,0,1-.028-.042l-.978-2.16a.305.305,0,0,1,0-.18v-.076l4.334,2.507a.388.388,0,0,0,0,.26l.974,2.153A.142.142,0,0,0,63.111,215.663Z" transform="translate(-57.72 -189.315)" opacity="0.4"/>
      <path id="Path_8434" data-name="Path 8434" d="M58.776,183.78a.416.416,0,0,0-.073.132l-.125.426-.662,2.23-.225.763a.232.232,0,0,0,.024.191.2.2,0,0,0,.052.055l.035.024.347.194.094.055h0l.27.156.146.087.166.094.062.035.177.1.981.565,2.08,1.2a.218.218,0,0,1-.094-.257l.891-3,.125-.416a.416.416,0,0,1,.083-.146Z" transform="translate(-57.68 -171.742)" opacity="0.3"/>
      <path id="Path_8435" data-name="Path 8435" d="M75.988,159.491l-2.25-1.307a.211.211,0,0,0-.1-.024.347.347,0,0,0-.25.128h0l-1.408,1.491-.947,1a.738.738,0,0,0-.166.295l3.308,1.886,1.04.589a.725.725,0,0,1,.163-.27l.031-.035,2.323-2.455a.316.316,0,0,1,.326-.114Z" transform="translate(-66.296 -155.006)" fill="#fff" opacity="0.5"/>
      <path id="Path_8436" data-name="Path 8436" d="M99.668,151.63a.392.392,0,0,0-.187-.024l-2.146.215a.6.6,0,0,0-.347.163l-4.338-2.5a.638.638,0,0,1,.347-.17l2.146-.215a.347.347,0,0,1,.212.042s.239.135.579.347l.284.163,1.838,1.065.454.267.347.184C99.283,151.411,99.606,151.6,99.668,151.63Z" transform="translate(-80.524 -149.082)" fill="#fff" opacity="0.5"/>
      <line id="Line_101" data-name="Line 101" x1="0.052" y1="0.028" transform="translate(18.395 2.09)" fill="none"/>
    </g>
    <g id="freepik--Device--inject-7" transform="translate(72.156 60.849)">
      <g id="freepik--device--inject-7-2" data-name="freepik--device--inject-7" transform="translate(0 0)">
        <path id="Path_8437" data-name="Path 8437" d="M181.244,70.137c-.094-.693-.655-.95-1.325-.562L143,90.889a2.978,2.978,0,0,0-1.342,2.327V174.7c0,.791.51,1.148,1.172.86a3.01,3.01,0,0,1-2.517-.083l-1.536-.888a2.954,2.954,0,0,1-1.345-2.327V90.782a2.954,2.954,0,0,1,1.345-2.327l36.914-21.318a2.982,2.982,0,0,1,2.687,0l1.553.888A2.992,2.992,0,0,1,181.244,70.137Z" transform="translate(-137.43 -66.818)" fill="#37474f"/>
        <path id="Path_8438" data-name="Path 8438" d="M187.893,74.426,150.962,95.74a2.979,2.979,0,0,0-1.342,2.327v81.484c0,.856.6,1.2,1.342.777L187.893,159a2.975,2.975,0,0,0,1.338-2.327V75.2C189.221,74.346,188.621,74,187.893,74.426ZM187.3,149a1.863,1.863,0,0,1-1.151,1.567l-33.568,19.379c-.635.368-1.151.069-1.151-.666V105.851a2.552,2.552,0,0,1,1.151-2l33.568-19.376c.638-.371,1.151-.073,1.151.659Z" transform="translate(-145.393 -71.669)" fill="#455a64"/>
        <path id="Path_8439" data-name="Path 8439" d="M142.829,218.193a3.01,3.01,0,0,1-2.517-.083l-1.536-.888a2.958,2.958,0,0,1-1.345-2.327V133.428a2.732,2.732,0,0,1,.4-1.328l4.227,2.427a2.774,2.774,0,0,0-.4,1.325v81.484C141.657,218.123,142.166,218.48,142.829,218.193Z" transform="translate(-137.43 -109.464)" fill="#263238"/>
        <path id="Path_8440" data-name="Path 8440" d="M205.032,111.487c.5-.288.9-.055.9.52a1.99,1.99,0,0,1-.9,1.557c-.5.288-.9.055-.9-.52A1.98,1.98,0,0,1,205.032,111.487Z" transform="translate(-181.002 -95.918)" fill="#263238"/>
        <path id="Path_8441" data-name="Path 8441" d="M198.152,116.966c1.827-1.009,5.09-2.951,6.893-4.012.309-.18.555-.055.555.277a1.207,1.207,0,0,1-.555.926l-6.907,3.988c-.309.177-.558.052-.558-.281A1.148,1.148,0,0,1,198.152,116.966Z" transform="translate(-176.723 -96.903)" fill="#263238"/>
        <path id="Path_8442" data-name="Path 8442" d="M193.246,127.461c.277-.159.5-.031.5.291a1.124,1.124,0,0,1-.5.891c-.281.159-.506.031-.506-.291a1.12,1.12,0,0,1,.506-.891Z" transform="translate(-173.562 -106.389)" fill="#263238"/>
        <path id="Path_8443" data-name="Path 8443" d="M202.4,332.818a1.273,1.273,0,0,1-.641-.166,1.649,1.649,0,0,1-.693-1.522,4.882,4.882,0,0,1,2.209-3.814,1.68,1.68,0,0,1,1.671-.149,1.642,1.642,0,0,1,.693,1.522,4.889,4.889,0,0,1-2.205,3.814A2.119,2.119,0,0,1,202.4,332.818Zm1.89-5.479a1.754,1.754,0,0,0-.856.267,4.508,4.508,0,0,0-2.046,3.523,1.307,1.307,0,0,0,.534,1.221,1.38,1.38,0,0,0,1.328-.149,4.508,4.508,0,0,0,2.032-3.519,1.337,1.337,0,0,0-.534-1.224.957.957,0,0,0-.458-.107Z" transform="translate(-179.003 -236.787)" fill="#e6e6e6"/>
        <path id="Path_8444" data-name="Path 8444" d="M190.68,104.122v63.866a2.538,2.538,0,0,1-1.151,1.99l-33.568,19.379c-.635.347-1.151.073-1.151-.662v-3.984l30.482-17.6a1.858,1.858,0,0,0,1.151-1.564V105.245l3.086-1.782C190.167,103.1,190.68,103.394,190.68,104.122Z" transform="translate(-148.784 -90.654)" fill="#37474f"/>
        <path id="Path_8445" data-name="Path 8445" d="M247.617,103.463l-3.1,1.782v60.305a1.612,1.612,0,0,1-.787,1.325l4.459,2.576a2.517,2.517,0,0,0,.565-1.463V104.122C248.768,103.394,248.255,103.1,247.617,103.463Z" transform="translate(-206.871 -90.654)" fill="#263238"/>
      </g>
    </g>
    <g id="freepik--Window--inject-7" transform="translate(77.666 70.089)">
      <path id="Path_8472" data-name="Path 8472" d="M223.27,161.567a1.859,1.859,0,0,1-1.121,1.567l-32.688,19.379c-.618.364-1.121.069-1.121-.666V118.432a2.566,2.566,0,0,1,1.121-2l32.688-19.376c.621-.371,1.121-.073,1.121.659Z" transform="translate(-188.162 -96.709)" fill="#407bff" opacity="0.2"/>
      <path id="Path_8473" data-name="Path 8473" d="M188.622,182.484a.712.712,0,0,1-.378-.1.977.977,0,0,1-.412-.895V118.074a2.713,2.713,0,0,1,1.206-2.146l32.7-19.379a.83.83,0,0,1,.96-.082.878.878,0,0,1,.414.893v63.849a2.078,2.078,0,0,1-1.206,1.734l-32.7,19.379A1.149,1.149,0,0,1,188.622,182.484ZM222.336,96.7a.842.842,0,0,0-.419.135l-32.7,19.376a2.389,2.389,0,0,0-1.037,1.848v63.429a.54.54,0,0,0,.242.6.51.51,0,0,0,.626-.082l32.7-19.383c.719-.423,1.037-.86,1.037-1.415V97.345a.653.653,0,0,0-.243-.593A.407.407,0,0,0,222.336,96.7Z" transform="translate(-187.827 -96.351)" fill="#407bff"/>
    </g>
    <g id="freepik--Character--inject-7" transform="translate(112.869 106.478)">
      <g id="freepik--character--inject-7-2" data-name="freepik--character--inject-7">
        <path id="Path_8474" data-name="Path 8474" d="M333.242,249.59c.243-9.015-.478-11.2-2.885-12.85l-.929,5.232a61.485,61.485,0,0,1,.978,8.221,29.5,29.5,0,0,1-.693,5.52,1.1,1.1,0,0,1-.479.621,6.349,6.349,0,0,0-1.321,1.259c-.347.378-.666.472-.621.593a.6.6,0,0,0,.763.267,4.01,4.01,0,0,0,.867-.472,5.454,5.454,0,0,1-.888,1.526c-.86,1.04-.9,1.7.836,1.716,1.089,0,1.952-.662,2.774-3.055a19.523,19.523,0,0,0,.763-2.687A50.437,50.437,0,0,0,333.242,249.59Z" transform="translate(-302.169 -223.45)" fill="#ffa8a7"/>
        <path id="Path_8475" data-name="Path 8475" d="M330.31,234.662a3.467,3.467,0,0,1,3.707,1.879c1.009,1.8,1.255,4.9,1.387,7.975a4.893,4.893,0,0,1-4.4.85Z" transform="translate(-304.143 -222.058)" fill="#37474f"/>
        <path id="Path_8476" data-name="Path 8476" d="M330.181,371.9c.18.069.225.416.253,1.106.021.52.135,1.432-.479,1.616a1.909,1.909,0,0,1-1.9-.4,23.671,23.671,0,0,0-1.519-1.907,5.313,5.313,0,0,1-1.5-2.167c-.218-.825-.035-1.182.527-1.422.773-.329,1.987.746,2.594.915C328.672,369.79,330,371.836,330.181,371.9Z" transform="translate(-300.636 -309.628)" fill="#263238"/>
        <path id="Path_8477" data-name="Path 8477" d="M335.595,375.6v.85a2.08,2.08,0,0,1-2.143.055c-.038-.08-.222-1.21-.222-1.21Z" transform="translate(-306.051 -313.959)" fill="#ffa8a7"/>
        <path id="Path_8478" data-name="Path 8478" d="M302.491,392.1a13.521,13.521,0,0,1,.374,1.387,3.76,3.76,0,0,1,.076,1.751c-.177.385-.884.641-1.966.641a6.5,6.5,0,0,0-2.549.891,6.827,6.827,0,0,1-3.2.506,3.056,3.056,0,0,1-2.119-1.071c-.156-.4.049-.815,2.323-1.786.021,0,3.166-1.04,4.265-2.243Z" transform="translate(-279.812 -324.94)" fill="#263238"/>
        <path id="Path_8479" data-name="Path 8479" d="M314.976,389.46v.988c0,.347-.42.895-1.519.856-.77-.028-1.311-.236-1.279-.87v-.919Z" transform="translate(-292.297 -323.216)" fill="#ffa8a7"/>
        <path id="Path_8480" data-name="Path 8480" d="M316.506,301.68a23.055,23.055,0,0,0-1-4.417s.3-3.814.447-7.417c.156-3.9,0-8.8.066-9.775,0,0-12.583-2.545-12.809,1.963s.5,15.981.645,17.965.492,3.731.9,6.935,1.536,10.648,1.536,10.648a2.961,2.961,0,0,0,2.8-.055s.888-9.015.794-11.3a19.568,19.568,0,0,0-.867-4.986s.239-3.717.451-6.935.433-4.788.482-6.193l.27-.135s.277,5.579.423,7.559.465,3.877,1.04,7.556c.5,3.193,1.98,9.945,1.98,9.945a1.889,1.889,0,0,0,2.3-.1S316.891,304.451,316.506,301.68Z" transform="translate(-286.411 -251.289)" fill="#37474f"/>
        <path id="Path_8481" data-name="Path 8481" d="M322.73,299.2a26.43,26.43,0,0,0,4.58-2.861,10.116,10.116,0,0,1-3.28,2.885s-.662,6.935-.659,6.789l-.385-6.824Z" transform="translate(-299.191 -262.384)" fill="#263238"/>
        <path id="Path_8482" data-name="Path 8482" d="M314.89,229.108l.745,4.1,3.7-.27-.777-4.646Z" transform="translate(-294.07 -217.93)" fill="#ffa8a7"/>
        <path id="Path_8483" data-name="Path 8483" d="M315.613,236.864a3.116,3.116,0,0,0-3.193-2.063,41.722,41.722,0,0,0-6.2,1.546c-1.293.461-2.476,1.581-2.583,5.843,0,0-.433,9.931-.44,11.852a15.708,15.708,0,0,0,8.506.839c3.89-.85,4.359-2.465,4.359-2.465s.052-7.139-.066-10.225A31.357,31.357,0,0,0,315.613,236.864Z" transform="translate(-286.433 -222.16)" fill="#407bff"/>
        <path id="Path_8484" data-name="Path 8484" d="M305.087,216.27s-.94,1.5-.825,1.64.832.257.832.257Z" transform="translate(-287.121 -210.078)" fill="#f28f8f"/>
        <path id="Path_8485" data-name="Path 8485" d="M309.193,203.888c-1.956.458-2.5,1.335-2.618,4.466-.121,3.266.236,4.286.673,4.716a4.523,4.523,0,0,0,2.715.066c1.009-.3,3.287-1.169,4.324-2.833,1.221-1.963,1.495-4.587.118-5.631A6.357,6.357,0,0,0,309.193,203.888Z" transform="translate(-288.622 -201.836)" fill="#ffa8a7"/>
        <path id="Path_8486" data-name="Path 8486" d="M305.949,201.279a4,4,0,0,0,1.82,1.453c.375.426.17,2.08.829,2.361,0,0,.284-1.217,1.3-1.085s1.2,1.429.569,2.236-1.234.517-1.234.517a5.31,5.31,0,0,0,.857,2.684,4.614,4.614,0,0,0,5.364-2.92c1.172-2.774,1.2-5.26-.569-5.964a2.629,2.629,0,0,0-2.375-2.046c-2.465-.51-4.053,1.04-5.95.895C305.478,199.334,305.277,200.124,305.949,201.279Z" transform="translate(-287.976 -198.412)" fill="#263238"/>
        <path id="Path_8487" data-name="Path 8487" d="M332.237,203.652l1.162-.718a.693.693,0,1,0-1.162.718Z" transform="translate(-305.287 -201.08)" fill="#263238"/>
        <path id="Path_8488" data-name="Path 8488" d="M258.98,246.676c.607.27,7.781,5.569,8.9,4.951s6.855-7.32,6.855-7.32a4.625,4.625,0,0,0,0-5.028,4.763,4.763,0,0,0-2.8,1.8c-.964,1.449-5.118,6.668-5.118,6.668q-1.54-.77-3.072-1.56c-.839-.437-1.682-.87-2.5-1.338a3.256,3.256,0,0,1-.648-.4c-.406-.4-.347-1.387-.326-1.9a5.273,5.273,0,0,1,.035-.739c.035-.3.094-1.04-.451-.8a.693.693,0,0,0-.26.215,1.352,1.352,0,0,0-.194.371c-.1.319-.069.669-.163.992a.3.3,0,0,1-.066.128.25.25,0,0,1-.17.052c-.791-.024-1.54-1.13-1.9-1.734a1.56,1.56,0,0,0-.6-.693,1.073,1.073,0,0,0-1.231.475,2.49,2.49,0,0,0-.388,1.734,3.467,3.467,0,0,0,1.04,2.184A10.627,10.627,0,0,0,258.98,246.676Z" transform="translate(-254.845 -225.109)" fill="#ffa8a7"/>
        <path id="Path_8489" data-name="Path 8489" d="M300.923,238.66a4.606,4.606,0,0,0-3.395,1.609c-1.5,1.7-3.488,4.487-3.488,4.487a4.4,4.4,0,0,0,3.467,3.266,25.775,25.775,0,0,0,3.467-4.31C301.727,242.176,301.856,239.693,300.923,238.66Z" transform="translate(-280.45 -224.704)" fill="#37474f"/>
      </g>
    </g>
    <g id="freepik--Chart--inject-7" transform="translate(133.37 57.681)">
      <path id="Path_8490" data-name="Path 8490" d="M353.8,116.193V105.26l6.456,4.268A20.744,20.744,0,0,1,353.8,116.193Z" transform="translate(-339.989 -88.762)" fill="#455a64"/>
      <path id="Path_8491" data-name="Path 8491" d="M348.933,102.451l-2.583-1.491v10.933l2.583,1.491Z" transform="translate(-335.122 -85.953)" fill="#37474f"/>
      <path id="Path_8492" data-name="Path 8492" d="M360.131,78.571l-9.678,6.959-2.583-1.488,9.678-6.963Z" transform="translate(-336.115 -70.353)" fill="#407bff"/>
      <path id="Path_8493" data-name="Path 8493" d="M360.131,78.571l-9.678,6.959-2.583-1.488,9.678-6.963Z" transform="translate(-336.115 -70.353)" opacity="0.5"/>
      <path id="Path_8494" data-name="Path 8494" d="M365,81.38a20.137,20.137,0,0,1-3.027,11.356l-4.036-2.666-2.614-1.734Z" transform="translate(-340.982 -73.162)" fill="#407bff"/>
      <path id="Path_8495" data-name="Path 8495" d="M365,81.38a20.137,20.137,0,0,1-3.027,11.356l-4.036-2.666-2.614-1.734Z" transform="translate(-340.982 -73.162)" opacity="0.3"/>
      <path id="Path_8496" data-name="Path 8496" d="M357.1,103.044l-2.583-1.491-6.65-4.393,2.583,1.488Z" transform="translate(-336.115 -83.471)" fill="#407bff"/>
      <path id="Path_8497" data-name="Path 8497" d="M357.1,103.044l-2.583-1.491-6.65-4.393,2.583,1.488Z" transform="translate(-336.115 -83.471)" opacity="0.7"/>
      <path id="Path_8498" data-name="Path 8498" d="M340.675,68.083,338.83,60.6c.26-.212.506-.4.808-.617,3.405-2.451,6.644-2.892,8.9-1.588l2.556,1.474c.759.926.18,1.924.426,3.467l-10.1,7.282-.1.073Z" transform="translate(-330.21 -57.681)" fill="#407bff"/>
      <path id="Path_8499" data-name="Path 8499" d="M340.675,68.083,338.83,60.6c.26-.212.506-.4.808-.617,3.405-2.451,6.644-2.892,8.9-1.588l2.556,1.474c.759.926.18,1.924.426,3.467l-10.1,7.282-.1.073Z" transform="translate(-330.21 -57.681)" fill="#fff" opacity="0.7"/>
      <path id="Path_8500" data-name="Path 8500" d="M348.125,72.4l-1.845-7.479c.257-.212.506-.4.8-.617,5.707-4.105,10.936-2.573,11.886,3.36l-10.1,7.282-.1.073Z" transform="translate(-335.077 -60.502)" fill="#407bff"/>
      <path id="Path_8501" data-name="Path 8501" d="M348.125,72.4l-1.845-7.479c.257-.212.506-.4.8-.617,5.707-4.105,10.936-2.573,11.886,3.36l-10.1,7.282-.1.073Z" transform="translate(-335.077 -60.502)" fill="#fff" opacity="0.5"/>
      <path id="Path_8502" data-name="Path 8502" d="M338.83,66.11l2.58,1.491,2.49,10.083-2.583-1.491Z" transform="translate(-330.21 -63.187)" fill="#407bff"/>
      <path id="Path_8503" data-name="Path 8503" d="M338.83,66.11l2.58,1.491,2.49,10.083-2.583-1.491Z" transform="translate(-330.21 -63.187)" opacity="0.1"/>
      <path id="Path_8504" data-name="Path 8504" d="M324.212,91.276c-1.671.881-3.121,2.1-4.49,2.046l-2.58-1.491a6.345,6.345,0,0,1-2.85-4.206,17.06,17.06,0,0,1,1.214-10.08,25.108,25.108,0,0,1,6.127-9.015l2.583,1.491-.957,5.094.954,3.866Z" transform="translate(-313.969 -64.768)" fill="#407bff"/>
      <path id="Path_8505" data-name="Path 8505" d="M324.212,91.276c-1.671.881-3.121,2.1-4.49,2.046l-2.58-1.491a6.345,6.345,0,0,1-2.85-4.206,17.06,17.06,0,0,1,1.214-10.08,25.108,25.108,0,0,1,6.127-9.015l2.583,1.491-.957,5.094.954,3.866Z" transform="translate(-313.969 -64.768)" opacity="0.2"/>
      <path id="Path_8506" data-name="Path 8506" d="M331.709,95.576c-4.792,2.528-8.745,1.1-9.917-3.651a17.059,17.059,0,0,1,1.214-10.08,25.062,25.062,0,0,1,6.127-9.015l1.623,6.588.954,3.852Z" transform="translate(-318.869 -67.577)" fill="#407bff"/>
    </g>
    <g id="freepik--Envelope--inject-7" transform="translate(151.987 100.434)">
      <path id="Path_8507" data-name="Path 8507" d="M367.663,195.1a.985.985,0,0,1,.451-.777l22.927-13.239a1,1,0,0,1,.9,0l.5.291a.988.988,0,0,1,.451.777v17.576a.988.988,0,0,1-.451.777l-22.93,13.235a.978.978,0,0,1-.9,0l-.5-.291a.985.985,0,0,1-.451-.777Z" transform="translate(-367.66 -180.982)" fill="#407bff"/>
      <path id="Path_8508" data-name="Path 8508" d="M367.663,195.1a.985.985,0,0,1,.451-.777l22.927-13.239a1,1,0,0,1,.9,0l.5.291a.988.988,0,0,1,.451.777v17.576a.988.988,0,0,1-.451.777l-22.93,13.235a.978.978,0,0,1-.9,0l-.5-.291a.985.985,0,0,1-.451-.777Z" transform="translate(-367.66 -180.982)" fill="#fff" opacity="0.4"/>
      <path id="Path_8509" data-name="Path 8509" d="M369.771,221.571,367.8,220.43a.947.947,0,0,0-.132.444v17.573a.985.985,0,0,0,.451.777l.5.291a.978.978,0,0,0,.9,0l.25-.146Z" transform="translate(-367.667 -206.752)" fill="#407bff"/>
      <path id="Path_8510" data-name="Path 8510" d="M369.771,221.571,367.8,220.43a.947.947,0,0,0-.132.444v17.573a.985.985,0,0,0,.451.777l.5.291a.978.978,0,0,0,.9,0l.25-.146Z" transform="translate(-367.667 -206.752)" opacity="0.3"/>
      <path id="Path_8511" data-name="Path 8511" d="M395.541,183.907v17.576a.957.957,0,0,1-.139.454.977.977,0,0,1-.264.291h0l-.028.021L372.16,215.495h0a.322.322,0,0,1-.305.035.312.312,0,0,1-.139-.295V197.648a.385.385,0,0,1,.5-.4l9.65,2.306,1.262.3a.832.832,0,0,0,.8-.3l1.463-2.035,9.847-13.71C395.392,183.577,395.541,183.622,395.541,183.907Z" transform="translate(-370.309 -182.732)" fill="#407bff"/>
      <path id="Path_8512" data-name="Path 8512" d="M420.829,228.39l.028-.021h0a.978.978,0,0,0,.264-.291.961.961,0,0,0,.139-.447l-10.149-3.97,6.8,6.415Z" transform="translate(-396.044 -208.862)" fill="#407bff"/>
      <path id="Path_8513" data-name="Path 8513" d="M420.829,228.39l.028-.021h0a.978.978,0,0,0,.264-.291.961.961,0,0,0,.139-.447l-10.149-3.97,6.8,6.415Z" transform="translate(-396.044 -208.862)" opacity="0.2"/>
      <path id="Path_8514" data-name="Path 8514" d="M371.713,245.2a.312.312,0,0,0,.139.295.323.323,0,0,0,.305-.035h0l7.9-4.556,1.8-11.38L371.71,244.9Z" transform="translate(-370.306 -212.69)" fill="#407bff"/>
      <path id="Path_8515" data-name="Path 8515" d="M371.713,245.2a.312.312,0,0,0,.139.295.323.323,0,0,0,.305-.035h0l7.9-4.556,1.8-11.38L371.71,244.9Z" transform="translate(-370.306 -212.69)" opacity="0.2"/>
      <path id="Path_8516" data-name="Path 8516" d="M395.657,227.421a.978.978,0,0,1-.264.291h0l-22.968,13.266h0a.322.322,0,0,1-.305.035L383.1,223.478a1.734,1.734,0,0,1,2.16-.662Z" transform="translate(-370.574 -208.216)" fill="#407bff"/>
      <path id="Path_8517" data-name="Path 8517" d="M371.72,196.714l10.544,4.664a1.734,1.734,0,0,0,2.16-.666L395.5,183Z" transform="translate(-370.312 -182.3)" fill="#407bff"/>
      <path id="Path_8518" data-name="Path 8518" d="M371.72,196.714l10.544,4.664a1.734,1.734,0,0,0,2.16-.666L395.5,183Z" transform="translate(-370.312 -182.3)" opacity="0.3"/>
      <path id="Path_8519" data-name="Path 8519" d="M371.72,196.694l10.617,3.97a1.734,1.734,0,0,0,2.049-.673l11.1-17.022Z" transform="translate(-370.312 -182.281)" fill="#407bff"/>
    </g>
    <g id="freepik--speech-bubbles--inject-7" transform="translate(48.699 74.563)">
      <path id="Path_8446" data-name="Path 8446" d="M159.218,287.765l-1.921-1.11a.184.184,0,0,1-.09-.08l-.347-.617L158,285.3l-.035.1Z" transform="translate(-126.666 -223.258)" fill="#e0e0e0"/>
      <path id="Path_8447" data-name="Path 8447" d="M159.63,282.2l1.331,2.3a.2.2,0,0,0,.347-.035l1.408-4.057Z" transform="translate(-128.475 -220.063)" fill="#ebebeb"/>
      <path id="Path_8448" data-name="Path 8448" d="M140.922,245.873a2.049,2.049,0,0,0-.943-1.609l-.756-.437a2.08,2.08,0,0,0-1.859,0L122.319,252.5a2.049,2.049,0,0,0-.929,1.609v7.628a2.056,2.056,0,0,0,.929,1.609l.759.437a2.056,2.056,0,0,0,1.855,0l15.132-8.741a1.44,1.44,0,0,0,.843-1.546Z" transform="translate(-103.495 -196.022)" fill="#ebebeb"/>
      <path id="Path_8449" data-name="Path 8449" d="M121.44,279.784a2.053,2.053,0,0,0,.926,1.609l.759.437a2.08,2.08,0,0,0,1.7.076c-.437.166-.77-.083-.77-.614v-7.628a1.907,1.907,0,0,1,.27-.915l-2.614-1.508a1.872,1.872,0,0,0-.27.915Z" transform="translate(-103.527 -214.073)" fill="#e0e0e0"/>
      <path id="Path_8450" data-name="Path 8450" d="M141.439,245.608c-.107-.4-.468-.52-.9-.274L125.5,254a1.855,1.855,0,0,0-.652.693l-2.614-1.508a1.889,1.889,0,0,1,.655-.693l15.038-8.669a2.08,2.08,0,0,1,1.862,0l.742.437A2.042,2.042,0,0,1,141.439,245.608Z" transform="translate(-104.043 -196.02)" fill="#fafafa"/>
      <path id="Path_8451" data-name="Path 8451" d="M135.115,267.912l10.749-6.241c.309-.18.562-.1.562.184a1.124,1.124,0,0,1-.562.832l-10.749,6.241c-.312.18-.565.1-.565-.184A1.127,1.127,0,0,1,135.115,267.912Z" transform="translate(-112.092 -207.759)" fill="#455a64"/>
      <path id="Path_8452" data-name="Path 8452" d="M135.115,275.27l10.749-6.241c.309-.18.562-.1.562.18a1.137,1.137,0,0,1-.562.836l-10.749,6.241c-.312.18-.565.1-.565-.184A1.127,1.127,0,0,1,135.115,275.27Z" transform="translate(-112.092 -212.565)" fill="#455a64"/>
      <path id="Path_8453" data-name="Path 8453" d="M88.3,295.875l-1.921-1.11a.184.184,0,0,1-.09-.08l-.347-.617,1.141-.659-.035.1Z" transform="translate(-80.337 -228.556)" fill="#407bff"/>
      <path id="Path_8454" data-name="Path 8454" d="M88.3,295.875l-1.921-1.11a.184.184,0,0,1-.09-.08l-.347-.617,1.141-.659-.035.1Z" transform="translate(-80.337 -228.556)" opacity="0.2"/>
      <path id="Path_8455" data-name="Path 8455" d="M88.71,290.309l1.328,2.3a.2.2,0,0,0,.347-.035l1.387-4.057Z" transform="translate(-82.146 -225.361)" fill="#407bff"/>
      <path id="Path_8456" data-name="Path 8456" d="M92.114,234.774a2.049,2.049,0,0,0-.929-1.609l-.756-.437a2.042,2.042,0,0,0-1.859,0L70.709,243.044a2.049,2.049,0,0,0-.929,1.609v8.766a2.049,2.049,0,0,0,.929,1.609l.756.437a2.042,2.042,0,0,0,1.859,0l17.947-10.378a1.44,1.44,0,0,0,.843-1.546Z" transform="translate(-69.78 -188.769)" fill="#407bff"/>
      <path id="Path_8457" data-name="Path 8457" d="M69.78,274.581a2.049,2.049,0,0,0,.929,1.609l.756.437a2.081,2.081,0,0,0,1.7.08c-.437.163-.77-.087-.77-.617v-8.766a1.886,1.886,0,0,1,.274-.915L70.054,264.9a1.886,1.886,0,0,0-.274.915Z" transform="translate(-69.78 -209.931)" opacity="0.2"/>
      <path id="Path_8458" data-name="Path 8458" d="M92.6,234.518c-.107-.4-.468-.52-.9-.274L73.84,244.563a1.81,1.81,0,0,0-.655.693l-2.614-1.512a1.918,1.918,0,0,1,.655-.693L89.1,232.736a2.08,2.08,0,0,1,1.862,0l.756.437A2.042,2.042,0,0,1,92.6,234.518Z" transform="translate(-70.296 -188.776)" fill="#fff" opacity="0.4"/>
      <path id="Path_8459" data-name="Path 8459" d="M83.462,268.283l9.657-5.593c.312-.18.565-.1.565.184a1.127,1.127,0,0,1-.565.832L83.462,269.3c-.309.18-.562.1-.562-.184A1.13,1.13,0,0,1,83.462,268.283Z" transform="translate(-78.351 -208.425)" fill="#fff"/>
      <path id="Path_8460" data-name="Path 8460" d="M83.462,271.341l13.565-7.871c.309-.18.562-.1.562.184a1.124,1.124,0,0,1-.562.832l-13.565,7.871c-.309.18-.562.1-.562-.184A1.13,1.13,0,0,1,83.462,271.341Z" transform="translate(-78.351 -208.935)" fill="#fff"/>
      <path id="Path_8461" data-name="Path 8461" d="M83.462,256.261l13.565-7.871c.309-.18.562-.1.562.184a1.13,1.13,0,0,1-.562.832l-13.565,7.871c-.309.18-.562.1-.562-.184A1.124,1.124,0,0,1,83.462,256.261Z" transform="translate(-78.351 -199.084)" fill="#fff"/>
      <path id="Path_8462" data-name="Path 8462" d="M376.473,107.241l-1.408-.811h0a.631.631,0,0,0-.638.062l-30.593,17.663a1.987,1.987,0,0,0-.9,1.56v15.808a.621.621,0,0,0,.274.586h0l1.387.808V141.61l29.82-17.216a2,2,0,0,0,.9-1.56v-15.01Z" transform="translate(-248.217 -106.37)" fill="#e0e0e0"/>
      <path id="Path_8463" data-name="Path 8463" d="M346.252,126.327l29.581-17.077v-1.387l1.144-.583-1.408-.811h0a.631.631,0,0,0-.638.062l-30.593,17.663a1.81,1.81,0,0,0-.638.673Z" transform="translate(-248.72 -106.396)" fill="#fafafa"/>
      <path id="Path_8464" data-name="Path 8464" d="M347.9,126.492l30.593-17.663c.5-.288.9-.052.9.52V125.16a1.99,1.99,0,0,1-.9,1.56L347.9,144.383c-.5.284-.9.052-.9-.52V128.052A2,2,0,0,1,347.9,126.492Z" transform="translate(-250.876 -107.896)" fill="#f5f5f5"/>
      <path id="Path_8465" data-name="Path 8465" d="M352.14,154.192,361.3,148.9c.579-.347,1.04-.062,1.04.607V160.09a2.32,2.32,0,0,1-1.04,1.82l-9.164,5.305c-.583.347-1.04.062-1.04-.607v-10.6a2.323,2.323,0,0,1,1.04-1.82Z" transform="translate(-253.555 -134.056)" fill="#407bff"/>
      <path id="Path_8466" data-name="Path 8466" d="M363.771,162.87c.971-.558,1.758-.1,1.758,1.019a3.894,3.894,0,0,1-1.758,3.048c-.974.562-1.761.107-1.761-1.016a3.89,3.89,0,0,1,1.761-3.051Z" transform="translate(-260.682 -143.124)" fill="#fafafa"/>
      <path id="Path_8467" data-name="Path 8467" d="M364.312,176.648c0-1.845-1.293-2.663-2.892-1.734l-1,.576a6.4,6.4,0,0,0-2.892,5.01v.5l6.782-3.915Z" transform="translate(-257.755 -150.895)" fill="#fafafa"/>
      <path id="Path_8468" data-name="Path 8468" d="M392.439,129.917l12.583-7.282c.413-.239.749-.069.749.381a1.6,1.6,0,0,1-.749,1.245l-12.583,7.282c-.416.239-.749.069-.749-.381a1.6,1.6,0,0,1,.749-1.245Z" transform="translate(-280.07 -116.925)" fill="#e0e0e0"/>
      <path id="Path_8469" data-name="Path 8469" d="M392.439,139.3l12.583-7.282c.413-.239.749-.069.749.381a1.606,1.606,0,0,1-.749,1.248l-12.583,7.264c-.416.239-.749.069-.749-.381a1.6,1.6,0,0,1,.749-1.231Z" transform="translate(-280.07 -123.053)" fill="#e0e0e0"/>
      <path id="Path_8470" data-name="Path 8470" d="M392.439,148.71l12.583-7.264c.413-.239.749-.069.749.378a1.605,1.605,0,0,1-.749,1.248l-12.583,7.264c-.416.239-.749.069-.749-.381a1.6,1.6,0,0,1,.749-1.245Z" transform="translate(-280.07 -129.213)" fill="#e0e0e0"/>
      <path id="Path_8471" data-name="Path 8471" d="M392.439,158.077l12.583-7.282c.413-.239.749-.069.749.378a1.606,1.606,0,0,1-.749,1.248l-12.583,7.264c-.416.239-.749.069-.749-.381a1.6,1.6,0,0,1,.749-1.227Z" transform="translate(-280.07 -135.321)" fill="#e0e0e0"/>
    </g>
  </g>
</svg>
