<svg xmlns="http://www.w3.org/2000/svg" width="162.931" height="145.497" viewBox="0 0 162.931 145.497">
  <g id="Group_6" data-name="Group 6" transform="translate(-256.591 -7805.785)">
    <g id="freepik--background-simple--inject-47" transform="translate(256.591 7833.421) rotate(-11)">
      <path id="Path_7958" data-name="Path 7958" d="M184.248,165.28s20.393-23.639,15.155-53.871S167.145,65.35,149.021,67.141,112.852,86.7,95.143,88.892s-44.4,17.821-39.007,47.551,21.792,32.639,48.333,33.731S168.566,184.881,184.248,165.28Z" transform="translate(-55.429 -67.004)" fill="#c6d8ff"/>
      <path id="Path_7959" data-name="Path 7959" d="M184.248,165.28s20.393-23.639,15.155-53.871S167.145,65.35,149.021,67.141,112.852,86.7,95.143,88.892s-44.4,17.821-39.007,47.551,21.792,32.639,48.333,33.731S168.566,184.881,184.248,165.28Z" transform="translate(-55.429 -67.004)" fill="#c6d8ff" opacity="0.7"/>
    </g>
    <g id="Mobile_Marketing-rafiki" data-name="Mobile Marketing-rafiki" transform="translate(250 7757.604)">
      <g id="freepik--Shadow--inject-44" transform="translate(20.886 185.251)">
        <ellipse id="freepik--path--inject-44" cx="72.172" cy="4.214" rx="72.172" ry="4.214" fill="#c1e1fe"/>
      </g>
      <g id="freepik--Smartphone--inject-44" transform="translate(36.72 82.668)">
        <path id="Path_7897" data-name="Path 7897" d="M148.985,129.33h-44.4a5.07,5.07,0,0,0-5.107,5.461l6.365,94.7a5.956,5.956,0,0,0,5.844,5.472h44.4a5.062,5.062,0,0,0,5.1-5.472l-6.365-94.7A5.956,5.956,0,0,0,148.985,129.33Z" transform="translate(-99.157 -129.329)" fill="#407bff"/>
        <path id="Path_7898" data-name="Path 7898" d="M148.985,129.33h-44.4a5.07,5.07,0,0,0-5.107,5.461l6.365,94.7a5.956,5.956,0,0,0,5.844,5.472h44.4a5.062,5.062,0,0,0,5.1-5.472l-6.365-94.7A5.956,5.956,0,0,0,148.985,129.33Z" transform="translate(-99.157 -129.329)" fill="#fff" opacity="0.3"/>
        <rect id="Rectangle_3011" data-name="Rectangle 3011" width="0.372" height="8.952" transform="matrix(0.998, -0.067, 0.067, 0.998, 0, 20.315)" fill="#407bff"/>
        <rect id="Rectangle_3012" data-name="Rectangle 3012" width="0.372" height="4.013" transform="translate(0.929 33.943) rotate(-3.85)" fill="#407bff"/>
        <path id="Path_7899" data-name="Path 7899" d="M109.066,234.99a1.489,1.489,0,0,1-2.889.618,5.684,5.684,0,0,1-.335-1.567l-6.365-94.714a5.334,5.334,0,0,1,.127-1.589,1.489,1.489,0,0,1,2.944.242Z" transform="translate(-99.16 -133.866)" fill="#407bff"/>
        <path id="Path_7900" data-name="Path 7900" d="M164.421,236.207H123.167a4.184,4.184,0,0,1-4.054-3.8l-6.365-94.692a3.272,3.272,0,0,1,3.317-3.562h41.254a4.184,4.184,0,0,1,4.054,3.8l6.365,94.7a3.279,3.279,0,0,1-3.317,3.562Zm-48.357-101.66a2.877,2.877,0,0,0-2.918,3.138l6.365,94.677a3.771,3.771,0,0,0,3.655,3.432h41.254a2.877,2.877,0,0,0,2.918-3.138l-6.365-94.692a3.771,3.771,0,0,0-3.655-3.432Z" transform="translate(-107.491 -132.355)" fill="#fff"/>
        <g id="Group_5324" data-name="Group 5324" transform="translate(8.332 7.257)" opacity="0.5">
          <ellipse id="Ellipse_99" data-name="Ellipse 99" cx="16.579" cy="18.533" rx="16.579" ry="18.533" transform="translate(0 24.092) rotate(-46.6)" fill="#407bff"/>
          <ellipse id="Ellipse_100" data-name="Ellipse 100" cx="13.263" cy="14.826" rx="13.263" ry="14.826" transform="translate(4.972 24.233) rotate(-46.6)" fill="#fff"/>
          <ellipse id="Ellipse_101" data-name="Ellipse 101" cx="9.946" cy="11.119" rx="9.946" ry="11.119" transform="matrix(0.687, -0.726, 0.726, 0.687, 9.944, 24.383)" fill="#407bff"/>
          <ellipse id="Ellipse_102" data-name="Ellipse 102" cx="6.633" cy="7.415" rx="6.633" ry="7.415" transform="translate(14.912 24.509) rotate(-46.6)" fill="#fff"/>
          <ellipse id="Ellipse_103" data-name="Ellipse 103" cx="3.317" cy="3.707" rx="3.317" ry="3.707" transform="matrix(0.687, -0.726, 0.726, 0.687, 19.883, 24.656)" fill="#407bff"/>
        </g>
        <path id="Path_7901" data-name="Path 7901" d="M159.732,268.831h-.2a6.134,6.134,0,0,0-5.368-3.313,5.5,5.5,0,0,0-1.679.261,6.294,6.294,0,0,0-5.449-3.279,5.338,5.338,0,0,0-5.416,5.278,4.169,4.169,0,0,0-3.908,4.515,4.917,4.917,0,0,0,4.839,4.53h17.726a3.692,3.692,0,0,0,3.722-4A4.344,4.344,0,0,0,159.732,268.831Z" transform="translate(-123.163 -212.929)" fill="#fff"/>
        <path id="Path_7902" data-name="Path 7902" d="M198.254,154.841H198.1a4.779,4.779,0,0,0-4.184-2.58,4.31,4.31,0,0,0-1.31.2,4.91,4.91,0,0,0-4.247-2.553A4.162,4.162,0,0,0,184.139,154a3.253,3.253,0,0,0-3.049,3.521,3.834,3.834,0,0,0,3.771,3.529h13.817a2.877,2.877,0,0,0,2.907-3.119A3.391,3.391,0,0,0,198.254,154.841Z" transform="translate(-150.396 -142.248)" fill="#fff"/>
        <path id="Path_7903" data-name="Path 7903" d="M196.7,318.86h-25.52a1.325,1.325,0,0,0-1.336,1.433l1.035,15.221a1.552,1.552,0,0,0,1.53,1.433h3.425l.287,4.21,3.92-4.21h17.867a1.321,1.321,0,0,0,1.336-1.433l-1.031-15.221A1.56,1.56,0,0,0,196.7,318.86Z" transform="translate(-143.339 -248.311)" fill="#fff" opacity="0.3"/>
        <path id="Path_7904" data-name="Path 7904" d="M201.161,342.494H177.39l-.13-1.924h23.774Z" transform="translate(-147.998 -261.94)" fill="#fff"/>
        <path id="Path_7905" data-name="Path 7905" d="M194.372,353.234H178.12l-.13-1.924h16.252Z" transform="translate(-148.456 -268.682)" fill="#fff"/>
        <path id="Path_7906" data-name="Path 7906" d="M200.435,331.754H176.66l-.13-1.924H200.3Z" transform="translate(-147.54 -255.197)" fill="#fff"/>
      </g>
      <g id="freepik--Character--inject-44" transform="translate(54.175 68.486)">
        <path id="Path_7907" data-name="Path 7907" d="M289,141.083l.979.7q.51.372,1.027.7c.689.458,1.381.916,2.081,1.333s1.407.811,2.107,1.161a15.1,15.1,0,0,0,2.032.845,1.217,1.217,0,0,0-.473-.022.9.9,0,0,0-.272.078c-.108.056-.074.06-.019.026a2.891,2.891,0,0,0,.577-.529,14.532,14.532,0,0,0,1.325-1.861c.436-.685.852-1.411,1.251-2.155s.8-1.508,1.165-2.233l.026-.048a1.675,1.675,0,0,1,3.1,1.217A36.184,36.184,0,0,1,302,145.483a17.887,17.887,0,0,1-1.47,2.587,7.643,7.643,0,0,1-1.225,1.381,4.214,4.214,0,0,1-1.135.707,3.658,3.658,0,0,1-.908.242,3.309,3.309,0,0,1-1.117-.063,18.542,18.542,0,0,1-2.911-.934,26.554,26.554,0,0,1-2.583-1.217q-1.24-.659-2.416-1.388c-.391-.246-.778-.5-1.161-.744s-.744-.51-1.165-.815a2.606,2.606,0,0,1,3.049-4.184Z" transform="translate(-233.13 -120.696)" fill="#407bff"/>
        <path id="Path_7908" data-name="Path 7908" d="M289,141.083l.979.7q.51.372,1.027.7c.689.458,1.381.916,2.081,1.333s1.407.811,2.107,1.161a15.1,15.1,0,0,0,2.032.845,1.217,1.217,0,0,0-.473-.022.9.9,0,0,0-.272.078c-.108.056-.074.06-.019.026a2.891,2.891,0,0,0,.577-.529,14.532,14.532,0,0,0,1.325-1.861c.436-.685.852-1.411,1.251-2.155s.8-1.508,1.165-2.233l.026-.048a1.675,1.675,0,0,1,3.1,1.217A36.184,36.184,0,0,1,302,145.483a17.887,17.887,0,0,1-1.47,2.587,7.643,7.643,0,0,1-1.225,1.381,4.214,4.214,0,0,1-1.135.707,3.658,3.658,0,0,1-.908.242,3.309,3.309,0,0,1-1.117-.063,18.542,18.542,0,0,1-2.911-.934,26.554,26.554,0,0,1-2.583-1.217q-1.24-.659-2.416-1.388c-.391-.246-.778-.5-1.161-.744s-.744-.51-1.165-.815a2.606,2.606,0,0,1,3.049-4.184Z" transform="translate(-233.13 -120.696)" opacity="0.2"/>
        <path id="Path_7909" data-name="Path 7909" d="M329.577,136.015l1.009-1.7,1.936,2.088a2.572,2.572,0,0,1-1.407,1.321.96.96,0,0,1-.845-.112l-.372-.238a1.009,1.009,0,0,1-.32-1.355Z" transform="translate(-260.986 -118.274)" fill="#ffb573"/>
        <path id="Path_7910" data-name="Path 7910" d="M335.263,131.325l.428.264a1.012,1.012,0,0,1,.138,1.619l-1.374,1.221-1.936-2.088,1.686-1.02a1.009,1.009,0,0,1,1.057,0Z" transform="translate(-262.921 -116.305)" fill="#ffb573"/>
        <path id="Path_7911" data-name="Path 7911" d="M232.02,396.607l2.948.086,1.109-6.827-2.944-.086Z" transform="translate(-199.83 -278.65)" fill="#ffb573"/>
        <path id="Path_7912" data-name="Path 7912" d="M234.4,405.413,231.1,405a.212.212,0,0,0-.242.175l-.488,2.583a.521.521,0,0,0,.447.584c1.15.127,1.7.127,3.153.309a21.77,21.77,0,0,0,4.441.521c1.232-.153,1.046-1.362.51-1.407a5.579,5.579,0,0,1-4.046-2.107A.838.838,0,0,0,234.4,405.413Z" transform="translate(-198.793 -288.201)" fill="#263238"/>
        <path id="Path_7913" data-name="Path 7913" d="M234.033,389.79l2.948.086-.573,3.518-2.948-.086Z" transform="translate(-200.734 -278.657)" opacity="0.2"/>
        <path id="Path_7914" data-name="Path 7914" d="M248.678,208.011s-2.572,24.415-4.284,32.708c-1.861,9.082-7.88,35.652-7.88,35.652l-5.394-.4s2.956-27.486,5.375-36.382c0-9.239,2.233-35.131,2.233-35.131Z" transform="translate(-199.265 -162.312)" fill="#263238"/>
        <path id="Path_7915" data-name="Path 7915" d="M249.845,231.95c-.048-1.91-1.083-2.524-2.1-2.5-.372,4.593-.771,10.225-1.072,15.306A23.83,23.83,0,0,0,249.845,231.95Z" transform="translate(-209.027 -177.999)" opacity="0.3"/>
        <path id="Path_7916" data-name="Path 7916" d="M230.332,393.616l5.777.428.663-2.178-6.652-.067Z" transform="translate(-198.637 -279.919)" fill="#fff"/>
        <path id="Path_7917" data-name="Path 7917" d="M151.71,339.9l1.857,2.3,5.557-4.009-1.861-2.293Z" transform="translate(-149.414 -244.82)" fill="#ffb573"/>
        <path id="Path_7918" data-name="Path 7918" d="M150.1,347.788l-1.653-2.877a.212.212,0,0,0-.283-.089l-2.356,1.169a.521.521,0,0,0-.2.707c.592.994.927,1.437,1.653,2.7.447.778,1.623,3.015,2.233,4.095s1.664.436,1.489-.074a12.439,12.439,0,0,1-.8-5.092A.834.834,0,0,0,150.1,347.788Z" transform="translate(-145.542 -250.413)" fill="#263238"/>
        <path id="Path_7919" data-name="Path 7919" d="M161.8,335.89l1.861,2.3-2.866,2.062-1.861-2.293Z" transform="translate(-153.947 -244.82)" opacity="0.2"/>
        <path id="Path_7920" data-name="Path 7920" d="M197.836,202.578s-7.255,20.763-10.553,28.565c-3.607,8.543-25.178,23.715-25.178,23.715l-3.406-4.2s14.658-14.692,20.1-21.66c3.015-9.488,9.451-29.845,9.451-29.845Z" transform="translate(-153.802 -158.979)" fill="#263238"/>
        <path id="Path_7921" data-name="Path 7921" d="M158.33,334.857l3.681,4.541,1.8-1.039-4.31-4.809Z" transform="translate(-153.57 -243.351)" fill="#fff"/>
        <path id="Path_7922" data-name="Path 7922" d="M253,163.607l-14.949-5.669c.372-1.366,2.326-5.379,4.065-10.966a75.43,75.43,0,0,0,2.859-12.656h0a.927.927,0,0,1,1.083-.8c.279.048.61.112.975.182.942.19,2.118.458,3.238.8a58.674,58.674,0,0,1,6.328,2.256,19.278,19.278,0,0,1,2.014,1.053,5.515,5.515,0,0,1,1.068.793,1.117,1.117,0,0,1,.413.767C260.094,141.5,257.953,149.782,253,163.607Z" transform="translate(-203.616 -117.767)" fill="#f0f0f0"/>
        <path id="Path_7923" data-name="Path 7923" d="M276.49,126.421a2.473,2.473,0,0,1-1.031-3.551,8.461,8.461,0,0,1,.48-.867l-1.619-2.736-1.191-2.006c-.261,2.2-1.057,6.1-2.918,6.968a8.189,8.189,0,0,0,4.143,3.052C277.1,128.137,276.49,126.421,276.49,126.421Z" transform="translate(-223.805 -107.571)" fill="#ffb573"/>
        <path id="Path_7924" data-name="Path 7924" d="M277.877,142.88l-.026-.7-1.861.365Z" transform="translate(-227.433 -123.215)" fill="#e0e0e0"/>
        <path id="Path_7925" data-name="Path 7925" d="M281.06,143.1l.346-.57,1.2,1.463Z" transform="translate(-230.616 -123.435)" fill="#e0e0e0"/>
        <path id="Path_7926" data-name="Path 7926" d="M268.68,134.785a17.576,17.576,0,0,0,3.76,2.643,4.949,4.949,0,0,0-1.72,2.661,23.829,23.829,0,0,1-3.35-5.479Z" transform="translate(-222.022 -118.463)" fill="#fff"/>
        <path id="Path_7927" data-name="Path 7927" d="M283.528,140.73a2.978,2.978,0,0,1-1.548.67,6.933,6.933,0,0,1,.744,2.978,6.635,6.635,0,0,0,1.943-2.758Z" transform="translate(-231.194 -122.305)" fill="#fff"/>
        <path id="Path_7928" data-name="Path 7928" d="M276.588,140.59s1.627.782,3.063,1.668a3.19,3.19,0,0,1,1.4,3.57c-1.776,6.276-4.173,12.369-5.167,15.76-1.053,3.614-2.52,8.148-2.52,8.148l-2.535.6S277.184,146.032,276.588,140.59Z" transform="translate(-224.194 -122.217)" opacity="0.3"/>
        <path id="Path_7929" data-name="Path 7929" d="M249.578,133.687s-2.185-.287-4.095-.372a2.915,2.915,0,0,0-2.956,2.192c-.968,3.827-1.682,11.145-2.661,13.992C238.649,153.058,237,160,237,160l8.658,5S254.406,138.128,249.578,133.687Z" transform="translate(-202.956 -117.648)" opacity="0.3"/>
        <path id="Path_7930" data-name="Path 7930" d="M246.941,133.687s-2.185-.287-4.095-.372a2.915,2.915,0,0,0-2.956,2.192c-.968,3.827-2.285,10.973-3.268,13.825-1.225,3.559-3.823,9.607-3.823,9.607l10.921,5.122S251.769,138.128,246.941,133.687Z" transform="translate(-200.32 -117.648)" fill="#407bff"/>
        <path id="Path_7931" data-name="Path 7931" d="M246.941,133.687s-2.185-.287-4.095-.372a2.915,2.915,0,0,0-2.956,2.192c-.968,3.827-2.285,10.973-3.268,13.825-1.225,3.559-3.823,9.607-3.823,9.607l10.921,5.122S251.769,138.128,246.941,133.687Z" transform="translate(-200.32 -117.648)" opacity="0.2"/>
        <path id="Path_7932" data-name="Path 7932" d="M277.8,140.59s1.627.782,3.063,1.668a3.19,3.19,0,0,1,1.4,3.57c-1.776,6.276-3.179,12.853-3.886,16.315-.744,3.685-1.522,7.039-1.522,7.039l-4.095.555S278.4,146.032,277.8,140.59Z" transform="translate(-225.405 -122.217)" fill="#407bff"/>
        <path id="Path_7933" data-name="Path 7933" d="M277.8,140.59s1.627.782,3.063,1.668a3.19,3.19,0,0,1,1.4,3.57c-1.776,6.276-3.179,12.853-3.886,16.315-.744,3.685-1.522,7.039-1.522,7.039l-4.095.555S278.4,146.032,277.8,140.59Z" transform="translate(-225.405 -122.217)" opacity="0.2"/>
        <path id="Path_7934" data-name="Path 7934" d="M282.344,125.386a8.465,8.465,0,0,0-.48.878,3.115,3.115,0,0,1-1.422-2.725,4.182,4.182,0,0,1,.283-.89Z" transform="translate(-230.21 -110.954)" opacity="0.2"/>
        <path id="Path_7935" data-name="Path 7935" d="M291.761,99.68c1.98.257,2.706,2.929,1.612,4.694A7.842,7.842,0,0,1,291.761,99.68Z" transform="translate(-237.331 -96.535)" fill="#263238"/>
        <path id="Path_7936" data-name="Path 7936" d="M275.01,104.8c.67,2.862.912,4.567,2.628,5.851a3.819,3.819,0,0,0,6.138-2.844c.186-2.676-.938-6.909-3.972-7.675a3.864,3.864,0,0,0-4.794,4.668Z" transform="translate(-226.744 -96.729)" fill="#ffb573"/>
        <path id="Path_7937" data-name="Path 7937" d="M270.464,101.853c1.723.048,1.455-2.807.7-3.886,2.39.372,6.35-1.738,6.749-3.949.577-3.2-4.31-3.2-5.892-2.185.681.048,1.027.625.864.923,0,0-2.36-.715-3.886.115.666.246,1.374,1.206-1.161,1.511-2.412.29-1.682,2.717-.465,2.673-.648.994-1.426,3.253.034,4.214s2.457,2.211,2.14,2.725C270.058,103.975,271.141,103.361,270.464,101.853Z" transform="translate(-221.315 -91.23)" fill="#263238"/>
        <path id="Path_7938" data-name="Path 7938" d="M267.071,106.28a2.1,2.1,0,0,0-1.861,2.233,8.933,8.933,0,0,1,1.861-2.233Z" transform="translate(-220.666 -100.678)" fill="#263238"/>
        <path id="Path_7939" data-name="Path 7939" d="M273.116,117.117a2.605,2.605,0,0,0,1.414,1.273c.808.294,1.232-.421,1.024-1.217-.19-.722-.838-1.738-1.656-1.686A1.058,1.058,0,0,0,273.116,117.117Z" transform="translate(-225.538 -106.456)" fill="#ffb573"/>
        <path id="Path_7940" data-name="Path 7940" d="M287.383,112.723c.037.235.2.406.35.372s.246-.227.208-.462-.2-.409-.354-.372S287.342,112.489,287.383,112.723Z" transform="translate(-234.579 -104.43)" fill="#263238"/>
        <path id="Path_7941" data-name="Path 7941" d="M294.553,111.758c.037.234.194.406.35.372s.246-.227.208-.465-.2-.406-.354-.372S294.512,111.52,294.553,111.758Z" transform="translate(-239.08 -103.822)" fill="#263238"/>
        <path id="Path_7942" data-name="Path 7942" d="M292.34,113.17a9.012,9.012,0,0,0,1.467,1.861,1.377,1.377,0,0,1-1.091.372Z" transform="translate(-237.697 -105.003)" fill="#ed893e"/>
        <path id="Path_7943" data-name="Path 7943" d="M288.507,119.983a2.032,2.032,0,0,1-1.489-.592.07.07,0,0,1,.1-.1,1.943,1.943,0,0,0,1.649.525.071.071,0,1,1,.019.138A1.791,1.791,0,0,1,288.507,119.983Z" transform="translate(-234.344 -108.835)" fill="#263238"/>
        <path id="Path_7944" data-name="Path 7944" d="M287.681,120.792a2.032,2.032,0,0,1-.811-1.388.071.071,0,0,1,.063-.074.067.067,0,0,1,.074.063,1.984,1.984,0,0,0,.975,1.433.067.067,0,0,1,.026.093.071.071,0,0,1-.1.026A2.747,2.747,0,0,1,287.681,120.792Z" transform="translate(-234.263 -108.87)" fill="#263238"/>
        <path id="Path_7945" data-name="Path 7945" d="M284.548,109.924a.126.126,0,0,1-.127-.19,1.355,1.355,0,0,1,1.035-.744.14.14,0,1,1,.019.279,1.079,1.079,0,0,0-.808.577A.13.13,0,0,1,284.548,109.924Z" transform="translate(-232.715 -102.378)" fill="#263238"/>
        <path id="Path_7946" data-name="Path 7946" d="M295.329,108.23a.134.134,0,0,1-.115-.06,1.169,1.169,0,0,0-.893-.521.141.141,0,0,1,0-.279h0a1.437,1.437,0,0,1,1.117.64.138.138,0,0,1-.034.194.123.123,0,0,1-.074.026Z" transform="translate(-238.866 -101.362)" fill="#263238"/>
        <path id="Path_7947" data-name="Path 7947" d="M239.268,138.879c-.744.607-1.53,1.28-2.278,1.939s-1.511,1.336-2.233,2.029a43.584,43.584,0,0,0-4.028,4.266l-.424.551-.052.071a.405.405,0,0,0,.03-.052.809.809,0,0,0,.056-.13.692.692,0,0,0,.045-.235c0-.127-.022-.127,0-.067a1.21,1.21,0,0,0,.1.331,5.36,5.36,0,0,0,.558,1,13.107,13.107,0,0,0,.826,1.087,27.28,27.28,0,0,0,1.973,2.159c.7.7,1.448,1.414,2.159,2.066l.048.041a1.671,1.671,0,0,1-2.036,2.639A33.541,33.541,0,0,1,228.8,152.5c-.406-.406-.8-.83-1.195-1.3a10.524,10.524,0,0,1-1.117-1.634,6.153,6.153,0,0,1-.473-1.117,4.173,4.173,0,0,1-.171-1.612,3.685,3.685,0,0,1,.231-.994,3.77,3.77,0,0,1,.227-.48l.134-.22.06-.089.484-.718a40.5,40.5,0,0,1,4.292-5.059c.744-.774,1.526-1.53,2.319-2.259s1.578-1.433,2.453-2.148a2.606,2.606,0,0,1,3.25,4Z" transform="translate(-195.941 -118.395)" fill="#407bff"/>
        <path id="Path_7948" data-name="Path 7948" d="M239.268,138.879c-.744.607-1.53,1.28-2.278,1.939s-1.511,1.336-2.233,2.029a43.584,43.584,0,0,0-4.028,4.266l-.424.551-.052.071a.405.405,0,0,0,.03-.052.809.809,0,0,0,.056-.13.692.692,0,0,0,.045-.235c0-.127-.022-.127,0-.067a1.21,1.21,0,0,0,.1.331,5.36,5.36,0,0,0,.558,1,13.107,13.107,0,0,0,.826,1.087,27.28,27.28,0,0,0,1.973,2.159c.7.7,1.448,1.414,2.159,2.066l.048.041a1.671,1.671,0,0,1-2.036,2.639A33.541,33.541,0,0,1,228.8,152.5c-.406-.406-.8-.83-1.195-1.3a10.524,10.524,0,0,1-1.117-1.634,6.153,6.153,0,0,1-.473-1.117,4.173,4.173,0,0,1-.171-1.612,3.685,3.685,0,0,1,.231-.994,3.77,3.77,0,0,1,.227-.48l.134-.22.06-.089.484-.718a40.5,40.5,0,0,1,4.292-5.059c.744-.774,1.526-1.53,2.319-2.259s1.578-1.433,2.453-2.148a2.606,2.606,0,0,1,3.25,4Z" transform="translate(-195.941 -118.395)" opacity="0.2"/>
        <path id="Path_7949" data-name="Path 7949" d="M251.02,188.026l2.531,1.548-3.235,1.843s-2.152-1.608-1.232-2.647l1.079-.744A.785.785,0,0,1,251.02,188.026Z" transform="translate(-210.399 -151.916)" fill="#ffb573"/>
        <path id="Path_7950" data-name="Path 7950" d="M256.152,195.235l-1.392.819a.838.838,0,0,1-1.161-.313l-.819-1.489,3.235-1.843.521,1.861A.849.849,0,0,1,256.152,195.235Z" transform="translate(-212.863 -154.748)" fill="#ffb573"/>
      </g>
      <g id="freepik--Megaphone--inject-44" transform="translate(114.687 62.74)">
        <path id="Path_7951" data-name="Path 7951" d="M326.809,128.244l3.428-.674c-.942,1.66.443,3.25,1.686,4.247.592.476.175,1.329-.744,1.489l-2.233.439C326.251,134.289,326.809,128.244,326.809,128.244Z" transform="translate(-319.818 -108.297)" fill="#407bff"/>
        <path id="Path_7952" data-name="Path 7952" d="M313.737,111.745l7.862-1.522a4.735,4.735,0,0,0,3.722-5.546h0a4.742,4.742,0,0,0-5.546-3.722l-7.858,1.541a4.746,4.746,0,0,0-3.722,5.55h0A4.738,4.738,0,0,0,313.737,111.745Z" transform="translate(-308.108 -91.534)" fill="#407bff"/>
        <path id="Path_7953" data-name="Path 7953" d="M313.737,111.745l7.862-1.522a4.735,4.735,0,0,0,3.722-5.546h0a4.742,4.742,0,0,0-5.546-3.722l-7.858,1.541a4.746,4.746,0,0,0-3.722,5.55h0A4.738,4.738,0,0,0,313.737,111.745Z" transform="translate(-308.108 -91.534)" fill="#fff" opacity="0.3"/>
        <path id="Path_7954" data-name="Path 7954" d="M352.7,99.948l-13.4-.179c-1.161.227-4.095-14.811-2.948-15.038l12.336-5.211Z" transform="translate(-325.673 -78.132)" fill="#407bff"/>
        <path id="Path_7955" data-name="Path 7955" d="M370.422,89.929c1.117,5.643,2.483,10.125,3.075,10.009s.175-4.787-.934-10.422-2.483-10.125-3.075-10.009S369.316,84.282,370.422,89.929Z" transform="translate(-346.472 -78.122)" fill="#407bff"/>
        <path id="Path_7956" data-name="Path 7956" d="M370.422,89.929c1.117,5.643,2.483,10.125,3.075,10.009s.175-4.787-.934-10.422-2.483-10.125-3.075-10.009S369.316,84.282,370.422,89.929Z" transform="translate(-346.472 -78.122)" opacity="0.3"/>
        <path id="Path_7957" data-name="Path 7957" d="M377.91,102.552c-.272-1.381-3.35-1.943-4-1.813s-.968,1.351-.7,2.732,1.024,2.393,1.679,2.267S378.171,103.929,377.91,102.552Z" transform="translate(-348.916 -91.442)" fill="#407bff"/>
        <rect id="Rectangle_3013" data-name="Rectangle 3013" width="17.662" height="0.398" transform="matrix(0.987, -0.16, 0.16, 0.987, 32.286, 10.348)" fill="#407bff"/>
        <rect id="Rectangle_3014" data-name="Rectangle 3014" width="9.395" height="0.398" transform="translate(30.642 6.095) rotate(-40.45)" fill="#407bff"/>
        <rect id="Rectangle_3015" data-name="Rectangle 3015" width="0.398" height="2.781" transform="translate(41.199 19.225) rotate(-70.56)" fill="#407bff"/>
        <rect id="Rectangle_3016" data-name="Rectangle 3016" width="0.398" height="6.998" transform="matrix(0.318, -0.948, 0.948, 0.318, 31.705, 15.991)" fill="#407bff"/>
      </g>
    </g>
  </g>
</svg>
