<svg xmlns="http://www.w3.org/2000/svg" xmlns:xlink="http://www.w3.org/1999/xlink" width="169.648" height="138.757" viewBox="0 0 169.648 138.757">
  <defs>
    <clipPath id="clip-path">
      <path id="Path_9014" data-name="Path 9014" d="M224.229,194.99c.18.687.367,1.37.554,2.038,1.952,7.028,4.49,20.4,4.49,20.4,12.494,2.635,25.671,0,25.671,0a98.792,98.792,0,0,0-.679-10.8c2.046-.566,3.514-2.456,3.608-5.6a123.37,123.37,0,0,0-.976-13.86c-.34-2.815-.1-4.49-4.459-6.637-2.186-1.261-5.817-1.858-10.28-2.456-8.785-1.171-15.125.605-17.374,1.562-1.784-.469-2.28,1.624-2.28,1.624-.988-.746-2.136,2.417-2.136,2.417-2.889,3.686-5.161,9.894-5.919,12.1a2.585,2.585,0,0,1-.882,1.214,2.657,2.657,0,0,0-.91,3.494l4.2,1.285s2.034.531,3.588-2.143C221.738,197.4,223.862,193.608,224.229,194.99Z" transform="translate(-212.34 -177.691)" fill="#407bff" stroke="#263238" stroke-linecap="round" stroke-linejoin="round" stroke-width="0.5"/>
    </clipPath>
    <clipPath id="clip-path-2">
      <path id="Path_9033" data-name="Path 9033" d="M270.8,175.746c-.367-1.285-2.042-1.644-2.042-1.644-8-1.367-9.694,1.562-9.694,1.562a11.784,11.784,0,0,0,0,8.2s2.276-.945,2.667,0,1.1,2.959,1.1,2.959a9.026,9.026,0,0,0,2.784-2.44c1.238-1.628,4.142,0,4.142,0C271.64,181.13,270.8,175.746,270.8,175.746Zm-1.952-.094c-3.1,9.73-5.833,10.151-5.833,10.151-.91-3.576-1.691-2.8-2.928-5.033a7.609,7.609,0,0,1-.484-4.9.683.683,0,0,1,.351-.469c3.077-1.562,6.84-.988,8.39-.648a.695.695,0,0,1,.519.9Z" transform="translate(-258.325 -173.739)" fill="#407bff" stroke="#263238" stroke-linecap="round" stroke-linejoin="round" stroke-width="0.5"/>
    </clipPath>
    <clipPath id="clip-path-3">
      <ellipse id="Ellipse_114" data-name="Ellipse 114" cx="13.01" cy="13.01" rx="13.01" ry="13.01" transform="translate(0 25.31) rotate(-76.59)" fill="#407bff" stroke="#263238" stroke-linecap="round" stroke-linejoin="round" stroke-width="0.3"/>
    </clipPath>
    <clipPath id="clip-path-4">
      <ellipse id="Ellipse_118" data-name="Ellipse 118" cx="11.101" cy="11.101" rx="11.101" ry="11.101" transform="matrix(0.228, -0.974, 0.974, 0.228, 0, 21.619)" fill="#407bff" stroke="#263238" stroke-linecap="round" stroke-linejoin="round" stroke-width="0.3"/>
    </clipPath>
  </defs>
  <g id="Programmer-bro" transform="translate(-27.756 -68.983)">
    <g id="freepik--background-simple--inject-62" transform="translate(37.778 78.5)">
      <path id="Path_8975" data-name="Path 8975" d="M102.509,173.864c-18.612-5.735-61.223-19.2-53.1-57,9.37-43.666,60.993-14.056,92.661-28.829,22.415-10.452,69.2-21.474,65.768,25.714-3.342,45.9-5.259,79.152-32.456,87.043S130.655,182.532,102.509,173.864Z" transform="translate(-48.392 -78.906)" fill="#c6d8ff"/>
      <path id="Path_8976" data-name="Path 8976" d="M102.509,173.864c-18.612-5.735-61.223-19.2-53.1-57,9.37-43.666,60.993-14.056,92.661-28.829,22.415-10.452,69.2-21.474,65.768,25.714-3.342,45.9-5.259,79.152-32.456,87.043S130.655,182.532,102.509,173.864Z" transform="translate(-48.392 -78.906)" fill="#c6d8ff" opacity="0.7"/>
    </g>
    <g id="freepik--Plant--inject-62" transform="translate(27.756 172.493)">
      <path id="Path_8977" data-name="Path 8977" d="M88.675,250.174c1.16.967.773,6.65,4.4,4.2s-2.552-3.893-2.2-5.279c.495-1.933,8.654.387,7.286-3.325s-6.248,1.871-7.529.489c-1.179-1.272,4.693-5.869,1.956-6.65s-2.155,5.867-3.912,5.867c-1.372,0-1.115-6.356-3.638-4.108s2.99,4.465,2.269,5.861c-.549,1.061-4.889-1.558-4.693.887S87.438,249.151,88.675,250.174Z" transform="translate(-72.627 -239.55)" fill="#407bff"/>
      <path id="Path_8978" data-name="Path 8978" d="M108.127,279.47s-2.637,3.2-2.343,11.9" transform="translate(-91.306 -271.753)" fill="none" stroke="#263238" stroke-linecap="round" stroke-linejoin="round" stroke-width="1"/>
      <path id="Path_8979" data-name="Path 8979" d="M132.913,278.167c-.468-.941-4.347-1.585-2.126-3.628s2.213,2.337,3.2,2.32c1.382-.023,1.113-5.88,3.394-4.369s-2.254,3.9-1.527,4.983c.667,1,4.692-2.221,4.782-.255s-4.287.51-4.568,1.7c-.218.922,4.1,1.761,2.182,3.093s-2.526-2.72-3.578-2.457c-.8.193.269,3.536-1.343,3.014S133.4,279.153,132.913,278.167Z" transform="translate(-110.944 -265.921)" fill="#407bff"/>
      <path id="Path_8980" data-name="Path 8980" d="M132.913,278.167c-.468-.941-4.347-1.585-2.126-3.628s2.213,2.337,3.2,2.32c1.382-.023,1.113-5.88,3.394-4.369s-2.254,3.9-1.527,4.983c.667,1,4.692-2.221,4.782-.255s-4.287.51-4.568,1.7c-.218.922,4.1,1.761,2.182,3.093s-2.526-2.72-3.578-2.457c-.8.193.269,3.536-1.343,3.014S133.4,279.153,132.913,278.167Z" transform="translate(-110.944 -265.921)" opacity="0.3"/>
      <path id="Path_8981" data-name="Path 8981" d="M120.546,303.025s-7.514-.783-8.256,7.334" transform="translate(-96.572 -290.738)" fill="none" stroke="#263238" stroke-linecap="round" stroke-linejoin="round" stroke-width="1"/>
      <path id="Path_8982" data-name="Path 8982" d="M40.617,254.223c-1.16.967-.773,6.65-4.4,4.2s2.554-3.9,2.2-5.279c-.493-1.933-8.654.387-7.284-3.325s6.246,1.873,7.539.489c1.177-1.27-4.693-5.867-1.956-6.65s2.148,5.869,3.911,5.869c1.372,0,1.117-6.358,3.64-4.108s-2.992,4.465-2.269,5.861c.547,1.061,4.889-1.558,4.693.885S41.848,253.2,40.617,254.223Z" transform="translate(-30.979 -242.816)" fill="#407bff"/>
      <path id="Path_8983" data-name="Path 8983" d="M40.617,254.223c-1.16.967-.773,6.65-4.4,4.2s2.554-3.9,2.2-5.279c-.493-1.933-8.654.387-7.284-3.325s6.246,1.873,7.539.489c1.177-1.27-4.693-5.867-1.956-6.65s2.148,5.869,3.911,5.869c1.372,0,1.117-6.358,3.64-4.108s-2.992,4.465-2.269,5.861c.547,1.061,4.889-1.558,4.693.885S41.848,253.2,40.617,254.223Z" transform="translate(-30.979 -242.816)" fill="#fff" opacity="0.3"/>
      <path id="Path_8984" data-name="Path 8984" d="M76.54,283.52a26.273,26.273,0,0,1,4.2,12.2" transform="translate(-67.733 -275.02)" fill="none" stroke="#263238" stroke-linecap="round" stroke-linejoin="round" stroke-width="1"/>
      <path id="Path_8985" data-name="Path 8985" d="M77.51,350.79h5.335a1.968,1.968,0,0,0,1.97-1.805l.839-9.859A1.968,1.968,0,0,0,83.694,337H76.671a1.966,1.966,0,0,0-1.958,2.126l.839,9.859A1.966,1.966,0,0,0,77.51,350.79Z" transform="translate(-66.253 -318.162)" fill="#407bff" stroke="#263238" stroke-linecap="round" stroke-linejoin="round" stroke-width="1"/>
    </g>
    <g id="freepik--Character--inject-62" transform="translate(95.35 98.739)">
      <path id="Path_8986" data-name="Path 8986" d="M274.015,331.443c-3.6,0-14-2.343-14-2.343h28.01S277.615,331.443,274.015,331.443Z" transform="translate(-234.961 -251.656)" fill="#263238" stroke="#263238" stroke-linecap="round" stroke-linejoin="round" stroke-width="0.5"/>
      <rect id="Rectangle_3253" data-name="Rectangle 3253" width="6.419" height="4.4" transform="translate(35.845 78.612)" fill="#858585" stroke="#263238" stroke-linecap="round" stroke-linejoin="round" stroke-width="0.5"/>
      <rect id="Rectangle_3254" data-name="Rectangle 3254" width="8.316" height="18.916" transform="translate(34.896 83.012)" fill="#999" stroke="#263238" stroke-linecap="round" stroke-linejoin="round" stroke-width="0.5"/>
      <path id="Path_8987" data-name="Path 8987" d="M327.423,297.1H322c.6-3.725,1.046-7.52,1.32-11.28h5.4C328.466,289.58,328.024,293.375,327.423,297.1Z" transform="translate(-272.748 -225.273)" fill="#858585" stroke="#263238" stroke-linecap="round" stroke-linejoin="round" stroke-width="0.5"/>
      <path id="Path_8988" data-name="Path 8988" d="M314.148,200.48h-23.3a4.045,4.045,0,0,0-4,5.04,177.125,177.125,0,0,1,2.663,25.2,4.353,4.353,0,0,0,4.392,4.373h19.615a5.115,5.115,0,0,0,5.009-4.373,175.235,175.235,0,0,0,1.023-25.2A5.529,5.529,0,0,0,314.148,200.48Z" transform="translate(-251.262 -173.253)" fill="#858585" stroke="#263238" stroke-linecap="round" stroke-linejoin="round" stroke-width="0.5"/>
      <path id="Path_8989" data-name="Path 8989" d="M315.422,205.52a175.235,175.235,0,0,1-1.023,25.2,5.115,5.115,0,0,1-5.009,4.373H293.906a4.353,4.353,0,0,1-4.392-4.373,177.127,177.127,0,0,0-2.659-25.2,4.039,4.039,0,0,1,4-5.04h19.166A5.529,5.529,0,0,1,315.422,205.52Z" transform="translate(-251.267 -173.253)" fill="#999" stroke="#263238" stroke-linecap="round" stroke-linejoin="round" stroke-width="0.5"/>
      <path id="Path_8990" data-name="Path 8990" d="M288.02,394.548a.7.7,0,0,1-.843.679c-2.549-.554-10.182-2.163-13.161-2.163s-10.616,1.609-13.165,2.163a.691.691,0,0,1-.839-.679h0a1.823,1.823,0,0,1,1.441-1.784c2.983-.64,9.788-2.034,12.564-2.034s9.581,1.394,12.564,2.034A1.827,1.827,0,0,1,288.02,394.548Z" transform="translate(-234.961 -289.223)" fill="#263238" stroke="#263238" stroke-linecap="round" stroke-linejoin="round" stroke-width="0.5"/>
      <path id="Path_8991" data-name="Path 8991" d="M256.251,396.91a2.4,2.4,0,1,0,2.393,2.393A2.4,2.4,0,0,0,256.251,396.91Zm0,3.693a1.3,1.3,0,1,1,1.3-1.3A1.3,1.3,0,0,1,256.251,400.6Z" transform="translate(-231.206 -292.99)" fill="#858585" stroke="#263238" stroke-linecap="round" stroke-linejoin="round" stroke-width="0.5"/>
      <path id="Path_8992" data-name="Path 8992" d="M292.125,396.91a2.4,2.4,0,1,0,2.389,2.378A2.4,2.4,0,0,0,292.125,396.91Zm0,3.693a1.3,1.3,0,1,1,.922-.388A1.3,1.3,0,0,1,292.125,400.6Z" transform="translate(-253.071 -292.99)" fill="#858585" stroke="#263238" stroke-linecap="round" stroke-linejoin="round" stroke-width="0.5"/>
      <path id="Path_8993" data-name="Path 8993" d="M327.257,396.91a2.393,2.393,0,1,0,1.695.7A2.4,2.4,0,0,0,327.257,396.91Zm0,3.693a1.3,1.3,0,1,1,1.3-1.3A1.3,1.3,0,0,1,327.257,400.6Z" transform="translate(-274.491 -292.99)" fill="#858585" stroke="#263238" stroke-linecap="round" stroke-linejoin="round" stroke-width="0.5"/>
      <path id="Path_8994" data-name="Path 8994" d="M264.976,310.765a184.707,184.707,0,0,1-27.99-1.238,2.928,2.928,0,0,0-3.448,2.963v.457a4.119,4.119,0,0,0,3.448,3.967,185.216,185.216,0,0,0,27.99,1.238Z" transform="translate(-218.824 -239.696)" fill="#999" stroke="#263238" stroke-linecap="round" stroke-linejoin="round" stroke-width="0.5"/>
      <path id="Path_8995" data-name="Path 8995" d="M320.474,316.619c-5.8.726-11.553,1.206-17.394,1.456a2.5,2.5,0,0,1-2.581-2.518v-2.245a2.647,2.647,0,0,1,2.581-2.62c5.856-.254,11.592-.734,17.394-1.46a2.163,2.163,0,0,1,2.561,2.19v2.245A3.077,3.077,0,0,1,320.474,316.619Z" transform="translate(-259.642 -239.522)" fill="#858585" stroke="#263238" stroke-linecap="round" stroke-linejoin="round" stroke-width="0.5"/>
      <path id="Path_8996" data-name="Path 8996" d="M219.773,383.355a18.126,18.126,0,0,0-1.823-7.282l-2-7.223-6.247,2.667,1.757,5.532s-5.368,2.561-7.352,3.252c-1.32.461-5.271,1.367-5.076,3.061h0a.91.91,0,0,0,.91.91h18.92a.91.91,0,0,0,.914-.918Z" transform="translate(-197.784 -275.886)" fill="#fff" stroke="#263238" stroke-linecap="round" stroke-linejoin="round" stroke-width="0.5"/>
      <path id="Path_8997" data-name="Path 8997" d="M216.333,391.921c-.976.718-6.181,1.628-4.876.586s0-2.667,0-2.667-5.368,2.561-7.352,3.252c-1.32.461-5.271,1.367-5.076,3.061a.91.91,0,0,0,.91.91h18.92a.906.906,0,0,0,.91-.918,17.23,17.23,0,0,0-1.195-5.771C217.5,390.387,217.309,391.207,216.333,391.921Z" transform="translate(-197.784 -288.681)" fill="#407bff" stroke="#263238" stroke-linecap="round" stroke-linejoin="round" stroke-width="0.5"/>
      <path id="Path_8998" data-name="Path 8998" d="M262.81,386.548h13.86a.6.6,0,0,0,.586-.484,13.774,13.774,0,0,0-1.085-6.836l-.125-6.637-7.1,1.206.9,5.661s-2.858,3.147-4.217,3.709c-.953.39-3.123.437-3.412,2.733a.593.593,0,0,0,.593.648Z" transform="translate(-236.304 -278.166)" fill="#fff" stroke="#263238" stroke-linecap="round" stroke-linejoin="round" stroke-width="0.5"/>
      <path id="Path_8999" data-name="Path 8999" d="M273.865,391.814c-1.464,1.023-2.546,1.144-1.862-.39s-2.12-1.589-2.12-1.589-2.858,3.147-4.217,3.709c-.953.39-3.123.437-3.412,2.733a.593.593,0,0,0,.593.664h13.86a.6.6,0,0,0,.586-.484,13.774,13.774,0,0,0-1.085-6.836C275.122,389.87,275.317,390.787,273.865,391.814Z" transform="translate(-236.326 -288.547)" fill="#407bff" stroke="#263238" stroke-linecap="round" stroke-linejoin="round" stroke-width="0.5"/>
      <path id="Path_9000" data-name="Path 9000" d="M221.9,277.047s-1.4,1.429-7.11,2.343-17.569,3.772-17.425,8.457,11.065,29.673,11.065,29.673,5.466-1.039,8-2.6c0,0-4.4-17.831-7.7-22.516,0,0,14.809-1.823,23-5.2s3.373-11.088,3.373-11.088Z" transform="translate(-196.775 -219.354)" fill="#263238" stroke="#263238" stroke-linecap="round" stroke-linejoin="round" stroke-width="0.5"/>
      <path id="Path_9001" data-name="Path 9001" d="M269.911,276.375s2.1,3.514.531,5.466-10.483,5.595-9.476,10.022,4.334,10.67,6.5,25.507a43.459,43.459,0,0,0,8.429-2.214s.562-15.094-3.362-21.6c0,0,11.237-2.081,12.377-5.857s-.992-9.546-1.035-11.608Z" transform="translate(-235.495 -219.342)" fill="#263238" stroke="#263238" stroke-linecap="round" stroke-linejoin="round" stroke-width="0.5"/>
      <path id="Path_9002" data-name="Path 9002" d="M265.481,291.117a5.2,5.2,0,0,0-.781,0" transform="translate(-237.82 -228.493)" fill="none" stroke="#7f7f7f" stroke-linecap="round" stroke-linejoin="round" stroke-width="0.5"/>
      <path id="Path_9003" data-name="Path 9003" d="M268,285.17a5.329,5.329,0,0,1,3.213,3.69.242.242,0,0,1-.39.242,5.568,5.568,0,0,0-2.222-1.4" transform="translate(-239.831 -224.877)" fill="none" stroke="#7f7f7f" stroke-linecap="round" stroke-linejoin="round" stroke-width="0.5"/>
      <path id="Path_9004" data-name="Path 9004" d="M217.073,312.194c0-1.269-5.466-1.952-4-3.123s4.783,2.635,4.783,2.635" transform="translate(-206.196 -239.31)" fill="none" stroke="#7f7f7f" stroke-linecap="round" stroke-linejoin="round" stroke-width="0.5"/>
      <path id="Path_9005" data-name="Path 9005" d="M284.738,323.786c0-1.452-5.224-2.245-4.962-3.807s3.58,1.515,3.58,1.515" transform="translate(-247.003 -245.826)" fill="none" stroke="#7f7f7f" stroke-linecap="round" stroke-linejoin="round" stroke-width="0.5"/>
      <path id="Path_9006" data-name="Path 9006" d="M224.189,377.06l.574,1.327a.344.344,0,0,0,.39.2c1.261-.285,6.524-1.527,8.371-2.854a.332.332,0,0,0,.125-.351l-.359-1.48a.34.34,0,0,0-.5-.219,39.44,39.44,0,0,1-8.375,2.909.347.347,0,0,0-.23.468Z" transform="translate(-213.109 -278.806)" fill="#999" stroke="#263238" stroke-linecap="round" stroke-linejoin="round" stroke-width="0.5"/>
      <path id="Path_9007" data-name="Path 9007" d="M276.146,375.99a.269.269,0,0,1,.355-.293,3.432,3.432,0,0,0,1.952.027c1.448-.328,5.591-1.64,6.825-2.034a.269.269,0,0,1,.351.258v1.726a.266.266,0,0,1-.16.246c-.968.433-6.157,2.655-8.871,2.05a.265.265,0,0,1-.2-.226Z" transform="translate(-244.795 -278.828)" fill="#999" stroke="#263238" stroke-linecap="round" stroke-linejoin="round" stroke-width="0.5"/>
      <path id="Path_9008" data-name="Path 9008" d="M272.763,287a2.733,2.733,0,0,1-.566,1.484c-1.148,1.425-6.2,3.748-8.457,6.637" transform="translate(-237.234 -225.993)" fill="none" stroke="#7f7f7f" stroke-linecap="round" stroke-linejoin="round" stroke-width="0.5"/>
      <path id="Path_9009" data-name="Path 9009" d="M286.22,282a6.249,6.249,0,0,1,.2.878" transform="translate(-250.937 -222.945)" fill="none" stroke="#7f7f7f" stroke-linecap="round" stroke-linejoin="round" stroke-width="0.5"/>
      <path id="Path_9010" data-name="Path 9010" d="M209.64,400.42a6.669,6.669,0,0,1,.683,1.855h14.1a2.491,2.491,0,0,1,.781-1.609" transform="translate(-204.257 -295.13)" fill="none" stroke="#263238" stroke-linecap="round" stroke-linejoin="round" stroke-width="0.5"/>
      <path id="Path_9011" data-name="Path 9011" d="M272.39,400.42a3.356,3.356,0,0,1,2.682,1.855h7.371a4.794,4.794,0,0,0,.39-1.609" transform="translate(-242.507 -295.13)" fill="none" stroke="#263238" stroke-linecap="round" stroke-linejoin="round" stroke-width="0.5"/>
      <path id="Path_9012" data-name="Path 9012" d="M224.229,194.99c.18.687.367,1.37.554,2.038,1.952,7.028,4.49,20.4,4.49,20.4,12.494,2.635,25.671,0,25.671,0a98.792,98.792,0,0,0-.679-10.8c2.046-.566,3.514-2.456,3.608-5.6a123.37,123.37,0,0,0-.976-13.86c-.34-2.815-.1-4.49-4.459-6.637-2.186-1.261-5.817-1.858-10.28-2.456-8.785-1.171-15.125.605-17.374,1.562-1.784-.469-2.28,1.624-2.28,1.624-.988-.746-2.136,2.417-2.136,2.417-2.889,3.686-5.161,9.894-5.919,12.1a2.585,2.585,0,0,1-.882,1.214,2.657,2.657,0,0,0-.91,3.494l4.2,1.285s2.034.531,3.588-2.143C221.738,197.4,223.862,193.608,224.229,194.99Z" transform="translate(-205.903 -159.361)" fill="#407bff"/>
      <g id="Group_5369" data-name="Group 5369" transform="translate(6.438 18.33)" clip-path="url(#clip-path)">
        <path id="Path_9013" data-name="Path 9013" d="M222.393,222.475s-.1-1.952-1.659-2.292.437-.925,1.659-.633.937-.781,1.983-2.538,1.562-3.147,2.444-2.136,1.8,1.171,2.175,2.553-1.48,4.685-1.48,4.685l-2.913,2.261-1.48.828h-2.206l-.757-1.909Z" transform="translate(-217.107 -200.15)" opacity="0.3"/>
      </g>
      <path id="Path_9015" data-name="Path 9015" d="M224.229,194.99c.18.687.367,1.37.554,2.038,1.952,7.028,4.49,20.4,4.49,20.4,12.494,2.635,25.671,0,25.671,0a98.792,98.792,0,0,0-.679-10.8c2.046-.566,3.514-2.456,3.608-5.6a123.37,123.37,0,0,0-.976-13.86c-.34-2.815-.1-4.49-4.459-6.637-2.186-1.261-5.817-1.858-10.28-2.456-8.785-1.171-15.125.605-17.374,1.562-1.784-.469-2.28,1.624-2.28,1.624-.988-.746-2.136,2.417-2.136,2.417-2.889,3.686-5.161,9.894-5.919,12.1a2.585,2.585,0,0,1-.882,1.214,2.657,2.657,0,0,0-.91,3.494l4.2,1.285s2.034.531,3.588-2.143C221.738,197.4,223.862,193.608,224.229,194.99Z" transform="translate(-205.903 -159.361)" fill="none" stroke="#263238" stroke-linecap="round" stroke-linejoin="round" stroke-width="0.5"/>
      <path id="Path_9016" data-name="Path 9016" d="M278.388,264.573a70.584,70.584,0,0,0-.371-7.512c.426,5.946-11.955,7.809-12.345,4.584s12.037-7.871,5.275-6.247c-5.9,1.417-17.335.062-20.146-.3,1.081,5.076,1.917,9.48,1.917,9.48C265.211,267.208,278.388,264.573,278.388,264.573Z" transform="translate(-229.347 -206.525)" opacity="0.3"/>
      <path id="Path_9017" data-name="Path 9017" d="M296.411,202.92s-1.769,5.173-1.765,7.906-4.955,4.568-4.966,4.568c2.659-.539,5.243-1.253,6.477-1.612a.949.949,0,0,0,.687-1,95.2,95.2,0,0,1-.433-9.866Z" transform="translate(-253.047 -174.74)" opacity="0.3"/>
      <path id="Path_9018" data-name="Path 9018" d="M235.973,199.59a21.06,21.06,0,0,0,1.3,7.141.336.336,0,0,1-.508.39,7.937,7.937,0,0,1-2.475-3.424" transform="translate(-219.283 -172.71)" fill="none" stroke="#263238" stroke-linecap="round" stroke-linejoin="round" stroke-width="0.5"/>
      <path id="Path_9019" data-name="Path 9019" d="M316.614,232.5c-1.031-3.416-2.815-4.271-4.2-4.357a.219.219,0,0,1-.1-.39c.8-.433,2.37-.781,4.295,1.351" transform="translate(-266.792 -189.678)" fill="none" stroke="#263238" stroke-linecap="round" stroke-linejoin="round" stroke-width="0.5"/>
      <path id="Path_9020" data-name="Path 9020" d="M270.9,214.354a.59.59,0,1,1-.271-.567.59.59,0,0,1,.271.567Z" transform="translate(-240.88 -181.309)" fill="#999" stroke="#263238" stroke-linecap="round" stroke-linejoin="round" stroke-width="0.5"/>
      <path id="Path_9021" data-name="Path 9021" d="M272.931,231.486a.586.586,0,1,1-.586-.586A.586.586,0,0,1,272.931,231.486Z" transform="translate(-242.123 -191.796)" fill="#999" stroke="#263238" stroke-linecap="round" stroke-linejoin="round" stroke-width="0.5"/>
      <path id="Path_9022" data-name="Path 9022" d="M277.949,272.506a.59.59,0,1,1-.59-.586.59.59,0,0,1,.59.586Z" transform="translate(-245.177 -216.8)" fill="#999" stroke="#263238" stroke-linecap="round" stroke-linejoin="round" stroke-width="0.5"/>
      <path id="Path_9023" data-name="Path 9023" d="M249.118,243.093s-1.917,1.827-1,1.858,2.065-1.226,3.123-1.37-.652-.781-.652-.781Z" transform="translate(-227.559 -199.05)" fill="#fff" stroke="#263238" stroke-linecap="round" stroke-linejoin="round" stroke-width="0.5"/>
      <path id="Path_9024" data-name="Path 9024" d="M250,236.341a.839.839,0,0,0-.636-.211c-.937.078-3.631.281-4.646.219-1.8-.113-7.118-1.238-7.118-1.238a.836.836,0,0,0-.367.02l-3.291.968a.781.781,0,0,0-.32.184l-1.991,1.827a.851.851,0,0,0-.164.211l-.414.757a.812.812,0,0,0,.144.972h0l3.287.086a.781.781,0,0,0,.554-.2l.976-.836a.89.89,0,0,0,.168-.2,3.039,3.039,0,0,1,2.616-1.562s-3.123,1.659-2.534,2.343,2.979-1.269,3.76-1.074.832,2.112,5.076,1.417a1.335,1.335,0,0,1,.57.027l3.865,1.081a.894.894,0,0,0,1.1-.64C250.942,239.395,251.207,237.442,250,236.341Z" transform="translate(-217.248 -194.356)" fill="#fff" stroke="#263238" stroke-linecap="round" stroke-linejoin="round" stroke-width="0.5"/>
      <path id="Path_9025" data-name="Path 9025" d="M241.866,236.92l-.828.141a2.225,2.225,0,0,0-1.089.515l-.878.754a2.3,2.3,0,0,0-.39.457l-.566.863a2.048,2.048,0,0,1-.207.269c-.336.39-1.261,1.472-.262,1.324" transform="translate(-221.053 -195.465)" fill="#fff" stroke="#263238" stroke-linecap="round" stroke-linejoin="round" stroke-width="0.5"/>
      <path id="Path_9026" data-name="Path 9026" d="M237.31,237.67l-.855.234a1.561,1.561,0,0,0-.711.39l-.668.64a1.172,1.172,0,0,0-.176.2l-1.1,1.456s-.586,1.031,0,1.05" transform="translate(-218.827 -195.923)" fill="#fff" stroke="#263238" stroke-linecap="round" stroke-linejoin="round" stroke-width="0.5"/>
      <path id="Path_9027" data-name="Path 9027" d="M291.761,200.8a89.643,89.643,0,0,0,.39,10.694.949.949,0,0,1-.687,1A73.158,73.158,0,0,1,282,214.617" transform="translate(-248.365 -173.448)" fill="none" stroke="#263238" stroke-linecap="round" stroke-linejoin="round" stroke-width="0.5"/>
      <path id="Path_9028" data-name="Path 9028" d="M307.285,194.6c-.051.39-.094.816-.125,1.249" transform="translate(-263.702 -169.668)" fill="none" stroke="#263238" stroke-linecap="round" stroke-linejoin="round" stroke-width="0.5"/>
      <path id="Path_9029" data-name="Path 9029" d="M309.251,185.24a3.966,3.966,0,0,0-1.011,2.034" transform="translate(-264.36 -163.963)" fill="none" stroke="#263238" stroke-linecap="round" stroke-linejoin="round" stroke-width="0.5"/>
      <path id="Path_9030" data-name="Path 9030" d="M260.242,176.425s.246-.781,1.562-1.222,5.88-1.14,8.226,0-2.147,7.344-2.147,7.344l-2.081,2.881-1.855,1.39-.828-2.471-1.074-1.117s-2.319-1.9-2.124-3.779S260.242,176.425,260.242,176.425Z" transform="translate(-234.9 -157.467)" fill="#fff"/>
      <path id="Path_9031" data-name="Path 9031" d="M270.8,175.746c-.367-1.285-2.042-1.644-2.042-1.644-8-1.367-9.694,1.562-9.694,1.562a11.784,11.784,0,0,0,0,8.2s2.276-.945,2.667,0,1.1,2.959,1.1,2.959a9.026,9.026,0,0,0,2.784-2.44c1.238-1.628,4.142,0,4.142,0C271.64,181.13,270.8,175.746,270.8,175.746Zm-1.952-.094c-3.1,9.73-5.833,10.151-5.833,10.151-.91-3.576-1.691-2.8-2.928-5.033a7.609,7.609,0,0,1-.484-4.9.683.683,0,0,1,.351-.469c3.077-1.562,6.84-.988,8.39-.648a.695.695,0,0,1,.519.9Z" transform="translate(-233.933 -156.952)" fill="#407bff"/>
      <g id="Group_5370" data-name="Group 5370" transform="translate(24.391 16.787)" clip-path="url(#clip-path-2)">
        <path id="Path_9032" data-name="Path 9032" d="M270.8,175.746c-.367-1.285-2.042-1.644-2.042-1.644-8-1.367-9.694,1.562-9.694,1.562a11.784,11.784,0,0,0,0,8.2s2.276-.945,2.667,0,1.1,2.959,1.1,2.959a9.026,9.026,0,0,0,2.784-2.44c1.238-1.628,4.142,0,4.142,0C271.64,181.13,270.8,175.746,270.8,175.746Zm-1.952-.094c-3.1,9.73-5.833,10.151-5.833,10.151-.91-3.576-1.691-2.8-2.928-5.033a7.609,7.609,0,0,1-.484-4.9.683.683,0,0,1,.351-.469c3.077-1.562,6.84-.988,8.39-.648a.695.695,0,0,1,.519.9Z" transform="translate(-258.325 -173.739)" fill="#fff" opacity="0.4"/>
      </g>
      <path id="Path_9034" data-name="Path 9034" d="M270.8,175.746c-.367-1.285-2.042-1.644-2.042-1.644-8-1.367-9.694,1.562-9.694,1.562a11.784,11.784,0,0,0,0,8.2s2.276-.945,2.667,0,1.1,2.959,1.1,2.959a9.026,9.026,0,0,0,2.784-2.44c1.238-1.628,4.142,0,4.142,0C271.64,181.13,270.8,175.746,270.8,175.746Zm-1.952-.094c-3.1,9.73-5.833,10.151-5.833,10.151-.91-3.576-1.691-2.8-2.928-5.033a7.609,7.609,0,0,1-.484-4.9.683.683,0,0,1,.351-.469c3.077-1.562,6.84-.988,8.39-.648a.695.695,0,0,1,.519.9Z" transform="translate(-233.933 -156.952)" fill="none" stroke="#263238" stroke-linecap="round" stroke-linejoin="round" stroke-width="0.5"/>
      <path id="Path_9035" data-name="Path 9035" d="M250.178,140.8s-6.9,1.382-3.1,5.856C251.29,151.642,250.178,140.8,250.178,140.8Z" transform="translate(-226.382 -136.874)" fill="#263238" stroke="#263238" stroke-linecap="round" stroke-linejoin="round" stroke-width="0.5"/>
      <path id="Path_9036" data-name="Path 9036" d="M249.158,148.673s-1.64-6.637,1.484-9.827,6.508-3.838,9.046-2.276,3.592,5.466,3.2,7.481-.2,9.238-3.682,12.232-5.618,2.257-7.918-1.823C249.764,151.785,249.041,151.016,249.158,148.673Z" transform="translate(-228.084 -133.799)" fill="#fff" stroke="#263238" stroke-linecap="round" stroke-linejoin="round" stroke-width="0.5"/>
      <path id="Path_9037" data-name="Path 9037" d="M258.44,144.317a14.593,14.593,0,0,1-3.428-5.661c-.8-3.057-1.257-3.58-4.252-2.085s-7.664-.515-6.442-4.295c1.285-3.967,5.208,1.171,8.98-.129s6.454,1.042,6.458,4.49c0,0,2.28,2.214,0,7.937Z" transform="translate(-225.274 -130.743)" fill="#263238" stroke="#263238" stroke-linecap="round" stroke-linejoin="round" stroke-width="0.5"/>
      <path id="Path_9038" data-name="Path 9038" d="M278.69,159.2s.664-3.639,2.507-3.3.527,5.708-1.644,5.122" transform="translate(-246.347 -146.062)" fill="#fff" stroke="#263238" stroke-linecap="round" stroke-linejoin="round" stroke-width="0.5"/>
      <path id="Path_9039" data-name="Path 9039" d="M255.383,167.55s-.726,3.377-.488,3.955,2.468.137,2.468.137" transform="translate(-231.814 -153.18)" fill="#fff" stroke="#263238" stroke-linecap="round" stroke-linejoin="round" stroke-width="0.5"/>
      <path id="Path_9040" data-name="Path 9040" d="M262.09,179.289s1.749.691,3.291-1.609" transform="translate(-236.229 -159.355)" fill="#fff" stroke="#263238" stroke-linecap="round" stroke-linejoin="round" stroke-width="0.5"/>
      <path id="Path_9041" data-name="Path 9041" d="M252.166,167.472c.062.312-.02.6-.184.633s-.355-.191-.422-.508,0-.6.184-.632S252.107,167.156,252.166,167.472Z" transform="translate(-229.795 -152.82)" fill="#263238"/>
      <path id="Path_9042" data-name="Path 9042" d="M263.132,166.592c.066.312,0,.6-.184.632s-.351-.2-.418-.508,0-.6.184-.633S263.089,166.276,263.132,166.592Z" transform="translate(-236.482 -152.284)" fill="#263238"/>
      <path id="Path_9043" data-name="Path 9043" d="M248.741,166.335c.09.886-.781,1.7-1.983,1.815s-2.218-.5-2.307-1.386.843-1.273,2.03-1.394S248.656,165.452,248.741,166.335Z" transform="translate(-225.473 -151.831)" fill="none" stroke="#263238" stroke-linecap="round" stroke-linejoin="round" stroke-width="0.5"/>
      <path id="Path_9044" data-name="Path 9044" d="M262.892,164.926c.09.882-.8,1.7-1.983,1.815a1.95,1.95,0,0,1-2.307-1.386c-.09-.882.843-1.277,2.03-1.394S262.806,164.04,262.892,164.926Z" transform="translate(-234.098 -150.974)" fill="none" stroke="#263238" stroke-linecap="round" stroke-linejoin="round" stroke-width="0.5"/>
      <line id="Line_106" data-name="Line 106" y1="0.121" x2="1.234" transform="translate(23.269 14.382)" fill="#fff" stroke="#263238" stroke-linecap="round" stroke-linejoin="round" stroke-width="0.5"/>
      <line id="Line_107" data-name="Line 107" y1="2.674" x2="4.537" transform="translate(28.645 10.833)" fill="#fff" stroke="#263238" stroke-linecap="round" stroke-linejoin="round" stroke-width="0.5"/>
      <line id="Line_108" data-name="Line 108" x2="0.215" y2="0.519" transform="translate(33.959 17.673)" fill="#fff" stroke="#263238" stroke-linecap="round" stroke-linejoin="round" stroke-width="0.5"/>
      <path id="Path_9045" data-name="Path 9045" d="M248.9,163.348s.691-.878,1.538-.457" transform="translate(-228.188 -150.27)" fill="#fff" stroke="#263238" stroke-linecap="round" stroke-linejoin="round" stroke-width="0.5"/>
      <path id="Path_9046" data-name="Path 9046" d="M263.276,162.232a1.981,1.981,0,0,0-2.386-.344" transform="translate(-235.497 -149.548)" fill="#fff" stroke="#263238" stroke-linecap="round" stroke-linejoin="round" stroke-width="0.5"/>
      <path id="Path_9047" data-name="Path 9047" d="M252.83,135.8c1.847.586,4.955,1.3,7.492.535,3.9-1.171,2.565,3.2,3.444,4.408" transform="translate(-230.584 -133.826)" fill="none" stroke="#7f7f7f" stroke-linecap="round" stroke-linejoin="round" stroke-width="0.5"/>
      <path id="Path_9048" data-name="Path 9048" d="M248.73,134.3s.308.137.836.324" transform="translate(-228.085 -132.911)" fill="none" stroke="#7f7f7f" stroke-linecap="round" stroke-linejoin="round" stroke-width="0.5"/>
      <path id="Path_9049" data-name="Path 9049" d="M260.68,141.023c.207-.062.422-.137.648-.223" transform="translate(-235.369 -136.874)" fill="none" stroke="#7f7f7f" stroke-linecap="round" stroke-linejoin="round" stroke-width="0.5"/>
      <path id="Path_9050" data-name="Path 9050" d="M249.83,140.05s.828,1.277,3.49.711" transform="translate(-228.755 -136.416)" fill="none" stroke="#7f7f7f" stroke-linecap="round" stroke-linejoin="round" stroke-width="0.5"/>
      <path id="Path_9051" data-name="Path 9051" d="M275.23,146.46a9.417,9.417,0,0,0,1.655,4.182" transform="translate(-244.238 -140.324)" fill="none" stroke="#7f7f7f" stroke-linecap="round" stroke-linejoin="round" stroke-width="0.5"/>
      <path id="Path_9052" data-name="Path 9052" d="M275,142.92a6.219,6.219,0,0,0,.023.7" transform="translate(-244.096 -138.166)" fill="none" stroke="#7f7f7f" stroke-linecap="round" stroke-linejoin="round" stroke-width="0.5"/>
      <path id="Path_9053" data-name="Path 9053" d="M283.606,246.859a.453.453,0,0,0,.289.8c2.639,0,9.761.031,12.494-.129,3.416-.2.808-3.9-1.952-2.491C291.934,246.348,286.609,244.169,283.606,246.859Z" transform="translate(-249.245 -200.22)" opacity="0.3"/>
      <path id="Path_9054" data-name="Path 9054" d="M207.71,235.123s1.6-4.252,5.6-3.576.945,4.029-.984,4.326C212.329,235.872,212.036,234.705,207.71,235.123Z" transform="translate(-203.08 -192.146)" fill="#fff" stroke="#263238" stroke-linecap="round" stroke-linejoin="round" stroke-width="0.5"/>
      <path id="Path_9055" data-name="Path 9055" d="M197.081,241.142c-.527.527-1.8.574-.941-.57a6.048,6.048,0,0,1,2.733-2.019c1.9-.847,2.639-.675,4.357-1.054a2.615,2.615,0,0,1,2.635.648c1.417.781,1.757.914,2.116,1.694s.75,1.8-.359,1.8c-1.007,0-1.074-1.667-2.05-1.6s-1.464,1.6-2.147,1.6h-.258c-.586,0-.617-.488-.262-1.253s.75-1.456.75-1.456a3,3,0,0,0-1.32,1.386c-.469,1-.554,1.413-1.417,1.413s-.781-.64.055-2.054a3.334,3.334,0,0,0-1.191,1.222c-.422.781-.644.742-1.195.742-.726,0-.675-1.195.609-1.976C199.2,239.663,198.92,239.311,197.081,241.142Z" transform="translate(-195.852 -195.752)" fill="#fff" stroke="#263238" stroke-linecap="round" stroke-linejoin="round" stroke-width="0.5"/>
      <path id="Path_9056" data-name="Path 9056" d="M210.594,239.69s-.5-.023-.824.828" transform="translate(-204.336 -197.154)" fill="#fff" stroke="#263238" stroke-linecap="round" stroke-linejoin="round" stroke-width="0.5"/>
    </g>
    <g id="freepik--Code--inject-62" transform="translate(60.888 69.134)">
      <path id="Path_9060" data-name="Path 9060" d="M311.09,111.3a97.523,97.523,0,0,1,19.609,6.971" transform="translate(-215.879 -94.013)" fill="none" stroke="#263238" stroke-linecap="round" stroke-linejoin="round" stroke-width="0.3"/>
      <path id="Path_9061" data-name="Path 9061" d="M300.17,108.22q1.569.4,3.163.847" transform="translate(-210.669 -92.544)" fill="none" stroke="#263238" stroke-linecap="round" stroke-linejoin="round" stroke-width="0.3"/>
      <path id="Path_9062" data-name="Path 9062" d="M288.93,105.73q1.725.329,3.441.722" transform="translate(-205.307 -91.356)" fill="none" stroke="#263238" stroke-linecap="round" stroke-linejoin="round" stroke-width="0.3"/>
      <path id="Path_9063" data-name="Path 9063" d="M278.92,104.06q1.49.214,2.97.46" transform="translate(-200.531 -90.559)" fill="none" stroke="#263238" stroke-linecap="round" stroke-linejoin="round" stroke-width="0.3"/>
      <path id="Path_9064" data-name="Path 9064" d="M218.61,103.292a107.491,107.491,0,0,1,29.282-.523" transform="translate(-171.757 -89.582)" fill="none" stroke="#263238" stroke-linecap="round" stroke-linejoin="round" stroke-width="0.3"/>
      <path id="Path_9065" data-name="Path 9065" d="M210.36,105.462c.889-.173,1.783-.34,2.672-.492" transform="translate(-167.821 -90.993)" fill="none" stroke="#263238" stroke-linecap="round" stroke-linejoin="round" stroke-width="0.3"/>
      <path id="Path_9066" data-name="Path 9066" d="M202.35,107.111c.894-.214,1.783-.413,2.682-.6" transform="translate(-163.999 -91.728)" fill="none" stroke="#263238" stroke-linecap="round" stroke-linejoin="round" stroke-width="0.3"/>
      <path id="Path_9067" data-name="Path 9067" d="M192.51,109.583q1.365-.4,2.735-.763" transform="translate(-159.304 -92.83)" fill="none" stroke="#263238" stroke-linecap="round" stroke-linejoin="round" stroke-width="0.3"/>
      <path id="Path_9068" data-name="Path 9068" d="M133,121.939A86.372,86.372,0,0,1,155.031,112" transform="translate(-124.706 -94.347)" fill="none" stroke="#263238" stroke-linecap="round" stroke-linejoin="round" stroke-width="0.3"/>
      <ellipse id="Ellipse_112" data-name="Ellipse 112" cx="13.01" cy="13.01" rx="13.01" ry="13.01" transform="translate(0 34.279) rotate(-76.59)" fill="#407bff"/>
      <g id="Group_5371" data-name="Group 5371" transform="translate(0 8.969)" clip-path="url(#clip-path-3)">
        <ellipse id="Ellipse_113" data-name="Ellipse 113" cx="13.01" cy="13.01" rx="13.01" ry="13.01" transform="translate(0 25.31) rotate(-76.59)" fill="#fff" opacity="0.3"/>
        <path id="Path_9097" data-name="Path 9097" d="M.532-7.666A2.346,2.346,0,0,0,2.923-5.139,2.346,2.346,0,0,0,5.314-7.666a2.359,2.359,0,0,0-2.391-2.568A2.359,2.359,0,0,0,.532-7.666Zm1.07,0c0-.852.361-1.669,1.322-1.669s1.322.817,1.322,1.669c0,.811-.361,1.628-1.322,1.628S1.6-6.855,1.6-7.666ZM6.043-5.254h2.1a2.162,2.162,0,0,0,2.207-2.459,2.13,2.13,0,0,0-2.207-2.4h-2.1Zm1.07-3.965h.763c1.063,0,1.4.627,1.4,1.608,0,1.076-.593,1.458-1.213,1.458H7.113ZM10.88-7.666a2.346,2.346,0,0,0,2.391,2.527,2.346,2.346,0,0,0,2.391-2.527,2.359,2.359,0,0,0-2.391-2.568A2.359,2.359,0,0,0,10.88-7.666Zm1.07,0c0-.852.361-1.669,1.322-1.669s1.322.817,1.322,1.669c0,.811-.361,1.628-1.322,1.628S11.949-6.855,11.949-7.666Zm4.23,0a2.346,2.346,0,0,0,2.391,2.527,2.346,2.346,0,0,0,2.391-2.527,2.359,2.359,0,0,0-2.391-2.568A2.359,2.359,0,0,0,16.179-7.666Zm1.07,0c0-.852.361-1.669,1.322-1.669s1.322.817,1.322,1.669c0,.811-.361,1.628-1.322,1.628S17.249-6.855,17.249-7.666Z" transform="translate(5.376 22.912)" fill="#fff"/>
      </g>
      <ellipse id="Ellipse_115" data-name="Ellipse 115" cx="13.01" cy="13.01" rx="13.01" ry="13.01" transform="translate(0 34.279) rotate(-76.59)" fill="none" stroke="#000" stroke-linecap="round" stroke-linejoin="round" stroke-width="0.3"/>
      <ellipse id="Ellipse_116" data-name="Ellipse 116" cx="11.101" cy="11.101" rx="11.101" ry="11.101" transform="matrix(0.228, -0.974, 0.974, 0.228, 94.617, 29.969)" fill="#407bff"/>
      <g id="Group_5372" data-name="Group 5372" transform="translate(94.617 8.35)" clip-path="url(#clip-path-4)">
        <ellipse id="Ellipse_117" data-name="Ellipse 117" cx="11.101" cy="11.101" rx="11.101" ry="11.101" transform="matrix(0.228, -0.974, 0.974, 0.228, 0, 21.619)" fill="#407bff" opacity="0.2"/>
      </g>
      <ellipse id="Ellipse_119" data-name="Ellipse 119" cx="11.101" cy="11.101" rx="11.101" ry="11.101" transform="matrix(0.228, -0.974, 0.974, 0.228, 94.617, 29.969)" fill="none" stroke="#263238" stroke-linecap="round" stroke-linejoin="round" stroke-width="0.3"/>
      <rect id="Rectangle_3256" data-name="Rectangle 3256" width="24.257" height="24.257" rx="12.129" transform="translate(48.249 0)" fill="#407bff" stroke="#263238" stroke-linecap="round" stroke-linejoin="round" stroke-width="0.3"/>
    </g>
    <g id="freepik--Desk--inject-62" transform="translate(57.45 127.992)">
      <rect id="Rectangle_3257" data-name="Rectangle 3257" width="99.251" height="3.522" transform="translate(0 18.183)" fill="#263238" stroke="#263238" stroke-linecap="round" stroke-linejoin="round" stroke-width="0.5"/>
      <rect id="Rectangle_3258" data-name="Rectangle 3258" width="22.223" height="3.522" transform="translate(97.768 18.183)" fill="#858585" stroke="#263238" stroke-linecap="round" stroke-linejoin="round" stroke-width="0.5"/>
      <path id="Union_1" data-name="Union 1" d="M-10139.427-12509.649h-1.441l-.392-57.5h3.675l-.392,57.5Z" transform="translate(10243.178 12588.846)" fill="#858585" stroke="#263238" stroke-linecap="round" stroke-linejoin="round" stroke-width="0.5"/>
      <path id="Union_2" data-name="Union 2" d="M-10139.427-12509.649h-1.441l-.392-57.5h3.675l-.392,57.5Z" transform="translate(10257.576 12588.846)" fill="#858585" stroke="#263238" stroke-linecap="round" stroke-linejoin="round" stroke-width="0.5"/>
      <path id="Union_3" data-name="Union 3" d="M-10139.427-12509.649h-1.441l-.392-57.5h3.675l-.392,57.5Z" transform="translate(10157.732 12588.846)" fill="#858585" stroke="#263238" stroke-linecap="round" stroke-linejoin="round" stroke-width="0.5"/>
      <path id="Union_4" data-name="Union 4" d="M-10139.427-12509.649h-1.441l-.392-57.5h3.675l-.392,57.5Z" transform="translate(10141.26 12588.846)" fill="#858585" stroke="#263238" stroke-linecap="round" stroke-linejoin="round" stroke-width="0.5"/>
      <path id="Path_9093" data-name="Path 9093" d="M244.22,249.064H232.589a.433.433,0,0,1-.429-.433v-.96l12.494.39v.57A.433.433,0,0,1,244.22,249.064Z" transform="translate(-180.084 -231.272)" fill="#858585" stroke="#263238" stroke-linecap="round" stroke-linejoin="round" stroke-width="0.5"/>
      <path id="Path_9094" data-name="Path 9094" d="M183.081,223.461H159.7a.933.933,0,0,1-.855-.652l-5.021-16.3a.617.617,0,0,1,.593-.843H177.8a.929.929,0,0,1,.855.648l5.021,16.3a.621.621,0,0,1-.593.847Z" transform="translate(-132.306 -205.669)" fill="#999" stroke="#263238" stroke-linecap="round" stroke-linejoin="round" stroke-width="0.5"/>
      <path id="Path_9095" data-name="Path 9095" d="M222.211,222.615l-5.021-16.3a.929.929,0,0,0-.855-.648H215.3a.929.929,0,0,1,.855.648l5.021,16.3a.621.621,0,0,1-.593.847h1.05a.621.621,0,0,0,.578-.847Z" transform="translate(-169.807 -205.67)" fill="#858585" stroke="#263238" stroke-linecap="round" stroke-linejoin="round" stroke-width="0.5"/>
      <path id="Path_9096" data-name="Path 9096" d="M191.289,226.194a1.253,1.253,0,0,1-1.269,1.449,1.683,1.683,0,0,1-1.624-1.449,1.249,1.249,0,0,1,1.269-1.445,1.687,1.687,0,0,1,1.624,1.445Z" transform="translate(-153.398 -217.3)" fill="#fff" stroke="#263238" stroke-linecap="round" stroke-linejoin="round" stroke-width="0.5"/>
    </g>
  </g>
</svg>
